<svg width="225" height="49" viewBox="0 0 225 49" fill="none" xmlns="http://www.w3.org/2000/svg">
<g clip-path="url(#clip0_210_290)">
<path d="M224.756 21.6598C224.039 17.7259 221.917 15.3777 219.08 15.3777C217.389 15.3777 215.99 16.335 215.031 18.1448C214.231 19.6526 213.793 21.6744 213.793 23.8326C213.793 27.674 215.249 31.8076 218.448 31.8076C218.774 31.8076 219.087 31.7199 219.377 31.5933C219.531 31.1914 219.686 30.7943 219.84 30.4046C219.54 30.6092 219.104 30.787 218.448 30.787C216.052 30.787 214.797 27.2891 214.797 23.8302C214.797 21.8644 215.204 19.9669 215.915 18.6247C216.454 17.6065 217.442 16.3934 219.083 16.3934C221.397 16.3934 223.15 18.4298 223.771 21.8425C224.823 27.6204 222.358 37.2518 213.659 40.9202V42.0237C223.189 38.2651 225.894 27.8591 224.758 21.6574L224.756 21.6598Z" fill="#B48039"/>
<path d="M105.977 5.59766C104.815 7.84597 103.224 11.624 103.016 12.1234H104.108C104.635 10.8835 106.142 7.38071 107.119 5.59766H105.979H105.977Z" fill="#B48039"/>
<path d="M182.126 36.3895C180.852 37.0155 178.899 36.7719 176.832 36.5137C174.898 36.2726 172.908 36.0241 171.161 36.426C171.705 35.5223 172.955 34.2898 174.261 33.0012C177.498 29.8127 181.525 25.8422 181.525 21.2603C181.525 18.425 179.982 15.3752 176.592 15.3752C174.781 15.3752 173.221 16.2838 172.316 17.8696C171.398 19.4699 171.288 21.4966 171.978 23.2114H173.085C172.321 21.7109 172.352 19.8353 173.183 18.3811C173.916 17.0998 175.126 16.3959 176.592 16.3959C179.695 16.3959 180.521 19.4553 180.521 21.2627C180.521 25.4135 176.664 29.2159 173.564 32.2705C171.422 34.3799 169.877 35.9048 169.877 37.2055V37.9606L170.567 37.6781C172.282 36.9741 174.534 37.2542 176.709 37.5246C178.724 37.7755 180.638 38.0118 182.126 37.4881V36.3871V36.3895Z" fill="#B48039"/>
<path d="M171.866 0.192306C169.662 4.98123 166.902 11.6458 164.693 18.4687C164.585 17.8012 164.381 17.2264 164.07 16.7587C163.469 15.855 162.515 15.3775 161.313 15.3775C157.549 15.3775 154.181 20.03 152.377 25.0431L152.353 25.0333C149.943 30.8283 145.527 36.6963 141.754 36.6963C140.408 36.6963 139.385 36.1872 138.719 35.1836C138.098 34.2482 137.77 32.8622 137.77 31.1742C137.77 30.0853 137.904 28.9137 138.144 27.725C139.008 28.2584 140.103 28.5824 141.122 28.5824C146.287 28.5824 149.145 23.2405 149.145 19.5477C149.145 18.381 148.879 17.3798 148.376 16.6539C147.796 15.8184 146.931 15.3751 145.875 15.3751C142.427 15.3751 139.037 20.4466 137.552 25.8299L137.435 26.1514C136.131 29.7321 133.417 37.1859 129.61 37.1859C128.891 37.1859 128.417 36.9959 128.156 36.6062C127.193 35.1544 128.839 30.989 130.291 27.3109C132.006 22.9677 133.628 18.8633 132.339 16.9243C131.872 16.2228 131.079 15.8647 129.981 15.8647C127.557 15.8647 125.367 18.1008 123.604 20.8047C126.441 13.0367 129.656 4.77905 131.745 0.187435H130.635C127.873 6.31122 123.415 17.9449 120.233 27.0039C118.784 29.9173 116.197 33.2593 113.482 35.2957C114.733 32.4286 114.199 27.8955 113.717 23.8251C113.358 20.79 113.022 17.9084 113.453 16.2155H112.282C109.187 22.9239 101.851 37.1835 98.2048 37.1835C97.4286 37.1835 96.8896 36.9277 96.559 36.4064C95.4641 34.6745 96.5614 30.4288 98.1018 26.2245C98.4636 25.3622 98.6792 24.7824 98.7175 24.6753L98.6911 24.6655C99.7333 21.9934 100.869 19.4674 101.633 17.772L102.136 16.6466L102.105 16.632H101.041L100.72 17.3457C99.6398 19.7426 98.1665 23.0213 97.0022 26.2683C94.9035 31.2229 91.3986 37.181 88.4255 37.181C87.8122 37.181 87.3954 36.952 87.1103 36.4576C85.8621 34.2945 87.2804 27.6348 91.1111 17.7087C93.8398 10.6325 97.1387 3.58791 98.8732 0.184999H97.752C96.1134 3.46125 93.0373 9.99182 90.3972 16.727C88.5573 20.6585 85.3638 27.0307 81.3414 30.134C82.1368 27.6811 82.5968 25.082 82.5968 22.8922C82.5968 18.7366 81.0516 16.3543 78.3564 16.3543C76.6027 16.3543 74.9952 17.0461 73.7159 18.3298C76.2027 10.8882 79.6141 3.41496 81.4349 0.187435H80.3161C78.1815 4.20662 74.0681 13.3143 71.646 21.6523C71.4136 22.271 71.2339 22.9214 71.107 23.5864C68.4501 32.1047 65.295 37.1835 62.746 37.1835C62.0728 37.1835 61.5984 36.9691 61.287 36.5258C60.0963 34.8182 61.3421 30.1803 62.5208 26.5533C63.0814 25.0333 63.4431 23.8714 63.5629 23.4792L63.63 23.2844H62.5663L62.4034 23.7594C62.0895 24.6704 61.7422 25.6813 61.4044 26.7311C59.6244 31.391 56.5075 37.6755 53.6447 37.6755C52.8469 37.6755 52.2671 37.3783 51.8742 36.7645C51.4885 36.1604 51.2849 35.2348 51.2849 34.0875C51.2849 28.2779 56.601 17.3749 61.3229 17.3749C63.7977 17.3749 65.0506 19.1604 65.0506 22.6827H66.0544C66.0544 18.6002 64.375 16.3543 61.3229 16.3543C57.152 16.3543 52.9331 22.9507 51.1555 28.9064C49.6199 33.9973 46.1509 37.6755 44.5697 37.6755C43.839 37.6755 43.3359 37.4051 42.9862 36.8205C41.0073 33.5248 44.6751 22.1663 48.125 13.4215H54.8928C55.0294 13.0781 55.1635 12.737 55.2977 12.4009H48.5298C49.8283 9.17093 51.0573 6.37942 51.9078 4.60123H50.801C50.008 6.31365 48.7718 9.11734 47.4542 12.4009H41.6254C41.4912 12.737 41.3547 13.0756 41.2181 13.4215H47.0469C45.6646 16.9316 44.2367 20.8923 43.1682 24.6168H43.1587C41.5703 29.9148 38.9518 34.1508 36.0865 36.3991C37.4665 33.4663 36.9394 28.6969 36.4674 24.4171C36.0913 21.0141 35.7344 17.7988 36.398 16.2179H35.2912C33.3075 20.4904 20.1287 47.9744 9.62355 47.9744C6.11384 47.9744 4.51591 44.9027 4.51591 42.0503C4.51591 39.8848 5.38794 37.7632 6.90922 36.2237C8.65808 34.4553 11.1903 33.4907 14.2473 33.4127C14.3814 33.0717 14.5132 32.7356 14.6474 32.4043V32.3848C12.4337 32.3848 10.7591 31.7466 9.67386 30.4872C8.373 28.977 7.91062 26.5363 8.32508 23.489C9.30253 23.6814 10.3974 23.791 11.624 23.791C24.1583 23.791 31.0915 12.9928 31.0915 5.5293C31.0915 2.11665 29.4912 -0.00256348 26.9182 -0.00256348C18.7153 -0.000127605 9.36721 12.4033 7.50096 22.2418C4.87766 21.494 2.92755 19.9716 1.85188 17.7793C0.469559 14.9586 0.788188 11.3803 2.64726 8.87619C4.23801 6.73019 6.59778 5.80455 9.30732 6.24545C9.43669 5.9166 9.56606 5.59263 9.69303 5.27353C6.54986 4.68649 3.69178 5.77532 1.84709 8.25991C0.627675 9.90656 0 11.9624 0 14.0183C0 15.4725 0.313838 16.9267 0.953491 18.2348C1.7273 19.8133 3.49534 22.2028 7.33326 23.26C7.22306 24.0492 7.16556 24.819 7.16556 25.5595C7.16556 27.932 7.75251 29.8174 8.91203 31.1644C9.52054 31.8708 10.2728 32.4116 11.164 32.7867C9.18514 33.269 7.50096 34.1849 6.1929 35.5076C4.48476 37.2346 3.50252 39.6218 3.50252 42.0576C3.50252 45.5093 5.60116 49.0023 9.61397 49.0023C19.5322 49.0023 31.0244 27.3304 35.0157 19.1336C35.0372 20.6999 35.2408 22.5487 35.4613 24.5388C35.9859 29.2717 36.5777 34.6355 34.5413 36.9545C33.8226 37.7729 32.8116 38.1724 31.4508 38.1724C29.3474 38.1724 28.3891 36.3479 28.3891 34.6526H27.3853C27.3853 36.9082 28.782 39.193 31.4508 39.193C31.5203 39.193 31.5874 39.1931 31.6545 39.1882V39.193C35.2504 39.193 39.0165 35.9217 41.7404 30.7674C41.5511 31.9707 41.4433 33.0839 41.4433 34.0704C41.4433 35.4467 41.6494 36.5769 42.1213 37.3613C42.6484 38.2382 43.4917 38.7034 44.5602 38.7034C46.2803 38.7034 48.5682 36.46 50.2955 33.4005C50.2811 33.6393 50.2739 33.8707 50.2739 34.0972C50.2739 35.4613 50.5279 36.5501 51.0262 37.3296C51.6011 38.2284 52.5043 38.7034 53.6375 38.7034C56.026 38.7034 58.2348 35.7487 59.9645 32.4311C59.8615 33.1229 59.8016 33.783 59.8016 34.3968C59.8016 35.5027 59.9933 36.4503 60.4629 37.125C60.966 37.8484 61.7326 38.2138 62.7388 38.2138C65.5729 38.2138 68.0572 34.0948 69.8876 29.754C69.7798 30.6748 69.7223 31.5517 69.7223 32.3653C69.7223 33.9949 69.9522 35.3858 70.4745 36.4356C71.2244 37.941 72.4965 38.7034 74.2597 38.7034C76.8758 38.7034 79.2117 35.6074 80.7377 31.7904C83.5599 30.134 85.9532 26.9577 87.8817 23.6863C86.5593 27.7664 85.6681 31.5079 85.6681 34.1605C85.6681 35.3395 85.8454 36.3041 86.2383 36.9861C86.703 37.79 87.4553 38.2138 88.4184 38.2138C91.0273 38.2138 93.5356 35.0009 95.4258 31.7052C95.2341 32.682 95.1239 33.5979 95.1239 34.4114C95.1239 35.4467 95.3012 36.3236 95.7061 36.9667C96.2284 37.7949 97.0669 38.2138 98.1976 38.2138C102.388 38.2138 109.218 24.9822 112.239 18.666C112.27 20.2079 112.483 22.0128 112.713 23.9567C113.255 28.5288 113.866 33.7099 111.891 35.9728C111.446 36.4844 110.878 36.8327 110.181 37.0227C110.174 37.0227 110.167 37.0251 110.157 37.0276C109.743 37.1372 109.283 37.1932 108.775 37.1932C106.714 37.1932 105.603 35.3785 105.603 33.6734H104.599C104.599 35.8754 106.063 38.2138 108.775 38.2138C108.83 38.2138 108.882 38.2138 108.938 38.2114C108.981 38.2138 109.021 38.2114 109.065 38.209C109.079 38.209 109.096 38.209 109.11 38.209C109.283 38.2041 109.455 38.1895 109.63 38.1651C109.663 38.1602 109.695 38.1578 109.726 38.1529C109.795 38.1432 109.865 38.1334 109.934 38.1213C110.073 38.0969 110.207 38.0677 110.339 38.0336C110.358 38.0287 110.375 38.0238 110.394 38.019C110.49 37.9946 110.583 37.9678 110.674 37.9361C113.523 37.0738 116.515 34.2994 118.762 31.274C117.828 34.0582 117.109 36.3674 116.733 37.8509H117.888C118.343 36.0581 119.333 32.9572 120.612 29.2279C122.404 24.3976 126.156 16.8951 129.974 16.8951C130.729 16.8951 131.227 17.0948 131.5 17.504C132.492 18.9948 130.825 23.2137 129.354 26.9382C127.658 31.2326 126.055 35.2835 127.317 37.1859C127.773 37.8679 128.539 38.2163 129.603 38.2163C132.794 38.2163 135.168 34.2507 136.773 30.5871C136.766 30.7869 136.761 30.9866 136.761 31.1839C136.761 35.3419 138.58 37.7267 141.749 37.7267C145.115 37.7267 148.625 34.0095 151.191 29.6176C151.054 30.5043 150.982 31.3593 150.982 32.1558C150.982 33.7878 151.272 35.0984 151.842 36.0483C152.504 37.1469 153.536 37.7267 154.827 37.7267C157.693 37.7267 159.99 33.705 161.672 29.8758C161.138 32.6771 160.824 35.3224 160.824 37.6731C160.824 39.556 161.027 41.2514 161.475 42.6812H162.534C160.905 38.075 162.067 29.5324 165.9 17.9522C168.145 11.1708 170.835 4.75469 172.958 0.199614H171.858L171.866 0.192306ZM145.872 16.3982C146.598 16.3982 147.163 16.6832 147.554 17.2434C147.937 17.7964 148.141 18.5953 148.141 19.5502C148.141 22.8264 145.642 27.5642 141.122 27.5642C140.051 27.5642 139.03 27.1379 138.388 26.6654C139.694 21.5232 142.866 16.3982 145.872 16.3982ZM14.2545 9.7531C18.2649 4.20419 22.879 1.0205 26.9134 1.0205C29.7738 1.0205 30.0829 4.17496 30.0829 5.53174C30.0829 9.09542 28.3029 13.3314 25.4376 16.5833C22.9509 19.4089 18.5332 22.7753 11.6192 22.7753C10.5028 22.7753 9.45586 22.6754 8.48799 22.483C9.24982 18.476 11.3485 13.7772 14.2545 9.75554V9.7531ZM79.2763 32.6844C77.7718 35.8583 75.9439 37.6779 74.2621 37.6779C72.8894 37.6779 71.9455 37.1201 71.3729 35.9704C70.5128 34.2409 70.5488 31.3958 71.1333 28.0221C71.7442 30.7235 73.529 32.9694 76.6914 32.9694C77.6233 32.9694 78.5217 32.7843 79.3889 32.4457C79.3506 32.5261 79.3147 32.6064 79.2763 32.6844ZM79.9759 31.0378C78.9266 31.6151 77.8269 31.9488 76.6914 31.9488C73.1505 31.9488 71.8928 28.636 71.8928 25.7982C71.8928 25.065 71.9694 24.3269 72.1156 23.6083C72.2354 23.1577 72.3599 22.7022 72.4917 22.2443C73.4428 19.5234 75.4887 17.3798 78.3492 17.3798C81.2097 17.3798 81.5858 20.8363 81.5858 22.8971C81.5858 25.3963 80.9845 28.3827 79.9759 31.0378ZM162.467 25.2501L162.242 25.825C160.757 29.6249 157.992 36.6987 154.835 36.6987C153.883 36.6987 153.186 36.309 152.705 35.5076C152.238 34.7305 151.991 33.5686 151.991 32.1485C151.991 26.2147 156.346 16.3982 161.313 16.3982C162.177 16.3982 162.827 16.7124 163.239 17.3311C163.603 17.8792 163.783 18.6489 163.783 19.6013C163.783 21.097 163.339 23.0359 162.467 25.2501Z" fill="#B48039"/>
<path d="M205.147 15.3777C201.594 15.3777 199.474 19.7014 199.474 26.9408C199.474 33.2862 201.807 37.7171 205.147 37.7171C208.486 37.7171 210.82 33.2862 210.82 26.9408C210.82 19.6989 208.699 15.3777 205.147 15.3777ZM205.147 36.6964C202.442 36.6964 200.477 32.592 200.477 26.9408C200.477 21.8449 201.704 16.3983 205.147 16.3983C208.589 16.3983 209.816 21.8449 209.816 26.9408C209.816 32.5944 207.851 36.6964 205.147 36.6964Z" fill="#B48039"/>
<path d="M190.636 15.3777C187.083 15.3777 184.963 19.7014 184.963 26.9408C184.963 33.2862 187.296 37.7171 190.636 37.7171C193.976 37.7171 196.309 33.2862 196.309 26.9408C196.309 19.6989 194.189 15.3777 190.636 15.3777ZM190.636 36.6964C187.931 36.6964 185.967 32.592 185.967 26.9408C185.967 21.8449 187.193 16.3983 190.636 16.3983C194.079 16.3983 195.305 21.8449 195.305 26.9408C195.305 32.5944 193.341 36.6964 190.636 36.6964Z" fill="#B48039"/>
</g>
<defs>
<clipPath id="clip0_210_290">
<rect width="225" height="49" fill="white"/>
</clipPath>
</defs>
</svg>
