<svg width="297" height="56" viewBox="0 0 297 56" fill="none" xmlns="http://www.w3.org/2000/svg">
<g clip-path="url(#clip0_210_984)">
<path d="M44.9776 55.5456H36.7982L36.8219 54.4934C36.8219 54.3618 37.1011 41.1076 37.1011 28.3198C37.1011 15.5319 36.8219 9.21867 36.8219 9.15888L36.7744 8.08276H45.0013L44.9538 9.15888C44.9538 9.22464 44.6746 15.5558 44.6746 28.3198C44.6746 41.0837 44.9538 54.3618 44.9538 54.4934L44.9776 55.5456V55.5456Z" fill="#16374B"/>
<path d="M217.921 56L216.763 55.9642C207.77 55.4859 204.081 49.3042 204.081 34.9141V31.3689C204.087 18.587 203.808 9.23672 203.808 9.14107L203.778 8.0769H211.975L211.939 9.14107C211.939 9.23074 211.66 17.9951 211.66 30.771V34.2206C211.66 45.9025 213.733 48.0427 217.808 48.0906C221.859 48.0427 223.926 45.9025 223.926 34.3222V30.771C223.926 17.9951 223.653 9.22476 223.653 9.14107L223.617 8.0769H231.815L231.785 9.14107C231.785 9.23074 231.506 18.587 231.506 31.3689V34.8244C231.512 49.2384 227.859 55.4321 218.949 55.9582V55.9941H217.921V56Z" fill="#16374B"/>
<path d="M167.14 54.2124C166.243 51.2172 163.915 43.3735 161.467 34.3281C164.17 31.5302 165.536 27.716 165.536 22.9751C165.536 17.5945 163.938 13.5172 160.79 10.8508C158.153 8.62086 154.713 7.54474 150.288 7.61051C148.815 7.61051 146.772 7.75997 144.966 7.89747C143.719 7.99313 142.536 8.07682 141.972 8.07682H139.632L139.679 9.15294C139.679 9.21871 139.959 15.5379 139.959 28.3138C139.959 41.0897 139.679 54.3559 139.679 54.4874L139.656 55.5396H147.829L147.805 54.4874C147.805 54.4157 147.657 47.2894 147.574 38.5071C149.902 38.8538 152.219 38.7701 154.393 38.25C156.353 45.8426 157.594 51.7852 158.177 54.7086L158.343 55.5396H167.538L167.14 54.2064V54.2124ZM150.395 31.04C149.457 31.04 148.482 30.9144 147.538 30.6753V28.3198C147.538 23.8121 147.568 19.6331 147.633 15.8847C148.583 15.7292 149.682 15.5917 150.781 15.5917C156.929 15.5917 157.404 21.2413 157.404 22.9751C157.404 26.885 154.945 31.04 150.389 31.04H150.395Z" fill="#16374B"/>
<path d="M261.437 28.9894C263.701 26.2333 264.645 22.7599 264.11 19.0831C263.166 12.5726 258.081 8.2801 251.048 7.95726L250.175 7.93335C249.284 7.93335 247.936 7.9752 246.677 8.01705C245.584 8.05292 244.55 8.08281 243.944 8.08281H239.572L239.62 9.15893C239.62 9.22469 239.899 15.5559 239.899 28.3198C239.899 41.0838 239.62 54.3619 239.62 54.4934L239.596 55.5456H245.322C246.249 55.5755 247.288 55.6711 248.292 55.7668C249.534 55.8804 250.811 56 251.904 56C260.897 56 267.674 49.621 267.674 41.1615C267.674 36.032 265.417 31.6677 261.431 28.9954L261.437 28.9894ZM247.568 15.8368C248.262 15.7711 248.851 15.7292 249.932 15.7292C249.985 15.7292 255.408 15.783 256.062 20.2669C256.276 21.7435 255.949 22.9093 255.034 23.9376C254.197 24.8822 252.498 26.1855 247.467 26.8969C247.472 22.9213 247.508 19.2147 247.568 15.8428V15.8368ZM251.91 47.8095C249.825 47.8095 248.738 47.6361 247.621 47.3432C247.567 43.9594 247.514 39.6609 247.49 35.0874C248.393 34.8064 249.896 34.4477 251.916 34.4477C256.697 34.4477 259.548 36.9527 259.548 41.1495C259.548 45.3464 255.705 47.8095 251.916 47.8095H251.91Z" fill="#16374B"/>
<path d="M295.563 55.5754L273.21 55.5097L273.234 54.4575C273.234 54.3259 273.549 41.0718 273.585 28.2839C273.62 15.5199 273.359 9.18278 273.359 9.12299L273.311 8.04688L294.511 8.10666L295.301 15.9922L294.042 15.8547C294 15.8547 290.151 15.4422 281.301 15.2748C281.235 18.3059 281.188 21.6239 281.17 25.1811C285.779 24.2664 291.102 24.0153 295.373 24.5414L296.186 24.643L296.994 32.7259L295.64 32.4628C291.28 31.6198 285.572 31.6378 281.146 32.4748C281.152 38.4891 281.212 44.2284 281.265 48.3296C291.191 48.2279 295.093 47.8334 295.129 47.8274L296.388 47.6959L295.557 55.5814L295.563 55.5754Z" fill="#16374B"/>
<path d="M67.2529 55.5456H59.0676L59.0913 54.4875C59.0913 54.3739 59.3705 42.961 59.3705 30.1791C59.3705 23.8121 59.2992 18.7304 59.2339 15.3347C54.9571 15.4303 51.6248 15.6276 51.5891 15.6276L50.3833 15.6994L51.1733 8.04698L63.677 8.01709L75.1353 8.04698L75.9312 15.7113L74.7076 15.6217C74.672 15.6217 71.5297 15.3945 67.0747 15.3108C67.0094 18.7065 66.9381 23.7942 66.9381 30.1732C66.9381 42.9551 67.2173 54.3679 67.2173 54.4815L67.241 55.5397L67.2529 55.5456Z" fill="#16374B"/>
<path d="M95.1114 55.5455H86.9261L86.9498 54.4873C86.9498 54.3738 87.229 42.9609 87.229 30.179C87.229 23.8359 87.1577 18.7303 87.0924 15.3166C82.6374 15.4003 79.4951 15.6275 79.4595 15.6275L78.2358 15.7172L79.0318 8.05284L90.4841 8.02295L102.994 8.05284L103.784 15.7052L102.578 15.6335C102.542 15.6335 99.204 15.4362 94.9332 15.3406C94.8678 18.7363 94.7966 23.818 94.7966 30.185C94.7966 42.9669 95.0757 54.3797 95.0757 54.4933L95.0995 55.5515L95.1114 55.5455Z" fill="#16374B"/>
<path d="M131.719 55.5754L109.367 55.5097L109.391 54.4575C109.391 54.3259 109.712 41.0718 109.741 28.2839C109.777 15.508 109.516 9.18278 109.51 9.12299L109.462 8.04688L130.662 8.10666L131.452 15.9922L130.193 15.8547C130.151 15.8547 126.302 15.4422 117.452 15.2748C117.386 18.3059 117.339 21.6239 117.321 25.1811C121.93 24.2664 127.253 24.0153 131.523 24.5414L132.337 24.643L133.151 32.7259L131.797 32.4628C127.431 31.6198 121.728 31.6318 117.303 32.4748C117.315 38.501 117.368 44.2343 117.422 48.3296C127.348 48.2279 131.25 47.8334 131.286 47.8274L132.545 47.6959L131.713 55.5814L131.719 55.5754Z" fill="#16374B"/>
<path d="M198.972 48.2281C198.544 46.7276 198.063 45.0416 197.606 43.3737L197.238 42.0345C196.252 43.3976 195.105 44.6471 193.876 45.6634C192.872 46.5841 191.66 47.2776 190.466 47.6961C190.436 47.708 190.407 47.714 190.371 47.726C190.187 47.7857 190.009 47.8395 189.83 47.8874C189.7 47.9232 189.563 47.9531 189.432 47.983C189.278 48.0189 189.118 48.0488 188.969 48.0727C188.88 48.0847 188.785 48.0966 188.696 48.1086C188.47 48.1325 188.244 48.1504 188.031 48.1504C182.441 48.1504 178.966 42.1361 178.966 32.463C178.966 22.7899 183.641 15.556 187.841 15.556C190.537 15.556 192.789 16.8593 194.963 19.9203L195.372 19.8425L197.113 8.16666L195.901 8.19057C194.125 8.22644 192.931 8.10687 191.66 7.9873C190.436 7.86773 189.171 7.74219 187.318 7.74219C178.259 7.74219 171.167 18.599 171.167 32.463C171.167 46.327 177.671 56.0001 187.746 56.0001C192.658 56.0001 197.428 53.0946 199.275 51.2652L199.709 50.8347L198.972 48.2341V48.2281Z" fill="#16374B"/>
<path d="M22.1739 22.2398C25.1024 19.2864 25.9161 16.1059 25.9161 13.2064C25.9161 5.79908 20.0296 0.185331 12.165 0H11.1374C10.1514 0 8.80894 0.0657628 7.38928 0.143482C5.99932 0.215224 4.56778 0.292943 3.55798 0.292943H0.184059L0.225639 1.36308C0.225639 1.4408 0.522639 9.15298 0.522639 21.9528C0.522639 32.439 0.320679 46.1416 0.237519 51.5042L0.00585938 55.5755H9.0703C21.77 55.5755 29.9791 48.0128 29.9791 36.3011C29.9791 30.6096 27.0863 25.4442 22.1739 22.2338V22.2398ZM8.52382 7.80784C9.42076 7.58663 10.49 7.47304 11.773 7.47304C14.6598 7.47304 17.7783 9.66713 17.7783 13.2064C17.7783 16.1119 15.1826 18.9098 11.577 18.9098C10.193 18.9098 8.98714 19.0174 8.40502 19.0832C8.4169 15.1434 8.45848 11.359 8.52976 7.80784H8.52382ZM9.49798 47.7976C9.2188 47.7976 8.93962 47.7856 8.6545 47.7617C8.58916 44.1866 8.4466 35.4581 8.40502 26.6638C9.21286 26.5383 10.1039 26.4725 11.1255 26.4546C17.6358 26.6877 21.8413 30.5558 21.8413 36.313C21.8413 43.5051 17.2259 47.7976 9.49798 47.7976V47.7976Z" fill="#16374B"/>
<path d="M38.895 53.4832H42.8808C42.8154 50.0874 42.6194 39.0393 42.6194 28.3199C42.6194 18.4974 42.7857 12.4592 42.8629 10.1455H38.9128C38.9901 12.4592 39.1564 18.4974 39.1564 28.3199C39.1564 39.0393 38.9604 50.0874 38.895 53.4832V53.4832Z" fill="#D3B162"/>
<path d="M205.886 10.1455C205.958 12.9494 206.136 21.0442 206.136 31.369V34.8305C206.13 50.5836 210.745 53.8479 217.677 53.9316H217.903C224.835 53.8479 229.45 50.5836 229.45 34.9201V31.3749C229.444 21.0502 229.622 12.9554 229.694 10.1515H225.726C225.797 12.8657 225.975 20.542 225.975 30.7831V34.2745C225.975 44.3003 224.633 50.0934 217.802 50.1652C210.947 50.0934 209.611 44.3003 209.611 34.3283V30.7771C209.611 20.5301 209.783 12.8537 209.854 10.1455H205.886V10.1455Z" fill="#D3B162"/>
<path d="M275.313 53.4532L293.721 53.507L294.095 49.9797C292.165 50.1172 287.876 50.3444 280.273 50.3982H279.251L279.239 49.3818C279.18 45.0654 279.109 38.4831 279.109 31.6319V30.8009L279.911 30.6215C284.247 29.659 290.009 29.5095 294.689 30.203L294.321 26.4964C290.009 26.0839 284.752 26.4426 280.374 27.4589L279.109 27.7519V26.4486C279.138 21.9827 279.192 17.8575 279.281 14.1928L279.305 13.1705L280.32 13.1884C287.104 13.296 291.143 13.5411 293.014 13.6846L292.664 10.1573L275.456 10.1035C275.527 12.4172 275.675 18.4554 275.646 28.2839C275.616 39.0033 275.39 50.0514 275.319 53.4472L275.313 53.4532Z" fill="#D3B162"/>
<path d="M111.464 53.4532L129.878 53.507L130.252 49.9797C128.322 50.1172 124.033 50.3444 116.43 50.3982H115.408L115.396 49.3818C115.337 45.0714 115.265 38.4951 115.265 31.6319V30.8009L116.067 30.6215C120.404 29.659 126.165 29.5095 130.846 30.203L130.472 26.4964C126.159 26.0839 120.903 26.4426 116.531 27.4589L115.265 27.7519V26.4486C115.295 21.9827 115.349 17.8575 115.438 14.1928L115.461 13.1705L116.477 13.1884C123.261 13.296 127.3 13.5411 129.171 13.6846L128.821 10.1573L111.606 10.1035C111.678 12.4172 111.826 18.4554 111.797 28.2839C111.767 39.0033 111.541 50.0514 111.47 53.4472L111.464 53.4532Z" fill="#D3B162"/>
<path d="M187.318 9.80469C179.412 9.80469 173.222 19.7528 173.222 32.457C173.222 45.1612 178.925 53.9315 187.745 53.9315C191.505 53.9315 195.444 51.863 197.398 50.189L197 48.796C196.762 47.9591 196.507 47.0623 196.246 46.1416C194.107 48.7243 190.686 50.2129 188.025 50.2129C181.17 50.2129 176.911 43.4095 176.911 32.457C176.911 21.5045 181.811 13.4874 187.835 13.4874C190.335 13.4874 192.42 14.4978 193.905 15.7592L194.725 10.2531C193.442 10.2292 192.438 10.1335 191.458 10.0378C190.282 9.92426 189.07 9.80469 187.318 9.80469V9.80469Z" fill="#D3B162"/>
<path d="M19.9645 23.3158L18.6221 22.5745C18.9963 22.2995 19.9942 21.5103 20.8437 20.6554C22.9524 18.5331 23.8671 15.9384 23.8671 13.2063C23.8671 6.8572 18.6696 2.0625 11.7733 2.0625C9.51608 2.0625 6.84308 2.35544 3.55826 2.35544H2.31086C2.38808 4.90226 2.57222 11.8492 2.57222 21.9528C2.57222 32.0563 2.37026 46.1714 2.2871 51.5819L2.18018 53.5129H9.07058C20.7011 53.5129 27.9241 46.9187 27.9241 36.301C27.9241 30.8367 25.0195 26.1018 19.9645 23.3099V23.3158ZM6.34412 20.2489C6.356 15.5857 6.40352 11.1318 6.48668 7.00667L6.49856 6.28925L7.16978 6.05609C8.41124 5.61967 9.91406 5.41042 11.7673 5.41042C15.6462 5.41042 19.8279 8.39366 19.8279 13.2063C19.8279 17.5526 16.0026 20.9723 11.5773 20.9723C9.029 20.9723 6.34412 21.4565 6.34412 21.4565V20.2549V20.2489ZM9.49826 49.8541C8.84486 49.8541 8.19146 49.8003 7.49054 49.6867L6.64112 49.5552L6.6233 48.6883C6.56984 45.8366 6.39164 35.751 6.35006 25.7969V24.9599L7.1579 24.7865C8.3162 24.5354 9.58142 24.4099 11.1436 24.386C18.7884 24.661 23.8849 29.4497 23.8849 36.307C23.8849 44.6648 18.3726 49.8601 9.49232 49.8601L9.49826 49.8541Z" fill="#D3B162"/>
<path d="M61.1699 53.483H65.1497C65.0784 50.3563 64.8943 40.737 64.8943 30.1791C64.8943 23.1006 64.9774 17.6064 65.0487 14.2466L65.0725 13.2243C67.104 13.2243 72.153 13.4156 73.6439 13.4993L73.2934 10.1155L63.6825 10.0916L53.0321 10.1155L52.6816 13.5112C54.2082 13.4395 59.4176 13.2362 61.2531 13.2362L61.2768 14.2645C61.3481 17.6244 61.4313 23.1126 61.4313 30.1851C61.4313 40.743 61.2412 50.3623 61.1758 53.489L61.1699 53.483Z" fill="#D3B162"/>
<path d="M89.0288 53.495H93.0086C92.9373 50.3683 92.7532 40.749 92.7532 30.1911C92.7532 23.1126 92.8363 17.6184 92.9076 14.2585L92.9314 13.2362C94.9628 13.2362 100.012 13.4275 101.503 13.5112L101.152 10.1274L91.5414 10.1035L80.891 10.1274L80.5405 13.5232C82.0671 13.4514 87.2765 13.2482 89.112 13.2482L89.1357 14.2765C89.207 17.6363 89.2902 23.1245 89.2902 30.197C89.2902 40.755 89.1001 50.3742 89.0347 53.501L89.0288 53.495Z" fill="#D3B162"/>
<path d="M159.174 33.6884L159.626 33.2639C162.192 30.8367 163.493 27.3752 163.493 22.9751C163.493 18.2342 162.138 14.6889 159.477 12.4351C157.232 10.5399 154.232 9.64314 150.306 9.67901H150.3C148.892 9.67901 146.885 9.82847 145.12 9.96C143.778 10.0616 142.62 10.1453 141.978 10.1453H141.776C141.853 12.459 142.02 18.4972 142.02 28.3198C142.02 39.0391 141.824 50.0873 141.758 53.483H145.744C145.697 51.0378 145.584 44.6349 145.524 37.2814L145.512 35.9961L146.76 36.2651C149.528 36.857 152.32 36.7733 154.832 36.0021L155.854 35.6912L156.127 36.7255C158.075 44.1806 159.364 50.165 160.03 53.483H164.782C163.671 49.7584 161.538 42.4767 159.335 34.2922L159.174 33.6944V33.6884ZM150.401 33.1025C149.011 33.1025 147.562 32.8694 146.201 32.4329L145.495 32.2058V28.3198C145.489 23.4533 145.524 18.9695 145.601 14.9998L145.619 14.1569L146.439 14.0014C147.621 13.7802 149.183 13.5291 150.781 13.5291C157.184 13.5291 159.46 18.6168 159.46 22.9751C159.46 27.8833 156.282 33.1025 150.395 33.1025H150.401Z" fill="#D3B162"/>
<path d="M259.346 30.1313L258.14 29.4677L259.115 28.4933C261.562 26.0421 262.589 22.8915 262.079 19.3821C261.253 13.6847 256.578 10.002 250.175 10.002H249.474C248.666 10.0139 247.674 10.0498 246.73 10.0797C245.607 10.1155 244.55 10.1454 243.932 10.1454H241.698C241.776 12.4591 241.942 18.4973 241.942 28.3199C241.942 39.0392 241.746 50.0874 241.681 53.4831H245.352C246.373 53.519 247.442 53.6146 248.482 53.7103C249.729 53.8239 250.911 53.9375 251.909 53.9375C259.726 53.9375 265.625 48.4433 265.625 41.1616C265.625 36.3489 263.332 32.3314 259.34 30.1373L259.346 30.1313ZM245.417 28.0628C245.417 23.2621 245.458 18.8261 245.536 14.8744L245.554 13.9477L247.11 13.8042C247.953 13.7205 248.619 13.6608 249.937 13.6608C252.444 13.6608 257.374 14.976 258.093 19.962C258.396 22.0306 257.879 23.8301 256.566 25.3067C254.778 27.3155 251.6 28.5172 246.557 29.0851L245.417 29.2166V28.0628V28.0628ZM251.915 49.8781C249.349 49.8781 248.114 49.645 246.326 49.1308L245.595 48.9216L245.583 48.1563C245.524 44.4856 245.464 39.5773 245.435 34.3641V33.6287L246.118 33.3836C247.306 32.9591 249.207 32.3972 251.915 32.3972C257.802 32.3972 261.603 35.8348 261.603 41.1616C261.603 46.8889 256.733 49.8841 251.915 49.8841V49.8781Z" fill="#D3B162"/>
</g>
<defs>
<clipPath id="clip0_210_984">
<rect width="297" height="56" fill="white"/>
</clipPath>
</defs>
</svg>
