<svg width="96" height="112" viewBox="0 0 96 112" fill="none" xmlns="http://www.w3.org/2000/svg">
<path d="M22.3396 43.4721L20.6201 42.8702C24.232 32.3533 33.2616 24.9377 44.1836 23.5087C57.6075 21.749 70.6129 29.8263 75.0982 42.7048L73.3832 43.3159C69.18 31.2506 56.998 23.6879 44.4202 25.3282C34.185 26.6652 25.724 33.6168 22.3396 43.4721Z" fill="#B38038"/>
<path d="M39.662 80.3435C32.229 78.106 25.906 72.8452 22.3169 65.912L23.9272 65.062C27.2889 71.5587 33.2161 76.4887 40.1806 78.5838L39.662 80.3435Z" fill="#B38038"/>
<path d="M55.9885 80.3803L55.479 78.6159C62.6481 76.507 68.6891 71.4163 72.0599 64.6393L73.6838 65.4617C70.0902 72.6936 63.6398 78.1289 55.9839 80.3757L55.9885 80.3803Z" fill="#B38038"/>
<path d="M47.8914 91.3061C42.8512 91.3061 38.748 87.1618 38.748 82.071C38.748 77.2881 46.7633 63.2931 47.1044 62.7004L47.8914 61.3312L48.6784 62.7004C49.0195 63.2931 57.0348 77.2835 57.0348 82.071C57.0348 87.1618 52.9316 91.3061 47.8914 91.3061ZM47.8914 65.0206C45.294 69.6933 40.5676 78.8686 40.5676 82.071C40.5676 86.151 43.852 89.4683 47.8914 89.4683C51.9309 89.4683 55.2152 86.151 55.2152 82.071C55.2152 78.8686 50.4889 69.6933 47.8914 65.0206Z" fill="#B38038"/>
<path d="M19.5693 22.769L12.8369 13.0331L14.7293 11.6961C16.517 10.4372 17.8726 10.4648 19.1781 12.3531C19.9014 13.3961 19.9287 14.3655 19.4738 15.2109L19.492 15.2385C20.6338 14.9582 21.5481 15.5234 22.326 16.649C23.8453 18.8452 23.2085 20.2052 21.4481 21.4458L19.5693 22.7736V22.769ZM17.5314 15.7531C18.3775 15.1558 18.4094 14.4482 17.7498 13.4972C17.0674 12.5093 16.4306 12.5139 15.7983 12.955L15.2069 13.3731L17.072 16.0701L17.5269 15.7485L17.5314 15.7531ZM20.6702 19.9755C21.4481 19.4241 21.5572 18.8039 20.7612 17.6506C19.9924 16.5388 19.3555 16.3412 18.4549 16.9752L17.9454 17.3336L20.0652 20.3982L20.6702 19.9709V19.9755Z" fill="#B38038"/>
<path d="M25.8744 18.6292L20.4111 8.11688L22.0078 7.27148L27.4711 17.7838L25.8744 18.6292Z" fill="#B38038"/>
<path d="M30.5597 16.3642L26.916 6.84883L25.2692 7.49207L24.6733 5.93451L29.6362 3.99561L30.2321 5.55316L28.5991 6.19181L32.2428 15.7071L30.5642 16.3642H30.5597Z" fill="#B38038"/>
<path d="M36.8097 14.2966L34.5534 4.34475L32.8294 4.74448L32.4609 3.118L37.6513 1.91882L38.0197 3.5453L36.3093 3.94043L38.5656 13.8877L36.8097 14.292V14.2966Z" fill="#B38038"/>
<path d="M41.8274 13.2812L40.8267 1.45025L45.5894 1.03674L45.7304 2.69997L42.7463 2.95727L43.0192 6.20562L45.371 6.00346L45.5075 7.61616L43.1557 7.81832L43.465 11.4618L46.6311 11.1907L46.7721 12.854L41.8274 13.2812Z" fill="#B38038"/>
<path d="M52.2078 13.1112L51.2889 7.99288L50.5065 7.93774L50.1699 12.9688L48.3867 12.8447L49.1782 0.995361L51.53 1.15617C53.6043 1.2986 54.6279 2.21292 54.4732 4.52398C54.3731 6.00803 53.7909 6.88099 52.9266 7.26694L54.1366 13.2353L52.2078 13.102V13.1112ZM51.1616 6.43992C52.0441 6.49965 52.499 6.04938 52.599 4.5975C52.7082 2.96183 52.0987 2.75508 51.248 2.69994L50.8568 2.67238L50.6066 6.40316L51.1616 6.43992Z" fill="#B38038"/>
<path d="M60.792 5.79671C60.9739 4.76753 60.8556 4.01402 60.1688 3.8578C59.5774 3.72456 59.2499 4.05537 59.1089 4.68482C58.5539 7.1521 61.9883 8.46615 61.215 11.9029C60.8147 13.6948 59.5774 14.5631 57.8488 14.168C56.011 13.7453 55.5834 12.514 55.9337 10.4234L57.5668 10.6945C57.3894 11.9259 57.5122 12.514 58.2127 12.6748C58.8177 12.8126 59.2772 12.4267 59.45 11.6502C60.0186 9.11858 56.6388 7.79994 57.3894 4.45969C57.7578 2.81484 58.8587 1.94647 60.4735 2.31403C62.3568 2.74592 62.6752 4.17483 62.3704 6.0586L60.7829 5.79671H60.792Z" fill="#B38038"/>
<path d="M69.1165 18.1974L70.0399 15.3396L68.2886 14.4758L66.6419 16.9798L65.0088 16.1758L71.9323 6.37097L74.0794 7.43232L70.7314 18.9968L69.1119 18.1974H69.1165ZM69.1756 13.1296L70.5448 13.805L72.2461 8.58555L72.187 8.55798L69.1756 13.1296Z" fill="#B38038"/>
<path d="M79.6426 14.609C80.193 13.7269 80.3659 12.9826 79.7881 12.5736C79.2923 12.2245 78.8647 12.4082 78.5008 12.9366C77.0679 15.0134 79.7654 17.5312 77.773 20.4212C76.7358 21.9282 75.2665 22.2636 73.8154 21.2436C72.2688 20.1593 72.3324 18.8498 73.4333 17.0488L74.848 17.9217C74.2293 18.9968 74.1202 19.5849 74.7115 20.0031C75.221 20.3614 75.7896 20.1776 76.24 19.5252C77.7093 17.3933 75.0664 14.8893 76.9997 12.082C77.9549 10.6991 79.2969 10.3131 80.6525 11.2642C82.24 12.3807 81.9989 13.8234 81.0209 15.4498L79.6471 14.6044L79.6426 14.609Z" fill="#B38038"/>
<path d="M0 80.5502L10.5444 75.2941L12.6597 79.6267L11.1767 80.3665L9.84845 77.6511L6.95532 79.0938L8.00158 81.2302L6.56412 81.947L5.51786 79.8105L0.791515 82.1675L0 80.5502H0Z" fill="#B38038"/>
<path d="M3.69385 87.4881L13.3558 80.7157L14.3748 82.1951L6.07294 88.0165L7.81973 90.5572L6.4596 91.5083L3.69385 87.4835V87.4881Z" fill="#B38038"/>
<path d="M11.445 97.0585L13.2645 94.6786L11.8999 93.2726L9.51622 95.0691L8.24707 93.755L18.0273 86.8678L19.7013 88.5954L12.705 98.3542L11.445 97.0539V97.0585ZM13.1872 92.3078L14.2517 93.4059L17.586 89.0686L17.5406 89.0226L13.1872 92.3078Z" fill="#B38038"/>
<path d="M15.9487 100.968L21.1982 90.1161L22.6994 91.2372L18.7054 98.7906L18.7327 98.809L24.6872 92.7258L26.1975 93.8561L17.4999 102.126L15.9487 100.964V100.968Z" fill="#B38038"/>
<path d="M24.1456 99.5028C26.1017 95.6066 27.5573 94.4626 29.5134 95.4642C31.4558 96.4612 31.4148 98.3312 29.4588 102.223C27.6347 105.852 26.0744 107.314 24.0728 106.289C22.0713 105.264 22.3169 103.128 24.1411 99.4982L24.1456 99.5028ZM27.7984 101.373C29.295 98.3909 29.5134 97.302 28.7855 96.9252C28.0395 96.5439 27.3117 97.3755 25.8151 100.353C24.2593 103.45 24.1229 104.529 24.7916 104.874C25.4512 105.209 26.2427 104.47 27.7984 101.373Z" fill="#B38038"/>
<path d="M33.7075 109.951L33.944 104.754L33.1934 104.525L31.7469 109.354L30.041 108.834L33.4391 97.4674L35.6953 98.1566C37.6878 98.7631 38.4793 99.8887 37.8151 102.103C37.3875 103.528 36.6279 104.244 35.6999 104.428L35.5543 110.516L33.7029 109.951H33.7075ZM34.1624 103.215C35.0085 103.472 35.5543 103.137 35.9683 101.745C36.4368 100.178 35.8909 99.8382 35.0721 99.5901L34.6946 99.4752L33.6256 103.054L34.1578 103.215H34.1624Z" fill="#B38038"/>
<path d="M42.9692 111.743L43.5788 99.8842L48.3552 100.132L48.2688 101.8L45.2755 101.644L45.1072 104.897L47.4636 105.021L47.3817 106.638L45.0254 106.514L44.8389 110.162L48.0095 110.328L47.923 111.995L42.9692 111.738V111.743Z" fill="#B38038"/>
<path d="M55.1694 111.43L53.4545 107.438H53.4226L52.6311 111.729L50.7751 111.95L52.1216 105.627L49.5742 100.132L51.462 99.9118L52.9632 103.5H52.995L53.7547 99.6407L55.6107 99.4202L54.3142 105.333L57.0709 111.205L55.1694 111.43Z" fill="#B38038"/>
<path d="M61.4014 110.139L58.622 100.325L56.9207 100.817L56.4658 99.2087L61.5834 97.7292L62.0383 99.3373L60.3552 99.8244L63.1346 109.638L61.4014 110.139Z" fill="#B38038"/>
<path d="M71.2138 106.399L67.9522 102.37L67.2426 102.705L69.3624 107.272L67.7475 108.04L62.7573 97.2883L64.8908 96.2775C66.774 95.3861 68.1069 95.6848 69.0803 97.7845C69.7081 99.1307 69.6126 100.178 69.044 100.941L72.9651 105.568L71.2138 106.395V106.399ZM67.097 101.079C67.8976 100.702 68.0841 100.082 67.47 98.7631C66.7831 97.2791 66.1508 97.3985 65.3775 97.7615L65.0227 97.9315L66.5921 101.318L67.097 101.079Z" fill="#B38038"/>
<path d="M79.2971 101.382L77.2592 99.1903L75.6671 100.325L77.0499 102.985L75.567 104.047L70.3857 93.199L72.3372 91.8069L80.771 100.334L79.3017 101.387L79.2971 101.382ZM74.9256 98.8917L76.172 98.005L72.4601 93.9893L72.4055 94.0261L74.9256 98.8917Z" fill="#B38038"/>
<path d="M83.9687 91.5036C85.711 93.369 86.4707 95.0782 85.0059 96.5485C83.2864 98.2714 81.3668 97.0493 78.6692 94.3063C76.3948 91.9953 74.7253 89.7577 76.513 87.9612C78.0096 86.4588 79.5745 87.2215 81.2576 88.8434L80.0749 90.0334C78.9877 89.0226 78.2052 88.6458 77.7412 89.1145C77.1499 89.7072 77.7458 90.695 79.9975 92.9831C82.4449 95.4687 83.3001 95.965 83.8914 95.3723C84.4145 94.8485 83.9187 93.9479 82.7906 92.7028L83.9778 91.5128L83.9687 91.5036Z" fill="#B38038"/>
<path d="M89.7414 90.865L81.5715 84.8599L80.5298 86.3026L79.1924 85.3194L82.3221 80.9729L83.6594 81.9561L82.6268 83.3896L90.7967 89.3947L89.7368 90.865H89.7414Z" fill="#B38038"/>
<path d="M87.3214 78.2806C86.3798 77.8533 85.6247 77.7798 85.3063 78.4138C85.0333 78.9606 85.2699 79.3603 85.8385 79.6543C88.072 80.803 90.1736 77.7614 93.2851 79.3649C94.9045 80.1965 95.4367 81.6208 94.6361 83.2151C93.7809 84.9105 92.489 85.0254 90.5694 84.1708L91.2335 82.6362C92.3708 83.1094 92.9667 83.137 93.2942 82.4892C93.5762 81.9286 93.3169 81.3865 92.6164 81.0281C90.3237 79.8473 88.2312 82.8384 85.2107 81.2808C83.7232 80.5135 83.1592 79.2224 83.9097 77.7338C84.7877 75.9925 86.2388 76.0338 87.9674 76.7965L87.326 78.2852L87.3214 78.2806Z" fill="#B38038"/>
<path d="M23.8318 66.3852C18.9871 66.3852 13.765 64.3912 8.73384 60.6191C4.96732 57.7934 2.64736 54.9999 2.54728 54.8805L2.06055 54.2923L2.54728 53.7042C2.64281 53.5848 4.96277 50.7959 8.73384 47.9656C13.765 44.1935 18.9871 42.1995 23.8318 42.1995C28.6764 42.1995 33.8986 44.1935 38.9297 47.9656C42.6962 50.7913 45.0162 53.5848 45.1162 53.7042L45.603 54.2923L45.1162 54.8805C45.0207 54.9999 42.7007 57.7888 38.9297 60.6191C33.8986 64.3912 28.6764 66.3852 23.8318 66.3852ZM4.46693 54.2923C6.5367 56.5529 14.511 64.5474 23.8318 64.5474C33.1525 64.5474 41.1268 56.5529 43.1966 54.2923C41.1268 52.0318 33.1525 44.0373 23.8318 44.0373C14.511 44.0373 6.53215 52.0318 4.46693 54.2923Z" fill="#B38038"/>
<path d="M44.4109 53.3734H3.97998V55.2112H44.4109V53.3734Z" fill="#B38038"/>
<path d="M17.8272 43.758L16.5405 45.0575L26.3029 54.9177L27.5895 53.6182L17.8272 43.758Z" fill="#B38038"/>
<path d="M33.3241 53.7888L22.5356 64.6854L23.8223 65.985L34.6107 55.0883L33.3241 53.7888Z" fill="#B38038"/>
<path d="M71.9504 66.3852C67.1058 66.3852 61.8836 64.3912 56.8525 60.6191C53.086 57.7934 50.766 54.9999 50.6659 54.8805L50.1792 54.2923L50.6659 53.7042C50.7615 53.5848 53.0814 50.7959 56.8525 47.9656C61.8836 44.1935 67.1058 42.1995 71.9504 42.1995C76.795 42.1995 82.0172 44.1935 87.0483 47.9656C90.8194 50.7913 93.1348 53.5848 93.2349 53.7042L93.7216 54.2923L93.2349 54.8805C93.1394 54.9999 90.8194 57.7888 87.0483 60.6191C82.0172 64.3912 76.795 66.3852 71.9504 66.3852ZM52.5856 54.2923C54.6554 56.5529 62.6296 64.5474 71.9504 64.5474C81.2712 64.5474 89.2455 56.5529 91.3152 54.2923C89.2455 52.0318 81.2712 44.0373 71.9504 44.0373C62.6296 44.0373 54.6554 52.0318 52.5856 54.2923Z" fill="#B38038"/>
<path d="M92.175 53.3734H44.2246V55.2112H92.175V53.3734Z" fill="#B38038"/>
<path d="M69.481 53.6653L68.1943 54.9648L77.9567 64.8251L79.2433 63.5256L69.481 53.6653Z" fill="#B38038"/>
<path d="M71.9613 42.598L61.1729 53.4946L62.4595 54.7942L73.2479 43.8975L71.9613 42.598Z" fill="#B38038"/>
<path d="M55.3835 51.1313H53.5639V39.7965C53.5639 37.5222 52.3175 35.4685 50.3069 34.4301L49.811 34.1728V28.7374H51.6306V33.0701C53.9597 34.4944 55.3835 37.0214 55.3835 39.7965V51.1313Z" fill="#B38038"/>
<path d="M41.6184 50.4835H39.7988V39.7965C39.7988 37.0214 41.2226 34.4944 43.5517 33.0701V28.7374H45.3713V34.1728L44.8754 34.4301C42.8648 35.4685 41.6184 37.5268 41.6184 39.7965V50.4835Z" fill="#B38038"/>
<path d="M53.6092 29.7712H41.5728V24.639H43.3923V27.9333H51.7897V24.639H53.6092V29.7712Z" fill="#B38038"/>
<path d="M50.7936 24.5885H48.974V19.1118C48.974 18.3399 48.3508 17.715 47.5911 17.715C46.8315 17.715 46.2082 18.3445 46.2082 19.1118V24.5885H44.3887V19.1118C44.3887 17.3291 45.8261 15.8772 47.5911 15.8772C49.3561 15.8772 50.7936 17.3291 50.7936 19.1118V24.5885Z" fill="#B38038"/>
<path d="M54.9015 40.2284H41.0317V42.0662H54.9015V40.2284Z" fill="#B38038"/>
<path d="M55.0743 47.1478H41.0317V48.9857H55.0743V47.1478Z" fill="#B38038"/>
</svg>
