<svg width="133" height="114" viewBox="0 0 133 114" fill="none" xmlns="http://www.w3.org/2000/svg">
<path d="M10.5928 54.4867C13.5399 55.0309 15.4455 56.1191 15.0644 58.5326C14.6188 61.3663 11.9509 61.5548 7.47934 60.8491C3.71634 60.2565 0.581412 59.3083 1.04306 56.3561C1.42956 53.8834 3.44258 53.517 6.16954 53.8672L5.86356 55.8228C4.13505 55.6288 3.12586 55.8228 3.0024 56.5878C2.84672 57.5629 4.09748 58.0747 7.82289 58.6619C11.8704 59.303 13.0245 59.1683 13.1802 58.1932C13.3144 57.3312 12.2193 56.8248 10.2868 56.4423L10.5928 54.4867Z" fill="#B38038"/>
<path d="M4.06514 44.8705L4.72004 42.8826L14.6348 46.158C16.9645 46.9284 17.6839 48.2698 17.0021 50.3493C16.3257 52.4126 14.9515 53.0645 12.6218 52.2941L2.70703 49.0187L3.3673 47.0092L13.4646 50.3439C14.565 50.7103 15.0804 50.4463 15.3004 49.7675C15.5259 49.0833 15.2629 48.5715 14.1624 48.2052L4.06514 44.8705Z" fill="#B38038"/>
<path d="M20.9208 41.0509L15.0106 39.6287L14.5811 40.4529L19.8042 43.1951L18.8272 45.0698L6.53442 38.6105L7.82812 36.1377C8.96614 33.9559 10.4316 33.2825 12.8311 34.5431C14.3718 35.3512 15.0267 36.3963 15.032 37.5169L21.989 39.0253L20.9315 41.0509H20.9208ZM13.2928 39.0307C13.7759 38.1041 13.5129 37.393 12.0045 36.601C10.3082 35.7121 9.79819 36.2724 9.33117 37.1667L9.11645 37.5815L12.9868 39.6125L13.2928 39.0307Z" fill="#B38038"/>
<path d="M26.042 33.4765L22.9876 31.7418L21.5919 33.5734L24.0719 36.0623L22.7675 37.7701L13.1533 27.4697L14.8657 25.2178L27.3357 31.7795L26.0473 33.4765H26.042ZM20.2499 32.232L21.3396 30.799L15.7622 27.6205L15.7139 27.6851L20.2499 32.2374V32.232Z" fill="#B38038"/>
<path d="M29.1716 29.9747L20.7974 21.4574L19.3105 22.9281L17.9417 21.5328L22.4132 17.1045L23.7821 18.4998L22.3112 19.9597L30.6854 28.477L29.1716 29.9747Z" fill="#B38038"/>
<path d="M33.5681 25.8427L25.3228 14.6426L29.8641 11.2755L31.0236 12.8486L28.1785 14.9604L30.4385 18.0311L32.677 16.3719L33.8043 17.9019L31.5658 19.5611L34.1049 23.009L37.1217 20.7733L38.2812 22.3464L33.5734 25.8373L33.5681 25.8427Z" fill="#B38038"/>
<path d="M39.8648 21.3497L33.4929 8.98054L35.5167 7.93002C38.4369 6.4162 40.4338 7.25661 42.7957 11.8412C44.8893 15.9086 45.2543 18.5591 42.114 20.1861L39.8648 21.3551V21.3497ZM41.3195 18.3436C42.6776 17.6379 42.4897 16.054 40.8364 12.8486C39.081 9.43846 37.9913 8.88896 36.6332 9.5893L36.3433 9.74015L40.8901 18.5645L41.3195 18.3436Z" fill="#B38038"/>
<path d="M57.096 9.78326C57.7079 12.7301 57.4234 14.9066 55.0508 15.4668C52.2648 16.1241 51.0838 13.7106 50.0531 9.29302C49.1835 5.5758 48.8722 2.30034 51.7709 1.61616C54.1972 1.04511 55.2977 2.77442 56.0009 5.44112L54.0792 5.89365C53.6068 4.21283 53.0485 3.34547 52.2916 3.52325C51.3307 3.74952 51.3307 5.10711 52.195 8.78662C53.1344 12.7894 53.6873 13.8129 54.6482 13.5867C55.4963 13.3873 55.55 12.1806 55.1742 10.2358L57.096 9.78326Z" fill="#B38038"/>
<path d="M59.4848 7.32665C59.1413 2.21952 59.9358 0.183129 62.5232 0.0107359C65.0891 -0.161657 66.1627 1.75082 66.5062 6.85795C66.823 11.6203 66.1144 14.0392 63.4733 14.217C60.8322 14.3947 59.8069 12.0944 59.4902 7.33203L59.4848 7.32665ZM64.3053 7.00341C64.0423 3.09764 63.6129 1.85857 62.652 1.92322C61.6696 1.98786 61.4227 3.27003 61.6857 7.1758C61.9595 11.2378 62.4641 12.4122 63.3498 12.3476C64.2195 12.2883 64.5791 11.06 64.3107 6.99802L64.3053 7.00341Z" fill="#B38038"/>
<path d="M75.9433 9.62694C75.5782 12.6115 74.612 14.5832 72.191 14.3462C69.3459 14.0714 68.997 11.4047 69.4318 6.89021C69.7969 3.0868 70.5484 -0.113239 73.5115 0.172286C75.9916 0.414713 76.4801 2.408 76.2922 5.15551L74.3328 4.96696C74.4241 3.22148 74.1664 2.22484 73.3988 2.14941C72.4165 2.05244 71.9816 3.34 71.622 7.10031C71.2301 11.1946 71.4287 12.3421 72.4111 12.4391C73.2753 12.5199 73.7155 11.394 73.9786 9.433L75.9433 9.62156V9.62694Z" fill="#B38038"/>
<path d="M81.9984 16.0756L81.8964 9.23913L80.5168 10.9631L79.3787 15.3968L77.3926 14.885L80.855 1.39526L82.8411 1.90705L81.3918 7.56369L81.4293 7.57446L85.2406 2.53198L87.302 3.06532L83.8879 7.3482L84.0865 16.6143L82.0091 16.0756H81.9984Z" fill="#B38038"/>
<path d="M87.0605 17.8857L91.8059 6.90647L89.8895 6.07144L90.6679 4.27209L96.4331 6.78256L95.6548 8.58191L93.7599 7.75766L89.0145 18.7369L87.0659 17.8857H87.0605Z" fill="#B38038"/>
<path d="M95.982 22.5887L97.3884 19.3564L95.4291 18.1496L93.2175 20.881L91.387 19.755L100.62 9.099L103.025 10.5805L97.7964 23.6985L95.982 22.5833V22.5887ZM96.6208 16.6789L98.1507 17.6217L100.733 11.728L100.668 11.6849L96.6208 16.6789Z" fill="#B38038"/>
<path d="M99.2351 24.9376L107.937 14.0984L109.59 15.4344L100.888 26.2736L99.2351 24.9376Z" fill="#B38038"/>
<path d="M102.816 27.9168L112.682 18.1335L114.164 19.6366L105.682 28.0461L108.221 30.6266L106.831 32.0058L102.81 27.9222L102.816 27.9168Z" fill="#B38038"/>
<path d="M112.913 40.69L117.562 35.6906L115.377 35.9762L111.496 38.3789L110.422 36.628L122.226 29.3175L123.3 31.0684L118.351 34.1337L118.372 34.166L124.599 33.1802L125.716 34.9957L120.294 35.7068L114.04 42.5217L112.913 40.69Z" fill="#B38038"/>
<path d="M114.674 44.1217L127.321 38.3896L128.196 40.3345L115.549 46.0665L114.674 44.1217Z" fill="#B38038"/>
<path d="M116.982 49.816L128.346 46.1904L127.713 44.1917L129.575 43.5991L131.476 49.6059L129.613 50.1985L128.985 48.2214L117.621 51.847L116.977 49.816H116.982Z" fill="#B38038"/>
<path d="M129.307 57.9778C130.499 57.73 131.266 57.2721 131.137 56.4478C131.025 55.7367 130.52 55.5266 129.774 55.6451C126.854 56.1138 126.94 60.4613 122.876 61.1132C120.756 61.4526 119.269 60.4721 118.941 58.4088C118.592 56.2054 119.741 55.198 122.162 54.67L122.586 56.5879C121.174 56.9327 120.589 57.3206 120.723 58.161C120.841 58.8882 121.459 59.2223 122.377 59.0714C125.372 58.592 125.313 54.2983 129.264 53.6626C131.207 53.3501 132.635 54.1798 132.941 56.1138C133.301 58.3711 131.889 59.3462 129.72 59.831L129.307 57.9724V57.9778Z" fill="#B38038"/>
<path d="M53.1558 100.09L30.127 76.9787L59.3505 47.6504L60.8697 49.175L33.1599 76.9787L54.6696 98.5709L53.1558 100.09Z" fill="#B38038"/>
<path d="M67.0109 114L57.9282 104.885L59.4474 103.36L67.0109 110.951L74.6121 103.322L76.1312 104.847L67.0109 114Z" fill="#B38038"/>
<path d="M80.8282 100.133L79.309 98.6086L100.862 76.9787L73.1895 49.2073L74.7086 47.6827L103.895 76.9787L80.8282 100.133Z" fill="#B38038"/>
<path d="M76.2063 70.7561H57.8154V52.7357C57.8154 49.4818 59.4956 46.5188 62.2441 44.8487V39.7686H64.3913V46.1417L63.8062 46.4434C61.4335 47.6609 59.9626 50.0744 59.9626 52.7357V68.6012H74.0591V52.7357C74.0591 50.069 72.5829 47.6609 70.2156 46.4434L69.6305 46.1417V39.7686H71.7777V44.8487C74.5261 46.5188 76.2063 49.4818 76.2063 52.7357V70.7561Z" fill="#B38038"/>
<path d="M74.1128 40.9807H59.9036V33.8856H74.1128V40.9807ZM62.0561 38.8257H71.9655V36.0405H62.0561V38.8257Z" fill="#B38038"/>
<path d="M70.7899 35.9813H63.2263V28.4822C63.2263 26.392 64.9226 24.6896 67.0054 24.6896C69.0882 24.6896 70.7845 26.392 70.7845 28.4822V35.9813H70.7899ZM65.3735 33.8264H68.6427V28.4822C68.6427 27.5771 67.9072 26.8445 67.0108 26.8445C66.1143 26.8445 65.3789 27.5825 65.3789 28.4822V33.8264H65.3735Z" fill="#B38038"/>
<path d="M75.2829 53.2424H58.9158V55.3973H75.2829V53.2424Z" fill="#B38038"/>
<path d="M75.4869 61.3556H58.9158V63.5105H75.4869V61.3556Z" fill="#B38038"/>
<path d="M102.375 75.9015H31.6409V78.0564H102.375V75.9015Z" fill="#B38038"/>
<path d="M80.2484 105.181H53.7786L50.8477 75.9497H83.1847L80.2538 105.181H80.2484ZM55.7165 103.026H78.3052L80.8067 78.1046H53.2203L55.7165 103.026Z" fill="#B38038"/>
<path d="M78.4447 104.712C74.4563 99.7883 70.3712 97.4071 66.3344 97.6173C60.027 97.9566 55.6896 104.551 55.6467 104.615L53.843 103.446C54.0416 103.139 58.7977 95.8718 66.2002 95.4677C70.9832 95.2038 75.6587 97.8597 80.1088 103.355L78.4447 104.712Z" fill="#B38038"/>
<path d="M67.0109 96.9331L56.978 86.8643L67.0109 76.7955L77.0437 86.8643L67.0109 96.9331ZM60.0163 86.8643L67.0109 93.8839L74.0054 86.8643L67.0109 79.8447L60.0163 86.8643Z" fill="#B38038"/>
<path d="M58.5399 68.6017H38.6299V70.7566H58.5399V68.6017Z" fill="#B38038"/>
<path d="M95.5204 68.6017H75.6104V70.7566H95.5204V68.6017Z" fill="#B38038"/>
</svg>
