<svg width="111" height="113" viewBox="0 0 111 113" fill="none" xmlns="http://www.w3.org/2000/svg">
<path d="M70.9112 65.8073H51.4657V63.8838H67.4152L67.3621 63.802C65.6189 61.037 62.6202 59.3876 59.3414 59.3876H51.4657L44.9178 57.3535C40.3836 55.9446 35.4244 56.4928 31.3151 58.8587L23.6083 63.2923L22.6426 61.6285L30.3493 57.1949C34.927 54.5645 40.4464 53.949 45.4973 55.5214L51.7651 57.469H59.3463C63.2914 57.469 66.9033 59.455 69.0039 62.7874L70.9161 65.8169L70.9112 65.8073Z" fill="#B38038"/>
<path d="M59.0807 59.2963L58.2598 57.5555L64.9428 54.425C67.4297 53.2613 70.298 53.2229 72.8138 54.3192L74.0548 54.8578L73.2822 56.6226L72.0412 56.084C70.0372 55.2089 67.7484 55.2425 65.7685 56.1706L59.0855 59.3011L59.0807 59.2963Z" fill="#B38038"/>
<path d="M65.7927 61.0466L64.8945 59.3444L72.3985 55.406C75.431 53.8143 79.1009 53.973 81.9836 55.8196L80.9406 57.4401C78.6421 55.9686 75.7159 55.8436 73.2966 57.1131L65.7879 61.0514L65.7927 61.0466Z" fill="#B38038"/>
<path d="M32.4063 79.4448L31.2329 77.9156L38.6693 72.2413L42.6627 74.0542C51.3545 78.007 61.5336 76.9587 69.2307 71.318L90.5064 55.733L88.2562 55.5503C86.793 55.4349 85.3299 55.7378 84.0358 56.4303L69.0182 64.4897L68.1008 62.797L83.1183 54.7328C84.7408 53.8624 86.5709 53.4777 88.4107 53.6268L95.8084 54.2279L70.3703 72.8617C62.1082 78.911 51.1855 80.0362 41.8563 75.795L38.9204 74.463L32.4015 79.4352L32.4063 79.4448Z" fill="#B38038"/>
<path d="M86.6046 54.4972L86.5708 53.6845C86.3825 51.2561 85.8948 48.8277 85.1318 46.4955L86.9668 45.8992C87.778 48.3757 88.2947 50.958 88.4975 53.5691L88.5361 54.4154L86.6046 54.502V54.4972Z" fill="#B38038"/>
<path d="M75.0494 31.9443C72.2439 29.6842 69.1051 27.9434 65.7153 26.7653L66.3527 24.9476C69.955 26.1979 73.2869 28.0492 76.2662 30.4488L75.0494 31.9443Z" fill="#B38038"/>
<path d="M55.4011 89.2257C37.0951 89.2257 22.2031 74.3956 22.2031 56.1658C22.2031 42.1484 31.1219 29.6073 44.3963 24.9669L45.0385 26.7797C32.5367 31.1557 24.1395 42.9611 24.1395 56.1658C24.1395 73.3329 38.1671 87.3022 55.4059 87.3022C62.9099 87.3022 70.1676 84.6142 75.8366 79.7381C81.4476 74.9102 85.1658 68.2501 86.3006 60.9937L86.6241 58.8827L88.5363 59.1712L88.2128 61.2823C87.0056 68.9954 83.0605 76.0643 77.1017 81.1903C71.0802 86.3693 63.3783 89.2257 55.4059 89.2257H55.4011Z" fill="#B38038"/>
<path d="M55.3478 40.5952L35.2358 15.8303H75.4646L55.3526 40.5952H55.3478ZM39.2824 17.7538L55.3478 37.5368L71.4132 17.7538H39.2824Z" fill="#B38038"/>
<path d="M56.3134 39.0612H54.3818V52.8237H56.3134V39.0612Z" fill="#B38038"/>
<path d="M60.2975 51.8668H50.3984V53.7903H60.2975V51.8668Z" fill="#B38038"/>
<path d="M64.2024 3.30717L52.3696 24.9467L54.066 25.8666L65.8987 4.22704L64.2024 3.30717Z" fill="#B38038"/>
<path d="M63.9188 11.06C60.8574 11.06 58.3657 8.57875 58.3657 5.53002C58.3657 2.4813 60.8574 0 63.9188 0C66.9803 0 69.472 2.4813 69.472 5.53002C69.472 8.57875 66.9803 11.06 63.9188 11.06ZM63.9188 1.92349C61.9197 1.92349 60.2972 3.53921 60.2972 5.53002C60.2972 7.52083 61.9197 9.13656 63.9188 9.13656C65.918 9.13656 67.5404 7.52083 67.5404 5.53002C67.5404 3.53921 65.9131 1.92349 63.9188 1.92349Z" fill="#B38038"/>
<path d="M66.8985 24.3658H44.2031V26.2892H66.8985V24.3658Z" fill="#B38038"/>
<path d="M81.9642 48.5103C76.6139 48.5103 72.2583 44.1729 72.2583 38.8448C72.2583 33.8389 80.7666 19.1916 81.1288 18.5713L81.9642 17.1383L82.7996 18.5713C83.1617 19.1916 91.6701 33.8341 91.6701 38.8448C91.6701 44.1729 87.3145 48.5103 81.9642 48.5103ZM81.9642 20.9997C79.2069 25.8901 74.1898 35.4931 74.1898 38.8448C74.1898 43.1149 77.6762 46.5868 81.9642 46.5868C86.2522 46.5868 89.7385 43.1149 89.7385 38.8448C89.7385 35.4931 84.7214 25.8901 81.9642 20.9997Z" fill="#B38038"/>
<path d="M26.7733 59.7596L25.3936 61.1057L38.1092 74.032L39.489 72.6859L26.7733 59.7596Z" fill="#B38038"/>
<path d="M0.999946 66.9373L13.2071 64.3503L14.2647 69.2936L12.5456 69.6591L11.8841 66.5623L8.53287 67.274L9.05438 69.712L7.38844 70.063L6.86693 67.625L1.39108 68.7839L0.995117 66.9373H0.999946Z" fill="#B38038"/>
<path d="M3.00391 74.9631L14.6751 70.5631L16.4714 75.2901L14.8296 75.9104L13.7045 72.9482L10.503 74.1552L11.3915 76.4875L9.79802 77.0885L8.91435 74.7563L5.32173 76.1124L6.51444 79.2525L4.87265 79.8728L3.00873 74.9679L3.00391 74.9631Z" fill="#B38038"/>
<path d="M8.65366 86.8983L11.1308 84.946L10.083 83.1716L7.17122 84.393L6.1958 82.734L18.0167 78.233L19.3012 80.4114L9.61942 88.5429L8.65366 86.9031V86.8983ZM11.6523 82.5128L12.4684 83.9025L17.0026 80.3488L16.9688 80.2911L11.6475 82.5176L11.6523 82.5128Z" fill="#B38038"/>
<path d="M11.9614 91.5964L20.3104 84.8931L19.1321 83.436L20.4987 82.3397L24.043 86.7204L22.6765 87.8168L21.5079 86.3742L13.1589 93.0775L11.9565 91.5964H11.9614Z" fill="#B38038"/>
<path d="M27.8433 90.2356L29.2437 91.481L22.9952 98.4585C21.5273 100.098 20.1655 100.214 18.6976 98.9105C17.2441 97.6218 17.2055 96.2609 18.6734 94.6211L24.9219 87.6437L26.3367 88.8988L19.9724 96.006C19.277 96.7802 19.306 97.2948 19.7889 97.7227C20.2669 98.1507 20.7836 98.1219 21.479 97.3429L27.8433 90.2356Z" fill="#B38038"/>
<path d="M27.5533 105.215L29.142 100.002L28.4273 99.5741L25.6894 104.099L24.0669 103.128L30.5085 92.4812L32.6525 93.7652C34.5454 94.9 35.0717 96.2465 33.8114 98.3238C33.005 99.6607 32.0344 100.19 31.0348 100.132L29.311 106.273L27.5533 105.22V105.215ZM29.7697 98.5018C30.5761 98.9826 31.2232 98.7855 32.0103 97.4823C32.8988 96.0156 32.4207 95.5252 31.6481 95.0635L31.2908 94.8471L29.2627 98.1988L29.7697 98.5018Z" fill="#B38038"/>
<path d="M32.3003 107.778L37.1049 96.309L41.7889 98.2565L41.1128 99.8722L38.1769 98.6508L36.8587 101.796L39.1717 102.757L38.515 104.325L36.202 103.363L34.7243 106.893L37.8389 108.187L37.1629 109.802L32.3003 107.783V107.778Z" fill="#B38038"/>
<path d="M40.4511 110.86L43.2566 98.747L45.2558 99.2086C48.1337 99.8722 49.0174 101.603 47.9792 106.09C47.0569 110.072 45.7676 112.086 42.6675 111.375L40.4463 110.865L40.4511 110.86ZM43.189 109.658C44.5266 109.966 45.3185 108.778 46.0477 105.643C46.8203 102.301 46.3954 101.296 45.0578 100.993L44.7681 100.925L42.7689 109.562L43.1939 109.658H43.189Z" fill="#B38038"/>
<path d="M54.8989 113L54.4595 100.574L56.9077 100.488C59.2207 100.406 60.4134 101.214 60.5003 103.618C60.5486 104.95 60.0222 105.821 59.1337 106.301V106.335C60.3168 106.744 60.8045 107.768 60.8528 109.201C60.9542 112.005 59.607 112.832 57.3326 112.913L54.8989 113ZM57.0912 105.662C58.1873 105.623 58.6171 105.018 58.5736 103.806C58.5302 102.541 57.9603 102.18 57.1443 102.209L56.3813 102.238L56.5021 105.681L57.0912 105.662ZM57.4775 111.178C58.4867 111.144 58.9406 110.658 58.8875 109.187C58.8344 107.768 58.3853 107.23 57.2167 107.268L56.5552 107.292L56.6952 111.202L57.4775 111.173V111.178Z" fill="#B38038"/>
<path d="M68.7384 111.437L67.6713 108.475L65.648 108.898L65.8846 112.033L63.9966 112.428L63.4702 99.8386L65.9522 99.3192L70.612 111.043L68.7384 111.437ZM65.5176 107.21L67.1015 106.879L65.1603 101.464L65.0927 101.478L65.5225 107.21H65.5176Z" fill="#B38038"/>
<path d="M77.6235 108.523L74.422 104.109L73.6445 104.416L75.6002 109.321L73.8425 110.019L69.2358 98.4681L71.5633 97.5496C73.6156 96.737 75.0063 97.1361 75.9044 99.3866C76.4839 100.834 76.3197 101.926 75.6678 102.685L79.5308 107.768L77.6235 108.523ZM73.6011 102.705C74.4751 102.358 74.7069 101.728 74.1419 100.31C73.5045 98.7182 72.8285 98.7999 71.9883 99.1317L71.602 99.2856L73.0506 102.921L73.6011 102.705Z" fill="#B38038"/>
<path d="M83.6788 105.513L78.1643 96.3522L76.5563 97.314L75.6533 95.8137L80.5014 92.9188L81.4044 94.4191L79.8109 95.3713L85.3254 104.532L83.6836 105.513H83.6788Z" fill="#B38038"/>
<path d="M89.5505 101.685L81.5781 92.1254L85.4846 88.8939L86.6049 90.2404L84.1567 92.2648L86.3442 94.8904L88.2708 93.2987L89.3622 94.6019L87.4355 96.1936L89.8885 99.1365L92.4816 96.9918L93.6018 98.3383L89.5505 101.69V101.685Z" fill="#B38038"/>
<path d="M98.8604 92.688L90.8204 89.2546L90.7963 89.2786L97.1268 94.6933L96.0597 95.9291L86.5952 87.8312L87.9425 86.2684L94.6738 89.1969L94.6979 89.1729L89.3718 84.6142L90.4486 83.3687L99.913 91.4666L98.8604 92.688Z" fill="#B38038"/>
<path d="M102.245 88.2159L91.4917 81.9021L92.5347 80.1421C94.0365 77.6079 95.9583 77.2905 99.9421 79.6275C103.477 81.7049 105.017 83.5322 103.4 86.2636L102.241 88.2159H102.245ZM101.922 85.2537C102.622 84.0756 101.724 82.9648 98.9377 81.3298C95.9728 79.5891 94.8815 79.6901 94.1813 80.8682L94.0317 81.1231L101.7 85.6288L101.922 85.2586V85.2537Z" fill="#B38038"/>
<path d="M106.92 79.6083L95.2725 75.1458L97.0929 70.4285L98.7299 71.0584L97.5855 74.0158L100.782 75.242L101.68 72.9146L103.269 73.5253L102.371 75.8527L105.954 77.228L107.166 74.0927L108.803 74.7227L106.915 79.6179L106.92 79.6083Z" fill="#B38038"/>
<path d="M110.589 67.4711L105.128 67.7115L104.959 68.5242L110.155 69.5869L109.773 71.4335L97.5469 68.9281L98.0491 66.4853C98.4933 64.331 99.5943 63.3885 101.975 63.879C103.51 64.1916 104.331 64.9273 104.611 65.8842L111 65.4611L110.585 67.4615L110.589 67.4711ZM103.491 67.625C103.679 66.7113 103.279 66.168 101.782 65.8602C100.096 65.514 99.7923 66.1247 99.6088 67.0047L99.5267 67.4134L103.375 68.202L103.496 67.625H103.491Z" fill="#B38038"/>
</svg>
