<svg width="481" height="31" viewBox="0 0 481 31" fill="none" xmlns="http://www.w3.org/2000/svg">
<path d="M387.781 14.6981C387.808 20.2345 387.781 25.9826 387.633 29.1847C387.633 29.2059 390.449 29.1847 390.449 29.1847C390.301 25.9826 390.28 20.2345 390.301 14.6981C390.274 9.1618 390.301 3.41375 390.449 0.211558C390.449 0.211558 387.633 0.190387 387.633 0.211558C387.781 3.41375 387.802 9.1618 387.781 14.6981Z" fill="#B48039"/>
<path d="M389.649 0.211914H391.449C390.682 0.450093 390.396 1.91622 390.369 2.87423" fill="#B48039"/>
<path d="M388.438 0.211914H386.638C387.405 0.450093 387.691 1.91622 387.718 2.87423" fill="#B48039"/>
<path d="M389.649 29.1848H391.449C390.682 28.9466 390.396 27.4805 390.369 26.5225" fill="#B48039"/>
<path d="M388.438 29.1848H386.638C387.405 28.9466 387.691 27.4805 387.718 26.5225" fill="#B48039"/>
<path d="M452.138 29.1953L452.62 26.2207C452.138 26.6971 450.804 27.0729 449.772 27.094" fill="#B48039"/>
<path d="M443.16 29.1955V27.1101C443.986 27.1207 444.971 27.1312 446.13 27.1312C450.122 27.1312 452.139 27.0254 452.139 27.0254V29.1955H443.16Z" fill="#B48039"/>
<path d="M443.922 0.211914H445.722C444.955 0.450093 444.669 1.91622 444.642 2.87423" fill="#B48039"/>
<path d="M442.054 14.6981C442.08 20.2345 442.054 25.9826 441.905 29.1847C441.905 29.2059 444.722 29.1847 444.722 29.1847C444.573 25.9826 444.552 20.2345 444.573 14.6981C444.547 9.1618 444.573 3.41375 444.722 0.211558C444.722 0.211558 441.905 0.190387 441.905 0.211558C442.054 3.41375 442.075 9.1618 442.054 14.6981Z" fill="#B48039"/>
<path d="M442.715 0.211914H440.916C441.683 0.450093 441.969 1.91622 441.995 2.87423" fill="#B48039"/>
<path d="M442.715 29.1848H440.916C441.683 28.9466 441.969 27.4805 441.995 26.5225" fill="#B48039"/>
<path d="M310.199 0C304.678 0 301.861 6.92837 301.861 14.7459C301.861 22.5635 304.021 29.4442 310.199 29.4442C316.377 29.4442 318.537 22.5688 318.537 14.7459C318.537 6.92308 315.721 0 310.199 0ZM310.199 27.0042C307.134 27.0042 304.508 24.2837 304.508 14.7512C304.508 5.21877 307.944 2.46119 310.199 2.46119C312.454 2.46119 315.89 5.21348 315.89 14.7512C315.89 24.289 313.259 27.0042 310.199 27.0042Z" fill="#B48039"/>
<path d="M467.242 2.00071C466.109 0.88391 464.653 0 462.88 0C459.597 0 457.12 2.55646 457.12 5.94919C457.12 9.54834 459.725 12.7029 462.244 15.1535C464.785 17.6253 466.802 19.3402 466.802 22.6747C466.802 25.2364 465.315 27.073 462.901 27.073C460.487 27.073 458.84 24.8977 458.163 23.2992L456.707 26.8084C457.268 26.9619 457.782 27.2583 458.496 27.8088C459.672 28.7244 461.143 29.439 462.901 29.439C466.617 29.439 469.418 26.5279 469.418 22.6694C469.418 18.3133 466.585 15.651 463.928 13.0681C461.667 10.8716 459.74 8.52152 459.74 5.9439C459.74 3.89555 460.942 2.31299 462.88 2.31299C465.235 2.31299 466.839 5.07586 467.718 7.15596L469.153 3.43507C468.502 3.12279 467.882 2.63585 467.242 1.99012V2.00071Z" fill="#B48039"/>
<path d="M226.858 0.248535L227.339 3.22313C226.858 2.74677 225.524 2.37098 224.491 2.34981" fill="#B48039"/>
<path d="M216.773 14.7353C216.799 20.2716 216.773 26.0197 216.625 29.2218C216.625 29.243 219.441 29.2218 219.441 29.2218C219.293 26.0197 219.271 20.2716 219.293 14.7353C219.266 9.19891 219.293 3.45086 219.441 0.248667C219.441 0.248667 216.625 0.227496 216.625 0.248667C216.773 3.45086 216.794 9.19891 216.773 14.7353Z" fill="#B48039"/>
<path d="M217.435 0.248535H215.635C216.402 0.486714 216.688 1.95284 216.715 2.91085" fill="#B48039"/>
<path d="M217.435 29.2165H215.635C216.402 28.9783 216.688 27.5122 216.715 26.5542" fill="#B48039"/>
<path d="M217.879 0.248535V2.33393C218.705 2.32334 219.69 2.31276 220.849 2.31276C224.841 2.31276 226.858 2.41861 226.858 2.41861V0.248535H217.879V0.248535Z" fill="#B48039"/>
<path d="M227.26 29.227L227.742 26.2524C227.26 26.7288 225.926 27.1046 224.894 27.1258" fill="#B48039"/>
<path d="M218.282 29.2272V27.1418C219.108 27.1524 220.092 27.163 221.252 27.163C225.243 27.163 227.26 27.0571 227.26 27.0571V29.2272H218.282V29.2272Z" fill="#B48039"/>
<path d="M222.803 14.1741L225.651 14.9998V13.8301C224.851 14.0365 223.798 14.1741 222.803 14.1741V14.1741Z" fill="#B48039"/>
<path d="M222.803 16.4712C223.666 16.4712 224.788 16.6194 225.651 16.8364V15.6455L222.803 16.4712Z" fill="#B48039"/>
<path d="M217.488 14.1744V16.4715C220.447 16.3869 225.651 16.5298 225.651 16.5298V14.1162C225.651 14.1162 220.447 14.2591 217.488 14.1744Z" fill="#B48039"/>
<path d="M435.373 29.2165C434.79 29.0365 434.219 28.0891 433.933 26.9141C433.086 23.225 432.059 18.4614 431.085 13.8037C430.344 10.3792 429.597 6.88587 428.967 3.80013C428.65 2.23344 429.036 0.682629 429.603 0.253906H422.768C423.335 0.682629 423.721 2.24403 423.403 3.81072C422.789 6.78531 422.038 10.2892 421.27 13.809C420.291 18.4773 419.264 23.262 418.417 26.9512C418.131 28.1156 417.559 29.0471 416.982 29.2218H417.882V29.2324H420.656V29.2218H421.556C421.196 28.9095 420.873 28.2003 421.111 26.8823C421.434 25.2627 421.799 23.4684 422.196 21.5789H430.174C430.561 23.4367 430.926 25.2045 431.244 26.803C431.514 28.1738 431.175 28.8989 430.81 29.2218H431.709V29.2324H434.483V29.2218H435.378L435.373 29.2165ZM422.668 19.3082C423.017 17.6675 423.377 15.9896 423.737 14.3277C424.563 10.395 425.42 6.37776 426.177 3.0062C426.934 6.38305 427.792 10.395 428.618 14.3277C428.978 15.9896 429.338 17.6675 429.687 19.3082H422.668Z" fill="#B48039"/>
<path d="M480.003 27.2875L477.285 24.5703L474.567 27.2875L477.285 30.0046L480.003 27.2875Z" fill="#B48039"/>
<path d="M321.576 2.49299V0.333496H337.558V2.49299C337.558 2.49299 333.551 2.48769 329.565 2.48769C325.578 2.48769 321.571 2.49299 321.571 2.49299H321.576Z" fill="#B48039"/>
<path d="M337.563 0.396973L338.045 3.36098C337.563 2.88462 336.245 2.49295 335.202 2.48766" fill="#B48039"/>
<path d="M321.576 0.333496L321.094 3.2975C321.576 2.82115 322.502 2.4877 323.535 2.49299" fill="#B48039"/>
<path d="M328.109 14.7725C328.13 20.293 328.109 26.0252 327.96 29.2168C327.96 29.2379 330.771 29.2168 330.771 29.2168C330.623 26.0252 330.602 20.293 330.623 14.7725C330.602 9.25204 330.623 3.51986 330.771 0.328257C330.771 0.328257 327.96 0.307086 327.96 0.328257C328.109 3.51986 328.13 9.25204 328.109 14.7725V14.7725Z" fill="#B48039"/>
<path d="M329.972 29.2167H331.767C330.999 28.9785 330.713 27.5177 330.687 26.5649" fill="#B48039"/>
<path d="M328.765 29.2167H326.97C327.738 28.9785 328.024 27.5177 328.05 26.5649" fill="#B48039"/>
<path d="M197.44 16.9157V14.6504H201.252L201.802 16.9157H197.44Z" fill="#B48039"/>
<path d="M196.466 14.7724C196.487 20.2928 196.466 26.025 196.318 29.2166C196.318 29.2378 199.129 29.2166 199.129 29.2166C198.981 26.025 198.96 20.2928 198.981 14.7724C198.96 9.25191 198.981 3.51973 199.129 0.328125H196.318C196.466 3.51973 196.487 9.25191 196.466 14.7724V14.7724Z" fill="#B48039"/>
<path d="M197.122 0.333496H195.328C196.095 0.571675 196.381 2.03251 196.408 2.98522" fill="#B48039"/>
<path d="M198.329 29.2167H200.124C199.356 28.9785 199.07 27.5177 199.044 26.5649" fill="#B48039"/>
<path d="M197.122 29.2167H195.328C196.095 28.9785 196.381 27.5177 196.408 26.5649" fill="#B48039"/>
<path d="M208.07 29.2273H206.562C207.207 29.0262 207.218 27.8141 206.916 26.7979" fill="#B48039"/>
<path d="M198.229 2.59355V0.333496H200.944L203.162 2.59355H198.229Z" fill="#B48039"/>
<path d="M200.944 0.333496C205.746 0.333496 209.573 2.81056 209.573 8.28339C209.573 14.3331 205.899 16.9214 201.527 16.9214L201.251 14.656C205.301 14.656 207.064 12.3377 207.064 8.55862C207.064 4.77951 204.984 2.59885 201.611 2.59885L200.944 0.333496V0.333496Z" fill="#B48039"/>
<path d="M208.245 22.3254C207.212 19.2979 206.18 16.1433 205.735 14.3438C205.735 14.3438 202.977 15.2171 202.982 15.233C203.708 16.9426 204.703 20.0812 205.693 23.1246C206.429 25.2735 207.159 27.486 207.683 29.2326H210.637C209.949 27.4489 209.07 24.8554 208.25 22.3254H208.245Z" fill="#B48039"/>
<path d="M209.748 29.2272H211.765C210.998 28.989 209.965 27.4117 209.425 25.8662" fill="#B48039"/>
<path d="M283.344 15.2331V12.9678H287.15L287.701 15.2331H283.344Z" fill="#B48039"/>
<path d="M282.364 14.7724C282.385 20.2928 282.364 26.025 282.216 29.2166C282.216 29.2378 285.027 29.2166 285.027 29.2166C284.879 26.025 284.857 20.2928 284.879 14.7724C284.857 9.25191 284.879 3.51973 285.027 0.328125H282.216C282.364 3.51973 282.385 9.25191 282.364 14.7724V14.7724Z" fill="#B48039"/>
<path d="M283.021 0.333496H281.226C281.994 0.571675 282.28 2.03251 282.306 2.98522" fill="#B48039"/>
<path d="M284.228 29.2167H286.022C285.255 28.9785 284.969 27.5177 284.942 26.5649" fill="#B48039"/>
<path d="M283.021 29.2167H281.226C281.994 28.9785 282.28 27.5177 282.306 26.5649" fill="#B48039"/>
<path d="M284.132 2.59355V0.333496H286.843L289.066 2.59355H284.132Z" fill="#B48039"/>
<path d="M286.843 0.333496C291.644 0.333496 295.472 2.08544 295.472 7.56356C295.472 13.6133 291.798 15.2382 287.425 15.2382L287.15 12.9729C291.2 12.9729 292.962 11.6126 292.962 7.83879C292.962 4.06497 290.882 2.59885 287.51 2.59885L286.843 0.333496V0.333496Z" fill="#B48039"/>
<path d="M283.862 29.2376V26.9775H287.669L288.219 29.2376H283.862Z" fill="#B48039"/>
<path d="M284.651 15.2331V12.9678H287.362L289.585 15.2331H284.651Z" fill="#B48039"/>
<path d="M287.362 12.9677C292.163 12.9677 296.382 15.4342 296.382 20.907C296.382 26.9568 292.317 29.238 287.944 29.238L287.669 26.9726C291.719 26.9726 293.873 24.9613 293.873 21.1822C293.873 17.4031 291.396 15.2278 288.023 15.2278L287.356 12.9624L287.362 12.9677Z" fill="#B48039"/>
<path d="M266.663 29.2272L267.145 26.2632C266.663 26.7395 265.334 27.11 264.302 27.1365" fill="#B48039"/>
<path d="M257.71 29.2274V27.1526C258.531 27.1631 259.516 27.1737 260.67 27.1737C264.651 27.1737 266.657 27.0679 266.657 27.0679V29.2327H257.705L257.71 29.2274Z" fill="#B48039"/>
<path d="M258.473 0.333496H260.267C259.5 0.571675 259.214 2.03251 259.187 2.98522" fill="#B48039"/>
<path d="M256.61 14.7725C256.631 20.293 256.61 26.0252 256.461 29.2168C256.461 29.2379 259.272 29.2168 259.272 29.2168C259.124 26.0252 259.103 20.293 259.124 14.7725C259.103 9.25204 259.124 3.51986 259.272 0.328257C259.272 0.328257 256.461 0.307086 256.461 0.328257C256.61 3.51986 256.631 9.25204 256.61 14.7725V14.7725Z" fill="#B48039"/>
<path d="M257.266 0.333496H255.471C256.239 0.571675 256.525 2.03251 256.551 2.98522" fill="#B48039"/>
<path d="M257.266 29.2167H255.471C256.239 28.9785 256.525 27.5177 256.551 26.5649" fill="#B48039"/>
<path d="M249.516 29.2167C248.933 29.0367 248.362 28.0946 248.081 26.9196C247.234 23.2463 246.218 18.4933 245.244 13.8462C244.502 10.4323 243.761 6.94959 243.131 3.86913C242.819 2.30774 243.2 0.762219 243.767 0.333496H236.953C237.52 0.762219 237.901 2.31303 237.583 3.87972C236.969 6.84373 236.223 10.3423 235.455 13.8462C234.481 18.4986 233.459 23.2728 232.612 26.9513C232.327 28.1105 231.76 29.042 231.183 29.2167H232.078V29.2273H234.841V29.2167H235.736C235.381 28.9044 235.053 28.2005 235.291 26.8878C235.609 25.2735 235.979 23.4845 236.371 21.6003H244.322C244.709 23.4528 245.074 25.2153 245.387 26.8084C245.657 28.174 245.323 28.8991 244.958 29.222H245.858V29.2326H248.626V29.222H249.521L249.516 29.2167ZM236.848 19.3349C237.197 17.6994 237.557 16.0269 237.912 14.3702C238.732 10.4482 239.59 6.44676 240.347 3.0805C241.104 6.44676 241.956 10.4482 242.777 14.3702C243.137 16.0269 243.497 17.6994 243.841 19.3349H236.842H236.848Z" fill="#B48039"/>
<path d="M357.219 29.2167C356.658 29.042 356.108 28.1422 355.817 27.0202C354.964 23.331 353.937 18.5357 352.953 13.8462C352.211 10.4323 351.47 6.94959 350.84 3.86913C350.528 2.30774 350.909 0.762219 351.476 0.333496H344.662C345.229 0.762219 345.61 2.31303 345.292 3.87972C344.678 6.84373 343.932 10.3423 343.164 13.8462C342.19 18.4986 341.168 23.2728 340.321 26.9513C340.036 28.1105 339.469 29.042 338.892 29.2167H339.787V29.2273H342.55V29.2167H343.445C343.09 28.9044 342.762 28.2005 343 26.8878C343.318 25.2735 343.688 23.4845 344.08 21.6003H352.031C352.418 23.4528 352.783 25.2153 353.096 26.8084C353.366 28.174 353.032 28.8991 352.667 29.222H353.567V29.2326H356.335V29.222H357.219V29.2167ZM344.562 19.3349C344.911 17.6994 345.271 16.0269 345.626 14.3702C346.446 10.4482 347.304 6.44676 348.061 3.0805C348.818 6.44676 349.67 10.4482 350.491 14.3702C350.851 16.0269 351.211 17.6994 351.555 19.3349H344.557H344.562Z" fill="#B48039"/>
<path d="M379.819 0.34375H375.023C375.79 0.581929 376.071 2.03747 376.103 2.99019C376.171 6.22942 376.182 10.5643 376.166 14.7827C376.182 17.932 376.177 21.15 376.145 23.9288C374.906 21.1659 373.583 18.1701 372.286 15.2167C369.903 9.88151 367.484 4.3875 365.78 0.34375H361.777C362.545 0.581929 362.826 2.03747 362.857 2.99019C362.926 6.22942 362.937 10.5643 362.921 14.7827C362.937 19.0011 362.931 23.3413 362.857 26.5752C362.831 27.5279 362.545 28.9888 361.777 29.2217H366.574C365.806 28.9835 365.525 27.5279 365.494 26.5752C365.425 23.336 365.414 19.0011 365.43 14.7827C365.42 11.8822 365.42 8.9235 365.441 6.30882C366.891 9.38927 368.485 12.8296 369.978 16.233C372.005 20.7848 374.07 25.4531 375.69 29.2375H378.818C378.67 26.0354 378.649 20.3032 378.67 14.7827C378.654 10.5643 378.659 6.22413 378.734 2.99019C378.76 2.03747 379.046 0.576636 379.814 0.34375H379.819Z" fill="#B48039"/>
<path d="M411.783 23.0505C410.819 24.9771 409.231 27.1154 407.156 27.1154C404.853 27.1154 401.105 24.2255 401.105 14.693C401.105 5.16055 404.192 2.31828 407.315 2.31828C409.676 2.31828 411.275 5.08645 412.148 7.16655L413.588 3.42978C412.937 3.1175 412.312 2.64114 411.672 2.00071C410.539 0.889203 409.088 0 407.315 0C401.142 0 398.58 6.87544 398.58 14.6877C398.58 22.5 401.635 29.4284 407.151 29.4284C410.062 29.4284 412.175 27.0466 413.392 25.1676L411.778 23.0505H411.783Z" fill="#B48039"/>
<path d="M82.9074 0.259277L83.3891 3.23387C82.9074 2.75751 81.5786 2.38701 80.541 2.36055" fill="#B48039"/>
<path d="M178.091 14.3331V12.0625H164.713V14.3331H178.091Z" fill="#B48039"/>
<path d="M163.734 14.7406C163.761 20.2769 163.734 26.0197 163.586 29.2219C163.586 29.243 166.402 29.2219 166.402 29.2219C166.254 26.0197 166.233 20.2769 166.254 14.7406C166.228 9.20423 166.254 3.46147 166.402 0.259277H163.586C163.734 3.46147 163.755 9.20423 163.734 14.7406Z" fill="#B48039"/>
<path d="M165.603 0.259277H167.402C166.635 0.497457 166.349 1.96358 166.322 2.92159" fill="#B48039"/>
<path d="M164.39 0.259277H162.59C163.358 0.497457 163.644 1.96358 163.67 2.92159" fill="#B48039"/>
<path d="M165.603 29.2165H167.402C166.635 28.9783 166.349 27.5122 166.322 26.5542" fill="#B48039"/>
<path d="M164.39 29.2165H162.59C163.358 28.9783 163.644 27.5122 163.67 26.5542" fill="#B48039"/>
<path d="M53.2617 2.52992V0.259277H57.7509L58.2062 2.52992H53.2617Z" fill="#B48039"/>
<path d="M58.2061 29.2218V26.9512H53.2616V29.2218H58.2061Z" fill="#B48039"/>
<path d="M52.2713 14.7406C52.2977 20.2769 52.2713 26.0197 52.123 29.2219H54.9394C54.7912 26.0197 54.77 20.2769 54.7912 14.7406C54.7647 9.20423 54.7912 3.46147 54.9394 0.259277H52.123C52.2713 3.46147 52.2924 9.20423 52.2713 14.7406V14.7406Z" fill="#B48039"/>
<path d="M52.9337 0.259277H51.1338C51.9014 0.497457 52.1873 1.96358 52.2137 2.92159" fill="#B48039"/>
<path d="M98.8417 0.259277H97.3276C98.5135 0.756807 99.0375 2.97452 99.3658 4.68412" fill="#B48039"/>
<path d="M100.128 0.259277H102.272C101.478 0.645657 101.473 2.06944 101.864 4.27127" fill="#B48039"/>
<path d="M113.262 0.259277H115.406C114.538 1.1326 114.639 2.96923 115.147 5.1446" fill="#B48039"/>
<path d="M52.9337 29.2165H51.1338C51.9014 28.9783 52.1873 27.5122 52.2137 26.5542" fill="#B48039"/>
<path d="M176.63 14.7406C176.656 20.2769 176.63 26.0197 176.481 29.2219C176.481 29.243 179.298 29.2219 179.298 29.2219C179.15 26.0197 179.128 20.2769 179.15 14.7406C179.123 9.20423 179.15 3.46147 179.298 0.259277H176.481C176.63 3.46147 176.651 9.20423 176.63 14.7406Z" fill="#B48039"/>
<path d="M178.499 0.259277H180.298C179.531 0.497457 179.245 1.96358 179.219 2.92159" fill="#B48039"/>
<path d="M177.286 0.259277H175.486C176.254 0.497457 176.54 1.96358 176.566 2.92159" fill="#B48039"/>
<path d="M178.499 29.2165H180.298C179.531 28.9783 179.245 27.5122 179.219 26.5542" fill="#B48039"/>
<path d="M177.286 29.2165H175.486C176.254 28.9783 176.54 27.5122 176.566 26.5542" fill="#B48039"/>
<path d="M135.126 14.7407C135.152 20.2771 135.126 26.0198 134.978 29.222C134.978 29.2432 137.794 29.222 137.794 29.222C137.646 26.0198 137.624 20.2771 137.646 14.7407C137.619 9.20436 137.646 3.4616 137.794 0.25941C137.794 0.25941 134.978 0.238238 134.978 0.25941C135.126 3.4616 135.147 9.20436 135.126 14.7407V14.7407Z" fill="#B48039"/>
<path d="M136.995 0.259277H138.795C138.027 0.497457 137.741 1.96358 137.715 2.92159" fill="#B48039"/>
<path d="M135.782 0.259277H133.982C134.75 0.497457 135.036 1.96358 135.062 2.92159" fill="#B48039"/>
<path d="M136.995 29.2165H138.795C138.027 28.9783 137.741 27.5122 137.715 26.5542" fill="#B48039"/>
<path d="M135.782 29.2165H133.982C134.75 28.9783 135.036 27.5122 135.062 26.5542" fill="#B48039"/>
<path d="M72.8279 14.7407C72.8544 20.2771 72.8279 26.0198 72.6797 29.222C72.6797 29.2432 75.496 29.222 75.496 29.222C75.3478 26.0198 75.3266 20.2771 75.3478 14.7407C75.3213 9.20436 75.3478 3.4616 75.496 0.25941C75.496 0.25941 72.6797 0.238238 72.6797 0.25941C72.8279 3.4616 72.8491 9.20436 72.8279 14.7407Z" fill="#B48039"/>
<path d="M73.484 0.259277H71.6841C72.4517 0.497457 72.7376 1.96358 72.764 2.92159" fill="#B48039"/>
<path d="M73.484 29.2165H71.6841C72.4517 28.9783 72.7376 27.5122 72.764 26.5542" fill="#B48039"/>
<path d="M104.231 29.2165H102.431C103.199 28.9783 103.532 27.491 103.368 26.5542" fill="#B48039"/>
<path d="M107.55 29.2164H108.741C108.217 28.703 108.09 27.8138 108.307 26.9775" fill="#B48039"/>
<path d="M143.395 2.42406V0.259277H158.615V2.42406C158.615 2.42406 154.999 2.41877 151.008 2.41877C147.016 2.41877 143.4 2.42406 143.4 2.42406H143.395Z" fill="#B48039"/>
<path d="M158.615 0.322754L159.097 3.29735C158.615 2.82099 157.291 2.42932 156.249 2.42402" fill="#B48039"/>
<path d="M143.395 0.259277L142.913 3.23387C143.395 2.75751 144.321 2.42406 145.359 2.42406" fill="#B48039"/>
<path d="M149.541 14.7407C149.568 20.2771 149.541 26.0198 149.393 29.222C149.393 29.2432 152.209 29.222 152.209 29.222C152.061 26.0198 152.04 20.2771 152.061 14.7407C152.035 9.20436 152.061 3.4616 152.209 0.25941C152.209 0.25941 149.393 0.238238 149.393 0.25941C149.541 3.4616 149.562 9.20436 149.541 14.7407Z" fill="#B48039"/>
<path d="M151.404 29.2165H153.204C152.437 28.9783 152.151 27.5122 152.124 26.5542" fill="#B48039"/>
<path d="M150.197 29.2165H148.397C149.165 28.9783 149.451 27.5122 149.477 26.5542" fill="#B48039"/>
<path d="M73.9341 0.259277V2.34467C74.7599 2.33408 75.7446 2.3235 76.9039 2.3235C80.8955 2.3235 82.9072 2.42936 82.9072 2.42936V0.259277H73.9341V0.259277Z" fill="#B48039"/>
<path d="M83.3097 29.2275L83.7915 26.2529C83.3097 26.7293 81.981 27.0998 80.9434 27.1263" fill="#B48039"/>
<path d="M74.3364 29.2273V27.1472C75.1623 27.1578 76.1469 27.1684 77.3063 27.1684C81.2979 27.1684 83.3095 27.0625 83.3095 27.0625V29.2326H74.3364V29.2273Z" fill="#B48039"/>
<path d="M78.8521 14.1795L81.7002 15.0052V13.8354C80.9008 14.0419 79.8473 14.1795 78.8521 14.1795V14.1795Z" fill="#B48039"/>
<path d="M78.8521 16.4766C79.715 16.4766 80.8373 16.6195 81.7002 16.8418V15.6509L78.8521 16.4766Z" fill="#B48039"/>
<path d="M73.5425 14.1797V16.4715C76.5018 16.3869 81.7003 16.5298 81.7003 16.5298V14.1162C81.7003 14.1162 76.5018 14.2591 73.5425 14.1744V14.1797Z" fill="#B48039"/>
<path d="M57.5176 2.52992C61.1121 2.52992 63.5632 5.20811 63.5632 14.7406H66.0883C66.0883 6.923 64.1773 0.259277 57.7558 0.259277L57.5229 2.52992H57.5176Z" fill="#B48039"/>
<path d="M58.2061 26.9514C60.5089 26.9514 63.5634 24.2732 63.5634 14.7407H66.0886C66.0886 22.5583 63.7276 29.222 58.2113 29.222V26.9514H58.2061Z" fill="#B48039"/>
<path d="M1.14335 14.7515C1.16981 20.2878 1.14335 26.0306 0.995117 29.2327C0.995117 29.2539 3.81145 29.2327 3.81145 29.2327C3.66322 26.0306 3.64205 20.2878 3.66322 14.7515C3.63676 9.21511 3.66322 3.47234 3.81145 0.270152C3.81145 0.270152 0.995117 0.24898 0.995117 0.270152C1.14335 3.47234 1.16452 9.21511 1.14335 14.7515V14.7515Z" fill="#B48039"/>
<path d="M1.79991 0.27002H0C0.76761 0.508199 1.05348 1.97432 1.07995 2.93233" fill="#B48039"/>
<path d="M3.01172 29.2273H4.81163C4.04402 28.9891 3.75815 27.523 3.73168 26.5649" fill="#B48039"/>
<path d="M1.79991 29.2273H0C0.76761 28.9891 1.05348 27.523 1.07995 26.5649" fill="#B48039"/>
<path d="M22.9914 14.7515C22.9649 20.2878 22.9913 26.0306 23.1396 29.2327C23.1396 29.2539 20.3232 29.2327 20.3232 29.2327C20.4715 26.0306 20.4926 20.2878 20.4715 14.7515C20.4979 9.21511 20.4715 3.47234 20.3232 0.270152C20.3232 0.270152 23.1396 0.24898 23.1396 0.270152C22.9913 3.47234 22.9702 9.21511 22.9914 14.7515V14.7515Z" fill="#B48039"/>
<path d="M22.335 0.27002H24.1349C23.3673 0.508199 23.0814 1.97432 23.0549 2.93233" fill="#B48039"/>
<path d="M21.128 29.2273H19.3281C20.0957 28.9891 20.3816 27.523 20.4081 26.5649" fill="#B48039"/>
<path d="M22.335 29.2273H24.1349C23.3673 28.9891 23.0814 27.523 23.0549 26.5649" fill="#B48039"/>
<path d="M13.4253 27.6606C13.0018 26.2897 12.5412 24.7972 12.0701 23.2305C11.5989 24.7972 11.1384 26.2897 10.7148 27.6606C10.8684 28.2058 11.0166 28.7298 11.1595 29.2379H12.9753C13.1183 28.7298 13.2665 28.2005 13.42 27.6606H13.4253Z" fill="#B48039"/>
<path d="M5.28314 0.27002H2.56738C3.82203 4.2979 5.35196 9.43198 6.82365 14.439C8.20535 19.0491 9.60293 23.7704 10.7146 27.6606C11.1381 26.2898 11.5987 24.7972 12.0699 23.2305C11.1646 20.2294 10.1905 16.9479 9.24295 13.7192C7.82948 9.01914 6.40543 4.20262 5.28314 0.27002Z" fill="#B48039"/>
<path d="M14.8972 13.7192C13.9496 16.9479 12.9756 20.2241 12.0703 23.2305C12.5415 24.7972 13.002 26.2898 13.4255 27.6606C14.532 23.7704 15.9295 19.0491 17.3165 14.439C18.7882 9.42669 20.3182 4.2979 21.5728 0.27002H18.857C17.74 4.20262 16.3107 9.02443 14.9025 13.7245L14.8972 13.7192Z" fill="#B48039"/>
<path d="M45.4058 29.2219H46.8298C46.2369 29.0366 45.6493 28.0627 45.374 26.856" fill="#B48039"/>
<path d="M29.3386 29.2325H32.1126V29.2219H33.0125C32.6525 28.9096 32.3296 28.2003 32.5678 26.8877C32.8908 25.2734 33.256 23.4738 33.6531 21.5843H41.6256C42.0121 23.4421 42.3774 25.2099 42.695 26.803C42.965 28.1739 42.6315 28.899 42.2662 29.2219H43.1662V29.2325H45.9401C45.0137 25.3951 43.7432 19.5147 42.5521 13.809C41.8109 10.3845 41.0645 6.89654 40.4345 3.8055C40.1169 2.23881 40.5033 0.688 41.0698 0.259277H34.2354C34.8019 0.688 35.1883 2.2441 34.8707 3.81609C34.2566 6.79068 33.5049 10.2946 32.7372 13.809C31.7579 18.4773 30.7362 23.2621 29.8839 26.9459C29.598 28.1104 29.0263 29.0366 28.4492 29.2166H29.3492V29.2272L29.3386 29.2325ZM35.1989 14.3383C36.0194 10.4057 36.8823 6.39372 37.6394 3.01686C38.3964 6.38842 39.254 10.4057 40.0798 14.333C40.4398 15.995 40.7998 17.6728 41.1492 19.3136H34.1348C34.4842 17.6728 34.8442 15.995 35.2042 14.3383H35.1989Z" fill="#B48039"/>
<path d="M125.332 0.259609C124.564 4.44627 123.511 9.80795 122.463 15.0267C121.722 18.8482 120.949 22.7437 120.245 26.1894C119.313 22.4632 118.249 18.0754 117.232 13.7723C116.338 10.1044 115.433 6.36229 114.654 3.0172C114.432 2.05919 114.215 1.13823 114.014 0.259609H112.69C112.479 1.11176 112.251 2.00626 112.013 2.94839C111.081 6.59518 109.969 10.8189 108.863 14.9526C107.862 18.7794 106.835 22.6802 105.904 26.11C105.189 22.405 104.39 18.0807 103.627 13.8411C102.738 9.104 101.854 4.25043 101.166 0.259609H98.5239C99.3233 4.31924 100.255 9.36864 101.144 14.2963C102.134 19.5786 103.124 25.0038 103.839 29.2169H107.746C108.746 25.242 110.033 20.3566 111.309 15.5931C111.965 13.0737 112.637 10.5278 113.283 8.09835C113.781 10.152 114.289 12.2638 114.787 14.3598C116.073 19.6209 117.37 25.0302 118.312 29.2116H122.277C123.024 25.1996 123.987 20.2984 124.951 15.5084C126.01 10.0673 127.121 4.47803 128.027 0.249023H125.348L125.332 0.259609Z" fill="#B48039"/>
<path d="M127.609 0.259277H129.123C127.937 0.756807 127.46 2.86337 127.084 4.68412" fill="#B48039"/>
<path d="M126.402 0.259277H124.258C125.052 0.645657 124.877 2.694 124.581 4.27127" fill="#B48039"/>
<path d="M113.49 0.259277H111.346C112.108 0.979108 112.007 2.94806 111.441 5.1446" fill="#B48039"/>
<path d="M121.881 29.2165H123.681C122.913 28.9783 122.553 27.6551 122.765 26.5542" fill="#B48039"/>
<path d="M118.54 29.2164H117.349C117.873 28.703 118 27.8138 117.783 26.9775" fill="#B48039"/>
</svg>
