<svg width="1512" height="31" viewBox="0 0 1512 31" fill="none" xmlns="http://www.w3.org/2000/svg">
<path d="M75.7811 14.6983C75.8075 20.2346 75.781 25.9827 75.6328 29.1849C75.6328 29.206 78.4492 29.1849 78.4492 29.1849C78.3009 25.9827 78.2798 20.2346 78.3009 14.6983C78.2745 9.16193 78.3009 3.41387 78.4492 0.21168C78.4492 0.21168 75.6328 0.190509 75.6328 0.21168C75.781 3.41387 75.8022 9.16193 75.7811 14.6983Z" fill="#B48039"/>
<path d="M77.6494 0.21167H79.4493C78.6817 0.449849 78.3959 1.91597 78.3694 2.87398" fill="#B48039"/>
<path d="M76.4376 0.21167H74.6377C75.4053 0.449849 75.6912 1.91597 75.7177 2.87398" fill="#B48039"/>
<path d="M77.6494 29.1849H79.4493C78.6817 28.9467 78.3959 27.4806 78.3694 26.5226" fill="#B48039"/>
<path d="M76.4376 29.1849H74.6377C75.4053 28.9467 75.6912 27.4806 75.7177 26.5226" fill="#B48039"/>
<path d="M140.138 29.1955L140.62 26.2209C140.138 26.6973 138.804 27.0731 137.772 27.0943" fill="#B48039"/>
<path d="M131.16 29.1955V27.1101C131.986 27.1207 132.971 27.1312 134.13 27.1312C138.122 27.1312 140.139 27.0254 140.139 27.0254V29.1955H131.16Z" fill="#B48039"/>
<path d="M131.922 0.21167H133.722C132.955 0.449849 132.669 1.91597 132.642 2.87398" fill="#B48039"/>
<path d="M130.054 14.6983C130.08 20.2346 130.054 25.9827 129.905 29.1849C129.905 29.206 132.722 29.1849 132.722 29.1849C132.573 25.9827 132.552 20.2346 132.573 14.6983C132.547 9.16193 132.573 3.41387 132.722 0.21168C132.722 0.21168 129.905 0.190509 129.905 0.21168C130.054 3.41387 130.075 9.16193 130.054 14.6983Z" fill="#B48039"/>
<path d="M130.715 0.21167H128.916C129.683 0.449849 129.969 1.91597 129.995 2.87398" fill="#B48039"/>
<path d="M130.715 29.1849H128.916C129.683 28.9467 129.969 27.4806 129.995 26.5226" fill="#B48039"/>
<path d="M-1.80084 0C-7.32234 0 -10.1387 6.92837 -10.1387 14.7459C-10.1387 22.5635 -7.97878 29.4442 -1.80084 29.4442C4.3771 29.4442 6.537 22.5688 6.537 14.7459C6.537 6.92308 3.72066 0 -1.80084 0ZM-1.80084 27.0042C-4.86598 27.0042 -7.49174 24.2837 -7.49174 14.7512C-7.49174 5.21877 -4.05602 2.46119 -1.80084 2.46119C0.45435 2.46119 3.89007 5.21348 3.89007 14.7512C3.89007 24.289 1.25902 27.0042 -1.80084 27.0042Z" fill="#B48039"/>
<path d="M155.242 2.00071C154.109 0.88391 152.653 0 150.88 0C147.597 0 145.12 2.55646 145.12 5.94919C145.12 9.54834 147.725 12.7029 150.244 15.1535C152.785 17.6253 154.802 19.3402 154.802 22.6747C154.802 25.2364 153.315 27.073 150.901 27.073C148.487 27.073 146.84 24.8977 146.163 23.2992L144.707 26.8084C145.268 26.9619 145.782 27.2583 146.496 27.8088C147.672 28.7244 149.143 29.439 150.901 29.439C154.617 29.439 157.418 26.5279 157.418 22.6694C157.418 18.3133 154.585 15.651 151.928 13.0681C149.667 10.8716 147.74 8.52152 147.74 5.9439C147.74 3.89555 148.942 2.31299 150.88 2.31299C153.235 2.31299 154.839 5.07586 155.718 7.15596L157.153 3.43507C156.502 3.12279 155.882 2.63585 155.242 1.99012V2.00071Z" fill="#B48039"/>
<path d="M123.373 29.2166C122.79 29.0367 122.219 28.0892 121.933 26.9142C121.086 23.2251 120.059 18.4615 119.085 13.8038C118.344 10.3793 117.597 6.886 116.967 3.80025C116.65 2.23356 117.036 0.682751 117.603 0.254028H110.768C111.335 0.682751 111.721 2.24415 111.403 3.81084C110.789 6.78543 110.038 10.2893 109.27 13.8091C108.291 18.4774 107.264 23.2621 106.417 26.9513C106.131 28.1157 105.559 29.0473 104.982 29.2219H105.882V29.2325H108.656V29.2219H109.556C109.196 28.9096 108.873 28.2004 109.111 26.8825C109.434 25.2628 109.799 23.4686 110.196 21.579H118.174C118.561 23.4368 118.926 25.2046 119.244 26.8031C119.514 28.1739 119.175 28.8991 118.81 29.2219H119.709V29.2325H122.483V29.2219H123.378L123.373 29.2166ZM110.668 19.3084C111.017 17.6676 111.377 15.9897 111.737 14.3278C112.563 10.3952 113.42 6.37788 114.177 3.00632C114.934 6.38317 115.792 10.3952 116.618 14.3278C116.978 15.9897 117.338 17.6676 117.687 19.3084H110.668Z" fill="#B48039"/>
<path d="M168.003 27.2872L165.285 24.5701L162.567 27.2872L165.285 30.0044L168.003 27.2872Z" fill="#B48039"/>
<path d="M9.5761 2.49287V0.333374H25.5583V2.49287C25.5583 2.49287 21.5508 2.48757 17.5645 2.48757C13.5782 2.48757 9.5708 2.49287 9.5708 2.49287H9.5761Z" fill="#B48039"/>
<path d="M25.5632 0.396973L26.045 3.36098C25.5632 2.88462 24.245 2.49295 23.2021 2.48766" fill="#B48039"/>
<path d="M9.576 0.333374L9.09424 3.29738C9.57598 2.82102 10.5024 2.48757 11.5347 2.49287" fill="#B48039"/>
<path d="M16.1087 14.7724C16.1298 20.2928 16.1087 26.025 15.9604 29.2166C15.9604 29.2378 18.7715 29.2166 18.7715 29.2166C18.6233 26.025 18.6021 20.2928 18.6232 14.7724C18.6021 9.25192 18.6233 3.51974 18.7715 0.328135C18.7715 0.328135 15.9604 0.306964 15.9604 0.328135C16.1087 3.51974 16.1298 9.25192 16.1087 14.7724Z" fill="#B48039"/>
<path d="M17.9722 29.2167H19.7668C18.9992 28.9785 18.7133 27.5177 18.6868 26.5649" fill="#B48039"/>
<path d="M16.7648 29.2167H14.9702C15.7378 28.9785 16.0237 27.5177 16.0502 26.5649" fill="#B48039"/>
<path d="M45.2195 29.2167C44.6583 29.042 44.1078 28.1422 43.8166 27.0202C42.9643 23.331 41.9373 18.5357 40.9526 13.8462C40.2115 10.4323 39.4703 6.94959 38.8403 3.86913C38.528 2.30774 38.9092 0.762219 39.4756 0.333496H32.6624C33.2289 0.762219 33.61 2.31303 33.2924 3.87972C32.6783 6.84373 31.9319 10.3423 31.1642 13.8462C30.1902 18.4986 29.1685 23.2728 28.3214 26.9513C28.0356 28.1105 27.4691 29.042 26.8921 29.2167H27.7868V29.2273H30.5502V29.2167H31.4448C31.0901 28.9044 30.7619 28.2005 31.0001 26.8878C31.3178 25.2735 31.6884 23.4845 32.0801 21.6003H40.0315C40.4179 23.4528 40.7832 25.2153 41.0955 26.8084C41.3655 28.174 41.032 28.8991 40.6667 29.222H41.5667V29.2326H44.3354V29.222H45.2195V29.2167ZM32.5618 19.3349C32.9112 17.6994 33.2712 16.0269 33.6259 14.3702C34.4465 10.4482 35.304 6.44676 36.0611 3.0805C36.8181 6.44676 37.6704 10.4482 38.491 14.3702C38.8509 16.0269 39.2109 17.6994 39.555 19.3349H32.5565H32.5618Z" fill="#B48039"/>
<path d="M67.8188 0.343994H63.0226C63.7902 0.582173 64.0708 2.03771 64.1025 2.99043C64.1714 6.22967 64.1819 10.5645 64.1661 14.7829C64.1819 17.9322 64.1767 21.1503 64.1449 23.929C62.9061 21.1662 61.5826 18.1704 60.2857 15.217C57.9034 9.88175 55.4841 4.38775 53.7795 0.343994H49.7773C50.545 0.582173 50.8255 2.03771 50.8573 2.99043C50.9261 6.22967 50.9367 10.5645 50.9208 14.7829C50.9367 19.0014 50.9314 23.3415 50.8573 26.5755C50.8308 27.5282 50.545 28.989 49.7773 29.2219H54.5736C53.806 28.9837 53.5254 27.5282 53.4936 26.5755C53.4248 23.3362 53.4142 19.0014 53.4301 14.7829C53.4195 11.8825 53.4195 8.92374 53.4407 6.30906C54.8912 9.38951 56.4847 12.8299 57.9775 16.2332C60.0051 20.7851 62.0697 25.4534 63.6896 29.2378H66.8183C66.6701 26.0356 66.6489 20.3034 66.6701 14.7829C66.6542 10.5645 66.6595 6.22438 66.7336 2.99043C66.76 2.03771 67.0459 0.576881 67.8135 0.343994H67.8188Z" fill="#B48039"/>
<path d="M99.783 23.0505C98.8195 24.9771 97.2313 27.1154 95.1561 27.1154C92.8533 27.1154 89.1053 24.2255 89.1053 14.693C89.1053 5.16055 92.1916 2.31828 95.315 2.31828C97.676 2.31828 99.2748 5.08645 100.148 7.16655L101.588 3.42978C100.937 3.1175 100.312 2.64114 99.6718 2.00071C98.5389 0.889203 97.0884 0 95.315 0C89.1423 0 86.5801 6.87544 86.5801 14.6877C86.5801 22.5 89.6346 29.4284 95.1508 29.4284C98.0625 29.4284 100.175 27.0466 101.392 25.1676L99.7777 23.0505H99.783Z" fill="#B48039"/>
<path d="M580.781 14.6983C580.808 20.2346 580.781 25.9827 580.633 29.1849C580.633 29.206 583.449 29.1849 583.449 29.1849C583.301 25.9827 583.28 20.2346 583.301 14.6983C583.274 9.16193 583.301 3.41387 583.449 0.21168C583.449 0.21168 580.633 0.190509 580.633 0.21168C580.781 3.41387 580.802 9.16193 580.781 14.6983Z" fill="#B48039"/>
<path d="M582.649 0.21167H584.449C583.682 0.449849 583.396 1.91597 583.369 2.87398" fill="#B48039"/>
<path d="M581.438 0.21167H579.638C580.405 0.449849 580.691 1.91597 580.718 2.87398" fill="#B48039"/>
<path d="M582.649 29.1849H584.449C583.682 28.9467 583.396 27.4806 583.369 26.5226" fill="#B48039"/>
<path d="M581.438 29.1849H579.638C580.405 28.9467 580.691 27.4806 580.718 26.5226" fill="#B48039"/>
<path d="M645.138 29.1955L645.62 26.2209C645.138 26.6973 643.804 27.0731 642.772 27.0943" fill="#B48039"/>
<path d="M636.16 29.1955V27.1101C636.986 27.1207 637.971 27.1312 639.13 27.1312C643.122 27.1312 645.139 27.0254 645.139 27.0254V29.1955H636.16Z" fill="#B48039"/>
<path d="M636.922 0.21167H638.722C637.955 0.449849 637.669 1.91597 637.642 2.87398" fill="#B48039"/>
<path d="M635.054 14.6983C635.08 20.2346 635.054 25.9827 634.905 29.1849C634.905 29.206 637.722 29.1849 637.722 29.1849C637.573 25.9827 637.552 20.2346 637.573 14.6983C637.547 9.16193 637.573 3.41387 637.722 0.21168C637.722 0.21168 634.905 0.190509 634.905 0.21168C635.054 3.41387 635.075 9.16193 635.054 14.6983Z" fill="#B48039"/>
<path d="M635.715 0.21167H633.916C634.683 0.449849 634.969 1.91597 634.995 2.87398" fill="#B48039"/>
<path d="M635.715 29.1849H633.916C634.683 28.9467 634.969 27.4806 634.995 26.5226" fill="#B48039"/>
<path d="M503.199 0C497.678 0 494.861 6.92837 494.861 14.7459C494.861 22.5635 497.021 29.4442 503.199 29.4442C509.377 29.4442 511.537 22.5688 511.537 14.7459C511.537 6.92308 508.721 0 503.199 0ZM503.199 27.0042C500.134 27.0042 497.508 24.2837 497.508 14.7512C497.508 5.21877 500.944 2.46119 503.199 2.46119C505.454 2.46119 508.89 5.21348 508.89 14.7512C508.89 24.289 506.259 27.0042 503.199 27.0042Z" fill="#B48039"/>
<path d="M660.242 2.00071C659.109 0.88391 657.653 0 655.88 0C652.597 0 650.12 2.55646 650.12 5.94919C650.12 9.54834 652.725 12.7029 655.244 15.1535C657.785 17.6253 659.802 19.3402 659.802 22.6747C659.802 25.2364 658.315 27.073 655.901 27.073C653.487 27.073 651.84 24.8977 651.163 23.2992L649.707 26.8084C650.268 26.9619 650.782 27.2583 651.496 27.8088C652.672 28.7244 654.143 29.439 655.901 29.439C659.617 29.439 662.418 26.5279 662.418 22.6694C662.418 18.3133 659.585 15.651 656.928 13.0681C654.667 10.8716 652.74 8.52152 652.74 5.9439C652.74 3.89555 653.942 2.31299 655.88 2.31299C658.235 2.31299 659.839 5.07586 660.718 7.15596L662.153 3.43507C661.502 3.12279 660.882 2.63585 660.242 1.99012V2.00071Z" fill="#B48039"/>
<path d="M419.858 0.248779L420.339 3.22337C419.858 2.74702 418.524 2.37122 417.491 2.35005" fill="#B48039"/>
<path d="M409.773 14.7354C409.799 20.2717 409.773 26.0198 409.625 29.222C409.625 29.2431 412.441 29.222 412.441 29.222C412.293 26.0198 412.271 20.2717 412.293 14.7354C412.266 9.19904 412.293 3.45098 412.441 0.248789C412.441 0.248789 409.625 0.227618 409.625 0.248789C409.773 3.45098 409.794 9.19904 409.773 14.7354Z" fill="#B48039"/>
<path d="M410.435 0.248779H408.635C409.402 0.486959 409.688 1.95308 409.715 2.91109" fill="#B48039"/>
<path d="M410.435 29.2166H408.635C409.402 28.9785 409.688 27.5123 409.715 26.5543" fill="#B48039"/>
<path d="M410.879 0.248779V2.33417C411.705 2.32359 412.69 2.313 413.849 2.313C417.841 2.313 419.858 2.41886 419.858 2.41886V0.248779H410.879Z" fill="#B48039"/>
<path d="M420.26 29.2273L420.742 26.2527C420.26 26.729 418.926 27.1048 417.894 27.126" fill="#B48039"/>
<path d="M411.282 29.2272V27.1418C412.108 27.1524 413.092 27.163 414.252 27.163C418.243 27.163 420.26 27.0571 420.26 27.0571V29.2272H411.282Z" fill="#B48039"/>
<path d="M415.803 14.1744L418.651 15V13.8303C417.851 14.0367 416.798 14.1744 415.803 14.1744Z" fill="#B48039"/>
<path d="M415.803 16.4714C416.666 16.4714 417.788 16.6196 418.651 16.8366V15.6458L415.803 16.4714Z" fill="#B48039"/>
<path d="M410.488 14.1743V16.4714C413.447 16.3867 418.651 16.5296 418.651 16.5296V14.1161C418.651 14.1161 413.447 14.259 410.488 14.1743Z" fill="#B48039"/>
<path d="M628.373 29.2166C627.79 29.0367 627.219 28.0892 626.933 26.9142C626.086 23.2251 625.059 18.4615 624.085 13.8038C623.344 10.3793 622.597 6.886 621.967 3.80025C621.65 2.23356 622.036 0.682751 622.603 0.254028H615.768C616.335 0.682751 616.721 2.24415 616.403 3.81084C615.789 6.78543 615.038 10.2893 614.27 13.8091C613.291 18.4774 612.264 23.2621 611.417 26.9513C611.131 28.1157 610.559 29.0473 609.982 29.2219H610.882V29.2325H613.656V29.2219H614.556C614.196 28.9096 613.873 28.2004 614.111 26.8825C614.434 25.2628 614.799 23.4686 615.196 21.579H623.174C623.561 23.4368 623.926 25.2046 624.244 26.8031C624.514 28.1739 624.175 28.8991 623.81 29.2219H624.709V29.2325H627.483V29.2219H628.378L628.373 29.2166ZM615.668 19.3084C616.017 17.6676 616.377 15.9897 616.737 14.3278C617.563 10.3952 618.42 6.37788 619.177 3.00632C619.934 6.38317 620.792 10.3952 621.618 14.3278C621.978 15.9897 622.338 17.6676 622.687 19.3084H615.668Z" fill="#B48039"/>
<path d="M673.003 27.2872L670.285 24.5701L667.567 27.2872L670.285 30.0044L673.003 27.2872Z" fill="#B48039"/>
<path d="M514.576 2.49287V0.333374H530.558V2.49287C530.558 2.49287 526.551 2.48757 522.565 2.48757C518.578 2.48757 514.571 2.49287 514.571 2.49287H514.576Z" fill="#B48039"/>
<path d="M530.563 0.396973L531.045 3.36098C530.563 2.88462 529.245 2.49295 528.202 2.48766" fill="#B48039"/>
<path d="M514.576 0.333374L514.094 3.29738C514.576 2.82102 515.502 2.48757 516.535 2.49287" fill="#B48039"/>
<path d="M521.109 14.7724C521.13 20.2928 521.109 26.025 520.96 29.2166C520.96 29.2378 523.771 29.2166 523.771 29.2166C523.623 26.025 523.602 20.2928 523.623 14.7724C523.602 9.25192 523.623 3.51974 523.771 0.328135C523.771 0.328135 520.96 0.306964 520.96 0.328135C521.109 3.51974 521.13 9.25192 521.109 14.7724Z" fill="#B48039"/>
<path d="M522.972 29.2167H524.767C523.999 28.9785 523.713 27.5177 523.687 26.5649" fill="#B48039"/>
<path d="M521.765 29.2167H519.97C520.738 28.9785 521.024 27.5177 521.05 26.5649" fill="#B48039"/>
<path d="M390.44 16.916V14.6506H394.252L394.802 16.916H390.44Z" fill="#B48039"/>
<path d="M389.466 14.7724C389.487 20.2928 389.466 26.025 389.318 29.2166C389.318 29.2378 392.129 29.2166 392.129 29.2166C391.981 26.025 391.96 20.2928 391.981 14.7724C391.96 9.25191 391.981 3.51973 392.129 0.328125H389.318C389.466 3.51973 389.487 9.25191 389.466 14.7724Z" fill="#B48039"/>
<path d="M390.122 0.333496H388.328C389.095 0.571675 389.381 2.03251 389.408 2.98522" fill="#B48039"/>
<path d="M391.329 29.2167H393.124C392.356 28.9785 392.07 27.5177 392.044 26.5649" fill="#B48039"/>
<path d="M390.122 29.2167H388.328C389.095 28.9785 389.381 27.5177 389.408 26.5649" fill="#B48039"/>
<path d="M401.07 29.2273H399.562C400.207 29.0262 400.218 27.8141 399.916 26.7979" fill="#B48039"/>
<path d="M391.229 2.59355V0.333496H393.944L396.162 2.59355H391.229Z" fill="#B48039"/>
<path d="M393.944 0.333496C398.746 0.333496 402.573 2.81056 402.573 8.28339C402.573 14.3331 398.899 16.9214 394.527 16.9214L394.251 14.656C398.301 14.656 400.064 12.3377 400.064 8.55862C400.064 4.77951 397.984 2.59885 394.611 2.59885L393.944 0.333496Z" fill="#B48039"/>
<path d="M401.245 22.3253C400.212 19.2978 399.18 16.1432 398.735 14.3436C398.735 14.3436 395.977 15.217 395.982 15.2328C396.708 16.9424 397.703 20.0811 398.693 23.1245C399.429 25.2734 400.159 27.4858 400.683 29.2325H403.637C402.949 27.4488 402.07 24.8553 401.25 22.3253H401.245Z" fill="#B48039"/>
<path d="M402.748 29.2272H404.765C403.998 28.989 402.965 27.4117 402.425 25.8662" fill="#B48039"/>
<path d="M476.344 15.2329V12.9675H480.15L480.701 15.2329H476.344Z" fill="#B48039"/>
<path d="M475.364 14.7724C475.385 20.2928 475.364 26.025 475.216 29.2166C475.216 29.2378 478.027 29.2166 478.027 29.2166C477.879 26.025 477.857 20.2928 477.879 14.7724C477.857 9.25191 477.879 3.51973 478.027 0.328125H475.216C475.364 3.51973 475.385 9.25191 475.364 14.7724Z" fill="#B48039"/>
<path d="M476.021 0.333496H474.226C474.994 0.571675 475.28 2.03251 475.306 2.98522" fill="#B48039"/>
<path d="M477.228 29.2167H479.022C478.255 28.9785 477.969 27.5177 477.942 26.5649" fill="#B48039"/>
<path d="M476.021 29.2167H474.226C474.994 28.9785 475.28 27.5177 475.306 26.5649" fill="#B48039"/>
<path d="M477.132 2.59355V0.333496H479.843L482.066 2.59355H477.132Z" fill="#B48039"/>
<path d="M479.843 0.333496C484.644 0.333496 488.472 2.08544 488.472 7.56356C488.472 13.6133 484.798 15.2382 480.425 15.2382L480.15 12.9729C484.2 12.9729 485.962 11.6126 485.962 7.83879C485.962 4.06497 483.882 2.59885 480.51 2.59885L479.843 0.333496Z" fill="#B48039"/>
<path d="M476.862 29.2378V26.9778H480.669L481.219 29.2378H476.862Z" fill="#B48039"/>
<path d="M477.651 15.2329V12.9675H480.362L482.585 15.2329H477.651Z" fill="#B48039"/>
<path d="M480.362 12.9676C485.163 12.9676 489.382 15.4341 489.382 20.9069C489.382 26.9566 485.317 29.2379 480.944 29.2379L480.669 26.9725C484.719 26.9725 486.873 24.9612 486.873 21.1821C486.873 17.403 484.396 15.2276 481.023 15.2276L480.356 12.9623L480.362 12.9676Z" fill="#B48039"/>
<path d="M459.663 29.2272L460.145 26.2632C459.663 26.7395 458.334 27.11 457.302 27.1365" fill="#B48039"/>
<path d="M450.71 29.2272V27.1524C451.531 27.163 452.516 27.1736 453.67 27.1736C457.651 27.1736 459.657 27.0677 459.657 27.0677V29.2325H450.705L450.71 29.2272Z" fill="#B48039"/>
<path d="M451.473 0.333496H453.267C452.5 0.571675 452.214 2.03251 452.187 2.98522" fill="#B48039"/>
<path d="M449.61 14.7724C449.631 20.2928 449.61 26.025 449.461 29.2166C449.461 29.2378 452.272 29.2166 452.272 29.2166C452.124 26.025 452.103 20.2928 452.124 14.7724C452.103 9.25192 452.124 3.51974 452.272 0.328135C452.272 0.328135 449.461 0.306964 449.461 0.328135C449.61 3.51974 449.631 9.25192 449.61 14.7724Z" fill="#B48039"/>
<path d="M450.266 0.333496H448.471C449.239 0.571675 449.525 2.03251 449.551 2.98522" fill="#B48039"/>
<path d="M450.266 29.2167H448.471C449.239 28.9785 449.525 27.5177 449.551 26.5649" fill="#B48039"/>
<path d="M442.516 29.2167C441.933 29.0367 441.362 28.0946 441.081 26.9196C440.234 23.2463 439.218 18.4933 438.244 13.8462C437.502 10.4323 436.761 6.94959 436.131 3.86913C435.819 2.30774 436.2 0.762219 436.767 0.333496H429.953C430.52 0.762219 430.901 2.31303 430.583 3.87972C429.969 6.84373 429.223 10.3423 428.455 13.8462C427.481 18.4986 426.459 23.2728 425.612 26.9513C425.327 28.1105 424.76 29.042 424.183 29.2167H425.078V29.2273H427.841V29.2167H428.736C428.381 28.9044 428.053 28.2005 428.291 26.8878C428.609 25.2735 428.979 23.4845 429.371 21.6003H437.322C437.709 23.4528 438.074 25.2153 438.387 26.8084C438.657 28.174 438.323 28.8991 437.958 29.222H438.858V29.2326H441.626V29.222H442.521L442.516 29.2167ZM429.848 19.3349C430.197 17.6994 430.557 16.0269 430.912 14.3702C431.732 10.4482 432.59 6.44676 433.347 3.0805C434.104 6.44676 434.956 10.4482 435.777 14.3702C436.137 16.0269 436.497 17.6994 436.841 19.3349H429.842H429.848Z" fill="#B48039"/>
<path d="M550.219 29.2167C549.658 29.042 549.108 28.1422 548.817 27.0202C547.964 23.331 546.937 18.5357 545.953 13.8462C545.211 10.4323 544.47 6.94959 543.84 3.86913C543.528 2.30774 543.909 0.762219 544.476 0.333496H537.662C538.229 0.762219 538.61 2.31303 538.292 3.87972C537.678 6.84373 536.932 10.3423 536.164 13.8462C535.19 18.4986 534.168 23.2728 533.321 26.9513C533.036 28.1105 532.469 29.042 531.892 29.2167H532.787V29.2273H535.55V29.2167H536.445C536.09 28.9044 535.762 28.2005 536 26.8878C536.318 25.2735 536.688 23.4845 537.08 21.6003H545.031C545.418 23.4528 545.783 25.2153 546.096 26.8084C546.366 28.174 546.032 28.8991 545.667 29.222H546.567V29.2326H549.335V29.222H550.219V29.2167ZM537.562 19.3349C537.911 17.6994 538.271 16.0269 538.626 14.3702C539.446 10.4482 540.304 6.44676 541.061 3.0805C541.818 6.44676 542.67 10.4482 543.491 14.3702C543.851 16.0269 544.211 17.6994 544.555 19.3349H537.557H537.562Z" fill="#B48039"/>
<path d="M572.819 0.343994H568.023C568.79 0.582173 569.071 2.03771 569.103 2.99043C569.171 6.22967 569.182 10.5645 569.166 14.7829C569.182 17.9322 569.177 21.1503 569.145 23.929C567.906 21.1662 566.583 18.1704 565.286 15.217C562.903 9.88175 560.484 4.38775 558.78 0.343994H554.777C555.545 0.582173 555.826 2.03771 555.857 2.99043C555.926 6.22967 555.937 10.5645 555.921 14.7829C555.937 19.0014 555.931 23.3415 555.857 26.5755C555.831 27.5282 555.545 28.989 554.777 29.2219H559.574C558.806 28.9837 558.525 27.5282 558.494 26.5755C558.425 23.3362 558.414 19.0014 558.43 14.7829C558.42 11.8825 558.42 8.92374 558.441 6.30906C559.891 9.38951 561.485 12.8299 562.978 16.2332C565.005 20.7851 567.07 25.4534 568.69 29.2378H571.818C571.67 26.0356 571.649 20.3034 571.67 14.7829C571.654 10.5645 571.659 6.22438 571.734 2.99043C571.76 2.03771 572.046 0.576881 572.814 0.343994H572.819Z" fill="#B48039"/>
<path d="M604.783 23.0505C603.819 24.9771 602.231 27.1154 600.156 27.1154C597.853 27.1154 594.105 24.2255 594.105 14.693C594.105 5.16055 597.192 2.31828 600.315 2.31828C602.676 2.31828 604.275 5.08645 605.148 7.16655L606.588 3.42978C605.937 3.1175 605.312 2.64114 604.672 2.00071C603.539 0.889203 602.088 0 600.315 0C594.142 0 591.58 6.87544 591.58 14.6877C591.58 22.5 594.635 29.4284 600.151 29.4284C603.062 29.4284 605.175 27.0466 606.392 25.1676L604.778 23.0505H604.783Z" fill="#B48039"/>
<path d="M275.907 0.259399L276.389 3.23399C275.907 2.75764 274.579 2.38713 273.541 2.36067" fill="#B48039"/>
<path d="M371.091 14.3331V12.0625H357.713V14.3331H371.091Z" fill="#B48039"/>
<path d="M356.734 14.7407C356.761 20.277 356.734 26.0198 356.586 29.222C356.586 29.2432 359.402 29.222 359.402 29.222C359.254 26.0198 359.233 20.277 359.254 14.7407C359.228 9.20435 359.254 3.46159 359.402 0.259399H356.586C356.734 3.46159 356.755 9.20435 356.734 14.7407Z" fill="#B48039"/>
<path d="M358.603 0.259399H360.402C359.635 0.497579 359.349 1.9637 359.322 2.92171" fill="#B48039"/>
<path d="M357.39 0.259399H355.59C356.358 0.497579 356.644 1.9637 356.67 2.92171" fill="#B48039"/>
<path d="M358.603 29.2166H360.402C359.635 28.9785 359.349 27.5123 359.322 26.5543" fill="#B48039"/>
<path d="M357.39 29.2166H355.59C356.358 28.9785 356.644 27.5123 356.67 26.5543" fill="#B48039"/>
<path d="M246.262 2.53004V0.259399H250.751L251.206 2.53004H246.262Z" fill="#B48039"/>
<path d="M251.206 29.2219V26.9513H246.262V29.2219H251.206Z" fill="#B48039"/>
<path d="M245.272 14.7407C245.298 20.277 245.272 26.0198 245.124 29.222H247.94C247.792 26.0198 247.77 20.277 247.792 14.7407C247.765 9.20435 247.792 3.46159 247.94 0.259399H245.124C245.272 3.46159 245.293 9.20435 245.272 14.7407Z" fill="#B48039"/>
<path d="M245.933 0.259399H244.133C244.901 0.497579 245.187 1.9637 245.213 2.92171" fill="#B48039"/>
<path d="M291.842 0.259399H290.328C291.513 0.756929 292.038 2.97464 292.366 4.68424" fill="#B48039"/>
<path d="M293.128 0.259399H295.272C294.478 0.645779 294.473 2.06956 294.864 4.2714" fill="#B48039"/>
<path d="M306.262 0.259399H308.406C307.538 1.13272 307.639 2.96935 308.147 5.14472" fill="#B48039"/>
<path d="M245.933 29.2166H244.133C244.901 28.9785 245.187 27.5123 245.213 26.5543" fill="#B48039"/>
<path d="M369.63 14.7407C369.656 20.277 369.63 26.0198 369.481 29.222C369.481 29.2432 372.298 29.222 372.298 29.222C372.15 26.0198 372.128 20.277 372.15 14.7407C372.123 9.20435 372.15 3.46159 372.298 0.259399H369.481C369.63 3.46159 369.651 9.20435 369.63 14.7407Z" fill="#B48039"/>
<path d="M371.499 0.259399H373.298C372.531 0.497579 372.245 1.9637 372.219 2.92171" fill="#B48039"/>
<path d="M370.286 0.259399H368.486C369.254 0.497579 369.54 1.9637 369.566 2.92171" fill="#B48039"/>
<path d="M371.499 29.2166H373.298C372.531 28.9785 372.245 27.5123 372.219 26.5543" fill="#B48039"/>
<path d="M370.286 29.2166H368.486C369.254 28.9785 369.54 27.5123 369.566 26.5543" fill="#B48039"/>
<path d="M328.126 14.7407C328.152 20.2771 328.126 26.0198 327.978 29.222C327.978 29.2432 330.794 29.222 330.794 29.222C330.646 26.0198 330.624 20.2771 330.646 14.7407C330.619 9.20436 330.646 3.4616 330.794 0.25941C330.794 0.25941 327.978 0.238238 327.978 0.25941C328.126 3.4616 328.147 9.20436 328.126 14.7407Z" fill="#B48039"/>
<path d="M329.995 0.259399H331.795C331.027 0.497579 330.741 1.9637 330.715 2.92171" fill="#B48039"/>
<path d="M328.782 0.259399H326.982C327.75 0.497579 328.036 1.9637 328.062 2.92171" fill="#B48039"/>
<path d="M329.995 29.2166H331.795C331.027 28.9785 330.741 27.5123 330.715 26.5543" fill="#B48039"/>
<path d="M328.782 29.2166H326.982C327.75 28.9785 328.036 27.5123 328.062 26.5543" fill="#B48039"/>
<path d="M265.828 14.7407C265.854 20.2771 265.828 26.0198 265.68 29.222C265.68 29.2432 268.496 29.222 268.496 29.222C268.348 26.0198 268.327 20.2771 268.348 14.7407C268.321 9.20436 268.348 3.4616 268.496 0.25941C268.496 0.25941 265.68 0.238238 265.68 0.25941C265.828 3.4616 265.849 9.20436 265.828 14.7407Z" fill="#B48039"/>
<path d="M266.484 0.259399H264.684C265.452 0.497579 265.738 1.9637 265.764 2.92171" fill="#B48039"/>
<path d="M266.484 29.2166H264.684C265.452 28.9785 265.738 27.5123 265.764 26.5543" fill="#B48039"/>
<path d="M297.231 29.2166H295.431C296.199 28.9785 296.532 27.4912 296.368 26.5543" fill="#B48039"/>
<path d="M300.55 29.2167H301.741C301.217 28.7033 301.09 27.8141 301.307 26.9778" fill="#B48039"/>
<path d="M336.395 2.42418V0.259399H351.615V2.42418C351.615 2.42418 347.999 2.41889 344.008 2.41889C340.016 2.41889 336.4 2.42418 336.4 2.42418H336.395Z" fill="#B48039"/>
<path d="M351.615 0.322876L352.097 3.29747C351.615 2.82111 350.291 2.42944 349.249 2.42415" fill="#B48039"/>
<path d="M336.395 0.259399L335.913 3.23399C336.395 2.75764 337.321 2.42418 338.359 2.42418" fill="#B48039"/>
<path d="M342.541 14.7407C342.568 20.2771 342.541 26.0198 342.393 29.222C342.393 29.2432 345.209 29.222 345.209 29.222C345.061 26.0198 345.04 20.2771 345.061 14.7407C345.035 9.20436 345.061 3.4616 345.209 0.25941C345.209 0.25941 342.393 0.238238 342.393 0.25941C342.541 3.4616 342.562 9.20436 342.541 14.7407Z" fill="#B48039"/>
<path d="M344.404 29.2166H346.204C345.437 28.9785 345.151 27.5123 345.124 26.5543" fill="#B48039"/>
<path d="M343.197 29.2166H341.397C342.165 28.9785 342.451 27.5123 342.477 26.5543" fill="#B48039"/>
<path d="M266.934 0.259399V2.34479C267.76 2.33421 268.745 2.32362 269.904 2.32362C273.896 2.32362 275.907 2.42948 275.907 2.42948V0.259399H266.934Z" fill="#B48039"/>
<path d="M276.31 29.2273L276.791 26.2527C276.31 26.729 274.981 27.0995 273.943 27.126" fill="#B48039"/>
<path d="M267.336 29.2273V27.1472C268.162 27.1578 269.147 27.1684 270.306 27.1684C274.298 27.1684 276.31 27.0625 276.31 27.0625V29.2326H267.336V29.2273Z" fill="#B48039"/>
<path d="M271.852 14.1796L274.7 15.0053V13.8356C273.901 14.042 272.847 14.1796 271.852 14.1796Z" fill="#B48039"/>
<path d="M271.852 16.4767C272.715 16.4767 273.837 16.6196 274.7 16.8419V15.651L271.852 16.4767Z" fill="#B48039"/>
<path d="M266.542 14.1796V16.4714C269.502 16.3867 274.7 16.5296 274.7 16.5296V14.1161C274.7 14.1161 269.502 14.259 266.542 14.1743V14.1796Z" fill="#B48039"/>
<path d="M250.518 2.53004C254.112 2.53004 256.563 5.20824 256.563 14.7407H259.088C259.088 6.92313 257.177 0.259399 250.756 0.259399L250.523 2.53004H250.518Z" fill="#B48039"/>
<path d="M251.206 26.9513C253.509 26.9513 256.563 24.2731 256.563 14.7406H259.089C259.089 22.5582 256.728 29.2219 251.211 29.2219V26.9513H251.206Z" fill="#B48039"/>
<path d="M194.143 14.7512C194.17 20.2875 194.143 26.0303 193.995 29.2325C193.995 29.2537 196.811 29.2325 196.811 29.2325C196.663 26.0303 196.642 20.2875 196.663 14.7512C196.637 9.21486 196.663 3.4721 196.811 0.269908C196.811 0.269908 193.995 0.248736 193.995 0.269908C194.143 3.4721 194.165 9.21486 194.143 14.7512Z" fill="#B48039"/>
<path d="M194.8 0.269897H193C193.768 0.508077 194.053 1.9742 194.08 2.93221" fill="#B48039"/>
<path d="M196.012 29.2273H197.812C197.045 28.9891 196.759 27.523 196.732 26.5649" fill="#B48039"/>
<path d="M194.8 29.2273H193C193.768 28.9891 194.053 27.523 194.08 26.5649" fill="#B48039"/>
<path d="M215.991 14.7512C215.965 20.2875 215.991 26.0303 216.14 29.2325C216.14 29.2537 213.323 29.2325 213.323 29.2325C213.471 26.0303 213.493 20.2875 213.471 14.7512C213.498 9.21486 213.471 3.4721 213.323 0.269908C213.323 0.269908 216.14 0.248736 216.14 0.269908C215.991 3.4721 215.97 9.21486 215.991 14.7512Z" fill="#B48039"/>
<path d="M215.335 0.269897H217.135C216.367 0.508077 216.081 1.9742 216.055 2.93221" fill="#B48039"/>
<path d="M214.128 29.2273H212.328C213.096 28.9891 213.382 27.523 213.408 26.5649" fill="#B48039"/>
<path d="M215.335 29.2273H217.135C216.367 28.9891 216.081 27.523 216.055 26.5649" fill="#B48039"/>
<path d="M206.425 27.6606C206.002 26.2897 205.541 24.7972 205.07 23.2305C204.599 24.7972 204.138 26.2897 203.715 27.6606C203.868 28.2058 204.017 28.7298 204.16 29.2379H205.975C206.118 28.7298 206.266 28.2005 206.42 27.6606H206.425Z" fill="#B48039"/>
<path d="M198.283 0.269897H195.567C196.822 4.29777 198.352 9.43186 199.824 14.4389C201.205 19.049 202.603 23.7703 203.715 27.6605C204.138 26.2897 204.599 24.7971 205.07 23.2304C204.165 20.2293 203.191 16.9477 202.243 13.7191C200.829 9.01902 199.405 4.2025 198.283 0.269897Z" fill="#B48039"/>
<path d="M207.897 13.7191C206.949 16.9477 205.975 20.224 205.07 23.2304C205.541 24.7971 206.002 26.2897 206.425 27.6605C207.531 23.7703 208.929 19.049 210.316 14.4389C211.788 9.42657 213.318 4.29777 214.572 0.269897H211.857C210.74 4.2025 209.31 9.02431 207.902 13.7244L207.897 13.7191Z" fill="#B48039"/>
<path d="M238.405 29.222H239.829C239.236 29.0367 238.649 28.0629 238.374 26.8561" fill="#B48039"/>
<path d="M222.339 29.2326H225.113V29.222H226.013C225.653 28.9097 225.33 28.2005 225.568 26.8878C225.891 25.2735 226.256 23.4739 226.653 21.5844H234.626C235.012 23.4422 235.377 25.21 235.695 26.8032C235.965 28.174 235.631 28.8991 235.266 29.222H236.166V29.2326H238.94C238.014 25.3952 236.743 19.5149 235.552 13.8092C234.811 10.3847 234.064 6.89666 233.435 3.80562C233.117 2.23893 233.503 0.688122 234.07 0.259399H227.235C227.802 0.688122 228.188 2.24423 227.871 3.81621C227.257 6.7908 226.505 10.2947 225.737 13.8092C224.758 18.4775 223.736 23.2622 222.884 26.9461C222.598 28.1105 222.026 29.0367 221.449 29.2167H222.349V29.2273L222.339 29.2326ZM228.199 14.3384C229.019 10.4058 229.882 6.39384 230.639 3.01699C231.396 6.38855 232.254 10.4058 233.08 14.3331C233.44 15.9951 233.8 17.6729 234.149 19.3137H227.135C227.484 17.6729 227.844 15.9951 228.204 14.3384H228.199Z" fill="#B48039"/>
<path d="M318.332 0.259365C317.564 4.44603 316.511 9.80771 315.463 15.0265C314.722 18.8479 313.949 22.7435 313.245 26.1891C312.313 22.463 311.249 18.0752 310.232 13.7721C309.338 10.1041 308.433 6.36205 307.654 3.01695C307.432 2.05894 307.215 1.13798 307.014 0.259365H305.69C305.479 1.11152 305.251 2.00601 305.013 2.94814C304.081 6.59493 302.969 10.8186 301.863 14.9524C300.862 18.7791 299.835 22.68 298.904 26.1098C298.189 22.4047 297.39 18.0805 296.627 13.8409C295.738 9.10375 294.854 4.25019 294.166 0.259365H291.524C292.323 4.319 293.255 9.3684 294.144 14.2961C295.134 19.5783 296.124 25.0035 296.839 29.2167H300.746C301.746 25.2417 303.033 20.3564 304.309 15.5928C304.965 13.0734 305.637 10.5275 306.283 8.09811C306.781 10.1517 307.289 12.2636 307.787 14.3596C309.073 19.6207 310.37 25.03 311.312 29.2114H315.277C316.024 25.1994 316.987 20.2982 317.951 15.5081C319.01 10.0671 320.121 4.47778 321.027 0.248779H318.348L318.332 0.259365Z" fill="#B48039"/>
<path d="M320.609 0.259399H322.123C320.937 0.756929 320.46 2.86349 320.084 4.68424" fill="#B48039"/>
<path d="M319.402 0.259399H317.258C318.052 0.645779 317.877 2.69412 317.581 4.2714" fill="#B48039"/>
<path d="M306.49 0.259399H304.346C305.108 0.97923 305.007 2.94818 304.441 5.14472" fill="#B48039"/>
<path d="M314.881 29.2166H316.681C315.913 28.9785 315.553 27.6552 315.765 26.5543" fill="#B48039"/>
<path d="M311.54 29.2167H310.349C310.873 28.7033 311 27.8141 310.783 26.9778" fill="#B48039"/>
<path d="M1082.78 14.6983C1082.81 20.2346 1082.78 25.9827 1082.63 29.1849C1082.63 29.206 1085.45 29.1849 1085.45 29.1849C1085.3 25.9827 1085.28 20.2346 1085.3 14.6983C1085.27 9.16193 1085.3 3.41387 1085.45 0.21168C1085.45 0.21168 1082.63 0.190509 1082.63 0.21168C1082.78 3.41387 1082.8 9.16193 1082.78 14.6983Z" fill="#B48039"/>
<path d="M1084.65 0.21167H1086.45C1085.68 0.449849 1085.4 1.91597 1085.37 2.87398" fill="#B48039"/>
<path d="M1083.44 0.21167H1081.64C1082.41 0.449849 1082.69 1.91597 1082.72 2.87398" fill="#B48039"/>
<path d="M1084.65 29.1849H1086.45C1085.68 28.9467 1085.4 27.4806 1085.37 26.5226" fill="#B48039"/>
<path d="M1083.44 29.1849H1081.64C1082.41 28.9467 1082.69 27.4806 1082.72 26.5226" fill="#B48039"/>
<path d="M1147.14 29.1955L1147.62 26.2209C1147.14 26.6973 1145.8 27.0731 1144.77 27.0943" fill="#B48039"/>
<path d="M1138.16 29.1955V27.1101C1138.99 27.1207 1139.97 27.1312 1141.13 27.1312C1145.12 27.1312 1147.14 27.0254 1147.14 27.0254V29.1955H1138.16Z" fill="#B48039"/>
<path d="M1138.92 0.21167H1140.72C1139.95 0.449849 1139.67 1.91597 1139.64 2.87398" fill="#B48039"/>
<path d="M1137.05 14.6983C1137.08 20.2346 1137.05 25.9827 1136.91 29.1849C1136.91 29.206 1139.72 29.1849 1139.72 29.1849C1139.57 25.9827 1139.55 20.2346 1139.57 14.6983C1139.55 9.16193 1139.57 3.41387 1139.72 0.21168C1139.72 0.21168 1136.91 0.190509 1136.91 0.21168C1137.05 3.41387 1137.07 9.16193 1137.05 14.6983Z" fill="#B48039"/>
<path d="M1137.72 0.21167H1135.92C1136.68 0.449849 1136.97 1.91597 1137 2.87398" fill="#B48039"/>
<path d="M1137.72 29.1849H1135.92C1136.68 28.9467 1136.97 27.4806 1137 26.5226" fill="#B48039"/>
<path d="M1005.2 0C999.678 0 996.861 6.92837 996.861 14.7459C996.861 22.5635 999.021 29.4442 1005.2 29.4442C1011.38 29.4442 1013.54 22.5688 1013.54 14.7459C1013.54 6.92308 1010.72 0 1005.2 0ZM1005.2 27.0042C1002.13 27.0042 999.508 24.2837 999.508 14.7512C999.508 5.21877 1002.94 2.46119 1005.2 2.46119C1007.45 2.46119 1010.89 5.21348 1010.89 14.7512C1010.89 24.289 1008.26 27.0042 1005.2 27.0042Z" fill="#B48039"/>
<path d="M1162.24 2.00071C1161.11 0.88391 1159.65 0 1157.88 0C1154.6 0 1152.12 2.55646 1152.12 5.94919C1152.12 9.54834 1154.72 12.7029 1157.24 15.1535C1159.79 17.6253 1161.8 19.3402 1161.8 22.6747C1161.8 25.2364 1160.31 27.073 1157.9 27.073C1155.49 27.073 1153.84 24.8977 1153.16 23.2992L1151.71 26.8084C1152.27 26.9619 1152.78 27.2583 1153.5 27.8088C1154.67 28.7244 1156.14 29.439 1157.9 29.439C1161.62 29.439 1164.42 26.5279 1164.42 22.6694C1164.42 18.3133 1161.59 15.651 1158.93 13.0681C1156.67 10.8716 1154.74 8.52152 1154.74 5.9439C1154.74 3.89555 1155.94 2.31299 1157.88 2.31299C1160.24 2.31299 1161.84 5.07586 1162.72 7.15596L1164.15 3.43507C1163.5 3.12279 1162.88 2.63585 1162.24 1.99012V2.00071Z" fill="#B48039"/>
<path d="M921.858 0.248779L922.339 3.22337C921.858 2.74702 920.524 2.37122 919.491 2.35005" fill="#B48039"/>
<path d="M911.773 14.7354C911.799 20.2717 911.773 26.0198 911.625 29.222C911.625 29.2431 914.441 29.222 914.441 29.222C914.293 26.0198 914.271 20.2717 914.293 14.7354C914.266 9.19904 914.293 3.45098 914.441 0.248789C914.441 0.248789 911.625 0.227618 911.625 0.248789C911.773 3.45098 911.794 9.19904 911.773 14.7354Z" fill="#B48039"/>
<path d="M912.435 0.248779H910.635C911.402 0.486959 911.688 1.95308 911.715 2.91109" fill="#B48039"/>
<path d="M912.435 29.2166H910.635C911.402 28.9785 911.688 27.5123 911.715 26.5543" fill="#B48039"/>
<path d="M912.879 0.248779V2.33417C913.705 2.32359 914.69 2.313 915.849 2.313C919.841 2.313 921.858 2.41886 921.858 2.41886V0.248779H912.879Z" fill="#B48039"/>
<path d="M922.26 29.2273L922.742 26.2527C922.26 26.729 920.926 27.1048 919.894 27.126" fill="#B48039"/>
<path d="M913.282 29.2272V27.1418C914.108 27.1524 915.092 27.163 916.252 27.163C920.243 27.163 922.26 27.0571 922.26 27.0571V29.2272H913.282Z" fill="#B48039"/>
<path d="M917.803 14.1744L920.651 15V13.8303C919.851 14.0367 918.798 14.1744 917.803 14.1744Z" fill="#B48039"/>
<path d="M917.803 16.4714C918.666 16.4714 919.788 16.6196 920.651 16.8366V15.6458L917.803 16.4714Z" fill="#B48039"/>
<path d="M912.488 14.1743V16.4714C915.447 16.3867 920.651 16.5296 920.651 16.5296V14.1161C920.651 14.1161 915.447 14.259 912.488 14.1743Z" fill="#B48039"/>
<path d="M1130.37 29.2166C1129.79 29.0367 1129.22 28.0892 1128.93 26.9142C1128.09 23.2251 1127.06 18.4615 1126.08 13.8038C1125.34 10.3793 1124.6 6.886 1123.97 3.80025C1123.65 2.23356 1124.04 0.682751 1124.6 0.254028H1117.77C1118.33 0.682751 1118.72 2.24415 1118.4 3.81084C1117.79 6.78543 1117.04 10.2893 1116.27 13.8091C1115.29 18.4774 1114.26 23.2621 1113.42 26.9513C1113.13 28.1157 1112.56 29.0473 1111.98 29.2219H1112.88V29.2325H1115.66V29.2219H1116.56C1116.2 28.9096 1115.87 28.2004 1116.11 26.8825C1116.43 25.2628 1116.8 23.4686 1117.2 21.579H1125.17C1125.56 23.4368 1125.93 25.2046 1126.24 26.8031C1126.51 28.1739 1126.17 28.8991 1125.81 29.2219H1126.71V29.2325H1129.48V29.2219H1130.38L1130.37 29.2166ZM1117.67 19.3084C1118.02 17.6676 1118.38 15.9897 1118.74 14.3278C1119.56 10.3952 1120.42 6.37788 1121.18 3.00632C1121.93 6.38317 1122.79 10.3952 1123.62 14.3278C1123.98 15.9897 1124.34 17.6676 1124.69 19.3084H1117.67Z" fill="#B48039"/>
<path d="M1175 27.2872L1172.29 24.5701L1169.57 27.2872L1172.29 30.0044L1175 27.2872Z" fill="#B48039"/>
<path d="M1016.58 2.49287V0.333374H1032.56V2.49287C1032.56 2.49287 1028.55 2.48757 1024.56 2.48757C1020.58 2.48757 1016.57 2.49287 1016.57 2.49287H1016.58Z" fill="#B48039"/>
<path d="M1032.56 0.396973L1033.04 3.36098C1032.56 2.88462 1031.25 2.49295 1030.2 2.48766" fill="#B48039"/>
<path d="M1016.58 0.333374L1016.09 3.29738C1016.58 2.82102 1017.5 2.48757 1018.53 2.49287" fill="#B48039"/>
<path d="M1023.11 14.7724C1023.13 20.2928 1023.11 26.025 1022.96 29.2166C1022.96 29.2378 1025.77 29.2166 1025.77 29.2166C1025.62 26.025 1025.6 20.2928 1025.62 14.7724C1025.6 9.25192 1025.62 3.51974 1025.77 0.328135C1025.77 0.328135 1022.96 0.306964 1022.96 0.328135C1023.11 3.51974 1023.13 9.25192 1023.11 14.7724Z" fill="#B48039"/>
<path d="M1024.97 29.2167H1026.77C1026 28.9785 1025.71 27.5177 1025.69 26.5649" fill="#B48039"/>
<path d="M1023.76 29.2167H1021.97C1022.74 28.9785 1023.02 27.5177 1023.05 26.5649" fill="#B48039"/>
<path d="M892.44 16.916V14.6506H896.252L896.802 16.916H892.44Z" fill="#B48039"/>
<path d="M891.466 14.7724C891.487 20.2928 891.466 26.025 891.318 29.2166C891.318 29.2378 894.129 29.2166 894.129 29.2166C893.981 26.025 893.96 20.2928 893.981 14.7724C893.96 9.25191 893.981 3.51973 894.129 0.328125H891.318C891.466 3.51973 891.487 9.25191 891.466 14.7724Z" fill="#B48039"/>
<path d="M892.122 0.333496H890.328C891.095 0.571675 891.381 2.03251 891.408 2.98522" fill="#B48039"/>
<path d="M893.329 29.2167H895.124C894.356 28.9785 894.07 27.5177 894.044 26.5649" fill="#B48039"/>
<path d="M892.122 29.2167H890.328C891.095 28.9785 891.381 27.5177 891.408 26.5649" fill="#B48039"/>
<path d="M903.07 29.2273H901.562C902.207 29.0262 902.218 27.8141 901.916 26.7979" fill="#B48039"/>
<path d="M893.229 2.59355V0.333496H895.944L898.162 2.59355H893.229Z" fill="#B48039"/>
<path d="M895.944 0.333496C900.746 0.333496 904.573 2.81056 904.573 8.28339C904.573 14.3331 900.899 16.9214 896.527 16.9214L896.251 14.656C900.301 14.656 902.064 12.3377 902.064 8.55862C902.064 4.77951 899.984 2.59885 896.611 2.59885L895.944 0.333496Z" fill="#B48039"/>
<path d="M903.245 22.3253C902.212 19.2978 901.18 16.1432 900.735 14.3436C900.735 14.3436 897.977 15.217 897.982 15.2328C898.708 16.9424 899.703 20.0811 900.693 23.1245C901.429 25.2734 902.159 27.4858 902.683 29.2325H905.637C904.949 27.4488 904.07 24.8553 903.25 22.3253H903.245Z" fill="#B48039"/>
<path d="M904.748 29.2272H906.765C905.998 28.989 904.965 27.4117 904.425 25.8662" fill="#B48039"/>
<path d="M978.344 15.2329V12.9675H982.15L982.701 15.2329H978.344Z" fill="#B48039"/>
<path d="M977.364 14.7724C977.385 20.2928 977.364 26.025 977.216 29.2166C977.216 29.2378 980.027 29.2166 980.027 29.2166C979.879 26.025 979.857 20.2928 979.879 14.7724C979.857 9.25191 979.879 3.51973 980.027 0.328125H977.216C977.364 3.51973 977.385 9.25191 977.364 14.7724Z" fill="#B48039"/>
<path d="M978.021 0.333496H976.226C976.994 0.571675 977.28 2.03251 977.306 2.98522" fill="#B48039"/>
<path d="M979.228 29.2167H981.022C980.255 28.9785 979.969 27.5177 979.942 26.5649" fill="#B48039"/>
<path d="M978.021 29.2167H976.226C976.994 28.9785 977.28 27.5177 977.306 26.5649" fill="#B48039"/>
<path d="M979.132 2.59355V0.333496H981.843L984.066 2.59355H979.132Z" fill="#B48039"/>
<path d="M981.843 0.333496C986.644 0.333496 990.472 2.08544 990.472 7.56356C990.472 13.6133 986.798 15.2382 982.425 15.2382L982.15 12.9729C986.2 12.9729 987.962 11.6126 987.962 7.83879C987.962 4.06497 985.882 2.59885 982.51 2.59885L981.843 0.333496Z" fill="#B48039"/>
<path d="M978.862 29.2378V26.9778H982.669L983.219 29.2378H978.862Z" fill="#B48039"/>
<path d="M979.651 15.2329V12.9675H982.362L984.585 15.2329H979.651Z" fill="#B48039"/>
<path d="M982.362 12.9676C987.163 12.9676 991.382 15.4341 991.382 20.9069C991.382 26.9566 987.317 29.2379 982.944 29.2379L982.669 26.9725C986.719 26.9725 988.873 24.9612 988.873 21.1821C988.873 17.403 986.396 15.2276 983.023 15.2276L982.356 12.9623L982.362 12.9676Z" fill="#B48039"/>
<path d="M961.663 29.2272L962.145 26.2632C961.663 26.7395 960.334 27.11 959.302 27.1365" fill="#B48039"/>
<path d="M952.71 29.2272V27.1524C953.531 27.163 954.516 27.1736 955.67 27.1736C959.651 27.1736 961.657 27.0677 961.657 27.0677V29.2325H952.705L952.71 29.2272Z" fill="#B48039"/>
<path d="M953.473 0.333496H955.267C954.5 0.571675 954.214 2.03251 954.187 2.98522" fill="#B48039"/>
<path d="M951.61 14.7724C951.631 20.2928 951.61 26.025 951.461 29.2166C951.461 29.2378 954.272 29.2166 954.272 29.2166C954.124 26.025 954.103 20.2928 954.124 14.7724C954.103 9.25192 954.124 3.51974 954.272 0.328135C954.272 0.328135 951.461 0.306964 951.461 0.328135C951.61 3.51974 951.631 9.25192 951.61 14.7724Z" fill="#B48039"/>
<path d="M952.266 0.333496H950.471C951.239 0.571675 951.525 2.03251 951.551 2.98522" fill="#B48039"/>
<path d="M952.266 29.2167H950.471C951.239 28.9785 951.525 27.5177 951.551 26.5649" fill="#B48039"/>
<path d="M944.516 29.2167C943.933 29.0367 943.362 28.0946 943.081 26.9196C942.234 23.2463 941.218 18.4933 940.244 13.8462C939.502 10.4323 938.761 6.94959 938.131 3.86913C937.819 2.30774 938.2 0.762219 938.767 0.333496H931.953C932.52 0.762219 932.901 2.31303 932.583 3.87972C931.969 6.84373 931.223 10.3423 930.455 13.8462C929.481 18.4986 928.459 23.2728 927.612 26.9513C927.327 28.1105 926.76 29.042 926.183 29.2167H927.078V29.2273H929.841V29.2167H930.736C930.381 28.9044 930.053 28.2005 930.291 26.8878C930.609 25.2735 930.979 23.4845 931.371 21.6003H939.322C939.709 23.4528 940.074 25.2153 940.387 26.8084C940.657 28.174 940.323 28.8991 939.958 29.222H940.858V29.2326H943.626V29.222H944.521L944.516 29.2167ZM931.848 19.3349C932.197 17.6994 932.557 16.0269 932.912 14.3702C933.732 10.4482 934.59 6.44676 935.347 3.0805C936.104 6.44676 936.956 10.4482 937.777 14.3702C938.137 16.0269 938.497 17.6994 938.841 19.3349H931.842H931.848Z" fill="#B48039"/>
<path d="M1052.22 29.2167C1051.66 29.042 1051.11 28.1422 1050.82 27.0202C1049.96 23.331 1048.94 18.5357 1047.95 13.8462C1047.21 10.4323 1046.47 6.94959 1045.84 3.86913C1045.53 2.30774 1045.91 0.762219 1046.48 0.333496H1039.66C1040.23 0.762219 1040.61 2.31303 1040.29 3.87972C1039.68 6.84373 1038.93 10.3423 1038.16 13.8462C1037.19 18.4986 1036.17 23.2728 1035.32 26.9513C1035.04 28.1105 1034.47 29.042 1033.89 29.2167H1034.79V29.2273H1037.55V29.2167H1038.44C1038.09 28.9044 1037.76 28.2005 1038 26.8878C1038.32 25.2735 1038.69 23.4845 1039.08 21.6003H1047.03C1047.42 23.4528 1047.78 25.2153 1048.1 26.8084C1048.37 28.174 1048.03 28.8991 1047.67 29.222H1048.57V29.2326H1051.34V29.222H1052.22V29.2167ZM1039.56 19.3349C1039.91 17.6994 1040.27 16.0269 1040.63 14.3702C1041.45 10.4482 1042.3 6.44676 1043.06 3.0805C1043.82 6.44676 1044.67 10.4482 1045.49 14.3702C1045.85 16.0269 1046.21 17.6994 1046.56 19.3349H1039.56H1039.56Z" fill="#B48039"/>
<path d="M1074.82 0.343994H1070.02C1070.79 0.582173 1071.07 2.03771 1071.1 2.99043C1071.17 6.22967 1071.18 10.5645 1071.17 14.7829C1071.18 17.9322 1071.18 21.1503 1071.14 23.929C1069.91 21.1662 1068.58 18.1704 1067.29 15.217C1064.9 9.88175 1062.48 4.38775 1060.78 0.343994H1056.78C1057.54 0.582173 1057.83 2.03771 1057.86 2.99043C1057.93 6.22967 1057.94 10.5645 1057.92 14.7829C1057.94 19.0014 1057.93 23.3415 1057.86 26.5755C1057.83 27.5282 1057.54 28.989 1056.78 29.2219H1061.57C1060.81 28.9837 1060.53 27.5282 1060.49 26.5755C1060.42 23.3362 1060.41 19.0014 1060.43 14.7829C1060.42 11.8825 1060.42 8.92374 1060.44 6.30906C1061.89 9.38951 1063.48 12.8299 1064.98 16.2332C1067.01 20.7851 1069.07 25.4534 1070.69 29.2378H1073.82C1073.67 26.0356 1073.65 20.3034 1073.67 14.7829C1073.65 10.5645 1073.66 6.22438 1073.73 2.99043C1073.76 2.03771 1074.05 0.576881 1074.81 0.343994H1074.82Z" fill="#B48039"/>
<path d="M1106.78 23.0505C1105.82 24.9771 1104.23 27.1154 1102.16 27.1154C1099.85 27.1154 1096.11 24.2255 1096.11 14.693C1096.11 5.16055 1099.19 2.31828 1102.31 2.31828C1104.68 2.31828 1106.27 5.08645 1107.15 7.16655L1108.59 3.42978C1107.94 3.1175 1107.31 2.64114 1106.67 2.00071C1105.54 0.889203 1104.09 0 1102.31 0C1096.14 0 1093.58 6.87544 1093.58 14.6877C1093.58 22.5 1096.63 29.4284 1102.15 29.4284C1105.06 29.4284 1107.17 27.0466 1108.39 25.1676L1106.78 23.0505H1106.78Z" fill="#B48039"/>
<path d="M777.907 0.259399L778.389 3.23399C777.907 2.75764 776.579 2.38713 775.541 2.36067" fill="#B48039"/>
<path d="M873.091 14.3331V12.0625H859.713V14.3331H873.091Z" fill="#B48039"/>
<path d="M858.734 14.7407C858.761 20.277 858.734 26.0198 858.586 29.222C858.586 29.2432 861.402 29.222 861.402 29.222C861.254 26.0198 861.233 20.277 861.254 14.7407C861.228 9.20435 861.254 3.46159 861.402 0.259399H858.586C858.734 3.46159 858.755 9.20435 858.734 14.7407Z" fill="#B48039"/>
<path d="M860.603 0.259399H862.402C861.635 0.497579 861.349 1.9637 861.322 2.92171" fill="#B48039"/>
<path d="M859.39 0.259399H857.59C858.358 0.497579 858.644 1.9637 858.67 2.92171" fill="#B48039"/>
<path d="M860.603 29.2166H862.402C861.635 28.9785 861.349 27.5123 861.322 26.5543" fill="#B48039"/>
<path d="M859.39 29.2166H857.59C858.358 28.9785 858.644 27.5123 858.67 26.5543" fill="#B48039"/>
<path d="M748.262 2.53004V0.259399H752.751L753.206 2.53004H748.262Z" fill="#B48039"/>
<path d="M753.206 29.2219V26.9513H748.262V29.2219H753.206Z" fill="#B48039"/>
<path d="M747.272 14.7407C747.298 20.277 747.272 26.0198 747.124 29.222H749.94C749.792 26.0198 749.77 20.277 749.792 14.7407C749.765 9.20435 749.792 3.46159 749.94 0.259399H747.124C747.272 3.46159 747.293 9.20435 747.272 14.7407Z" fill="#B48039"/>
<path d="M747.933 0.259399H746.133C746.901 0.497579 747.187 1.9637 747.213 2.92171" fill="#B48039"/>
<path d="M793.842 0.259399H792.328C793.513 0.756929 794.038 2.97464 794.366 4.68424" fill="#B48039"/>
<path d="M795.128 0.259399H797.272C796.478 0.645779 796.473 2.06956 796.864 4.2714" fill="#B48039"/>
<path d="M808.262 0.259399H810.406C809.538 1.13272 809.639 2.96935 810.147 5.14472" fill="#B48039"/>
<path d="M747.933 29.2166H746.133C746.901 28.9785 747.187 27.5123 747.213 26.5543" fill="#B48039"/>
<path d="M871.63 14.7407C871.656 20.277 871.63 26.0198 871.481 29.222C871.481 29.2432 874.298 29.222 874.298 29.222C874.15 26.0198 874.128 20.277 874.15 14.7407C874.123 9.20435 874.15 3.46159 874.298 0.259399H871.481C871.63 3.46159 871.651 9.20435 871.63 14.7407Z" fill="#B48039"/>
<path d="M873.499 0.259399H875.298C874.531 0.497579 874.245 1.9637 874.219 2.92171" fill="#B48039"/>
<path d="M872.286 0.259399H870.486C871.254 0.497579 871.54 1.9637 871.566 2.92171" fill="#B48039"/>
<path d="M873.499 29.2166H875.298C874.531 28.9785 874.245 27.5123 874.219 26.5543" fill="#B48039"/>
<path d="M872.286 29.2166H870.486C871.254 28.9785 871.54 27.5123 871.566 26.5543" fill="#B48039"/>
<path d="M830.126 14.7407C830.152 20.2771 830.126 26.0198 829.978 29.222C829.978 29.2432 832.794 29.222 832.794 29.222C832.646 26.0198 832.624 20.2771 832.646 14.7407C832.619 9.20436 832.646 3.4616 832.794 0.25941C832.794 0.25941 829.978 0.238238 829.978 0.25941C830.126 3.4616 830.147 9.20436 830.126 14.7407Z" fill="#B48039"/>
<path d="M831.995 0.259399H833.795C833.027 0.497579 832.741 1.9637 832.715 2.92171" fill="#B48039"/>
<path d="M830.782 0.259399H828.982C829.75 0.497579 830.036 1.9637 830.062 2.92171" fill="#B48039"/>
<path d="M831.995 29.2166H833.795C833.027 28.9785 832.741 27.5123 832.715 26.5543" fill="#B48039"/>
<path d="M830.782 29.2166H828.982C829.75 28.9785 830.036 27.5123 830.062 26.5543" fill="#B48039"/>
<path d="M767.828 14.7407C767.854 20.2771 767.828 26.0198 767.68 29.222C767.68 29.2432 770.496 29.222 770.496 29.222C770.348 26.0198 770.327 20.2771 770.348 14.7407C770.321 9.20436 770.348 3.4616 770.496 0.25941C770.496 0.25941 767.68 0.238238 767.68 0.25941C767.828 3.4616 767.849 9.20436 767.828 14.7407Z" fill="#B48039"/>
<path d="M768.484 0.259399H766.684C767.452 0.497579 767.738 1.9637 767.764 2.92171" fill="#B48039"/>
<path d="M768.484 29.2166H766.684C767.452 28.9785 767.738 27.5123 767.764 26.5543" fill="#B48039"/>
<path d="M799.231 29.2166H797.431C798.199 28.9785 798.532 27.4912 798.368 26.5543" fill="#B48039"/>
<path d="M802.55 29.2167H803.741C803.217 28.7033 803.09 27.8141 803.307 26.9778" fill="#B48039"/>
<path d="M838.395 2.42418V0.259399H853.615V2.42418C853.615 2.42418 849.999 2.41889 846.008 2.41889C842.016 2.41889 838.4 2.42418 838.4 2.42418H838.395Z" fill="#B48039"/>
<path d="M853.615 0.322876L854.097 3.29747C853.615 2.82111 852.291 2.42944 851.249 2.42415" fill="#B48039"/>
<path d="M838.395 0.259399L837.913 3.23399C838.395 2.75764 839.321 2.42418 840.359 2.42418" fill="#B48039"/>
<path d="M844.541 14.7407C844.568 20.2771 844.541 26.0198 844.393 29.222C844.393 29.2432 847.209 29.222 847.209 29.222C847.061 26.0198 847.04 20.2771 847.061 14.7407C847.035 9.20436 847.061 3.4616 847.209 0.25941C847.209 0.25941 844.393 0.238238 844.393 0.25941C844.541 3.4616 844.562 9.20436 844.541 14.7407Z" fill="#B48039"/>
<path d="M846.404 29.2166H848.204C847.437 28.9785 847.151 27.5123 847.124 26.5543" fill="#B48039"/>
<path d="M845.197 29.2166H843.397C844.165 28.9785 844.451 27.5123 844.477 26.5543" fill="#B48039"/>
<path d="M768.934 0.259399V2.34479C769.76 2.33421 770.745 2.32362 771.904 2.32362C775.896 2.32362 777.907 2.42948 777.907 2.42948V0.259399H768.934Z" fill="#B48039"/>
<path d="M778.31 29.2273L778.791 26.2527C778.31 26.729 776.981 27.0995 775.943 27.126" fill="#B48039"/>
<path d="M769.336 29.2273V27.1472C770.162 27.1578 771.147 27.1684 772.306 27.1684C776.298 27.1684 778.31 27.0625 778.31 27.0625V29.2326H769.336V29.2273Z" fill="#B48039"/>
<path d="M773.852 14.1796L776.7 15.0053V13.8356C775.901 14.042 774.847 14.1796 773.852 14.1796Z" fill="#B48039"/>
<path d="M773.852 16.4767C774.715 16.4767 775.837 16.6196 776.7 16.8419V15.651L773.852 16.4767Z" fill="#B48039"/>
<path d="M768.542 14.1796V16.4714C771.502 16.3867 776.7 16.5296 776.7 16.5296V14.1161C776.7 14.1161 771.502 14.259 768.542 14.1743V14.1796Z" fill="#B48039"/>
<path d="M752.518 2.53004C756.112 2.53004 758.563 5.20824 758.563 14.7407H761.088C761.088 6.92313 759.177 0.259399 752.756 0.259399L752.523 2.53004H752.518Z" fill="#B48039"/>
<path d="M753.206 26.9513C755.509 26.9513 758.563 24.2731 758.563 14.7406H761.089C761.089 22.5582 758.728 29.2219 753.211 29.2219V26.9513H753.206Z" fill="#B48039"/>
<path d="M696.143 14.7512C696.17 20.2875 696.143 26.0303 695.995 29.2325C695.995 29.2537 698.811 29.2325 698.811 29.2325C698.663 26.0303 698.642 20.2875 698.663 14.7512C698.637 9.21486 698.663 3.4721 698.811 0.269908C698.811 0.269908 695.995 0.248736 695.995 0.269908C696.143 3.4721 696.165 9.21486 696.143 14.7512Z" fill="#B48039"/>
<path d="M696.8 0.269897H695C695.768 0.508077 696.053 1.9742 696.08 2.93221" fill="#B48039"/>
<path d="M698.012 29.2273H699.812C699.045 28.9891 698.759 27.523 698.732 26.5649" fill="#B48039"/>
<path d="M696.8 29.2273H695C695.768 28.9891 696.053 27.523 696.08 26.5649" fill="#B48039"/>
<path d="M717.991 14.7512C717.965 20.2875 717.991 26.0303 718.14 29.2325C718.14 29.2537 715.323 29.2325 715.323 29.2325C715.471 26.0303 715.493 20.2875 715.471 14.7512C715.498 9.21486 715.471 3.4721 715.323 0.269908C715.323 0.269908 718.14 0.248736 718.14 0.269908C717.991 3.4721 717.97 9.21486 717.991 14.7512Z" fill="#B48039"/>
<path d="M717.335 0.269897H719.135C718.367 0.508077 718.081 1.9742 718.055 2.93221" fill="#B48039"/>
<path d="M716.128 29.2273H714.328C715.096 28.9891 715.382 27.523 715.408 26.5649" fill="#B48039"/>
<path d="M717.335 29.2273H719.135C718.367 28.9891 718.081 27.523 718.055 26.5649" fill="#B48039"/>
<path d="M708.425 27.6606C708.002 26.2897 707.541 24.7972 707.07 23.2305C706.599 24.7972 706.138 26.2897 705.715 27.6606C705.868 28.2058 706.017 28.7298 706.16 29.2379H707.975C708.118 28.7298 708.266 28.2005 708.42 27.6606H708.425Z" fill="#B48039"/>
<path d="M700.283 0.269897H697.567C698.822 4.29777 700.352 9.43186 701.824 14.4389C703.205 19.049 704.603 23.7703 705.715 27.6605C706.138 26.2897 706.599 24.7971 707.07 23.2304C706.165 20.2293 705.191 16.9477 704.243 13.7191C702.829 9.01902 701.405 4.2025 700.283 0.269897Z" fill="#B48039"/>
<path d="M709.897 13.7191C708.949 16.9477 707.975 20.224 707.07 23.2304C707.541 24.7971 708.002 26.2897 708.425 27.6605C709.531 23.7703 710.929 19.049 712.316 14.4389C713.788 9.42657 715.318 4.29777 716.572 0.269897H713.857C712.74 4.2025 711.31 9.02431 709.902 13.7244L709.897 13.7191Z" fill="#B48039"/>
<path d="M740.405 29.222H741.829C741.236 29.0367 740.649 28.0629 740.374 26.8561" fill="#B48039"/>
<path d="M724.339 29.2326H727.113V29.222H728.013C727.653 28.9097 727.33 28.2005 727.568 26.8878C727.891 25.2735 728.256 23.4739 728.653 21.5844H736.626C737.012 23.4422 737.377 25.21 737.695 26.8032C737.965 28.174 737.631 28.8991 737.266 29.222H738.166V29.2326H740.94C740.014 25.3952 738.743 19.5149 737.552 13.8092C736.811 10.3847 736.064 6.89666 735.435 3.80562C735.117 2.23893 735.503 0.688122 736.07 0.259399H729.235C729.802 0.688122 730.188 2.24423 729.871 3.81621C729.257 6.7908 728.505 10.2947 727.737 13.8092C726.758 18.4775 725.736 23.2622 724.884 26.9461C724.598 28.1105 724.026 29.0367 723.449 29.2167H724.349V29.2273L724.339 29.2326ZM730.199 14.3384C731.019 10.4058 731.882 6.39384 732.639 3.01699C733.396 6.38855 734.254 10.4058 735.08 14.3331C735.44 15.9951 735.8 17.6729 736.149 19.3137H729.135C729.484 17.6729 729.844 15.9951 730.204 14.3384H730.199Z" fill="#B48039"/>
<path d="M820.332 0.259365C819.564 4.44603 818.511 9.80771 817.463 15.0265C816.722 18.8479 815.949 22.7435 815.245 26.1891C814.313 22.463 813.249 18.0752 812.232 13.7721C811.338 10.1041 810.433 6.36205 809.654 3.01695C809.432 2.05894 809.215 1.13798 809.014 0.259365H807.69C807.479 1.11152 807.251 2.00601 807.013 2.94814C806.081 6.59493 804.969 10.8186 803.863 14.9524C802.862 18.7791 801.835 22.68 800.904 26.1098C800.189 22.4047 799.39 18.0805 798.627 13.8409C797.738 9.10375 796.854 4.25019 796.166 0.259365H793.524C794.323 4.319 795.255 9.3684 796.144 14.2961C797.134 19.5783 798.124 25.0035 798.839 29.2167H802.746C803.746 25.2417 805.033 20.3564 806.309 15.5928C806.965 13.0734 807.637 10.5275 808.283 8.09811C808.781 10.1517 809.289 12.2636 809.787 14.3596C811.073 19.6207 812.37 25.03 813.312 29.2114H817.277C818.024 25.1994 818.987 20.2982 819.951 15.5081C821.01 10.0671 822.121 4.47778 823.027 0.248779H820.348L820.332 0.259365Z" fill="#B48039"/>
<path d="M822.609 0.259399H824.123C822.937 0.756929 822.46 2.86349 822.084 4.68424" fill="#B48039"/>
<path d="M821.402 0.259399H819.258C820.052 0.645779 819.877 2.69412 819.581 4.2714" fill="#B48039"/>
<path d="M808.49 0.259399H806.346C807.108 0.97923 807.007 2.94818 806.441 5.14472" fill="#B48039"/>
<path d="M816.881 29.2166H818.681C817.913 28.9785 817.553 27.6552 817.765 26.5543" fill="#B48039"/>
<path d="M813.54 29.2167H812.349C812.873 28.7033 813 27.8141 812.783 26.9778" fill="#B48039"/>
<path d="M1507.2 0C1501.68 0 1498.86 6.92837 1498.86 14.7459C1498.86 22.5635 1501.02 29.4442 1507.2 29.4442C1513.38 29.4442 1515.54 22.5688 1515.54 14.7459C1515.54 6.92308 1512.72 0 1507.2 0ZM1507.2 27.0042C1504.13 27.0042 1501.51 24.2837 1501.51 14.7512C1501.51 5.21877 1504.94 2.46119 1507.2 2.46119C1509.45 2.46119 1512.89 5.21348 1512.89 14.7512C1512.89 24.289 1510.26 27.0042 1507.2 27.0042Z" fill="#B48039"/>
<path d="M1423.86 0.248779L1424.34 3.22337C1423.86 2.74702 1422.52 2.37122 1421.49 2.35005" fill="#B48039"/>
<path d="M1413.77 14.7354C1413.8 20.2717 1413.77 26.0198 1413.62 29.222C1413.62 29.2431 1416.44 29.222 1416.44 29.222C1416.29 26.0198 1416.27 20.2717 1416.29 14.7354C1416.27 9.19904 1416.29 3.45098 1416.44 0.248789C1416.44 0.248789 1413.62 0.227618 1413.62 0.248789C1413.77 3.45098 1413.79 9.19904 1413.77 14.7354Z" fill="#B48039"/>
<path d="M1414.43 0.248779H1412.63C1413.4 0.486959 1413.69 1.95308 1413.71 2.91109" fill="#B48039"/>
<path d="M1414.43 29.2166H1412.63C1413.4 28.9785 1413.69 27.5123 1413.71 26.5543" fill="#B48039"/>
<path d="M1414.88 0.248779V2.33417C1415.71 2.32359 1416.69 2.313 1417.85 2.313C1421.84 2.313 1423.86 2.41886 1423.86 2.41886V0.248779H1414.88Z" fill="#B48039"/>
<path d="M1424.26 29.2273L1424.74 26.2527C1424.26 26.729 1422.93 27.1048 1421.89 27.126" fill="#B48039"/>
<path d="M1415.28 29.2272V27.1418C1416.11 27.1524 1417.09 27.163 1418.25 27.163C1422.24 27.163 1424.26 27.0571 1424.26 27.0571V29.2272H1415.28Z" fill="#B48039"/>
<path d="M1419.8 14.1744L1422.65 15V13.8303C1421.85 14.0367 1420.8 14.1744 1419.8 14.1744Z" fill="#B48039"/>
<path d="M1419.8 16.4714C1420.67 16.4714 1421.79 16.6196 1422.65 16.8366V15.6458L1419.8 16.4714Z" fill="#B48039"/>
<path d="M1414.49 14.1743V16.4714C1417.45 16.3867 1422.65 16.5296 1422.65 16.5296V14.1161C1422.65 14.1161 1417.45 14.259 1414.49 14.1743Z" fill="#B48039"/>
<path d="M1394.44 16.916V14.6506H1398.25L1398.8 16.916H1394.44Z" fill="#B48039"/>
<path d="M1393.47 14.7724C1393.49 20.2928 1393.47 26.025 1393.32 29.2166C1393.32 29.2378 1396.13 29.2166 1396.13 29.2166C1395.98 26.025 1395.96 20.2928 1395.98 14.7724C1395.96 9.25191 1395.98 3.51973 1396.13 0.328125H1393.32C1393.47 3.51973 1393.49 9.25191 1393.47 14.7724Z" fill="#B48039"/>
<path d="M1394.12 0.333496H1392.33C1393.1 0.571675 1393.38 2.03251 1393.41 2.98522" fill="#B48039"/>
<path d="M1395.33 29.2167H1397.12C1396.36 28.9785 1396.07 27.5177 1396.04 26.5649" fill="#B48039"/>
<path d="M1394.12 29.2167H1392.33C1393.1 28.9785 1393.38 27.5177 1393.41 26.5649" fill="#B48039"/>
<path d="M1405.07 29.2273H1403.56C1404.21 29.0262 1404.22 27.8141 1403.92 26.7979" fill="#B48039"/>
<path d="M1395.23 2.59355V0.333496H1397.94L1400.16 2.59355H1395.23Z" fill="#B48039"/>
<path d="M1397.94 0.333496C1402.75 0.333496 1406.57 2.81056 1406.57 8.28339C1406.57 14.3331 1402.9 16.9214 1398.53 16.9214L1398.25 14.656C1402.3 14.656 1404.06 12.3377 1404.06 8.55862C1404.06 4.77951 1401.98 2.59885 1398.61 2.59885L1397.94 0.333496Z" fill="#B48039"/>
<path d="M1405.24 22.3253C1404.21 19.2978 1403.18 16.1432 1402.74 14.3436C1402.74 14.3436 1399.98 15.217 1399.98 15.2328C1400.71 16.9424 1401.7 20.0811 1402.69 23.1245C1403.43 25.2734 1404.16 27.4858 1404.68 29.2325H1407.64C1406.95 27.4488 1406.07 24.8553 1405.25 22.3253H1405.24Z" fill="#B48039"/>
<path d="M1406.75 29.2272H1408.77C1408 28.989 1406.97 27.4117 1406.43 25.8662" fill="#B48039"/>
<path d="M1480.34 15.2329V12.9675H1484.15L1484.7 15.2329H1480.34Z" fill="#B48039"/>
<path d="M1479.36 14.7724C1479.39 20.2928 1479.36 26.025 1479.22 29.2166C1479.22 29.2378 1482.03 29.2166 1482.03 29.2166C1481.88 26.025 1481.86 20.2928 1481.88 14.7724C1481.86 9.25191 1481.88 3.51973 1482.03 0.328125H1479.22C1479.36 3.51973 1479.39 9.25191 1479.36 14.7724Z" fill="#B48039"/>
<path d="M1480.02 0.333496H1478.23C1478.99 0.571675 1479.28 2.03251 1479.31 2.98522" fill="#B48039"/>
<path d="M1481.23 29.2167H1483.02C1482.25 28.9785 1481.97 27.5177 1481.94 26.5649" fill="#B48039"/>
<path d="M1480.02 29.2167H1478.23C1478.99 28.9785 1479.28 27.5177 1479.31 26.5649" fill="#B48039"/>
<path d="M1481.13 2.59355V0.333496H1483.84L1486.07 2.59355H1481.13Z" fill="#B48039"/>
<path d="M1483.84 0.333496C1488.64 0.333496 1492.47 2.08544 1492.47 7.56356C1492.47 13.6133 1488.8 15.2382 1484.43 15.2382L1484.15 12.9729C1488.2 12.9729 1489.96 11.6126 1489.96 7.83879C1489.96 4.06497 1487.88 2.59885 1484.51 2.59885L1483.84 0.333496Z" fill="#B48039"/>
<path d="M1480.86 29.2378V26.9778H1484.67L1485.22 29.2378H1480.86Z" fill="#B48039"/>
<path d="M1481.65 15.2329V12.9675H1484.36L1486.59 15.2329H1481.65Z" fill="#B48039"/>
<path d="M1484.36 12.9676C1489.16 12.9676 1493.38 15.4341 1493.38 20.9069C1493.38 26.9566 1489.32 29.2379 1484.94 29.2379L1484.67 26.9725C1488.72 26.9725 1490.87 24.9612 1490.87 21.1821C1490.87 17.403 1488.4 15.2276 1485.02 15.2276L1484.36 12.9623L1484.36 12.9676Z" fill="#B48039"/>
<path d="M1463.66 29.2272L1464.14 26.2632C1463.66 26.7395 1462.33 27.11 1461.3 27.1365" fill="#B48039"/>
<path d="M1454.71 29.2272V27.1524C1455.53 27.163 1456.52 27.1736 1457.67 27.1736C1461.65 27.1736 1463.66 27.0677 1463.66 27.0677V29.2325H1454.71L1454.71 29.2272Z" fill="#B48039"/>
<path d="M1455.47 0.333496H1457.27C1456.5 0.571675 1456.21 2.03251 1456.19 2.98522" fill="#B48039"/>
<path d="M1453.61 14.7724C1453.63 20.2928 1453.61 26.025 1453.46 29.2166C1453.46 29.2378 1456.27 29.2166 1456.27 29.2166C1456.12 26.025 1456.1 20.2928 1456.12 14.7724C1456.1 9.25192 1456.12 3.51974 1456.27 0.328135C1456.27 0.328135 1453.46 0.306964 1453.46 0.328135C1453.61 3.51974 1453.63 9.25192 1453.61 14.7724Z" fill="#B48039"/>
<path d="M1454.27 0.333496H1452.47C1453.24 0.571675 1453.52 2.03251 1453.55 2.98522" fill="#B48039"/>
<path d="M1454.27 29.2167H1452.47C1453.24 28.9785 1453.52 27.5177 1453.55 26.5649" fill="#B48039"/>
<path d="M1446.52 29.2167C1445.93 29.0367 1445.36 28.0946 1445.08 26.9196C1444.23 23.2463 1443.22 18.4933 1442.24 13.8462C1441.5 10.4323 1440.76 6.94959 1440.13 3.86913C1439.82 2.30774 1440.2 0.762219 1440.77 0.333496H1433.95C1434.52 0.762219 1434.9 2.31303 1434.58 3.87972C1433.97 6.84373 1433.22 10.3423 1432.46 13.8462C1431.48 18.4986 1430.46 23.2728 1429.61 26.9513C1429.33 28.1105 1428.76 29.042 1428.18 29.2167H1429.08V29.2273H1431.84V29.2167H1432.74C1432.38 28.9044 1432.05 28.2005 1432.29 26.8878C1432.61 25.2735 1432.98 23.4845 1433.37 21.6003H1441.32C1441.71 23.4528 1442.07 25.2153 1442.39 26.8084C1442.66 28.174 1442.32 28.8991 1441.96 29.222H1442.86V29.2326H1445.63V29.222H1446.52L1446.52 29.2167ZM1433.85 19.3349C1434.2 17.6994 1434.56 16.0269 1434.91 14.3702C1435.73 10.4482 1436.59 6.44676 1437.35 3.0805C1438.1 6.44676 1438.96 10.4482 1439.78 14.3702C1440.14 16.0269 1440.5 17.6994 1440.84 19.3349H1433.84H1433.85Z" fill="#B48039"/>
<path d="M1279.91 0.259399L1280.39 3.23399C1279.91 2.75764 1278.58 2.38713 1277.54 2.36067" fill="#B48039"/>
<path d="M1375.09 14.3331V12.0625H1361.71V14.3331H1375.09Z" fill="#B48039"/>
<path d="M1360.73 14.7407C1360.76 20.277 1360.73 26.0198 1360.59 29.222C1360.59 29.2432 1363.4 29.222 1363.4 29.222C1363.25 26.0198 1363.23 20.277 1363.25 14.7407C1363.23 9.20435 1363.25 3.46159 1363.4 0.259399H1360.59C1360.73 3.46159 1360.76 9.20435 1360.73 14.7407Z" fill="#B48039"/>
<path d="M1362.6 0.259399H1364.4C1363.63 0.497579 1363.35 1.9637 1363.32 2.92171" fill="#B48039"/>
<path d="M1361.39 0.259399H1359.59C1360.36 0.497579 1360.64 1.9637 1360.67 2.92171" fill="#B48039"/>
<path d="M1362.6 29.2166H1364.4C1363.63 28.9785 1363.35 27.5123 1363.32 26.5543" fill="#B48039"/>
<path d="M1361.39 29.2166H1359.59C1360.36 28.9785 1360.64 27.5123 1360.67 26.5543" fill="#B48039"/>
<path d="M1250.26 2.53004V0.259399H1254.75L1255.21 2.53004H1250.26Z" fill="#B48039"/>
<path d="M1255.21 29.2219V26.9513H1250.26V29.2219H1255.21Z" fill="#B48039"/>
<path d="M1249.27 14.7407C1249.3 20.277 1249.27 26.0198 1249.12 29.222H1251.94C1251.79 26.0198 1251.77 20.277 1251.79 14.7407C1251.77 9.20435 1251.79 3.46159 1251.94 0.259399H1249.12C1249.27 3.46159 1249.29 9.20435 1249.27 14.7407Z" fill="#B48039"/>
<path d="M1249.93 0.259399H1248.13C1248.9 0.497579 1249.19 1.9637 1249.21 2.92171" fill="#B48039"/>
<path d="M1295.84 0.259399H1294.33C1295.51 0.756929 1296.04 2.97464 1296.37 4.68424" fill="#B48039"/>
<path d="M1297.13 0.259399H1299.27C1298.48 0.645779 1298.47 2.06956 1298.86 4.2714" fill="#B48039"/>
<path d="M1310.26 0.259399H1312.41C1311.54 1.13272 1311.64 2.96935 1312.15 5.14472" fill="#B48039"/>
<path d="M1249.93 29.2166H1248.13C1248.9 28.9785 1249.19 27.5123 1249.21 26.5543" fill="#B48039"/>
<path d="M1373.63 14.7407C1373.66 20.277 1373.63 26.0198 1373.48 29.222C1373.48 29.2432 1376.3 29.222 1376.3 29.222C1376.15 26.0198 1376.13 20.277 1376.15 14.7407C1376.12 9.20435 1376.15 3.46159 1376.3 0.259399H1373.48C1373.63 3.46159 1373.65 9.20435 1373.63 14.7407Z" fill="#B48039"/>
<path d="M1375.5 0.259399H1377.3C1376.53 0.497579 1376.24 1.9637 1376.22 2.92171" fill="#B48039"/>
<path d="M1374.29 0.259399H1372.49C1373.25 0.497579 1373.54 1.9637 1373.57 2.92171" fill="#B48039"/>
<path d="M1375.5 29.2166H1377.3C1376.53 28.9785 1376.24 27.5123 1376.22 26.5543" fill="#B48039"/>
<path d="M1374.29 29.2166H1372.49C1373.25 28.9785 1373.54 27.5123 1373.57 26.5543" fill="#B48039"/>
<path d="M1332.13 14.7407C1332.15 20.2771 1332.13 26.0198 1331.98 29.222C1331.98 29.2432 1334.79 29.222 1334.79 29.222C1334.65 26.0198 1334.62 20.2771 1334.65 14.7407C1334.62 9.20436 1334.65 3.4616 1334.79 0.25941C1334.79 0.25941 1331.98 0.238238 1331.98 0.25941C1332.13 3.4616 1332.15 9.20436 1332.13 14.7407Z" fill="#B48039"/>
<path d="M1333.99 0.259399H1335.79C1335.03 0.497579 1334.74 1.9637 1334.71 2.92171" fill="#B48039"/>
<path d="M1332.78 0.259399H1330.98C1331.75 0.497579 1332.04 1.9637 1332.06 2.92171" fill="#B48039"/>
<path d="M1333.99 29.2166H1335.79C1335.03 28.9785 1334.74 27.5123 1334.71 26.5543" fill="#B48039"/>
<path d="M1332.78 29.2166H1330.98C1331.75 28.9785 1332.04 27.5123 1332.06 26.5543" fill="#B48039"/>
<path d="M1269.83 14.7407C1269.85 20.2771 1269.83 26.0198 1269.68 29.222C1269.68 29.2432 1272.5 29.222 1272.5 29.222C1272.35 26.0198 1272.33 20.2771 1272.35 14.7407C1272.32 9.20436 1272.35 3.4616 1272.5 0.25941C1272.5 0.25941 1269.68 0.238238 1269.68 0.25941C1269.83 3.4616 1269.85 9.20436 1269.83 14.7407Z" fill="#B48039"/>
<path d="M1270.48 0.259399H1268.68C1269.45 0.497579 1269.74 1.9637 1269.76 2.92171" fill="#B48039"/>
<path d="M1270.48 29.2166H1268.68C1269.45 28.9785 1269.74 27.5123 1269.76 26.5543" fill="#B48039"/>
<path d="M1301.23 29.2166H1299.43C1300.2 28.9785 1300.53 27.4912 1300.37 26.5543" fill="#B48039"/>
<path d="M1304.55 29.2167H1305.74C1305.22 28.7033 1305.09 27.8141 1305.31 26.9778" fill="#B48039"/>
<path d="M1340.4 2.42418V0.259399H1355.61V2.42418C1355.61 2.42418 1352 2.41889 1348.01 2.41889C1344.02 2.41889 1340.4 2.42418 1340.4 2.42418H1340.4Z" fill="#B48039"/>
<path d="M1355.61 0.322876L1356.1 3.29747C1355.61 2.82111 1354.29 2.42944 1353.25 2.42415" fill="#B48039"/>
<path d="M1340.39 0.259399L1339.91 3.23399C1340.39 2.75764 1341.32 2.42418 1342.36 2.42418" fill="#B48039"/>
<path d="M1346.54 14.7407C1346.57 20.2771 1346.54 26.0198 1346.39 29.222C1346.39 29.2432 1349.21 29.222 1349.21 29.222C1349.06 26.0198 1349.04 20.2771 1349.06 14.7407C1349.03 9.20436 1349.06 3.4616 1349.21 0.25941C1349.21 0.25941 1346.39 0.238238 1346.39 0.25941C1346.54 3.4616 1346.56 9.20436 1346.54 14.7407Z" fill="#B48039"/>
<path d="M1348.4 29.2166H1350.2C1349.44 28.9785 1349.15 27.5123 1349.12 26.5543" fill="#B48039"/>
<path d="M1347.2 29.2166H1345.4C1346.17 28.9785 1346.45 27.5123 1346.48 26.5543" fill="#B48039"/>
<path d="M1270.93 0.259399V2.34479C1271.76 2.33421 1272.74 2.32362 1273.9 2.32362C1277.9 2.32362 1279.91 2.42948 1279.91 2.42948V0.259399H1270.93Z" fill="#B48039"/>
<path d="M1280.31 29.2273L1280.79 26.2527C1280.31 26.729 1278.98 27.0995 1277.94 27.126" fill="#B48039"/>
<path d="M1271.34 29.2273V27.1472C1272.16 27.1578 1273.15 27.1684 1274.31 27.1684C1278.3 27.1684 1280.31 27.0625 1280.31 27.0625V29.2326H1271.34V29.2273Z" fill="#B48039"/>
<path d="M1275.85 14.1796L1278.7 15.0053V13.8356C1277.9 14.042 1276.85 14.1796 1275.85 14.1796Z" fill="#B48039"/>
<path d="M1275.85 16.4767C1276.71 16.4767 1277.84 16.6196 1278.7 16.8419V15.651L1275.85 16.4767Z" fill="#B48039"/>
<path d="M1270.54 14.1796V16.4714C1273.5 16.3867 1278.7 16.5296 1278.7 16.5296V14.1161C1278.7 14.1161 1273.5 14.259 1270.54 14.1743V14.1796Z" fill="#B48039"/>
<path d="M1254.52 2.53004C1258.11 2.53004 1260.56 5.20824 1260.56 14.7407H1263.09C1263.09 6.92313 1261.18 0.259399 1254.76 0.259399L1254.52 2.53004H1254.52Z" fill="#B48039"/>
<path d="M1255.21 26.9513C1257.51 26.9513 1260.56 24.2731 1260.56 14.7406H1263.09C1263.09 22.5582 1260.73 29.2219 1255.21 29.2219V26.9513H1255.21Z" fill="#B48039"/>
<path d="M1198.14 14.7512C1198.17 20.2875 1198.14 26.0303 1198 29.2325C1198 29.2537 1200.81 29.2325 1200.81 29.2325C1200.66 26.0303 1200.64 20.2875 1200.66 14.7512C1200.64 9.21486 1200.66 3.4721 1200.81 0.269908C1200.81 0.269908 1198 0.248736 1198 0.269908C1198.14 3.4721 1198.16 9.21486 1198.14 14.7512Z" fill="#B48039"/>
<path d="M1198.8 0.269897H1197C1197.77 0.508077 1198.05 1.9742 1198.08 2.93221" fill="#B48039"/>
<path d="M1200.01 29.2273H1201.81C1201.04 28.9891 1200.76 27.523 1200.73 26.5649" fill="#B48039"/>
<path d="M1198.8 29.2273H1197C1197.77 28.9891 1198.05 27.523 1198.08 26.5649" fill="#B48039"/>
<path d="M1219.99 14.7512C1219.96 20.2875 1219.99 26.0303 1220.14 29.2325C1220.14 29.2537 1217.32 29.2325 1217.32 29.2325C1217.47 26.0303 1217.49 20.2875 1217.47 14.7512C1217.5 9.21486 1217.47 3.4721 1217.32 0.269908C1217.32 0.269908 1220.14 0.248736 1220.14 0.269908C1219.99 3.4721 1219.97 9.21486 1219.99 14.7512Z" fill="#B48039"/>
<path d="M1219.33 0.269897H1221.13C1220.37 0.508077 1220.08 1.9742 1220.05 2.93221" fill="#B48039"/>
<path d="M1218.13 29.2273H1216.33C1217.1 28.9891 1217.38 27.523 1217.41 26.5649" fill="#B48039"/>
<path d="M1219.33 29.2273H1221.13C1220.37 28.9891 1220.08 27.523 1220.05 26.5649" fill="#B48039"/>
<path d="M1210.43 27.6606C1210 26.2897 1209.54 24.7972 1209.07 23.2305C1208.6 24.7972 1208.14 26.2897 1207.71 27.6606C1207.87 28.2058 1208.02 28.7298 1208.16 29.2379H1209.98C1210.12 28.7298 1210.27 28.2005 1210.42 27.6606H1210.43Z" fill="#B48039"/>
<path d="M1202.28 0.269897H1199.57C1200.82 4.29777 1202.35 9.43186 1203.82 14.4389C1205.21 19.049 1206.6 23.7703 1207.71 27.6605C1208.14 26.2897 1208.6 24.7971 1209.07 23.2304C1208.16 20.2293 1207.19 16.9477 1206.24 13.7191C1204.83 9.01902 1203.41 4.2025 1202.28 0.269897Z" fill="#B48039"/>
<path d="M1211.9 13.7191C1210.95 16.9477 1209.98 20.224 1209.07 23.2304C1209.54 24.7971 1210 26.2897 1210.43 27.6605C1211.53 23.7703 1212.93 19.049 1214.32 14.4389C1215.79 9.42657 1217.32 4.29777 1218.57 0.269897H1215.86C1214.74 4.2025 1213.31 9.02431 1211.9 13.7244L1211.9 13.7191Z" fill="#B48039"/>
<path d="M1242.41 29.222H1243.83C1243.24 29.0367 1242.65 28.0629 1242.37 26.8561" fill="#B48039"/>
<path d="M1226.34 29.2326H1229.11V29.222H1230.01C1229.65 28.9097 1229.33 28.2005 1229.57 26.8878C1229.89 25.2735 1230.26 23.4739 1230.65 21.5844H1238.63C1239.01 23.4422 1239.38 25.21 1239.7 26.8032C1239.96 28.174 1239.63 28.8991 1239.27 29.222H1240.17V29.2326H1242.94C1242.01 25.3952 1240.74 19.5149 1239.55 13.8092C1238.81 10.3847 1238.06 6.89666 1237.43 3.80562C1237.12 2.23893 1237.5 0.688122 1238.07 0.259399H1231.24C1231.8 0.688122 1232.19 2.24423 1231.87 3.81621C1231.26 6.7908 1230.5 10.2947 1229.74 13.8092C1228.76 18.4775 1227.74 23.2622 1226.88 26.9461C1226.6 28.1105 1226.03 29.0367 1225.45 29.2167H1226.35V29.2273L1226.34 29.2326ZM1232.2 14.3384C1233.02 10.4058 1233.88 6.39384 1234.64 3.01699C1235.4 6.38855 1236.25 10.4058 1237.08 14.3331C1237.44 15.9951 1237.8 17.6729 1238.15 19.3137H1231.13C1231.48 17.6729 1231.84 15.9951 1232.2 14.3384H1232.2Z" fill="#B48039"/>
<path d="M1322.33 0.259365C1321.56 4.44603 1320.51 9.80771 1319.46 15.0265C1318.72 18.8479 1317.95 22.7435 1317.24 26.1891C1316.31 22.463 1315.25 18.0752 1314.23 13.7721C1313.34 10.1041 1312.43 6.36205 1311.65 3.01695C1311.43 2.05894 1311.21 1.13798 1311.01 0.259365H1309.69C1309.48 1.11152 1309.25 2.00601 1309.01 2.94814C1308.08 6.59493 1306.97 10.8186 1305.86 14.9524C1304.86 18.7791 1303.84 22.68 1302.9 26.1098C1302.19 22.4047 1301.39 18.0805 1300.63 13.8409C1299.74 9.10375 1298.85 4.25019 1298.17 0.259365H1295.52C1296.32 4.319 1297.26 9.3684 1298.14 14.2961C1299.13 19.5783 1300.12 25.0035 1300.84 29.2167H1304.75C1305.75 25.2417 1307.03 20.3564 1308.31 15.5928C1308.97 13.0734 1309.64 10.5275 1310.28 8.09811C1310.78 10.1517 1311.29 12.2636 1311.79 14.3596C1313.07 19.6207 1314.37 25.03 1315.31 29.2114H1319.28C1320.02 25.1994 1320.99 20.2982 1321.95 15.5081C1323.01 10.0671 1324.12 4.47778 1325.03 0.248779H1322.35L1322.33 0.259365Z" fill="#B48039"/>
<path d="M1324.61 0.259399H1326.12C1324.94 0.756929 1324.46 2.86349 1324.08 4.68424" fill="#B48039"/>
<path d="M1323.4 0.259399H1321.26C1322.05 0.645779 1321.88 2.69412 1321.58 4.2714" fill="#B48039"/>
<path d="M1310.49 0.259399H1308.35C1309.11 0.97923 1309.01 2.94818 1308.44 5.14472" fill="#B48039"/>
<path d="M1318.88 29.2166H1320.68C1319.91 28.9785 1319.55 27.6552 1319.76 26.5543" fill="#B48039"/>
<path d="M1315.54 29.2167H1314.35C1314.87 28.7033 1315 27.8141 1314.78 26.9778" fill="#B48039"/>
</svg>
