<svg width="297" height="56" viewBox="0 0 297 56" fill="none" xmlns="http://www.w3.org/2000/svg">
<path d="M44.9717 55.5458H36.7923L36.8161 54.4936C36.8161 54.3621 37.0953 41.1079 37.0953 28.32C37.0953 15.5321 36.8161 9.21891 36.8161 9.15913L36.7686 8.08301H44.9955L44.9479 9.15913C44.9479 9.22489 44.6688 15.5561 44.6688 28.32C44.6688 41.084 44.9479 54.3621 44.9479 54.4936L44.9717 55.5458V55.5458Z" fill="#D8B053"/>
<path d="M217.915 55.9993L216.757 55.9634C207.764 55.4852 204.075 49.3035 204.075 34.9134V31.3682C204.081 18.5863 203.802 9.23599 203.802 9.14033L203.772 8.07617H211.969L211.934 9.14033C211.934 9.23001 211.654 17.9944 211.654 30.7703V34.2199C211.654 45.9017 213.727 48.042 217.802 48.0898C221.853 48.042 223.92 45.9017 223.92 34.3215V30.7703C223.92 17.9944 223.647 9.22403 223.647 9.14033L223.612 8.07617H231.809L231.779 9.14033C231.779 9.23001 231.5 18.5863 231.5 31.3682V34.8237C231.506 49.2377 227.853 55.4314 218.943 55.9575V55.9933H217.915V55.9993Z" fill="#D8B053"/>
<path d="M167.134 54.2122C166.237 51.217 163.909 43.3733 161.461 34.3279C164.164 31.53 165.53 27.7157 165.53 22.9748C165.53 17.5942 163.932 13.517 160.784 10.8506C158.147 8.62062 154.708 7.5445 150.282 7.61026C148.809 7.61026 146.766 7.75972 144.96 7.89723C143.713 7.99288 142.531 8.07658 141.966 8.07658H139.626L139.673 9.1527C139.673 9.21846 139.953 15.5377 139.953 28.3136C139.953 41.0895 139.673 54.3556 139.673 54.4872L139.65 55.5394H147.823L147.799 54.4872C147.799 54.4154 147.651 47.2891 147.568 38.5068C149.896 38.8536 152.213 38.7699 154.387 38.2497C156.347 45.8424 157.589 51.7849 158.171 54.7084L158.337 55.5394H167.532L167.134 54.2062V54.2122ZM150.389 31.0397C149.451 31.0397 148.477 30.9142 147.532 30.6751V28.3196C147.532 23.8118 147.562 19.6329 147.627 15.8844C148.578 15.729 149.676 15.5915 150.775 15.5915C156.923 15.5915 157.398 21.2411 157.398 22.9748C157.398 26.8847 154.939 31.0397 150.383 31.0397H150.389Z" fill="#D8B053"/>
<path d="M261.432 28.9896C263.695 26.2336 264.639 22.7601 264.105 19.0834C263.16 12.5729 258.075 8.28034 251.042 7.95751L250.169 7.93359C249.278 7.93359 247.93 7.97544 246.671 8.01729C245.578 8.05316 244.544 8.08305 243.938 8.08305H239.566L239.614 9.15917C239.614 9.22494 239.893 15.5561 239.893 28.3201C239.893 41.084 239.614 54.3621 239.614 54.4936L239.59 55.5458H245.316C246.243 55.5757 247.282 55.6714 248.286 55.767C249.528 55.8806 250.805 56.0002 251.898 56.0002C260.891 56.0002 267.669 49.6212 267.669 41.1617C267.669 36.0322 265.411 31.668 261.426 28.9956L261.432 28.9896ZM247.562 15.8371C248.257 15.7713 248.845 15.7295 249.926 15.7295C249.979 15.7295 255.402 15.7833 256.056 20.2671C256.27 21.7438 255.943 22.9096 255.028 23.9379C254.191 24.8825 252.492 26.1858 247.461 26.8972C247.467 22.9215 247.502 19.2149 247.562 15.8431V15.8371ZM251.904 47.8098C249.819 47.8098 248.732 47.6364 247.615 47.3434C247.562 43.9596 247.508 39.6611 247.484 35.0876C248.387 34.8067 249.89 34.448 251.91 34.448C256.691 34.448 259.543 36.9529 259.543 41.1498C259.543 45.3466 255.699 47.8098 251.91 47.8098H251.904Z" fill="#D8B053"/>
<path d="M295.557 55.5754L273.205 55.5097L273.228 54.4575C273.228 54.3259 273.543 41.0718 273.579 28.2839C273.614 15.5199 273.353 9.18278 273.353 9.12299L273.306 8.04688L294.505 8.10666L295.295 15.9922L294.036 15.8547C293.995 15.8547 290.145 15.4422 281.295 15.2748C281.23 18.3059 281.182 21.6239 281.164 25.1811C285.774 24.2664 291.096 24.0153 295.367 24.5414L296.181 24.643L296.988 32.7259L295.634 32.4628C291.274 31.6198 285.566 31.6378 281.14 32.4748C281.146 38.4891 281.206 44.2284 281.259 48.3296C291.185 48.2279 295.088 47.8334 295.123 47.8274L296.382 47.6959L295.551 55.5814L295.557 55.5754Z" fill="#D8B053"/>
<path d="M67.247 55.5461H59.0617L59.0855 54.4879C59.0855 54.3744 59.3647 42.9615 59.3647 30.1796C59.3647 23.8126 59.2934 18.7309 59.228 15.3352C54.9512 15.4308 51.6189 15.6281 51.5833 15.6281L50.3774 15.6999L51.1675 8.04747L63.6712 8.01758L75.1294 8.04747L75.9254 15.7118L74.7017 15.6221C74.6661 15.6221 71.5238 15.395 67.0688 15.3113C67.0035 18.707 66.9322 23.7947 66.9322 30.1737C66.9322 42.9556 67.2114 54.3684 67.2114 54.482L67.2352 55.5402L67.247 55.5461Z" fill="#D8B053"/>
<path d="M95.1055 55.546H86.9202L86.944 54.4878C86.944 54.3742 87.2231 42.9614 87.2231 30.1795C87.2231 23.8364 87.1519 18.7308 87.0865 15.3171C82.6315 15.4008 79.4893 15.628 79.4536 15.628L78.23 15.7177L79.0259 8.05333L90.4783 8.02344L102.988 8.05333L103.778 15.7057L102.572 15.634C102.536 15.634 99.1982 15.4367 94.9273 15.341C94.862 18.7368 94.7907 23.8185 94.7907 30.1855C94.7907 42.9674 95.0699 54.3802 95.0699 54.4938L95.0936 55.552L95.1055 55.546Z" fill="#D8B053"/>
<path d="M131.714 55.5754L109.361 55.5097L109.385 54.4575C109.385 54.3259 109.706 41.0718 109.736 28.2839C109.771 15.508 109.51 9.18278 109.504 9.12299L109.456 8.04688L130.656 8.10666L131.446 15.9922L130.187 15.8547C130.145 15.8547 126.296 15.4422 117.446 15.2748C117.38 18.3059 117.333 21.6239 117.315 25.1811C121.924 24.2664 127.247 24.0153 131.518 24.5414L132.331 24.643L133.145 32.7259L131.791 32.4628C127.425 31.6198 121.722 31.6318 117.297 32.4748C117.309 38.501 117.363 44.2343 117.416 48.3296C127.342 48.2279 131.244 47.8334 131.28 47.8274L132.539 47.6959L131.708 55.5814L131.714 55.5754Z" fill="#D8B053"/>
<path d="M198.966 48.2281C198.539 46.7276 198.057 45.0416 197.6 43.3737L197.232 42.0345C196.246 43.3976 195.099 44.6471 193.87 45.6634C192.866 46.5841 191.654 47.2776 190.46 47.6961C190.43 47.708 190.401 47.714 190.365 47.726C190.181 47.7857 190.003 47.8395 189.825 47.8874C189.694 47.9232 189.557 47.9531 189.427 47.983C189.272 48.0189 189.112 48.0488 188.963 48.0727C188.874 48.0847 188.779 48.0966 188.69 48.1086C188.464 48.1325 188.239 48.1504 188.025 48.1504C182.435 48.1504 178.96 42.1361 178.96 32.463C178.96 22.7899 183.635 15.556 187.835 15.556C190.531 15.556 192.783 16.8593 194.957 19.9203L195.367 19.8425L197.107 8.16666L195.895 8.19057C194.119 8.22644 192.925 8.10687 191.654 7.9873C190.43 7.86773 189.165 7.74219 187.312 7.74219C178.253 7.74219 171.161 18.599 171.161 32.463C171.161 46.327 177.665 56.0001 187.74 56.0001C192.652 56.0001 197.422 53.0946 199.269 51.2652L199.703 50.8347L198.966 48.2341V48.2281Z" fill="#D8B053"/>
<path d="M22.1681 22.2398C25.0965 19.2864 25.9103 16.1059 25.9103 13.2064C25.9103 5.79908 20.0237 0.185331 12.1592 0H11.1316C10.1455 0 8.80308 0.0657628 7.38342 0.143482C5.99346 0.215224 4.56192 0.292943 3.55212 0.292943H0.1782L0.21978 1.36308C0.21978 1.4408 0.51678 9.15298 0.51678 21.9528C0.51678 32.439 0.31482 46.1416 0.23166 51.5042L0 55.5755H9.06444C21.7642 55.5755 29.9732 48.0128 29.9732 36.3011C29.9732 30.6096 27.0805 25.4442 22.1681 22.2338V22.2398ZM8.51796 7.80784C9.4149 7.58663 10.4841 7.47304 11.7671 7.47304C14.654 7.47304 17.7725 9.66713 17.7725 13.2064C17.7725 16.1119 15.1767 18.9098 11.5711 18.9098C10.1871 18.9098 8.98128 19.0174 8.39916 19.0832C8.41104 15.1434 8.45262 11.359 8.5239 7.80784H8.51796ZM9.49212 47.7976C9.21294 47.7976 8.93376 47.7856 8.64864 47.7617C8.5833 44.1866 8.44074 35.4581 8.39916 26.6638C9.207 26.5383 10.098 26.4725 11.1197 26.4546C17.6299 26.6877 21.8354 30.5558 21.8354 36.313C21.8354 43.5051 17.2201 47.7976 9.49212 47.7976V47.7976Z" fill="#D8B053"/>
<path d="M38.8892 53.4832H42.8749C42.8096 50.0874 42.6135 39.0393 42.6135 28.3199C42.6135 18.4974 42.7799 12.4592 42.8571 10.1455H38.907C38.9842 12.4592 39.1505 18.4974 39.1505 28.3199C39.1505 39.0393 38.9545 50.0874 38.8892 53.4832V53.4832Z" fill="white"/>
<path d="M205.88 10.1455C205.952 12.9494 206.13 21.0442 206.13 31.369V34.8305C206.124 50.5836 210.739 53.8479 217.671 53.9316H217.897C224.829 53.8479 229.444 50.5836 229.444 34.9201V31.3749C229.438 21.0502 229.617 12.9554 229.688 10.1515H225.72C225.791 12.8657 225.969 20.542 225.969 30.7831V34.2745C225.969 44.3003 224.627 50.0934 217.796 50.1652C210.941 50.0934 209.605 44.3003 209.605 34.3283V30.7771C209.605 20.5301 209.777 12.8537 209.848 10.1455H205.88V10.1455Z" fill="white"/>
<path d="M275.307 53.4532L293.715 53.507L294.089 49.9797C292.159 50.1172 287.87 50.3444 280.267 50.3982H279.245L279.233 49.3818C279.174 45.0654 279.103 38.4831 279.103 31.6319V30.8009L279.905 30.6215C284.241 29.659 290.003 29.5095 294.683 30.203L294.315 26.4964C290.003 26.0839 284.746 26.4426 280.368 27.4589L279.103 27.7519V26.4486C279.132 21.9827 279.186 17.8575 279.275 14.1928L279.299 13.1705L280.315 13.1884C287.098 13.296 291.137 13.5411 293.008 13.6846L292.658 10.1573L275.45 10.1035C275.521 12.4172 275.669 18.4554 275.64 28.2839C275.61 39.0033 275.384 50.0514 275.313 53.4472L275.307 53.4532Z" fill="white"/>
<path d="M111.458 53.4532L129.872 53.507L130.246 49.9797C128.316 50.1172 124.027 50.3444 116.424 50.3982H115.402L115.39 49.3818C115.331 45.0714 115.26 38.4951 115.26 31.6319V30.8009L116.062 30.6215C120.398 29.659 126.16 29.5095 130.84 30.203L130.466 26.4964C126.154 26.0839 120.897 26.4426 116.525 27.4589L115.26 27.7519V26.4486C115.289 21.9827 115.343 17.8575 115.432 14.1928L115.456 13.1705L116.471 13.1884C123.255 13.296 127.294 13.5411 129.165 13.6846L128.815 10.1573L111.601 10.1035C111.672 12.4172 111.82 18.4554 111.791 28.2839C111.761 39.0033 111.535 50.0514 111.464 53.4472L111.458 53.4532Z" fill="white"/>
<path d="M187.312 9.80469C179.406 9.80469 173.216 19.7528 173.216 32.457C173.216 45.1612 178.919 53.9315 187.74 53.9315C191.5 53.9315 195.438 51.863 197.392 50.189L196.994 48.796C196.757 47.9591 196.501 47.0623 196.24 46.1416C194.101 48.7243 190.68 50.2129 188.019 50.2129C181.164 50.2129 176.905 43.4095 176.905 32.457C176.905 21.5045 181.806 13.4874 187.829 13.4874C190.329 13.4874 192.414 14.4978 193.899 15.7592L194.719 10.2531C193.436 10.2292 192.432 10.1335 191.452 10.0378C190.276 9.92426 189.064 9.80469 187.312 9.80469V9.80469Z" fill="white"/>
<path d="M19.9587 23.3158L18.6162 22.5745C18.9905 22.2995 19.9884 21.5103 20.8378 20.6554C22.9465 18.5331 23.8613 15.9384 23.8613 13.2063C23.8613 6.8572 18.6638 2.0625 11.7674 2.0625C9.51022 2.0625 6.83722 2.35544 3.5524 2.35544H2.305C2.38222 4.90226 2.56636 11.8492 2.56636 21.9528C2.56636 32.0563 2.3644 46.1714 2.28124 51.5819L2.17432 53.5129H9.06472C20.6952 53.5129 27.9183 46.9187 27.9183 36.301C27.9183 30.8367 25.0136 26.1018 19.9587 23.3099V23.3158ZM6.33826 20.2489C6.35014 15.5857 6.39766 11.1318 6.48082 7.00667L6.4927 6.28925L7.16392 6.05609C8.40538 5.61967 9.9082 5.41042 11.7615 5.41042C15.6403 5.41042 19.8221 8.39366 19.8221 13.2063C19.8221 17.5526 15.9967 20.9723 11.5714 20.9723C9.02314 20.9723 6.33826 21.4565 6.33826 21.4565V20.2549V20.2489ZM9.4924 49.8541C8.839 49.8541 8.1856 49.8003 7.48468 49.6867L6.63526 49.5552L6.61744 48.6883C6.56398 45.8366 6.38578 35.751 6.3442 25.7969V24.9599L7.15204 24.7865C8.31034 24.5354 9.57556 24.4099 11.1378 24.386C18.7826 24.661 23.8791 29.4497 23.8791 36.307C23.8791 44.6648 18.3668 49.8601 9.48646 49.8601L9.4924 49.8541Z" fill="white"/>
<path d="M61.164 53.4833H65.1438C65.0726 50.3566 64.8884 40.7373 64.8884 30.1793C64.8884 23.1009 64.9716 17.6067 65.0429 14.2468L65.0666 13.2245C67.0981 13.2245 72.1471 13.4158 73.638 13.4995L73.2876 10.1157L63.6767 10.0918L53.0262 10.1157L52.6758 13.5115C54.2024 13.4397 59.4117 13.2365 61.2472 13.2365L61.271 14.2647C61.3422 17.6246 61.4254 23.1128 61.4254 30.1853C61.4254 40.7432 61.2353 50.3625 61.17 53.4893L61.164 53.4833Z" fill="white"/>
<path d="M89.0229 53.495H93.0027C92.9315 50.3683 92.7473 40.749 92.7473 30.1911C92.7473 23.1126 92.8305 17.6184 92.9018 14.2585L92.9255 13.2362C94.957 13.2362 100.006 13.4275 101.497 13.5112L101.146 10.1274L91.5356 10.1035L80.8851 10.1274L80.5347 13.5232C82.0612 13.4514 87.2706 13.2482 89.1061 13.2482L89.1298 14.2765C89.2011 17.6363 89.2843 23.1245 89.2843 30.197C89.2843 40.755 89.0942 50.3742 89.0289 53.501L89.0229 53.495Z" fill="white"/>
<path d="M159.169 33.6882L159.62 33.2637C162.186 30.8365 163.487 27.3749 163.487 22.9748C163.487 18.2339 162.133 14.6887 159.471 12.4348C157.226 10.5397 154.226 9.6429 150.3 9.67877H150.294C148.886 9.67877 146.879 9.82823 145.114 9.95975C143.772 10.0614 142.614 10.1451 141.972 10.1451H141.77C141.847 12.4587 142.014 18.497 142.014 28.3195C142.014 39.0389 141.818 50.087 141.752 53.4828H145.738C145.691 51.0376 145.578 44.6347 145.518 37.2812L145.507 35.9958L146.754 36.2649C149.522 36.8567 152.314 36.773 154.826 36.0018L155.848 35.6909L156.121 36.7252C158.07 44.1803 159.359 50.1647 160.024 53.4828H164.776C163.665 49.7582 161.533 42.4765 159.329 34.292L159.169 33.6941V33.6882ZM150.395 33.1023C149.005 33.1023 147.556 32.8691 146.196 32.4327L145.489 32.2055V28.3195C145.483 23.4531 145.518 18.9693 145.596 14.9996L145.613 14.1566L146.433 14.0012C147.615 13.78 149.177 13.5289 150.775 13.5289C157.179 13.5289 159.454 18.6165 159.454 22.9748C159.454 27.8831 156.276 33.1023 150.389 33.1023H150.395Z" fill="white"/>
<path d="M259.34 30.1313L258.135 29.4677L259.109 28.4933C261.556 26.0421 262.584 22.8915 262.073 19.3821C261.247 13.6847 256.572 10.002 250.169 10.002H249.468C248.66 10.0139 247.668 10.0498 246.724 10.0797C245.601 10.1155 244.544 10.1454 243.926 10.1454H241.693C241.77 12.4591 241.936 18.4973 241.936 28.3199C241.936 39.0392 241.74 50.0874 241.675 53.4831H245.346C246.367 53.519 247.437 53.6146 248.476 53.7103C249.724 53.8239 250.906 53.9375 251.903 53.9375C259.721 53.9375 265.619 48.4433 265.619 41.1616C265.619 36.3489 263.326 32.3314 259.334 30.1373L259.34 30.1313ZM245.411 28.0628C245.411 23.2621 245.453 18.8261 245.53 14.8744L245.548 13.9477L247.104 13.8042C247.947 13.7205 248.613 13.6608 249.931 13.6608C252.438 13.6608 257.368 14.976 258.087 19.962C258.39 22.0306 257.873 23.8301 256.56 25.3067C254.773 27.3155 251.595 28.5172 246.552 29.0851L245.411 29.2166V28.0628V28.0628ZM251.909 49.8781C249.343 49.8781 248.108 49.645 246.32 49.1308L245.589 48.9216L245.577 48.1563C245.518 44.4856 245.459 39.5773 245.429 34.3641V33.6287L246.112 33.3836C247.3 32.9591 249.201 32.3972 251.909 32.3972C257.796 32.3972 261.598 35.8348 261.598 41.1616C261.598 46.8889 256.727 49.8841 251.909 49.8841V49.8781Z" fill="white"/>
</svg>
