<svg width="39" height="38" viewBox="0 0 39 38" fill="none" xmlns="http://www.w3.org/2000/svg">
<path d="M19.5192 6.61497e-05C30.3242 0.0282624 39.0656 8.57087 38.9999 19.0402C38.9341 29.5796 30.2348 38.0291 19.4797 38.0001C8.67462 37.971 -0.0641623 29.4284 -0.00013872 18.9599C0.0656389 8.42476 8.76758 -0.0272757 19.5192 6.61497e-05ZM13.9237 14.7843V18.9291H16.268V30.6272H21.2846V18.9172H24.6621C24.8094 17.5253 24.9515 16.1762 25.1015 14.7595H21.2785C21.2785 14.0862 21.2785 13.4753 21.2785 12.8635C21.2785 11.4033 21.4714 11.2145 22.9659 11.2145C23.6465 11.2145 24.3279 11.2145 24.9962 11.2145V7.20207C23.5281 7.20207 22.095 7.15337 20.6663 7.21318C18.4685 7.30631 16.8275 8.6529 16.4548 10.7642C16.2566 11.8895 16.3215 13.0583 16.2706 14.2076C16.2627 14.3853 16.2697 14.5639 16.2697 14.7834H13.9228L13.9237 14.7843Z" fill="#0B374D"/>
</svg>
