<svg width="40" height="40" viewBox="0 0 40 40" fill="none" xmlns="http://www.w3.org/2000/svg">
<g clip-path="url(#clip0_293_13323)">
<path d="M0 29.7079C0 23.2104 0 16.7128 0 10.2152C0.0650647 9.80702 0.10647 9.39298 0.198152 8.99076C1.21553 4.46876 3.95416 1.56747 8.42292 0.325323C9.00555 0.165619 9.61775 0.10647 10.2152 0C16.7128 0 23.2104 0 29.7079 0C29.8351 0.0236599 29.9593 0.0561922 30.0865 0.0680222C31.1778 0.189279 32.2455 0.428835 33.2362 0.899076C37.5246 2.92791 39.8373 6.32311 39.9024 11.0699C39.9852 16.9937 39.9261 22.9205 39.9201 28.8473C39.9201 31.1423 39.2991 33.2717 37.9652 35.1438C35.7028 38.3172 32.5885 39.9083 28.6906 39.9201C22.8702 39.9349 17.047 39.932 11.2266 39.9142C10.4784 39.9142 9.70943 39.8728 8.98189 39.7131C4.46285 38.7165 1.57043 35.966 0.328281 31.5031C0.165619 30.9176 0.10647 30.3054 0 29.7079ZM36.383 19.9689C36.383 17.0854 36.383 14.1989 36.383 11.3153C36.383 10.4015 36.2913 9.49945 35.9837 8.6329C34.8569 5.45952 32.1213 3.54603 28.6699 3.54307C22.8614 3.53715 17.0558 3.52532 11.2473 3.55786C10.3778 3.56377 9.46987 3.68207 8.64769 3.95712C5.45656 5.02773 3.54603 7.79593 3.54307 11.2444C3.5342 17.0529 3.54011 22.8584 3.54307 28.6669C3.54307 29.566 3.64362 30.4532 3.94824 31.3079C5.07505 34.4518 7.7841 36.3682 11.1941 36.3771C17.041 36.3919 22.888 36.3889 28.7349 36.3771C31.3523 36.3712 33.464 35.3242 35.0078 33.1978C35.9897 31.8492 36.386 30.3113 36.383 28.6551C36.38 25.7567 36.383 22.8614 36.383 19.963V19.9689Z" fill="#0B374D"/>
<path d="M30.2492 19.9659C30.2433 25.6206 25.5882 30.2668 19.9453 30.2491C14.2818 30.2313 9.64146 25.5733 9.67104 19.9363C9.70061 14.2786 14.3113 9.67975 19.9542 9.67383C25.603 9.66792 30.2522 14.32 30.2463 19.9659H30.2492ZM19.9542 26.7001C23.6629 26.7119 26.6914 23.6894 26.7002 19.9688C26.7091 16.2602 23.6895 13.2317 19.969 13.2228C16.2603 13.2139 13.2348 16.2306 13.223 19.9541C13.2141 23.6627 16.2307 26.6883 19.9542 26.7001Z" fill="#0B374D"/>
<path d="M30.7373 6.68383C32.1658 6.72524 33.3192 7.91711 33.2778 9.30417C33.2334 10.7681 32.0327 11.9008 30.5835 11.8506C29.1906 11.8032 28.0431 10.5995 28.0815 9.22727C28.1229 7.78106 29.3118 6.64243 30.7373 6.68088V6.68383Z" fill="#0B374D"/>
</g>
<defs>
<clipPath id="clip0_293_13323">
<rect width="40" height="40" fill="white"/>
</clipPath>
</defs>
</svg>
