<svg width="93" height="93" viewBox="0 0 93 93" fill="none" xmlns="http://www.w3.org/2000/svg">
<path d="M60.8165 44.7768L60.8103 44.6966C60.2769 38.4519 56.5024 31.831 52.8544 25.426C50.5417 21.3677 48.3584 17.5284 47.1003 13.9944H44.9016C43.6434 17.5284 41.4571 21.3677 39.1474 25.426C35.4994 31.831 31.7281 38.452 31.1915 44.712L31.1853 44.7799C31.136 45.3874 31.1113 45.8931 31.1113 46.368C31.1113 55.3326 37.7906 62.6258 46.0025 62.6258C54.2143 62.6258 60.8936 55.3326 60.8936 46.368C60.8936 45.8931 60.8689 45.3905 60.8196 44.7737L60.8165 44.7768ZM45.9994 60.5597C38.9316 60.5597 33.1805 54.1947 33.1805 46.3742C33.1805 45.9548 33.2021 45.5046 33.2422 44.9865L33.2514 44.8786C33.7479 39.0872 37.4051 32.6668 40.9421 26.456C42.8479 23.1101 44.6703 19.9122 45.9963 16.85C47.3223 19.9091 49.1447 23.1101 51.0505 26.456C54.5875 32.6668 58.2447 39.0872 58.7412 44.8786L58.7473 44.9526C58.7936 45.5046 58.8121 45.9579 58.8121 46.3742C58.8121 54.1978 53.061 60.5597 45.9932 60.5597H45.9994Z" fill="#D8B053"/>
<path d="M45.9994 2.82784L89.1711 46.0009L45.9994 89.174L2.82774 46.0009L45.9994 2.82784ZM45.9994 0L44.584 1.41546L1.41541 44.5886L0 46.004L1.41541 47.4195L44.5871 90.5926L46.0025 92.008L47.4179 90.5926L90.5895 47.4195L92.005 46.004L90.5895 44.5886L47.4148 1.41546L45.9994 0Z" fill="white"/>
<path d="M52.8603 39.6606H49.8691C49.6132 38.6399 49.4682 37.3077 49.4682 35.8737V34.6865C49.4682 32.6419 47.9141 30.9797 46.0022 30.9797C44.0903 30.9797 42.5361 32.6419 42.5361 34.6865V35.8737C42.5361 37.3077 42.3912 38.6399 42.1352 39.6606H39.144V48.0732H42.6348V71.5409C42.6348 73.0396 43.1898 74.3564 43.7264 75.6269C44.0194 76.3238 44.3246 77.0454 44.5374 77.7979L44.7502 78.5503H47.2541L47.4669 77.7979C47.6797 77.0454 47.985 76.3238 48.2779 75.6269C48.8145 74.3533 49.3696 73.0396 49.3696 71.5378V48.0701H52.8603V39.6575V39.6606ZM44.6053 35.8737V34.6865C44.6053 33.786 45.2312 33.052 45.9991 33.052C46.7669 33.052 47.3929 33.786 47.3929 34.6865V35.8737C47.3929 37.2645 47.5132 38.5628 47.7383 39.6606H44.2568C44.4819 38.5628 44.6022 37.2645 44.6022 35.8737H44.6053ZM47.2973 71.5409C47.2973 72.6202 46.8656 73.6409 46.3691 74.822C46.2458 75.1119 46.1224 75.4079 45.9991 75.7132C45.8788 75.411 45.7524 75.115 45.629 74.822C45.1295 73.6409 44.7009 72.6202 44.7009 71.5409V48.0732H47.2942V71.5409H47.2973ZM50.7881 46.004H41.2132V41.7329H50.7881V46.004Z" fill="white"/>
<path d="M75.6241 45.7142C75.6241 45.3843 75.6087 45.0451 75.5778 44.6719L75.5717 44.5979C75.2695 41.067 72.7809 36.8576 69.7157 33.3636C69.3704 34.0236 68.9633 34.7452 68.5563 35.4637C66.962 38.2638 65.155 41.0485 64.8435 44.5887L64.8373 44.675C64.8065 45.0543 64.7911 45.3843 64.7911 45.7142C64.7911 49.35 66.41 52.588 68.9263 54.7066C68.0351 57.63 66.4008 60.2266 64.1836 62.1632H67.2056C68.8677 60.1896 70.095 57.8243 70.8074 55.2432C73.7122 53.1616 75.6272 49.6707 75.6272 45.7142H75.6241ZM71.1188 46.0041H69.3395C69.7682 48.172 69.7836 50.3214 69.4598 52.366C67.8193 50.6082 66.8602 48.2183 66.8602 45.7142C66.8602 45.4398 66.8726 45.1622 66.9065 44.7706C67.147 42.0476 68.4638 39.7687 69.8576 37.3572L70.0272 37.0642C72.0624 39.8705 73.3267 42.6459 73.5148 44.8446C73.5395 45.1561 73.5549 45.4398 73.5549 45.7142C73.5549 47.9592 72.7748 50.1025 71.4364 51.7893C71.606 49.9082 71.5135 47.9592 71.1219 46.001L71.1188 46.0041Z" fill="white"/>
<path d="M27.8209 62.1632C25.6037 60.2266 23.9693 57.63 23.0781 54.7066C25.5944 52.588 27.2134 49.3501 27.2134 45.7143C27.2134 45.3843 27.198 45.0543 27.1671 44.675L27.161 44.5887C26.8495 41.0485 25.0425 38.2638 23.4482 35.4637C23.0411 34.7483 22.631 34.0236 22.2887 33.3606C19.2235 36.8545 16.735 41.067 16.4328 44.5979L16.4266 44.6719C16.3958 45.0451 16.3804 45.3874 16.3804 45.7143C16.3804 49.6708 18.2953 53.1616 21.2002 55.2432C21.9125 57.8243 23.1398 60.1896 24.8019 62.1632H27.8239H27.8209ZM18.4495 45.7143C18.4495 45.4398 18.4619 45.1561 18.4896 44.8446C18.6777 42.6459 19.9451 39.8674 21.9773 37.0642L22.1469 37.3572C23.5407 39.7687 24.8574 42.0476 25.098 44.7706C25.1319 45.1623 25.1442 45.4367 25.1442 45.7143C25.1442 48.2183 24.1821 50.6082 22.5447 52.366C22.2178 50.3215 22.2363 48.1721 22.6649 46.0041H20.8856C20.494 47.9624 20.4015 49.9082 20.5711 51.7924C19.2328 50.1056 18.4526 47.9593 18.4526 45.7174L18.4495 45.7143Z" fill="white"/>
</svg>
