<svg width="170" height="37" viewBox="0 0 170 37" fill="none" xmlns="http://www.w3.org/2000/svg">
<path d="M25.7425 36.6536H21.0605L21.0741 35.9763C21.0741 35.8916 21.2339 27.36 21.2339 19.1286C21.2339 10.8972 21.0741 6.83346 21.0741 6.79498L21.0469 6.10229H25.7561L25.7289 6.79498C25.7289 6.83731 25.5691 10.9126 25.5691 19.1286C25.5691 27.3446 25.7289 35.8916 25.7289 35.9763L25.7425 36.6536Z" fill="#D8B053"/>
<path d="M124.738 36.946L124.075 36.9229C118.927 36.615 116.815 32.6359 116.815 23.3732V21.0912C116.819 12.8636 116.659 6.84495 116.659 6.78338L116.642 6.09839H121.334L121.314 6.78338C121.314 6.8411 121.154 12.4826 121.154 20.7063V22.9268C121.154 30.4463 122.34 31.8239 124.673 31.8547C126.992 31.8239 128.175 30.4463 128.175 22.9922V20.7063C128.175 12.4826 128.019 6.83725 128.019 6.78338L127.998 6.09839H132.69L132.673 6.78338C132.673 6.8411 132.514 12.8636 132.514 21.0912V23.3155C132.517 32.5936 130.426 36.5804 125.326 36.919V36.9421H124.738V36.946Z" fill="#D8B053"/>
<path d="M95.6696 35.7953C95.1562 33.8674 93.8233 28.8185 92.4225 22.996C93.9695 21.1951 94.7516 18.7399 94.7516 15.6882C94.7516 12.2248 93.8369 9.60029 92.0349 7.88397C90.5252 6.44857 88.5565 5.75588 86.0234 5.79821C85.1802 5.79821 84.0105 5.89442 82.9769 5.98293C82.2629 6.0445 81.5862 6.09838 81.2632 6.09838H79.9236L79.9508 6.79106C79.9508 6.83339 80.1106 10.901 80.1106 19.1247C80.1106 27.3484 79.9508 35.8877 79.9508 35.9723L79.9372 36.6496H84.6158L84.6022 35.9723C84.6022 35.9262 84.5172 31.3391 84.4696 25.686C85.8024 25.9092 87.1285 25.8553 88.3729 25.5205C89.495 30.4078 90.2056 34.2329 90.5388 36.1147L90.634 36.6496H95.8974L95.6696 35.7915V35.7953ZM86.0846 20.8795C85.5474 20.8795 84.9898 20.7987 84.4492 20.6448V19.1286C84.4492 16.227 84.4662 13.537 84.5036 11.1242C85.0476 11.0241 85.6766 10.9356 86.3056 10.9356C89.8248 10.9356 90.0968 14.5722 90.0968 15.6882C90.0968 18.205 88.6891 20.8795 86.0812 20.8795H86.0846Z" fill="#D8B053"/>
<path d="M149.647 19.5596C150.942 17.7856 151.483 15.5498 151.177 13.1831C150.636 8.99235 147.726 6.2293 143.7 6.0215L143.2 6.0061C142.69 6.0061 141.918 6.03304 141.198 6.05998C140.572 6.08307 139.98 6.10231 139.634 6.10231H137.131L137.158 6.79499C137.158 6.83733 137.318 10.9126 137.318 19.1286C137.318 27.3447 137.158 35.8916 137.158 35.9763L137.145 36.6536H140.422C140.953 36.6728 141.548 36.7344 142.123 36.796C142.833 36.8691 143.564 36.946 144.19 36.946C149.338 36.946 153.217 32.84 153.217 27.3947C153.217 24.0929 151.925 21.2837 149.644 19.5635L149.647 19.5596ZM141.708 11.0935C142.105 11.0512 142.442 11.0242 143.061 11.0242C143.092 11.0242 146.196 11.0589 146.57 13.945C146.692 14.8956 146.505 15.646 145.982 16.3079C145.502 16.9159 144.53 17.7548 141.65 18.2128C141.653 15.6537 141.674 13.2678 141.708 11.0973V11.0935ZM144.193 31.6739C143 31.6739 142.378 31.5623 141.738 31.3738C141.708 29.1957 141.677 26.4288 141.663 23.4849C142.18 23.304 143.041 23.0731 144.197 23.0731C146.934 23.0731 148.566 24.6855 148.566 27.387C148.566 30.0885 146.366 31.6739 144.197 31.6739H144.193Z" fill="#D8B053"/>
<path d="M169.181 36.6727L156.386 36.6304L156.4 35.9531C156.4 35.8684 156.58 27.3368 156.6 19.1054C156.621 10.8894 156.471 6.81027 156.471 6.77179L156.444 6.0791L168.579 6.11758L169.031 11.1934L168.31 11.1049C168.286 11.1049 166.083 10.8394 161.017 10.7316C160.98 12.6827 160.952 14.8185 160.942 17.1082C163.581 16.5194 166.627 16.3578 169.072 16.6964L169.538 16.7618L170 21.9647L169.225 21.7954C166.729 21.2528 163.462 21.2643 160.929 21.8031C160.932 25.6744 160.966 29.3687 160.997 32.0086C166.678 31.9432 168.912 31.6892 168.932 31.6854L169.653 31.6007L169.177 36.6765L169.181 36.6727Z" fill="#D8B053"/>
<path d="M38.4931 36.6534H33.8077L33.8213 35.9723C33.8213 35.8992 33.9811 28.5528 33.9811 20.3253C33.9811 16.2269 33.9403 12.9559 33.9029 10.7701C31.4548 10.8316 29.5473 10.9586 29.5269 10.9586L28.8367 11.0048L29.2889 6.07906L36.4462 6.05981L43.005 6.07906L43.4607 11.0125L42.7602 10.9548C42.7398 10.9548 40.9412 10.8086 38.3911 10.7547C38.3537 12.9405 38.3129 16.2153 38.3129 20.3214C38.3129 28.549 38.4727 35.8953 38.4727 35.9684L38.4863 36.6496L38.4931 36.6534Z" fill="#D8B053"/>
<path d="M54.4396 36.6535H49.7542L49.7678 35.9723C49.7678 35.8992 49.9276 28.5529 49.9276 20.3253C49.9276 16.2423 49.8868 12.9559 49.8494 10.7586C47.2993 10.8125 45.5006 10.9587 45.4802 10.9587L44.7798 11.0164L45.2354 6.08296L51.7909 6.06372L58.9516 6.08296L59.4038 11.0087L58.7135 10.9625C58.6931 10.9625 56.7823 10.8356 54.3376 10.774C54.3002 12.9598 54.2594 16.2308 54.2594 20.3292C54.2594 28.5567 54.4192 35.9031 54.4192 35.9762L54.4328 36.6573L54.4396 36.6535Z" fill="#D8B053"/>
<path d="M75.3946 36.6727L62.5999 36.6304L62.6135 35.9531C62.6135 35.8684 62.7971 27.3368 62.8141 19.1054C62.8345 10.8817 62.6849 6.81027 62.6815 6.77179L62.6543 6.0791L74.7893 6.11758L75.2416 11.1934L74.5207 11.1049C74.4969 11.1049 72.2936 10.8394 67.2274 10.7316C67.19 12.6827 67.1628 14.8185 67.1526 17.1082C69.7911 16.5194 72.8377 16.3578 75.2824 16.6964L75.7482 16.7618L76.214 21.9647L75.4388 21.7954C72.9397 21.2528 69.6755 21.2605 67.1424 21.8031C67.1492 25.6821 67.1798 29.3726 67.2104 32.0086C72.8921 31.9432 75.126 31.6892 75.1464 31.6854L75.8672 31.6007L75.3912 36.6765L75.3946 36.6727Z" fill="#D8B053"/>
<path d="M113.891 31.9432C113.646 30.9773 113.371 29.8921 113.109 28.8184L112.898 27.9564C112.334 28.8338 111.677 29.6381 110.974 30.2923C110.399 30.8849 109.705 31.3313 109.022 31.6007C109.005 31.6084 108.988 31.6122 108.967 31.6199C108.862 31.6584 108.76 31.693 108.658 31.7238C108.583 31.7469 108.505 31.7662 108.43 31.7854C108.342 31.8085 108.25 31.8277 108.165 31.8431C108.114 31.8508 108.06 31.8585 108.009 31.8662C107.879 31.8816 107.75 31.8931 107.628 31.8931C104.428 31.8931 102.439 28.0218 102.439 21.7953C102.439 15.5689 105.115 10.9125 107.519 10.9125C109.063 10.9125 110.351 11.7514 111.596 13.7217L111.83 13.6717L112.827 6.15604L112.133 6.17143C111.116 6.19452 110.433 6.11756 109.705 6.04059C109.005 5.96363 108.281 5.88281 107.22 5.88281C102.035 5.88281 97.9749 12.8712 97.9749 21.7953C97.9749 30.7194 101.698 36.9459 107.465 36.9459C110.277 36.9459 113.007 35.0756 114.064 33.8981L114.313 33.621L113.891 31.947V31.9432Z" fill="#D8B053"/>
<path d="M12.6893 15.2149C14.3656 13.3139 14.8314 11.2666 14.8314 9.4002C14.8314 4.63222 11.4619 1.01871 6.96008 0.899414H6.37186C5.80743 0.899414 5.039 0.941745 4.22637 0.991772C3.43074 1.03795 2.6113 1.08798 2.03328 1.08798H0.102004L0.125805 1.77682C0.125805 1.82684 0.295812 6.79109 0.295812 15.0302C0.295812 21.78 0.180207 30.6002 0.132605 34.0521L0 36.6728H5.18861C12.4581 36.6728 17.1571 31.8047 17.1571 24.266C17.1571 20.6025 15.5012 17.2776 12.6893 15.2111V15.2149ZM4.8758 5.92523C5.38922 5.78284 6.00124 5.70973 6.73567 5.70973C8.38814 5.70973 10.1732 7.12204 10.1732 9.4002C10.1732 11.2704 8.68735 13.0714 6.62347 13.0714C5.83123 13.0714 5.14101 13.1407 4.80779 13.183C4.81459 10.647 4.83839 8.21109 4.8792 5.92523H4.8758ZM5.43342 31.6662C5.27361 31.6662 5.11381 31.6585 4.9506 31.6431C4.9132 29.3418 4.83159 23.7234 4.80779 18.0626C5.27021 17.9818 5.78023 17.9395 6.36506 17.9279C10.0916 18.078 12.4989 20.5678 12.4989 24.2737C12.4989 28.9031 9.857 31.6662 5.43342 31.6662Z" fill="#D8B053"/>
<path d="M22.3015 35.3261H24.583C24.5456 33.1403 24.4334 26.0288 24.4334 19.1289C24.4334 12.8062 24.5286 8.91945 24.5728 7.43018H22.3117C22.3559 8.91945 22.4511 12.8062 22.4511 19.1289C22.4511 26.0288 22.3389 33.1403 22.3015 35.3261Z" fill="white"/>
<path d="M117.889 7.43018C117.93 9.23501 118.032 14.4455 118.032 21.0915V23.3196C118.029 33.4597 120.671 35.5609 124.639 35.6148H124.768C128.736 35.5609 131.378 33.4597 131.378 23.3773V21.0953C131.374 14.4494 131.476 9.23885 131.517 7.43402H129.246C129.287 9.18113 129.389 14.1223 129.389 20.7143V22.9617C129.389 29.4152 128.62 33.1442 124.71 33.1904C120.786 33.1442 120.021 29.4152 120.021 22.9964V20.7105C120.021 14.1146 120.12 9.17343 120.161 7.43018H117.889Z" fill="white"/>
<path d="M157.627 35.3067L168.164 35.3414L168.378 33.0709C167.273 33.1594 164.818 33.3057 160.466 33.3403H159.881L159.874 32.6861C159.84 29.9076 159.8 25.6707 159.8 21.2606V20.7257L160.259 20.6103C162.741 19.9907 166.039 19.8945 168.718 20.3409L168.507 17.955C166.039 17.6895 163.03 17.9203 160.524 18.5745L159.8 18.7631V17.9242C159.817 15.0496 159.847 12.3943 159.898 10.0353L159.912 9.37723L160.493 9.38877C164.376 9.45804 166.688 9.61582 167.759 9.70818L167.559 7.43771L157.709 7.40308C157.749 8.89235 157.834 12.7791 157.817 19.1056C157.8 26.0055 157.671 33.1171 157.63 35.3029L157.627 35.3067Z" fill="white"/>
<path d="M63.8411 35.3067L74.3815 35.3414L74.5957 33.0709C73.4906 33.1594 71.0358 33.3057 66.6836 33.3403H66.0988L66.092 32.6861C66.058 29.9115 66.0171 25.6784 66.0171 21.2606V20.7257L66.4762 20.6103C68.9583 19.9907 72.2564 19.8945 74.9357 20.3409L74.7215 17.955C72.253 17.6895 69.2439 17.9203 66.7414 18.5745L66.0171 18.7631V17.9242C66.0342 15.0496 66.0648 12.3943 66.1158 10.0353L66.1294 9.37723L66.7108 9.38877C70.5937 9.45804 72.9058 9.61582 73.9769 9.70818L73.7763 7.43771L63.9227 7.40308C63.9635 8.89235 64.0485 12.7791 64.0315 19.1056C64.0145 26.0055 63.8853 33.1171 63.8445 35.3029L63.8411 35.3067Z" fill="white"/>
<path d="M107.261 7.21069C102.735 7.21069 99.1921 13.6142 99.1921 21.7917C99.1921 29.9692 102.456 35.6146 107.505 35.6146C109.658 35.6146 111.912 34.2831 113.031 33.2056L112.803 32.309C112.667 31.7702 112.521 31.193 112.371 30.6004C111.147 32.2628 109.189 33.221 107.665 33.221C103.742 33.221 101.304 28.8417 101.304 21.7917C101.304 14.7417 104.109 9.58122 107.556 9.58122C108.988 9.58122 110.181 10.2316 111.031 11.0436L111.501 7.49931C110.766 7.48392 110.192 7.42235 109.631 7.36078C108.957 7.28766 108.264 7.21069 107.261 7.21069Z" fill="white"/>
<path d="M11.4654 15.9076L10.697 15.4304C10.9112 15.2534 11.4824 14.7454 11.9686 14.1951C13.1757 12.829 13.6993 11.1588 13.6993 9.40019C13.6993 5.31335 10.7242 2.22705 6.77662 2.22705C5.48457 2.22705 3.95451 2.41562 2.07423 2.41562H1.3602C1.40441 4.05497 1.50981 8.52664 1.50981 15.0302C1.50981 21.5337 1.3942 30.6194 1.3466 34.1021L1.2854 35.3451H5.22956C11.887 35.3451 16.0216 31.1005 16.0216 24.266C16.0216 20.7487 14.3589 17.7009 11.4654 15.9037V15.9076ZM3.6689 13.9334C3.6757 10.9318 3.7029 8.06485 3.7505 5.40955L3.7573 4.94776L4.14151 4.79768C4.85214 4.51676 5.71238 4.38207 6.77322 4.38207C8.99351 4.38207 11.3872 6.30235 11.3872 9.40019C11.3872 12.1979 9.19752 14.3991 6.66442 14.3991C5.20576 14.3991 3.6689 14.7108 3.6689 14.7108V13.9373V13.9334ZM5.47437 32.99C5.10035 32.99 4.72634 32.9553 4.32512 32.8822L3.8389 32.7976L3.8287 32.2396C3.7981 30.4039 3.6961 23.9119 3.6723 17.5046V16.9659L4.13471 16.8543C4.79774 16.6926 5.52197 16.6118 6.41621 16.5964C10.7922 16.7734 13.7095 19.8559 13.7095 24.2698C13.7095 29.6497 10.5542 32.9938 5.47097 32.9938L5.47437 32.99Z" fill="white"/>
<path d="M35.0519 35.3261H37.33C37.2892 33.3135 37.1838 27.1216 37.1838 20.3256C37.1838 15.7693 37.2314 12.2328 37.2722 10.07L37.2858 9.41199C38.4486 9.41199 41.3388 9.53514 42.1922 9.58901L41.9916 7.4109L36.4902 7.39551L30.3937 7.4109L30.1931 9.59671C31.067 9.55053 34.0489 9.41969 35.0995 9.41969L35.1131 10.0816C35.1539 12.2443 35.2015 15.777 35.2015 20.3295C35.2015 27.1255 35.0927 33.3173 35.0553 35.33L35.0519 35.3261Z" fill="white"/>
<path d="M50.9987 35.3337H53.2768C53.236 33.321 53.1306 27.1292 53.1306 20.3332C53.1306 15.7769 53.1782 12.2403 53.219 10.0776L53.2326 9.41956C54.3954 9.41956 57.2855 9.5427 58.139 9.59658L57.9384 7.41847L52.4369 7.40308L46.3405 7.41847L46.1399 9.60428C47.0137 9.5581 49.9956 9.42726 51.0463 9.42726L51.0599 10.0892C51.1007 12.2519 51.1483 15.7846 51.1483 20.337C51.1483 27.1331 51.0395 33.3249 51.0021 35.3375L50.9987 35.3337Z" fill="white"/>
<path d="M91.1511 22.5844L91.4095 22.3112C92.8784 20.7488 93.623 18.5206 93.623 15.6883C93.623 12.6367 92.8478 10.3547 91.3245 8.90386C90.0392 7.68396 88.3222 7.10673 86.0747 7.12982H86.0713C85.2654 7.12982 84.1162 7.22602 83.1064 7.31068C82.3379 7.3761 81.6749 7.42998 81.3077 7.42998H81.1921C81.2363 8.91925 81.3315 12.806 81.3315 19.1287C81.3315 26.0286 81.2193 33.1401 81.1819 35.326H83.4634C83.4362 33.752 83.3716 29.6305 83.3376 24.8972L83.3308 24.0698L84.0448 24.243C85.6293 24.624 87.2273 24.5701 88.6656 24.0737L89.2504 23.8736L89.4068 24.5393C90.5221 29.3381 91.2599 33.1902 91.6407 35.326H94.3608C93.725 32.9285 92.5043 28.2413 91.2429 22.9731L91.1511 22.5882V22.5844ZM86.1291 22.2073C85.3335 22.2073 84.5038 22.0572 83.7252 21.7763L83.3206 21.63V19.1287C83.3172 15.9962 83.3376 13.11 83.3818 10.5548L83.392 10.0122L83.8612 9.9121C84.5378 9.76972 85.4321 9.60809 86.3467 9.60809C90.012 9.60809 91.3143 12.883 91.3143 15.6883C91.3143 18.8477 89.4952 22.2073 86.1257 22.2073H86.1291Z" fill="white"/>
<path d="M148.491 20.295L147.8 19.8678L148.358 19.2405C149.759 17.6627 150.347 15.6347 150.055 13.3758C149.582 9.70841 146.906 7.33789 143.241 7.33789H142.84C142.377 7.34559 141.809 7.36868 141.269 7.38792C140.626 7.41101 140.021 7.43025 139.667 7.43025H138.389C138.433 8.91952 138.528 12.8063 138.528 19.1289C138.528 26.0288 138.416 33.1404 138.379 35.3262H140.48C141.065 35.3493 141.677 35.4109 142.272 35.4725C142.986 35.5456 143.662 35.6187 144.234 35.6187C148.708 35.6187 152.085 32.0821 152.085 27.395C152.085 24.2971 150.772 21.7111 148.487 20.2988L148.491 20.295ZM140.517 18.9635C140.517 15.8733 140.541 13.0179 140.585 10.4742L140.596 9.87774L141.486 9.78538C141.969 9.7315 142.35 9.69302 143.105 9.69302C144.54 9.69302 147.362 10.5396 147.773 13.7491C147.947 15.0806 147.651 16.2389 146.899 17.1894C145.876 18.4824 144.057 19.2559 141.17 19.6215L140.517 19.7062V18.9635ZM144.237 33.0057C142.768 33.0057 142.061 32.8556 141.038 32.5247L140.619 32.39L140.613 31.8974C140.579 29.5346 140.545 26.3752 140.528 23.0195V22.5462L140.919 22.3884C141.599 22.1152 142.687 21.7534 144.237 21.7534C147.607 21.7534 149.783 23.9662 149.783 27.395C149.783 31.0816 146.995 33.0096 144.237 33.0096V33.0057Z" fill="white"/>
</svg>
