<?xml version="1.0" encoding="utf-8"?>
<!-- Generator: Adobe Illustrator 25.4.1, SVG Export Plug-In . SVG Version: 6.00 Build 0)  -->
<svg version="1.1" id="Layer_1" xmlns="http://www.w3.org/2000/svg" xmlns:xlink="http://www.w3.org/1999/xlink" x="0px" y="0px"
	 viewBox="0 0 624.59784 189.30678" style="enable-background:new 0 0 624.59784 189.30678;" xml:space="preserve">
<style type="text/css">
	.st0{fill:#EFEDE5;}
	.st1{fill:#B48039;}
	.st2{fill:#AD8246;}
	.st3{fill:none;stroke:#B48039;stroke-width:0.99892;stroke-miterlimit:10;}
	.st4{fill:#00FFFF;}
</style>
<path class="st1" d="M358.25854,177.35406c-0.08478-1.39926,0.98801-4.49704,1.3201-5.32716
	c1.22885-3.07188,2.1825-6.23486,3.11426-9.40421c0.7901-2.68752,1.53839-5.38736,2.31384-8.07924
	c0.20163-0.69984,0.41406-1.39803,0.65851-2.0838c1.10971-3.11311,2.22977-6.22252,3.35172-9.33127
	c0.77869-2.15776,1.53354-4.32501,2.36215-6.46355c0.5256-1.35649,1.1647-2.66913,1.75797-3.99916
	c0.15961-0.35777,0.39337-0.69167,0.49783-1.06331c0.51785-1.84264,1.36353-3.55424,2.07428-5.31973
	c0.05582-0.13867,0.03943-0.3064,0.06772-0.56049c-0.21149,0.12222-0.38193,0.16556-0.46182,0.27499
	c-2.04666,2.80383-4.74231,4.8915-7.55176,6.8521c-0.27103,0.1891-0.57742,0.34015-0.88641,0.45972
	c-0.78235,0.30269-1.56393,0.61699-2.36755,0.85251c-0.85648,0.25102-1.73123,0.45506-2.61038,0.60918
	c-0.84836,0.14876-1.64252,0.00909-2.40265-0.49452c-0.49857-0.33031-1.12897-0.4639-1.70374-0.67625
	c-0.41882-0.15474-0.88629-0.224-1.25812-0.45195c-2.31302-1.41789-4.40802-3.07951-5.81808-5.46321
	c-0.34241-0.57885-0.66422-1.17023-1.0173-1.74238c-1.1373-1.84296-1.61115-3.9306-2.19473-5.97404
	c-0.2298-0.8047-0.30899-1.65125-0.50714-2.4665c-0.2569-1.05687-0.24103-2.12019-0.0867-3.17451
	c0.28384-1.93927,0.62607-3.87003,0.94769-5.80373c0.02744-0.16521,0.07333-0.32888,0.12619-0.4881
	c0.7941-2.39168,1.47446-4.82093,2.38889-7.1729c0.71024-1.82684,1.38965-3.66579,2.1109-5.4882
	c0.26721-0.67518,0.62552-1.31375,0.92355-1.97743c1.00955-2.24777,2.01089-4.49921,3.01468-6.74958
	c0.06848-0.15347,0.11459-0.31925,0.19916-0.4628c1.08371-1.84016,1.83655-3.83853,2.74567-5.76169
	c0.52591-1.11252,0.94232-2.2766,1.41373-3.41512c0.36432-0.87973,0.72009-1.76363,1.11206-2.63103
	c0.33524-0.74192,0.4505-1.48165,0.25485-2.28695c-0.20663-0.85044-0.68506-1.41933-1.54315-1.58121
	c-1.20987-0.22826-2.42419-0.47768-3.64795-0.57409c-1.11038-0.08749-2.22943-0.24481-3.35376-0.092
	c-0.27133,0.03686-0.56808,0.01321-0.83374-0.05654c-1.29904-0.34113-2.55933-0.05349-3.82657,0.18793
	c-0.4054,0.07721-0.73581,0.24618-0.97055,0.59579c-0.15601,0.23233-0.34708,0.44167-0.49612,0.67794
	c-1.1937,1.89231-2.38474,3.78632-3.56589,5.68647c-0.14627,0.23536-0.26047,0.5008-0.33746,0.76734
	c-0.39709,1.37479-1.15466,2.54729-2.03839,3.64479c-0.74469,0.92477-1.29596,1.94705-1.77539,3.03232
	c-0.47205,1.06866-1.10687,2.06419-1.61777,3.11726c-0.58835,1.21272-1.26691,2.36883-1.9783,3.51128
	c-0.35294,0.56685-0.66544,1.17107-0.9057,1.79336c-0.46841,1.21314-1.11682,2.3156-1.84366,3.38622
	c-0.43851,0.64585-0.85153,1.31931-1.18671,2.0229c-0.82211,1.7259-1.77582,3.36427-2.92828,4.89249
	c-0.33212,0.4404-0.59515,0.94923-0.80661,1.46108c-0.49426,1.19654-1.10599,2.32007-1.8027,3.41217
	c-0.78152,1.22497-1.46664,2.51125-2.19968,3.76738c-0.25323,0.434-0.5195,0.86066-0.7894,1.28457
	c-0.15012,0.2358-0.3493,0.44392-0.47607,0.69037c-0.61255,1.19074-1.20505,2.3765-2.06265,3.43729
	c-0.84158,1.04095-1.50391,2.22691-2.24329,3.35026c-0.36969,0.56161-0.76849,1.1073-1.09558,1.69287
	c-0.44003,0.78782-0.97549,1.47979-1.58249,2.15411c-0.73993,0.82205-1.43896,1.6927-1.95621,2.70918
	c-0.42557,0.83626-1.09747,1.5387-1.80655,2.17554c-0.99744,0.89581-2.03912,1.74695-2.98505,2.69394
	c-0.77261,0.77345-1.64606,1.33493-2.65305,1.71591c-0.62845,0.23778-1.25806,0.47308-1.89291,0.69287
	c-0.3161,0.10947-0.6402,0.22862-0.96909,0.26315c-2.53275,0.26605-4.79083-0.31584-6.55499-2.25989
	c-1.14264-1.25911-1.84631-2.79953-2.61441-4.29323c-0.09985-0.19422-0.13892-0.42699-0.17203-0.64703
	c-0.41843-2.78109-0.60944-5.56145-0.11301-8.36028c0.25433-1.43365,0.5036-2.87948,0.58603-4.32944
	c0.09958-1.75163,0.46552-3.42487,0.96652-5.09393c0.25595-0.85259,0.34302-1.75717,0.4838-2.64184
	c0.02341-0.14723-0.06921-0.31293-0.1077-0.46798c-0.1377,0.01801-0.2836-0.00739-0.34323,0.05273
	c-0.23431,0.23621-0.48825,0.47257-0.65079,0.75694c-0.86203,1.50784-1.88245,2.91193-2.83374,4.36053
	c-1.10614,1.68421-2.25211,3.34282-3.40579,4.99503c-1.47363,2.1104-2.97241,4.20325-4.46036,6.30366
	c-0.03238,0.04574-0.05945,0.09709-0.09879,0.13586c-1.47583,1.45403-2.66458,3.16581-4.14438,4.61617
	c-0.32022,0.31389-0.65814,0.61206-0.9567,0.94539c-1.58551,1.77017-3.54617,3.06833-5.48526,4.39607
	c-0.51657,0.35374-1.07178,0.58038-1.68124,0.73036c-1.08945,0.26805-2.16647,0.55586-3.3053,0.5435
	c-1.396-0.01515-2.6608-0.37744-3.72937-1.29668c-1.14539-0.98538-2.29794-1.96475-3.4024-2.99486
	c-1.35928-1.26778-2.17148-2.83508-2.34717-4.70499c-0.09952-1.05855-0.19171-2.11781-0.28308-3.17709
	c-0.01923-0.22315,0.00534-0.45253-0.03424-0.6711c-0.27307-1.50625-0.13467-3.00446-0.01163-4.5164
	c0.19653-2.41375,0.6571-4.76884,1.29953-7.09615c0.49203-1.78239,0.9429-3.57693,1.47519-5.34711
	c0.35425-1.17803,0.82016-2.32249,1.23499-3.48234c0.24527-0.68549,0.48212-1.37405,0.73386-2.05714
	c0.6586-1.78682,1.32675-3.57015,1.9837-5.35759c0.25095-0.68284,0.46924-1.37782,0.72482-2.05886
	c0.39343-1.04815,0.73691-2.12278,1.22589-3.12556c0.86444-1.77279,1.45712-3.64314,2.07358-5.50172
	c0.39066-1.17777,0.8652-2.31053,1.43839-3.39835c1.09918-2.08616,1.93384-4.28641,2.8653-6.44489
	c0.15424-0.35739,0.2551-0.7421,0.34351-1.1228c0.25674-1.10497,0.73956-2.11119,1.30106-3.08613
	c0.27957-0.48533,0.58286-0.95959,0.8262-1.46265c0.92996-1.92249,2.07443-3.70776,3.34689-5.41957
	c0.46674-0.62798,0.84283-1.32309,1.26627-1.98375c0.18106-0.28258,0.35602-0.57367,0.57285-0.82748
	c0.22702-0.26565,0.54715-0.42899,0.89923-0.34682c1.10303,0.25739,2.14911,0.65306,2.98224,1.46042
	c0.3512,0.34031,0.47702,0.75354,0.23633,1.22116c-0.30716,0.59673-0.57767,1.2169-0.93451,1.78247
	c-0.60226,0.95457-1.11295,1.94303-1.42212,3.03181c-0.07642,0.26921-0.15479,0.54218-0.27219,0.7948
	c-0.87347,1.87932-1.72974,3.76738-2.6463,5.62564c-0.69214,1.40326-1.3266,2.83479-2.01959,4.23334
	c-1.22104,2.46416-1.99536,5.11349-3.25949,7.55437c-0.17847,0.34466-0.25827,0.73942-0.39597,1.10644
	c-0.47177,1.25784-0.85886,2.55769-1.4462,3.75947c-0.7944,1.6256-1.32327,3.3299-1.80682,5.05576
	c-0.18222,0.65054-0.3829,1.28584-0.7023,1.88203c-0.61252,1.14351-0.96915,2.38225-1.34427,3.61471
	c-0.47281,1.55327-0.95438,3.10387-1.43353,4.65521c-0.38132,1.23447-0.68298,2.48375-0.78897,3.77737
	c-0.04562,0.55719-0.15579,1.10885-0.22888,1.66407c-0.05115,0.38853-0.12531,0.7787-0.12653,1.16834
	c-0.00519,1.68048,0.03992,3.36144,0.01431,5.04145c-0.02441,1.59681,0.50275,2.9829,1.54599,4.15153
	c0.8187,0.91707,1.70267,1.78087,2.60733,2.61442c0.61935,0.57058,1.39343,0.6989,2.20255,0.41797
	c0.42184-0.14648,0.87659-0.26141,1.23859-0.50598c1.47812-0.99863,3.13293-1.76847,4.26569-3.22801
	c0.13385-0.17245,0.33752-0.29257,0.51468-0.42932c1.20309-0.92868,2.20151-2.05266,3.22244-3.17497
	c2.00317-2.20211,3.71677-4.63051,5.61304-6.91417c0.63919-0.76974,1.10599-1.6806,1.67776-2.50886
	c0.98581-1.42804,2.01199-2.82761,2.81833-4.37304c0.2049-0.39262,0.49847-0.74496,0.78467-1.088
	c1.05005-1.25819,1.85699-2.65941,2.53226-4.14725c0.34665-0.76382,0.72784-1.51427,1.13431-2.24809
	c0.97702-1.76382,1.98883-3.50835,2.96573-5.27224c0.62399-1.12674,1.22949-2.26477,1.80649-3.41616
	c0.2998-0.59823,0.55844-1.22375,0.76675-1.85954c0.31519-0.96185,0.71347-1.88079,1.1629-2.78718
	c1.59229-3.21114,3.16113-6.43372,4.51492-9.75612c0.3381-0.82983,0.75089-1.62894,1.10352-2.4532
	c0.32977-0.77086,0.65735-1.54553,0.9263-2.33872c0.2373-0.69993,0.54001-1.34128,1.03046-1.90409
	c0.5141-0.58994,0.93539-1.24848,1.36575-1.90566c0.57776-0.88222,1.29947-1.67512,2.0051-2.46553
	c0.20578-0.23054,0.5542-0.36077,0.86154-0.46603c0.31436-0.10767,0.65668-0.14326,0.98996-0.18435
	c1.45047-0.17877,2.60272,1.18409,2.15543,2.59817c-0.28656,0.90593-0.6207,1.80476-1.02448,2.66404
	c-1.00034,2.12917-2.06015,4.23031-3.08237,6.34933c-0.85135,1.76488-1.69635,3.53306-2.5159,5.3128
	c-0.25592,0.55579-0.4003,1.16178-0.62961,1.73116c-0.6889,1.71063-1.31857,3.45097-2.11496,5.11079
	c-0.78424,1.63449-1.27808,3.34717-1.71072,5.08562c-0.23129,0.92928-0.50305,1.83584-0.91678,2.699
	c-0.3439,0.71745-0.58237,1.45844-0.48672,2.26982c0.0611,0.5181-0.08408,0.9911-0.26682,1.46983
	c-0.56012,1.46751-0.99149,2.96664-1.26413,4.52242c-0.25095,1.43214-0.59811,2.85439-1.00998,4.24936
	c-0.38406,1.30077-0.62683,2.6087-0.67609,3.95926c-0.01019,0.27831-0.04138,0.55816-0.09064,0.83231
	c-0.34625,1.927-0.68137,3.85629-1.06091,5.7768c-0.13345,0.67513-0.16785,1.32615-0.00705,1.99506
	c0.065,0.2704,0.08752,0.55436,0.10049,0.83347c0.0892,1.92177,1.0018,3.52848,1.95441,5.11862
	c0.11371,0.1899,0.28201,0.34695,0.42365,0.52035c0.51633,0.63209,1.14481,0.8121,1.94589,0.59515
	c1.53491-0.41569,2.97867-0.97782,4.13242-2.12971c0.31552-0.31506,0.69095-0.56919,1.0213-0.87055
	c0.62158-0.56705,1.2189-1.15135,1.59851-1.92746c0.67307-1.37604,1.60464-2.55875,2.75824-3.56676
	c0.68167-0.5957,1.22052-1.28736,1.65109-2.09768c0.36441-0.68584,0.90155-1.27908,1.35306-1.91972
	c0.54791-0.77734,1.09924-1.55281,1.62543-2.3448c0.6814-1.02571,1.35583-2.05688,2.00159-3.10517
	c0.41055-0.66647,0.78622-1.35701,1.1376-2.05681c0.65414-1.30278,1.28827-2.6139,2.13419-3.81008
	c0.22498-0.31812,0.41312-0.6693,0.57248-1.0257c0.73386-1.64116,1.68036-3.15978,2.63635-4.67545
	c0.44788-0.71015,0.93192-1.41627,1.24823-2.18638c0.51459-1.25288,1.24173-2.38051,1.88245-3.55949
	c0.29388-0.54082,0.60083-1.07926,0.83667-1.64593c0.69144-1.66138,1.60941-3.20359,2.45361-4.78509
	c0.50024-0.93722,0.97464-1.88821,1.46744-2.82948c0.36349-0.69426,0.73602-1.3838,1.10822-2.07346
	c0.18628-0.34521,0.41284-0.67223,0.56638-1.03094c1.07938-2.5222,2.14023-5.05234,3.21722-7.57558
	c0.26361-0.61765,0.49869-1.26257,0.86273-1.81918c0.79694-1.21842,1.32697-2.5899,2.22845-3.75016
	c0.33661-0.43326,0.52731-0.98539,0.75543-1.49633c0.43027-0.96386,1.1759-1.4635,2.21021-1.56075
	c0.22308-0.02099,0.44785-0.0425,0.6713-0.03777c1.40414,0.02974,2.79745-0.08031,4.18677-0.28041
	c1.6207-0.23345,3.23505-0.11502,4.85181,0.08926c0.77612,0.09809,1.56476,0.10432,2.34836,0.13498
	c1.40231,0.05487,2.79398,0.166,4.15408,0.55193c0.37302,0.10589,0.77344,0.11528,1.16116,0.16963
	c0.90262,0.1265,1.73376,0.42442,2.47308,0.97553c0.44855,0.33435,0.93573,0.61678,1.38586,0.94917
	c0.26749,0.19748,0.57797,0.40236,0.72952,0.68011c0.76364,1.3991,1.3295,2.85403,0.7695,4.48114
	c-0.25497,0.74081-0.54251,1.47147-0.84195,2.19567c-0.51379,1.24265-1.03458,2.4828-1.57996,3.71175
	c-0.29446,0.66369-0.64999,1.30012-0.97089,1.95229c-0.4693,0.95377-0.93674,1.90846-1.39566,2.86724
	c-0.19336,0.40405-0.34854,0.82656-0.54581,1.22856c-1.20911,2.46427-2.45685,4.91019-3.62775,7.39243
	c-0.73987,1.5686-1.36688,3.19037-2.04822,4.78673c-0.15375,0.36034-0.31766,0.71665-0.48584,1.07059
	c-0.50513,1.06318-0.90973,2.15997-1.28439,3.27882c-0.56769,1.69538-1.28226,3.34153-1.93115,5.00986
	c-0.12106,0.31126-0.27289,0.62009-0.33179,0.94434c-0.25,1.37669-0.4491,2.76273-0.70966,4.13725
	c-0.14807,0.78126-0.15875,1.55016-0.08154,2.33781c0.23105,2.35674,0.68723,4.65088,1.71292,6.80767
	c0.38489,0.80926,0.70316,1.65052,1.09537,2.45593c0.74268,1.525,1.64493,2.92991,3.10858,3.88511
	c0.23285,0.15197,0.42645,0.36278,0.64648,0.53586c1.40591,1.106,2.90823,1.11497,4.25751-0.06212
	c0.47974-0.41856,0.98026-0.63686,1.52362-0.40708c1.17047,0.49494,2.06476,0.00323,2.94388-0.66209
	c0.22333-0.16899,0.41544-0.3948,0.66046-0.51723c2.29559-1.14689,3.64087-3.27724,5.29611-5.08651
	c0.80505-1.49206,1.99921-2.69321,3.00604-4.03457c0.9462-1.26057,1.56216-2.71475,2.30316-4.09576
	c1.005-1.87302,2.03903-3.73044,3.06381-5.5928c0.24268-0.44102,0.58673-0.84748,0.73251-1.31693
	c0.63736-2.05204,1.72931-3.88023,2.78296-5.72105c0.78192-1.36612,1.48737-2.76859,2.01508-4.23871
	c0.59128-1.64734,1.40701-3.17102,2.22702-4.70083c0.15851-0.29579,0.38342-0.57822,0.45493-0.89457
	c0.30078-1.33153,0.95926-2.50272,1.55933-3.70473c0.24924-0.49925,0.42017-1.03793,0.62177-1.56057
	c0.50381-1.30609,0.99878-2.61213,1.61938-3.87354c0.49274-1.00154,0.89532-2.05823,1.22931-3.12446
	c0.47131-1.50459,1.09647-2.92545,1.88907-4.28638c0.42108-0.72311,0.74286-1.50425,1.10599-2.26084
	c0.41177-0.85794,0.8046-1.72543,1.23743-2.57253c0.15009-0.2937,0.37592-0.55633,0.60016-0.80322
	c1.01855-1.12128,1.97821-2.28731,2.80487-3.55959c0.15231-0.23437,0.31302-0.46692,0.49722-0.67624
	c0.44727-0.50828,0.97729-0.67611,1.6593-0.4747c1.12836,0.33318,2.04193,0.90446,2.56305,1.99996
	c0.19943,0.41923,0.27887,0.84392,0.13528,1.30186c-0.23389,0.74585-0.40088,1.50547-0.79337,2.20541
	c-0.46472,0.82875-0.86032,1.70045-1.23181,2.57646c-0.94199,2.22135-2.08054,4.34273-3.2135,6.46828
	c-0.31494,0.59086-0.59003,1.20301-0.88113,1.80647c-0.19406,0.40227-0.34961,0.82782-0.58331,1.20525
	c-0.45099,0.72835-0.72305,1.51231-0.86194,2.35007l-0.02115-0.02087c1.15909-0.61018,2.0235-1.58189,2.97348-2.44479
	c1.16037-1.05404,2.36359-2.07486,3.41702-3.22974c2.0527-2.25031,4.55115-3.96286,6.85849-5.9057
	c0.29965-0.2523,0.58411-0.5228,0.87332-0.78733c0.74503-0.6814,1.52155-1.3131,2.38351-1.85343
	c0.70752-0.44352,1.37021-0.97524,1.99231-1.53505c1.5657-1.40887,3.40921-2.3447,5.30057-3.20327
	c0.7421-0.3369,1.54089-0.28514,2.31897-0.17656c2.08191,0.2905,3.97977,1.00523,5.7504,2.19685
	c1.3425,0.90348,2.39023,2.00357,3.24133,3.33947c0.66235,1.03957,1.34198,2.06861,1.98016,3.12277
	c0.25882,0.42754,0.46371,0.89656,0.63187,1.36857c0.81482,2.28706,1.19568,4.65575,1.28857,7.0766
	c0.04507,1.17561,0.14349,2.35036,0.14972,3.52587c0.00381,0.72149-0.08005,1.45045-0.1973,2.16409
	c-0.20868,1.26977-0.47083,2.5308-0.71429,3.79478c-0.08481,0.44026-0.14584,0.88911-0.27725,1.3157
	c-0.64322,2.08804-1.27301,4.18122-1.97412,6.25004c-0.48517,1.43152-1.10144,2.81809-1.61517,4.24063
	c-0.32587,0.90234-0.76538,1.73719-1.24799,2.56032c-0.48105,0.82042-0.91138,1.67044-1.3692,2.50455
	c-0.75433,1.37428-1.51721,2.7439-2.26746,4.12041c-0.26755,0.49094-0.55826,0.978-0.75043,1.49928
	c-0.27737,0.75237-0.68192,1.40617-1.22461,1.98777c-0.61682,0.66104-1.10449,1.4104-1.47522,2.23505
	c-0.19574,0.43536,0.01871,0.7802,0.52084,0.78601c0.44568,0.00516,0.90121,0.00682,1.33615-0.07568
	c1.10052-0.20878,2.20224-0.42721,3.28296-0.71802c0.64178-0.1727,1.25961-0.45885,1.86185-0.74874
	c1.11047-0.53447,2.21292-1.08834,3.29642-1.67528c0.63708-0.34512,1.30142-0.69203,1.8317-1.17259
	c1.66434-1.50828,3.48599-2.81447,5.24341-4.20245c0.71027-0.56094,1.32687-1.19741,1.88916-1.90088
	c0.48837-0.61099,0.99576-1.20844,1.52145-1.78763c2.04297-2.25093,3.89178-4.62441,5.02374-7.4912
	c0.47321-1.19843,1.04755-2.35638,1.81644-3.40288c0.96753-1.31684,1.58499-2.82961,2.38104-4.24241
	c0.10992-0.19508,0.17844-0.41894,0.31229-0.59424c1.39496-1.82694,2.50894-3.83047,3.66287-5.80853
	c0.62598-1.07308,1.44434-1.99178,2.27362-2.90351c0.26385-0.29012,0.57166-0.54798,0.79541-0.86563
	c1.62015-2.30019,3.59866-4.29411,5.48459-6.36138c1.13354-1.24254,2.28867-2.45518,3.24487-3.84364
	c0.48843-0.70921,1.19327-1.18212,1.89859-1.63704c0.98868-0.63766,2.00363-1.23454,3.00775-1.84824
	c0.09561-0.05845,0.18921-0.12341,0.2915-0.16729c1.8056-0.7742,3.65363-1.41624,5.59018-1.77881
	c0.10953-0.02049,0.22406-0.03364,0.33466-0.02613c2.0658,0.14061,4.13571,0.23367,6.11047,0.97401
	c1.68399,0.63136,3.255,1.48959,4.83749,2.3258c0.74506,0.39368,1.41833,0.89011,1.98828,1.52562
	c0.33582,0.37447,0.70584,0.72299,1.08945,1.04907c1.76288,1.49866,2.82587,3.45026,3.63516,5.56827
	c0.48172,1.26078,0.87286,2.54315,0.95361,3.90437c0.01974,0.33326,0.13223,0.66006,0.16843,0.99348
	c0.13852,1.27654,0.39716,2.54263,0.18347,3.84411c-0.08969,0.54627-0.02451,1.11832-0.02615,1.67867
	c-0.00406,1.35377-0.24744,2.66378-0.62686,3.96322c-0.26602,0.91096-0.4823,1.84794-0.59793,2.78839
	c-0.13806,1.12275-0.40863,2.20786-0.7746,3.26318c-0.53314,1.53737-0.85025,3.13631-1.36411,4.67231
	c-0.97583,2.91692-1.85889,5.87678-3.40332,8.57209c-0.16302,0.28449-0.23343,0.62489-0.32755,0.94498
	c-0.05948,0.20231,0.1777,0.47626,0.37903,0.45019c0.89093-0.11531,1.75385-0.30128,2.55978-0.74219
	c1.17868-0.64482,2.39215-1.22569,3.57883-1.85632c1.04089-0.55317,2.04138-1.1721,2.89297-2.00187
	c0.7215-0.703,1.42157-1.42955,2.16782-2.10516c0.66354-0.60072,1.35205-1.1806,2.07458-1.70797
	c1.37195-1.0014,2.4892-2.23956,3.57507-3.53317c0.89734-1.06898,1.88635-2.07098,2.91174-3.01936
	c0.91003-0.8416,1.71436-1.76447,2.51459-2.7028c1.16211-1.36265,2.36548-2.69012,3.55493-4.02935
	c0.1109-0.12491,0.24121-0.2355,0.37415-0.33752c1.48364-1.1385,2.60437-2.6078,3.74402-4.06474
	c0.82733-1.05764,1.73157-2.05568,2.54669-3.12216c1.52948-2.00104,3.12335-3.95049,4.54309-6.03969
	c0.97168-1.42979,2.15881-2.71448,3.26678-4.0498c0.71484-0.86147,1.4599-1.69786,2.1936-2.54361
	c0.10962-0.12632,0.22369-0.25072,0.34857-0.3615c0.83716-0.74278,1.68353-1.47533,2.51617-2.22313
	c1.59943-1.43641,3.3797-2.57422,5.39691-3.33553c0.83801-0.31627,1.64966-0.70942,2.50043-0.98331
	c1.44238-0.46437,2.92218-0.76183,4.4516-0.71871c1.98981,0.54926,4.06512,0.89566,5.67145,2.36118
	c0.2038,0.18592,0.39435,0.3959,0.55029,0.62273c0.35443,0.51542,0.33258,0.91382-0.0614,1.37222
	c-0.21875,0.25453-0.45123,0.49973-0.6972,0.7279c-0.98535,0.91413-1.95172,1.85168-2.97925,2.71622
	c-0.56049,0.47156-1.05432,0.97954-1.53809,1.52784c-0.63184,0.7161-1.40393,1.29949-2.49133,1.09004
	c-0.20862-0.04018-0.46448-0.01798-0.65607,0.06906c-0.7511,0.34115-1.51514,0.32874-2.30658,0.20539
	c-0.44574-0.06948-0.76068,0.15954-0.87671,0.59824c-0.09961,0.37676-0.18158,0.76549-0.20721,1.15318
	c-0.07745,1.17194-0.14801,2.34535-0.17676,3.51928c-0.04968,2.03078,0.24835,4.01694,0.80743,5.97055
	c0.84741,2.96096,1.69409,5.92252,2.49451,8.89635c0.59772,2.2208,0.89215,4.50391,1.2594,6.77074
	c0.01788,0.11049,0.03589,0.22311,0.03375,0.33435c-0.05151,2.68588,0.02557,5.37627-0.44989,8.04194
	c-0.3244,1.81889-0.58337,3.64999-0.84137,5.4799c-0.09515,0.67496-0.23895,1.32135-0.5813,1.91511
	c-0.05591,0.09695-0.11176,0.19588-0.15131,0.30011c-0.41724,1.09893-0.8103,2.2076-1.25183,3.29659
	c-0.4386,1.08162-1.2063,2.01472-1.49304,3.24003c0.18353,0.01678,0.35645,0.08499,0.48016,0.03398
	c0.36035-0.14854,0.69818-0.35071,1.05029-0.52061c0.29968-0.14458,0.59479-0.32726,0.91309-0.39866
	c0.73724-0.1654,1.33142-0.53453,1.88428-1.04057c0.99475-0.91054,2.08612-1.69112,3.29584-2.30632
	c0.80115-0.40744,1.52734-0.93138,2.17743-1.56288c1.00623-0.97738,2.09418-1.85698,3.25012-2.65437
	c0.31982-0.22061,0.6347-0.47139,0.88574-0.76488c1.27881-1.49509,2.73334-2.79308,4.27289-4.01372
	c0.65198-0.51688,1.1886-1.18424,1.75226-1.80621c0.75171-0.82951,1.46021-1.69873,2.22388-2.51669
	c0.39496-0.4231,0.6405-0.8826,0.81055-1.43728c0.60657-1.97855,1.30896-3.91633,2.17694-5.80752
	c0.70062-1.52659,1.64447-2.92408,2.22241-4.5184c0.33777-0.93158,0.93762-1.77808,1.4812-2.6232
	c1.33478-2.07529,2.91345-3.97025,4.49988-5.85188c0.82678-0.98069,1.78412-1.8513,2.68176-2.77235
	c0.19531-0.20042,0.4024-0.39171,0.57849-0.60805c0.95721-1.17629,2.15222-2.11403,3.19806-3.19548
	c1.44696-1.49621,2.99243-2.85671,4.67273-4.07623c0.5874-0.42636,1.13171-0.91229,1.72046-1.33662
	c2.04395-1.47302,4.16241-2.85079,6.13342-4.41489c2.48401-1.97123,5.328-2.7719,8.40143-3.01675
	c1.07153-0.08536,2.12341,0.00272,3.16602,0.27844c0.5946,0.15723,1.20203,0.30746,1.81189,0.35509
	c0.74237,0.05798,1.27454,0.39678,1.66779,0.98554c0.34058,0.50991,0.67133,1.02958,0.96082,1.56937
	c0.21484,0.40041,0.31067,0.84883,0.12817,1.2987c-0.20581,0.5074-0.09631,0.98838,0.08099,1.47124
	c0.09662,0.26292,0.15881,0.54108,0.27832,0.79253c1.1604,2.44218,1.03308,5.04932,0.76038,7.60085
	c-0.23108,2.16269-0.84546,4.2856-1.63251,6.33535c-0.90417,2.35474-1.82977,4.70012-3.05487,6.91298
	c-0.13513,0.24419-0.24762,0.51024-0.42487,0.72036c-1.19,1.41065-2.4057,2.79341-3.80127,4.01585
	c-1.05157,0.92117-2.05493,1.90332-3.01849,2.91663c-0.46936,0.49361-0.99536,0.89372-1.51782,1.31496
	c-2.34552,1.89101-5.13153,2.95103-7.83173,4.17031c-0.40027,0.18072-0.85681,0.2662-1.29669,0.32384
	c-1.06586,0.13956-2.07642,0.43029-3.05481,0.88123c-0.91241,0.42058-1.84753,0.79781-2.79236,1.13966
	c-0.46558,0.16843-0.97205,0.26717-1.46661,0.30033c-0.51648,0.03464-0.95569-0.48031-0.88525-1.00672
	c0.04279-0.31962,0.13361-0.6789,0.32642-0.92257c0.37714-0.47664,0.80627-0.89198,1.38812-1.18184
	c1.70178-0.84778,3.36017-1.7822,5.04578-2.6632c0.34338-0.17949,0.72644-0.28935,1.09943-0.40462
	c0.93292-0.28823,1.74042-0.74321,2.34021-1.54753c0.29962-0.4018,0.6369-0.79916,1.03094-1.10265
	c1.35278-1.04182,2.33063-2.40818,3.35559-3.73818c0.34088-0.44232,0.7196-0.85588,1.05359-1.30309
	c0.87537-1.17227,1.59113-2.41928,2.04987-3.83031c0.60559-1.86288,1.38599-3.6628,1.82825-5.58686
	c0.50647-2.20348,0.74133-4.41649,0.58691-6.6679c-0.11426-1.66537-0.96832-3.07825-1.68481-4.51744
	c-0.33301-0.66885-1.06329-0.95953-1.85535-0.96121c-0.98279-0.00208-1.86115,0.18747-2.60474,0.92982
	c-0.58954,0.58857-1.29059,1.06805-1.95813,1.57494c-0.53522,0.40639-1.10443,0.76798-1.64069,1.173
	c-0.85236,0.64371-1.61816,1.36934-2.23419,2.25845c-0.31409,0.45341-0.70807,0.87299-1.13623,1.22154
	c-1.00519,0.81834-1.8833,1.73739-2.65375,2.7835c-0.46106,0.62595-1.07825,1.13506-1.6059,1.71436
	c-0.3382,0.37135-0.70483,0.73923-0.94653,1.17142c-0.49542,0.88607-1.06378,1.70609-1.74744,2.45666
	c-0.21918,0.24057-0.39056,0.5569-0.48962,0.86852c-0.31085,0.97749-0.84375,1.82749-1.41956,2.65927
	c-0.63885,0.92283-1.21313,1.86809-1.51923,2.97394c-0.20789,0.75104-0.56732,1.46118-0.87189,2.1842
	c-0.89417,2.12306-1.19287,4.42767-2.0108,6.57362c-0.2876,1.93566-0.66394,3.86354-0.83472,5.80945
	c-0.13666,1.55714-0.07812,3.13885-0.0022,4.70457c0.05121,1.05569,0.35498,2.09811,0.42047,3.15426
	c0.1554,2.5052,1.2644,4.61724,2.59814,6.64865c0.52258,0.79591,1.06378,1.58,1.61316,2.35771
	c0.29065,0.41145,0.5976,0.81487,0.93103,1.19198c0.94733,1.07143,2.15094,1.57983,3.57812,1.55495
	c0.27972-0.00488,0.56122-0.07468,0.83789-0.05583c1.68616,0.11485,3.20923-0.34736,4.63647-1.22401
	c0.42657-0.26202,0.91699-0.41819,1.37018-0.63923c0.85718-0.41806,1.67041-0.89301,2.41382-1.51064
	c1.0755-0.89343,2.17767-1.76636,3.34039-2.53998c1.19257-0.79345,2.10468-1.8545,2.9682-2.94138
	c0.59222-0.74547,1.1886-1.48665,1.82983-2.18596c1.02081-1.11327,2.04279-2.22421,3.1972-3.21275
	c0.7124-0.60998,1.41058-0.87446,2.29358-0.49487c0.10205,0.04387,0.20361,0.08895,0.35236,0.15404
	c0.53979,0.8415,1.49475,1.48938,1.52216,2.76568c-0.13245,0.47931-0.45782,0.94869-0.89679,1.28932
	c-1.29779,1.0071-2.29541,2.29156-3.36798,3.50962c-0.59155,0.67182-1.20264,1.32735-1.82446,1.97137
	c-0.62268,0.64488-1.27264,1.26328-1.90497,1.89891c-0.55292,0.55578-1.06909,1.1517-1.7608,1.55006
	c-0.0965,0.05558-0.19672,0.11807-0.26892,0.20045c-1.12103,1.27948-2.59912,2.12043-3.89197,3.18806
	c-0.90564,0.74787-1.79089,1.53043-2.61047,2.37045c-1.5838,1.6233-3.35889,2.94297-5.46405,3.81591
	c-0.61841,0.25647-1.18005,0.64703-1.78986,0.92798c-0.50421,0.23227-1.0285,0.50363-1.56598,0.56543
	c-1.55524,0.17886-3.12,0.30045-4.68433,0.36479c-0.83588,0.03435-1.68079-0.07635-2.45428-0.47356
	c-0.19824-0.10178-0.41174-0.1891-0.62842-0.23697c-1.60474-0.35432-2.80817-1.38107-3.94916-2.45273
	c-0.64441-0.60527-1.14264-1.37537-1.66077-2.10388c-0.8114-1.14074-1.59692-2.30047-2.37-3.46766
	c-1.5365-2.31973-2.55994-4.82438-2.94836-7.60948c-0.20831-1.49384-0.58551-2.96564-0.62274-4.48412
	c-0.02185-0.89325-0.01416-1.78718-0.02533-2.68073c-0.00415-0.33539-0.01477-0.67127-0.03937-1.00568
	c-0.02301-0.31344-0.35254-0.49316-0.60181-0.3411c-0.09546,0.05821-0.1947,0.11152-0.28418,0.17789
	c-0.13495,0.10002-0.2887,0.18927-0.38983,0.31812c-1.49481,1.90382-3.41211,3.39192-5.05609,5.14841
	c-0.45648,0.48772-0.97534,0.92815-1.36737,1.46235c-0.51373,0.69997-1.22601,1.12955-1.8847,1.64719
	c-1.36011,1.06883-2.83362,2.01447-3.85773,3.46716c-0.18097,0.25675-0.48779,0.47949-0.78424,0.59084
	c-1.39557,0.52419-2.49554,1.51316-3.612,2.41757c-0.92438,0.74879-1.88727,1.38482-2.91858,1.94562
	c-0.73792,0.40128-1.50568,0.75547-2.2099,1.20878c-0.70331,0.45269-1.35571,0.98814-2.00861,1.5144
	c-0.52863,0.42615-1.07184,0.83862-1.73254,0.99968c-1.10907,0.27042-2.09186,0.80513-3.04987,1.38376
	c-1.93909,1.1712-4.08289,1.82805-6.20911,2.52965c-0.36597,0.12077-0.76886,0.15492-1.15759,0.17595
	c-0.67108,0.03629-1.34521,0.05725-2.01672,0.03731c-1.24005-0.03677-2.43903,0.00392-3.61053,0.5574
	c-0.92194,0.43552-1.94391,0.5108-2.95312,0.15527c-0.89709-0.31604-1.80243-0.60844-2.70135-0.91957
	c-0.3175-0.10988-0.62543-0.24719-0.9397-0.36678c-0.57483-0.21867-1.18427-0.37325-1.71747-0.66679
	c-0.53107-0.2924-0.99408-0.71289-1.47339-1.09419c-1.7511-1.3929-3.58649-2.69136-4.97528-4.48897
	c-0.3418-0.44241-0.7132-0.86887-1.11554-1.25632c-1.61172-1.55187-2.58841-3.49343-3.45343-5.51124
	c-0.53973-1.25904-0.73074-2.57485-0.76691-3.93388c-0.03415-1.28449-0.14835-2.5667-0.19971-3.85101
	c-0.03091-0.77409-0.00909-1.55027-0.01114-2.38444c-0.13852,0.01598-0.3201-0.01785-0.4213,0.05703
	c-1.08099,0.79962-2.17584,1.58413-3.21399,2.43713c-1.18347,0.97237-2.59128,1.54217-3.89453,2.29871
	c-0.19333,0.11224-0.42273,0.16938-0.60114,0.29915c-1.99945,1.4544-4.39816,1.92255-6.67706,2.6663
	c-0.948,0.30937-1.97693,0.37779-2.97311,0.52896c-0.41302,0.06268-0.7215,0.24824-1.00537,0.54481
	c-0.38489,0.40205-0.81116,0.76417-1.21161,1.15172c-0.5228,0.50592-1.10306,0.96934-1.54465,1.53935
	c-1.90048,2.45309-4.23843,4.45773-6.54163,6.50075c-1.17441,0.66083-2.07999,1.67691-3.2001,2.41739
	c-0.50031,0.33073-0.88953,0.84587-1.28616,1.3138c-0.9136,1.07785-2.06134,1.87584-3.1821,2.7041
	c-0.26199,0.19362-0.5975,0.30797-0.91605,0.4014c-1.55722,0.45677-3.13019,0.86217-4.67767,1.34909
	c-1.1225,0.35318-2.21417,0.2233-3.31631-0.01971c-0.32745-0.0722-0.64014-0.21959-0.9693-0.27441
	c-0.66022-0.11002-1.39392-0.03235-1.97772-0.29646c-1.32193-0.59808-2.61295-1.29054-3.84036-2.06535
	c-1.81097-1.14313-3.43225-2.52585-4.62061-4.34277c-0.3038-0.46451-0.59436-0.95746-0.77704-1.47739
	c-0.44547-1.26777-0.80701-2.56473-1.23361-3.83945c-0.68375-2.04317-0.90021-4.14633-0.88632-6.28658
	c0.00323-0.50287-0.07855-1.00621-0.07663-1.50917c0.00662-1.74182,0.12546-3.46989,0.61874-5.15726
	c0.15607-0.53377,0.22385-1.0944,0.3114-1.646c0.01447-0.09106-0.06363-0.27308-0.12357-0.28459
	c-0.14703-0.02824-0.3714-0.04166-0.45416,0.04475c-0.65732,0.68623-1.27454,1.41076-1.931,2.09785
	c-1.81879,1.90363-3.6647,3.77871-5.70135,5.45689c-0.77753,0.64068-1.48972,1.36077-2.26926,1.99873
	c-0.42789,0.35017-0.90234,0.68529-1.41153,0.8853c-1.00394,0.39436-1.91272,0.94186-2.7764,1.56252
	c-0.92642,0.66574-1.94113,1.1104-3.03198,1.40128c-1.02716,0.27386-2.04987,0.57192-3.08859,0.79324
	c-1.94049,0.41341-3.88489,0.44849-5.83084-0.02679c-0.64966-0.15868-1.32263-0.24119-1.99011-0.29937
	c-0.32343-0.02818-0.6998-0.00035-0.98056,0.14271c-0.69641,0.35485-1.40381,0.72552-2.00928,1.21133
	c-0.6601,0.52968-1.3884,0.94205-2.06689,1.42953c-1.1799,0.84772-2.31946,1.76013-3.41269,2.71762
	c-1.0549,0.92387-2.09598,1.8515-3.32294,2.54802c-0.29016,0.16473-0.56525,0.36902-0.81293,0.59305
	c-0.62357,0.56403-1.23013,1.13893-2.06207,1.40343c-0.20395,0.06482-0.37439,0.24142-0.55426,0.37468
	c-1.53568,1.13777-3.27579,1.67256-5.16919,1.74759c-0.50381,0.01997-1.0087,0.0107-1.51306,0.0184
	c-1.67261,0.02554-3.19452-0.46437-4.6196-1.31726c-2.66391-1.59431-4.70914-3.74065-6.0134-6.5825
	c-0.74789-1.62959-1.57382-3.22384-2.08331-4.95303c-0.17377-0.58975-0.34003-1.18256-0.54388-1.76197
	c-0.04489-0.12771-0.22751-0.27202-0.35965-0.28596c-0.13602-0.01433-0.34561,0.08222-0.42361,0.19752
	c-0.66019,0.976-1.21454,2.00587-1.67462,3.09759c-0.586,1.39056-1.2153,2.76823-1.92029,4.10158
	c-0.57956,1.09621-1.10297,2.18442-1.36145,3.41443c-0.19421,0.92403-0.46964,1.86765-0.91013,2.69551
	c-0.87485,1.64441-1.40927,3.41209-2.08429,5.12909c-0.34818,0.8857-0.72342,1.76076-1.08377,2.64171
	c-0.1694,0.41405-0.3378,0.82872-0.49734,1.24661c-0.31897,0.83562-0.64951,1.6674-0.9429,2.51202
	c-0.58554,1.68541-1.54871,3.24266-1.72626,5.06683c-0.56055,1.51872-0.72662,3.16986-1.57108,4.59694
	c-0.19388,0.32762-0.31485,0.72731-0.36298,1.10732c-0.22717,1.79378-0.81476,3.47127-1.4534,5.15407
	c-0.61316,1.61574-0.95663,3.32811-1.56799,4.95308c-0.1142,0.30348-0.069,0.66408-0.12085,0.99466
	c-0.05145,0.32794-0.07306,0.6796-0.21207,0.97118c-0.39178,0.82198-0.49619,1.71602-0.74463,2.57178
	c-0.40417,1.39226-0.67587,2.83238-1.31512,4.15158C363.38916,176.84525,360.50098,177.3486,358.25854,177.35406z
	 M480.29123,117.8678c0.66608,0.05831,1.16605,0.14831,1.66089,0.12585c0.24731-0.01124,0.5069-0.19904,0.72153-0.35966
	c0.22076-0.16516,0.21124-0.58703,0.02234-0.7561c-0.12424-0.11122-0.24316-0.24136-0.38895-0.31353
	c-1.35104-0.66909-2.31735-1.72775-3.07956-2.99981c-0.20123-0.33588-0.43948-0.65115-0.62222-0.99628
	c-0.91879-1.73531-1.61404-3.5677-2.26483-5.4139c-0.3111-0.88245-0.16333-1.77739,0.27097-2.60482
	c0.36411-0.69369,0.75034-1.37628,1.14304-2.05437c0.84113-1.45241,1.69269-2.89877,2.54074-4.34718
	c0.02817-0.04813,0.06442-0.09158,0.09744-0.13684c0.42056-0.57677,0.79031-0.70949,1.44601-0.48332
	c0.58203,0.20074,1.15164,0.43754,1.73383,0.63781c0.80005,0.27518,1.30896,0.82092,1.59555,1.60634
	c0.46033,1.26172,0.96677,2.50757,1.39282,3.78054c0.34802,1.03975,0.94479,1.90839,1.69257,2.67138
	c1.0163,1.03695,1.70627,0.71829,2.06985-0.4715c0.63766-2.08667,1.28745-4.16963,1.92905-6.2551
	c0.04926-0.16009,0.07617-0.32729,0.10956-0.49196c0.55551-2.74115,1.10773-5.48295,1.66702-8.2233
	c0.17993-0.88148,0.25751-1.76881,0.27512-2.66878c0.01752-0.89355,0.12454-1.78501,0.15927-2.67866
	c0.03693-0.94859,0.11145-1.90483,0.03574-2.84699c-0.23184-2.88467-1.16385-5.57783-2.37769-8.18414
	c-0.23843-0.51197-0.48029-1.03255-0.95444-1.35998c-1.28717-0.88879-2.43274-1.98649-3.87027-2.65292
	c-0.45612-0.21148-0.92719-0.39172-1.39603-0.57436c-0.32147-0.12525-0.66858-0.18696-0.97687-0.00713
	c-0.48456,0.28262-0.96713,0.20085-1.46487,0.08338c-0.70819-0.16715-1.41498-0.34367-2.12924-0.47996
	c-0.32437-0.06187-0.68173-0.10973-0.99594-0.0389c-1.59866,0.36047-3.1322,0.88053-4.31506,2.09953
	c-1.05219,1.0843-2.11337,2.16096-3.13092,3.27719c-0.4104,0.4502-0.7182,0.99459-1.0676,1.49966
	c-0.66809,0.96574-1.2995,1.95915-2.01007,2.89239c-0.47791,0.62761-0.92676,1.25565-1.25314,1.97819
	c-0.43839,0.97047-0.97488,1.88014-1.64267,2.7237c-0.86804,1.0965-1.6123,2.27229-2.17529,3.57187
	c-0.5556,1.2826-1.26089,2.49957-1.86343,3.76303c-0.31192,0.6541-0.543,1.34675-0.81143,2.02164
	c-0.30975,0.77888-0.53702,1.60484-0.94739,2.3266c-0.95551,1.6805-1.56348,3.45589-1.78671,5.37187
	c-0.0387,0.332-0.11902,0.66303-0.21606,0.98366c-0.37292,1.23205-0.6344,2.49059-0.94031,3.73808
	c-0.50436,2.05693-0.44125,4.11381-0.32367,6.17916c0.14417,2.53223,0.82593,4.96519,1.53387,7.38578
	c0.10858,0.37137,0.29538,0.72306,0.47168,1.07084c0.83615,1.64933,2.14218,2.86659,3.67929,3.82919
	c1.70071,1.06503,3.55161,1.66119,5.59149,1.41119c1.24103-0.15211,2.41904-0.47422,3.28561-1.48016
	c0.14502-0.16835,0.34613-0.28783,0.49466-0.45374c0.50928-0.56883,1.13272-0.88025,1.8959-0.96739
	c0.99579-0.11367,1.77872-0.6311,2.40854-1.39452c0.17819-0.21597,0.37698-0.41975,0.52481-0.65517
	C478.40131,119.48608,479.39783,118.75346,480.29123,117.8678z M404.88354,125.06281c1.2374,0.15607,2.5-0.46382,3.70364-1.19646
	c1.33792-0.81441,2.62665-1.70931,3.94504-2.55627c0.48154-0.30933,0.86719-0.70362,1.18253-1.17337
	c0.19708-0.29362,0.19254-0.68695-0.02548-0.93742c-0.18298-0.21017-0.36331-0.43753-0.58893-0.59332
	c-1.46478-1.01134-2.42703-2.46877-3.43643-3.87649c-0.56024-0.78132-0.84863-1.70372-1.00815-2.64615
	c-0.1329-0.78533-0.06497-1.57516,0.32568-2.29033c0.58902-1.07825,1.11996-2.18955,1.91443-3.14887
	c0.60446-0.7299,1.20166-1.4631,1.59601-2.35432c0.19446-0.43951,0.61218-0.78996,0.96262-1.14768
	c0.28946-0.29552,0.6767-0.40781,1.08505-0.30989c0.92874,0.22275,1.82932,0.52197,2.63803,1.05199
	c0.38977,0.25545,0.66537,0.59248,0.81039,1.03622c0.06958,0.21294,0.1478,0.42309,0.21417,0.63699
	c0.44113,1.42225,1.31583,2.58617,2.23636,3.71778c0.20825,0.25597,0.48895,0.45773,0.754,0.66148
	c0.27917,0.21464,0.69742,0.16915,0.90268-0.11485c0.22729-0.3146,0.44144-0.6461,0.60892-0.99538
	c1.18558-2.47218,2.50192-4.8788,3.56567-7.4136c0.5643-1.34469,1.1142-2.68809,1.54755-4.07793
	c0.56604-1.8154,1.07587-3.64898,1.67352-5.45366c0.37213-1.1236,0.61917-2.26614,0.80698-3.42799
	c0.21429-1.32587,0.44406-2.64941,0.6412-3.97781c0.06516-0.4387,0.12881-0.90258,0.05679-1.33208
	c-0.22394-1.33462-0.15594-2.68035-0.24658-4.01796c-0.10184-1.50221-0.35501-2.99419-0.54398-4.49039
	c-0.0069-0.05467-0.03183-0.10703-0.0477-0.16064c-0.50293-1.6985-1.64456-3.83905-2.7334-5.15829
	c-0.84933-1.02911-1.92557-1.7165-3.21222-2.012c-0.81726-0.18768-1.70703-0.27676-2.45807,0.18253
	c-0.94202,0.57606-1.96036,1.06483-2.60117,2.06081c-0.32645,0.50739-0.77277,0.96367-1.24307,1.34716
	c-0.99631,0.81243-2.03329,1.57655-3.07495,2.33102c-0.5062,0.36664-0.92773,0.79514-1.31012,1.28655
	c-0.54926,0.70582-1.09305,1.42881-1.73154,2.04946c-1.21423,1.18031-2.22873,2.52028-3.14246,3.92271
	c-0.73712,1.13135-1.52582,2.20914-2.41202,3.22018c-0.70529,0.8047-1.29471,1.67129-1.75323,2.64854
	c-0.78693,1.67715-1.80313,3.20886-3.01105,4.62865c-0.64554,0.75871-1.20084,1.63193-1.62082,2.5353
	c-0.5209,1.12062-1.09698,2.20058-1.72131,3.26368c-0.56561,0.96312-1.19882,1.91692-1.56824,2.95789
	c-0.57956,1.63298-0.9678,3.34758-1.03824,5.08424c-0.06604,1.62949-0.27756,3.23463-0.52515,4.83643
	c-0.21045,1.36132-0.11902,2.6685,0.3226,3.97104c0.3407,1.00481,0.75916,1.98684,0.90469,3.05507
	c0.04352,0.31944,0.20374,0.64304,0.37952,0.92105c0.89624,1.4174,1.59698,2.94265,2.46793,4.37645
	C400.35895,124.096,402.16757,125.14658,404.88354,125.06281z M540.50763,72.30972
	c-0.33484-0.09845-0.48334,0.10191-0.61316,0.26276c-0.91376,1.13198-1.87891,2.23003-2.70398,3.42433
	c-1.2746,1.84503-2.50659,3.71083-4.23706,5.18083c-0.25159,0.21371-0.43756,0.50693-0.6441,0.77105
	c-1.48279,1.89645-3.03796,3.7283-4.68689,5.4854c-1.37781,1.4682-2.83289,2.86638-4.02625,4.50748
	c-1.67999,2.31032-3.45239,4.55551-4.90112,7.02519c-1.18469,2.01962-1.87115,4.17455-1.79742,6.55469
	c0.03107,1.00267-0.04913,2.01628-0.1687,3.01414c-0.13647,1.1389-0.05768,2.22945,0.34857,3.3049
	c0.43634,1.15518,0.94159,2.26704,1.60864,3.31569c0.36499,0.57378,0.71338,1.13981,1.25085,1.55928
	c0.67163,0.52415,1.19397,1.17725,1.68195,1.86417c1.93085,2.71793,4.5863,4.38454,7.73779,5.32964
	c0.46155,0.13838,0.92737,0.0993,1.25342-0.25658c0.75726-0.82646,1.70154-1.02371,2.75372-0.93311
	c0.63763,0.05491,1.23401-0.09606,1.77502-0.41034c0.67651-0.39303,1.34314-0.80804,1.98358-1.25693
	c1.15002-0.80597,2.14832-1.79145,3.15546-2.7636c0.45166-0.436,0.91052-0.82137,1.60516-0.77396
	c0.51807,0.03534,0.85535-0.28873,1.01349-0.73576c0.29822-0.84293,0.56488-1.69871,0.80212-2.56086
	c0.14813-0.53831,0.17926-1.10912,0.33075-1.64618c0.55121-1.95409,0.80829-3.94428,0.84827-5.97118
	c0.02203-1.11891,0.15698-2.23727,0.14453-3.35481c-0.01807-1.61839,0.07056-3.24365-0.26013-4.85107
	c-0.1687-0.82019-0.19952-1.66829-0.35785-2.49123c-0.16864-0.87683-0.36157-1.756-0.63745-2.60374
	c-0.55377-1.70189-1.17145-3.38302-1.76172-5.07306c-0.03693-0.10573-0.07172-0.21304-0.09601-0.32217
	c-0.49817-2.23743-1.12183-4.44025-1.34534-6.74429c-0.23901-2.46467-0.31195-4.9166-0.14282-7.38153
	C540.4549,73.28412,540.47961,72.78869,540.50763,72.30972z"/>
<path class="st1" d="M209.91238,26.16316c0.72284,0.02631,1.50697,0.05103,2.29076,0.08438
	c1.01059,0.04299,2.01845,0.04568,3.00946-0.19581c0.55402-0.13501,1.10536-0.07091,1.66673-0.05374
	c2.08134,0.06366,3.93159,0.80644,5.70229,1.81803c0.77748,0.44417,1.56937,0.86682,2.32132,1.35107
	c1.1151,0.71806,1.92387,1.70938,2.38589,2.95934c0.42712,1.15538,0.86377,2.30956,1.22336,3.48652
	c0.16046,0.52538,0.19379,1.10504,0.19608,1.66043c0.00679,1.62728-0.12086,3.24248-0.46693,4.84146
	c-0.27237,1.25853-0.46565,2.53419-0.69151,3.80268c-0.01947,0.10972-0.05272,0.23351-0.02107,0.33194
	c0.04593,0.14249,0.12471,0.28968,0.2317,0.38971c0.0435,0.04065,0.23407-0.00236,0.29579-0.0667
	c0.38667-0.40331,0.77457-0.80811,1.12756-1.24057c1.45166-1.77835,2.87891-3.57681,4.34064-5.34676
	c0.60526-0.73283,1.33601-1.36678,1.903-2.12542c1.42142-1.90202,3.10982-3.51817,4.97461-4.97416
	c1.85246-1.44638,3.60797-3.01915,5.65115-4.21096c1.64462-0.95929,3.28024-1.93403,4.91356-2.9125
	c1.34468-0.8055,2.77449-0.84794,4.2153-0.40106c1.17438,0.36426,2.34656,0.77388,3.45673,1.29706
	c1.38031,0.65048,2.5145,1.68179,3.5704,2.76714c0.81873,0.8415,1.56656,1.75555,2.30618,2.66946
	c0.81708,1.00959,1.43344,2.1316,1.70676,3.42067c0.0697,0.32835,0.16193,0.65338,0.26581,0.97277
	c0.95178,2.92604,1.14206,5.89961,0.78162,8.95699c-0.34171,2.89869-0.97415,5.73165-1.56567,8.57979
	c-0.67361,3.2435-1.64053,6.40037-2.6998,9.52961c-0.59189,1.74876-1.3103,3.45461-1.96844,5.18106
	c-0.33908,0.88958-0.71255,1.76886-0.9964,2.67597c-0.40454,1.29272-1.12173,2.43794-1.63922,3.67276
	c-0.78421,1.87138-2.01361,3.48786-2.90901,5.29011c-0.54805,1.10311-1.07478,2.21301-1.76294,3.24009
	c-1.49593,2.23249-2.89951,4.53199-4.4892,6.69505c-1.62216,2.20721-3.2103,4.45535-5.09604,6.45397
	c-0.88055,0.93324-1.86243,1.77466-2.83163,2.61963c-1.64624,1.43523-3.31374,2.84626-4.98436,4.25318
	c-0.34039,0.28662-0.73143,0.51379-1.10368,0.76157c-0.5585,0.37172-1.12263,0.73491-1.68143,1.10626
	c-0.79936,0.53127-1.66216,0.93397-2.57845,1.20567c-0.3696,0.10958-0.78896,0.20917-1.15524,0.1435
	c-1.3004-0.23303-2.56639,0.08689-3.84294,0.17425c-1.24542,0.08526-2.4603-0.06644-3.67284-0.27216
	c-0.43336-0.07351-0.87065-0.24442-1.25517-0.46129c-1.02446-0.57768-2.02351-1.20065-3.02679-1.81532
	c-0.18912-0.11584-0.38657-0.24889-0.51953-0.4209c-1.05977-1.37165-2.31039-2.58504-3.20816-4.09659
	c-0.56973-0.95941-1.16022-1.90584-1.68802-2.89053c-0.14642-0.27322-0.57249-0.27065-0.68909-0.00883
	c-0.22775,0.51151-0.508,1.01344-0.64104,1.5504c-0.27238,1.09953-0.76413,2.10238-1.21729,3.12644
	c-0.61035,1.3791-1.00873,2.84349-1.68982,4.19616c-0.32732,0.64995-0.55701,1.35197-0.91368,1.98373
	c-0.97008,1.71873-1.58609,3.57931-2.3046,5.40354c-0.5116,1.2989-0.71925,2.70925-1.4567,3.9219
	c-0.11594,0.19068-0.17821,0.41715-0.30838,0.5956c-1.09569,1.50146-1.81561,3.21025-2.70943,4.82316
	c-0.72971,1.31694-1.43565,2.65095-2.24478,3.92832c-0.86702,1.36864-1.5901,2.8276-2.42096,4.22031
	c-0.51497,0.86334-1.10222,1.68475-1.67981,2.509c-0.26785,0.3822-0.66054,0.59038-1.13795,0.63385
	c-0.77786,0.07083-1.30399-0.32425-1.42393-1.09061c-0.02599-0.16576-0.08206-0.34439-0.04659-0.49931
	c0.21561-0.94179,0.03828-1.89604,0.11244-2.84111c0.01752-0.22322,0.06361-0.45306,0.03088-0.66994
	c-0.24898-1.65049,0.16769-3.22301,0.55045-4.79742c0.55592-2.28676,1.39253-4.48847,2.06314-6.73878
	c0.46434-1.55796,1.05293-3.05437,1.64461-4.56023c0.77811-1.98051,1.50836-3.98101,2.20683-5.99116
	c0.45923-1.32176,0.82629-2.67558,1.23396-4.01524c0.08134-0.26719,0.13039-0.54842,0.24388-0.80091
	c1.03232-2.29813,2.07967-4.58945,3.11232-6.88743c0.20619-0.45876,0.42157-0.92434,0.53966-1.40944
	c0.26723-1.09783,0.69121-2.12805,1.24626-3.10248c0.53215-0.93411,0.89655-1.93478,1.16496-2.96148
	c0.30185-1.15464,0.86996-2.18059,1.37849-3.23907c0.43599-0.90754,0.87123-1.81548,1.29558-2.7285
	c0.23589-0.5076,0.46843-1.01843,0.66621-1.54153c0.19693-0.52061,0.39122-1.049,0.51045-1.59075
	c0.21872-0.9943,0.57286-1.92554,1.08269-2.8054c0.61803-1.06657,1.22047-2.13839,1.51062-3.35915
	c0.08829-0.37139,0.29234-0.7287,0.5007-1.05596c1.21115-1.90248,2.12993-3.93372,2.77921-6.09296
	c0.19324-0.64262,0.4563-1.26446,0.69272-1.89381c0.37503-0.99862,0.70952-2.00454,0.81822-3.07727
	c0.04478-0.44233,0.1701-0.87893,0.28452-1.31132c0.42955-1.62369,0.87502-3.24317,1.30223-4.86744
	c0.11371-0.43217,0.20247-0.87295,0.27017-1.31478c0.21187-1.38327,0.38943-2.77199,0.61502-4.15293
	c0.35582-2.1788,0.41815-4.35742-0.20863-6.48626c-0.33014-1.12127-0.83406-2.19852-1.33504-3.26
	c-0.36909-0.78204-1.10992-1.29904-1.80565-1.72044c-1.198-0.72563-2.51598-1.28465-3.98361-0.90971
	c-1.05426,0.26936-2.12074,0.25197-3.17468,0.1614c-1.7381-0.14936-3.46935-0.06711-5.20401-0.02008
	c-0.67227,0.01823-1.34464,0.0317-2.01704,0.03977c-0.45604,0.00547-0.88589-0.09309-1.28699-0.3249
	c-0.57063-0.32977-0.76482-0.78779-0.54341-1.41003c0.50926-1.43126,1.1696-2.79208,2.02696-4.04598
	c0.41295-0.60388,0.78456-1.21775,1.09277-1.8839c0.25667-0.55463,0.62477-1.05973,0.96236-1.57437
	c0.36461-0.55584,0.8967-0.82406,1.55994-0.8418C207.05013,26.24429,208.45045,26.204,209.91238,26.16316z M257.20432,47.93459
	c-0.00546-2.50691-0.48654-4.92113-1.25578-7.27413c-0.56299-1.72226-1.36327-3.3228-2.98421-4.34013
	c-0.13948-0.08757-0.25043-0.22358-0.36693-0.34449c-0.59584-0.6184-1.33887-1.01027-2.10823-1.35435
	c-1.62256-0.72567-3.14558-0.60649-4.57217,0.51874c-0.52432,0.41361-1.10068,0.76551-1.67261,1.11377
	c-1.34657,0.81994-2.61174,1.75389-3.65561,2.93089c-0.48535,0.54727-0.97099,1.0739-1.53362,1.53881
	c-0.73727,0.60914-1.38173,1.29224-1.85208,2.14778c-0.62282,1.13282-1.40091,2.15948-2.38538,3.01348
	c-0.6441,0.55875-1.11078,1.25692-1.55228,1.97298c-1.14674,1.85937-2.39085,3.64914-3.75539,5.35644
	c-0.45413,0.56822-0.87987,1.16212-1.2807,1.76933c-0.92462,1.40073-1.82132,2.81986-2.73849,4.22556
	c-0.67339,1.03193-1.34569,2.06195-1.8208,3.20749c-0.21385,0.5158-0.50774,1.00016-0.7005,1.52271
	c-0.59277,1.6067-1.52252,3.1278-1.27176,4.9585c0.03609,0.26347-0.06413,0.55428-0.13734,0.82257
	c-0.35358,1.29575-0.70012,2.59393-1.0851,3.88049c-0.89301,2.98457-1.31686,6.00661-0.82458,9.11559
	c0.05234,0.33059,0.06363,0.66936,0.07172,1.00491c0.01918,0.79343,0.2117,1.54826,0.45221,2.29928
	c1.00101,3.12552,2.59901,5.94127,4.46204,8.6182c0.58287,0.83752,1.34363,1.50839,2.20103,2.04877
	c0.36801,0.23193,0.8058,0.38833,1.23318,0.48409c1.1095,0.24863,2.22487,0.12405,3.34019-0.02293
	c2.03415-0.26804,4.6268-1.49554,6.15419-2.85647c1.04358-0.92983,2.12698-1.82047,3.243-2.66171
	c0.99879-0.75284,1.86852-1.60197,2.49968-2.68291c0.7901-1.35316,1.59766-2.69247,2.23776-4.13277
	c0.47562-1.06991,1.12071-2.06397,1.68005-3.09734c0.42581-0.78677,0.86119-1.57005,1.24493-2.3774
	c0.33597-0.70655,0.61832-1.43968,0.90248-2.16956c0.75084-1.92802,1.50301-3.85574,2.22787-5.7936
	c0.35234-0.94209,0.64473-1.90662,0.96414-2.86104c0.33745-1.00808,0.68047-2.01431,1.00998-3.02495
	c0.20827-0.63879,0.39528-1.28449,0.5936-1.92656c0.19774-0.64038,0.43533-1.27112,0.59027-1.92162
	c0.79181-3.32346,1.44217-6.67643,1.99527-10.04704C256.95328,50.38353,257.0571,49.15549,257.20432,47.93459z"/>
<path class="st1" d="M180.20291,69.73103c1.28418,0.02585,2.56831,0.05554,3.8526,0.07492
	c0.33534,0.00506,0.68088,0.02486,1.00508-0.04239c1.43776-0.29817,2.90405-0.14008,4.3472-0.30001
	c1.12494-0.12468,2.08124,0.33186,3.04507,0.77065c0.47502,0.21626,0.62086,0.84854,0.30701,1.29434
	c-0.55078,0.78238-0.97289,1.62758-1.39296,2.48362c-0.31761,0.64734-0.76053,1.23724-1.18152,1.82861
	c-0.39116,0.54952-0.73907,1.11179-0.99934,1.73988c-0.2128,0.51357-0.49092,1.00867-0.80032,1.47169
	c-0.57129,0.855-1.30051,1.31737-2.41905,1.05161c-0.6951-0.16515-1.44489-0.18243-2.16451-0.14809
	c-3.74631,0.17879-7.49411,0.20136-11.24316,0.18726c-0.9498-0.00358-1.89967-0.02415-2.76689,0.50285
	c-0.39189,0.23815-0.85927,0.16521-1.31247,0.13306c-1.78394-0.12656-3.56987-0.3073-5.35512-0.30771
	c-1.38655-0.00031-2.78696,0.15525-4.11041,0.66325c-0.10434,0.04005-0.21053,0.1225-0.31174,0.11644
	c-1.27019-0.07602-2.60828,0.05199-3.64178-0.90048c-0.377-0.34747-0.75473-0.65095-1.21645-0.86765
	c-0.19803-0.09293-0.3723-0.24605-0.54062-0.39124c-0.69405-0.59863-0.72391-0.84692-0.36765-1.74417
	c0.47273-1.19044,1.04817-2.32998,1.3998-3.58331c0.31242-1.11367,0.93982-2.14612,1.48256-3.18604
	c0.53899-1.03276,1.37544-1.52399,2.60367-1.43091c2.17415,0.16478,4.35593,0.22719,6.5338,0.34516
	c1.00487,0.05444,2.00737,0.18266,3.01222,0.19928c1.45203,0.02401,2.90656,0.00843,4.35742-0.05236
	c0.78154-0.03275,1.55348-0.09378,2.34029-0.02365c0.94568,0.08428,1.90028,0.08334,2.85123,0.0902
	c0.89482,0.00645,1.78992-0.02497,2.68488-0.03973C180.20213,69.68775,180.2025,69.7094,180.20291,69.73103z"/>
<path class="st1" d="M77.15125,31.72037c-0.39732,1.34196-1.09479,2.35119-2.04829,3.20779
	c-0.2859,0.25685-0.50978,0.58253-0.76366,0.8753c-0.38377,0.44255-0.77072,0.88236-1.15305,1.32615
	c-0.4896,0.56831-1.01659,1.11014-1.45358,1.71661c-0.56364,0.78224-1.3615,0.91831-2.21854,0.94799
	c-0.22102,0.00767-0.44521-0.04804-0.66657-0.08331c-1.87904-0.29941-3.76362-0.5692-5.63392-0.91592
	c-0.84768-0.15714-1.6626-0.48426-2.50029-0.70411c-0.64758-0.16996-1.31298-0.27195-1.96078-0.44118
	c-1.41469-0.36959-2.86155-0.50072-4.30995-0.63611c-1.83741-0.17176-3.67302-0.49076-5.50994-0.4947
	c-1.22297-0.00262-2.43393-0.18653-3.66603-0.09898c-1.88412,0.1339-3.62767,0.60681-5.22444,1.61718
	c-0.82034,0.51907-1.39647,1.27722-1.98726,2.01885c-0.53938,0.6771-1.06406,1.36626-1.58104,2.06065
	c-0.13102,0.17598-0.23978,0.38235-0.30457,0.59155c-0.3864,1.24756-1.01396,2.40037-1.87724,3.33145
	c-0.87736,0.94627-1.43618,2.0411-2.04589,3.13119c-0.09372,0.16756-0.2568,0.29479-0.3739,0.45108
	c-0.31617,0.42197-0.74391,0.8072-0.91317,1.2832c-0.4315,1.21347-1.26098,2.16587-1.90971,3.2369
	c-0.65098,1.07476-1.20623,2.20757-1.80054,3.31649c-0.07914,0.14768-0.13091,0.3103-0.21284,0.45618
	c-0.68423,1.2184-1.37789,2.43156-2.05513,3.65381c-0.13445,0.24265-0.22349,0.51332-0.31099,0.77849
	c-0.14884,0.45104-0.25504,0.91385-0.64922,1.24506c-0.11712,0.09842-0.16986,0.28624-0.22591,0.44248
	c-0.36786,1.02546-0.72693,2.05406-1.09331,3.08006c-0.05594,0.15665-0.13171,0.30663-0.20372,0.4571
	c-0.45795,0.95675-0.83931,1.92682-1.12969,2.96269c-0.2704,0.96461-0.40495,2.02382-1.04629,2.87511
	c-0.13055,0.17328-0.23683,0.39727-0.26511,0.60974c-0.14427,1.08388-0.74128,1.9759-1.18054,2.93787
	c-0.26394,0.57802-0.43096,1.2014-0.62705,1.80907c-0.45413,1.40739-0.8793,2.81853-1.48022,4.18141
	c-0.32745,0.74265-0.50654,1.57488-0.75196,2.36701c-0.5533,1.7859-1.02983,3.59563-1.53274,5.39701
	c-0.05989,0.21452-0.13193,0.4385-0.12652,0.65631c0.03787,1.52578-0.40034,2.98887-0.5713,4.48646
	c-0.00634,0.05556-0.00727,0.11678-0.03185,0.16447c-0.49548,0.96101-0.29089,2.0218-0.43259,3.03284
	c-0.10102,0.72081-0.18419,1.44427-0.26507,2.16771c-0.04973,0.44477-0.07372,0.89238-0.12053,1.33752
	c-0.09329,0.88697-0.19405,1.77315-0.2923,2.65959c-0.05222,0.47115-0.09198,0.94416-0.16082,1.41289
	c-0.33584,2.28661,0.03535,4.51246,0.55693,6.72768c0.08964,0.38068,0.13071,0.77291,0.22286,1.15286
	c0.08449,0.34835,0.20365,0.68864,0.31584,1.02976c0.04335,0.13178,0.1591,0.25659,0.15768,0.38364
	c-0.01342,1.19656,0.9872,1.99769,1.19615,3.104c0.97703,1.11808,1.98349,2.20941,3.26026,2.99445
	c0.37654,0.23152,0.83732,0.32127,1.2348,0.52432c1.58745,0.81093,3.17299,0.43329,4.73497-0.03193
	c1.48152-0.44125,2.88995-1.08234,4.13413-2.01398c0.77861-0.58302,1.58417-1.14771,2.13865-1.98882
	c0.19481-0.2955,0.47347-0.55637,0.76284-0.76516c1.00331-0.72392,1.6003-1.77345,2.28944-2.75354
	c0.4976-0.70767,1.02568-1.39386,1.53707-2.0919c0.14849-0.20269,0.29141-0.40988,0.42809-0.62072
	c0.54602-0.84227,1.09233-1.68439,1.63099-2.53137c0.32925-0.51772,0.62306-1.05915,0.97101-1.56356
	c0.68237-0.98918,1.40104-1.95331,2.08395-2.94213c0.22029-0.31898,0.42274-0.66617,0.5513-1.02949
	c0.3224-0.9111,0.89612-1.66763,1.39663-2.47492c0.56922-0.91808,1.18307-1.80522,1.55649-2.85184
	c0.27653-0.77506,0.78057-1.48543,1.26516-2.16634c0.9828-1.38095,1.66709-2.90637,2.34059-4.44744
	c0.40185-0.91951,0.90264-1.79591,1.36258-2.68981c0.08952-0.174,0.23301-0.32805,0.28849-0.51049
	c0.48223-1.58569,1.31567-3.02067,1.95611-4.53826c0.57483-1.36208,1.35337-2.637,2.0125-3.96503
	c0.63428-1.27798,1.21948-2.58027,1.84882-3.86078c0.28286-0.57554,0.63962-1.11449,0.92922-1.68704
	c0.46629-0.92188,0.92823-1.84734,1.3501-2.79004c0.93618-2.09193,1.64803-4.29154,2.88485-6.23848
	c0.81848-1.28839,1.28454-2.72496,1.90382-4.09768c0.3689-0.81774,0.70825-1.62748,0.70858-2.55336
	c0.0001-0.2863,0.17709-0.58231,0.30858-0.8569c0.36185-0.7557,0.74021-1.50356,1.11711-2.25197
	c0.11291-0.2242,0.24559-0.43836,0.36381-0.66c0.2885-0.54085,0.60622-1.06921,0.85151-1.62916
	c0.25658-0.58572,0.42715-1.20851,0.66376-1.80379c0.19091-0.48036,0.63645-0.71644,1.08629-0.82033
	c0.66765-0.1542,1.34348-0.06862,1.94512,0.30522c0.59457,0.36945,1.18206,0.75076,1.76481,1.13866
	c0.78841,0.52479,0.91869,0.89781,0.61752,1.76982c-0.17361,0.50268-0.37843,0.99457-0.55276,1.49702
	c-0.47591,1.37183-0.96423,2.73993-1.40733,4.12242c-0.38412,1.19847-0.64573,2.43918-1.30186,3.53695
	c-0.04274,0.07151-0.09017,0.15155-0.09755,0.23115c-0.10744,1.16109-1.00115,1.98106-1.3363,3.01207
	c-0.4984,1.53314-1.37764,2.90913-1.69594,4.52156c-0.14429,0.7309-0.70087,1.37821-1.05806,2.06983
	c-0.42952,0.83167-0.91735,1.60471-1.11835,2.57666c-0.26268,1.27019-0.81177,2.4843-1.27283,3.7093
	c-0.36264,0.96355-0.78545,1.9043-1.16528,2.86164c-0.07977,0.20106-0.08775,0.43045-0.13013,0.64652
	c-0.03713,0.18928-0.04659,0.39055-0.11967,0.56499c-0.24593,0.58714-0.69117,1.15194-0.7342,1.74879
	c-0.06728,0.93344-0.56501,1.68232-0.7981,2.5356c-0.29318,1.07323-0.70243,2.11646-1.09646,3.15947
	c-0.12919,0.34196-0.33116,0.65024-0.21242,1.03638c0.00761,0.0247,0.00586,0.05997-0.00644,0.082
	c-0.58036,1.03997-0.42315,2.28526-0.96716,3.35526c-0.29195,0.57424-0.31157,1.28736-0.45051,1.93858
	c-0.02329,0.10917-0.0017,0.23432-0.04585,0.33167c-0.62794,1.38451-0.50034,2.90697-0.8007,4.35072
	c-0.07397,0.35561-0.11992,0.717-0.19251,1.07291c-0.19617,0.96175-0.28046,1.9126-0.20203,2.91077
	c0.11792,1.50076,0.04457,3.01627,0.06239,4.52538c0.00461,0.3905,0.02873,0.78255,0.07367,1.17043
	c0.13128,1.13345,0.24092,2.27137,0.43169,3.39521c0.11541,0.67995,0.42655,1.32713,0.53706,2.00733
	c0.09616,0.59184,0.28965,1.13138,0.53329,1.66399c0.55915,1.22229,1.41718,2.20979,2.49662,2.98468
	c1.1322,0.81275,2.60678,0.77589,3.77129-0.05121c1.23059-0.87402,2.45151-1.76259,3.65413-2.67449
	c0.37248-0.28244,0.68443-0.65009,1.00152-0.99923c0.95891-1.05579,1.88817-2.13924,2.86843-3.17456
	c0.3711-0.39195,0.69755-0.78419,0.92794-1.2775c0.45081-0.96524,0.97942-1.88182,1.71192-2.67712
	c0.70032-0.76037,1.44744-1.50598,1.99657-2.37073c0.86838-1.36753,1.62418-2.81102,2.35971-4.25692
	c0.53218-1.04618,1.04468-2.09476,1.72646-3.05712c0.54861-0.7744,1.08296-1.56437,1.55027-2.38901
	c0.31316-0.55261,0.5321-1.16668,0.73244-1.77331c0.32449-0.98253,0.77444-1.89843,1.29372-2.78937
	c0.23583-0.40461,0.40082-0.85075,0.59454-1.27959c0.4023-0.8905,0.78976-1.78794,1.2066-2.67155
	c0.47656-1.01024,0.98607-2.0049,1.46707-3.01309c0.46959-0.98426,0.92194-1.97676,1.38071-2.96617
	c0.90512-1.95202,1.88734-3.87313,2.68788-5.86716c0.57348-1.42847,1.3409-2.75729,1.91661-4.17806
	c0.03155-0.07783,0.08982-0.15126,0.09872-0.23087c0.10329-0.92336,0.75401-1.59062,1.1128-2.39379
	c0.04564-0.10214,0.10491-0.19918,0.14123-0.30434c0.31814-0.92164,0.59098-1.86159,0.95981-2.76229
	c0.35732-0.87262,0.80402-1.70937,1.22636-2.55443c0.47592-0.95226,0.92524-1.91978,1.08205-2.97841
	c0.21987-1.48435,0.81091-2.84891,1.27455-4.25601c0.62106-1.88483,1.20795-3.78102,1.84096-5.66174
	c0.18629-0.55351,0.49776-1.06357,0.71974-1.60666c0.82335-2.01424,1.6487-4.02792,2.44303-6.05368
	c0.57108-1.45636,1.05515-2.94752,1.64769-4.39463c0.84643-2.0671,1.75889-4.10711,2.63858-6.16064
	c0.55074-1.2856,1.0926-2.57499,1.63939-3.86228c0.49107-1.15611,0.99528-2.30682,1.47141-3.46904
	c0.38105-0.93015,0.62933-1.92948,1.11472-2.79861c0.70396-1.26051,1.14088-2.60848,1.61658-3.95148
	c0.45697-1.29008,1.2599-2.36339,2.15513-3.37927c0.44358-0.50336,0.8398-1.04827,1.27917-1.55556
	c0.62146-0.71752,1.25018-1.42992,1.90518-2.11647c0.16231-0.17011,0.45265-0.21014,0.65817-0.34851
	c0.50799-0.34202,1.02629-0.67668,1.49036-1.07294c0.27486-0.23472,0.55531-0.41337,0.8961-0.37924
	c0.5788,0.05799,1.15925,0.14866,1.72137,0.29389c0.16769,0.04334,0.35834,0.29828,0.39575,0.48487
	c0.08698,0.43374,0.19057,0.90653,0.10318,1.32502c-0.27502,1.31734-0.6868,2.5827-1.63898,3.61417
	c-0.56107,0.60781-0.64254,1.39786-0.62982,2.2029c0.02034,1.28684-0.21848,2.50318-0.66975,3.73695
	c-0.5458,1.4922-1.34853,2.79973-2.1776,4.12337c-0.32158,0.51341-0.77776,1.05293-0.56026,1.7737
	c0.02778,0.09204-0.02077,0.22638-0.07224,0.32012c-0.67632,1.23143-1.03992,2.58768-1.56294,3.88001
	c-0.17783,0.43942-0.41628,0.85432-0.62735,1.28027c-0.22207,0.4481-0.45542,0.891-0.66482,1.34492
	c-0.737,1.5977-1.47828,3.19364-2.19206,4.80173c-0.31576,0.7114-0.56181,1.45345-0.85473,2.17542
	c-0.14481,0.35691-0.30833,0.70832-0.49084,1.04745c-0.54366,1.01035-1.07266,2.0302-1.65953,3.01528
	c-0.85416,1.43376-1.31367,3.02152-1.90556,4.5617c-0.49033,1.27591-1.13293,2.49307-1.7004,3.73976
	c-0.09183,0.20176-0.16468,0.41729-0.2105,0.63402c-0.4754,2.24899-1.20612,4.42203-2.13581,6.5133
	c-0.54807,1.23288-0.99189,2.48448-1.40123,3.76482c-0.32894,1.02888-0.86411,1.99048-1.28333,2.99217
	c-0.48384,1.15617-1.18519,2.21957-1.44435,3.4743c-0.06561,0.3176-0.32362,0.59086-0.42604,0.90631
	c-0.27487,0.84641-0.51398,1.70447-0.76575,2.55836c-0.0475,0.16108-0.05368,0.34486-0.13706,0.48313
	c-0.53677,0.89015-0.59818,1.90607-0.8028,2.8867c-0.13544,0.64913-0.35378,1.26731-0.39283,1.95244
	c-0.0301,0.52769-0.44576,1.02137-0.57701,1.55781c-0.27795,1.13593-0.48553,2.28923-0.7149,3.43682
	c-0.1024,0.51231-0.2545,1.02693-0.26292,1.54249c-0.00931,0.56953-0.09459,1.08083-0.3664,1.58894
	c-0.13383,0.25016-0.13366,0.58648-0.14361,0.88549c-0.02251,0.67753-0.14518,1.3195-0.3876,1.9618
	c-0.24289,0.64356-0.37643,1.33154-0.52325,2.00757c-0.31908,1.46922-0.62733,2.94103-0.91544,4.41658
	c-0.09012,0.46156-0.1122,0.93768-0.14685,1.4085c-0.07134,0.96904-0.10701,1.94132-0.20452,2.90752
	c-0.04435,0.43958-0.18505,0.87242-0.30956,1.30032c-0.306,1.05151-0.47349,2.11044-0.46596,3.21673
	c0.00719,1.05511-0.14806,2.11082-0.21693,3.16723c-0.02709,0.41553-0.05336,0.83775-0.01122,1.2499
	c0.12798,1.25116,0.2857,2.49937,0.44158,3.74751c0.02741,0.21951,0.0897,0.43703,0.15696,0.64878
	c0.27026,0.85089,0.51485,1.71231,0.83717,2.54337c0.18861,0.48631,0.45542,0.96275,0.77848,1.37133
	c0.40919,0.5175,0.57676,0.5541,1.15845,0.25089c0.86694-0.4519,1.70401-0.96339,2.53809-1.47513
	c0.52356-0.32123,1.01876-0.68877,1.52572-1.03695c0.09212-0.06326,0.19059-0.12263,0.26751-0.20186
	c0.83701-0.86206,1.62214-1.78191,2.51755-2.57784c0.98093-0.87196,1.61536-1.98396,2.37733-3.01231
	c0.51488-0.69486,1.11745-1.32411,1.6633-1.99689c0.31377-0.38674,0.6572-0.76988,0.8747-1.21024
	c0.56857-1.15119,1.05467-2.33834,1.42176-3.57579c0.13057-0.4401,0.35155-0.91924,0.6778-1.22333
	c1.05869-0.98676,1.91213-2.11134,2.59089-3.38087c0.38095-0.71255,0.74059-1.42208,1.31573-2.0313
	c0.42656-0.45183,0.65462-1.09442,0.95658-1.6598c0.52587-0.98459,8.38527-13.11575,8.72693-13.73541
	c0.65926-1.19574,1.39249-2.35046,2.0718-3.53551c0.19279-0.3363,0.30469-0.7189,0.45458-1.0799
	c0.6223-1.49866,1.26019-2.99108,1.86359-4.49731c0.7687-1.91885,1.66187-3.79047,2.18192-5.80534
	c0.10971-0.42503,0.34224-0.82333,0.55014-1.21706c0.455-0.86167,0.94501-1.705,1.39355-2.56991
	c0.43645-0.84158,0.90309-1.66885,1.13603-2.60586c0.10582-0.42569,0.31886-0.82677,0.50089-1.2311
	c0.86812-1.92835,2.07417-3.69402,2.64893-5.76836c0.30344-1.09509,0.83899-2.12376,1.2211-3.19969
	c0.52295-1.47239,0.9856-2.9661,1.50095-4.44129c0.3499-1.00159,0.73761-1.9903,1.12395-2.97871
	c0.29482-0.75425,0.60988-1.50071,0.9232-2.24759c0.60088-1.43225,1.19862-2.86591,1.81372-4.29205
	c0.40948-0.94944,0.86627-1.87867,1.26662-2.83176c0.47508-1.13097,0.84805-2.309,1.382-3.41003
	c0.68208-1.40641,1.4949-2.74882,2.22301-4.13373c0.33572-0.63856,0.57683-1.32666,0.90877-1.96747
	c0.66798-1.28953,1.30934-2.59889,2.07249-3.83146c0.79308-1.28091,1.66766-2.5195,2.5975-3.70531
	c0.94659-1.20721,2.02531-2.30989,3.00409-3.49315c0.52007-0.62872,1.19055-0.88387,1.9417-1.03967
	c0.27165-0.05634,0.56645-0.09567,0.79779-0.23232c0.47768-0.28214,1.0029-0.32484,1.52394-0.40048
	c0.54045-0.07844,0.70485,0.0269,0.84645,0.55909c0.22307,0.83849,0.09386,1.66989-0.0986,2.49409
	c-0.12625,0.54066-0.3154,1.07112-0.39143,1.61797c-0.10982,0.79-0.37643,1.513-0.73778,2.21291
	c-0.08916,0.1727-0.16991,0.35651-0.21387,0.54472c-0.40816,1.74754-1.24481,3.28726-2.2355,4.76488
	c-0.46437,0.6926-0.83453,1.44844-1.2464,2.17618c-0.27408,0.48431-0.5464,0.96959-0.81953,1.45444
	c-0.12352,0.21924-0.27724,0.42697-0.36565,0.65954c-0.47116,1.2395-1.30821,2.25597-2.01239,3.35396
	c-0.82787,1.29084-1.56761,2.63201-2.18355,4.03673c-0.18875,0.43048-0.24898,0.91985-0.45456,1.33992
	c-0.67502,1.37931-1.40302,2.73264-2.08269,4.10976c-0.27061,0.54834-0.44371,1.14434-0.7063,1.69725
	c-0.21277,0.44806-0.49428,0.86336-0.74281,1.29461c-0.11156,0.19358-0.2838,0.38089-0.31404,0.58777
	c-0.14687,1.00495-0.82608,1.73897-1.24561,2.60354c-0.33655,0.69363-0.51134,1.4736-0.69817,2.23001
	c-0.22295,0.90261-0.57094,1.74336-0.96486,2.58444c-0.41058,0.87662-0.63553,1.83811-1.00381,2.73702
	c-0.64066,1.56367-0.92639,3.26321-1.89566,4.70692c-0.3479,0.5182-0.45464,1.19419-0.69987,1.78637
	c-0.40573,0.97979-0.87701,1.9346-1.23801,2.92994c-0.2254,0.62143-0.29999,1.2977-0.44011,1.94983
	c-0.02925,0.13615-0.00246,0.31422-0.08047,0.40533c-0.73044,0.85312-0.84717,1.98818-1.36946,2.94058
	c-0.41377,0.75454-0.69221,1.58468-1.01404,2.38795c-0.48381,1.20762-0.97743,2.41238-1.41449,3.63705
	c-0.14281,0.40018-0.02815,0.90266-0.20358,1.27774c-0.16452,0.35176-0.50725,0.59618-0.66809,1.01572
	c-0.40935,1.06767-0.47025,2.25497-1.11713,3.23724c-0.04532,0.06881-0.09454,0.15402-0.09392,0.2312
	c0.00749,0.90806-0.55083,1.68731-0.58398,2.58595c-0.00508,0.13757-0.02365,0.29066-0.0885,0.40739
	c-0.3894,0.70071-0.47432,1.47607-0.6259,2.24532c-0.33978,1.72456-0.74229,3.43694-1.13025,5.15179
	c-0.32402,1.43232-0.39543,2.87891-0.29131,4.33904c0.00955,0.13422,0.04141,0.31387-0.02762,0.39931
	c-0.60616,0.75047-0.45097,1.66154-0.49483,2.50436c-0.07689,1.47781-0.06105,2.96222-0.03247,4.44288
	c0.01231,0.63792,0.15804,1.2728,0.23438,1.9101c0.06654,0.5554,0.15694,1.11118,0.17354,1.66868
	c0.04512,1.51554,0.30437,3.00019,0.51508,4.4967c0.16246,1.15391,0.36931,2.30661,0.46654,3.47993
	c0.13179,1.59016,0.61562,3.13378,1.58197,4.50802c0.8624,1.22638,2.25812,1.12051,3.23676,0.45697
	c0.67105-0.45499,1.36697-0.87328,2.05254-1.30679c0.07091-0.04485,0.1575-0.06966,0.21901-0.12395
	c1.37723-1.21552,2.79439-2.39342,3.7935-3.97018c0.17906-0.28259,0.33238-0.58488,0.53705-0.84731
	c1.29471-1.65991,2.34515-3.47394,3.37616-5.30106c0.05444-0.09647,0.11906-0.19347,0.19955-0.26797
	c0.74579-0.69014,1.09068-1.63235,1.43498-2.52828c0.38391-0.99911,1.09738-1.4216,2.03537-1.64918
	c0.05348-0.01297,0.11443-0.02374,0.16608-0.01132c0.6739,0.16216,1.3555,0.30016,2.01732,0.50257
	c0.60281,0.18436,0.87563,0.70055,0.95897,1.27358c0.07599,0.52242,0.08957,1.06583,0.03677,1.59056
	c-0.03163,0.31429-0.19078,0.64983-0.38356,0.90784c-0.77011,1.03069-1.5869,2.0264-2.36311,3.05267
	c-0.31926,0.4221-0.55923,0.90363-0.87128,1.33187c-0.52539,0.72104-1.08942,1.41389-1.61745,2.1331
	c-0.26358,0.35905-0.47441,0.75632-0.72488,1.1256c-0.71677,1.05672-1.4512,2.10159-2.15984,3.1637
	c-0.44827,0.67188-0.86461,1.36514-1.29207,2.0508c-0.58835,0.94375-1.1658,1.8944-1.76543,2.83089
	c-0.16414,0.25638-0.3885,0.47474-0.58928,0.70703c-0.58363,0.67513-1.21982,1.31216-1.7388,2.0336
	c-0.44405,0.61728-0.87875,1.17722-1.55949,1.57828c-0.83411,0.49139-1.56313,1.15822-2.38223,1.67897
	c-0.67722,0.43054-1.36366,0.88345-2.20956,0.95486c-0.30579,0.02582-0.6133,0.08261-0.90933,0.16411
	c-2.07826,0.57211-3.89138-0.09897-5.51385-1.3073c-0.97318-0.72479-1.58756-1.79816-2.04159-2.93286
	c-0.27046-0.67596-0.52492-1.35843-0.77876-2.04087c-0.05801-0.15598-0.09721-0.3219-0.12235-0.4867
	c-0.35825-2.34803-0.69456-4.69956-1.07301-7.0443c-0.37032-2.29441-0.60649-4.59927-0.65736-6.92234
	c-0.02508-1.14499-0.09105-2.29363-0.03034-3.43487c0.0876-1.64713,0.29602-3.28744,0.41199-4.93353
	c0.15183-2.15491,0.59171-4.25926,1.03179-6.36597c0.25522-1.22168,0.48239-2.44922,0.57873-3.72003
	c-0.28935,0.41962-0.58984,0.83207-0.866,1.2602c-0.81722,1.26701-1.64864,2.52583-2.42786,3.81602
	c-0.51836,0.85828-0.92989,1.76839-1.68497,2.48175c-0.39497,0.37315-0.65889,0.90548-0.91511,1.40054
	c-0.46587,0.90008-1.0481,1.69558-1.73576,2.44546c-0.49969,0.54489-0.8447,1.23717-1.22836,1.88177
	c-0.72774,1.22265-1.42086,2.46595-2.15249,3.68621c-0.68988,1.15063-1.43416,2.26897-2.11193,3.42645
	c-0.79134,1.3514-1.48655,2.76114-2.317,4.08699c-0.70953,1.1328-1.55113,2.18289-2.33472,3.26927
	c-0.26105,0.36193-0.52201,0.72396-0.78544,1.08418c-0.45942,0.62822-0.89205,1.27882-1.38773,1.87712
	c-0.82018,0.98999-1.66898,1.95723-2.53082,2.91136c-0.42941,0.4754-0.88173,0.94154-1.38103,1.34
	c-1.11298,0.88821-2.16772,1.86702-3.48809,2.46167c-1.32767,0.59795-2.67978,1.17342-4.13454,1.31732
	c-1.54926,0.15326-2.93047-0.39334-4.05639-1.46274c-0.84188-0.79962-1.47202-1.75023-1.74316-2.9162
	c-0.11971-0.51473-0.32587-1.01308-0.52883-1.50397c-0.48689-1.1776-0.61614-2.43327-0.8709-3.66539
	c-0.4591-2.22039-0.25314-4.46775-0.36273-6.70031c-0.0459-0.9351,0.19201-1.88452,0.30485-2.82694
	c0.18298-1.52824,0.37539-3.05538,0.55252-4.58429c0.21549-1.86016,0.30122-3.73753,0.77261-5.56311
	c0.06898-0.26717,0.05114-0.55581,0.08679-0.83281c0.03544-0.2754,0.08247-0.54961,0.13388-0.82256
	c0.06136-0.32579,0.13794-0.64873,0.19849-0.97466c0.07139-0.3844,0.13297-0.77064,0.19821-1.15618
	c0.04501-0.26596,0.089-0.53209,0.13345-0.79815c-0.05171-0.01928-0.10342-0.03857-0.15513-0.05785
	c-0.13383,0.24879-0.25127,0.50819-0.40421,0.74461c-0.86499,1.33708-1.74288,2.66583-2.60527,4.00458
	c-0.16543,0.25679-0.27921,0.54657-0.42041,0.81928c-0.9502,1.83508-1.88951,3.67596-2.85834,5.50117
	c-0.36594,0.68941-0.81268,1.33542-1.20132,2.0134c-0.50002,0.87225-0.95886,1.76848-1.4707,2.63354
	c-1.03765,1.75379-2.0839,3.49859-3.33592,5.11912c-0.74902,0.96945-1.33894,2.06179-2.00071,3.09868
	c-0.14996,0.23498-0.26447,0.50636-0.45801,0.69748c-1.18079,1.16595-2.13799,2.49925-3.08629,3.85549
	c-0.58543,0.83727-1.39446,1.52166-2.12575,2.25202c-0.37432,0.37386-0.84005,0.66052-1.19146,1.05212
	c-0.76583,0.85341-1.69074,1.42162-2.74125,1.86938c-0.7443,0.31725-1.43171,0.78401-2.25873,0.85378
	c-1.08145,0.09123-2.14537,0.4474-3.2486,0.23131c-0.02715-0.00531-0.05728,0.00275-0.08374-0.00417
	c-1.34893-0.35315-2.73227-0.62761-3.82102-1.59871c-0.62395-0.55652-1.28914-1.07883-1.84036-1.70105
	c-0.43777-0.49417-0.7879-1.08932-1.07438-1.68866c-0.42194-0.88274-0.74757-1.81117-1.12355-2.71627
	c-0.43714-1.05231-0.46688-2.1855-0.64755-3.28612c-0.39517-2.40732-0.39935-4.84728-0.56627-7.27427
	c-0.10674-1.55217,0.01174-3.06908,0.19649-4.59947c0.11372-0.94199,0.11427-1.89717,0.18869-2.84463
	c0.02356-0.29993,0.12485-0.59338,0.18514-0.89088c0.29421-1.45187,0.57607-2.90635,0.88437-4.3552
	c0.13932-0.65475,0.32304-1.30046,0.49969-1.9467c0.11886-0.43488,0.19736-0.86488,0.03741-1.36794
	c-0.44984,0.16013-0.5634,0.55898-0.73269,0.8797c-0.86186,1.63293-1.69278,3.28223-2.55967,4.91244
	c-0.26071,0.49026-0.61637,0.92908-0.90239,1.40711c-0.242,0.40449-0.43895,0.83566-0.66907,1.24763
	c-0.27173,0.48644-0.6016,0.9451-0.82992,1.4503c-1.00484,2.22346-2.34735,4.24805-3.64217,6.30257
	c-0.41675,0.66125-0.75557,1.37144-1.16814,2.03557c-0.33874,0.54527-0.7374,1.05308-1.10238,1.58241
	c-0.14223,0.20629-0.28818,0.41532-0.39255,0.64151c-0.45721,0.99079-0.98071,1.93806-1.67488,2.78767
	c-0.19293,0.23614-0.33705,0.51481-0.48611,0.78365c-0.55637,1.00352-1.1783,1.95975-1.95486,2.81053
	c-0.13077,0.14326-0.23514,0.31371-0.33518,0.48146c-0.91333,1.53135-2.06823,2.82668-3.58143,3.79971
	c-0.41465,0.26662-0.74912,0.65807-1.11967,0.99303c-0.08228,0.07439-0.14867,0.19104-0.24405,0.22249
	c-1.26667,0.41771-2.35026,1.28854-3.74381,1.41638c-0.85737,0.07864-1.70971,0.3-2.54289,0.53365
	c-1.20901,0.33904-2.43394,0.33574-3.6667,0.29997c-0.16708-0.00485-0.34368-0.0105-0.4983-0.06532
	c-1.67338-0.59334-3.44963-0.94267-4.95973-1.93044c-1.07957-0.70615-2.05819-1.55208-2.85266-2.58278
	c-0.51125-0.66328-0.99622-1.34685-1.49113-2.02267c-0.06603-0.09018-0.13923-0.18133-0.17878-0.28374
	c-0.57341-1.48483-1.33786-2.89968-1.6756-4.4707c-0.1881-0.87495-0.31254-1.76456-0.7494-2.56709
	c-0.05003-0.09191-0.04589-0.21775-0.05162-0.32866c-0.06492-1.25789-0.15613-2.51542-0.17834-3.77414
	c-0.01279-0.72489,0.12088-1.45133,0.1307-2.17786c0.0382-2.82719,0.53537-5.63075,0.41878-8.46703
	c-0.02037-0.49556,0.08527-1.00565,0.1939-1.49545c0.3462-1.56101,0.55981-3.132,0.6313-4.73363
	c0.03828-0.85768,0.27816-1.71023,0.46566-2.55653c0.31972-1.4431,0.63088-2.89005,1.01852-4.31556
	c0.36469-1.34109,0.82216-2.65701,1.24137-3.98319c0.41267-1.30547,0.81006-2.61618,1.24721-3.91344
	c0.73229-2.17308,1.50228-4.33349,2.22977-6.50813c0.16727-0.50002,0.21931-1.03781,0.33865-1.55495
	c0.06221-0.26955,0.13292-0.54132,0.23888-0.79581c0.3433-0.82462,0.72977-1.63197,1.05306-2.46407
	c0.45562-1.17271,0.82407-2.38076,1.31168-3.53923c0.80043-1.90164,1.51741-3.84291,2.5846-5.62568
	c0.26953-0.45025,0.37676-0.99529,0.6272-1.45975c1.03507-1.91966,2.09591-3.82547,3.14852-5.73567
	c0.44446-0.80656,0.87828-1.61946,1.34381-2.41373c0.23931-0.40829,0.56485-0.76614,0.80304-1.17496
	c0.36485-0.62623,0.67138-1.28635,1.03326-1.91444c0.37634-0.65318,0.70346-1.36352,1.20318-1.91097
	c1.13289-1.24108,1.7114-2.80402,2.59514-4.18635c0.79663-1.24608,1.43787-2.6039,2.32961-3.77374
	c1.21636-1.59569,2.22657-3.34612,3.62568-4.80785c0.5381-0.56218,0.99101-1.21303,1.43403-1.85699
	c0.40475-0.58834,0.96313-1.00126,1.4701-1.47951c1.32325-1.24833,2.69191-2.4465,4.18473-3.47899
	c1.03111-0.71314,2.14303-1.32414,3.26699-1.88415c1.0964-0.54627,2.33684-0.51637,3.5281-0.67276
	c2.41134-0.3166,4.80458-0.02881,7.19992,0.18686c1.6971,0.15281,3.39962,0.27509,5.08577,0.51082
	c1.4373,0.20094,2.85722,0.53206,4.28023,0.82771c1.69929,0.35305,3.39381,0.72902,5.09016,1.09622
	c1.39236,0.3014,2.80769,0.52664,4.1682,0.93452C75.47245,30.76392,76.28344,31.29644,77.15125,31.72037z"/>
</svg>
