<?xml version="1.0" encoding="utf-8"?>
<!-- Generator: Adobe Illustrator 25.4.1, SVG Export Plug-In . SVG Version: 6.00 Build 0)  -->
<svg version="1.1" id="Layer_1" xmlns="http://www.w3.org/2000/svg" xmlns:xlink="http://www.w3.org/1999/xlink" x="0px" y="0px"
	 viewBox="0 0 496.37256 189.16342" style="enable-background:new 0 0 496.37256 189.16342;" xml:space="preserve">
<style type="text/css">
	.st0{fill:#EFEDE5;}
	.st1{fill:#B48039;}
	.st2{fill:#AD8246;}
	.st3{fill:none;stroke:#B48039;stroke-width:0.99892;stroke-miterlimit:10;}
	.st4{fill:#00FFFF;}
</style>
<g id="Bittercube-Flavors-09_00000153680615241532450250000001285331751206422458_">
	<g>
		<path class="st1" d="M182.59967,95.46355c0.4391-0.15015,0.90565-0.24863,1.31346-0.46031
			c1.36487-0.70848,2.73778-1.40948,4.05186-2.20536c1.1461-0.69412,2.24658-1.47397,3.30965-2.29087
			c0.63519-0.48811,1.15919-1.12085,1.73404-1.68771c0.15779-0.15556,0.30853-0.32045,0.48006-0.45945
			c0.58315-0.47263,1.15379-0.96447,1.76657-1.39594c1.1122-0.78314,1.91002-1.87623,2.83438-2.83989
			c0.6794-0.7083,1.4164-1.33662,2.15196-1.97585c0.24849-0.21595,0.47223-0.47933,0.64587-0.75916
			c0.76196-1.22822,1.7415-2.2524,2.842-3.17885c0.72736-0.61232,1.42696-1.25933,2.11417-1.91676
			c0.25888-0.24766,0.49239-0.54467,0.66066-0.86014c0.61783-1.1582,1.53754-2.05181,2.48651-2.92229
			c0.82271-0.75465,1.68687-1.46194,2.22284-2.48283c0.25838-0.49206,0.61868-0.93126,0.9397-1.38957
			c0.68208-0.97391,1.24359-1.99608,1.28314-3.09262c0.39198-0.39467,0.72417-0.68557,1.00371-1.02042
			c0.46443-0.5564,0.90881-1.13102,1.33598-1.71667c0.39313-0.53901,0.74977-1.0901,1.30531-1.50406
			c0.26968-0.20094,0.38402-0.60574,0.58046-0.91068c0.27116-0.42093,0.52243-0.86038,0.83998-1.24408
			c0.30025-0.3628,0.66544-0.44886,1.19138-0.32153c0.84387,0.2043,1.55719,0.59481,2.25287,1.0733
			c0.31856,0.21913,0.44318,0.49587,0.377,0.8612c-0.04477,0.24726-0.07707,0.50862-0.18343,0.73089
			c-0.53015,1.10752-1.07742,2.20701-1.633,3.30206c-0.09914,0.19547-0.27942,0.34802-0.39828,0.53555
			c-0.26866,0.42376-0.56207,0.83843-0.77359,1.29042c-0.40044,0.85563-0.74005,1.73949-1.12471,2.60282
			c-0.28453,0.63866-0.60887,1.25949-0.89775,1.8963c-0.10286,0.22672-0.16003,0.47533-0.22664,0.71711
			c-0.23769,0.86267-0.39688,1.75666-0.73189,2.57928c-0.21051,0.51691-0.4763,1.0349-0.80765,1.51971
			c-0.51501,0.75359-0.91518,1.59339-1.29796,2.42699c-0.25536,0.55614-0.35117,1.18469-0.5984,1.74557
			c-0.35802,0.81216-0.79507,1.58916-1.18561,2.38741c-0.29523,0.6034-0.59598,1.20638-0.84518,1.8292
			c-0.15369,0.38411-0.20816,0.80704-0.32007,1.20895c-0.11212,0.40263-0.22453,0.80637-0.36433,1.19986
			c-0.44867,1.26295-0.91606,2.51929-1.35774,3.78465c-0.04652,0.13329-0.02396,0.36413,0.06392,0.44954
			c0.08221,0.07991,0.32648,0.08445,0.44139,0.01949c0.20978-0.11856,0.4267-0.28195,0.5509-0.48228
			c0.25047-0.4041,0.44633-0.84119,0.87006-1.10606c0.33661-0.9325,1.19856-1.549,1.50471-2.5014
			c0.04224-0.13142,0.11002-0.26202,0.19395-0.37153c0.93517-1.21948,1.88544-2.4275,2.81192-3.6535
			c0.72363-0.95753,1.4494-1.91585,2.12004-2.91035c0.78949-1.17074,1.73885-2.1797,2.78596-3.12073
			c1.08247-0.97277,2.02614-2.07697,2.83044-3.29933c0.28981-0.44042,0.62213-0.87077,1.00771-1.22706
			c1.37665-1.27194,2.79631-2.49725,4.1769-3.76503c1.13127-1.0388,2.21365-2.13109,3.35178-3.16206
			c0.4308-0.39024,0.9342-0.71648,1.44498-0.99861c0.81033-0.4476,1.58458-0.9226,2.28343-1.54549
			c0.95012-0.84684,2.09471-1.39062,3.28897-1.81622c1.18716-0.42305,2.36639-0.87809,3.57578-1.22651
			c1.39366-0.40149,2.76738-0.31755,4.02928,0.50148c0.14081,0.09138,0.2803,0.18597,0.42741,0.26627
			c1.18617,0.64751,2.166,1.57992,3.25731,2.35838c0.32809,0.23405,0.52051,0.56601,0.64172,0.95757
			c0.21475,0.69376,0.46243,1.37748,0.70294,2.06307c0.17952,0.51169,0.21893,1.02319,0.15247,1.56822
			c-0.06378,0.52309-0.08441,1.07127,0.00101,1.58775c0.10909,0.6596,0.01546,1.27792-0.11784,1.91169
			c-0.16115,0.76611-0.26744,1.54414-0.44051,2.30725c-0.22267,0.98187-0.46283,1.96132-0.74097,2.92873
			c-0.40948,1.42415-0.86014,2.83643-1.28877,4.25513c-0.02191,0.07261-0.00166,0.15797,0.00002,0.38011
			c0.15248-0.17687,0.22911-0.25647,0.29532-0.34393c0.88857-1.17404,1.66116-2.42024,2.75867-3.45319
			c0.90813-0.85476,1.92082-1.61757,2.67482-2.64813c0.42278-0.57783,1.02129-1.02396,1.50603-1.56063
			c0.35379-0.39169,0.64932-0.83579,0.97458-1.25358c0.15381-0.19755,0.28986-0.42052,0.47943-0.57672
			c1.27768-1.05253,2.39832-2.25854,3.4743-3.50922c1.04391-1.21337,2.26404-2.24384,3.46457-3.28973
			c0.4574-0.39847,1.03809-0.65448,1.55893-0.98123c0.96317-0.60419,1.8822-1.27528,2.69797-2.06328
			c0.52859-0.51066,1.10196-0.94409,1.72-1.32367c0.3317-0.20369,0.68954-0.37357,1.05246-0.51567
			c0.59927-0.23468,1.20795-0.44772,1.8205-0.64575c0.78891-0.25505,1.60681-0.25688,2.41376-0.14723
			c1.81964,0.24727,3.55032,0.76987,5.11929,1.76187c0.82495,0.5216,1.64529,1.04244,2.30807,1.77588
			c0.16678,0.18455,0.38455,0.32304,0.57904,0.4825c0.40976,0.33594,0.84232,0.63607,0.94455,1.23141
			c0.03888,0.22625,0.24734,0.43353,0.40576,0.62721c0.50986,0.62334,0.7894,1.35268,0.96469,2.12134
			c0.06003,0.26311,0.0545,0.56207-0.00204,0.8274c-0.31586,1.48257-0.45831,2.98362-0.59131,4.49116
			c-0.08075,0.91531-0.27859,1.82992-0.51862,2.71927c-0.35764,1.32543-0.68286,2.64995-0.67746,4.03083
			c0.00244,0.63103-0.17303,1.20398-0.40466,1.78336c-0.57007,1.42583-1.06073,2.88445-1.66211,4.29633
			c-0.40167,0.94292-0.75034,1.9267-1.41815,2.73832c-0.06967,0.08463-0.12384,0.18932-0.15945,0.29351
			c-0.42773,1.25231-1.2131,2.31357-1.83359,3.46303c-0.34476,0.63874-0.61069,1.31957-0.92743,1.97407
			c-0.21854,0.45168-0.39362,0.95062-0.71255,1.32133c-0.47278,0.54939-0.77499,1.18334-0.99545,1.83369
			c-0.31296,0.9233-0.89322,1.6748-1.38538,2.48157c-0.42709,0.70015-0.77875,1.41991-0.97107,2.21671
			c-0.03934,0.16294-0.03934,0.36264-0.13651,0.48003c-0.75623,0.91406-0.98721,2.0623-1.39188,3.12634
			c-0.45523,1.1969-0.90573,2.40943-1.19067,3.65356c-0.3168,1.38346-0.57193,2.7821-0.57932,4.23179
			c-0.00488,0.95366,0.05112,1.8778,0.13492,2.823c0.06827,0.77016,0.25436,1.45237,0.5206,2.15231
			c0.26614,0.69968,0.45792,1.42731,0.70245,2.13573c0.06195,0.17949,0.20218,0.3316,0.30399,0.49779
			c0.13147,0.21461,0.32877,0.41611,0.37854,0.64877c0.2045,0.95519,0.98611,1.38627,1.67474,1.88659
			c0.80798,0.58706,1.76923,0.57928,2.6716,0.38573c4.3772-2.75747,6.68805-5.50417,8.59061-7.38859
			c1.01865-0.91878,2.01752-1.83347,2.73383-3.0434c0.46164-0.77974,0.9501-1.57182,1.70853-2.15443
			c0.34052-0.2616,0.55624-0.69493,0.80334-1.06709c0.72626-1.09391,1.41956-2.21031,2.16699-3.28935
			c0.37976-0.54828,0.87091-1.0181,1.27206-1.55313c1.02301-1.36435,2.05328-2.72503,3.02118-4.12819
			c0.50394-0.73061,0.95859-1.49866,1.26178-2.35802c0.22015-0.62399,0.63956-1.17497,0.93573-1.77549
			c0.40723-0.82577,0.78436-1.66647,1.16928-2.50314c0.1261-0.27406,0.20993-0.57053,0.35883-0.83056
			c0.34686-0.60573,0.72751-1.19203,1.08051-1.79441c0.08243-0.14072,0.10114-0.31734,0.16351-0.47163
			c0.08267-0.20454,0.14026-0.43613,0.27664-0.5992c0.71277-0.85204,1.09161-1.87791,1.56488-2.85954
			c0.42221-0.87566,0.94714-1.70116,1.40076-2.56248c0.33798-0.64178,0.67435-1.28961,0.9411-1.96262
			c0.56561-1.4269,1.14655-2.83968,2.02103-4.11595c0.29895-0.43633,0.50839-0.93294,0.78726-1.38435
			c0.29291-0.47406,0.54459-1.01274,0.94971-1.36926c0.63095-0.55524,0.98425-1.28288,1.45615-1.9363
			c0.19519-0.27032,0.34607-0.57389,0.55133-0.83549c0.57065-0.7273,1.09531-1.47758,1.38278-2.36924
			c0.02505-0.0776,0.07327-0.15158,0.12454-0.21629c0.97159-1.22554,1.95261-2.44368,2.91397-3.67719
			c0.28891-0.37069,0.49301-0.80884,0.79105-1.17074c0.45978-0.55833,0.94797-1.09659,1.45895-1.60854
			c0.61169-0.61279,1.27118-1.17764,1.88928-1.78429c0.5853-0.57441,1.23822-1.04146,1.96478-1.42017
			c0.61597-0.32105,1.185-0.74629,1.82327-1.00673c0.79501-0.32438,1.54758-0.79326,2.44705-0.83974
			c0.20953-0.01083,0.41733-0.14766,0.61691-0.24501c1.76468-0.86082,3.6163-1.09251,5.55981-0.86972
			c1.6373,0.18768,3.1846,0.69866,4.63593,1.40066c1.56659,0.7577,3.23923,1.23482,4.79279,2.00618
			c0.85199,0.423,1.71042,0.83306,2.56573,1.24938c0.37726,0.18363,0.7774,0.33277,1.12512,0.56144
			c0.43936,0.28893,0.8551,0.62199,1.24338,0.9772c0.21878,0.20016,0.24985,0.50778,0.10297,0.78081
			c-0.11795,0.21934-0.25803,0.43523-0.42615,0.61777c-0.96756,1.05086-2.06897,1.95592-3.15317,2.88084
			c-0.70157,0.59846-1.41315,1.1955-2.04224,1.8663c-1.1748,1.25274-2.65234,1.50734-3.89984,0.61837
			c-0.26508-0.18889-0.6156-0.25726-0.92603-0.38308c-1.3978-0.56645-2.79669-1.13011-4.19226-1.70194
			c-0.7489-0.30685-1.51721-0.57977-2.23154-0.95432c-1.08548-0.56922-2.24054-0.66268-3.4227-0.64721
			c-0.18689,0.00245-0.38678,0.07765-0.55624,0.16601c-1.10422,0.5756-2.10669,1.28413-2.84464,2.30927
			c-0.52155,0.72456-0.99606,1.48463-1.54376,2.1882c-0.40796,0.52408-0.87567,1.00826-1.35889,1.46577
			c-0.93463,0.88501-1.59723,1.93233-2.02795,3.13924c-0.18784,0.5265-0.40973,1.04076-0.61078,1.56264
			c-0.27777,0.72097-0.5517,1.42924-1.00552,2.08079c-0.39182,0.56254-0.58456,1.26073-0.89429,1.88459
			c-0.1976,0.39808-0.42035,0.79005-0.68112,1.14896c-0.38138,0.52486-0.68756,1.06431-0.89368,1.69386
			c-0.20609,0.62944-0.54272,1.23299-0.91061,1.78939c-1.06653,1.61324-2.05374,3.25463-2.72385,5.08767
			c-0.33154,0.9069-0.88614,1.73257-1.34433,2.59257c-0.0787,0.14778-0.20401,0.27352-0.26749,0.42621
			c-0.49304,1.18658-0.97601,2.37736-1.46246,3.56667c-0.1261,0.30822-0.26669,0.61121-0.37784,0.92469
			c-0.36185,1.02057-0.69949,2.0499-1.07202,3.0665c-0.4704,1.28379-0.9762,2.55463-1.44412,3.83929
			c-0.13266,0.36409-0.22644,0.75253-0.26868,1.13743c-0.12204,1.11246-0.31027,2.20923-0.57913,3.29678
			c-0.24106,0.97496-0.44348,1.96124-0.61429,2.95092c-0.06522,0.37778-0.01614,0.78073,0.01822,1.16891
			c0.04739,0.53564,0.02316,1.05045-0.12314,1.5779c-0.37009,1.33453-0.25519,2.64222,0.311,3.91363
			c0.1232,0.27665,0.18793,0.5843,0.24588,0.88419c0.22852,1.18217,1.56931,1.94694,2.70386,1.54912
			c1.57489-0.55226,3.02802-1.30714,4.24261-2.47435c0.06042-0.05806,0.11462-0.14037,0.18744-0.16506
			c0.90018-0.30515,1.3674-1.12096,2.03125-1.70459c0.52368-0.46046,1.07684-0.88742,1.60068-1.34774
			c0.86069-0.75631,1.80997-1.44353,2.53183-2.31696c0.67474-0.81642,7.11008-7.13687,8.17477-8.46465
			c0.54788-0.68323,1.9137-2.47658,2.14624-2.85841c0.49323-0.80979,0.99057-1.61814,1.51889-2.40515
			c0.40466-0.60279,0.86511-1.1678,1.29065-1.75694c0.76468-1.05878,1.53482-2.11491,2.05112-3.32737
			c0.03247-0.0762,0.07074-0.15809,0.12878-0.21404c1.27197-1.22608,2.08401-2.82294,3.30011-4.0965
			c0.19684-0.20614,0.26617-0.53452,0.39255-0.80727c0.06918-0.14925,0.12659-0.30452,0.20389-0.44929
			c0.06567-0.12305,0.18817-0.22493,0.22406-0.35336c0.30472-1.091,1.13461-1.90031,1.55667-2.94006
			c0.21909-0.53968,0.74701-0.95864,1.15271-1.41684c0.61673-0.69662,1.15625-1.43036,1.43643-2.33867
			c0.37338-1.21057,1.06866-2.27106,1.67795-3.36514c0.40549-0.72809,0.93155-1.39308,1.43924-2.05911
			c0.5531-0.72547,1.37781-1.13438,2.08023-1.68594c0.21942-0.17231,0.45416-0.32561,0.68546-0.48232
			c0.43835-0.29697,0.91046-0.28748,1.31406,0.03522c0.28305,0.2263,0.61792,0.42255,0.81845,0.70982
			c0.36557,0.52381,0.61124,1.08852,0.04395,1.7686c-0.30222,0.36228-0.4183,0.78497-0.49698,1.23
			c-0.10236,0.57843-0.24713,1.15316-0.29764,1.73607c-0.07767,0.89802-0.44724,1.65116-1.01337,2.32195
			c-0.53574,0.63475-0.83868,1.39314-0.99927,2.17478c-0.16513,0.80328-0.49139,1.53631-0.74585,2.30081
			c-0.104,0.31242-0.14832,0.64429-0.22916,0.96493c-0.10834,0.42988-0.18054,0.87633-0.34927,1.28194
			c-0.31152,0.74873-0.63959,1.46864-0.71179,2.30811c-0.06601,0.76843-0.32855,1.51986-0.50287,2.27916
			c-0.30316,1.32033-0.96683,2.52756-1.21625,3.8634c-0.08093,0.43382-0.17264,0.87848-0.15637,1.31432
			c0.01941,0.51785-0.07098,0.99439-0.22989,1.47903c-0.26944,0.82195-0.4975,1.65741-0.76022,2.48169
			c-0.11856,0.372-0.3244,0.72031-0.41083,1.09765c-0.21097,0.92143-0.3764,1.85333-0.55728,2.78159
			c-0.02139,0.10959,0.00375,0.23618-0.04129,0.33205c-0.55029,1.17113-0.42978,2.50266-0.88788,3.69715
			c-0.07645,0.19922-0.09238,0.45295-0.04639,0.66172c0.11957,0.54333,0.02652,1.06097-0.12122,1.57323
			c-0.35098,1.21702-0.17413,2.44175-0.09818,3.66962c0.06058,0.97798,0.5062,1.89526,0.42734,2.89173
			c-0.00641,0.08124,0.00754,0.17342,0.04138,0.24704c0.35812,0.77914,0.73303,1.55074,1.08142,2.33416
			c0.29855,0.67141,0.87274,0.72578,1.47824,0.67561c0.24344-0.02016,0.49457-0.11819,0.71365-0.23453
			c1.55249-0.8243,3.15045-1.57363,4.37109-2.90936c0.58267-0.63764,1.28088-1.16997,1.86111-1.80952
			c0.91922-1.01315,1.75165-2.07897,2.27219-3.38698c0.30438-0.76482,0.90039-1.40897,1.3175-2.13486
			c0.37561-0.6536,0.68405-1.34563,1.02585-2.01884c0.27692-0.54533,0.54144-1.09804,0.84372-1.62907
			c0.38748-0.68064,0.81448-1.33862,1.21179-2.01379c0.91626-1.55693,1.69354-3.1882,2.64224-4.7326
			c0.87256-1.42043,1.54398-2.96746,2.26181-4.47875c0.48022-1.011,1.01401-1.97923,1.67572-2.88544
			c0.4772-0.6535,0.82202-1.4067,1.32135-2.04015c0.58899-0.74716,0.89633-1.6527,1.51538-2.39045
			c0.48993-0.58384,0.76749-1.3464,1.13614-2.03133c0.43698-0.81196,0.84946-1.63817,1.31668-2.43223
			c0.16934-0.28776,0.2359-0.55384,0.20193-0.87087c-0.02063-0.19296-0.02829-0.39022-0.01212-0.58304
			c0.00894-0.10608,0.04974-0.25081,0.12695-0.30322c0.56641-0.38439,0.41901-1.17682,0.9639-1.59506
			c0.80728-0.61971,1.34634-1.43024,1.76642-2.38608c0.40607-0.9239,0.75623-1.91415,1.47772-2.68042
			c0.07245-0.07697,0.12604-0.19047,0.14612-0.2951c0.21268-1.11118,0.72827-2.10818,1.17621-3.12969
			c0.33511-0.7642,0.68536-1.52213,1.04819-2.27356c0.0809-0.16759,0.2352-0.30318,0.36816-0.44154
			c0.35291-0.36722,0.49927-0.83157,0.78851-1.3835c-0.79562,0.06699-1.43179,0.11853-2.0675,0.17489
			c-0.33264,0.02948-0.66544,0.10436-0.99646,0.09554c-2.2084-0.05874-4.4108-0.20291-6.61401-0.37826
			c-1.04205-0.08292-2.09903-0.18379-3.16745-0.08354c-1.16687,0.10948-2.35291,0.07227-3.52753,0.02429
			c-1.16498-0.0476-1.61679-0.98657-1.0386-2.01468c0.41135-0.73151,0.88815-1.44485,1.16815-2.22635
			c0.28543-0.79668,0.65768-1.54109,1.05365-2.27363c0.48642-0.89998,0.84131-1.86329,1.61923-2.6193
			c0.58151-0.56512,1.19504-0.78534,1.94086-0.80254c1.06461-0.02454,2.12958-0.03597,3.19449-0.04474
			c0.97873-0.00806,1.95758-0.00893,2.93634-0.00435c0.22296,0.00105,0.45294,0.00908,0.66742,0.06267
			c0.9606,0.23999,1.94321,0.17319,2.9165,0.22697c0.97757,0.05402,1.95648,0.08339,2.93506,0.11706
			c0.25134,0.00864,0.50961,0.02657,0.75418-0.01773c0.93738-0.16976,1.87204-0.34004,2.83182-0.31442
			c0.44104,0.01176,0.73666-0.25702,0.93912-0.61142c0.35995-0.63002,0.79657-1.24117,1.01843-1.91991
			c0.44556-1.36308,1.32123-2.5203,1.75125-3.88719c0.1116-0.35479,0.39069-0.67983,0.65515-0.95961
			c1.05075-1.11145,1.76721-2.43941,2.45294-3.77977c0.32922-0.6435,0.50143-1.36536,0.78198-2.03617
			c0.30005-0.71743,0.55109-1.44779,1.12091-2.04519c0.35007-0.36704,0.50153-0.92404,0.73965-1.39703
			c0.08673-0.17226,0.13217-0.37771,0.25418-0.51781c0.87082-1.00006,1.43222-2.18526,2.03964-3.34428
			c0.33716-0.64323,0.67783-1.28501,1.03549-1.91695c0.67389-1.19069,1.34213-2.38536,2.0499-3.55589
			c0.4465-0.73839,0.95862-1.43724,1.4458-2.15076c0.09396-0.13765,0.18414-0.29944,0.31778-0.38504
			c1.02423-0.6562,1.77365-1.6144,2.67487-2.40465c0.16806-0.14736,0.3606-0.26658,0.53067-0.41189
			c0.42245-0.3609,0.84622-0.72094,1.25497-1.09709c0.48694-0.44818,1.00064-0.81018,1.71188-0.72756
			c0.19427,0.02257,0.39343,0.03915,0.58734,0.02298c0.78406-0.06536,1.31427,0.36628,1.82065,0.87924
			c0.25153,0.25481,0.29697,0.52885,0.19101,0.84393c-0.05301,0.15759-0.11096,0.32527-0.21136,0.45339
			c-1.16821,1.49064-1.76007,3.29364-2.66043,4.92922c-0.35797,0.65027-0.50156,1.41681-0.76361,2.12264
			c-0.08545,0.23018-0.21671,0.45071-0.36282,0.6493c-0.24664,0.33532-0.51822,0.65265-0.78583,0.97213
			c-0.41739,0.49821-0.76419,1.02073-0.87128,1.69011c-0.03607,0.22564-0.24332,0.43004-0.39059,0.63076
			c-0.99295,1.3531-1.96887,2.71128-2.4744,4.34624c-0.18857,0.60981-0.48148,1.17622-0.54556,1.83691
			c-0.0386,0.39755-0.24713,0.80806-0.47168,1.15247c-0.61206,0.93864-1.17987,1.89488-1.63666,2.92171
			c-0.29269,0.65796-0.67148,1.27734-1.00275,1.91866c-0.06277,0.12141-0.08005,0.26572-0.12384,0.39762
			c-0.21078,0.63457-0.45401,1.24672-0.84796,1.80315c-0.59744,0.84375-1.07498,1.75174-1.32529,2.77145
			c-0.06268,0.25548-0.26312,0.47788-0.40399,0.71328c-0.33798,0.56496-0.76025,1.09901-0.65414,1.92601
			c0.25269,0.06965,0.53189,0.18673,0.8204,0.21846c0.80496,0.08852,1.60358,0.16969,2.42569,0.06013
			c1.37012-0.18259,2.73282,0.15588,4.10315,0.17721c0.64072,0.00996,1.28561,0.06678,1.9213,0.01409
			c1.03757-0.08598,2.06476-0.10095,3.10004,0.03473c0.57922,0.0759,1.17325,0.10054,1.75586,0.06652
			c0.37051-0.02163,0.65244,0.02476,0.89566,0.31201c0.12543,0.14808,0.27597,0.28553,0.44,0.38806
			c0.36972,0.2311,0.66556,0.47011,0.65714,0.97883c-0.01041,0.63004-0.03455,1.25121-0.50867,1.71844
			c-0.57571,0.56728-1.18497,1.09942-1.52844,1.85529c-0.01138,0.02509-0.02527,0.05621-0.04706,0.06843
			c-1.27734,0.71648-1.74686,2.15539-2.77118,3.09764c-0.0206,0.01896-0.04327,0.03739-0.05826,0.06044
			c-0.76694,1.17862-1.90375,1.28803-3.15466,1.1159c-0.46606-0.06414-0.94183-0.05939-1.41339-0.08168
			c-0.5571-0.02631-1.11432-0.06237-1.67178-0.06846c-1.14706-0.01251-2.29437,0.00072-3.44141-0.01508
			c-0.3895-0.00537-0.77777-0.07487-1.16757-0.09852c-0.24866-0.01507-0.50278-0.02665-0.74817,0.00677
			c-0.91302,0.12437-1.81308,0.30287-2.75137,0.16115c-0.5184-0.07833-1.06171,0.00705-1.59378,0.02037
			c-0.40353,0.0101-0.66241,0.2122-0.86093,0.56535c-0.58838,1.04662-1.21161,2.07365-1.80069,3.11987
			c-0.16211,0.28783-0.27292,0.60966-0.37195,0.92691c-0.28201,0.90343-0.68161,1.75461-1.05954,2.61975
			c-0.39215,0.8977-0.86008,1.75388-1.26135,2.64253c-0.20264,0.44889-0.21777,0.97868-0.38135,1.44978
			c-0.31113,0.89603-0.60495,1.8076-1.02652,2.6526c-0.31354,0.6285-0.5632,1.25502-0.73788,1.93241
			c-0.10568,0.40984-0.23938,0.78741-0.16144,1.22564c0.03589,0.20171-0.04504,0.44545-0.13211,0.64424
			c-0.50443,1.15219-1.0274,2.28946-1.13666,3.57553c-0.03409,0.40106-0.30057,0.77757-0.42343,1.1768
			c-0.45691,1.48493-0.91699,2.96942-1.33606,4.46523c-0.15683,0.55956-0.21606,1.14803-0.29944,1.72626
			c-0.13181,0.91398-0.25525,1.82938-0.36514,2.74624c-0.06973,0.5822-0.13898,1.1673-0.15479,1.75255
			c-0.03473,1.2833,0.00729,2.56979-0.06024,3.85085c-0.09503,1.80508,0.31097,3.54938,0.54196,5.31564
			c0.0889,0.67998,0.15283,1.36591,0.29135,2.03608c0.18597,0.90003,0.39346,1.79985,0.66776,2.67596
			c0.18982,0.60631,0.50827,1.17234,0.76889,1.7565c0.03418,0.0765,0.09891,0.15585,0.09439,0.23055
			c-0.04654,0.76604,0.59756,1.1711,0.91763,1.74127c0.23108,0.41167,0.66898,0.5748,1.13956,0.61779
			c0.52921,0.04835,1.05869,0.09535,1.58646,0.15695c0.68283,0.07971,1.3454,0.00735,1.97754-0.26109
			c0.79446-0.33742,1.6416-0.57681,2.23236-1.28714c0.15125-0.1818,0.4155-0.28522,0.64557-0.38286
			c0.63684-0.27031,1.07956-0.7816,1.58551-1.21832c0.4198-0.36229,0.88187-0.67537,1.30505-1.034
			c0.29407-0.24922,0.57236-0.52274,0.82495-0.81383c0.40219-0.46349,0.7742-0.95306,1.16418-1.42731
			c0.63806-0.77584,1.28064-1.54794,1.92068-2.32214c0.4628-0.55978,0.89786-1.14543,1.39313-1.67474
			c0.71475-0.76384,1.24219-1.63806,1.75732-2.54198c0.59558-1.04513,1.06155-2.14233,1.57623-3.22202
			c0.40436-0.84831,1.00839-1.60114,1.51959-2.39902c0.13467-0.21014,0.32385-0.41674,0.36792-0.64783
			c0.15134-0.79478,0.56522-1.44707,1.02866-2.07826c1.18356-1.61194,2.0235-3.40839,2.84479-5.21848
			c0.21622-0.47652,0.55005-0.89841,0.81122-1.35604c0.60785-1.06509,1.2012-2.1384,1.80716-3.20454
			c0.19269-0.33887,0.40723-0.66528,0.61072-0.99804c0.66907-1.09405,1.13788-2.29473,1.8512-3.37074
			c0.40958-0.6178,0.62875-1.35886,0.96777-2.02713c0.50555-0.99646,1.03958-1.97852,1.56616-2.96423
			c0.07883-0.14756,0.16379-0.30021,0.27869-0.41875c0.67596-0.69753,0.92007-1.65956,1.49481-2.41763
			c0.26096-1.25605,1.23108-2.26849,1.23932-3.61796c0.00098-0.15569,0.15283-0.37588,0.29559-0.45193
			c0.32083-0.17095,0.48901-0.43824,0.66113-0.73286c0.25146-0.43048,0.47748-0.90039,0.82162-1.24696
			c0.65128-0.65591,0.82477-1.50638,1.11774-2.31654c0.21759-0.60188,0.37979-1.24344,0.70859-1.78042
			c0.3873-0.6325,3.56314-4.9769,4.15909-5.41308c0.42419-0.31045,0.93646-0.50423,1.34613-0.8297
			c0.38693-0.30738,0.69958-0.7114,1.02988-1.08616c0.49771-0.56468,0.97266-1.14958,1.47687-1.7082
			c0.22516-0.24946,0.53818-0.29443,0.85504-0.18878c1.07187,0.35746,2.069,0.84312,2.88647,1.65247
			c0.22229,0.22006,0.32504,0.44875,0.25339,0.74931c-0.05847,0.24507-0.09808,0.50001-0.19598,0.72926
			c-0.25192,0.59016-0.53384,1.16748-0.79959,1.75182c-0.33517,0.73664-0.62881,1.49503-1.00876,2.20759
			c-0.43158,0.80946-0.89822,1.6069-1.42291,2.35842c-0.70792,1.01409-1.31039,2.07563-1.7851,3.21632
			c-0.21359,0.51334-0.46964,1.00998-0.72366,1.50535c-0.573,1.11739-1.14429,2.22749-1.55835,3.42529
			c-0.33536,0.97011-0.88898,1.86282-1.31021,2.80577c-0.36633,0.82021-0.75418,1.61991-1.32315,2.32484
			c-0.11627,0.1441-0.13797,0.36338-0.20779,0.54625c-0.4968,1.30173-0.97821,2.60973-1.50162,3.90071
			c-0.17691,0.43651-0.49487,0.81426-0.68961,1.24543c-0.60898,1.34821-1.18787,2.71005-1.78381,4.06425
			c-0.1113,0.2529-0.24359,0.49698-0.3743,0.7408c-0.06586,0.12277-0.17383,0.22683-0.22174,0.35473
			c-0.32275,0.86119-0.6362,1.72587-0.94925,2.59067c-0.28494,0.78718-0.55344,1.58051-0.85126,2.36273
			c-0.29871,0.78463-0.62564,1.55846-0.93744,2.33814c-0.05179,0.12953-0.1275,0.26497-0.12704,0.39744
			c0.0032,0.91331-0.40723,1.73589-0.55649,2.6131c-0.22495,1.32211-0.43195,2.64777-0.61749,3.97598
			c-0.29932,2.14265-0.15512,4.30479-0.24673,6.45688c-0.013,0.30356,0.03925,0.61358,0.09103,0.9155
			c0.13235,0.77066,0.2363,1.55055,0.43805,2.30358c0.16528,0.61683,0.40152,1.22858,0.69989,1.7931
			c0.77545,1.46714,1.63089,2.87439,3.24988,3.5952c0.89575,0.39879,1.83936,0.5745,2.78772,0.44185
			c1.38187-0.19331,2.7814-0.36668,4.07755-0.94546c0.94519-0.42204,1.86411-0.88662,2.65796-1.57315
			c0.35815-0.30973,0.77151-0.55521,1.15704-0.83367c0.63925-0.46171,1.17572-1.03102,1.66989-1.63903
			c0.75446-0.92822,1.6424-1.73483,2.41513-2.64198c0.77911-0.91471,1.47751-1.89902,2.1944-2.86539
			c0.24817-0.33455,0.49127-0.68674,0.65747-1.06564c0.48975-1.11604,1.46545-1.90466,1.9809-2.99609
			c0.23825-0.50433,0.48477-1.0146,0.63098-1.54861c0.08176-0.29853,1.57062-3.37037,2.82114-5.29791
			c0.14224-0.09837,0.14822-0.39413,0.21637-0.59909c0.11227-0.33777,0.17664-0.70168,0.34488-1.00872
			c0.50803-0.92728,0.99792-1.85117,1.41049-2.83549c0.50214-1.19767,0.85242-2.45372,1.54358-3.59576
			c0.92166-1.52289,1.61115-3.1858,2.41141-4.78304c0.17441-0.3482,0.36798-0.69349,0.60013-1.00478
			c0.67642-0.90699,1.01843-1.98983,1.58765-2.95045c0.41309-0.6972,0.85577-1.37851,1.3157-2.04589
			c0.38019-0.55167,0.8157-1.06488,1.20804-1.6086c0.9328-1.29272,1.85217-2.5951,2.78421-3.88835
			c0.09601-0.13323,0.25488-0.2197,0.36032-0.34788c0.38779-0.47151,0.83487-0.88835,1.09479-1.47076
			c0.15323-0.34349,0.46777-0.61867,0.72485-0.9113c0.38678-0.44034,0.7771-0.87846,1.18344-1.30066
			c0.75262-0.78191,1.51755-1.55202,2.27844-2.32593c0.11734-0.11935,0.23941-0.2342,0.3616-0.3487
			c1.48938-1.39626,2.9563-2.81769,4.47867-4.17702c0.74704-0.66703,1.59241-1.22509,2.40244-1.82001
			c0.49469-0.36327,0.98224-0.74689,1.51627-1.04362c0.99841-0.55483,2.04031-1.03133,3.04199-1.58076
			c1.06595-0.58469,2.20636-0.95295,3.37454-1.24298c0.70389-0.17475,1.42233-0.29147,2.13556-0.42732
			c0.2468-0.04702,0.50186-0.05482,0.74576-0.11203c0.91483-0.2146,1.71777,0.04188,2.44678,0.57938
			c0.35971,0.26525,0.68387,0.57822,1.0369,0.85321c0.30432,0.23706,0.62039,0.46067,0.94321,0.67193
			c0.25723,0.16836,0.51791,0.34769,0.80243,0.45505c0.9097,0.34322,1.5932,1.01152,2.32211,1.60331
			c1.02045,0.82845,2.3699,1.83153,2.75031,2.18262c1.35834,1.25365,2.71033,2.51765,4.00107,3.83983
			c0.97479,0.99858,1.79663,2.12813,2.50897,3.3408c0.32782,0.55801,0.50409,1.10909,0.48401,1.69247
			c-0.24203,0.32678-0.45355,0.61709-0.67087,0.90301c-0.06595,0.08675-0.13266,0.19585-0.22467,0.23636
			c-1.0513,0.46284-1.76779,1.33444-2.58585,2.08484c-0.45087,0.41357-0.91855,0.7872-1.54337,0.96847
			c-0.6972,0.20228-1.33038,0.57397-1.84091,1.1187c-0.75381,0.80421-1.64975,0.97276-2.68561,0.6331
			c-0.3616-0.11858-0.54645-0.32069-0.66843-0.67033c-0.42606-1.22192-1.0632-2.31944-1.96866-3.25869
			c-0.60178-0.62419-1.1409-1.31123-1.76492-1.911c-1.0079-0.96876-2.00943-1.95759-3.11237-2.8103
			c-1.12006-0.86597-2.28928-1.67842-3.58453-2.29969c-1.27103-0.60965-2.53415-0.57288-3.83594-0.20586
			c-0.48361,0.13635-0.97916,0.24063-1.44815,0.41599c-0.54791,0.20487-1.07578,0.46493-1.60666,0.71326
			c-0.45319,0.21201-0.89737,0.44344-1.34772,0.66164c-0.15103,0.07319-0.31558,0.11993-0.46265,0.19962
			c-0.47803,0.25916-0.51025,0.95662-1.08469,1.12027c-0.53821,0.15333-0.80832,0.5703-1.04626,1.02541
			c-0.03873,0.07413-0.07678,0.15141-0.13004,0.21471c-0.66275,0.78757-1.33493,1.56735-1.98926,2.36185
			c-0.21091,0.25603-0.36108,0.56138-0.56595,0.82313c-0.44611,0.56997-0.91476,1.12222-1.36462,1.68931
			c-0.90302,1.13829-1.76166,2.30162-2.24667,3.69845c-0.10773,0.31033-0.28464,0.62437-0.50946,0.86084
			c-0.55756,0.5863-0.85156,1.29751-1.12057,2.03645c-0.15186,0.41705-0.33231,0.82911-0.54871,1.21611
			c-0.44879,0.80241-0.87769,1.62423-1.41125,2.36888c-0.69455,0.96931-1.15598,2.03202-1.55841,3.13929
			c-0.29535,0.81258-0.65115,1.60319-0.98074,2.40327c-0.04272,0.10364-0.10843,0.20126-0.13226,0.30862
			c-0.13278,0.59848-0.16425,1.24001-0.40845,1.78735c-0.23947,0.53686-0.45618,1.06505-0.62979,1.62959
			c-0.32895,1.06959-0.64362,2.1381-0.8223,3.24399c-0.03122,0.19293-0.09927,0.38326-0.10577,0.57628
			c-0.04819,1.43194-0.44391,2.80746-0.65317,4.21128c-0.13425,0.90067-0.0083,1.84126,0.01425,2.76365
			c0.00952,0.39098,0.08798,0.78237,0.07407,1.17139c-0.03665,1.0211,0.13947,2.00301,0.4429,2.97217
			c0.11679,0.37307,0.21161,0.75795,0.26636,1.14455c0.129,0.9114,0.53268,1.69226,1.0387,2.44464
			c0.37244,0.55385,0.63422,1.18583,1.03226,1.71797c0.69965,0.93536,1.36972,1.90464,2.32376,2.62122
			c0.55618,0.41779,1.04718,0.94176,1.64542,1.28044c1.72534,0.97668,3.62653,1.14528,5.54694,0.90563
			c1.52481-0.19027,3.06113-0.42946,4.47437-1.08932c0.85724-0.40028,1.67831-0.87854,2.51224-1.32802
			c0.29523-0.15913,0.57486-0.34741,0.87137-0.50387c0.74188-0.39137,1.52979-0.7113,2.22427-1.17265
			c0.85712-0.56934,1.65417-1.23376,2.44785-1.89245c0.70776-0.58739,1.35809-1.24399,2.06757-1.82914
			c0.40332-0.33263,0.70612-0.70538,0.88693-1.19303c0.08667-0.2338,0.94934-1.21946,1.42227-1.14646
			c0.47018,0.07258,0.94476,0.13423,1.4194,0.15569c0.48428,0.0219,0.84235,0.21951,1.15103,0.5864
			c0.69879,0.83059,0.79834,1.80985,0.29379,2.54538c-0.29926,0.43626-0.63626,0.85454-1.00546,1.23296
			c-0.53732,0.55076-3.55121,3.97674-3.87961,4.2887c-0.39584,0.37608-0.94086,0.55527-1.33768,0.98479
			c-0.88858,0.96189-1.84448,1.86198-2.78171,2.77828c-0.29947,0.29282-0.62817,0.55565-0.94089,0.83515
			c-1.06909,0.95564-2.26657,1.77346-3.52609,2.39629c-1.82642,0.90321-3.50131,2.08162-5.39133,2.85953
			c-1.17706,0.48447-2.39871,0.77509-3.651,0.942c-1.5834,0.21106-3.16998,0.35333-4.77353,0.20326
			c-1.37354-0.12854-2.69232-0.36482-3.94205-1.02452c-1.23981-0.65442-2.47729-1.30659-3.56631-2.18593
			c-0.71274-0.57553-1.34869-1.25084-1.98782-1.91167c-0.93723-0.96902-1.75549-2.0259-2.39938-3.22344
			c-0.34103-0.63437-0.79996-1.19044-1.09131-1.87516c-0.35461-0.83295-0.49442-1.71245-0.7637-2.56026
			c-0.42453-1.33655-0.54395-2.73872-0.66876-4.13182c-0.02484-0.27669,0.02722-0.55948,0.01639-0.83839
			c-0.01376-0.35571-0.05551-0.71035-0.08182-1.02567c-0.39392-0.18105-0.5401,0.05334-0.6889,0.24918
			c-0.15076,0.19829-0.23886,0.46568-0.4259,0.61031c-0.36301,0.28075-1.96338,2.34705-2.5722,3.12119
			c-0.72491,0.92171-1.3252,1.927-2.09293,2.82555c-1.03024,1.20569-1.87396,2.57014-2.81097,3.85676
			c-0.14444,0.19831-0.36801,0.33713-0.5408,0.51707c-0.36694,0.38216-0.79782,0.72852-1.06873,1.17137
			c-0.39099,0.63908-0.88831,1.13641-1.48947,1.55891c-0.27396,0.19257-0.53821,0.40501-0.77933,0.6371
			c-1.51755,1.46092-3.29456,2.49229-5.31937,3.02808c-1.18228,0.31284-2.41592,0.43246-3.62738,0.63338
			c-0.19281,0.032-0.39624,0.0101-0.58514,0.05428c-1.24832,0.29184-2.48599,0.09407-3.63895-0.31439
			c-2.00595-0.71066-3.94455-1.5621-5.32593-3.33951c-0.87976-1.13203-1.72839-2.26564-2.28073-3.59432
			c-0.17108-0.41138-0.32053-0.83678-0.42758-1.26871c-0.23529-0.94897-0.51569-1.89648-0.63556-2.86222
			c-0.2135-1.71988-0.4064-3.44811-0.24722-5.19072c0.06339-0.69321,0.06854-1.39164,0.12814-2.08529
			c0.09293-1.08165,0.1763-2.16599,0.32877-3.23995c0.09387-0.66124,0.34955-1.29852,0.45926-1.95872
			c0.15378-0.92639,0.23941-1.86411,0.36768-2.90621c-0.48108,0.19107-0.61133,0.51955-0.72885,0.80416
			c-0.4075,0.98747-0.99786,1.86897-1.5563,2.76756c-0.38342,0.61704-0.84351,1.18607-1.23621,1.7978
			c-0.31583,0.49191-0.58319,1.01497-0.86902,1.52594c-0.05453,0.09737-0.07895,0.21417-0.14355,0.30289
			c-0.9671,1.32854-1.94049,2.65251-2.90805,3.98074c-0.32703,0.44896-0.62988,0.91585-0.96478,1.35866
			c-0.48682,0.64385-0.99268,1.27335-1.49054,1.90888c-0.11932,0.15231-0.26443,0.2907-0.3544,0.45869
			c-0.58627,1.09471-1.34561,2.04436-2.26352,2.88373c-0.32016,0.29276-0.60117,0.6763-0.77316,1.07334
			c-0.38452,0.88793-1.1004,1.48579-1.79236,2.07046c-0.57529,0.48609-1.17316,0.93311-1.65521,1.52036
			c-0.56497,0.68817-1.41113,0.9792-2.1236,1.45947c-0.27789,0.1873-0.58002,0.3387-0.85806,0.52577
			c-1.77039,1.19109-3.68735,1.84917-5.85013,1.63477c-0.13855-0.01375-0.27963-0.00426-0.41953-0.00224
			c-0.79871,0.01147-1.58987,0.14896-2.36301-0.28908c-0.39127-0.22171-0.94113-0.14183-1.38351-0.299
			c-1.73114-0.61496-3.06177-1.7706-3.96167-3.33826c-0.47852-0.83363-0.90845-1.72435-1.08176-2.7179
			c-0.15787-0.90493-0.42358-1.79801-0.71793-2.67062c-0.49329-1.4623-0.85056-2.94678-1.00671-4.4836
			c-0.09888-0.97346-0.25089-1.94144-0.3707-2.91292c-0.0307-0.24885-0.04263-0.50175-0.04053-0.7526
			c0.01099-1.31274-0.00177-2.62672,0.05426-3.9377c0.04889-1.14412,0.18338-2.28442,0.27008-3.42715
			c0.06354-0.83628,0.10086-1.67461,0.16934-2.51043c0.04337-0.52836,0.12509-1.0535,0.18433-1.58067
			c0.02338-0.20759,0.03268-0.41675,0.05933-0.76991c-0.2359,0.19429-0.36807,0.28402-0.47723,0.39607
			c-0.93396,0.95843-1.60159,2.09327-2.03186,3.34508c-0.21625,0.62933-0.54437,1.17619-0.94019,1.66994
			c-0.79968,0.99759-1.41,2.09952-1.8447,3.2822c-0.40689,1.10695-1.10443,1.98904-1.8446,2.86535
			c-0.42984,0.50886-0.84439,1.03468-1.22025,1.58403c-0.4888,0.71455-0.91345,1.47301-1.40329,2.18682
			c-0.25049,0.36506-0.58493,0.67209-0.87759,1.00867c-0.53165,0.61142-1.05878,1.22678-1.59088,1.8378
			c-0.69565,0.79881-1.39499,1.59438-2.09146,2.39245c-0.49478,0.567-0.98621,1.13697-1.48209,1.70306
			c-0.10968,0.12521-0.22687,0.24486-0.34869,0.35838c-0.77975,0.72672-1.5267,1.48061-2.04733,2.42599
			c-0.02689,0.04884-0.05545,0.10062-0.09555,0.13778c-0.91992,0.85204-1.83554,1.70882-2.76584,2.54941
			c-0.35089,0.31706-0.73517,0.59734-1.10663,0.89134c-0.1311,0.10376-0.25897,0.21899-0.40616,0.29381
			c-0.87302,0.44353-1.76541,0.85089-2.62369,1.32071c-0.83844,0.45894-1.73907,0.60422-2.66721,0.65926
			c-0.798,0.04732-1.55154-0.08498-2.2666-0.48615c-0.73056-0.40987-1.47928-0.79964-2.25375-1.11546
			c-0.74493-0.30376-1.13596-0.90521-1.4588-1.55208c-0.4733-0.94839-0.89761-1.92387-1.28961-2.90895
			c-0.16269-0.40874-0.20004-0.87011-0.2728-1.3111c-0.06833-0.41405-0.05362-0.84895-0.17108-1.24639
			c-0.32233-1.09042-0.41678-2.20638-0.36444-3.32506c0.05591-1.1963,0.21802-2.38752,0.32883-3.58141
			c0.05649-0.60874,0.06372-1.22472,0.16138-1.82636c0.15646-0.96382,0.37064-1.91824,0.55835-2.87703
			c0.11835-0.60459,0.24646-1.20774,0.34464-1.81566c0.07132-0.44141,0.08337-0.88844,0.34976-1.28256
			c0.08463-0.12524,0.07358-0.31935,0.09247-0.48354c0.01578-0.13725-0.04462-0.32178,0.02481-0.40817
			c0.49121-0.61143,0.2146-1.41436,0.53784-2.06832c0.08575-0.17342,0.04041-0.41167,0.06451-0.75071
			c-0.19687,0.13596-0.32773,0.17628-0.35123,0.25058c-0.16702,0.52737-0.52734,0.9129-0.89438,1.30024
			c-0.15234,0.16075-0.27225,0.35197-0.40909,0.52767c-0.35928,0.46125-0.6553,0.99916-1.09482,1.3641
			c-0.66397,0.55138-1.14313,1.22018-1.58899,1.93348c-0.37094,0.59343-0.77356,1.15312-1.28677,1.64621
			c-0.4762,0.45747-1.01846,0.87092-1.29294,1.52175c-0.09009,0.21355-0.35773,0.34756-0.52689,0.53362
			c-0.20355,0.22388-0.38501,0.4677-0.58267,0.69711c-0.36343,0.42171-0.73288,0.83826-1.09784,1.25867
			c-1.22369,1.40961-2.59097,2.69738-3.52615,4.34933c-0.2832,0.50024-0.72913,0.91939-1.14468,1.33108
			c-0.61392,0.60811-1.12289,1.29732-1.67014,1.9594c-0.68671,0.83079-1.2666,1.77237-2.26962,2.32067
			c-0.34866,0.1906-0.595,0.58249-0.86349,0.90302c-0.7757,0.9259-1.58197,1.82573-2.61646,2.46593
			c-1.19135,0.73727-2.45798,1.33392-3.76089,1.8512c-0.39008,0.15485-0.77023,0.33713-1.16641,0.4735
			c-1.3157,0.45288-2.66827,0.58614-4.0545,0.46594c-1.51852-0.13167-2.76785-0.82069-3.89807-1.79103
			c-0.31586-0.27116-0.67529-0.49115-0.9967-0.75645c-0.16345-0.13492-0.31238-0.30261-0.42337-0.48289
			c-0.30676-0.49834-0.57639-1.01964-0.88538-1.51649c-0.76218-1.22561-1.66855-2.37743-1.90414-3.86367
			c-0.02588-0.16327-0.08582-0.33061-0.1684-0.47391c-0.58463-1.01431-0.47592-2.08611-0.28079-3.16714
			c0.0199-0.11031,0.05884-0.21965,0.06186-0.33018c0.05399-1.96825,0.46716-3.88192,0.86832-5.79812
			c0.05692-0.272,0.09863-0.55653,0.08038-0.83081c-0.00854-0.12869-0.1546-0.29137-0.2803-0.35283
			c-0.07394-0.03615-0.30029,0.06652-0.33862,0.15725c-0.38202,0.90358-1.25793,1.5119-1.48877,2.50537
			c-0.02881,0.12392-0.14056,0.23408-0.22952,0.33707c-0.10876,0.12583-0.28687,0.21629-0.34366,0.35853
			c-0.37018,0.92628-1.10339,1.59047-1.66818,2.37566c-0.30991,0.43087-0.55823,0.90549-0.8515,1.34899
			c-0.33795,0.51101-0.68307,1.01814-1.04642,1.51121c-0.51187,0.69456-1.03937,1.37781-1.56998,2.05822
			c-0.10092,0.12937-0.23129,0.25513-0.37558,0.32826c-1.29294,0.65526-2.31082,1.65427-3.3313,2.64896
			c-1.16605,1.13656-2.43878,2.13444-3.84,2.96326c-0.90939,0.53792-1.81265,1.09207-2.75473,1.56746
			c-1.56125,0.78783-3.23566,0.96259-4.97067,0.86086c-1.74673-0.10243-3.19193-0.94777-4.67313-1.72688
			c-0.82516-0.43405-1.59106-0.94562-2.09299-1.7636c-0.30713-0.5005-0.62027-0.99858-0.89996-1.5144
			c-0.73389-1.35347-1.37103-2.75213-1.81992-4.22715c-0.1377-0.45243-0.19238-0.93089-0.2746-1.39926
			c-0.21811-1.24253-0.38943-2.47726-0.21552-3.7551c0.13901-1.02124,0.06943-2.06942,0.17596-3.09698
			c0.08313-0.80174,0.26459-1.5975,0.45624-2.38277c0.26529-1.08712,0.55295-2.17066,0.88516-3.2389
			c0.22351-0.71873,0.53943-1.40881,0.81671-2.11066c0.06158-0.15586,0.1655-0.30121,0.19687-0.46176
			c0.22089-1.13006,0.6774-2.17106,1.18658-3.19238c0.18607-0.37317,0.39108-0.73687,0.58652-1.10535
			c0.22192-0.41832,0.44885-0.83411,0.66293-1.25642c0.39087-0.77115,0.78772-1.53973,1.15689-2.3213
			c0.51346-1.08719,0.98923-2.19226,1.50732-3.27718c0.79443-1.66357,1.53647-3.35142,2.42072-4.97355
			c0.47946-0.87952,0.82446-1.83217,1.23328-2.75043c0.44302-0.99515,0.89206-1.98763,1.33298-2.98369
			c0.10175-0.22989,0.20709-0.46332,0.2666-0.70596c0.37305-1.51973,0.78137-3.03297,1.08713-4.56649
			c0.48135-2.41409,0.78598-4.85606,0.7739-7.32246c-0.00571-1.16674-0.34293-2.22832-1.08081-3.19339
			c-1.15073-1.50504-2.62469-2.29611-4.50095-2.35443c-0.27313-0.00849-0.58017,0.01157-0.81857,0.1274
			c-1.22519,0.59526-2.55505,1.03413-3.43414,2.17964c-0.0834,0.10865-0.19843,0.20306-0.31708,0.27312
			c-1.34,0.79142-2.42114,1.89281-3.54877,2.94007c-0.2446,0.22713-0.53125,0.40879-0.79626,0.61431
			c-0.461,0.35754-0.99768,0.62674-1.29221,1.17654c-0.07278,0.13591-0.25229,0.21312-0.37833,0.32237
			c-0.23184,0.20096-0.48068,0.38708-0.68692,0.61195c-0.92245,1.00593-1.84091,2.01581-2.74332,3.03968
			c-0.46057,0.52254-0.87378,1.08658-1.32843,1.61463c-0.2722,0.31617-0.58563,0.5966-0.87544,0.89801
			c-0.13542,0.14084-0.30534,0.27292-0.38013,0.44376c-0.54221,1.23915-1.61044,2.0473-2.44667,3.04576
			c-0.39191,0.46794-0.70467,1.00262-1.04735,1.51107c-0.0928,0.13769-0.12862,0.33769-0.25063,0.42793
			c-0.82437,0.60991-1.13379,1.58054-1.69577,2.37245c-0.35544,0.50089-0.70181,1.00823-1.04982,1.51435
			c-0.89958,1.30839-1.84398,2.58887-2.6842,3.93436c-0.9133,1.46248-1.6116,3.04721-2.41318,4.57354
			c-0.36322,0.69167-0.82294,1.33201-1.22142,2.00596c-0.42471,0.71829-0.95297,1.3812-1.18372,2.20596
			c-0.05185,0.18536-0.14561,0.36198-0.23901,0.53223c-0.40637,0.74114-0.75108,1.47878-0.69846,2.37669
			c0.03041,0.51849-0.15306,1.03816-0.52647,1.47176c-0.21384,0.2483-0.33279,0.5793-0.48914,0.87588
			c-0.20863,0.39576-0.38734,0.80961-0.62241,1.18872c-0.76617,1.2356-1.42509,2.5102-1.80302,3.93036
			c-0.16982,0.63811-0.52286,1.22585-0.77179,1.84486c-0.38565,0.95892-0.75459,1.92457-1.1272,2.88869
			c-0.05032,0.1302-0.1098,0.26675-0.11589,0.40257c-0.05183,1.15241-0.57274,2.1543-1.004,3.18562
			c-0.07555,0.18069-0.19022,0.36572-0.19574,0.55146c-0.02655,0.8943-0.49481,1.64826-0.75391,2.46733
			c-0.06598,0.20853-0.21397,0.39046-0.31877,0.58754c-0.15645,0.29429-0.33591,0.58028-0.45645,0.889
			c-0.36768,0.9414-0.87752,1.80424-1.40309,2.66134c-0.15855,0.25854-0.2795,0.5407-0.41075,0.81534
			c-0.32503,0.68031-0.6441,1.36348-0.96957,2.04358c-0.14774,0.30867-0.4334,0.41377-0.74019,0.49603
			c-1.00607,0.26974-1.97791,0.15919-2.97211-0.13092c-1.12634-0.32869-1.46033-1.1575-1.31772-2.10403
			c0.11264-0.74756,0.16263-1.51324,0.36517-2.23595c0.17853-0.63704,0.53296-1.22427,0.80344-1.83626
			c0.1803-0.40791,0.36459-0.81505,0.52115-1.23226c0.5293-1.41042,1.02966-2.83193,1.57544-4.23584
			c0.34419-0.88543,0.77527-1.73703,1.12131-2.62182c0.43475-1.11145,0.8076-2.24702,1.23584-3.36115
			c0.27034-0.70316,0.5954-1.38519,0.89204-2.07836c1.13283-2.64742,2.09404-5.35695,2.97142-8.09898
			c0.30482-0.95262,0.71321-1.872,1.07144-2.80767c0.45909-1.19925,0.91452-2.3999,1.37338-3.59925
			c0.1001-0.26164,0.20143-0.52317,0.31352-0.7798c0.40131-0.91862,0.84853-1.81978,1.19888-2.75725
			c0.28159-0.75332,0.44423-1.55077,0.6683-2.32615c0.06169-0.21353,0.16228-0.41553,0.23137-0.62728
			c0.28587-0.87641,0.56364-1.75547,0.84987-2.63177c0.25958-0.79475,0.52353-1.5881,0.79057-2.38038
			c0.27647-0.82023,0.56522-1.63636,0.83684-2.45818c0.20198-0.61111,0.36667-1.23494,0.58009-1.8418
			c0.7093-2.01662,1.0556-4.11867,1.44142-6.20802c0.14047-0.76067,0.03146-1.56501,0.14294-2.33396
			c0.2003-1.38158-0.42282-2.5676-0.78935-3.81751c-0.13274-0.45278-0.58199-0.58298-0.8844-0.86195
			c-0.47565-0.4388-0.99039-0.56973-1.59967-0.23271c-0.66568,0.36823-1.4101,0.50994-2.13826,0.71442
			c-0.84579,0.2375-1.72853,0.45852-2.40215,1.13187c-0.22031,0.22023-0.61818,0.25051-0.90294,0.42099
			c-0.78848,0.47202-1.59706,0.90806-2.30009,1.52083c-0.77837,0.6784-1.6163,1.28799-2.41734,1.94101
			c-0.30247,0.24662-0.58792,0.51791-0.85718,0.80074c-0.51839,0.54463-1.02229,1.10316-1.5267,1.66093
			c-0.1685,0.18633-0.31821,0.38956-0.48019,0.58193c-0.16168,0.19205-0.29935,0.41978-0.49733,0.56313
			c-0.85211,0.61694-1.45845,1.44731-2.06334,2.28392c-0.1129,0.15614-0.2532,0.297-0.39914,0.42388
			c-0.40152,0.3491-0.74591,0.72266-1.02841,1.19496c-0.30855,0.51582-0.80766,0.91487-1.20251,1.38271
			c-0.34169,0.40486-0.6573,0.83202-0.97813,1.25414c-0.6218,0.81831-1.24243,1.6376-1.85609,2.46203
			c-0.14888,0.19998-0.27086,0.42028-0.40149,0.63351c-0.23244,0.37944-0.46101,0.76123-0.69348,1.14065
			c-0.07283,0.11886-0.17393,0.22453-0.22656,0.35102c-0.63252,1.51944-1.71725,2.72379-2.715,3.9979
			c-0.75319,0.96178-1.55225,1.90632-1.97737,3.09587c-0.26202,0.73325-0.5672,1.4669-0.96837,2.13065
			c-0.51816,0.85731-1.15079,1.64551-1.7354,2.46254c-0.50241,0.70215-1.04601,1.37846-1.50209,2.10944
			c-1.03281,1.6553-2.0067,3.34733-3.03647,5.00459c-0.59129,0.95164-1.03587,1.97311-1.55022,2.96086
			c-0.91336,1.75393-1.94267,3.4474-2.91983,5.16821c-0.42726,0.75243-0.84639,1.50951-1.26689,2.26577
			c-0.05417,0.09744-0.12048,0.19875-0.13672,0.30508c-0.1879,1.22814-0.93927,2.19604-1.47162,3.26854
			c-0.56953,1.14735-1.20772,2.28249-1.44118,3.56209c-0.12978,0.71133-0.44931,1.32925-0.81169,1.91964
			c-0.46634,0.75979-1.01802,1.46706-1.52975,2.19921c-0.12801,0.18315-0.24889,0.3718-0.36414,0.56328
			c-0.40126,0.66667-0.68713,1.40958-1.29317,1.94075c-0.06169,0.05408-0.13571,0.12904-0.14545,0.2021
			c-0.11604,0.87215-0.83591,1.35416-1.3044,1.99232c-0.16302,0.22209-0.48183,0.35934-0.75697,0.46098
			c-0.257,0.09494-0.54938,0.10321-0.82806,0.12859c-0.5762,0.05246-0.96675-0.18121-1.00519-0.75021
			c-0.0464-0.68738,0.00751-1.38879,0.08966-2.07556c0.08247-0.68991,0.23923-1.37236,0.39029-2.05209
			c0.08984-0.40421,0.23145-0.79689,0.34987-1.19473c0.20709-0.69562,0.39436-1.39796,0.62695-2.08495
			c0.23268-0.68721,0.53798-1.35016,0.76338-2.03947c0.50447-1.54288,1.12047-3.04166,1.71432-4.55046
			c0.38832-0.98653,0.67688-2.0121,1.02072-3.01655c0.11765-0.34361,0.25136-0.68376,0.40544-1.01252
			c0.90443-1.9297,1.46982-3.97932,2.14532-5.99061c0.19298-0.57448,0.51241-1.10552,0.72263-1.67538
			c0.4445-1.20467,0.88292-2.41296,1.2728-3.63604c0.50087-1.57142,0.90382-3.1752,1.43811-4.7345
			c0.48912-1.42744,1.10083-2.81268,1.64854-4.22039c0.10063-0.25869,0.14058-0.54044,0.23157-0.80358
			c0.13643-0.3945,0.24556-0.81064,0.45738-1.1628c0.15329-0.25494,0.26326-0.47017,0.21652-0.77022
			c-0.02013-0.12922,0.0285-0.2766,0.07185-0.4071c0.41298-1.24355,0.79681-2.49839,1.26028-3.72301
			c0.32555-0.86017,0.76138-1.67861,1.14865-2.51537c0.15268-0.3299,0.32591-0.65202,0.45128-0.99189
			c0.04681-0.12688-0.01607-0.29421-0.04025-0.57432c-0.32965,0.25575-0.59555,0.40597-0.7881,0.62167
			c-0.64842,0.72644-1.44878,1.31548-1.95778,2.16989c-0.08206,0.13773-0.25099,0.22076-0.36429,0.34338
			c-0.35892,0.38853-0.70831,0.78584-1.06538,1.17612c-0.90466,0.98882-1.81,1.97702-2.71902,2.96182
			c-0.13246,0.14349-0.31325,0.24754-0.42653,0.40278c-0.93568,1.28238-2.23903,2.18117-3.37019,3.25928
			c-0.46434,0.44253-0.8801,0.93559-1.32777,1.39613c-0.34982,0.35987-0.69337,0.73072-1.07745,1.0515
			c-0.83652,0.69865-1.68141,1.38937-2.55231,2.04417c-0.86729,0.65206-1.75879,1.27402-2.66379,1.87277
			c-0.36874,0.24399-0.82138,0.35861-1.20039,0.59015c-1.03349,0.63133-2.13518,1.09609-3.27138,1.50778
			c-0.70734,0.25629-1.36827,0.63347-1.92934,1.16808c-0.21526,0.20509-0.49976,0.36142-0.77991,0.4692
			c-0.49516,0.19048-0.83797,0.47703-1.08104,0.97527c-0.42792,0.87724-0.94356,1.71176-1.42477,2.56289
			c-0.31427,0.55586-0.4955,1.17469-0.92645,1.67979c-0.50415,0.59082-0.91429,1.26065-1.39214,1.87528
			c-1.44188,1.85461-2.92764,3.67702-4.05577,5.7532c-0.07518,0.13839-0.21544,0.24138-0.32512,0.3611
			c-0.37425,0.40852-0.74893,0.81665-1.1223,1.22595c-0.24196,0.26521-0.50397,0.51566-0.71915,0.80122
			c-1.13063,1.50046-2.38994,2.89-3.71805,4.21159c-1.01001,1.00504-2.10555,1.92375-3.15446,2.89017
			c-0.94395,0.86975-2.02277,1.59053-2.82376,2.62112c-0.25146,0.32353-0.61584,0.5616-0.93822,0.82701
			c-0.23753,0.19556-0.52122,0.34308-0.73045,0.56323c-0.37839,0.3981-0.82426,0.65289-1.33658,0.83499
			c-1.50517,0.53502-3.01448,1.08876-4.64287,0.96512c-1.70032-0.1291-3.39702-0.31993-5.08957-0.52997
			c-0.66312-0.08228-1.29532-0.30092-1.89555-0.64528c-0.74976-0.43015-1.58473-0.71326-2.32799-1.15276
			c-0.67043-0.39644-1.28447-0.89644-1.89119-1.39035c-0.66908-0.54469-1.27666-1.16623-1.9558-1.69699
			c-0.95543-0.74663-1.63185-1.75571-2.52063-2.56661c-0.88115-0.80396-1.42818-1.85927-1.90428-2.94434
			c-0.22498-0.51276-0.43399-1.03451-0.69226-1.53029c-0.70348-1.3504-1.2574-2.74644-1.43069-4.27313
			c-0.01562-0.13764-0.0582-0.27518-0.10732-0.40559c-0.33173-0.8806-0.3983-1.79985-0.41267-2.72827
			c-0.00507-0.32803-0.02611-0.65581-0.04405-1.08382c-0.45218,0.19985-0.64815,0.50117-0.80365,0.80986
			c-0.32291,0.64108-0.81154,1.12835-1.33183,1.60515c-0.44755,0.41014-0.95548,0.78326-1.09087,1.45012
			c-0.03294,0.16225-0.24036,0.28854-0.36609,0.43263c-0.16402,0.18796-0.38785,0.35174-0.47868,0.57046
			c-0.32128,0.77367-0.97241,1.27631-1.48435,1.89127c-0.56732,0.68147-1.14839,1.33228-1.62311,2.10469
			c-0.80142,1.304-1.78718,2.49486-2.69824,3.73122c-0.14885,0.20198-0.3138,0.39201-0.46848,0.58978
			c-0.32683,0.41789-0.63707,0.83953-1.09473,1.14638c-0.29448,0.19744-0.49844,0.52534-0.76075,0.77619
			c-0.66613,0.63704-1.32426,1.28438-2.02046,1.88734c-0.49397,0.42783-1.08855,0.65799-1.75493,0.73567
			c-0.66547,0.07759-1.32236,0.23096-1.9819,0.35684c-0.91347,0.17436-1.80906,0.04974-2.62898-0.33426
			c-1.16372-0.54498-2.3687-1.06699-3.39883-1.81526c-1.23282-0.89551-2.45302-1.87903-3.06454-3.38056
			c-0.10252-0.25171-0.30668-0.4649-0.47734-0.68546c-0.72088-0.93177-1.26015-1.95172-1.68343-3.05714
			c-0.4885-1.27573-0.57077-2.61787-0.83-3.93175c-0.33122-1.6788-0.06161-3.35577,0.03109-5.02309
			c0.06606-1.18811,0.44665-2.35749,0.66716-3.5389c0.08653-0.46372,0.08747-0.9441,0.18341-1.40524
			c0.18677-0.89774,0.38336-1.79556,0.63058-2.67802c0.30208-1.07834,0.76254-2.09801,1.22132-3.12035
			c0.34053-0.75884,0.53517-1.58189,0.82777-2.36401c0.16622-0.44435,0.42722-0.85313,0.59519-1.29699
			c0.2855-0.75449,0.53315-1.52336,0.79309-2.28742c0.20629-0.60645,0.36808-1.23148,0.61936-1.8184
			c0.40665-0.94971,0.8704-1.87501,1.31071-2.81029c0.02383-0.0506,0.06569-0.09519,0.07933-0.14774
			c0.30704-1.18107,1.05697-2.19494,1.25736-3.42434c0.08379-0.51401,0.34695-0.99876,0.5283-1.4969
			c0.03819-0.10491,0.10969-0.21101,0.1074-0.31528c-0.02345-1.06754,0.65857-1.86565,1.04034-2.77882
			c0.26896-0.64326,0.50084-1.30221,0.74261-1.95661c0.26161-0.70815,0.51833-1.41814,0.77214-2.12915
			c0.35741-1.00122,0.76878-1.98832,1.04444-3.01179c0.18584-0.6899,0.19596-1.43074,0.25018-2.15137
			c0.04813-0.63982,0.09763-1.28671-0.177-1.90147c-0.47945-1.07327-1.04831-2.0953-1.8405-2.96841
			c-0.19314-0.21284-0.50793-0.38489-0.79127-0.43375c-1.01819-0.17562-2.04684-0.29064-3.07162-0.42797
			c-0.11051-0.01481-0.25093-0.07553-0.3278-0.03039c-0.6843,0.40186-1.4304,0.08191-2.14146,0.19654
			c-0.68604,0.1106-1.39429,0.0752-2.08736,0.15254c-0.74903,0.08358-1.49164,0.22433-2.2373,0.33846
			c-0.50507,0.07731-0.90334,0.36323-1.1683,0.76134c-1.04959,1.57714-2.28737,3.02373-3.1482,4.73484
			c-0.53742,1.06827-1.26468,2.03931-1.8582,3.08161c-0.46854,0.82278-0.88429,1.67786-1.28347,2.53717
			c-0.2932,0.63116-0.53993,1.28587-0.77406,1.94197c-0.25685,0.71983-0.67065,1.34701-1.05983,1.99482
			c-0.29881,0.49738-0.51278,1.04586-0.76205,1.57276c-0.0712,0.15053-0.1287,0.30761-0.20154,0.45728
			c-0.17105,0.35145-0.41072,0.68355-0.50854,1.05363c-0.196,0.74152-0.58779,1.38638-0.99165,2.00374
			c-0.52033,0.79543-0.67664,1.71294-1.04947,2.5518c-0.31654,0.7122-0.66984,1.41082-1.05066,2.09092
			c-0.38122,0.68081-0.84238,1.31712-1.21801,2.00068c-0.1981,0.3605-0.27255,0.78672-0.43061,1.17187
			c-0.42327,1.03133-0.80979,2.08245-1.30826,3.07691c-0.51131,1.02006-1.25731,1.93333-1.68703,2.98096
			c-0.70375,1.71572-1.56751,3.33624-2.46754,4.94855c-0.44859,0.80361-0.76906,1.67791-1.19825,2.49353
			c-0.24433,0.46436-0.59106,0.87484-0.89151,1.30971c-0.60309,0.87291-1.20826,1.74441-1.80643,2.62069
			c-0.07787,0.11407-0.14774,0.24747-0.17346,0.38112c-0.2249,1.1683-1.00803,2.04407-1.57883,3.02988
			c-0.67046,1.15794-1.30437,2.34203-2.05067,3.44973c-0.78592,1.16647-1.25762,2.51036-2.07953,3.6366
			c-0.75598,1.0359-1.2095,2.26941-2.13503,3.18543c-0.635,0.62848-1.24673,1.28352-1.9147,1.87489
			c-1.0038,0.8887-2.00614,1.78511-3.14458,2.50604c-0.23405,0.14821-0.48071,0.28984-0.74028,0.38148
			c-0.44526,0.15723-0.91139,0.25496-1.358,0.40886c-1.56825,0.54045-3.1142,0.63103-4.63775-0.15756
			c-0.24715-0.12793-0.51533-0.22598-0.78429-0.29932c-1.76107-0.4801-3.05993-1.61163-4.11604-3.02296
			c-0.6511-0.87009-1.27398-1.79462-1.70779-2.78325c-0.33644-0.76675-0.65855-1.58939-0.63283-2.49183
			c0.01981-0.69496-0.10922-1.39291-0.14131-2.09096c-0.03856-0.83906-0.05812-1.67958-0.06078-2.51955
			c-0.00268-0.84357-0.1455-1.66711-0.24601-2.49992c-0.13637-1.13002-0.06512-2.28613-0.06491-3.43103
			c0.00007-0.38998,0.07926-0.77994,0.07961-1.16994c0.00106-1.16136,0.3045-2.26728,0.56019-3.38623
			c0.23045-1.00848,0.39001-2.033,0.59034-3.04858c0.21642-1.09713,0.4635-2.18855,0.6616-3.28886
			c0.2576-1.4308,0.48549-2.86707,0.71227-4.30317c0.03681-0.23311,0.00181-0.47756-0.00098-0.84745
			c-0.39561,0.33067-0.61285,0.64582-0.80124,0.97016c-0.47638,0.8201-0.93289,1.65186-1.3902,2.48289
			c-0.37635,0.6839-0.72383,1.38437-1.11895,2.05703c-0.30994,0.52764-0.70599,1.00554-1.00554,1.53828
			c-0.54745,0.97363-1.04692,1.97414-1.57672,2.95788c-0.1985,0.36858-0.40269,0.73802-0.64418,1.0788
			c-0.73077,1.03118-1.29802,2.15044-1.86955,3.27338c-0.56824,1.11647-1.15929,2.23131-1.85574,3.26944
			c-0.57081,0.85084-1.31165,1.5875-1.97589,2.37582c-0.126,0.14953-0.26508,0.29243-0.36584,0.45803
			c-0.40627,0.66775-0.81281,1.33598-1.19418,2.01804c-0.31417,0.56187-0.59011,1.14429-1.1354,1.53449
			c-0.08885,0.06358-0.15445,0.16165-0.22504,0.24847c-1.05786,1.30087-2.10068,2.61433-3.17884,3.89812
			c-0.42657,0.50792-0.90907,0.97507-1.40475,1.41749c-1.18947,1.06165-2.40135,2.09821-3.60573,3.1431
			c-0.10507,0.09116-0.21151,0.18956-0.33432,0.25008c-1.22767,0.60501-2.43702,1.25504-3.69731,1.78314
			c-0.76511,0.32062-1.60741,0.46233-2.42086,0.66052c-0.59739,0.14557-1.19971,0.28738-1.80821,0.36607
			c-0.54972,0.07109-1.11099,0.07687-1.66684,0.07214c-1.8523-0.01578-3.53978-0.61446-5.01643-1.68272
			c-1.03863-0.75139-1.8825-1.74597-2.67745-2.76178c-1.05295-1.34547-1.95878-2.77374-2.56592-4.38444
			c-0.14309-0.37962-0.44771-0.6953-0.6479-1.05705c-0.51138-0.92411-0.66358-1.95437-0.83218-2.97554
			c-0.15425-0.93432-0.43194-1.84772-0.43284-2.80901c-0.00058-0.61368-0.06704-1.22713-0.09846-1.84097
			c-0.0657-1.28335-0.04479-2.57815-0.21696-3.84687c-0.1435-1.05746,0.22946-2.03883,0.20831-3.07253
			c-0.03562-1.7411,0.26564-3.45013,0.638-5.15221c0.26819-1.22591,0.36251-2.48918,0.61236-3.71996
			c0.23289-1.14724,0.55835-2.27638,0.86353-3.40797c0.16022-0.59407,0.3656-1.17591,0.54789-1.76411
			c0.06624-0.21372,0.0895-0.4486,0.19243-0.64182c0.58689-1.10168,0.67948-2.35585,1.10159-3.50758
			c0.13442-0.36678,0.20407-0.75862,0.35279-1.11856c0.41955-1.01536,0.60827-2.08948,0.87773-3.14544
			c0.22724-0.89048,0.60928-1.7415,0.92336-2.60978c0.37947-1.0491,0.76731-2.09523,1.13709-3.14774
			c0.35989-1.02435,0.6895-2.05943,1.05587-3.08138c0.20607-0.57481,0.46478-1.13052,0.69045-1.69856
			c0.29861-0.75163,0.58574-1.50783,0.882-2.26041c0.48081-1.22141,0.94761-2.44878,1.45487-3.65914
			c0.26838-0.64037,0.61828-1.24612,0.91507-1.87521c0.20234-0.42888,0.37166-0.87321,0.56414-1.30689
			c0.52109-1.17415,1.05219-2.34389,1.56765-3.52049c0.20097-0.45873,0.36948-0.93164,0.55499-1.39721
			c0.34042-0.85441,0.69237-1.69742,1.11626-2.52163c0.66261-1.28839,1.16692-2.65821,1.73827-3.99354
			c0.10952-0.25595,0.1956-0.52521,0.33233-0.76567c0.77406-1.36141,1.52926-2.73503,2.35079-4.06755
			c0.8651-1.40316,1.80059-2.76282,2.69971-4.14514c0.92875-1.42785,1.848-2.86189,2.77903-4.28824
			c0.12103-0.18542,0.2983-0.3332,0.43084-0.51225c0.31407-0.42423,0.61807-0.85596,0.92339-1.2866
			c0.06444-0.0909,0.10594-0.19954,0.17693-0.28409c0.75217-0.89592,1.52245-1.77705,2.25854-2.68591
			c0.58077-0.71708,1.09955-1.48455,1.6843-2.19814c0.70639-0.86205,1.46752-1.67914,2.17735-2.53849
			c0.42216-0.51108,0.97879-0.93049,1.17186-1.61011c0.80916-0.63547,1.26571-1.61193,2.22913-2.1282
			c0.85569-0.45854,1.60149-1.12262,2.39412-1.69827c1.75349-1.27348,3.7124-2.04631,5.84102-2.41424
			c1.2789-0.22105,2.55497-0.24304,3.84785-0.09872c1.05465,0.11773,2.12066,0.15343,3.18272,0.17698
			c0.55631,0.01235,1.11455-0.11209,1.6726-0.11885c2.21904-0.02691,4.41687,0.10511,6.55364,0.80321
			c0.76876,0.25115,1.58337,0.35914,2.37106,0.55636c0.43207,0.10818,0.85402,0.25928,1.27625,0.40351
			c0.47684,0.16289,0.95144,0.33309,1.42235,0.51236c0.57541,0.21907,1.15439,0.43196,1.71634,0.68228
			c0.61556,0.27421,1.23149,0.50031,1.90531,0.6224c0.59686,0.10814,1.16515,0.3885,1.7373,0.61492
			c0.75179,0.29752,1.49596,0.6144,2.24152,0.92747c0.36139,0.15176,0.73585,0.28404,1.07218,0.48033
			c0.28397,0.16574,0.53613,0.3958,0.77557,0.62535c0.26515,0.25418,0.26228,0.5607,0.01806,0.82442
			c-0.77208,0.83375-1.38584,1.81633-2.45232,2.37001c-0.45657,0.23702-0.79149,0.70157-1.19845,1.04273
			c-0.49046,0.41117-1.00909,0.78894-1.49598,1.20409c-0.38038,0.32434-0.74319,0.67178-1.09123,1.03086
			c-0.33649,0.34718-0.73409,0.47633-1.20743,0.48525c-1.41693,0.02673-2.76588-0.33549-4.13461-0.63283
			c-1.14152-0.24799-2.12537-0.85415-3.21253-1.21488c-1.08928-0.36141-2.16254-0.77089-3.24623-1.14952
			c-0.21003-0.07339-0.43655-0.09861-0.65411-0.15158c-0.67737-0.16492-1.35429-0.33173-2.03089-0.49979
			c-0.10867-0.02698-0.21552-0.09429-0.32204-0.09186c-1.15598,0.02626-2.19271-0.55702-3.32583-0.64296
			c-0.58551-0.04441-1.17216-0.14-1.74523,0.08364c-0.07634,0.02979-0.16399,0.05988-0.24219,0.05134
			c-2.08682-0.22778-4.18228-0.12878-6.2739-0.16835c-1.30192-0.02462-2.55952,0.15986-3.75272,0.73438
			c-0.67322,0.32414-1.22121,0.80856-1.70859,1.33007c-0.77999,0.83463-1.46693,1.75679-2.18481,2.64872
			c-0.52289,0.64967-0.81984,1.46887-1.49822,2.00284c-0.37325,1.02433-1.28422,1.68307-1.78518,2.62226
			c-0.10314,0.19336-0.26436,0.35606-0.40115,0.53107c-0.10308,0.13189-0.28716,0.25264-0.30207,0.39252
			c-0.07755,0.72757-0.65136,1.14757-1.0103,1.69523c-0.91949,1.40295-1.88954,2.77307-2.79415,4.18529
			c-0.35779,0.55854-0.6307,1.17976-0.87936,1.79776c-0.30315,0.75338-0.64887,1.45836-1.12341,2.13538
			c-0.71703,1.02298-1.36046,2.10712-1.55309,3.40371c-0.06536,0.4399-0.40434,0.83957-0.62036,1.25654
			c-0.38445,0.74204-0.79129,1.47333-1.15109,2.2271c-0.56467,1.18296-0.94196,2.454-1.6984,3.5481
			c-0.15591,0.22549-0.25601,0.50165-0.33112,0.76871c-0.23754,0.8446-0.67051,1.58984-1.12902,2.32482
			c-0.05876,0.09419-0.13747,0.18788-0.15878,0.2917c-0.33054,1.61004-1.33942,2.93079-1.88978,4.44546
			c-0.53299,1.4669-1.03897,2.94359-1.57047,4.41104c-0.28533,0.78781-0.62131,1.55766-0.89443,2.34942
			c-0.29103,0.84368-0.5301,1.70518-0.80063,2.55611c-0.27068,0.85142-0.4599,1.74543-0.85443,2.53616
			c-0.4103,0.82236-0.48969,1.71156-0.77528,2.55205c-0.11601,0.3414-0.22828,0.68571-0.37199,1.01574
			c-0.4108,0.94341-0.77327,1.91739-1.21586,2.83341c-0.45385,0.93932-0.47313,1.93702-0.76569,2.88751
			c-0.2855,0.92757-0.37951,1.91316-0.57564,2.86958c-0.09542,0.46529-0.24869,0.91865-0.34654,1.38355
			c-0.20689,0.98296-0.39806,1.9693-0.58667,2.95597c-0.03109,0.16265-0.03578,0.33593-0.01962,0.50106
			c0.06638,0.67812-0.04634,1.33018-0.20687,1.98745c-0.06845,0.28025-0.06842,0.62851,0.03926,0.88836
			c0.15762,0.38039,0.16898,0.74139,0.16805,1.13875c-0.00183,0.77943,0.07414,1.55887,0.10773,2.33874
			c0.00708,0.16435-0.02987,0.33058-0.04613,0.49599c-0.09624,0.97904-0.1222,1.95219,0.21472,2.90017
			c0.04616,0.12988,0.06572,0.27177,0.08027,0.40992c0.09033,0.85767,0.14332,1.72075,0.27229,2.5724
			c0.11719,0.77383,0.33026,1.53522,0.7246,2.22018c0.58307,1.01276,1.24498,1.98287,1.78244,3.01832
			c0.4642,0.89433,1.25329,1.49184,1.84175,2.2664c0.05056,0.06657,0.11137,0.12648,0.1733,0.18303
			c0.12367,0.11294,0.24323,0.30492,0.37881,0.31822c0.92343,0.09058,1.43919,0.92815,2.25347,1.19336
			c0.25701,0.08371,0.56541,0.10149,0.83093,0.04986c0.76683-0.14909,1.56378-0.25288,2.27604-0.54946
			c1.34175-0.55868,2.64058-1.22387,3.93945-1.88001c0.39335-0.19872,0.7611-0.47826,1.08394-0.78116
			c1.38816-1.30237,2.84552-2.54691,4.10649-3.96476c1.48096-1.66523,3.09222-3.24332,4.1483-5.25969
			c0.27904-0.53277,0.73629-0.97565,1.13079-1.44372c0.70332-0.83445,1.44381-1.63856,2.12458-2.49064
			c0.4169-0.5218,0.78138-1.09212,1.11569-1.67163c0.4326-0.74992,0.80192-1.53609,1.21869-2.29556
			c0.16042-0.29234,0.34895-0.57903,0.57197-0.82549c0.75989-0.83971,1.33819-1.79227,1.8148-2.81178
			c0.26067-0.5576,0.47163-1.14254,0.77551-1.67492c0.51158-0.89624,1.01174-1.81313,1.64318-2.62267
			c0.58307-0.74752,1.02279-1.54801,1.28809-2.43177c0.25383-0.84557,0.78571-1.53985,1.11858-2.33872
			c0.19189-0.46053,0.496-0.87299,0.71167-1.32518c0.59865-1.2551,1.16851-2.52391,1.7668-3.77918
			c0.50575-1.0611,1.01862-2.11958,1.56264-3.1613c0.21791-0.41729,0.55831-0.76948,0.78858-1.18169
			c0.36784-0.65847,0.69374-1.34057,1.03113-2.01579c0.51269-1.02603,1.03367-2.04828,1.52308-3.08537
			c0.2017-0.42741,0.29691-0.90521,0.50014-1.33171c0.36002-0.75558,0.75676-1.49421,1.15479-2.23094
			c0.3315-0.61359,0.67997-1.21837,1.03434-1.81913c0.19795-0.33559,0.42418-0.65443,0.63595-0.98193
			c0.22675-0.3507,0.45498-0.68126,0.44486-1.14809c-0.00524-0.24146,0.18667-0.50274,0.33038-0.72911
			c0.53769-0.84689,1.14477-1.6541,1.62793-2.53017c0.68674-1.2452,1.29362-2.53483,1.92184-3.81177
			c0.38287-0.77824,0.75133-1.56396,1.10847-2.35435c0.29734-0.65807,0.51318-1.35886,0.8632-1.986
			c0.73338-1.31401,1.30794-2.71952,2.31174-3.88253c0.48917-0.56674,0.8681-1.23384,1.25954-1.87822
			c0.34918-0.57481,0.89899-0.76223,1.48963-0.75077c0.69152,0.0134,1.32935-0.02179,1.91395-0.45299
			c0.29545-0.2179,0.66531-0.05534,0.80061,0.30651c0.14849,0.39715,0.10155,0.79544-0.19189,1.10141
			c-0.49334,0.51443-0.76756,1.13427-1.08154,1.76235c-0.30503,0.61017-0.50364,1.22885-0.71072,1.86499
			c-0.20558,0.63152-0.52168,1.2267-0.78201,1.84092c-0.08708,0.20547-0.19225,0.41528-0.22004,0.63196
			c-0.19524,1.52231-0.93958,2.85694-1.43568,4.27609c-0.23985,0.68607-0.42705,1.3914-0.6863,2.06958
			c-0.24734,0.64705-0.55766,1.27-0.83965,1.90384c-0.23533,0.52897-0.53801,1.01639-0.68381,1.59958
			c-0.1819,0.72764-0.5161,1.41793-0.79347,2.12082c-0.67755,1.7169-1.36024,3.43179-2.04086,5.14748
			c0.07328,0.70567-0.54304,1.12965-0.71232,1.74647c-0.19096,0.69577-0.51893,1.35306-0.72743,2.04511
			c-0.37084,1.23087-0.68682,2.47821-1.0475,3.7123c-0.10027,0.34309-0.26965,0.66724-0.42095,0.99377
			c-0.14082,0.30389-0.3215,0.59061-0.44631,0.90034c-0.26902,0.66764-0.31314,1.4135-0.73708,2.03326
			c-0.11749,0.17175-0.14615,0.42824-0.15295,0.6478c-0.03912,1.26195-0.59982,2.37256-1.01851,3.52047
			c-0.31549,0.86497-0.77358,1.68145-1.04641,2.55744c-0.24699,0.79301-0.36906,1.63226-0.47472,2.46024
			c-0.16276,1.27538-0.46824,2.51394-0.81658,3.74673c-0.08299,0.29372-0.12619,0.60349-0.14827,0.90873
			c-0.06694,0.92563-0.27277,1.79081-0.65654,2.65891c-0.30569,0.69145-0.27721,1.52738-0.42036,2.29483
			c-0.15236,0.81679-0.23178,1.65096-0.28934,2.4682c-0.06957,0.98789-0.26423,1.99835-0.00615,2.99769
			c0.05499,0.21295,0.07576,0.44149,0.07086,0.66193c-0.01733,0.7796-0.06046,1.55864-0.07611,2.33825
			c-0.00444,0.22105,0.04652,0.44405,0.08049,0.66488c0.11889,0.77278,0.24229,1.54487,0.36138,2.31762
			c0.01273,0.08257,0.02472,0.1708,0.00962,0.25127c-0.33311,1.7755,0.63239,3.08289,1.58045,4.39675
			c0.09779,0.13552,0.23091,0.2556,0.29244,0.40549c0.26947,0.6565,0.80582,1.02135,1.35206,1.43386
			c0.83803,0.63285,1.75443,0.68919,2.71103,0.61689c0.31872-0.02409,0.65834-0.15765,0.93064-0.33159
			c0.61266-0.39135,1.20715-0.8167,1.77589-1.26982c0.71974-0.57343,1.41465-1.17901,2.10559-1.78738
			c0.90734-0.79891,1.70687-1.68986,2.27332-2.77146c0.07722-0.14746,0.17809-0.28662,0.28781-0.41233
			c0.70816-0.81136,1.11739-1.78496,1.5664-2.74751c0.33871-0.7261,0.82249-1.38414,1.23634-2.07568
			c0.67247-1.12375,1.52266-2.13073,1.99387-3.3894c0.37012-0.98861,0.94831-1.89767,1.39928-2.85839
			c0.21146-0.45046,0.3386-0.94024,0.50855-1.41055c0.07506-0.20769,0.14415-0.42031,0.2457-0.61518
			c0.59406-1.13992,1.17105-2.28828,1.97202-3.30853c0.20068-0.25562,0.27809-0.60687,0.41814-0.91142
			c0.63107-1.37228,1.29037-2.73239,1.88542-4.12007c0.28384-0.66193,0.40923-1.39058,0.67519-2.06173
			c0.28725-0.72485,0.65083-1.41979,0.98822-2.12437c0.73489-1.53467,1.51179-3.05056,2.20068-4.60549
			c0.61116-1.37948,1.33498-2.69615,2.03793-4.02644c0.39021-0.73847,0.86735-1.42606,1.13384-2.23882
			c0.16975-0.51772,0.49554-0.99844,0.8157-1.45013c1.15089-1.62369,2.0217-3.41126,3.01875-5.12395
			c0.39364-0.67619,0.76256-1.3512,1.32957-1.89841c0.06001-0.05791,0.13152-0.1199,0.15799-0.19415
			c0.41499-1.16402,1.45258-1.89857,2.03034-2.95107c0.21497-0.39155,0.46584-0.76452,0.71572-1.1356
			c1.2002-1.78231,2.37747-3.58213,3.81637-5.18853c0.39194-0.43756,0.77981-0.882,1.20552-1.28531
			c0.62784-0.59477,1.42873-0.8969,2.24696-1.07322c1.25654-0.27079,2.52876-0.40205,3.83008-0.31051
			c0.71305,0.05016,1.44102-0.13653,2.16401-0.19489c0.58329-0.04708,1.16933-0.08741,1.75388-0.08417
			c0.64155,0.00355,1.28307,0.09195,1.9241,0.08629c0.82841-0.00734,1.59173,0.22458,2.35621,0.50021
			c0.67905,0.24482,1.40069,0.31939,2.06778,0.65599c1.16006,0.58537,2.2952,1.2285,3.087,2.24708
			c0.78075,1.00436,1.51795,2.08109,1.80396,3.37216c0.07979,0.36017,0.13762,0.72223-0.11088,1.04872
			c-0.18965,0.24916-0.16855,0.52063-0.09677,0.8019c0.13003,0.50951,0.01738,0.99187-0.12904,1.4846
			c-0.19833,0.66753-0.33154,1.35413-0.51585,2.02621c-0.11042,0.40273-0.24507,0.80151-0.40317,1.18802
			c-0.77258,1.88878-1.39968,3.82864-2.06632,5.75546c-0.65726,1.89961-1.45966,3.75096-2.06726,5.66511
			c-0.40073,1.26249-1.07543,2.39246-1.50876,3.63037c-0.03645,0.10416-0.09843,0.20094-0.15781,0.29533
			c-0.61739,0.9816-0.94238,2.07812-1.17702,3.19381c-0.19261,0.91588-0.62778,1.72551-0.96804,2.57703
			c-0.25631,0.6414-0.59605,1.25088-0.70617,1.946c-0.01717,0.10829-0.04972,0.23069-0.11703,0.31182
			c-0.44618,0.5377-0.52046,1.22461-0.7628,1.84383c-0.10094,0.2579-0.21734,0.51537-0.36578,0.74812
			c-0.63637,0.99775-0.88802,2.1188-0.94988,3.26666c-0.03238,0.60064-0.19127,1.14347-0.35829,1.69958
			c-0.07229,0.2407-0.20049,0.48108-0.20414,0.7231c-0.01632,1.07884-0.32549,2.09136-0.62316,3.11199
			c-0.19021,0.65218-0.24872,1.31901,0.01009,1.97772c0.02978,0.07581,0.04225,0.1646,0.03886,0.24636
			c-0.05294,1.27139,0.28246,2.49127,0.4987,3.72607c0.05741,0.3279,0.15202,0.65665,0.28129,0.9632
			c0.37784,0.89608,0.69525,1.8195,1.35235,2.57915c0.45605,0.52728,0.87708,1.09458,1.24148,1.68835
			c0.30388,0.4951,0.71387,0.85512,1.15566,1.19965c0.19844,0.15473,0.41689,0.28675,0.60077,0.45668
			c0.76527,0.70721,1.61205,0.79472,2.55687,0.40588c0.64063-0.26365,1.10001-0.74938,1.62365-1.16911
			c1.05684-0.84712,1.97733-1.81916,2.82716-2.86176c0.29725-0.36467,0.50579-0.80023,0.7785-1.18673
			c0.24055-0.34092,0.49496-0.67616,0.77711-0.98277c0.53219-0.57832,0.98962-1.18734,1.34223-1.90655
			c0.25739-0.52499,0.5623-1.06233,1.14557-1.40073c0.41548-0.24105,0.74126-0.67617,1.03703-1.07643
			c0.7515-1.01694,1.6434-1.9069,2.5536-2.7663c0.91246-0.86151,1.59683-1.86322,2.20338-2.93787
			c0.15129-0.26804,0.26851-0.55843,0.44298-0.80967c0.47092-0.6781,0.72696-1.43248,0.9458-2.22302
			c0.22968-0.82968,0.57278-1.6287,0.87956-2.4361c0.31773-0.83628,0.6566-1.66451,0.97435-2.50079
			c0.07887-0.20765,0.12807-0.43024,0.16228-0.65041c0.06631-0.42673,0.25327-0.78248,0.50171-1.13686
			c0.25217-0.35968,0.42653-0.77836,0.60445-1.18456c0.23552-0.53771,0.43973-1.08909,0.66104-1.63311
			c0.06323-0.15546,0.17162-0.29928,0.20378-0.45957c0.20969-1.04491,0.88889-1.85847,1.35031-2.77871
			c0.10019-0.19983,0.23587-0.38589,0.30923-0.59447c0.40138-1.14105,1.01305-2.16815,1.64584-3.19135
			c0.38148-0.61682,0.70737-1.27649,0.98405-1.94749c0.33377-0.80943,0.74953-1.55767,1.26776-2.26275
			c0.96075-1.30704,1.89159-2.63609,2.83498-3.95588c0.01631-0.02278,0.04134-0.04217,0.04973-0.06732
			c0.31317-0.93815,1.12749-1.50943,1.66554-2.28206c0.38055-0.54648,0.72513-1.11788,1.09317-1.67328
			c0.12279-0.18531,0.25281-0.37051,0.40628-0.53002c0.79239-0.82357,1.5946-1.63767,2.39113-2.45728
			c0.52457-0.53976,1.0865-1.04995,1.55823-1.63282c0.71228-0.88016,1.56458-1.58968,2.43211-2.30398
			c0.68436-0.56345,1.24921-1.27059,1.88181-1.89916c0.21291-0.21154,0.44742-0.42501,0.71231-0.55653
			c1.30272-0.64681,2.62508-1.25402,3.92905-1.89841c1.94209-0.95977,3.93762-1.75533,6.08974-2.10594
			c0.85614-0.13947,1.7048-0.37296,2.56531-0.42545c1.16699-0.07117,2.35339-0.30296,3.50949-0.03903
			c1.27306,0.29064,2.58575,0.47918,3.76132,1.11214c0.0985,0.05304,0.21213,0.08239,0.30202,0.14626
			c1.43159,1.01725,2.97438,1.8743,4.30144,3.04433c0.57086,0.50332,1.05823,1.05428,1.50484,1.67107
			c0.87729,1.21169,1.57951,2.51335,2.09711,3.90502c0.47905,1.28803,0.73036,2.64169,0.8797,4.00819
			c0.07892,0.72244,0.10063,1.45097,0.17075,2.17456c0.13347,1.37713-0.0647,2.73777-0.17868,4.10297
			c-0.00229,0.02781-0.01459,0.05541-0.01358,0.08279c0.03691,1.00596-0.10236,1.98624-0.33577,2.9668
			c-0.22662,0.95193-0.35809,1.92654-0.53079,2.8913c-0.17744,0.99101-0.46063,1.97741-0.50507,2.9744
			c-0.05894,1.32338-0.5657,2.4865-0.9995,3.68788c-0.07501,0.2077-0.09109,0.43608-0.14246,0.65301
			c-0.16708,0.70568-0.31606,1.41677-0.51601,2.11315C182.4487,94.89339,182.41325,94.88315,182.59967,95.46355z
			 M166.76038,68.01892c-0.52435,0.07296-1.02869,0.11092-1.51779,0.21825c-0.87192,0.19134-1.72383,0.51307-2.60361,0.62029
			c-1.45345,0.17712-2.62016,1.07355-3.98642,1.44856c-0.12912,0.03544-0.23509,0.14928-0.35735,0.21668
			c-0.53743,0.29626-1.07037,0.60179-1.6176,0.87895c-0.49857,0.25251-1.04742,0.41998-1.51331,0.71949
			c-0.72282,0.46471-1.52643,0.85603-1.98476,1.64182c-0.39926,0.68454-0.92923,1.24637-1.5354,1.74824
			c-0.87781,0.72675-1.58998,1.57049-1.87726,2.7112c-0.04698,0.18656-0.12303,0.38306-0.2404,0.53171
			c-0.60486,0.76611-0.89587,1.74763-1.66031,2.40538c-0.09731,0.08372-0.12561,0.24535-0.19206,0.36752
			c-0.59874,1.10083-1.16321,2.22243-1.81036,3.29407c-0.47989,0.79471-0.90723,1.59644-1.20471,2.48039
			c-0.22124,0.65734-0.55663,1.27663-0.84645,1.91044c-0.31326,0.685-0.65266,1.3588-0.9436,2.05302
			c-0.27907,0.66593-0.44453,1.38664-0.77892,2.02051c-0.4763,0.90287-0.68762,1.86788-0.93044,2.83945
			c-0.14772,0.59101-0.04521,1.31213-0.6989,1.70817c-0.03682,0.02231-0.04889,0.10008-0.0562,0.15424
			c-0.12688,0.94006-0.54648,1.82671-0.49509,2.80196c0.01291,0.24521-0.07172,0.49576-0.11308,0.74359
			c-0.14148,0.84774-0.46518,1.64915-0.45247,2.54345c0.01057,0.74339-0.16365,1.49118-0.09277,2.24873
			c0.01453,0.15521-0.11024,0.31852-0.12633,0.48245c-0.05139,0.5242-0.14824,1.05597-0.10512,1.57464
			c0.06709,0.80725,0.22243,1.60831,0.36357,2.4079c0.12106,0.68572,0.21361,1.38106,0.68208,1.95667
			c0.13303,0.16343,0.16109,0.41346,0.2328,0.6253c0.0889,0.26259,0.1546,0.53464,0.26274,0.7888
			c0.33894,0.79667,0.67661,1.59473,1.04892,2.37597c0.16615,0.34866,0.38239,0.68502,0.63139,0.98014
			c0.4496,0.53291,0.91585,1.05689,1.41974,1.53789c1.27505,1.21712,2.55858,2.42858,4.14653,3.24976
			c0.17296,0.08945,0.3208,0.22759,0.49396,0.31658c0.64326,0.3306,1.26151,0.77059,1.94633,0.94517
			c0.99745,0.25427,2.04085,0.37993,3.0714,0.43551c0.74318,0.04008,1.55676,0.03089,2.23332-0.23012
			c5.41699-2.28004,9.61377-6.99286,9.90813-7.27663c0.38142-0.36771,0.76906-0.72901,1.15617-1.09077
			c0.38564-0.36035,0.79248-0.70026,1.15486-1.08247c0.26607-0.28065,0.43733-0.65582,0.71748-0.91759
			c0.69928-0.6534,0.98981-1.5508,1.42247-2.35186c0.40723-0.754,0.64331-1.60342,0.9257-2.42087
			c0.20328-0.58848,0.03246-0.82909-0.61369-0.86635c-1.2258-0.07069-2.45465-0.09293-3.67923-0.17838
			c-0.83026-0.05792-1.68971,0.01949-2.46835-0.37672c-0.54904-0.27938-1.08069-0.59396-1.63574-0.86023
			c-0.42398-0.20338-0.92412-0.28322-1.297-0.54901c-0.46983-0.33492-1.00146-0.73661-1.21265-1.23417
			c-0.18097-0.4264,0.04929-1.0287,0.10443-1.5525c0.00856-0.08124,0.05803-0.15733,0.08067-0.23801
			c0.23035-0.82084,0.75958-1.48719,1.14073-2.22984c0.48248-0.94017,0.92909-1.89733,1.51717-2.78026
			c0.08899-0.1336,0.11781-0.31537,0.14632-0.47974c0.10866-0.62657,0.48894-1.12051,0.79495-1.64958
			c0.19147-0.33101,0.51016-0.42342,0.86919-0.37798c0.84363,0.1068,1.60741,0.35766,2.30287,0.90915
			c1.16777,0.92601,2.4269,1.70916,4.01241,1.67632c0.16487-0.00341,0.32997,0.06475,0.49667,0.07729
			c0.30435,0.02287,0.6118,0.05643,0.91457,0.03574c0.47348-0.03236,0.94321-0.11607,1.41628-0.15874
			c0.29333-0.02646,0.46138-0.17322,0.53374-0.44712c0.24187-0.91563,0.60999-1.80165,0.636-2.76801
			c0.00598-0.22266,0.03535-0.44669,0.07545-0.66615c0.26675-1.45899,0.57407-2.91153,0.80103-4.37657
			c0.26926-1.73801,0.65279-3.46864,0.51543-5.24883c-0.015-0.19404-0.01398-0.39809,0.02864-0.58641
			c0.31677-1.40023-0.04401-2.78699-0.06914-4.17989c-0.39505-0.82021-0.26852-1.7368-0.48018-2.58837
			c-0.11394-0.45835-0.32831-0.8908-0.47795-1.34138c-0.54057-1.62771-1.27483-3.15656-2.39044-4.46907
			c-0.44952-0.52883-0.95129-1.03799-1.51186-1.44133c-0.67661-0.48684-1.43983-0.85359-2.16844-1.2673
			c-0.09572-0.05433-0.20544-0.099-0.31345-0.11414C168.18694,68.20318,167.46686,68.11169,166.76038,68.01892z
			 M332.87256,105.86093c-0.03598,0.03015-0.07199,0.06031-0.10797,0.09045c0.03003,0.03155,0.0639,0.09151,0.08917,0.0881
			c0.03943-0.0053,0.07306-0.05364,0.10913-0.08374C332.93289,105.92411,332.90292,105.89249,332.87256,105.86093z"/>
		<path class="st1" d="M439.85153,30.60336c2.07611,0.28602,3.99661,0.98922,5.55688,2.61222
			c0.82269,0.85577,1.55048,1.75564,2.17032,2.75771c0.11526,0.18634,0.26151,0.36975,0.4339,0.50153
			c0.48767,0.37277,0.62268,0.88509,0.71381,1.45882c0.2132,1.34143,0.0513,2.67647-0.05032,4.00701
			c-0.03409,0.44627-0.36371,0.86547-0.53247,1.30692c-0.31674,0.82825-0.92978,1.45779-1.42697,2.16454
			c-0.07654,0.10874-0.21051,0.18525-0.33109,0.25348c-0.55737,0.31561-1.11676,0.62783-1.68024,0.9324
			c-1.39801,0.75562-2.7995,1.50485-4.19791,2.25973c-1.03186,0.557-2.04379,1.15476-3.09863,1.66387
			c-0.54355,0.26231-1.13562,0.44477-1.78976,0.29602c-0.27005-0.0614-0.60898,0.04247-0.88052,0.15682
			c-0.46155,0.19434-0.88034,0.49184-1.3443,0.67806c-0.32599,0.13082-0.69788,0.21041-1.04803,0.20638
			c-1.32831-0.01532-2.633-0.27019-3.83246-0.81519c-1.06607-0.48441-2.03516-1.17194-2.81116-2.08316
			c-0.05408-0.06353-0.08252-0.15119-0.14197-0.20756c-1.46481-1.38968-1.35687-3.15199-1.15695-4.92893
			c0.02371-0.21048,0.14755-0.41805,0.25598-0.60933c0.7305-1.28788,1.38681-2.6282,2.22665-3.84111
			c1.04633-1.51091,2.1676-2.98871,3.8287-3.92622c0.36127-0.20395,0.66223-0.51278,0.99933-0.762
			c0.55966-0.41376,1.13235-0.81013,1.68805-1.22905c0.60333-0.4548,1.23526-0.88326,1.77948-1.40209
			c0.76099-0.72539,1.59503-1.19819,2.66815-1.23955C438.48801,30.79008,439.1228,30.68332,439.85153,30.60336z"/>
	</g>
</g>
</svg>
