<?xml version="1.0" encoding="utf-8"?>
<!-- Generator: Adobe Illustrator 25.4.1, SVG Export Plug-In . SVG Version: 6.00 Build 0)  -->
<svg version="1.1" id="Layer_1" xmlns="http://www.w3.org/2000/svg" xmlns:xlink="http://www.w3.org/1999/xlink" x="0px" y="0px"
	 viewBox="0 0 323.81076 188.99892" style="enable-background:new 0 0 323.81076 188.99892;" xml:space="preserve">
<style type="text/css">
	.st0{fill:#EFEDE6;}
	.st1{fill:#EFEDE5;}
	.st2{fill:#B48039;}
	.st3{fill:#AD8246;}
	.st4{fill:none;stroke:#B48039;stroke-width:0.99892;stroke-miterlimit:10;}
	.st5{fill:#FF00FF;}
	.st6{fill:#00FFFF;}
	.st7{fill:#606060;}
	.st8{fill:#A7834F;}
</style>
<g>
	<path class="st2" d="M204.57382,111.80476c-0.47774,0.44553-0.68559,0.60996-0.85815,0.80551
		c-0.66507,0.75361-1.30463,1.53008-1.97958,2.27457c-1.8761,2.06951-3.73944,4.15156-5.65793,6.18127
		c-1.34038,1.41808-2.84601,2.68587-4.12753,4.15212c-1.49016,1.70493-3.41628,2.87069-5.05623,4.38599
		c-1.14722,1.06003-2.58578,1.74004-4.01956,2.37624c-0.71404,0.31685-1.44878,0.60094-2.12517,0.98586
		c-1.41615,0.80585-2.93839,1.00044-4.52365,0.91629c-0.33418-0.01778-0.66524-0.09483-0.99944-0.11263
		c-2.77437-0.14778-4.80475-1.57173-6.48386-3.67642c-1.80049-2.25681-2.49849-4.89727-2.46741-7.67577
		c0.02864-2.56075,0.38655-5.12255,0.99088-7.62902c0.90291-3.74489,1.8364-7.48251,2.72159-11.23155
		c0.17249-0.73055,0.44867-1.47973,0.23897-2.32764c-0.22318,0.08743-0.40829,0.10715-0.50836,0.20976
		c-0.23241,0.23839-0.46228,0.49494-0.62552,0.78252c-1.07944,1.90125-2.41747,3.62004-3.72935,5.35859
		c-0.19899,0.26369-0.32928,0.57897-0.49384,0.86897c-0.46786,0.82465-0.89685,1.67484-1.41461,2.46695
		c-0.91679,1.40248-1.83269,2.79926-2.67169,4.25491c-0.8624,1.49612-1.91534,2.88702-2.93788,4.28522
		c-1.6158,2.20941-3.27441,4.38755-4.91765,6.57686c-1.01553,1.35298-2.24687,2.47901-3.62851,3.44892
		c-0.27345,0.19199-0.52332,0.42004-0.77106,0.64575c-0.87157,0.79413-1.76416,1.5374-3.00099,1.69749
		c-0.26897,0.03481-0.53699,0.16696-0.7796,0.30106c-2.05161,1.13341-4.29408,1.11302-6.53334,1.07053
		c-0.43642-0.00827-0.87566-0.16649-1.30327-0.29108c-2.73283-0.79617-5.1082-2.20192-7.17503-4.16016
		c-1.2588-1.19267-2.04666-2.62122-2.4828-4.28881c-0.80394-3.07402-0.89231-6.18758-0.58765-9.32494
		c0.21046-2.16727,0.40612-4.33876,0.71603-6.49287c0.29385-2.04282,0.73203-4.0647,1.09685-6.09757
		c0.07571-0.42204,0.10791-0.85188,0.1563-1.24644c-0.45546-0.16389-0.65391,0.05677-0.81284,0.27689
		c-0.49017,0.67891-1.02166,1.33911-1.42172,2.06977c-1.04883,1.91534-2.25422,3.72651-3.46876,5.5371
		c-1.02543,1.52869-1.95813,3.11924-2.94992,4.67085c-0.6619,1.03553-1.35499,2.05112-2.03575,3.07455
		c-0.06178,0.09286-0.15799,0.16803-0.20091,0.26749c-1.05853,2.45349-2.99997,4.29421-4.51244,6.43003
		c-0.86221,1.21758-2.02438,2.22663-3.07937,3.30222c-0.54701,0.55764-1.19333,1.01964-1.72614,1.58904
		c-0.85685,0.9157-1.87365,1.58533-2.99068,2.11554c-1.56192,0.74146-3.05868,1.63832-4.79639,1.9606
		c-2.67116,0.49541-5.117,0.07706-7.21667-1.74594c-0.88444-0.7679-1.77792-1.5338-2.58925-2.37581
		c-1.95324-2.02696-2.98257-4.52818-3.74032-7.20736c-0.8787-3.10674-1.02203-6.27952-1.15862-9.46194
		c-0.02855-0.66459,0.1073-1.33484,0.13464-2.00384c0.01242-0.30445-0.05505-0.61215-0.11147-1.16586
		c-0.35973,0.35561-0.58306,0.50801-0.71558,0.71777c-1.64296,2.60107-3.4205,5.10965-5.33594,7.51281
		c-2.50524,3.14316-4.80444,6.45993-7.67493,9.30079c-2.14452,2.12234-4.30739,4.2261-6.46543,6.33472
		c-0.19938,0.19479-0.42161,0.36636-0.63554,0.54596c-1.21946,1.02388-2.50286,0.69308-3.77513,0.14601
		c-0.43003-0.18488-0.65821-0.66815-0.49195-1.13338c0.18362-0.51364,0.41525-1.07133,0.79099-1.44304
		c0.94836-0.93822,1.92897-1.86676,3.00853-2.6437c1.37387-0.98868,2.60466-2.1068,3.72146-3.36585
		c1.89149-2.13231,3.80861-4.24252,5.66653-6.40366c0.83362-0.96973,1.55474-2.03671,2.31748-3.0666
		c0.26553-0.35858,0.48213-0.75414,0.75595-1.10568c1.27245-1.6339,2.44501-3.33296,3.43456-5.15479
		c0.08006-0.14737,0.14365-0.31501,0.258-0.4306c1.131-1.1437,1.56448-2.6712,2.29107-4.04283
		c1.20099-2.26725,2.54464-4.45957,3.85168-6.66958c0.45545-0.77013,0.85641-1.55476,1.21866-2.37672
		c0.49158-1.11549,1.16797-2.14988,1.77071-3.21584c0.13747-0.24305,0.32767-0.45942,0.44353-0.71111
		c0.74542-1.62004,1.40665-3.28217,2.47672-4.73418c0.12641-0.17154,0.17926-0.41115,0.22237-0.62792
		c0.22414-1.12741,0.84349-2.03814,1.46705-2.98035c0.61049-0.92251,1.07448-1.9562,1.50208-2.98301
		c1.71944-4.12917,3.56891-8.19406,5.66588-12.14825c0.58767-1.10815,1.29635-2.08646,2.21815-2.91541
		c1.11827-1.00568,2.26019-1.985,3.38537-2.98309c0.29199-0.25898,0.53931-0.57115,0.84411-0.81208
		c0.2983-0.23575,0.64381-0.41182,0.92251-0.58538c1.86894,0.81629,2.19453,1.05926,3.11266,2.30212
		c0.0827,0.65939-0.358,1.14644-0.63396,1.67819c-0.87321,1.68258-1.81377,3.3307-2.66636,5.02335
		c-0.55125,1.09438-0.98192,2.24889-1.48825,3.36666c-0.80731,1.78212-1.64114,3.55224-2.44757,5.33472
		c-0.59848,1.32295-1.08933,2.70138-1.77219,3.97802c-1.58383,2.96101-2.88837,6.04487-4.192,9.13115
		c-0.21643,0.51241-0.43078,1.03807-0.54544,1.57893c-0.44069,2.0789-0.96051,4.13294-1.56045,6.17403
		c-0.77666,2.64239-0.95597,5.38274-1.05538,8.12505c-0.08972,2.47548,0.23788,4.89465,0.84689,7.29234
		c0.26027,1.02461,0.43993,2.05481,0.85023,3.05034c0.76997,1.86825,2.01514,3.31521,3.57481,4.54388
		c0.63273,0.49849,1.3081,0.66212,2.02791,0.29538c1.97918-1.00838,4.17285-1.62006,5.81927-3.24759
		c0.87292-0.86293,1.8511-1.61865,2.7687-2.43742c0.79482-0.70923,1.47025-1.5135,2.08124-2.39735
		c0.66339-0.95967,1.47855-1.81473,2.23151-2.71204c0.2869-0.34186,0.62964-0.64542,0.8697-1.0164
		c0.88018-1.36022,1.72068-2.74604,2.58978-4.11355c0.95834-1.50797,1.94836-2.99596,2.89369-4.51192
		c0.9155-1.46812,1.78873-2.95654,2.55473-4.51697c0.8855-1.80389,1.94903-3.52026,2.93023-5.27744
		c0.24514-0.43901,0.5353-0.86696,0.69512-1.33722c0.92131-2.71094,2.42392-5.1523,3.5607-7.76217
		c0.31195-0.71618,0.64348-1.42465,0.93019-2.15083c0.94707-2.39859,2.30679-4.58648,3.48117-6.86893
		c0.30699-0.59667,0.62714-1.18709,0.91435-1.79311c0.08842-0.18658,0.08759-0.41544,0.1308-0.64163
		c-1.1573-0.52814-2.34616-0.46439-3.50409-0.54358c-1.33505-0.09132-2.67476-0.12819-4.01311-0.15462
		c-1.78798-0.03535-3.57738-0.07501-5.36466-0.0388c-0.88898,0.01802-1.77478,0.19974-2.66171,0.30984
		c-0.97363,0.12086-1.76896-0.13476-2.31039-1.14425c0.09442-0.24442,0.19048-0.55502,0.33024-0.84447
		c0.77726-1.61012,1.56596-3.21468,2.34794-4.82252c0.07318-0.15044,0.11322-0.31766,0.19169-0.46483
		c1.44081-2.70295,1.66464-2.521,3.95637-2.7117c1.44656-0.12038,2.90342-0.1654,4.35543-0.16142
		c2.85008,0.00781,5.70207-0.013,8.54353,0.30474c0.77412,0.08657,1.56271,0.04966,2.34479,0.05726
		c0.5524,0.00537,0.97758-0.24639,1.22682-0.73356c0.27946-0.54621,0.59343-1.09106,0.76314-1.67414
		c0.5795-1.99107,1.35707-3.89936,2.28172-5.74971c0.29927-0.59893,0.67461-1.15955,0.98126-1.75513
		c0.61285-1.19026,1.18277-2.40281,1.80519-3.58791c1.61012-3.06566,3.24916-6.11616,4.85515-9.18401
		c0.54205-1.03547,1.01794-2.10554,1.52762-3.15807c0.14575-0.30097,0.29007-0.60406,0.45908-0.89206
		c0.62061-1.05754,1.27049-2.09838,1.87109-3.16703c0.36104-0.6424,0.77115-1.22974,1.34911-1.69147
		c1.35233-1.08032,2.66924-2.20936,4.0674-3.22672c1.33736-0.9731,3.42944-0.6563,4.41292,0.5392
		c0.3979,0.48372,0.49199,0.99972,0.24226,1.55972c-0.15828,0.35486-0.34373,0.70628-0.57111,1.02003
		c-0.69331,0.95675-1.18369,2.01262-1.69382,3.07444c-1.23274,2.56607-2.38914,5.16545-3.76521,7.66942
		c-2.6376,4.79964-4.94107,9.76951-7.06978,14.81922c-0.58495,1.38768-1.31996,2.71147-1.9612,4.07631
		c-0.32675,0.69552-0.77692,1.35628-0.79028,2.29281c0.3647,0.1009,0.71532,0.26665,1.07384,0.28603
		c2.39926,0.12963,4.79939,0.26929,7.201,0.31642c0.96895,0.01902,1.72858,0.36727,2.42883,0.96154
		c0.48126,0.40845,0.67261,0.95478,0.39095,1.50174c-0.35364,0.68671-0.73302,1.42364-1.29309,1.92442
		c-0.6879,0.61508-1.21703,1.33217-1.6259,2.10143c-0.54829,1.0316-1.44218,1.68845-2.23508,2.46072
		c-0.50507,0.49189-1.13043,0.66366-1.84543,0.62997c-2.3427-0.11038-4.68736-0.17954-7.03044-0.28275
		c-1.02524-0.04515-1.37914,0.13538-1.84663,1.07993c-0.1734,0.35034-0.33653,0.70853-0.46935,1.0758
		c-1.0255,2.83606-2.0434,5.67488-3.06061,8.51392c-0.1131,0.31564-0.20523,0.63872-0.31035,0.95727
		c-0.96231,2.91579-1.939,5.82693-2.88312,8.74858c-0.58388,1.80675-1.30185,3.59748-1.62489,5.45366
		c-0.33601,1.93063-0.82359,3.8163-1.23198,5.72443c-0.08113,0.37903-0.04985,0.78069-0.09641,1.1688
		c-0.086,0.71723-0.13858,1.44431-0.3,2.14542c-0.28944,1.25706-0.55795,2.51017-0.5033,3.81007
		c0.0047,0.11152,0.01855,0.22995-0.01041,0.33449c-0.45958,1.65792-0.03261,3.3108,0.01305,4.96638
		c0.03622,1.3135,0.45653,2.54853,0.942,3.7151c0.54834,1.31765,1.73296,2.17302,2.9563,2.87213
		c1.7175,0.98151,3.51694,0.96539,5.34045,0.28107c0.62657-0.23513,1.28246-0.40039,1.89079-0.67356
		c0.6573-0.29517,1.31285-0.62462,1.90135-1.03611c1.14423-0.80008,2.24413-1.66389,3.3549-2.51116
		c0.22044-0.16817,0.43417-0.35921,0.6053-0.57581c1.5211-1.92564,3.13567-3.77901,4.3472-5.93761
		c0.4892-0.87158,1.1512-1.64477,1.71205-2.47789c1.15448-1.71476,2.29655-3.43784,3.4386-5.16093
		c1.11066-1.67563,2.23824-3.34076,3.31232-5.03961c0.56621-0.89548,1.05911-1.84034,1.54164-2.78511
		c1.39621-2.73366,2.7747-5.47643,4.14938-8.22099c0.24988-0.49881,0.44872-1.02317,0.67145-1.53558
		c0.58521-1.34655,1.45323-2.51582,2.34612-3.66201c0.86925-1.11578,1.4959-2.33437,1.96748-3.67143
		c0.61353-1.73928,1.37677-3.42049,2.52875-4.89524c0.44453-0.569,0.83748-1.17983,0.98914-2.01408
		c-0.26752-0.16978-0.51468-0.41326-0.80637-0.49217c-0.48132-0.13026-0.98943-0.1803-1.48973-0.21861
		c-2.89484-0.22166-5.77748-0.63605-8.69353-0.53191c-0.61214,0.02183-1.23328-0.00911-1.84035-0.09007
		c-0.92738-0.1237-1.22829-0.67867-0.90572-1.53846c0.58844-1.56842,1.1622-3.14242,1.76204-4.70644
		c0.1787-0.46596,0.45184-0.89546,0.63359-1.3605c0.55226-1.41312,1.63919-2.00729,3.08376-2.22534
		c1.28957-0.19462,2.55867-0.11854,3.84251-0.03962c2.7327,0.16793,5.46738,0.30477,8.20187,0.44194
		c0.27156,0.01363,0.54744-0.05848,0.88237-0.09799c0.59581-0.88223,0.90674-1.90439,1.35394-2.85558
		c0.99828-2.12339,1.97275-4.25801,2.95064-6.39094c0.7218-1.57421,1.36626-3.18821,2.16649-4.72113
		c1.08534-2.07907,2.30313-4.08852,3.43382-6.14448c1.31947-2.39933,2.59428-4.82321,3.91048-7.2244
		c1.49626-2.72991,3.41846-5.08772,6.03551-6.83619c1.11165-0.74267,2.19315-1.53047,3.32396-2.32273
		c0.60867,0.2621,1.22905,0.493,1.81589,0.79014c0.96568,0.4889,1.59395,1.22431,1.51425,2.38559
		c-0.03049,0.4443,0.00363,0.92574-0.15816,1.32234c-0.54416,1.33392-0.98824,2.70453-1.97466,3.84269
		c-1.01761,1.1742-1.99382,2.39782-2.56798,3.89742c-0.27441,0.71674-0.73531,1.38377-1.20879,1.99857
		c-1.43802,1.86726-2.68282,3.85204-3.74904,5.94895c-1.39262,2.7388-2.82104,5.46165-4.12508,8.24249
		c-1.09047,2.32549-2.03242,4.72105-3.0183,7.09467c-0.14384,0.34639-0.16605,0.74332-0.26575,1.21775
		c0.30864,0.09984,0.55292,0.24131,0.80177,0.24987c3.12733,0.10762,6.25937,0.33659,9.3819,0.24626
		c2.64893-0.07664,5.22455,0.51173,7.84953,0.51451c1.024,0.00108,1.6469,0.65388,2.1555,1.39095
		c0.18716,0.27127,0.202,0.78761,0.08395,1.11617c-0.22281,0.62035-0.54852,1.21996-0.92166,1.76666
		c-0.78586,1.15146-1.61162,2.27714-2.45718,3.38582c-0.47324,0.62049-1.00717,1.19651-1.53569,1.77245
		c-0.40475,0.44104-0.92874,0.5909-1.52325,0.52318c-1.27528-0.14526-2.54878-0.32157-3.82822-0.41066
		c-1.0545-0.07342-2.11647-0.03794-3.17508-0.05396c-0.50226-0.00758-1.0089,0.01591-1.50575-0.04185
		c-1.44861-0.16836-2.88954-0.24662-4.34537-0.03709c-0.54347,0.07825-1.11266-0.02454-1.67021-0.0414
		c-0.94893-0.02868-1.89836-0.04433-2.84674-0.08516c-0.69571-0.02994-1.1591,0.27352-1.48407,0.87903
		c-0.98137,1.82856-1.81987,3.71249-2.33038,5.73201c-0.09555,0.37798-0.18109,0.76631-0.33919,1.11945
		c-1.60141,3.57716-2.8461,7.28503-4.06372,11.00347c-0.17372,0.53053-0.36453,1.05624-0.56808,1.57606
		c-0.46817,1.19555-0.92218,2.38935-1.23103,3.6448c-0.38661,1.57164-0.92262,3.10587-1.34326,4.66994
		c-0.59459,2.21088-1.13855,4.43533-1.71217,6.65189c-0.30733,1.18752-0.67247,2.36163-0.93619,3.55842
		c-0.25142,1.14128-0.41156,2.30309-0.59914,3.45794c-0.10751,0.66182-0.1819,1.329-0.28513,1.99159
		c-0.16542,1.06213-0.077,2.09489,0.11864,3.15833c0.25613,1.39239,1.05533,2.45937,1.83768,3.53392
		c0.65765,0.90331,1.73811,0.93841,2.74586,0.94481c0.49197,0.00314,0.99945-0.13497,1.47549-0.28601
		c3.67595-1.16611,6.9633-3.00573,9.78448-5.65939c0.77267-0.72678,1.63319-1.36053,2.40118-2.09183
		c0.64352-0.61279,1.2146-1.30222,1.81033-1.96441c0.22318-0.24804,0.38919-0.55964,0.6434-0.76556
		c1.22598-0.99307,2.23885-2.16892,3.17099-3.43719c0.69365-0.94379,1.49129-1.81188,2.25372-2.70419
		c0.6922-0.81017,1.3007-1.63342,1.57248-2.71863c0.29414-1.17447,1.21025-2.01562,2.08401-2.7728
		c0.6723-0.58264,1.05463-1.25569,1.39761-2.03109c2.12483-4.80387,4.25894-9.60358,7.18211-13.99998
		c2.29332-3.44909,4.78012-6.75065,7.56381-9.81652c0.97348-1.07218,2.10109-2.00454,3.1601-2.99886
		c0.24438-0.22945,0.51585-0.43305,0.74106-0.67948c1.70581-1.86691,3.65591-3.43336,5.80341-4.76131
		c0.23712-0.14661,0.46744-0.3082,0.68372-0.48399c1.57034-1.27644,3.33319-2.22164,5.12198-3.15586
		c1.48737-0.77682,2.97127-1.53313,4.52695-2.1661c1.46593-0.59647,2.99626-0.89883,4.53531-1.1778
		c1.0825-0.19623,2.08774,0.05773,3.07375,0.55979c2.55806,1.30256,3.93512,3.56121,5.00511,6.06843
		c0.32759,0.76766,0.5383,1.58612,0.78612,2.38642c0.08203,0.26501,0.14732,0.54418,0.16119,0.81988
		c0.10118,2.00977,0.23207,4.02164-0.12091,6.02198c-0.05804,0.32893-0.10765,0.67022-0.23595,0.97423
		c-1.33087,3.1536-2.89494,6.16383-5.32359,8.64552c-0.82028,0.83821-1.56261,1.75438-2.40143,2.57253
		c-2.86003,2.78952-6.12074,5.04494-9.57971,7.01682c-3.20274,1.82581-6.50507,3.46235-9.84288,5.02544
		c-0.91768,0.42976-1.87865,0.77211-2.91347,0.5321c-0.36067-0.08366-0.74059-0.26105-1.01433-0.50496
		c-0.51743-0.46099-0.57199-1.1487-0.12955-1.65462c0.40134-0.45894,0.83031-0.96699,1.35861-1.22598
		c1.02261-0.50129,1.86604-1.22585,2.74257-1.91091c0.98987-0.77365,2.11993-1.26188,3.31679-1.49454
		c1.60651-0.31228,2.91573-1.12846,4.11232-2.14568c2.70361-2.29829,4.93983-5.02731,6.86368-7.98565
		c1.12445-1.72912,2.07381-3.60766,2.17236-5.74515c0.04594-0.99665,0.02032-2.01516-0.13474-2.9982
		c-0.23436-1.48566-0.56929-2.95964-0.94818-4.41605c-0.13477-0.51802-0.47575-1.00552-0.8064-1.44372
		c-0.42728-0.56626-1.03011-0.80067-1.76776-0.75443c-2.18008,0.13662-4.17259,0.79706-5.85149,2.19946
		c-1.54132,1.28751-3.14062,2.52045-4.45119,4.06454c-0.61472,0.72427-1.24431,1.43621-1.84738,2.17001
		c-0.88582,1.07786-1.77466,2.15437-2.62564,3.25961c-2.32141,3.01501-4.35176,6.21258-6.06572,9.61567
		c-1.03041,2.04587-2.16606,4.0378-2.84982,6.24189c-0.4138,1.33396-0.89815,2.64694-1.28207,3.98901
		c-0.22939,0.80166-0.32808,1.64095-0.4818,2.46401c-0.57617,3.08497-0.97803,6.18463-0.67519,9.33091
		c0.06918,0.7187,0.23112,1.42907,0.36523,2.14047c0.04102,0.21782,0.19237,0.42696,0.19006,0.63895
		c-0.02252,2.08849,0.97806,3.89268,1.65533,5.77106c0.48759,1.35224,1.20242,2.62083,2.42049,3.54729
		c1.40346,1.06753,2.9437,1.57082,4.68631,1.43366c1.856-0.1461,3.6411-0.61936,5.31514-1.42249
		c1.66095-0.79684,3.29832-1.64936,4.90401-2.55226c0.96985-0.54536,1.86058-1.23173,2.78513-1.85731
		c1.10645-0.74868,2.0748-1.68014,3.31743-2.25827c0.68748-0.31988,1.24229-0.93785,1.83415-1.44782
		c1.90468-1.64117,3.9261-3.17169,5.66542-4.9737c2.28596-2.36842,4.552-4.77113,6.55624-7.40196
		c2.09882-2.75494,4.1965-5.51267,6.4545-8.14248c0.87454-1.01853,1.62439-2.12487,2.35049-3.25465
		c0.60211-0.93692,1.24258-1.8731,2.00574-2.67697c1.13287-1.19334,1.95441-2.56596,2.74548-3.98465
		c1.71265-3.07144,3.34134-6.19924,5.63614-8.90398c0.18011-0.21225,0.35373-0.43892,0.48312-0.68385
		c1.19934-2.27027,2.4165-4.53188,3.56723-6.82674c0.49866-0.99452,0.86264-2.0575,1.27148-3.09582
		c0.23193-0.58907,0.60059-1.03789,1.10013-1.43917c1.17416-0.94316,2.30869-1.93661,3.44193-2.92947
		c1.13455-0.99397,2.53522-1.38472,3.93964-1.73442c1.84689-0.4599,3.73505-0.68847,5.63416-0.81282
		c0.33411-0.02188,0.67566-0.07063,1.00323-0.02732c1.99387,0.26353,3.99054,0.5147,5.9744,0.84196
		c1.23611,0.2039,2.33432,0.76222,3.22482,1.67115c0.78238,0.79852,1.55658,1.60508,2.33105,2.41129
		c0.76904,0.80063,0.99109,1.77458,0.66785,2.79729c-0.62198,1.96774-1.07791,3.98608-2.03094,5.85302
		c-0.9386,1.83871-1.72977,3.75209-2.36584,5.72703c-0.47876,1.48643-1.06277,2.93862-1.57571,4.41447
		c-0.93561,2.69202-1.86154,5.38747-2.77136,8.08827c-0.17767,0.52736-0.26483,1.08533-0.392,1.62958
		c-0.62317,2.66714-1.20142,5.3495-1.25815,8.0956c-0.0668,3.23402-0.14774,6.46288,0.51608,9.68025
		c0.34464,1.67033,0.97128,3.20097,1.59973,4.74529c1.01276,2.48862,2.21854,4.88157,3.86151,7.02918
		c0.10172,0.13295,0.18539,0.27953,0.28064,0.41758c0.91058,1.31973,2.13287,1.77523,3.75186,1.69479
		c2.4184-0.12013,4.61832-0.86102,6.66852-2.02944c1.10172-0.6279,2.03641-1.54999,3.04037-2.34698
		c0.12888-0.10233,0.20639-0.26815,0.33255-0.37529c0.58401-0.49589,1.07782-1.15702,2.02948-0.85093
		c1.14923,0.36966,1.96722,1.03406,2.24399,2.24522c0.1582,0.69231-0.2464,1.20026-0.68658,1.62618
		c-0.92142,0.89163-1.84662,1.78945-2.84964,2.58461c-2.01428,1.59684-4.06201,3.14555-5.8512,5.0085
		c-1.02676,1.06906-2.41974,1.59407-3.70862,2.25238c-1.92862,0.98509-4.02295,1.45201-6.16391,1.36574
		c-3.23376-0.13028-6.11288-1.08228-8.20432-3.83852c-2.14206-2.82299-4.00879-5.77598-5.22833-9.11544
		c-0.51678-1.41504-1.09378-2.81035-1.55307-4.24357c-0.58545-1.82683-0.63156-3.74901-0.73041-5.64054
		c-0.11368-2.17522-0.06717-4.36014-0.04575-6.54038c0.00766-0.77857,0.11578-1.5602,0.22858-2.33305
		c0.63986-4.38322,1.88394-8.62065,3.11462-12.86209c1.31155-4.5202,3.04916-8.87129,5.05643-13.12485
		c0.81381-1.72454,1.25211-3.58752,1.62698-5.45295c0.18466-0.91883-0.1088-1.50718-0.96109-1.92477
		c-0.54504-0.26704-1.15097-0.42298-1.74271-0.57928c-1.86649-0.493-3.77975-0.27424-5.67432-0.33515
		c-0.48151-0.01546-0.87213,0.2055-1.12598,0.61407c-0.50064,0.80576-1.04224,1.59374-1.45859,2.44225
		c-0.52051,1.0607-1.1153,2.0389-1.90549,2.9343c-1.29721,1.46992-2.29086,3.16227-3.24658,4.87231
		c-0.46146,0.82563-1.03009,1.59608-1.4408,2.44446c-1.10919,2.29117-2.63394,4.26595-4.40253,6.07455
		c-0.30957,0.31657-0.57196,0.69048-0.80374,1.06992c-1.02484,1.67786-2.32974,3.13187-3.5777,4.63939
		c-2.13586,2.58018-4.37524,5.07956-6.22015,7.8966c-0.69818,1.06609-1.60757,1.994-2.42303,2.983
		c-0.10645,0.12907-0.23245,0.24201-0.33963,0.37054c-1.57281,1.88611-3.11685,3.79704-4.72485,5.65261
		c-1.09644,1.26525-2.24925,2.48604-3.43449,3.66898c-2.01601,2.01214-4.01172,4.05273-6.13943,5.94232
		c-1.87398,1.66423-3.49846,3.6245-5.68703,4.92902c-0.2357,0.14048-0.43991,0.34846-0.62622,0.5545
		c-0.76007,0.84066-1.69093,1.4469-2.64745,2.03593c-0.71072,0.43772-1.37007,0.96118-2.03864,1.46461
		c-2.59999,1.95761-5.40433,3.58792-8.3414,4.96021c-1.45654,0.68054-3.03935,1.12042-4.59969,1.54025
		c-1.36555,0.36745-2.78281,0.16129-4.17043,0.0079c-1.91682-0.21187-3.61185-1.00121-5.3271-1.87669
		c-1.56931-0.80096-2.61874-1.98438-3.6929-3.28143c-0.9776-1.18047-1.80434-2.39316-2.30942-3.8468
		c-0.20325-0.58489-0.3759-1.13425-0.41539-1.76617c-0.0553-0.88451-0.24522-1.76827-0.45345-2.6341
		c-0.57831-2.40438-0.79434-4.8405-0.78354-7.30762C204.82959,113.39676,204.69334,112.79622,204.57382,111.80476z"/>
	<path class="st2" d="M18.53658,122.64558c-0.32657,0.21632-0.64258,0.33994-0.83381,0.56808
		c-0.60938,0.72718-1.17403,1.49199-1.75306,2.24452c-1.44062,1.87228-3.36142,3.24704-5.05473,4.85692
		c-0.45124,0.42897-0.8934,0.83759-1.16578,1.4032c-0.32831,0.68158-0.83198,1.16443-1.53452,1.47383
		c-0.45632,0.20096-0.89933,0.46092-1.29565,0.76343c-0.82714,0.63132-1.68014,0.48613-2.54174,0.151
		c-0.33309-0.12955-0.52411-0.43588-0.52747-0.79439c-0.00697-0.74327,0.15945-1.43761,0.65519-2.02834
		c0.82465-0.98259,1.66806-1.95169,2.44602-2.97041c0.57302-0.75037,1.13278-1.5308,1.56003-2.36841
		c0.91333-1.79089,1.72118-3.63516,2.60101-5.4436c1.2456-2.56025,2.51825-5.10736,3.77647-7.66148
		c0.19764-0.40123,0.4178-0.79684,0.56357-1.21721c0.64522-1.86131,1.58913-3.56641,2.62713-5.23118
		c0.3513-0.56335,0.6136-1.18935,0.86165-1.80869c0.85053-2.12343,1.67811-4.2561,2.5116-6.38632
		c0.50853-1.29986,1.03258-2.59412,1.51368-3.90411c1.6568-4.51124,3.24118-9.04728,4.60052-13.659
		c1.56441-5.30765,3.13084-10.61469,4.6983-15.92145c0.87071-2.9478,1.70351-5.90538,2.20443-8.94361
		c0.63753-3.86683,1.13304-7.7467,0.85392-11.6793c-0.0592-0.83393-0.16773-1.67079-0.33944-2.48826
		c-0.12504-0.59541-0.33177-1.19112-0.60527-1.73478c-1.01188-2.0114-2.59604-3.18917-4.92122-3.15139
		c-1.33776,0.02174-2.67302-0.02902-4.01347,0.18346c-0.98166,0.15559-2.0089,0.11836-3.00767,0.04928
		c-1.61585-0.11176-3.22909-0.2894-4.83508-0.50209c-0.71147-0.09423-1.42278-0.28681-2.09829-0.53311
		c-1.0212-0.37241-1.1833-0.85558-0.54352-1.79045c0.50059-0.73153,1.05835-1.47252,1.74381-2.01627
		c0.80571-0.63909,1.505-1.53002,2.69352-1.57809c0.24278-0.00982,0.60378-0.21763,0.68932-0.42525
		c0.28633-0.69473,1.02271-0.84719,1.43735-1.31805c0.4759-0.54046,0.98139-0.65566,1.611-0.68659
		c1.45145-0.07129,2.88792-0.09633,4.34606,0.09496c1.14724,0.15053,2.33759-0.03675,3.50914-0.05993
		c1.45004-0.02868,2.90888-0.15105,4.34851-0.03745c2.05733,0.16234,3.88451,1.04181,5.48716,2.31759
		c1.77021,1.40921,3.14207,3.18295,4.2518,5.1402c0.79126,1.39556,0.9381,2.98273,0.99284,4.54823
		c0.10745,3.07514,0.10454,6.14471-0.53453,9.18653c-0.24939,1.18686-0.28036,2.41961-0.40305,3.55906
		c0.41021,0.31714,0.63457,0.12071,0.81227-0.08376c0.51299-0.59028,1.03373-1.17774,1.49773-1.80596
		c2.52692-3.42098,5.32584-6.60958,8.23707-9.70332c1.99554-2.12059,4.18674-4.01821,6.47994-5.81215
		c1.85159-1.44851,3.73425-2.83582,5.7976-3.97049c0.38938-0.21416,0.7362-0.50685,1.09821-0.7694
		c1.77203-1.28533,3.65301-2.3615,5.74145-3.05628c0.90103-0.29976,1.77894-0.66921,2.67956-0.97034
		c3.42449-1.14492,6.59185-0.84043,9.3886,1.65302c1.57383,1.40315,2.68207,3.13628,3.64415,4.97602
		c1.14837,2.19595,1.82045,4.5648,2.39193,6.95888c0.16634,0.69695,0.1669,1.43803,0.20002,2.16088
		c0.03326,0.72548-0.02116,1.45541,0.02114,2.17999c0.16322,2.79733-0.46755,5.42673-1.51302,8.00476
		c-1.0554,2.60254-2.40565,5.04844-3.8528,7.4347c-0.98091,1.61749-2.09967,3.16949-3.57119,4.41492
		c-0.25391,0.21488-0.46574,0.48112-0.68702,0.73241c-0.18462,0.20959-0.32963,0.45986-0.53497,0.64454
		c-2.11917,1.90615-4.21086,3.86965-6.69733,5.28638c-2.91067,1.65848-5.89468,3.19042-8.87027,4.73199
		c-1.68708,0.874-3.41296,1.67501-5.13718,2.47468c-0.98313,0.45592-1.79605,1.10757-2.54753,1.87585
		c-1.12518,1.1504-1.46921,2.49316-1.02196,4.00984c0.36291,1.23056,0.76519,2.45567,1.24982,3.64242
		c0.54849,1.34306,1.23235,2.63009,1.81456,3.96021c1.16512,2.66203,2.38243,5.30557,3.42418,8.01594
		c0.88366,2.29905,1.47993,4.71829,1.55016,7.18592c0.06864,2.40857-0.34979,4.78535-1.15025,7.08134
		c-0.89498,2.56688-2.30052,4.85236-3.97591,6.95344c-0.86038,1.07893-1.97917,1.95439-2.99965,2.90195
		c-0.48747,0.45264-1.04287,0.83282-1.52449,1.29099c-1.68056,1.59859-3.68237,2.72816-5.68332,3.83694
		c-1.95434,1.08293-3.98226,2.03355-5.98401,3.02994c-0.39927,0.19875-0.82205,0.35306-1.24105,0.50879
		c-1.30825,0.48634-2.64266,0.91022-3.9241,1.45847c-1.41884,0.60701-2.88122,0.86839-4.40744,0.8541
		c-0.83829-0.00786-1.68127,0.01918-2.51305-0.06213c-0.60093-0.05873-1.18924-0.26102-1.77912-0.41486
		c-2.14552-0.55962-4.05261-1.57802-5.73985-3.01152c-0.38129-0.32397-0.76733-0.64555-1.1205-0.99889
		c-0.90892-0.90927-1.79269-1.84369-2.70125-2.75331c-1.20352-1.20491-1.92802-2.73384-2.83548-4.13927
		C18.95141,123.28081,18.7729,123.00859,18.53658,122.64558z M82.04391,46.90235c-0.09806-1.33374-0.25854-3.50732-0.79978-5.63243
		c-0.47311-1.85758-1.23756-3.57526-2.27969-5.1943c-1.19223-1.85222-2.89015-2.37717-4.92451-2.0409
		c-1.09809,0.1815-2.15707,0.54421-3.17614,1.0371c-2.46021,1.18993-4.311,3.15674-6.32199,4.91048
		c-0.96233,0.83921-1.77206,1.85592-2.63236,2.80894c-0.97153,1.07623-1.92782,2.16641-2.87979,3.26001
		c-0.47602,0.54687-0.89019,1.15212-1.3983,1.6657c-1.06855,1.08007-1.95719,2.29097-2.78139,3.55904
		c-0.36362,0.55944-0.74963,1.10761-1.16481,1.62962c-1.46108,1.83729-2.93262,3.665-4.18496,5.65743
		c-0.92197,1.46687-1.80215,2.96652-2.81938,4.36539c-1.35023,1.85679-2.60627,3.74007-3.55729,5.85166
		c-0.79963,1.7754-1.88922,3.41962-2.83974,5.12788c-0.57072,1.02557-1.08955,2.08122-1.68926,3.08904
		c-0.54867,0.92206-0.94833,1.8932-1.26058,2.9149c-0.50564,1.65424-0.91486,3.34096-1.62185,4.92957
		c-0.34061,0.76535-0.72272,1.5175-0.99551,2.30692c-1.46064,4.22742-3.11158,8.38078-4.83451,12.50587
		c-0.8179,1.95813-1.66923,3.90298-2.54418,5.83627c-0.35491,0.78425-0.57061,1.55824-0.46333,2.42888
		c0.21835,1.77258,0.39531,3.55021,0.59863,5.32471c0.02518,0.22009,0.08369,0.44286,0.16573,0.64887
		c0.57789,1.45159,1.15174,2.90507,1.7568,4.34536c0.30738,0.73176,0.84945,1.29442,1.40672,1.85765
		c0.94102,0.95107,1.83299,1.95231,2.71707,2.95753c1.01216,1.15089,2.20988,2.05829,3.58224,2.71257
		c1.90171,0.90662,3.92855,1.23108,6.02958,1.15788c0.84756-0.0295,1.66118-0.1713,2.45912-0.4627
		c1.69062-0.61743,3.2521-1.49103,4.77194-2.43277c0.50964-0.31575,0.97306-0.76902,1.33314-1.2522
		c1.48233-1.98924,2.57057-4.19272,3.20354-6.58927c1.07436-4.06742,0.85197-8.09226-0.67019-12.01537
		c-0.76701-1.97691-1.63893-3.91336-2.47492-5.86319c-0.5722-1.3346-1.11741-2.68378-1.75855-3.98515
		c-0.97028-1.9693-1.65513-4.0404-2.18711-6.15192c-0.6066-2.40834,0.09462-4.52377,1.80647-6.30606
		c1.28089-1.33366,2.66486-2.53452,4.21942-3.55735c1.39652-0.91885,2.62529-2.10967,4.06715-2.93856
		c2.07768-1.19434,4.26554-2.2029,6.43572-3.22858c1.86878-0.88321,3.82397-1.6023,5.51207-2.82291
		c3.03825-2.19695,5.37298-5.03446,7.29798-8.22283c0.57697-0.95569,1.1094-1.94067,1.61678-2.93543
		c0.71023-1.39252,1.39633-2.7981,2.05927-4.21378C81.74158,51.98463,82.07737,49.89799,82.04391,46.90235z"/>
	<path class="st2" d="M115.49626,51.6434c-1.40678-0.11375-2.57725-0.1663-3.73586-0.31254
		c-1.50912-0.19047-2.54229-1.03735-3.14291-2.44242c-0.667-1.56041-1.10017-3.15077-0.92918-4.87432
		c0.11993-1.2085,0.7169-2.20929,1.24309-3.2579c1.01721-2.02712,2.52616-3.50571,4.62704-4.36832
		c1.28899-0.52925,2.58134-1.0504,3.87466-1.569c0.67319-0.26995,1.34883-0.53431,2.02846-0.78762
		c1.69528-0.63182,3.42646-0.98079,5.24996-0.71946c0.79916,0.11454,1.515,0.3955,2.12899,0.90376
		c0.99122,0.8205,1.9458,1.66785,2.29485,2.99722c0.15517,0.59093,0.43546,1.14784,0.62563,1.73104
		c0.43803,1.34313,0.49236,2.68365,0.35416,4.1159c-0.16765,1.7375-1.08476,3.01601-1.99881,4.32669
		c-0.54914,0.78729-1.40015,1.2746-2.32064,1.57804c-0.70344,0.23186-1.33929,0.52786-1.76918,1.17928
		c-0.2984,0.45215-0.78492,0.56008-1.30621,0.63238c-1.48997,0.20668-2.96936,0.4928-4.46127,0.68167
		C117.26875,51.58318,116.2641,51.59515,115.49626,51.6434z"/>
</g>
</svg>
