<?xml version="1.0" encoding="utf-8"?>
<!-- Generator: Adobe Illustrator 25.4.1, SVG Export Plug-In . SVG Version: 6.00 Build 0)  -->
<svg version="1.1" id="Layer_1" xmlns="http://www.w3.org/2000/svg" xmlns:xlink="http://www.w3.org/1999/xlink" x="0px" y="0px"
	 viewBox="0 0 388.66467 189.01877" style="enable-background:new 0 0 388.66467 189.01877;" xml:space="preserve">
<style type="text/css">
	.st0{fill:#EFEDE5;}
	.st1{fill:#B48039;}
	.st2{fill:#AD8246;}
	.st3{fill:none;stroke:#B48039;stroke-width:0.99892;stroke-miterlimit:10;}
	.st4{fill:#00FFFF;}
</style>
<path class="st1" d="M266.95471,86.70836c-0.22174,0.27597-0.47009,0.53493-0.66,0.83131
	c-0.47137,0.73552-1.08066,1.33758-1.71277,1.93111c-0.32104,0.30147-0.53058,0.71814-0.8204,1.05719
	c-0.52429,0.6133-1.09686,1.18662-1.60236,1.81439c-0.80484,0.99932-1.83463,1.80595-2.45413,2.96729
	c-0.45242,0.84831-1.09283,1.54101-1.93021,2.05853c-0.98511,0.6088-1.81738,1.41032-2.40109,2.41018
	c-0.81384,1.39402-1.90022,2.53777-3.04851,3.64787c-0.70042,0.67714-1.32208,1.43587-1.97688,2.15996
	c-0.48796,0.53961-0.98328,1.0731-1.45569,1.62606c-0.61629,0.72137-1.2393,1.43948-1.81216,2.19488
	c-0.78214,1.0314-1.69359,1.92118-2.66528,2.77339c-0.66626,0.58433-1.1781,1.34106-1.79353,1.98782
	c-0.80856,0.84963-1.65408,1.66398-2.47771,2.49947c-0.33224,0.33703-0.63869,0.69966-0.97455,1.03292
	c-0.37505,0.37213-0.77586,0.71821-1.15454,1.08681c-0.3183,0.30978-0.62129,0.63529-0.9305,0.95433
	c-0.40666,0.41953-0.83405,0.82122-1.21506,1.26289c-1.00244,1.16201-1.98238,2.34338-2.97691,3.51227
	c-0.18089,0.21262-0.3812,0.4102-0.58464,0.60191c-0.85437,0.80512-1.70444,1.60539-2.35452,2.6048
	c-0.26447,0.40656-0.69958,0.70462-1.06729,1.04082c-0.43921,0.4016-0.57672,0.9381-0.71104,1.48473
	c-0.07899,0.32162-0.18103,0.63985-0.30025,0.94899c-0.46217,1.19809-1.08275,2.35886-1.36072,3.5972
	c-0.24934,1.11072-0.6985,2.09689-1.13319,3.12056c-0.37955,0.89386-0.5652,1.86838-0.87025,2.79617
	c-0.18195,0.5535-0.42874,1.08569-0.64685,1.62726c-0.01045,0.02588-0.03545,0.04919-0.03716,0.07481
	c-0.07919,1.17453-1.00677,2.0506-1.12947,3.20982c-0.00577,0.05479-0.02342,0.11108-0.04764,0.16074
	c-0.45233,0.92601-0.91205,1.84843-1.3567,2.77808c-0.12955,0.27075-0.21805,0.56122-0.32358,0.84334
	c-0.23418,0.62605-0.47755,1.2489-0.69803,1.87976c-0.2683,0.76781-0.56108,1.50409-1.1353,2.12361
	c-0.29172,0.31476-0.45314,0.76808-0.61533,1.18156c-0.43813,1.11685-1.0443,2.13139-1.75273,3.09439
	c-0.15961,0.21696-0.25227,0.4924-0.33684,0.75352c-0.26445,0.81671-0.72696,1.49776-1.3329,2.09929
	c-0.51353,0.50986-0.98856,1.03114-1.30806,1.72044c-0.24719,0.53333-0.74649,0.95566-1.15768,1.4054
	c-0.39568,0.43274-0.81871,0.84076-1.23611,1.25316c-0.35646,0.3522-0.7095,0.70946-1.08643,1.03888
	c-0.50278,0.4393-1.06174,0.8188-1.53516,1.28618c-1.05254,1.03909-2.06262,2.12105-3.10107,3.1747
	c-0.17075,0.17325-0.37817,0.36116-0.60175,0.42323c-1.29565,0.35973-2.40567,1.08658-3.46419,1.85277
	c-0.80003,0.57909-1.68639,0.98149-2.50595,1.50946c-0.6572,0.42334-1.33894,0.8087-2.01271,1.20596
	c-0.14377,0.08476-0.29579,0.1593-0.45132,0.21977c-1.3548,0.52664-2.71445,1.04099-4.06569,1.57661
	c-0.5434,0.21542-1.0578,0.50719-1.60699,0.70387c-0.44217,0.15834-0.91357,0.29601-1.37785,0.31784
	c-0.76131,0.0358-1.50247,0.08826-2.216,0.39233c-0.78758,0.33568-1.62955,0.35187-2.47247,0.37964
	c-0.44037,0.0145-0.88197,0.11757-1.31456,0.21732c-1.16988,0.26973-2.32423,0.62906-3.50647,0.81432
	c-0.70293,0.11014-1.4469-0.03981-2.17226-0.07643c-0.16716-0.00844-0.33603-0.05867-0.50002-0.04393
	c-1.48199,0.13329-2.94632,0.06961-4.41982-0.1842c-1.68065-0.28949-3.38213-0.45792-5.07411-0.68227
	c-0.19374-0.0257-0.40234-0.03508-0.57414-0.11575c-1.35591-0.63675-2.82402-0.88702-4.25684-1.25893
	c-0.02707-0.00705-0.05614-0.01126-0.08029-0.02422c-1.57483-0.84541-3.36604-1.03137-5.01627-1.64676
	c-0.10483-0.03909-0.21376-0.071-0.31236-0.12241c-1.44476-0.75319-2.96156-1.32448-4.50816-1.8297
	c-0.91203-0.29793-1.72719-0.78799-2.47643-1.39285c-0.34737-0.28044-0.71115-0.55576-1.10548-0.76003
	c-1.33167-0.68987-2.49661-1.5918-3.5757-2.62665c-0.58322-0.55927-1.20784-1.08322-1.85831-1.56268
	c-1.05397-0.77686-1.85271-1.76195-2.55571-2.84969c-0.30127-0.46619-0.66164-0.89926-1.03183-1.31468
	c-0.64886-0.72806-1.16518-1.48848-1.12624-2.53296c0.01746-0.46809-0.12173-0.93999-0.15761-1.4126
	c-0.04648-0.61205-0.11754-1.23268,0.32579-1.76488c0.07999-0.09596,0.08661-0.26401,0.10146-0.40155
	c0.13223-1.22552,0.63301-2.29074,1.38405-3.25404c0.11829-0.15173,0.19998-0.33917,0.26814-0.5215
	c0.23668-0.63326,0.50468-1.23804,1.13525-1.59105c0.06776-0.03795,0.12604-0.11989,0.15585-0.19453
	c0.35901-0.89876,1.25018-1.21587,1.92809-1.76324c0.37613-0.30373,0.72227-0.26016,1.1319,0.04686
	c0.53285,0.39943,1.13417,0.71446,1.72841,1.02269c0.39186,0.20325,0.59204,0.48949,0.63065,0.91566
	c0.06058,0.66902,0.14662,1.33638,0.18588,2.00655c0.03932,0.67055,0.25252,1.2166,0.74019,1.71977
	c0.57907,0.59741,1.04262,1.30658,1.55809,1.96585c0.46358,0.59283,0.8965,1.20963,1.58136,1.59213
	c0.26212,0.14639,0.48364,0.37526,0.70171,0.58896c0.638,0.62521,1.2323,1.29967,1.90759,1.88055
	c0.45654,0.39268,1.02618,0.65205,1.53583,0.9854c0.46761,0.30583,0.9453,0.60286,1.37878,0.95299
	c1.06215,0.85791,2.25143,1.44426,3.54842,1.8611c0.68498,0.22015,1.31166,0.61638,1.98978,0.86461
	c0.86507,0.31667,1.7489,0.58743,2.63628,0.83662c1.99437,0.56007,3.99536,1.09648,5.99463,1.63899
	c1.48566,0.40314,2.97139,0.78107,4.52716,0.84021c0.77751,0.02957,1.54655,0.2372,2.32419,0.31993
	c0.74458,0.07921,1.49472,0.12228,2.24344,0.14223c0.80856,0.02151,1.6188-0.02132,2.42749-0.00189
	c1.34059,0.03221,2.66998,0.06915,3.99133-0.29027c0.8873-0.24135,1.81917-0.31409,2.72408-0.49699
	c0.79388-0.16046,1.57768-0.3708,2.36665-0.55595c0.32631-0.07658,0.65765-0.21747,0.98132-0.2036
	c1.01413,0.04343,1.92017-0.26474,2.828-0.67087c0.81305-0.36371,1.67628-0.61351,2.50443-0.94583
	c0.56651-0.22734,1.12296-0.48717,1.66219-0.77339c0.83961-0.44565,1.65533-0.93613,2.4911-1.38925
	c1.13326-0.61438,2.16678-1.36476,3.15909-2.18509c0.55609-0.45967,1.19893-0.8138,1.75963-1.26857
	c0.33733-0.27361,0.59953-0.64293,0.88075-0.98146c0.17838-0.21469,0.29167-0.49736,0.49966-0.67116
	c0.97702-0.81638,1.48752-1.93704,2.06396-3.02367c0.39183-0.73866,0.84697-1.4437,1.27287-2.16432
	c0.09969-0.16864,0.21504-0.33138,0.29007-0.51068c0.49496-1.18282,0.97659-2.37123,1.47124-3.5542
	c0.39931-0.95497,0.82329-1.89981,1.21216-2.85892c0.21959-0.54147,0.39938-1.09976,0.58165-1.65553
	c0.4884-1.48909,0.96068-2.98347,1.45517-4.47052c0.22041-0.66281,0.44286-1.32904,0.72762-1.96544
	c0.49698-1.11063,0.73248-2.28262,0.96083-3.46594c0.10458-0.54195,0.34299-1.05876,0.52844-1.58421
	c0.22289-0.63145,0.48235-1.25142,0.67624-1.8914c0.52667-1.7384,1.0172-3.48776,1.54102-5.22705
	c0.40254-1.33663,0.92314-2.64471,1.22551-4.00239c0.25961-1.16559,0.8978-2.15422,1.24886-3.2653
	c0.15919-0.50385,0.30498-1.01266,0.43538-1.52468c0.17598-0.69149,0.33124-1.38827,0.51007-2.14484
	c-0.41882,0.12481-0.53229,0.46722-0.73236,0.71481c-0.78978,0.97753-1.58348,1.95214-2.35515,2.94387
	c-0.25607,0.32911-0.48944,0.68813-0.66492,1.06526c-0.46385,0.99666-1.38901,1.59283-2.04565,2.42197
	c-1.05603,1.33354-2.14734,2.64006-3.25313,3.93287c-0.48749,0.56995-1.05089,1.07457-1.57249,1.61592
	c-0.32828,0.34074-0.63728,0.70003-0.96465,1.04167c-1.07925,1.12625-2.40465,1.92618-3.77693,2.6015
	c-1.19843,0.58975-2.47096,1.14299-3.77118,1.37759c-1.14487,0.20657-2.37489,0.25215-3.56741-0.14272
	c-1.00838-0.33388-1.82895-0.92204-2.67975-1.51289c-1.06836-0.74188-1.9424-1.6769-2.84315-2.59187
	c-0.13754-0.13968-0.26631-0.29561-0.42599-0.40468c-1.28787-0.87947-1.95741-2.15786-2.46008-3.59098
	c-0.45804-1.30595-0.6933-2.64773-0.92787-3.99921c-0.13826-0.79656-0.35782-1.57053-0.40062-2.39294
	c-0.04327-0.83161,0.09908-1.61196,0.2914-2.40166c0.07214-0.2962,0.16309-0.60571,0.14496-0.90303
	c-0.09491-1.55984,0.28641-3.05462,0.57248-4.5638c0.14998-0.79131,0.28831-1.58489,0.42305-2.37896
	c0.01697-0.09975-0.02016-0.20868-0.04681-0.43982c-0.55199,0.42388-1.0493,0.7608-1.49271,1.15794
	c-0.5191,0.46494-1.00743,0.96746-1.47972,1.48069c-0.60226,0.65447-1.16983,1.34072-1.76277,2.00392
	c-0.31599,0.35345-0.67017,0.67332-0.97868,1.03273c-0.66994,0.78038-1.31201,1.58473-1.98399,2.36329
	c-0.48766,0.56499-0.97224,1.14033-1.52177,1.6413c-0.31935,0.29111-0.56721,0.5946-0.76944,0.97003
	c-0.14235,0.26429-0.36594,0.49141-0.57921,0.70972c-0.85553,0.87571-1.81201,1.63548-2.55397,2.6449
	c-0.60399,0.82175-1.46263,1.45728-2.21387,2.16958c-0.73032,0.69245-1.48578,1.35931-2.19833,2.06938
	c-1.92284,1.91612-3.8824,3.78186-6.1489,5.3044c-1.67661,1.12628-3.49776,1.87117-5.46091,2.29141
	c-0.62279,0.13332-1.22267,0.42357-1.89233,0.26212c-1.43756-0.34657-2.86903-0.65958-4.19122-1.40479
	c-1.00706-0.5676-1.9437-1.21516-2.78546-1.97928c-0.52286-0.47461-0.96107-1.08908-1.29364-1.71687
	c-0.66599-1.25717-1.34233-2.52846-1.80992-3.86543c-0.43967-1.25701-0.70888-2.59369-0.88594-3.91767
	c-0.24828-1.85664-0.41966-3.73167-0.47459-5.60322c-0.03743-1.27534,0.15472-2.56097,0.29343-3.83666
	c0.08978-0.82587,0.26833-1.6421,0.43919-2.65251c-0.2262,0.27261-0.35938,0.41823-0.47559,0.5763
	c-0.23076,0.31391-0.39944,0.69784-0.6886,0.93928c-0.57779,0.4824-0.88928,1.12975-1.30061,1.72612
	c-0.66281,0.96085-1.45938,1.82954-2.20155,2.73544c-0.29999,0.36617-0.61617,0.71956-0.90569,1.09368
	c-0.2905,0.37541-0.54074,0.78246-0.83754,1.15244c-0.57278,0.71385-1.24446,1.32762-1.67123,2.18314
	c-0.3255,0.65243-0.8924,1.21965-1.451,1.71248c-0.88962,0.78487-1.58037,1.72437-2.30373,2.6437
	c-0.1032,0.13118-0.1716,0.30312-0.29889,0.3999c-1.54474,1.17461-2.7816,2.65688-4.09341,4.0648
	c-0.15125,0.16232-0.35138,0.278-0.51311,0.43182c-0.52586,0.50023-1.04305,1.00957-1.56647,1.51236
	c-0.20029,0.19241-0.40488,0.38072-0.61371,0.56381c-0.56601,0.49622-1.15077,0.97218-1.69914,1.48703
	c-0.59285,0.55659-1.3158,0.88507-2.07326,1.04338c-1.1731,0.24521-2.37179,0.37621-3.56444,0.51413
	c-0.3233,0.03738-0.67616-0.03221-0.9944-0.12494c-1.47561-0.42995-2.94953-0.82326-4.20319-1.82744
	c-0.63384-0.50771-1.26575-1.006-1.82282-1.59283c-0.48152-0.50732-0.89519-1.05159-1.1439-1.73505
	c-0.24586-0.67567-0.53278-1.3631-1.18138-1.79526c-0.08692-0.05791-0.15779-0.16193-0.20114-0.26006
	c-1.17741-2.66344-2.25613-5.36498-2.82163-8.2339c-0.44931-2.27928-0.76002-4.58609-0.69862-6.91267
	c0.0301-1.1406,0.28099-2.27548,0.4343-3.41264c0.03352-0.24871,0.11495-0.49699,0.10916-0.74394
	c-0.02481-1.05763,0.36774-2.02909,0.5985-3.03338c0.16233-0.70661,0.33797-1.41043,0.52233-2.11165
	c0.16225-0.61708,0.40611-1.21932,0.50292-1.84529c0.12074-0.78008,0.32359-1.48437,0.72637-2.19025
	c0.67323-1.17979,1.17566-2.45655,1.7602-3.68764c0.26221-0.55217,0.56662-1.08463,0.8199-1.6406
	c0.24239-0.53201,0.43782-1.08519,0.66368-1.62497c0.31116-0.74359,0.70396-1.46181,0.93212-2.22943
	c0.41766-1.40516,1.11499-2.68366,1.7139-4.00346c0.78284-1.72515,1.66431-3.40619,2.52481-5.09526
	c0.65892-1.29341,1.30979-2.59409,2.0435-3.84507c0.46425-0.79162,1.07471-1.49737,1.6181-2.24275
	c0.11531-0.15824,0.24078-0.31234,0.33293-0.48374c0.58153-1.08163,1.13544-2.17861,1.73785-3.24834
	c0.42664-0.7576,0.39555-1.56779,0.31088-2.36668c-0.02969-0.28001-0.32294-0.57113-0.56438-0.7766
	c-0.17622-0.14996-0.4597-0.20737-0.70399-0.23859c-2.11166-0.26985-4.22738-0.54932-6.36074-0.35143
	c-0.83192,0.07716-1.6509,0.29078-2.47683,0.43636c-0.38344,0.06757-0.76849,0.16319-1.15435,0.17113
	c-0.57903,0.01192-1.04896,0.20451-1.36287,0.68797c-0.31667,0.48779-0.61402,0.99031-0.88634,1.50412
	c-0.27414,0.5172-0.50291,1.05824-0.75885,1.58527c-0.56179,1.15683-1.13627,2.30753-1.69039,3.468
	c-0.50516,1.05804-1.05345,2.10183-1.46598,3.19592c-0.38795,1.02895-0.9206,1.97091-1.45309,2.91874
	c-0.20387,0.36291-0.46132,0.69555-0.69127,1.04401c-0.76393,1.15755-1.25536,2.47539-2.16185,3.55733
	c-0.28372,0.33862-0.31635,0.88338-0.48071,1.32756c-0.12411,0.33543-0.27338,0.66161-0.41443,0.99064
	c-0.14245,0.33236-0.28377,0.66534-0.43502,0.99371c-0.06867,0.14912-0.13616,0.30991-0.24504,0.42764
	c-0.83059,0.89812-1.18964,1.98119-1.42323,3.16503c-0.14262,0.72276-0.51219,1.41753-0.86855,2.07693
	c-0.41003,0.75873-0.94263,1.45014-1.37787,2.19654c-0.76137,1.30569-1.56867,2.57537-2.4421,3.81264
	c-0.58955,0.83511-0.94029,1.83736-1.41331,2.7569c-0.19024,0.36986-0.41785,0.72087-0.6356,1.07609
	c-0.27726,0.45223-0.58088,0.88934-0.83965,1.35172c-0.85759,1.53231-1.68364,3.10043-2.85268,4.41118
	c-1.03053,1.15544-1.55697,2.65672-2.7309,3.70296c-0.66617,0.5937-1.12255,1.36693-1.62294,2.114
	c-0.76795,1.1465-1.51012,2.35769-2.68137,3.18687c-0.17733,0.12556-0.34683,0.30809-0.43734,0.50269
	c-0.4437,0.95412-1.2496,1.56556-2.02992,2.20164c-0.4213,0.34341-0.76577,0.73297-0.93996,1.25995
	c-0.05163,0.15629-0.12651,0.31587-0.22958,0.44228c-0.42177,0.51743-0.81685,1.06673-1.29888,1.52277
	c-0.89039,0.84235-1.83315,1.62951-2.75813,2.43504c-0.29492,0.25685-0.60705,0.49388-0.90335,0.74921
	c-0.47141,0.4062-0.96593,0.7515-1.59733,0.88242c-0.47189,0.09784-0.85001,0.35474-1.19272,0.72662
	c-0.37287,0.40463-0.87167,0.69041-1.29335,1.05377c-0.33466,0.28835-0.69516,0.57542-0.93818,0.93475
	c-0.38032,0.5623-0.9165,0.81035-1.52863,0.94431c-0.53857,0.11786-0.88009-0.19257-0.80793-0.74837
	c0.03416-0.26294,0.13908-0.55333,0.30426-0.75612c0.63406-0.77847,1.13943-1.67215,1.97898-2.27254
	c0.0666-0.04764,0.12956-0.11438,0.16727-0.18637c0.92775-1.77098,2.47119-3.08497,3.53356-4.75932
	c0.27901-0.43974,0.73669-0.76203,1.07937-1.16621c1.01216-1.19384,2.00701-2.40237,3.01058-3.60352
	c0.23302-0.27892,0.45349-0.57258,0.71468-0.82301c1.06525-1.02142,1.81622-2.26171,2.5285-3.53488
	c0.20263-0.36217,0.47533-0.68487,0.71153-1.02864c0.36201-0.52686,0.76237-1.03298,1.07102-1.58971
	c0.5678-1.02419,1.05243-2.09656,1.8612-2.9683c0.39932-0.4304,0.60415-0.96762,0.64082-1.52428
	c0.04788-0.72693,0.35375-1.34289,0.63293-1.98307c0.19993-0.4585,0.3055-0.96689,0.55705-1.39149
	c0.21678-0.36591,0.5773-0.64787,0.8812-0.96022c0.07558-0.07768,0.23392-0.11254,0.2589-0.19572
	c0.17986-0.5983,0.49488-1.02351,1.03794-1.40971c0.46523-0.33084,0.67793-1.00679,1.02755-1.51268
	c0.47599-0.68877,0.97366-1.36265,1.46642-2.03973c0.36718-0.50455,0.62164-1.04737,0.72579-1.67378
	c0.12924-0.77705,0.37894-1.5178,0.82011-2.18665c0.36731-0.55685,0.7533-1.10887,1.04713-1.70442
	c0.24456-0.49572,0.35749-1.0551,0.54599-1.58009c0.34024-0.9474,0.67527-1.89745,1.04893-2.83182
	c0.18459-0.46156,0.43464-0.8997,0.68293-1.33247c0.47742-0.83213,0.75496-1.72845,0.91889-2.66679
	c0.01379-0.07899,0.04401-0.17374,0.09997-0.22391c0.686-0.61475,0.88472-1.54836,1.42523-2.23103
	c0.91856-1.16011,1.1366-2.60932,1.81372-3.85584c0.30331-0.55835,0.72804-1.04936,1.06431-1.59161
	c0.33673-0.54286,0.73727-1.07954,0.9184-1.67697c0.2221-0.73269,0.57401-1.37885,0.91542-2.0476
	c0.41888-0.8205,0.75835-1.68125,1.14441-2.51894c0.13956-0.30281,0.26941-0.62795,0.48173-0.87615
	c0.72714-0.85015,1.46531-1.69353,2.24291-2.49729c1.26292-1.30544,2.56451-2.57339,3.84136-3.86545
	c0.62822-0.63574,1.23646-1.29118,1.85593-1.9356c0.55724-0.5797,1.24455-0.93401,2.00496-1.17189
	c0.66673-0.20859,1.33224-0.4243,1.98702-0.66722c1.37427-0.50985,2.78258-0.82947,4.25117-0.90865
	c0.69659-0.03755,1.38924-0.16205,2.08159-0.26152c1.19801-0.17212,2.39259-0.20903,3.59605-0.03026
	c0.68994,0.10249,1.39018,0.13549,2.08592,0.1985c1.17151,0.10609,2.35045,0.2247,3.45068,0.64972
	c1.1906,0.45993,2.36566,0.92975,3.22171,2.01088c0.47673,0.60209,1.0755,1.02396,0.5847,1.88253
	c-0.05458,0.09552,0.01991,0.27334,0.05234,0.40874c0.24265,1.01353,0.09416,1.96681-0.26224,2.94871
	c-0.33984,0.93618-0.81189,1.76975-1.35277,2.59222c-0.36559,0.55586-0.64053,1.17754-0.905,1.79176
	c-0.21323,0.49527-0.45186,0.92997-0.88237,1.29326c-0.68442,0.57755-1.299,1.23338-1.62363,2.10787
	c-0.07391,0.19905-0.26111,0.35538-0.39304,0.53368c-0.54857,0.74151-1.13045,1.45939-1.38478,2.37857
	c-0.06323,0.22847-0.26088,0.41965-0.39636,0.62822c-0.56123,0.86365-1.15968,1.70609-1.66917,2.59926
	c-0.2972,0.52099-0.49352,1.08936-0.82466,1.61138c-0.36507,0.57553-0.48756,1.30147-0.74042,1.95228
	c-0.85751,2.20709-1.43884,4.52225-2.61321,6.60703c-0.21278,0.37772-0.23433,0.86079-0.43491,1.24823
	c-0.38261,0.73903-0.85602,1.43085-1.24308,2.16783c-0.28284,0.53851-0.49687,1.11427-0.72476,1.6802
	c-0.20837,0.51747-0.46829,1.02963-0.57324,1.56985c-0.1771,0.91122-0.58177,1.73004-0.88101,2.59161
	c-0.19061,0.54871-0.33326,1.13562-0.36675,1.71298c-0.07319,1.26164-0.36199,2.47767-0.62258,3.70387
	c-0.07436,0.34989-0.06007,0.72459-0.04503,1.08622c0.0276,0.66419,0.20377,1.32724-0.04994,1.98853
	c-0.04549,0.11855,0.00497,0.27654,0.0202,0.41531c0.08833,0.80424,0.19811,1.60667,0.26324,2.41272
	c0.04742,0.58724,0.11709,1.14684,0.34763,1.71022c0.19537,0.47742,0.19431,1.03832,0.26111,1.56469
	c0.16417,1.29383,0.65214,2.48464,1.12644,3.68423c0.35179,0.88977,0.77314,1.73228,1.34599,2.50172
	c0.19942,0.26785,0.41019,0.56023,0.4952,0.87408c0.25291,0.93372,0.86775,1.61141,1.49557,2.28853
	c0.62866,0.67797,1.3376,1.13958,2.32484,1.17214c0.81082,0.02674,1.61568,0.18591,2.40898-0.09792
	c0.20866-0.07466,0.42165-0.1507,0.6116-0.26205c1.25908-0.73807,2.36324-1.67978,3.46782-2.62514
	c0.70653-0.60466,1.29596-1.3001,1.879-2.0185c0.38089-0.46935,0.92265-0.80531,1.37091-1.22397
	c0.24094-0.22501,0.44331-0.4931,0.6514-0.75115c0.43552-0.54009,0.85687-1.09171,1.29639-1.62846
	c0.33566-0.40993,0.74245-0.77095,1.02522-1.21284c0.51439-0.804,1.06194-1.56606,1.70691-2.27869
	c0.68919-0.76155,1.29333-1.61127,1.85594-2.47382c1.11118-1.70351,2.15718-3.44939,3.25185-5.16389
	c0.60028-0.9402,1.24532-1.85182,1.86909-2.77706c0.23383-0.34683,0.4872-0.68301,0.69154-1.04659
	c0.3564-0.63406,0.70876-1.27327,1.01031-1.93427c0.19577-0.42908,0.32155-0.89481,0.43753-1.35451
	c0.1992-0.78956,0.40056-1.56809,1.10207-2.09047c0.52988-0.39453,0.6324-1.03448,0.89563-1.58162
	c0.08434-0.17533,0.10977-0.41319,0.24358-0.52482c0.69072-0.57605,1.21588-1.27332,1.67409-2.04072
	c0.25037-0.4193,0.55048-0.82494,0.89824-1.16505c0.29117-0.28473,0.66283-0.51392,1.03792-0.67869
	c0.38887-0.17079,0.64328-0.41683,0.8139-0.79281c0.35794-0.78889,0.73502-1.56907,1.09644-2.35641
	c0.35013-0.76263,0.67764-1.5359,1.03951-2.29282c0.25165-0.52644,0.55615-1.02738,0.81657-1.54992
	c0.41092-0.8245,0.808-1.65598,1.2036-2.488c0.11989-0.25217,0.20772-0.51945,0.32408-0.7735
	c0.32498-0.70954,0.66527-1.41216,0.98444-2.12428c0.36519-0.81475,0.69194-1.64735,1.07614-2.45278
	c0.42009-0.88068,0.90315-1.73119,1.3299-2.6089c0.95419-1.96247,1.7988-3.98508,2.86438-5.88426
	c0.78656-1.40186,1.53372-2.88451,2.76546-3.97678c0.8299-0.73597,1.50639-1.65918,2.554-2.14962
	c0.26546-0.12426,0.46408-0.39558,0.68651-0.60661c0.5054-0.47948,0.98892-0.98367,1.51413-1.4401
	c0.55009-0.47803,1.15997-0.39772,1.67639,0.13111c0.32941,0.33729,0.69518,0.63921,1.04663,0.95477
	c0.46211,0.41494,0.52486,0.90842,0.26407,1.44707c-0.16815,0.34732-0.36458,0.68148-0.55824,1.0158
	c-0.38916,0.67177-0.96078,1.24769-1.07648,2.06259c-0.00781,0.05478-0.02357,0.11092-0.04774,0.16054
	c-0.89188,1.83292-1.78494,3.66525-2.67915,5.49704c-0.03673,0.07525-0.10669,0.13931-0.12601,0.21729
	c-0.29938,1.20757-1.02475,2.22672-1.48535,3.36277c-0.0616,0.15195-0.16127,0.29002-0.25378,0.4275
	c-0.12448,0.18495-0.29007,0.34839-0.38409,0.54665c-0.44037,0.9289-0.8196,1.88918-1.30064,2.79582
	c-0.73378,1.38288-1.19203,2.88692-2.01074,4.23941c-0.62985,1.0405-1.01224,2.22849-1.5374,3.33537
	c-0.45552,0.96003-0.94962,1.90209-1.4399,2.8452c-0.73051,1.4052-1.63631,2.73039-1.9341,4.3306
	c-0.02919,0.15683-0.1601,0.29208-0.22441,0.44548c-0.32399,0.77293-0.61986,1.55846-0.96753,2.32042
	c-0.34705,0.76067-0.74525,1.49794-1.11789,2.24703c-0.14902,0.29958-0.36613,0.59029-0.42038,0.90758
	c-0.19745,1.15539-0.76474,2.16199-1.25627,3.1918c-0.21475,0.44994-0.30925,0.88972-0.34808,1.36205
	c-0.06871,0.83626-0.29214,1.61854-0.54636,2.42567c-0.33754,1.07164-0.84123,2.13201-0.80531,3.31854
	c0.02011,0.66467-0.05353,1.3419-0.17075,1.99814c-0.10629,0.59505-0.09172,1.15874,0.05229,1.74004
	c0.24443,0.98671,0.23387,1.98389,0.12688,2.99379c-0.04567,0.43111-0.00221,0.9158,0.15674,1.31384
	c0.22377,0.56026,0.2997,1.12295,0.37616,1.70833c0.07492,0.57353,0.19832,1.16888,0.44421,1.68633
	c0.5878,1.23702,1.2256,2.45366,1.90633,3.64239c1.08626,1.89684,3.29915,2.55035,5.31117,1.94553
	c1.10475-0.33209,2.18839-0.71461,3.1563-1.34951c0.77042-0.50536,1.52812-1.03672,2.24753-1.61156
	c0.96147-0.76826,1.83588-1.62117,2.58289-2.62001c0.39046-0.52209,0.98076-0.91164,1.52602-1.29713
	c0.85371-0.60355,1.61314-1.25692,2.13402-2.20228c0.28754-0.5219,0.73827-1.01263,1.2298-1.35154
	c1.13538-0.78288,1.88708-1.90273,2.76486-2.91167c0.93503-1.07475,1.77768-2.23605,2.76971-3.25322
	c1.00209-1.02744,1.90395-2.12189,2.74898-3.27401c0.56247-0.76684,1.12837-1.53316,1.73389-2.26571
	c0.42795-0.51768,0.70027-1.10741,0.77654-1.74252c0.09846-0.81995,0.31367-1.53276,0.86603-2.18251
	c0.39012-0.45893,0.6362-1.04871,0.90497-1.60034c0.32849-0.67416,0.81956-1.20416,1.39496-1.65657
	c0.38452-0.30235,0.65988-0.66479,0.90125-1.08591c0.15742-0.27465,0.43031-0.48956,0.674-0.70587
	c0.14351-0.12743,0.3791-0.16829,0.48982-0.31227c0.35281-0.45891,0.85373-0.62519,1.37192-0.74546
	c0.76454-0.17746,1.21173-0.6385,1.4111-1.38857c0.21881-0.82317,0.6665-1.53127,1.15091-2.2242
	c0.46338-0.66277,0.87047-1.35314,1.1631-2.12355c0.27621-0.72701,0.70871-1.39391,1.06134-2.09287
	c0.19949-0.39552,0.37062-0.80523,0.56482-1.20352c0.43996-0.90212,0.82413-1.83916,1.34552-2.69194
	c0.68398-1.11861,1.33905-2.24394,1.9258-3.4194c0.52229-1.04635,1.22031-2.00394,1.82031-3.01289
	c0.42384-0.71275,0.80582-1.45032,1.2226-2.16741c0.13814-0.23769,0.33408-0.44095,0.49089-0.66875
	c1.15622-1.68015,2.3949-3.29679,3.66812-4.89042c1.53458-1.92074,3.01616-3.88377,4.52608-5.8243
	c0.11664-0.14988,0.25432-0.31172,0.41924-0.3905c0.57233-0.27339,1.00262-0.69612,1.40865-1.17051
	c0.63834-0.74591,1.32098-1.43723,2.32224-1.71161c0.28853-0.07906,0.55127-0.27145,0.80998-0.43665
	c0.94489-0.60336,2.00746-0.88575,3.09312-0.99529c1.36572-0.13781,2.74263-0.13214,4.09369,0.20985
	c0.21637,0.05477,0.44093,0.10229,0.66263,0.10705c2.25584,0.04846,4.41946,0.63745,6.60745,1.09529
	c1.34248,0.28092,2.70564,0.46177,4.05028,0.73336c0.90274,0.18233,1.79517,0.4244,2.68033,0.68079
	c0.40047,0.116,0.76303,0.34505,1.21187,0.20583c0.11122-0.0345,0.30975,0.00943,0.3846,0.09253
	c0.61044,0.67777,1.42082,1.18366,1.78362,2.07666c0.2032,0.50022,0.10216,0.9421-0.30458,1.37243
	c-1.5378,1.62739-3.27434,3.04024-4.91898,4.5519c-0.42752,0.39298-0.95802,0.67986-1.46208,0.98045
	c-0.18143,0.10815-0.4281,0.16877-0.63809,0.15381c-0.41438-0.0295-0.86568-0.03937-1.22801-0.21201
	c-1.28731-0.61337-2.67177-0.78755-4.0486-1.01945c-1.46257-0.24632-2.92606-0.4905-4.38094-0.77721
	c-0.54523-0.10744-1.05809-0.3734-1.60182-0.49507c-1.36177-0.3047-2.75055-0.42921-4.14003-0.53207
	c-0.64067-0.04741-1.28212-0.08543-1.92375-0.11788c-1.79056-0.09055-3.19615,0.71816-4.35555,1.97792
	c-0.40514,0.44018-0.59619,1.06976-0.94897,1.56754c-0.52957,0.74722-1.15231,1.42944-1.66641,2.1862
	c-0.46423,0.68332-1.05373,1.31121-1.17517,2.18954c-0.02527,0.18266-0.13211,0.36259-0.23192,0.52503
	c-0.6405,1.04292-1.29375,2.07803-1.93126,3.12274c-0.09911,0.16243-0.20052,0.36304-0.19452,0.54246
	c0.01637,0.49092-0.15779,0.86234-0.52615,1.1778c-0.11761,0.10076-0.16243,0.28617-0.24168,0.43224
	c-0.19885,0.36667-0.34544,0.77744-0.60831,1.09048c-0.61304,0.73006-0.91264,1.59017-1.17397,2.47715
	c-0.04692,0.1592-0.05711,0.41183-0.15921,0.45893c-0.72206,0.33313-0.73657,1.1498-1.18034,1.67773
	c-0.44203,0.52586-0.76144,1.16908-1.06233,1.79556c-0.36177,0.75327-0.60846,1.56218-0.97572,2.31237
	c-0.4386,0.89594-0.98112,1.74079-1.42502,2.63439c-0.4323,0.87019-0.82309,1.76379-1.17679,2.66873
	c-0.12027,0.30766-0.12389,0.64918-0.41907,0.88064c-0.09984,0.07832-0.14587,0.23281-0.2011,0.35917
	c-0.32327,0.73969-0.66623,1.47204-0.95532,2.22501c-0.26988,0.70292-0.52309,1.41781-0.70679,2.14679
	c-0.21091,0.83681-0.3343,1.6955-0.50145,2.54356c-0.12415,0.63007-0.23917,1.26279-0.39072,1.88644
	c-0.28931,1.19063-0.6044,2.37498-0.90089,3.56389c-0.03278,0.13132-0.04869,0.28469-0.01404,0.41196
	c0.18684,0.68703-0.03539,1.32477-0.20232,1.9731c-0.1386,0.53821-0.30443,1.07701-0.09767,1.64029
	c0.03656,0.09957,0.04602,0.22541,0.02194,0.32833c-0.19131,0.81814,0.04654,1.58947,0.23306,2.36922
	c0.03749,0.15675,0.01894,0.32787,0.01874,0.49236c-0.00018,0.13915-0.05038,0.29056-0.01131,0.41552
	c0.34642,1.10648,0.58171,2.22276,1.15685,3.28562c0.66325,1.2258,1.59698,2.132,2.5462,3.06967
	c0.11957,0.11815,0.27946,0.20999,0.36179,0.34892c0.53621,0.90488,1.47528,1.17342,2.37328,1.46389
	c0.34784,0.1125,0.78676,0.06876,1.15302-0.02522c1.00108-0.2569,1.94742-0.662,2.89163-1.09481
	c1.4904-0.68314,2.65396-1.73997,3.74991-2.90906c0.20966-0.22366,0.47679-0.39327,0.68726-0.61629
	c0.45905-0.48642,0.97482-0.94285,1.32831-1.49983c0.51874-0.81735,1.11848-1.52776,1.87717-2.12721
	c0.2942-0.23244,0.50237-0.57734,0.73721-0.88068c0.52847-0.68263,0.98395-1.43668,1.58951-2.04099
	c0.75842-0.75684,1.39224-1.5629,1.90463-2.51013c0.50352-0.93089,1.17998-1.76781,1.77316-2.65093
	c0.20193-0.30061,0.4221-0.59875,0.56419-0.9281c0.59727-1.38417,1.56302-2.51472,2.48061-3.67971
	c0.13823-0.17548,0.32544-0.32443,0.42097-0.51947c0.75848-1.54816,1.85223-2.85163,2.95389-4.1563
	c0.41127-0.48701,0.72038-1.04108,0.88625-1.69405c0.25406-1.00009,0.77351-1.89859,1.23994-2.82106
	c0.87079-1.722,1.5475-3.54457,2.45767-5.24346c0.89786-1.67581,1.3638-3.55815,2.51549-5.10713
	c0.41495-0.55807,0.87518-1.12051,1.12457-1.75565c0.51241-1.30524,1.45544-2.35757,2.00456-3.63345
	c0.07022-0.16321,0.23994-0.36523,0.3936-0.3951c0.40872-0.07947,0.56979-0.34301,0.78531-0.66061
	c0.35446-0.52231,0.76118-1.04213,1.49059-1.12003c0.2429-0.02594,0.46779-0.19259,0.71169-0.24459
	c0.26932-0.05743,0.63042-0.17926,0.8132-0.06038c0.7224,0.46991,1.65952,0.49016,2.28094,1.17715
	c0.52052,0.57543,0.64833,1.05342,0.14806,1.62244c-0.47884,0.54462-0.72467,1.1658-0.97618,1.82829
	c-0.42427,1.11764-0.97311,2.18796-1.46835,3.27875c-0.06895,0.15193-0.16859,0.30219-0.18919,0.46161
	c-0.06447,0.49856-0.31627,0.88648-0.64145,1.24873c-0.35672,0.39745-0.55229,0.86651-0.74889,1.3725
	c-0.42358,1.09023-0.98624,2.12923-1.53253,3.16787c-0.32367,0.61531-0.73715,1.18275-1.08458,1.78648
	c-0.1378,0.23954-0.24565,0.51118-0.29951,0.78168c-0.31223,1.56763-1.09007,2.90877-1.94081,4.23312
	c-0.3065,0.47707-0.40988,1.08418-0.6089,1.63084c-0.16124,0.44293-0.28052,0.90903-0.50055,1.32098
	c-0.41051,0.76846-0.69196,1.56867-0.93343,2.4071c-0.30646,1.0636-0.61903,2.12946-1.25166,3.08994
	c-0.67416,1.02361-1.16437,2.17138-1.41345,3.3798c-0.19209,0.93159-0.69627,1.7036-1.09851,2.52631
	c-0.44106,0.90213-1.00706,1.75381-1.07285,2.78999c-0.05353,0.84307-0.60609,1.48336-0.84453,2.24776
	c-0.24124,0.77328-0.47604,1.54864-0.70502,2.32564c-0.02724,0.09248,0.00011,0.20106,0.00496,0.44447
	c0.24725-0.24971,0.39571-0.40081,0.54544-0.5507c1.16608-1.16738,2.32298-2.34413,3.50281-3.49747
	c0.53853-0.52644,1.14281-0.98573,1.68021-1.51319c0.63701-0.62523,1.2332-1.29199,1.84883-1.93903
	c0.39992-0.4203,0.79765-0.84283,1.20586-1.25499c0.84596-0.85418,1.73341-1.67044,2.5374-2.56219
	c0.70992-0.78741,1.33168-1.65453,1.98853-2.48949c0.70564-0.89697,1.38586-1.81481,2.11534-2.69181
	c0.8217-0.98784,1.67657-1.94871,2.53412-2.90597c1.17519-1.31185,2.35881-2.61642,3.55382-3.91022
	c0.73988-0.80103,1.55731-1.53527,2.24982-2.37389c0.80067-0.96956,1.4991-2.02322,2.24879-3.03535
	c0.23245-0.31389,0.47107-0.62601,0.73438-0.91377c0.85544-0.93484,1.56274-1.97477,2.17188-3.07931
	c0.51895-0.94122,1.19174-1.75137,1.92087-2.53383c0.57007-0.61174,1.10291-1.26897,1.57507-1.95882
	c1.02997-1.50468,2.18173-2.90629,3.38126-4.27594c0.38202-0.43622,0.67197-0.96115,0.95831-1.4712
	c0.46646-0.831,0.93002-1.64566,1.67929-2.27916c0.44186-0.37358,0.77774-0.87078,1.1731-1.3016
	c0.35797-0.39007,0.75134-0.74902,1.09323-1.15209c0.34149-0.40243,0.67505-0.82049,0.94705-1.27096
	c0.5166-0.85565,0.95535-1.75913,1.48709-2.60457c0.36954-0.58743,0.80768-1.14063,1.27359-1.65634
	c0.73016-0.80815,1.23154-1.74407,1.54968-2.76105c0.36337-1.16127,0.9837-2.18151,1.52551-3.2529
	c0.98227-1.94247,1.84631-3.94479,2.75757-5.92313c0.2688-0.58369,0.53674-1.16793,0.79416-1.75671
	c0.53748-1.22901,1.07639-2.45753,1.59848-3.6931c0.5531-1.30892,1.06177-2.63724,1.63965-3.93488
	c0.34036-0.76414,0.80472-1.47228,1.16367-2.22915c0.37094-0.78201,0.68088-1.59292,1.01904-2.39053
	c0.70898-1.67207,1.41251-3.34649,2.13049-5.0147c0.64145-1.49035,1.25574-2.99469,1.96167-4.45436
	c0.74072-1.53188,1.59384-3.00903,2.36127-4.5286c0.3013-0.59664,0.55936-1.22807,0.73593-1.87141
	c0.21042-0.76675,0.49228-1.49475,0.9444-2.13714c0.69745-0.9909,1.0097-2.11134,1.18668-3.27785
	c0.05878-0.38735,0.21912-0.6778,0.47522-0.94901c0.80753-0.85513,1.55875-1.77143,2.42795-2.55776
	c0.69714-0.63066,1.51181-1.14285,2.31561-1.64102c0.85092-0.52737,1.75891-0.96179,2.6254-1.46529
	c0.40875-0.23756,0.78638-0.53166,1.1647-0.8179c0.55164-0.41737,1.13049-0.73342,1.8559-0.60772
	c0.13702,0.02373,0.29565,0.02817,0.40302,0.10173c1.052,0.7208,2.20468,1.32378,2.82617,2.53679
	c0.27161,0.53023,0.37509,1.03691,0.16226,1.60851c-0.24371,0.65478-0.5032,1.30959-0.67117,1.98543
	c-0.33105,1.33172-1.10736,2.42401-1.79227,3.57163c-0.21008,0.35206-0.33237,0.75867-0.47748,1.14682
	c-0.15628,0.41784-0.23816,0.87256-0.448,1.25937c-0.43948,0.81019-0.95084,1.58103-1.41431,2.37869
	c-0.25177,0.43333-0.46579,0.88857-0.69687,1.33393c-0.05133,0.09898-0.08078,0.22139-0.15747,0.29329
	c-0.66495,0.62327-1.01318,1.46858-1.54776,2.17846c-0.46213,0.61374-0.74606,1.29385-1.06909,1.97415
	c-0.41867,0.88173-0.95624,1.70726-1.44696,2.55446c-0.50281,0.86798-0.97473,1.72258-1.19498,2.74213
	c-0.23163,1.0722-0.57861,2.12486-1.38733,3.00282c-1.25238,1.3596-2.26099,2.90729-2.99564,4.62296
	c-0.20773,0.48521-0.55197,0.91015-0.78723,1.3857c-1.12741,2.27923-2.24561,4.56308-3.3515,6.85282
	c-0.29001,0.60043-0.5148,1.23203-0.78928,1.84041c-0.10214,0.22633-0.26569,0.42426-0.39221,0.64041
	c-0.15399,0.26318-0.30548,0.52829-0.44598,0.79882c-0.44791,0.86238-0.84354,1.75585-1.34503,2.58553
	c-0.89807,1.48592-1.69391,3.01255-2.23175,4.66802c-0.05844,0.17981-0.17926,0.3405-0.27872,0.5055
	c-0.11514,0.19115-0.25763,0.36798-0.35526,0.56719c-0.37958,0.77457-0.72601,1.56603-1.1243,2.33061
	c-0.28326,0.5435-0.69189,1.02711-0.93384,1.58544c-0.36588,0.84432-0.6358,1.73029-0.94525,2.59901
	c-0.04694,0.13181-0.05136,0.29741-0.13617,0.39424c-1.00385,1.14668-1.25052,2.72857-2.2735,3.88482
	c-0.35019,0.39577-0.383,1.08456-0.5267,1.64819c-0.27734,1.08823-0.6709,2.10714-1.27249,3.07724
	c-0.62915,1.01446-1.11752,2.12334-1.59668,3.22182c-0.57877,1.32687-1.05124,2.70016-1.63217,4.02599
	c-0.32272,0.73659-0.84277,1.38871-1.14679,2.13094c-0.34573,0.84437-0.89032,1.59637-1.06485,2.52834
	c-0.10516,0.5614-0.42105,1.08752-0.66913,1.61689c-0.26968,0.57543-0.57458,1.13426-0.85425,1.70516
	c-0.05508,0.11246-0.06534,0.24687-0.12906,0.50319c0.20572-0.13177,0.31247-0.16824,0.37082-0.24265
	c0.39551-0.50476,0.77325-1.02356,1.17102-1.52648c0.83215-1.05213,1.67474-2.09598,2.50943-3.14606
	c0.24252-0.30505,0.51935-0.59509,0.69946-0.93494c0.43588-0.82233,0.96939-1.56219,1.62537-2.22138
	c0.63116-0.63422,1.26324-1.26946,1.85828-1.93693c0.34946-0.39202,0.60223-0.86916,0.94269-1.27052
	c0.75876-0.89455,1.51682-1.79287,2.32745-2.63952c1.082-1.13009,2.2019-2.22482,3.32736-3.31209
	c1.1611-1.12171,2.09656-2.46645,3.49866-3.35683c0.62405-0.39632,1.09378-1.03288,1.64334-1.54993
	c0.97656-0.91888,1.88458-1.93372,2.95883-2.7206c1.78818-1.30978,3.38632-2.8314,5.08704-4.23631
	c0.83786-0.69215,1.80392-1.2267,2.6813-1.8741c1.30478-0.96273,2.54022-2.02496,3.88303-2.92926
	c1.45612-0.98064,2.90103-2.00045,4.55225-2.6591c0.54272-0.21646,1.0657-0.48176,1.60056-0.71836
	c1.61847-0.71595,3.35892-0.83515,5.0838-0.98444c0.65353-0.05655,1.31967-0.00495,1.69559,0.77291
	c0.24954,0.51627,0.71378,0.925,1.0513,1.40348c0.43716,0.61983,0.60699,1.3117,0.47247,2.0719
	c-0.05847,0.33023-0.12473,0.66744-0.11551,0.99948c0.01639,0.59352-0.15833,1.09649-0.54459,1.54165
	c-0.10754,0.12396-0.19446,0.27763-0.25113,0.43222c-0.89874,2.45333-2.20047,4.70731-3.44415,6.99037
	c-0.42743,0.78465-0.84076,1.57702-1.25671,2.36784c-0.05145,0.09788-0.1011,0.20552-0.11444,0.31324
	c-0.14066,1.13691-0.81085,1.99243-1.44537,2.89145c-0.72345,1.02498-1.35785,2.11526-1.99301,3.19938
	c-0.62125,1.06032-1.22119,2.13507-1.77994,3.22931c-0.37607,0.73655-0.85745,1.43076-0.99457,2.28142
	c-0.03772,0.23383-0.21521,0.45103-0.34995,0.66223c-0.43262,0.67778-0.90823,1.33049-1.30377,2.02882
	c-0.32971,0.58201-0.60181,1.20251-0.84079,1.82835c-0.22852,0.5984-0.35092,1.237-0.5748,1.83746
	c-0.30103,0.80717-0.61179,1.6162-0.9971,2.38495c-0.43741,0.87267-1.04312,1.66766-1.418,2.56249
	c-0.22525,0.53777-0.48175,1.05103-0.7359,1.57136c-0.12018,0.24596-0.23709,0.53828-0.21701,0.79892
	c0.0452,0.58673-0.13605,1.10394-0.34048,1.62698c-0.28421,0.72691-0.56607,1.45469-0.84744,2.18269
	c-0.04993,0.12921-0.15265,0.27325-0.12924,0.38998c0.18762,0.9339-0.26639,1.74709-0.44635,2.61386
	c-0.39972,1.92503-0.75946,3.84255-0.76193,5.84075c-0.00195,1.57796,0.24844,3.11309,0.36136,4.6685
	c0.03577,0.49258,0.16483,1.00606,0.3754,1.45123c0.25995,0.54946,0.37897,1.11008,0.41339,1.69812
	c0.03513,0.6003,0.30048,1.11328,0.49969,1.66504c0.65277,1.80789,2.27557,2.3176,3.79962,2.70217
	c1.57996,0.39867,3.16193-0.07073,4.5098-1.09673c0.8685-0.66112,1.75821-1.29429,2.6272-1.95482
	c0.35593-0.27056,0.70618-0.557,1.0163-0.87753c0.44916-0.4642,0.89615-0.90808,1.47156-1.23335
	c0.32788-0.18533,0.57922-0.52185,0.83447-0.81679c0.65756-0.75983,1.27985-1.5508,1.95056-2.29855
	c0.68961-0.76876,1.42908-1.49256,2.12756-2.2536c0.28101-0.30613,0.49606-0.67192,0.76883-0.98657
	c0.21558-0.24866,0.49896-0.43952,0.70816-0.6925c1.17401-1.41985,2.27325-2.89532,3.2973-4.42847
	c0.34082-0.51022,0.77567-0.95673,1.15347-1.44331c0.93799-1.20802,1.88559-2.40927,2.79242-3.64043
	c0.36295-0.49277,0.61221-1.0677,0.94409-1.58543c0.29865-0.4659,0.65137-0.89685,0.95917-1.35728
	c0.51114-0.76466,1.00156-1.54305,1.50778-2.31101c0.4913-0.74536,0.9989-1.48004,1.48462-2.22893
	c0.25714-0.39647,0.51703-0.79726,0.71646-1.22379c0.52829-1.12981,1.38361-2.02435,2.0979-3.02129
	c1.0741-1.4991,2.11685-3.01286,2.96127-4.67021c0.75577-1.48342,1.72498-2.85729,2.58212-4.29021
	c0.32953-0.55083,0.60458-1.13402,0.9133-1.69764c0.59042-1.07803,1.23572-2.12935,1.7648-3.2364
	c0.37894-0.79292,0.59207-1.66374,0.90646-2.48941c0.13715-0.36027,0.30807-0.71822,0.52533-1.03491
	c0.31567-0.46023,0.68887-0.88083,1.03342-1.32156c0.08521-0.10899,0.16953-0.22322,0.22858-0.34727
	c0.32181-0.6758,0.17987-0.94096-0.5574-0.95013c-1.31284-0.0163-2.6152-0.18771-3.94086-0.09819
	c-0.79425,0.05366-1.60556-0.00568-2.41052,0.08753c-0.29871,0.03459-0.61942-0.01621-0.91595-0.08717
	c-0.85257-0.20397-1.71027-0.24554-2.58493-0.23299c-1.11609,0.01604-2.23315-0.06632-3.35004-0.07336
	c-0.61218-0.00388-1.22482,0.08562-1.83734,0.08746c-0.9783,0.00292-1.95734-0.018-2.9346-0.06115
	c-0.24167-0.01067-0.4964-0.11173-0.71298-0.23005c-0.58014-0.31702-0.76379-0.97469-0.47476-1.58601
	c0.40381-0.85421,0.9339-1.67352,1.18243-2.57077c0.41547-1.50006,1.25598-2.802,1.77148-4.2457
	c0.37656-1.05446,1.20007-1.43214,2.20593-1.49372c1.2576-0.07701,2.52661-0.01527,3.77725-0.14403
	c1.40292-0.14444,2.78802,0.10763,4.17438,0.0498c1.12808-0.04707,2.22525,0.13876,3.33636,0.17585
	c2.51688,0.084,5.03705,0.06786,7.55432,0.14349c0.51834,0.01557,0.76413-0.16006,0.97134-0.58609
	c0.53751-1.10485,1.07498-2.21144,1.66504-3.28856c0.73914-1.34961,1.38794-2.73558,1.97687-4.1576
	c0.66318-1.60129,1.39478-3.17559,2.14236-4.73976c0.25034-0.52375,0.64444-0.97823,0.96689-1.46822
	c0.22284-0.33847,0.36865-0.65432,0.08295-1.07224c-0.28522-0.41716,0.0256-0.8658,0.09952-1.29642
	c0.0224-0.13054,0.16415-0.24025,0.18777-0.37098c0.15826-0.87542,0.79953-1.35577,1.43127-1.87852
	c0.46713-0.38657,0.90656-0.84289,1.24026-1.34641c0.56644-0.85484,1.12363-1.73463,1.53372-2.67012
	c0.72928-1.66365,1.98962-2.78825,3.41699-3.81549c1.3335-0.9597,2.61124-1.99823,3.89139-3.02956
	c0.26526-0.21374,0.49243-0.33376,0.828-0.24961c1.38992,0.34851,2.36227,1.21461,3.02521,2.4504
	c0.18051,0.3365-0.00525,0.63646-0.18744,0.93704c-0.3176,0.52412-0.64407,1.05141-0.88074,1.61362
	c-0.2254,0.53531-0.32986,1.12039-0.50687,1.67742c-0.31528,0.99243-0.76767,1.90732-1.38385,2.76178
	c-0.40329,0.55938-0.63739,1.24059-0.94931,1.86619c-0.39896,0.80014-0.7706,1.60759-1.34622,2.31551
	c-0.43735,0.53796-0.7598,1.15778-0.95187,1.85466c-0.15359,0.55731-0.3877,1.13871-0.74347,1.5835
	c-0.57864,0.72336-0.7908,1.59326-1.17508,2.39233c-0.53394,1.11019-0.9519,2.29345-1.61166,3.32215
	c-1.19583,1.8644-2.01208,3.91779-3.09354,5.83564c-0.23697,0.42031-0.56525,0.85719-0.33633,1.438
	c0.72382,0.25944,1.47336,0.22248,2.22617,0.14828c0.36188-0.03566,0.72574-0.05589,1.08585-0.10463
	c1.45358-0.19673,2.90286-0.0469,4.35336,0.03857c0.25134,0.01481,0.50403,0.01571,0.75589,0.01036
	c1.59155-0.03381,3.18298-0.07764,4.77466-0.10557c1.62238-0.02848,3.2453-0.03261,4.86749-0.06959
	c0.41885-0.00955,0.76352,0.06594,1.05377,0.39118c0.29675,0.33256,0.65417,0.61284,0.93695,0.95566
	c0.56076,0.6799,0.46881,1.57156-0.14319,2.18396c-0.35168,0.35191-0.64053,0.76586-0.96783,1.14311
	c-0.21658,0.24967-0.43365,0.50361-0.68082,0.72126c-0.94434,0.83163-1.90167,1.64853-2.85211,2.47321
	c-0.12485,0.10834-0.27133,0.2105-0.35187,0.34823c-0.71014,1.21436-1.87854,1.44386-3.1449,1.53056
	c-1.55722,0.10663-3.1116-0.09459-4.67303,0.05359c-2.36816,0.22474-4.74667,0.28036-7.12854,0.23766
	c-0.86105-0.01544-1.72443,0.15739-2.58832,0.22431c-0.61313,0.0475-1.22867,0.06751-1.84354,0.08825
	c-0.42603,0.01437-0.70331,0.14633-0.88519,0.5978c-0.23727,0.58908-0.64444,1.1075-0.91306,1.68668
	c-0.50327,1.08528-0.95227,2.19559-1.43994,3.28829c-0.13474,0.30197-0.29269,0.60564-0.4986,0.86131
	c-0.44482,0.55227-0.72632,1.17401-0.98044,1.83076c-0.34262,0.88545-0.72281,1.76363-1.1731,2.59844
	c-0.69507,1.28867-1.19833,2.64115-1.62292,4.03722c-0.26807,0.88122-0.67139,1.72038-0.9827,2.58961
	c-0.30078,0.84003-0.50726,1.7173-0.85349,2.53668c-0.43744,1.0354-0.55881,2.15675-0.96646,3.19388
	c-0.22388,0.56961-0.53055,1.11195-0.70285,1.69524c-0.22101,0.74822-0.2879,1.54337-0.5256,2.28484
	c-0.24338,0.75914-0.19501,1.6103-0.7225,2.28525c-0.11121,0.1423-0.11954,0.36738-0.16742,0.5563
	c-0.13751,0.54231-0.28391,1.08285-0.40228,1.62941c-0.10004,0.46159-0.15295,0.9333-0.25018,1.3956
	c-0.09744,0.46353-0.23309,0.91895-0.33499,1.38166c-0.09564,0.43415-0.17212,0.87263-0.25116,1.31026
	c-0.03964,0.21974-0.04138,0.44908-0.10315,0.6616c-0.30176,1.03883-0.31863,2.09179-0.19247,3.15549
	c0.07858,0.66248-0.00986,1.35287,0.33655,1.97063c0.02493,0.04446,0.02502,0.11152,0.01639,0.16477
	c-0.21176,1.30587,0.29504,2.53651,0.39899,3.8093c0.03857,0.47144,0.10828,0.94053,0.17133,1.40968
	c0.02209,0.16434,0.04596,0.33362,0.10455,0.48708c0.40991,1.07243,0.82056,2.14472,1.24802,3.2102
	c0.33649,0.83881,0.81564,1.57829,1.49423,2.19702c0.55627,0.50721,1.05045,1.08194,1.58319,1.61572
	c0.49316,0.49416,1.06821,0.77901,1.79727,0.77171c0.83789-0.00838,1.67737,0.03882,2.51468,0.08718
	c1.37561,0.07946,2.55524-0.54649,3.776-1.02373c0.44333-0.1733,0.89359-0.34488,1.30481-0.58004
	c0.50662-0.28973,1.03577-0.58339,1.44815-0.98518c0.7887-0.76829,1.67944-1.38253,2.57233-2.01349
	c1.41504-0.99992,2.81277-2.03062,3.97003-3.346c0.33087-0.37614,0.7648-0.6612,1.09927-1.03471
	c0.95078-1.06196,1.90128-2.12627,2.80176-3.23054c0.91678-1.12434,1.82764-2.26131,2.63397-3.46449
	c0.38904-0.58043,0.5358-1.3243,0.78384-1.99727c0.05704-0.1547,0.02484-0.39957,0.12656-0.47134
	c0.7244-0.5113,0.79584-1.4726,1.43872-2.03725c0.16046-0.14088,0.2395-0.37145,0.36838-0.5519
	c0.19073-0.26691,0.34521-0.59316,0.60052-0.77272c0.40164-0.2825,0.72522-0.60898,0.96494-1.02772
	c0.36993-0.64631,1.02502-0.95485,1.63843-1.24995c0.54434-0.26189,1.14758-0.14983,1.65393,0.26032
	c0.45667,0.36988,0.92511,0.7254,1.39362,1.08038c0.65628,0.49724,0.77542,0.74723,0.35617,1.47816
	c-0.45544,0.79407-1.04126,1.51356-1.57355,2.26324c-0.5629,0.79289-1.1265,1.58533-1.69565,2.3737
	c-0.55368,0.76698-1.11618,1.52757-1.67245,2.29269c-0.95346,1.31158-1.89685,2.63067-2.86359,3.93237
	c-0.22778,0.30672-0.54883,0.54254-0.79565,0.83723c-0.24991,0.29829-0.44446,0.64266-0.69186,0.94334
	c-0.79761,0.96933-1.60385,1.9317-2.41684,2.8882c-0.25272,0.29725-0.55164,0.55515-0.80518,0.85178
	c-1.19727,1.40073-2.34473,2.84679-3.59311,4.19996c-0.76923,0.83386-1.42334,1.78632-2.43671,2.40295
	c-0.50522,0.30741-0.86667,0.84941-1.29819,1.28023c-0.17603,0.17566-0.33798,0.42241-0.55319,0.49208
	c-1.08054,0.34984-1.66895,1.27882-2.4454,1.98807c-0.61462,0.56148-1.19598,1.1911-1.89682,1.619
	c-0.99686,0.60864-2.0668,1.11548-3.14804,1.56303c-1.0545,0.43649-2.09763,0.97578-3.27667,1.00511
	c-1.35715,0.03375-2.69916,0.33469-4.08072,0.01657c-0.65082-0.14986-1.37347-0.09279-2.05499-0.21716
	c-0.21722-0.03963-0.44724-0.07445-0.63986-0.17313c-1.59491-0.81706-3.18225-1.64899-4.4136-3.0014
	c-0.24475-0.26883-0.48053-0.54584-0.72806-0.81203c-0.41757-0.44911-0.86603-0.87215-1.25543-1.34413
	c-0.4072-0.49338-0.79144-1.01198-1.13025-1.55421c-0.79404-1.27095-1.2421-2.69084-1.61032-4.12597
	c-0.24094-0.93924-0.34598-1.91355-0.5076-2.87288c-0.16272-0.96575-0.34036-1.9296-0.47531-2.89931
	c-0.20813-1.49469-0.38788-2.99338-0.57227-4.49128c-0.02017-0.16383-0.0314-0.34693,0.01993-0.49851
	c0.39075-1.15362,0.4227-2.36129,0.52597-3.5536c0.12653-1.46045,0.57739-2.8452,0.88895-4.26273
	c0.17987-0.81883,0.30234-1.65034,0.48367-2.46882c0.31479-1.42076,0.65692-2.83544,0.98236-4.25386
	c0.03482-0.1517,0.03494-0.31136,0.06915-0.64053c-0.23685,0.21229-0.37015,0.297-0.45758,0.41553
	c-0.77612,1.0523-1.53751,2.11554-2.31863,3.16409c-0.23099,0.31013-0.52264,0.57437-0.76535,0.87659
	c-0.27866,0.34686-0.52646,0.71832-0.80081,1.0688c-0.42969,0.54884-0.87045,1.08904-1.30646,1.63294
	c-0.366,0.45655-0.72849,0.91597-1.09854,1.36918c-0.70941,0.86881-1.31653,1.80288-1.83057,2.79998
	c-0.08801,0.17071-0.21371,0.3484-0.36893,0.45358c-0.68845,0.46641-0.98526,1.19736-1.33618,1.89524
	c-0.07532,0.14973-0.14188,0.3096-0.24509,0.43871c-0.83557,1.0445-1.68164,2.08064-2.51886,3.12384
	c-0.55292,0.6889-1.08093,1.39838-1.64899,2.07436c-0.50244,0.59787-1.05936,1.14972-1.56607,1.74419
	c-0.74164,0.87023-1.44254,1.7756-2.19351,2.63744c-0.63675,0.73072-1.14023,1.56902-1.91611,2.19351
	c-0.4007,0.32251-0.67145,0.81772-0.96591,1.25832c-0.51788,0.7748-1.15015,1.43273-1.86813,2.02401
	c-0.36453,0.3002-0.66577,0.6767-0.99985,1.01455c-0.21637,0.21886-0.41122,0.47664-0.66611,0.63666
	c-0.97266,0.61067-1.79163,1.39235-2.65164,2.14484c-1.29941,1.13692-2.77496,2.07228-4.49991,2.49332
	c-0.18286,0.04462-0.38239,0.02293-0.57422,0.02818c-0.38776,0.01059-0.78137-0.02043-1.16199,0.03638
	c-0.63034,0.09406-1.23782,0.2834-1.87497-0.04216c-0.22379-0.11432-0.55026-0.03612-0.82959-0.03157
	c-0.79892,0.01302-1.54053-0.11015-2.215-0.61189c-0.60468-0.44975-1.26413-0.8278-2.02655-0.98807
	c-0.20731-0.04358-0.41925-0.17264-0.57883-0.31772c-0.74384-0.67633-1.55396-1.30446-2.17841-2.08018
	c-0.60242-0.74847-1.15628-1.56832-1.43005-2.53375c-0.1748-0.61628-0.4989-1.19374-0.64163-1.8149
	c-0.3118-1.35642-0.78253-2.67712-0.8978-4.08064c-0.04312-0.5246-0.21722-1.03825-0.32852-1.55756
	c-0.0408-0.19048-0.09286-0.38155-0.10529-0.57458c-0.05927-0.91759-0.11795-1.83552-0.15411-2.75422
	c-0.02295-0.5831-0.00974-1.16778-0.00583-1.75171c0.00204-0.30803,0.05603-0.62005,0.02271-0.92324
	c-0.14783-1.34237,0.20227-2.60723,0.56134-3.87337c0.06833-0.24103,0.13522-0.48341,0.18402-0.72888
	c0.34851-1.75503,0.82077-3.47108,1.48431-5.13786c0.57794-1.45174,1.08295-2.93233,1.63675-4.39389
	c0.64267-1.69603,1.38617-3.35902,1.93204-5.08502c0.50049-1.58279,1.31796-3.0143,1.92957-4.5416
	c0.51648-1.28964,1.25684-2.48946,1.89377-3.73122c0.1019-0.19854,0.22134-0.40062,0.26398-0.61475
	c0.14648-0.73518,0.5798-1.32033,0.9353-1.95371c0.43533-0.77558,0.79034-1.59617,1.18298-2.39585
	c0.20853-0.42455,0.40085-0.85928,0.64038-1.26587c0.39517-0.67104,0.85464-1.30563,1.22763-1.98804
	c0.36124-0.6609,0.6413-1.36579,0.9682-2.04598c0.83365-1.73466,1.54105-3.52507,2.62289-5.14495
	c0.66196-0.99116,1.08923-2.13863,1.62778-3.21291c0.18613-0.37119,0.38919-0.73391,0.58676-1.09931
	c0.06656-0.1232,0.14725-0.23914,0.20877-0.36462c0.15552-0.31719,0.0582-0.61502-0.13797-0.86225
	c-0.18915-0.2384-0.45148-0.13807-0.69904-0.06291c-0.74884,0.22731-1.34039,0.71335-1.8851,1.23077
	c-0.84402,0.8018-1.89203,1.27925-2.83566,1.92046c-0.45895,0.31186-0.89078,0.66417-1.32907,1.00565
	c-0.17603,0.13715-0.33908,0.29156-0.50333,0.44319c-0.51233,0.47286-1.01596,0.95542-1.53528,1.42042
	c-0.49728,0.44526-0.94174,0.94788-1.60168,1.19989c-0.32672,0.12477-0.58652,0.42271-0.87958,0.63828
	c-0.33578,0.24702-0.70291,0.45964-1.005,0.7422c-0.32156,0.30078-0.65216,0.62979-0.85175,1.01273
	c-0.21304,0.40874-0.45618,0.75577-0.80972,1.04461c-0.77972,0.63701-1.54156,1.29596-2.32501,1.92831
	c-0.43427,0.35048-0.90732,0.65271-1.34387,1.0005c-0.32669,0.2602-0.66864,0.52242-0.92468,0.84626
	c-0.93738,1.18563-1.99155,2.25001-3.10449,3.27139c-0.61118,0.5609-1.08554,1.27039-1.62634,1.90881
	c-0.17783,0.20995-0.36679,0.41099-0.55869,0.60831c-0.07709,0.07932-0.19507,0.12259-0.26172,0.20782
	c-1.19547,1.52968-2.57593,2.91975-3.50717,4.64981c-0.10477,0.19466-0.25818,0.36639-0.40543,0.53442
	c-1.04855,1.19658-2.11099,2.38123-3.14594,3.58941c-0.24811,0.28963-0.40677,0.65527-0.61142,0.98291
	c-0.4418,0.70721-0.8606,1.43079-1.33841,2.11295c-0.4155,0.59319-0.88123,1.15424-1.35754,1.7009
	c-0.51489,0.59091-1.04446,1.17314-1.61005,1.71481c-0.72827,0.69738-1.0769,1.61891-1.53,2.47472
	c-0.33789,0.63837-0.62305,1.28021-1.10062,1.85612c-0.92075,1.11019-1.819,2.26095-2.55212,3.49825
	c-0.66965,1.1302-1.44324,2.1763-2.18616,3.24919c-0.20645,0.29813-0.43216,0.58438-0.6658,0.86198
	c-0.3989,0.47416-0.76645,0.95454-0.91083,1.58337c-0.06061,0.26392-0.2395,0.50264-0.37509,0.74702
	c-0.59448,1.07208-1.20325,2.13643-1.78537,3.21513c-0.28821,0.53409-0.38477,1.14151-0.63867,1.70395
	c-0.51028,1.13065-1.15887,2.23451-1.21164,3.54028c-0.01233,0.30544-0.22534,0.60713-0.3656,0.90121
	c-0.07135,0.14958-0.21997,0.26597-0.27625,0.41854c-0.4993,1.35378-1.48288,2.25204-2.66946,3.01038
	c-0.4292,0.27431-0.72714,0.76167-1.06607,1.16759c-0.39087,0.4682-0.76611,0.94987-1.13799,1.43347
	c-0.20348,0.26466-0.38367,0.54716-0.57851,0.8186c-0.30766,0.42847-0.60425,0.86591-0.93152,1.27895
	c-0.68269,0.86157-1.63527,0.88226-2.60957,0.78712c-0.42757-0.04175-0.63943-0.30154-0.83766-0.70195
	c-0.48012-0.96994-0.61472-1.88232-0.02553-2.85519c0.24124-0.39842,0.39078-0.85736,0.54529-1.30156
	c0.08945-0.25721,0.10541-0.53993,0.15503-0.81107c0.05487-0.29987,0.07004-0.61428,0.17282-0.89677
	c0.33339-0.91601,0.68796-1.8248,1.05565-2.72765c0.27293-0.66995,0.60876-1.31539,0.85939-1.99289
	c0.15186-0.41035,0.17429-0.86671,0.29242-1.29195c0.11787-0.42404,0.27657-0.83728,0.42863-1.25111
	c0.16248-0.4421,0.33496-0.88062,0.5096-1.31808c0.07185-0.17999,0.16933-0.34981,0.24014-0.53014
	c0.13176-0.33525,0.25705-0.67322,0.37689-1.01292c0.20422-0.5788,0.31552-1.21047,0.61932-1.73019
	c0.82875-1.41762,1.33223-2.95242,1.8018-4.50655c0.0242-0.08028,0.01587-0.18221,0.06323-0.24187
	c0.91721-1.15485,0.90143-2.69128,1.6131-3.93359c0.23392-0.40826,0.36774-0.87608,0.52902-1.32329
	c0.38782-1.07568,0.668-2.20325,1.17206-3.22048c0.5575-1.12511,0.86093-2.341,1.49057-3.45358
	c0.57483-1.01596,1.2399-2.07564,1.34937-3.32275c0.01791-0.20468,0.19754-0.39439,0.29926-0.59266
	c0.44287-0.86325,0.9072-1.71645,1.32004-2.59385c0.36774-0.7818,0.68585-1.58749,1.01138-2.38849
	c0.24054-0.59192,0.46579-1.19047,0.67996-1.79241c0.05231-0.14703,0.03464-0.31899,0.0491-0.4795
	C267.06,86.75089,267.00739,86.72961,266.95471,86.70836z"/>
<path class="st1" d="M22.91345,32.4584c0.41915-0.93419,0.74306-1.71491,1.58348-2.16948
	c0.46104-0.24938,0.83521-0.65412,1.27124-0.95604c1.44746-1.00229,2.90619-1.98835,4.35858-2.98355
	c0.53159-0.36426,1.08568-0.52671,1.74473-0.37973c1.11748,0.24917,2.25311,0.41785,3.36847,0.6751
	c0.48288,0.11139,0.95168,0.32494,1.39637,0.55186c0.84437,0.43088,1.64739,0.92001,2.42054,1.48742
	c1.08711,0.79782,2.09023,1.6748,2.9856,2.66628c0.63258,0.70051,1.1691,1.49048,1.72208,2.2595
	c0.6706,0.93262,1.21169,1.93817,1.6712,2.99439c0.255,0.58608,0.61936,1.1246,0.93492,1.68428
	c0.56451,1.00118,0.69973,2.12012,0.85199,3.22664c0.1563,1.1362,0.27019,2.27916,0.36735,3.42217
	c0.04699,0.55304,0.03121,1.11356,0.01226,1.66961c-0.04369,1.2806-0.10666,2.56055-0.16246,3.85584
	c0.42743,0.15632,0.70142-0.07498,0.92708-0.29546c0.41838-0.40873,0.87921-0.81279,1.1653-1.3093
	c0.47053-0.81654,1.1471-1.4394,1.75891-2.12155c0.82088-0.91527,1.74236-1.74388,2.52493-2.68897
	c0.82854-1.00062,1.82474-1.80978,2.77699-2.66777c1.62083-1.46037,3.27215-2.88793,4.93912-4.29556
	c0.67795-0.57248,1.42914-1.05845,2.14917-1.58078c1.04164-0.75562,2.13667-1.4479,3.11512-2.27779
	c1.24689-1.05756,2.62002-1.90975,4.00293-2.75723c1.42923-0.87586,2.85477-1.75831,4.29919-2.6086
	c1.29202-0.76058,2.5437-1.59428,4.0111-2.0267c2.05641-0.60595,4.11445-0.7458,6.20798-0.23432
	c1.22523,0.29936,2.48135,0.53401,3.54278,1.25779c1.15335,0.78648,2.2608,1.64028,3.38825,2.46473
	c0.634,1.15988,1.66946,2.00471,2.38164,3.1266c0.93179,1.46791,1.34755,3.12654,2.08817,4.65597
	c0.03624,0.07484,0.03616,0.16948,0.07925,0.23847c0.84795,1.3574,0.76156,2.90972,0.78915,4.39361
	c0.02521,1.35615-0.01102,2.74216-0.37639,4.07905c-0.00739,0.02697-0.00349,0.06092-0.01864,0.08134
	c-0.7869,1.05845-0.38941,2.30861-0.56627,3.46572c-0.27022,1.76764-0.55388,3.52433-1.60514,5.05907
	c-0.40416,0.59011-0.6431,1.29369-0.95473,1.9468c-0.3845,0.80581-0.69037,1.66137-1.16695,2.40818
	c-0.73121,1.14585-1.27679,2.40373-2.25469,3.40763c-1.36275,1.39896-2.60451,2.91501-3.93945,4.34224
	c-0.51547,0.55109-1.01382,1.08787-1.44229,1.72269c-0.37523,0.55596-0.99915,0.95887-1.55322,1.37628
	c-1.1843,0.8922-2.35768,1.80768-3.60545,2.60408c-1.03946,0.66344-1.97495,1.44922-2.96198,2.17353
	c-0.55969,0.41073-1.20795,0.69905-1.80585,1.05984c-1.33469,0.80547-2.68123,1.59368-3.98518,2.44662
	c-0.57573,0.37659-1.06221,0.89065-1.58452,1.34767c-0.46072,0.40312-0.94755,0.78374-1.35986,1.23222
	c-0.25102,0.27307-0.51175,0.64495-0.54108,0.99165c-0.06071,0.71786-0.07816,1.47365,0.08274,2.16841
	c0.27612,1.19205,0.69016,2.35332,1.0694,3.52003c0.37151,1.14283,0.70338,2.3056,1.17497,3.40726
	c0.78055,1.82342,1.68017,3.59545,2.49025,5.40676c0.71781,1.60505,1.53679,3.16879,1.98313,4.88863
	c0.23129,0.89125,0.57503,1.7527,0.82967,2.6386c0.64078,2.22935,0.59917,4.46486,0.08684,6.71971
	c-0.20983,0.92332-0.22617,1.88925-0.40536,2.8214c-0.11387,0.5925-0.35107,1.16384-0.56169,1.73407
	c-0.09536,0.25822-0.33804,0.47805-0.38023,0.73706c-0.16334,1.00286-0.67316,1.82064-1.25513,2.61806
	c-0.4249,0.5822-0.78986,1.20842-1.22062,1.78587c-0.22923,0.3073-0.52974,0.5658-0.81848,0.82346
	c-0.89159,0.79556-1.79724,1.57532-2.68929,2.37037c-0.87554,0.78033-1.74825,1.56413-2.60764,2.3621
	c-0.367,0.34078-0.68967,0.72881-1.0463,1.08139c-0.25681,0.25388-0.50455,0.54377-0.81404,0.71056
	c-0.37368,0.20141-0.63916,0.42593-0.91025,0.77935c-0.31377,0.40904-0.92836,0.58531-1.40849,0.86917
	c-0.79145,0.46788-1.57882,0.94266-2.37016,1.41069c-0.18754,0.11092-0.39128,0.30421-0.57515,0.2907
	c-0.5141-0.0378-0.92725,0.19122-1.35418,0.39183c-1.36587,0.64177-2.72339,1.29094-3.92129,2.23959
	c-0.35357,0.28-0.84726,0.5182-1.28426,0.53169c-1.19042,0.03677-2.23057,0.47795-3.27554,0.95984
	c-0.35285,0.16273-0.7292,0.27386-1.09195,0.41591c-0.88088,0.34492-1.76014,0.69403-2.63994,1.04176
	c-0.15559,0.06149-0.30665,0.16484-0.46646,0.1804c-1.35833,0.13226-2.71634,0.29312-4.07842,0.3501
	c-0.63094,0.02638-1.27087-0.15773-1.90644-0.24843c-2.18341-0.3116-4.07985-1.33655-5.91569-2.46347
	c-1.13877-0.69902-2.23928-1.47986-3.27124-2.32822c-1.11749-0.91867-2.25423-1.82765-3.20708-2.93489
	c-0.96508-1.12142-1.96922-2.20946-2.92577-3.33794c-0.35959-0.42418-0.64762-0.91216-0.9433-1.3866
	c-0.41379-0.66394-0.82754-1.32989-1.19765-2.01845c-0.31537-0.58674-0.56253-1.20981-0.85377-1.81007
	c-0.09474-0.19527-0.23337-0.36926-0.37197-0.58401c-0.47499,0.15825-0.80324,0.43048-1.04901,0.82356
	c-0.56215,0.89903-1.12528,1.79758-1.70186,2.68736c-0.15057,0.23235-0.35207,0.43168-0.52989,0.64642
	c-0.36898,0.4456-0.85691,0.80493-0.89496,1.47362c-0.00951,0.16704-0.26159,0.33652-0.42767,0.47414
	c-0.19203,0.15913-0.493,0.23725-0.60648,0.43217c-0.56012,0.96213-1.53735,1.41924-2.36889,2.055
	c-0.28506,0.21796-0.53565,0.48203-0.7952,0.73209c-1.08146,1.04187-2.34276,1.8952-3.23061,3.14172
	c-0.40123,0.56332-0.98841,0.80624-1.68859,0.74489c-0.22282-0.01953-0.44611-0.04352-0.66941-0.04633
	c-1.0433-0.01305-1.60342-0.85422-1.22287-1.8235c0.21412-0.54535,0.37853-1.11084,0.60573-1.65025
	c0.17245-0.40941,0.37923-0.81131,0.6228-1.18237c0.4754-0.72417,1.01732-1.40559,1.47658-2.13921
	c0.6069-0.96945,1.19924-1.95229,1.722-2.96839c0.27667-0.53774,0.37126-1.16621,0.58764-1.73878
	c0.19709-0.52162,0.44607-1.02376,0.67502-1.5332c0.28628-0.63701,0.54827-1.2868,0.86921-1.90595
	c0.60285-1.16297,0.98038-2.41862,1.52606-3.60256c0.255-0.55329,0.61198-1.05982,0.92596-1.58562
	c0.63065-1.05618,1.12058-2.16778,1.56242-3.32192c0.5871-1.53354,1.37844-2.98885,2.08188-4.47784
	c0.52477-1.11078,1.05326-2.21983,1.57249-3.33318c0.32841-0.70421,0.65145-1.41122,0.96013-2.12423
	c0.15527-0.35864,0.30685-0.72516,0.40012-1.10291c0.1449-0.58681,0.45737-1.05999,0.82114-1.53049
	c0.3866-0.50002,0.73175-1.03998,1.03372-1.59579c0.52912-0.97388,1.01217-1.97279,1.51189-2.96255
	c0.03747-0.0742,0.06557-0.1572,0.07837-0.23917c0.23181-1.48316,1.22165-2.58858,1.89425-3.85419
	c0.33621-0.63268,0.67631-1.2627,0.88048-1.98038c0.29592-1.04028,0.79358-2.02328,1.20771-3.0297
	c0.05294-0.12868,0.13655-0.24603,0.17952-0.37728c0.4398-1.34305,1.24779-2.49406,1.92824-3.7115
	c0.08171-0.14613,0.17197-0.28815,0.24416-0.43884c0.43487-0.90783,0.87344-1.81403,1.29538-2.72789
	c0.34926-0.75651,0.67594-1.52344,1.01504-2.28467c0.84531-1.89753,1.1676-3.94546,1.71755-5.92842
	c0.52572-1.89553,0.66334-3.85328,1.00911-5.77703c0.19749-1.09879,0.47657-2.18631,0.61281-3.29198
	c0.25992-2.10909,0.45871-4.22618,0.65331-6.34268c0.10243-1.11456,0.18922-2.23462,0.1945-3.35263
	c0.00366-0.77785-0.13599-1.55727-0.22612-2.33431c-0.04799-0.41358-0.14912-0.82151-0.18789-1.23559
	c-0.17275-1.84533-0.83661-3.5262-1.7242-5.12617c-0.52828-0.9523-1.0772-1.89666-1.68042-2.80226
	c-0.2563-0.3848-0.65979-0.68005-1.02472-0.98173c-0.38529-0.31851-0.82048-0.57674-1.20518-0.89585
	c-0.72189-0.59882-1.49061-1.03818-2.44259-1.21973c-1.15019-0.21935-2.28697-0.54164-3.40024-0.90836
	C24.03575,33.18193,23.53288,32.8003,22.91345,32.4584z M48.36926,128.10201c0.18079,0.00969,0.35001,0.00764,0.51609,0.02948
	c0.95295,0.12529,1.83373-0.14062,2.68913-0.50932c1.35871-0.58565,2.71216-1.18372,4.06094-1.79185
	c0.22359-0.10081,0.43717-0.25404,0.61243-0.42665c0.73553-0.72452,1.43896-1.48216,2.18613-2.19412
	c0.41523-0.39565,0.86262-0.72834,1.43926-0.94113c1.03244-0.381,1.96798-0.95876,2.39115-2.08047
	c0.10853-0.28772,0.23657-0.56914,0.32808-0.86205c0.26622-0.85227,0.51587-1.70971,0.77712-2.56355
	c0.17991-0.58804,0.43762-1.1619,0.5378-1.76258c0.17857-1.07026,0.25088-2.15777,0.39162-3.23493
	c0.24795-1.89727,0.00092-3.73604-0.62922-5.5294c-0.22223-0.63244-0.54317-1.23457-0.71939-1.87783
	c-0.35266-1.28712-0.65915-2.58425-1.37159-3.73798c-0.10226-0.16557-0.16459-0.35543-0.25052-0.53154
	c-0.50164-1.02805-0.92868-2.1024-1.5274-3.07053c-0.68958-1.11504-0.93184-2.38947-1.46281-3.55832
	c-0.3981-0.87634-0.5283-1.87036-0.86547-2.77946c-0.41382-1.11562-0.63069-2.26727-0.76745-3.43456
	c-0.27924-2.38406,0.3306-4.43626,2.31915-5.95121c0.28606-0.21791,0.58005-0.47634,0.75277-0.78239
	c0.47905-0.84877,1.27362-1.31857,2.03722-1.83395c0.18517-0.125,0.38946-0.22169,0.57448-0.34688
	c1.36215-0.92171,2.70574-1.87192,4.0859-2.76571c1.82986-1.18504,3.68919-2.32452,5.53223-3.48927
	c0.42461-0.26835,0.86503-0.52412,1.24521-0.84787c0.91119-0.77595,1.80676-1.57202,2.67777-2.39274
	c0.58853-0.55455,1.13018-1.15956,1.68197-1.75208c0.36212-0.38882,0.70838-0.79263,1.05543-1.19519
	c0.40175-0.46605,0.81339-0.925,1.19063-1.41042c0.63371-0.81549,1.25161-1.64369,1.85864-2.47925
	c0.17884-0.24615,0.29785-0.53561,0.44574-0.80443c0.32178-0.58497,0.64497-1.16917,0.96658-1.75423
	c0.12051-0.21919,0.24895-0.43486,0.35551-0.66074c0.50038-1.06067,0.90485-2.17911,1.51294-3.17332
	c0.79339-1.29718,0.99979-2.72926,1.18857-4.16251c0.26955-2.04633,0.24734-4.11961,0.52393-6.17328
	c0.14678-1.09,0.04044-2.22705-0.42669-3.28331c-0.41728-0.94359-0.85057-1.88456-1.19071-2.8568
	c-0.56501-1.6151-1.65735-2.78112-2.90169-3.90522c-1.28451-1.16037-2.84135-1.51048-4.40769-1.61719
	c-2.45947-0.16757-4.75672,0.46937-6.65048,2.18354c-0.10012,0.09062-0.2338,0.15512-0.3628,0.20111
	c-0.93787,0.33434-1.69283,0.95856-2.47221,1.54482c-0.1773,0.13337-0.34968,0.27466-0.53553,0.39501
	c-0.88638,0.57403-1.8176,1.08841-2.65441,1.72686c-0.90656,0.69166-1.78414,1.42295-2.47223,2.37224
	c-0.40216,0.5548-0.97729,0.99865-1.52308,1.43123c-0.66129,0.52417-1.25911,1.08551-1.78267,1.75821
	c-0.56404,0.72472-1.2006,1.41603-1.90452,2.00328c-0.948,0.79085-1.88117,1.58552-2.67156,2.53644
	c-0.17773,0.21381-0.38264,0.42352-0.49281,0.67163c-0.39452,0.88844-1.03034,1.5836-1.69562,2.26718
	c-0.87587,0.89998-1.75088,1.80257-2.5849,2.7408c-0.44354,0.49897-0.83072,1.05616-1.18588,1.62306
	c-0.29568,0.47198-0.47463,1.01644-0.76383,1.49329c-0.4898,0.80761-0.89847,1.67318-1.6837,2.27794
	c-0.24569,0.18919-0.4312,0.52155-0.52808,0.82542c-0.20325,0.63767-0.32303,1.30152-0.48848,1.95172
	c-0.53786,2.11362-1.06983,4.22885-1.62701,6.33739c-0.24291,0.91936-0.52503,1.82935-0.81881,2.73403
	c-0.40465,1.24612-0.84061,2.48205-1.25698,3.72443c-0.50642,1.51115-1.03781,3.01357-1.8919,4.3709
	c-0.59896,0.9519-1.04782,1.95597-1.34324,3.04418c-0.15932,0.58681-0.432,1.14748-0.6946,1.70045
	c-0.36878,0.77652-0.81047,1.51956-1.15788,2.30482c-0.47248,1.06783-0.88515,2.16212-1.32429,3.24471
	c-0.05247,0.12933-0.10371,0.25983-0.1668,0.38408c-0.78183,1.53995-1.56683,3.07829-2.34739,4.61888
	c-0.07553,0.14908-0.12291,0.31216-0.19022,0.46571c-0.145,0.33073-0.28752,0.66286-0.44397,0.9882
	c-0.18172,0.37788-0.38262,0.74654-0.56565,1.12383c-0.36314,0.74859-0.69184,1.51534-1.08517,2.24749
	c-0.70305,1.30864-1.00474,2.71994-1.13078,4.17715c-0.06913,0.79922,0.00706,1.6201-0.1406,2.40129
	c-0.22673,1.19937,0.10639,2.26675,0.53012,3.3399c0.05145,0.13032,0.11013,0.25784,0.1592,0.389
	c0.28288,0.75593,0.5882,1.49478,0.72977,2.30737c0.1275,0.73187,0.39559,1.4558,0.70654,2.13523
	c0.4519,0.98747,0.99996,1.93081,1.50348,2.89479c0.66761,1.27814,1.56487,2.39317,2.589,3.38543
	c0.96035,0.9305,2.00899,1.77303,3.04895,2.61707c0.67149,0.54501,1.37238,1.06326,2.10638,1.51891
	c0.63705,0.39546,1.33625,0.69209,2.01347,1.02109c0.52523,0.25518,1.03836,0.62715,1.5929,0.71208
	C45.53028,128.01465,46.93966,128.34247,48.36926,128.10201z"/>
<path class="st1" d="M197.12462,38.9437c0.10962,0.9245-0.06306,1.79795-0.46901,2.61744
	c-0.51575,1.04121-1.18054,2.00403-2.25966,2.49826c-0.87201,0.39937-1.51881,1.06818-2.17096,1.68428
	c-0.63101,0.59606-1.33488,1.09143-1.96535,1.67789c-0.14326,0.13328-0.3255,0.23378-0.44109,0.38628
	c-0.80013,1.0557-1.96674,1.42116-3.17433,1.71912c-0.45773,0.11294-0.88795,0.23838-1.29318,0.54457
	c-0.36121,0.27289-0.86758,0.38241-1.32729,0.48928c-0.65114,0.15136-1.31787,0.23645-1.97891,0.34373
	c-0.10713,0.01738-0.2299,0.03288-0.32776-0.00138c-1.50772-0.52792-3.02208-1.08792-4.13596-2.28275
	c-0.90598-0.97181-1.36903-2.21676-1.77139-3.47672c-0.25333-0.79322-0.24464-1.57592-0.07097-2.3698
	c0.0338-0.15447,0.11292-0.30741,0.20241-0.43995c0.59282-0.87798,1.12671-1.80782,1.81094-2.60875
	c0.74109-0.86753,1.27403-1.88256,2.10353-2.69309c0.60942-0.59547,1.05153-1.37144,1.52151-2.09721
	c0.34067-0.52606,0.74222-0.99143,1.24576-1.34042c1.27177-0.88132,2.14417-2.08744,2.92598-3.38873
	c0.38991-0.64893,1.05119-0.98436,1.73225-1.25678c0.11813-0.04725,0.2784-0.02467,0.41072,0.00434
	c2.10333,0.46113,4.0611,1.21658,5.65115,2.74496c0.66257,0.63688,1.4063,1.19317,2.03603,1.85903
	c0.39265,0.41519,0.71182,0.9367,0.9359,1.46485c0.25934,0.61119,0.41559,1.27447,0.54738,1.92908
	C196.99425,37.60643,197.04071,38.27883,197.12462,38.9437z"/>
<path class="st1" d="M383.90631,39.1223c0.03348,0.03544,0.06683,0.07085,0.10019,0.10628
	c-0.05627,0.03041-0.11258,0.06083-0.16885,0.09123c-0.02258-0.04487-0.04517-0.08976-0.06775-0.13464
	C383.81531,39.16421,383.86078,39.14324,383.90631,39.1223z"/>
</svg>
