<?xml version="1.0" encoding="utf-8"?>
<!-- Generator: Adobe Illustrator 25.4.1, SVG Export Plug-In . SVG Version: 6.00 Build 0)  -->
<svg version="1.1" id="Layer_1" xmlns="http://www.w3.org/2000/svg" xmlns:xlink="http://www.w3.org/1999/xlink" x="0px" y="0px"
	 viewBox="0 0 534.25842 188.99892" style="enable-background:new 0 0 534.25842 188.99892;" xml:space="preserve">
<style type="text/css">
	.st0{fill:#EFEDE5;}
	.st1{fill:#B48039;}
	.st2{fill:#AD8246;}
	.st3{fill:none;stroke:#B48039;stroke-width:0.99892;stroke-miterlimit:10;}
</style>
<g id="Bittercube-Flavors-01_00000099627932508265462280000004842917571745426872_">
	<g>
		<path class="st1" d="M72.62897,91.33263c0.42075-0.50398,0.78408-0.93987,1.14816-1.37518
			c0.23181-0.27711,0.47735-0.54382,0.69391-0.83232c0.29892-0.39819,0.56541-0.8208,0.86507-1.21838
			c0.87109-1.15583,1.73373-2.31874,2.63409-3.45156c0.85187-1.07176,1.78856-2.07767,2.61344-3.16886
			c1.11272-1.47202,2.2569-2.90748,3.59089-4.18958c0.91964-0.88389,1.85802-1.76102,2.67525-2.7357
			c1.17928-1.40639,2.51666-2.61794,4.00768-3.67036c1.20278-0.84895,2.10198-1.99978,3.11014-3.04568
			c0.69225-0.71815,1.46931-1.35663,2.22817-2.00778c0.46492-0.39894,0.96813-0.75322,1.45235-1.1299
			c1.25409-0.97551,2.52219-1.93383,3.75694-2.93325c1.60178-1.29652,3.5555-1.82146,5.43678-2.48074
			c0.78392-0.27472,1.67417-0.25599,2.42834,0.26801c0.41822,0.29058,0.86905,0.36308,1.35693,0.3203
			c0.80752-0.07081,1.32695,0.41225,1.71067,1.00762c0.14865,0.23072,0.15063,0.67416,0.03245,0.93642
			c-0.35352,0.78446-0.74525,1.56334-1.22137,2.27831c-0.82298,1.23584-1.71364,2.42559-2.18568,3.8583
			c-0.04336,0.13169-0.11398,0.25673-0.18618,0.37627c-1.02518,1.69718-2.08202,3.37612-3.06977,5.09478
			c-0.667,1.16055-1.23004,2.38046-1.85307,3.56675c-0.7149,1.36117-1.48074,2.69692-2.15568,4.07733
			c-0.46428,0.94948-0.83636,1.94698-1.20493,2.93961c-0.5161,1.38979-1.00044,2.79169-1.47788,4.19538
			c-0.1786,0.5251-0.32806,1.06384-0.44075,1.60674c-0.19168,0.9224-0.61403,1.73335-1.11185,2.51676
			c-0.10432,0.16416-0.1953,0.34333-0.25604,0.52759c-0.32158,0.97601-0.51033,2.01792-0.97264,2.92046
			c-0.78701,1.53649-1.08742,3.21266-1.61938,4.8202c-0.2686,0.81187-0.48676,1.64709-0.64606,2.48725
			c-0.45218,2.38538-1.11572,4.74165-0.95903,7.21451c0.04365,0.68972-0.15852,1.39494-0.11556,2.0848
			c0.06391,1.02575,0.23797,2.04522,0.38026,3.06525c0.07313,0.52406,0.19125,1.04174,0.26803,1.56538
			c0.13117,0.89554,1.0737,2.94032,1.68568,3.68049c0.3922,0.47441,0.7178,1.00735,1.13422,1.4577
			c1.18553,1.28206,2.64038,1.75647,4.38815,1.4994c1.47155-0.21646,2.58102-0.93066,3.52674-2.04029
			c0.68584-0.80469,1.50497-1.49461,2.21011-2.28439c0.65093-0.72898,1.24993-1.50739,1.83375-2.2923
			c0.61565-0.82766,1.19315-1.68413,1.77307-2.5377c0.21906-0.3223,0.4844-0.6488,0.58099-1.01258
			c0.43243-1.6292,1.65753-2.73245,2.55195-4.0604c0.6126-0.90962,0.98893-1.9898,1.39484-3.02361
			c0.31209-0.79474,0.46462-1.65119,0.76111-2.45323c0.50348-1.36222,1.06013-2.70491,1.60231-4.05267
			c0.58182-1.44642,1.1712-2.8898,1.76013-4.33335c0.26344-0.64579,0.48311-1.31592,0.81076-1.92786
			c0.92315-1.72421,1.89384-3.42294,2.84231-5.13367c0.93524-1.68692,1.85941-3.38005,2.80112-5.06334
			c0.79086-1.41366,1.58797-2.82415,2.40669-4.22176c0.36686-0.62618,0.81291-1.20564,1.18781-1.82755
			c0.44501-0.73813,0.80292-1.53254,1.28621-2.24296c0.87955-1.29292,1.77527-2.58087,2.7543-3.79848
			c1.02812-1.27869,2.10951-2.52444,3.26398-3.68904c1.23259-1.24342,2.55911-2.39674,3.88222-3.54613
			c0.62502-0.5429,1.22595-1.1038,1.93521-1.57536c1.27699-0.8489,2.69826-1.08228,4.11932-1.30318
			c1.73842-0.27024,3.50102-0.45422,5.2583-0.50839c1.07487-0.03313,2.18324,0.15139,3.23357,0.4117
			c1.31956,0.32703,2.59192,0.84165,3.89168,1.25307c0.37007,0.11712,0.76154,0.18945,1.14851,0.22631
			c1.45204,0.13832,2.79118,0.60706,4.02058,1.37403c1.21107,0.75554,1.19936,1.38308,0.10921,2.32444
			c-1.81825,1.57013-3.59528,3.18796-5.38991,4.7855c-0.55756,0.49634-1.13397,0.69865-1.91835,0.45167
			c-1.00893-0.31769-2.07254-0.45728-3.10399-0.70905c-0.84024-0.20508-1.66539-0.47139-2.50145-0.69454
			c-1.86081-0.49666-3.71214-1.06089-5.6832-0.73443c-0.35414,0.05865-0.72592,0.05283-1.08592,0.02665
			c-1.82837-0.13295-3.55327,0.28265-5.21266,0.99761c-0.31371,0.13515-0.54579,0.45448-0.82365,0.67877
			c-1.93936,1.56569-3.23143,3.61742-4.32913,5.80667c-0.28879,0.57602-0.61746,1.10403-1.00681,1.6218
			c-1.12357,1.4942-2.11368,3.07397-2.97392,4.74469c-0.79019,1.53465-1.75024,2.98103-2.60258,4.48489
			c-0.30093,0.53098-0.50648,1.11624-0.75257,1.67802c-0.24602,0.56176-0.5084,1.11742-0.72867,1.68921
			c-1.02299,2.65534-2.04597,5.31083-3.04503,7.97521c-0.68558,1.82832-1.39027,3.65298-1.97608,5.51402
			c-0.4011,1.27425-0.6555,2.6004-0.8943,3.91805c-0.1789,0.9872-0.2287,1.9978-0.33562,2.99803
			c-0.13349,1.24825-0.33141,2.49378-0.38464,3.74546c-0.07813,1.83765,0.26828,3.61988,0.96354,5.32986
			c0.11548,0.28397,0.16218,0.59792,0.29259,0.87346c0.41457,0.87624,1.16467,1.41662,1.99352,1.83992
			c0.18304,0.09348,0.52633,0.05747,0.70611-0.05825c0.82254-0.52944,1.63911-1.07653,2.39701-1.69215
			c0.188-0.15271,1.41039-1.26511,1.83266-1.95502c0.38731-0.63273,0.9069-1.22665,1.4865-1.68955
			c0.86076-0.68743,1.37062-1.62855,1.92314-2.50906c0.51373-0.81873,1.11234-1.53921,1.75949-2.2287
			c0.69289-0.73819,1.25764-1.54868,1.78941-2.41107c0.80342-1.30299,1.74957-2.5172,2.61372-3.78374
			c0.54976-0.80579,1.1452-1.59685,1.56979-2.4678c0.65509-1.34399,1.57765-2.4931,2.42358-3.70177
			c0.36646-0.52351,0.73744-1.05209,1.02879-1.6183c0.73117-1.42052,1.62929-2.73199,2.52225-4.05005
			c0.68828-1.01596,1.36566-2.04076,2.00592-3.08732c0.36256-0.59268,0.60858-1.25613,0.96407-1.85381
			c0.51434-0.86471,2.39302-3.80117,2.60727-4.26861c0.16866-0.3679,0.48537-0.67481,0.76357-0.98425
			c0.66496-0.73954,1.40321-1.42065,2.00711-2.20592c0.8829-1.14806,1.68442-2.35963,2.5016-3.55711
			c0.87952-1.28886,1.72054-1.00245,2.65248-0.40374c0.50401,0.3238,0.57014,0.89265,0.40034,1.43289
			c-0.27618,0.87875-0.68343,1.72237-0.89435,2.61418c-0.35988,1.52141-1.21106,2.88131-1.37111,4.47247
			c-0.05624,0.55947-0.40718,1.08933-0.6237,1.63266c-0.07196,0.18055-0.1684,0.35523-0.21266,0.5423
			c-0.32179,1.36024-0.76439,2.68137-1.2899,3.9742c-0.45105,1.10952-0.94197,2.2029-1.3871,3.31468
			c-0.405,1.01148-0.80092,2.02841-1.1492,3.06039c-0.46336,1.37304-0.88307,2.76102-1.30864,4.14653
			c-0.19691,0.64095-0.32422,1.30546-0.55206,1.9343c-0.49362,1.36237-1.04137,2.70506-1.54626,4.06348
			c-0.17287,0.46497-0.29161,0.95083-0.42134,1.43087c-0.31372,1.16051-0.68192,2.31087-0.91411,3.48782
			c-0.37978,1.92544-0.53366,3.87801-0.09885,5.81632c0.17021,0.75881,0.35143,1.59291,0.79639,2.19367
			c0.62885,0.84904,1.35553,1.7492,2.55847,1.84925c0.40071,0.03332,0.8658,0.00453,1.21242-0.17128
			c0.71655-0.36334,1.38591-0.82619,2.05136-1.28207c0.76027-0.52084,1.49629-1.07713,2.2404-1.62138
			c0.15732-0.11507,0.34019-0.21871,0.44987-0.37167c0.80981-1.1293,1.68349-2.22346,2.3808-3.41977
			c0.69713-1.19598,1.57176-2.23662,2.42648-3.30421c0.31264-0.39048,0.62822-0.78699,0.87726-1.21842
			c0.79474-1.37694,1.59361-2.74801,2.64479-3.95272c1.05925-1.21387,1.81995-2.62714,2.51025-4.05768
			c0.71286-1.4771,1.78418-2.68363,2.68257-4.01978c0.91893-1.36664,1.77994-2.77405,2.62167-4.19012
			c0.56628-0.95266,0.82726-2.07343,1.65178-2.89281c0.24393-0.2424,0.31546-0.64935,0.50641-0.95567
			c0.79594-1.27703,1.62572-2.53333,2.40434-3.82063c0.32947-0.54469,0.5294-1.16673,0.84779-1.7193
			c0.65054-1.12897,1.36548-2.22112,2.00639-3.35527c0.3678-0.65089,0.61435-1.36929,0.9649-2.03115
			c0.71779-1.35532,1.42113-2.72214,2.21896-4.03023c0.90015-1.47589,1.96442-2.85378,2.82895-4.34853
			c0.56464-0.97619,0.90062-2.08457,1.33931-3.13362c0.12933-0.30935,0.2635-0.61677,0.38885-0.92773
			c0.33241-0.82465,0.64944-1.65575,0.99716-2.47384c0.14008-0.32961,0.33167-0.63983,0.52182-0.94515
			c0.36661-0.58852,0.74681-1.16866,1.12508-1.74982c0.81635-1.25411,1.896-2.27258,3.03604-3.21043
			c0.31822-0.26176,0.92191-0.3742,1.33363-0.28219c0.78185,0.17469,1.29652-0.14724,1.80496-0.61649
			c0.16422-0.15154,0.30461-0.32973,0.47371-0.47499c0.8546-0.73403,1.93938-0.51696,2.57808,0.42405
			c0.58533,0.86236,0.59993,1.72801,0.19807,2.62511c-0.35599,0.79476-0.61981,1.60112-0.81172,2.45784
			c-0.20529,0.91664-0.64325,1.7816-0.9846,2.66722c-0.53188,1.37993-1.04663,2.76698-1.60748,4.1351
			c-0.75111,1.83234-1.56126,3.64058-2.30463,5.47597c-0.5873,1.45013-1.11757,2.92354-1.65752,4.39239
			c-0.06598,0.17947-0.03485,0.39463-0.05928,0.74358c0.92706-0.89901,1.73306-1.64967,2.49785-2.44025
			c0.24512-0.25337,0.40491-0.60072,0.56244-0.92514c0.37073-0.7634,0.99818-1.32597,1.49263-1.98949
			c1.08987-1.46254,2.5905-2.5302,3.69499-3.96475c1.47128-1.91094,3.48935-3.20775,5.25801-4.78502
			c0.66289-0.59115,1.23776-1.28106,1.85133-1.92731c0.05719-0.06024,0.09338-0.14371,0.15692-0.1942
			c1.48581-1.18068,2.96681-2.36766,4.46759-3.52909c0.32724-0.25323,0.74515-0.38626,1.08896-0.62185
			c0.57266-0.39245,1.10345-0.84676,1.68195-1.22959c0.41396-0.27398,0.87053-0.48719,1.31944-0.70399
			c1.40504-0.67862,2.8708-0.85102,4.39238-0.48613c0.54427,0.13051,1.10176,0.23001,1.62308,0.42451
			c0.43401,0.16195,0.83099,0.43055,1.23067,0.6744c0.23653,0.14432,0.43025,0.3612,0.67091,0.49599
			c1.51865,0.85046,2.26152,2.25988,2.78609,3.82859c0.48689,1.45619,0.36644,2.94318,0.11095,4.40726
			c-0.29327,1.6806-0.60872,3.36757-1.07971,5.00423c-0.53835,1.87074-1.25966,3.68875-1.89815,5.53082
			c-0.07664,0.22103-0.13258,0.44925-0.09918,0.73637c0.50897-0.43263,1.10071-0.77937,1.35124-1.39457
			c0.39397-0.96732,1.12793-1.64825,1.83769-2.34644c1.09384-1.07603,2.30048-2.04561,3.32631-3.1805
			c1.32793-1.469,2.69327-2.87842,4.24603-4.11375c0.89543-0.71238,1.7093-1.52739,2.55867-2.29755
			c0.61774-0.56012,1.22737-1.12936,1.85258-1.68099c0.32906-0.29031,0.64989-0.62083,1.03506-0.80917
			c0.53893-0.26348,0.99484-0.61247,1.3882-1.04202c0.85866-0.93762,2.10794-1.231,3.11356-1.92556
			c0.41061-0.2836,0.86029-0.52141,1.31613-0.72684c1.63805-0.73821,3.38289-0.99597,5.15298-0.90328
			c0.87135,0.04563,1.85713,0.16671,2.56641,0.61178c1.91774,1.20335,3.66122,2.71193,3.92035,5.13798
			c0.1467,1.37349,0.08792,2.7906-0.21432,4.19839c-0.3374,1.57169-1.02621,3.00983-1.45341,4.54134
			c-0.13153,0.47153-0.46893,0.88412-0.70135,1.32932c-0.63206,1.21086-1.23148,2.43976-1.8961,3.63237
			c-0.4735,0.84966-1.0334,1.65105-1.55153,2.47599c-0.35544,0.5659-0.72406,1.12457-1.05457,1.70483
			c-1.44821,2.54243-2.91206,5.07663-4.31055,7.64629c-0.49203,0.90417-0.81352,1.90118-1.21266,2.85587
			c-0.03236,0.07735-0.04878,0.16566-0.09641,0.23175c-1.50838,2.09277-2.17915,4.59125-3.30568,6.86962
			c-0.59053,1.19435-1.12132,2.4742-1.35619,3.77377c-0.27026,1.49572-0.81342,2.90114-1.12155,4.3739
			c-0.10255,0.49026-0.16743,0.9892-0.23187,1.48647c-0.09692,0.74778-0.21086,1.49551-0.25841,2.247
			c-0.06322,0.99977-0.07494,2.00301-0.09891,3.00499c-0.02484,1.03749-0.02318,2.07327,0.37566,3.05972
			c0.43871,1.08508,0.79396,2.20761,1.80907,2.95686c4.26271,2.20341,8.00787-0.2663,8.31873-0.57783
			c0.67027-0.67166,1.27367-1.41103,1.9549-2.07059c1.38034-1.3365,2.50476-2.86102,3.356-4.57188
			c0.56421-1.13403,1.44688-1.98114,2.32333-2.83475c0.51315-0.49976,0.79007-1.07011,0.90164-1.7506
			c0.28882-1.76112,0.55347-3.52673,0.88019-5.28076c0.08966-0.4815,0.36115-0.92982,0.55444-1.39115
			c0.34607-0.82584,0.69797-1.64922,1.0441-2.47503c0.44888-1.07099,1.07758-2.04746,1.50406-3.14107
			c0.90005-2.30792,1.90854-4.57641,2.94754-6.82645c0.95868-2.07622,2.01645-4.10664,3.02774-6.15864
			c0.16071-0.32608,0.28442-0.6721,0.46396-0.98682c0.35803-0.62778,0.69986-1.27173,1.12488-1.85306
			c1.21933-1.66781,2.49655-3.29339,3.71097-4.96468c0.59-0.81199,1.04166-1.72591,1.64639-2.52528
			c0.52026-0.68779,1.16882-1.2785,1.76071-1.91211c0.76431-0.81827,1.508-1.65723,2.29996-2.44778
			c0.5705-0.56948,1.23889-1.04144,1.80469-1.61501c1.21188-1.22855,2.37732-2.51562,3.73715-3.57473
			c1.66879-1.29974,3.15918-2.84847,5.1131-3.76686c0.78006-0.36663,1.54312-0.77049,2.30435-1.17538
			c0.24423-0.12992,0.45734-0.31821,0.68561-0.47849c0.13547-0.09513,0.27634-0.27302,0.4086-0.26742
			c0.77585,0.03282,1.36945-0.44269,2.0462-0.68137c2.1723-0.76611,4.37827-0.91228,6.59875-0.25846
			c1.86957,0.5505,3.58649,1.41933,5.11029,2.64961c2.11331,1.70618,3.73694,3.75393,4.53751,6.39622
			c0.42117,1.39,0.97427,2.74495,1.31876,4.15221c0.67929,2.77521,0.66443,5.60918,0.37375,8.42968
			c-0.20038,1.94462-0.51559,3.88107-0.86865,5.80481c-0.18588,1.01275-0.61713,1.97841-0.84052,2.98685
			c-0.29831,1.3463-0.83582,2.60093-1.36618,3.85583c-0.58655,1.38786-1.25946,2.73935-1.89938,4.10449
			c-0.40775,0.86986-0.82394,1.73576-1.29645,2.72988c0.3006-0.05585,0.48645-0.0584,0.64471-0.12577
			c0.48462-0.20631,0.94238-0.4874,1.43982-0.6499c1.63272-0.53339,2.9054-1.6259,4.23773-2.6347
			c0.44138-0.3342,0.91071-0.64172,1.39899-0.90185c1.54736-0.82433,2.90082-1.88769,4.0791-3.18226
			c0.14606-0.16046,0.319-0.30782,0.50482-0.41889c1.23599-0.73882,2.32202-1.65242,3.2598-2.74438
			c1.03659-1.20707,2.02722-2.45089,3.33008-3.40832c0.81573-0.59945,1.35226-1.45673,1.90414-2.30923
			c0.8172-1.26228,1.66843-2.52657,2.67398-3.63715c1.46481-1.61776,2.4928-3.48539,3.55292-5.35841
			c0.92816-1.63989,1.50107-3.41042,2.14175-5.15967c0.40375-1.10242,0.27618-2.26737,0.31903-3.40705
			c0.01678-0.44661,0.09674-0.8026,0.39703-1.14334c0.99399-1.12804,1.92865-2.31027,2.95496-3.40728
			c0.83722-0.89487,1.76303-1.7084,2.66879-2.53698c0.5925-0.54201,1.29926-0.61788,2.04407-0.36773
			c0.74023,0.24861,1.35501,0.82384,1.75479,1.63408c-0.11139,0.13514-0.21622,0.3026-0.35864,0.42707
			c-0.32047,0.28006-0.33853,0.58624-0.22818,0.98325c0.09225,0.33184,0.13492,0.71777,0.05963,1.04782
			c-0.18002,0.78887-0.46173,1.55387-0.66711,2.33776c-0.28262,1.07887-0.49799,2.17624-0.8053,3.24756
			c-0.39304,1.36998-0.79477,2.74223-1.29471,4.07526c-0.40973,1.09249-0.97672,2.12537-1.45953,3.19123
			c-0.72641,1.60349-1.36609,3.23795-1.75592,4.96228c-0.05942,0.26273-0.16226,0.54134-0.32468,0.75089
			c-1.00156,1.29244-1.58298,2.76907-1.82358,4.36089c-0.1582,1.04704-0.70801,1.92768-1.01889,2.90552
			c-0.19321,0.60764-0.47623,1.18616-0.70203,1.78414c-0.38422,1.01745-0.75436,2.0402-1.13193,3.06017
			c-0.33832,0.914-0.68286,1.82575-1.01379,2.74242c-0.05255,0.14555-0.04803,0.31171,0.07251,0.54991
			c0.11578-0.15312,0.27417-0.28997,0.34003-0.4622c0.30316-0.79276,0.70251-1.493,1.34222-2.09226
			c0.47644-0.44629,0.74255-1.10944,1.18451-1.60233c0.45316-0.50536,0.88721-0.9749,1.04034-1.67805
			c0.0636-0.29224,0.414-0.51118,0.58716-0.7923c0.6972-1.13188,1.32745-2.30849,2.07922-3.40204
			c0.48566-0.70645,1.17169-1.2717,1.70819-1.94765c0.48199-0.6073,0.95804-1.24177,1.30069-1.93181
			c0.48389-0.97453,0.854-2.00147,1.8721-2.58071c0.09042-0.05144,0.17856-0.15549,0.21048-0.25375
			c0.40726-1.25161,1.63632-1.8018,2.37012-2.7797c0.56595-0.75426,1.27087-1.4028,1.89127-2.1181
			c0.54599-0.62951,1.05762-1.2887,1.59158-1.92882c0.08725-0.10457,0.20175-0.19533,0.32031-0.26347
			c1.38724-0.79739,2.38757-1.99847,3.42374-3.18089c1.15967-1.32334,2.33493-2.6469,3.83154-3.62105
			c0.04697-0.03056,0.10315-0.051,0.14197-0.08939c1.16626-1.15266,2.60141-1.9179,3.98019-2.76395
			c1.81995-1.11674,3.70105-2.0727,5.86295-2.34588c1.02472-0.12949,2.03766-0.35657,3.06351-0.47142
			c1.20117-0.13448,2.18042,0.34424,2.98221,1.23373c0.48135,0.53402,1.02097,1.01761,1.47958,1.56943
			c0.44324,0.53335,0.86902,1.09633,1.19949,1.70244c0.18893,0.34655,0.26666,0.81345,0.23126,1.21166
			c-0.11624,1.30778-0.27097,2.61469-0.47824,3.91117c-0.27063,1.69283-0.95407,3.26061-1.52014,4.86823
			c-0.40613,1.1533-1.04419,2.15516-1.58441,3.22334c-0.38876,0.76868-0.64548,1.60328-0.97821,2.40134
			c-0.54834,1.3151-1.11151,2.62401-1.66464,3.93713c-0.03818,0.09064-0.04465,0.19462-0.09076,0.4072
			c0.19476-0.11648,0.30441-0.15196,0.37073-0.22616c1.19058-1.3327,2.36172-2.68316,3.5701-3.99941
			c0.43011-0.46851,0.96375-0.84016,1.42273-1.28434c1.12234-1.0862,2.19699-2.22375,3.35052-3.27513
			c1.13483-1.0343,2.3418-1.98953,3.51984-2.9762c0.55746-0.46688,1.14658-0.89907,1.67725-1.39425
			c1.29272-1.20628,2.67477-2.28331,4.20605-3.17561c0.5498-0.32037,1.06421-0.71893,1.54224-1.14125
			c0.91714-0.81026,2.02237-1.28973,3.08191-1.85329c0.39026-0.20757,0.78116-0.41457,1.16394-0.63544
			c0.94254-0.54388,1.82037-1.34311,2.83365-1.58937c1.75461-0.42642,3.04724-1.6176,4.60712-2.34279
			c1.31094-0.60944,2.66754-0.85379,4.07437-0.65785c0.45486,0.06335,0.86798,0.45366,1.29163,0.70863
			c1.06427,0.64051,1.65497,1.60074,1.93613,2.79736c0.18958,0.8069,0.66449,1.54012,0.51114,2.43275
			c-0.19827,1.15427-0.29144,2.32804-0.52094,3.47519c-0.34256,1.71207-1.13153,3.26598-1.84119,4.84694
			c-0.24802,0.55254-0.52484,1.11571-0.41135,1.77344c0.02808,0.1627-0.09109,0.36514-0.17767,0.531
			c-0.59369,1.13732-1.1749,2.28198-1.80179,3.40095c-0.9805,1.75018-2.00131,3.47774-2.98898,5.22395
			c-0.30255,0.53482-0.53635,1.10818-0.83005,1.64841c-0.55969,1.02943-1.16177,2.0363-1.70392,3.07462
			c-0.37238,0.71317-0.737,1.44253-0.9892,2.20309c-0.28149,0.84893-0.80231,1.54293-1.34506,2.19341
			c-0.71979,0.86269-1.11499,1.87698-1.57446,2.85786c-0.82816,1.76801-1.73688,3.49218-2.62827,5.22736
			c-0.64972,1.26473-1.16617,2.59794-1.74225,3.90052c-0.05655,0.12786-0.0838,0.28619-0.17657,0.3778
			c-0.97849,0.96635-1.24451,2.30266-1.76187,3.49298c-0.57578,1.32472-0.86084,2.77556-1.43344,4.10199
			c-0.92422,2.14089-0.62506,4.21713,0.12973,6.2806c0.54849,1.49948,1.67874,2.45671,3.2554,2.68451
			c0.58856,0.08504,1.24777-0.22425,1.8576-0.41006c0.53058-0.16167,1.03757-0.40115,1.55328-0.61044
			c0.07532-0.03056,0.14636-0.07784,0.21057-0.12855c0.85229-0.67345,1.70303-1.34893,2.55417-2.02387
			c0.02194-0.0174,0.04745-0.03159,0.06564-0.05226c1.09247-1.24334,2.53464-2.15227,3.41711-3.60144
			c0.1842-0.30246,0.4798-0.54837,0.75723-0.78075c1.12494-0.94221,2.02048-2.05975,2.84851-3.27639
			c1.04898-1.5413,2.29468-2.94738,3.42221-4.43699c0.89188-1.17832,1.7316-2.39604,2.59909-3.59293
			c0.16388-0.22609,0.32654-0.46091,0.52869-0.65009c1.23019-1.15118,1.7572-2.77571,2.76376-4.07705
			c0.78452-1.01424,1.55322-2.04087,2.31647-3.07127c0.26331-0.35545,0.50937-0.7272,0.72745-1.11184
			c0.45267-0.7983,0.86179-1.62184,1.33051-2.41022c0.16394-0.27583,0.51465-0.44339,0.6683-0.72202
			c0.38837-0.70422,0.70212-1.44912,1.06763-2.1666c0.23926-0.46964,0.48407-0.94243,0.78329-1.3744
			c0.7973-1.15103,1.48175-2.32074,1.9147-3.6943c0.37695-1.19598,1.07297-2.33434,1.98819-3.26599
			c0.74921-0.76265,1.40454-1.55704,1.8273-2.57677c0.33664-0.81201,0.98337-1.48946,1.40149-2.27505
			c0.66678-1.25278,1.25647-2.54652,1.88358-3.82059c0.05914-0.12018,0.14627-0.22854,0.23114-0.33376
			c0.20737-0.25713,0.42624-0.50507,0.63092-0.76427c0.29178-0.36952,0.58524-0.73852,0.85825-1.12181
			c0.17712-0.24867,0.35367-0.50806,0.46964-0.78787c0.25357-0.61182,0.42734-1.25935,0.7121-1.85478
			c0.2247-0.46984,0.5831-0.87375,0.85303-1.32437c0.61615-1.02864,1.27808-2.02084,1.98401-2.99319
			c0.33087-0.45574,0.45969-1.05231,1.04239-1.31637c0.0455-0.02062,0.08875-0.07854,0.10428-0.12814
			c0.34814-1.11071,1.40451-1.45116,2.21933-2.05743c0.30789-0.2291,0.61652-0.47636,0.85986-0.76928
			c0.58383-0.70275,0.96408-0.81704,1.8317-0.53143c0.49884,0.16422,1.0155,0.2768,1.52759,0.39798
			c1.53644,0.36361,2.09927,1.93538,1.25479,3.24173c-1.60373,2.4808-3.14526,5.00134-4.15628,7.80413
			c-0.15796,0.43793-0.44223,0.83532-0.69858,1.23177c-0.66458,1.02786-1.35873,2.03677-2.01486,3.06989
			c-0.26862,0.42296-0.45908,0.8947-0.70325,1.33416c-0.89444,1.60986-1.8129,3.2066-2.69125,4.82515
			c-0.91852,1.69259-1.91458,3.35684-2.65958,5.12501c-0.49289,1.1699-1.12881,2.23577-1.70575,3.34737
			c-0.32782,0.63165-0.44189,1.37367-0.65723,2.06442c-0.32394,1.03917-0.60895,2.09335-0.99268,3.11012
			c-0.30252,0.80158-0.72931,1.55625-1.09985,2.33227c-0.03601,0.07545-0.07358,0.1521-0.09509,0.23229
			c-0.3107,1.15864-0.60492,2.32195-0.93436,3.4752c-0.12979,0.45433-0.39771,0.87344-0.4967,1.33151
			c-0.25354,1.17342-0.46515,2.3568-0.66113,3.54155c-0.25537,1.54353-0.46927,3.09391-0.72247,4.63783
			c-0.08984,0.54782-0.07669,4.82478,0.13611,5.3185c0.66791,1.54991,0.97391,3.26394,2.155,4.58598
			c0.4787,0.53584,0.80554,1.20448,1.23395,1.78889c0.5455,0.74414,1.07236,0.95861,1.89136,0.52335
			c1.12955-0.60031,2.17731-1.35516,3.25528-2.0513c0.23453-0.15143,0.42972-0.44045,0.67538-0.48416
			c0.9144-0.1627,1.36435-0.89511,1.74545-1.54684c0.9859-1.68613,2.4426-2.98998,3.53067-4.57891
			c1.18353-1.72836,2.70551-3.20815,3.69791-5.07258c0.56607-1.06348,1.39767-1.91678,2.15955-2.83144
			c0.53268-0.63952,0.92072-1.39867,1.38202-2.09869c1.10715-1.6801,2.16217-3.39883,3.35083-5.01939
			c0.72729-0.99156,1.45477-1.94727,1.84-3.13467c0.11658-0.35928,0.41849-0.6543,0.60132-0.99699
			c0.5444-1.02045,1.32816-1.86237,2.09885-2.69519c1.05884-1.14418,1.57477-2.53185,2.13916-3.9357
			c0.29248-0.72745,0.92838-1.31421,1.39307-1.97582c0.3988-0.56784,0.85626-1.11426,1.14243-1.73696
			c0.47647-1.0369,0.85413-2.12093,1.24164-3.19656c0.55823-1.54953,1.08493-3.11036,1.6308-4.66438
			c0.60114-1.71143,1.18036-3.43141,1.82617-5.12592c0.297-0.77924,0.7691-1.4902,1.09299-2.26105
			c0.65088-1.54906,1.40915-3.03809,2.2753-4.47729c0.22736-0.37776,0.33255-0.82713,0.51501-1.23412
			c1.05173-2.34589,2.13409-4.67838,3.15817-7.03619c0.85886-1.97734,1.74847-3.93217,2.86807-5.78208
			c0.34048-0.56256,0.49591-1.24172,0.70654-1.87725c0.37973-1.14566,0.91379-2.21597,1.44833-3.29626
			c0.79221-1.60112,1.44836-3.26929,2.1731-4.90418c0.63229-1.42626,1.28323-2.84424,1.9184-4.26923
			c0.38663-0.86734,0.74304-1.74841,1.1427-2.60957c0.32874-0.70843,0.74319-1.37897,1.04459-2.09779
			c0.48373-1.1537,0.86426-2.35148,1.36703-3.4961c0.36948-0.84116,0.90427-1.6086,1.29388-2.4423
			c0.49164-1.05199,1.15948-1.99984,1.52896-3.13575c0.44376-1.36421,0.97211-2.73927,2.09317-3.77082
			c0.47003-0.4325,0.8974-0.93819,1.23978-1.47692c0.6954-1.0941,1.69876-1.82642,2.74783-2.51495
			c1.67981-1.10247,3.36667-2.19436,5.05984-3.27615c0.39996-0.25553,0.83145-0.46416,1.25793-0.67521
			c1.23969-0.6135,2.90115,0.40862,2.81903,1.79851c-0.09683,1.63931-0.33615,3.24598-1.04968,4.78269
			c-0.62122,1.33788-0.9856,2.79271-1.51587,4.17577c-0.47833,1.24763-1.02954,2.46726-1.54349,3.70137
			c-0.06381,0.15325-0.10956,0.31699-0.14111,0.48023c-0.21893,1.13275-0.70364,2.16606-1.13342,3.227
			c-0.39618,0.97805-0.66895,2.01513-0.90326,3.04727c-0.25378,1.11783-0.65048,2.1349-1.46024,2.97014
			c-0.17123,0.1766-0.31339,0.39703-0.41644,0.62137c-0.46661,1.01577-0.8913,2.0513-1.37521,3.05851
			c-0.53314,1.10966-1.18741,2.14086-2.00873,3.07432c-0.39966,0.45422-0.68976,1.01835-0.96625,1.56472
			c-0.63043,1.24585-1.21542,2.51461-1.83429,3.76644c-0.13425,0.27154-0.30225,0.54-0.50778,0.76038
			c-1.00613,1.07877-1.67932,2.36565-2.27246,3.68937c-0.37378,0.83413-0.61502,1.72727-0.92529,2.59048
			c-0.07404,0.2059-0.15677,0.42017-0.28604,0.59274c-0.63681,0.85009-1.31342,1.67109-1.9325,2.53355
			c-0.72202,1.00585-1.29025,2.08735-1.56088,3.31927c-0.09979,0.45432-0.35391,0.87951-0.56693,1.30329
			c-0.62628,1.24609-1.25696,2.49027-1.91003,3.72241c-0.15482,0.2921-0.40253,0.53537-0.61014,0.79903
			c-1.49976,1.90465-2.85269,3.90752-4.10736,5.98275c-0.67853,1.12223-1.53693,2.13793-2.1875,3.27421
			c-0.71793,1.25385-1.22949,2.62565-1.94476,3.88124c-0.66492,1.16723-0.87369,2.45841-1.27658,3.69913
			c-0.33597,1.03465-0.82101,2.02017-1.17606,3.04954c-0.3176,0.92078-0.552,1.87052-0.81549,2.80963
			c-0.39941,1.42366-0.79257,2.84908-1.18768,4.27394c-0.2612,0.94199-0.48486,1.89623-0.78983,2.82381
			c-0.50879,1.54767-0.81726,3.1341-1.06857,4.73837c-0.06836,0.43636-0.26318,0.85194-0.38742,1.28069
			c-0.23325,0.80495-0.36444,1.61011-0.34555,2.46677c0.01959,0.88766-0.20282,1.77794-0.26065,2.67086
			c-0.04666,0.7207-0.02664,1.44783,0.00079,2.17072c0.04123,1.08665,0.10428,2.17281,0.17969,3.25768
			c0.03079,0.44302,0.11615,0.88239,0.18115,1.32276c0.01624,0.10993,0.08636,0.22319,0.06989,0.32491
			c-0.17371,1.07368,0.07166,2.10536,0.2435,3.15572c0.25116,1.53492,0.96545,2.85345,1.76697,4.13527
			c0.30182,0.48264,0.69009,0.53963,1.24643,0.18175c1.19275-0.76723,2.4299-1.48247,3.35318-2.60874
			c0.1976-0.241,0.50885-0.45541,0.80664-0.5332c0.53796-0.14051,0.88354-0.45727,1.14597-0.90888
			c0.57358-0.98708,1.43521-1.69015,2.28961-2.41737c0.47781-0.40669,0.84109-0.9537,1.22992-1.45758
			c0.44214-0.57299,0.85519-1.1684,1.28098-1.75404c0.60593-0.83347,1.21457-1.66498,1.8172-2.50083
			c0.71198-0.98754,1.4201-1.97791,2.12656-2.96941c0.11304-0.15865,0.21646-0.32537,0.31104-0.49574
			c0.50983-0.91837,1.16464-1.79036,1.48489-2.77125c0.4046-1.23915,1.32565-1.95895,2.16913-2.80338
			c0.4899-0.49046,0.87271-1.08608,1.3262-1.6151c0.65118-0.7596,1.39783-1.44955,1.96472-2.26578
			c0.56821-0.81813,1.07336-1.71532,1.41565-2.64777c0.70758-1.92769,1.76181-3.67187,2.6947-5.4808
			c1.26892-2.46052,2.76801-4.7872,4.21469-7.14272c0.70068-1.14091,1.51025-2.21559,2.28351-3.3111
			c0.53076-0.75203,1.06165-1.50589,1.63254-2.22724c0.72079-0.9108,1.4715-1.79867,2.22891-2.67957
			c1.02081-1.18732,2.01718-2.40015,3.10214-3.52681c1.55014-1.60969,3.18839-3.13423,4.75302-4.73042
			c0.61624-0.62868,1.26047-1.1241,2.09821-1.4624c0.73376-0.2963,1.40335-0.82066,2.00906-1.34983
			c1.13248-0.98936,2.44308-1.67679,3.77957-2.29781c0.77081-0.35817,1.64801-0.50048,2.4881-0.69284
			c0.87183-0.19962,1.7511-0.39239,2.63794-0.49088c0.51306-0.05698,1.04688,0.08526,1.57233,0.12528
			c1.93207,0.14715,3.65039,0.8005,5.07996,2.1377c0.44971,0.42061,0.93256,0.81635,1.32056,1.28886
			c0.31042,0.37793,0.50891,0.85033,0.74011,1.28972c0.14221,0.27029,0.24738,0.55981,0.37885,0.83612
			c0.13208,0.27768,0.34161,0.53558,0.40424,0.82647c0.37726,1.75085,0.68225,3.512,0.45471,5.31622
			c-0.11542,0.9153-0.20068,1.83563-0.35278,2.74478c-0.21234,1.26942-0.62305,2.46204-1.1286,3.66479
			c-0.50336,1.19752-1.12482,2.3241-1.79102,3.39561c-0.89459,1.43876-1.99915,2.76894-3.14899,4.02139
			c-1.43329,1.56116-2.94849,3.05895-4.53485,4.46383c-1.16272,1.02966-2.49127,1.87349-3.75659,2.78527
			c-0.95166,0.68573-1.91406,1.35702-2.88464,2.01558c-0.3457,0.23454-0.74298,0.39221-1.09296,0.6213
			c-0.5527,0.3618-1.08224,0.75877-1.62708,1.13287c-1.36768,0.93913-2.88763,1.55643-4.42166,2.16639
			c-1.11008,0.44143-2.13925,1.08216-3.23297,1.57028c-0.96317,0.42987-1.95987,0.78794-2.95401,1.14359
			c-0.38852,0.13899-1.16623-0.38393-1.28891-0.87244c-0.07898-0.31452-0.12421-0.68702-0.0314-0.98598
			c0.28864-0.92965,0.57034-1.87777,1.0126-2.7375c0.28207-0.54836,0.76837-1.07786,1.29565-1.39648
			c1.20221-0.72648,2.28006-1.59608,3.32721-2.51454c0.61359-0.53818,1.32877-0.53584,2.03015-0.33482
			c0.50491,0.14471,0.92557,0.06508,1.37396-0.13145c1.33221-0.58393,2.64468-1.2261,4.01202-1.71312
			c1.47043-0.52374,2.81741-1.23045,3.90707-2.33121c0.78296-0.79096,1.43225-1.71404,2.14313-2.57662
			c1.28021-1.55349,2.14917-3.32561,2.72803-5.23942c0.20905-0.69097,0.38519-1.40934,0.44104-2.12577
			c0.14575-1.86816,0.37646-3.74142,0.13397-5.61711c-0.2439-1.88623-1.24731-3.18377-3.07745-3.79961
			c-0.21179-0.07128-0.43231-0.13194-0.6264-0.2384c-1.06519-0.58437-2.14331-0.78673-3.28693-0.21046
			c-0.1908,0.09613-0.43652,0.10091-0.65881,0.11379c-1.36496,0.07903-2.45425,0.82772-3.58966,1.46481
			c-0.07199,0.04037-0.15347,0.08842-0.19489,0.15504c-0.85263,1.37155-2.42279,1.94762-3.45151,3.11871
			c-0.37518,0.42712-0.69025,0.90676-1.03802,1.35835c-0.67944,0.88221-1.43124,1.71779-2.02716,2.65293
			c-0.77621,1.21812-1.69739,2.35876-2.15494,3.77023c-0.12283,0.37888-0.42786,0.7032-0.67023,1.03738
			c-0.17865,0.24638-0.4624,0.43788-0.57648,0.70609c-0.45132,1.06135-1.16507,1.94608-1.79691,2.89185
			c-0.4762,0.71278-0.79016,1.53998-1.13113,2.33564c-0.48138,1.12336-0.90662,2.27076-1.38742,3.3944
			c-0.1409,0.3293-0.38431,0.61594-0.58871,0.9167c-0.55789,0.82086-0.91809,1.71293-1.12683,2.68981
			c-0.28519,1.33468-0.56079,2.68048-1.29565,3.87283c-0.12656,0.20534-0.17023,0.47671-0.20053,0.72392
			c-0.15976,1.30279-0.30328,2.60758-0.45114,3.91183c-0.00934,0.08234,0.02078,0.18215-0.01566,0.24649
			c-0.52078,0.91878-0.4346,1.93796-0.55334,2.93529c-0.16803,1.4109,0.09506,2.79558,0.06345,4.19125
			c-0.03247,1.43233,0.55038,2.72013,0.86734,4.07159c0.15814,0.67426,0.15973,1.38388,0.28922,2.06667
			c0.09763,0.51488,0.22101,1.04383,0.44632,1.51192c0.64282,1.33535,1.35654,2.61324,2.51648,3.61821
			c0.65833,0.57039,1.32803,1.08923,2.0607,1.55801c1.3309,0.85149,2.72223,0.90221,4.18427,0.49815
			c1.16528-0.32204,2.31549-0.66541,3.18652-1.59071c0.1644-0.17465,0.43466-0.24747,0.65094-0.37594
			c0.48059-0.28548,0.99051-0.53439,1.42932-0.87452c0.74832-0.58003,1.46924-1.18819,2.23953-1.74696
			c0.8602-0.62399,1.49402-1.56162,2.22012-2.36839c0.52118-0.57906,0.94849-1.28199,1.56311-1.73018
			c1.87585-1.36786,3.13782-3.2295,4.38641-5.11761c0.15387-0.23266,0.34497-0.44049,0.50226-0.67113
			c0.43866-0.64348,0.86755-1.29365,1.30249-1.93971c0.34204-0.50803,0.61914-1.08473,1.05109-1.49992
			c0.3974-0.38199,0.71259-0.75877,0.88965-1.27929c0.06647-0.19547,0.26801-0.34367,0.40253-0.51761
			c0.3559-0.46008,0.67212-0.95756,1.07202-1.37511c0.51508-0.5378,1.03113-1.13892,1.6723-1.46877
			c0.41516-0.21357,1.07281-0.06252,1.58649,0.06612c0.26575,0.06654,0.46503,0.43118,0.67627,0.67665
			c0.76971,0.89413,0.58069,1.77376-0.00623,2.68439c-0.49884,0.774-0.85632,1.6488-1.41431,2.3727
			c-0.79785,1.03513-1.7041,1.98945-2.5968,2.94782c-0.70288,0.75466-1.5036,1.42216-2.17004,2.2056
			c-0.52039,0.61163-0.97974,1.30419-1.32715,2.02758c-0.6474,1.34827-1.76526,2.29754-2.69519,3.40611
			c-0.6449,0.76874-1.28943,1.539-1.96545,2.28001c-0.58173,0.63769-1.15668,1.29996-1.83044,1.82945
			c-0.53674,0.42185-0.90997,1.03389-1.63156,1.27763c-0.32358,0.10931-0.49045,0.64851-0.75601,0.96985
			c-0.79852,0.9662-1.56934,1.96039-2.43115,2.8675c-0.62946,0.66254-1.39352,1.19575-2.08133,1.80495
			c-0.27042,0.23952-0.48126,0.54552-0.74646,0.79192c-0.38773,0.36026-0.74719,0.82474-1.21246,1.0126
			c-1.03928,0.41965-1.79932,1.22614-2.7326,1.77045c-1.4624,0.85291-2.94116,1.57732-4.73828,1.69699
			c-1.54147,0.10265-2.86584-0.3179-4.19113-0.87585c-0.70389-0.29633-1.33749-0.7887-1.95374-1.25714
			c-0.86697-0.65904-1.67807-1.39107-2.53262-2.06717c-0.64868-0.5132-1.17181-1.10379-1.50677-1.87302
			c-0.23108-0.53069-0.61353-1.00105-0.80618-1.54186c-0.62738-1.76111-1.28555-3.5188-1.77054-5.32122
			c-0.67694-2.51568-1.12881-5.08306-0.9668-7.71051c0.08771-1.4221,0.23685-2.84038,0.35574-4.2606
			c0.01572-0.18797,0.01648-0.3772-0.11017-0.65588c-0.25186,0.27187-0.5892,0.5033-0.74033,0.82281
			c-0.56491,1.19454-1.58926,2.00553-2.39706,2.99538c-0.10583,0.1297-0.29388,0.22475-0.33713,0.36807
			c-0.40283,1.33504-1.58121,2.06019-2.3819,3.08055c-0.56384,0.71851-1.07208,1.48044-1.61905,2.2126
			c-0.14709,0.19691-0.35846,0.34461-0.51685,0.53448c-0.40656,0.4873-0.80316,0.98307-1.19611,1.48148
			c-0.08505,0.10792-0.11591,0.26254-0.20935,0.35929c-0.79214,0.82013-1.61627,1.61059-2.38467,2.45206
			c-0.77032,0.84351-1.48703,1.73594-2.22858,2.60578c-0.23502,0.2757-0.4906,0.53545-0.70883,0.82365
			c-0.79303,1.04723-1.68051,1.97363-2.8085,2.6897c-0.54816,0.34796-0.92392,0.95799-1.41351,1.41071
			c-0.4043,0.37386-0.83475,0.73334-1.30066,1.02367c-0.82693,0.5153-1.68271,0.98213-2.65857,1.17998
			c-1.04102,0.21107-2.11298,0.38307-2.92191-0.47549c-0.75424-0.80054-1.59085-1.55849-1.99075-2.64761
			c-0.29865-0.81326-0.6608-1.60387-1.01111-2.3973c-0.56448-1.27837-0.67172-2.64714-0.81955-4.00914
			c-0.06335-0.58347-0.15152-1.16507-0.1911-1.75006c-0.03738-0.55247-0.02377-1.10833-0.03687-1.66258
			c-0.00528-0.22275,0.02432-0.45988-0.04074-0.66555c-0.56308-1.78017-0.30197-3.60316-0.30371-5.41234
			c-0.00046-0.44814,0.04501-0.90073-0.00247-1.34358c-0.13834-1.28983,0.20221-2.49126,0.57257-3.70203
			c0.21793-0.71255,0.34344-1.45518,0.48279-2.18956c0.18655-0.98321,0.33664-1.97334,0.52328-2.95652
			c0.05667-0.29858,0.1929-0.58119,0.27347-0.87637c0.0705-0.2582,0.11929-0.52277,0.16794-0.78632
			c0.05026-0.27247,0.09906-0.54595,0.1297-0.82108c0.03235-0.29026,0.04251-0.58298,0.07129-1.00625
			c-0.60281,0.37988-1.06656,0.61422-1.3699,1.14334c-0.26978,0.4706-0.74164,0.82043-1.08017,1.25774
			c-0.46375,0.59903-0.89966,1.221-1.3226,1.84988c-0.77536,1.15282-1.22958,2.50202-2.23389,3.52069
			c-0.92581,0.93906-1.64514,2.03096-2.26733,3.20293c-0.31686,0.59683-0.87213,1.06358-1.29404,1.60889
			c-0.75137,0.97116-1.55069,1.91504-2.20135,2.95109c-0.49033,0.7808-0.93759,1.56509-1.57129,2.25589
			c-0.98132,1.06974-1.86014,2.23278-2.80414,3.33772c-1.28903,1.50881-2.60614,2.99362-3.89395,4.50346
			c-0.34265,0.40172-0.59082,0.88463-0.93762,1.28207c-0.58417,0.66955-1.17874,1.33712-1.83023,1.93922
			c-0.98367,0.90912-2.00671,1.77728-3.03769,2.6331c-1.03961,0.86298-2.16962,1.6378-3.51419,1.86714
			c-1.45767,0.24861-2.84811,0.02077-3.87006-1.24173c-0.36829-0.45496-0.78336-0.87177-1.15918-1.32094
			c-0.83612-0.99928-1.51114-2.10399-2.10367-3.26187c-0.12704-0.24828-0.30301-0.47233-0.42181-0.72389
			c-0.81787-1.7317-1.68484-3.43655-1.54123-5.45766c0.11282-1.58787,0.06467-3.18671,0.15894-4.77647
			c0.10336-1.74376,0.19839-3.49648,0.46323-5.21975c0.24991-1.62617,0.71246-3.21992,1.08832-4.82632
			c0.13321-0.56937,0.26273-1.1414,0.4357-1.69929c0.37125-1.1973,0.77094-2.3858,1.15384-3.57955
			c0.02356-0.07352,0.00226-0.16146,0.00165-0.27473c-0.33392-0.14419-0.5412,0.02998-0.70779,0.26424
			c-0.96811,1.36147-1.92786,2.7289-2.89618,4.09022c-0.12823,0.18027-0.27301,0.35559-0.43799,0.50175
			c-0.59335,0.5256-1.03741,1.14629-1.41809,1.84753c-0.46384,0.85452-1.04556,1.64533-1.58273,2.45946
			c-0.07599,0.11522-0.17075,0.23669-0.28662,0.30411c-1.17657,0.68469-1.83878,1.8026-2.54913,2.90352
			c-0.45151,0.69965-1.06937,1.2902-1.58945,1.94801c-0.29361,0.37135-0.51263,0.80276-0.81445,1.16627
			c-0.45987,0.55386-0.91434,1.12843-1.45728,1.59367c-1.00833,0.86404-1.70535,1.98666-2.59332,2.94685
			c-0.54813,0.5927-1.07324,1.21842-1.68994,1.73168c-0.39777,0.33103-0.91882,0.51611-1.15912,1.02457
			c-0.11215,0.23734-0.20444,0.48409-0.31827,0.75665c-0.24213,0.19476-0.56027,0.40639-0.82532,0.67117
			c-1.52255,1.52109-2.97708,3.11541-4.56326,4.56617c-1.41971,1.29846-2.91434,2.53526-4.61475,3.47015
			c-0.40378,0.22198-0.88419,0.35309-1.3443,0.41521c-1.5144,0.20439-3.03198,0.20572-4.43741-0.48798
			c-0.61633-0.30421-1.22238-0.70439-1.7045-1.18896c-0.85837-0.86275-1.70959-1.73967-2.30817-2.83432
			c-0.92206-1.68624-1.27972-3.497-1.30136-5.38561c-0.00562-0.49168,0.16794-0.98466,0.25192-1.47829
			c0.15472-0.9094,0.29681-1.82099,0.45721-2.72935c0.25116-1.42215,0.98291-2.66221,1.54575-3.96256
			c0.75317-1.74025,1.58087-3.44816,2.37146-5.17229c0.66202-1.4437,1.32364-2.88768,1.97186-4.3376
			c0.35254-0.78857,0.68369-1.58697,1.01257-2.38585c0.88712-2.15504,2.0979-4.12819,3.37119-6.06924
			c0.36597-0.55788,0.68958-1.14768,0.98621-1.74586c0.39612-0.79884,0.73041-1.62821,1.1228-2.42902
			c0.28143-0.57435,0.63165-1.11472,0.92075-1.68565c0.47891-0.94579,0.93774-1.90185,1.39633-2.85775
			c0.26422-0.55076,0.50623-1.11214,0.76718-1.66451c0.82153-1.73916,1.6684-3.46673,2.46402-5.21761
			c0.54001-1.18839,1.03958-2.39734,1.50372-3.61745c0.47659-1.2528,0.94626-2.51391,1.31104-3.80194
			c0.32864-1.16042,0.35172-2.37374,0.15622-3.56884c-0.11792-0.72079-0.34235-0.84782-1.10046-0.8112
			c-0.72086,0.03482-1.49478-0.08865-2.15088,0.13484c-1.09775,0.37392-2.3288,0.35268-3.30756,1.10429
			c-0.25488,0.19572-0.61099,0.29733-0.93619,0.35618c-0.72971,0.13205-1.34039,0.53137-1.7883,1.03831
			c-0.509,0.5761-1.17526,0.83054-1.77121,1.22911c-1.11121,0.74316-2.20923,1.506-3.31546,2.25667
			c-0.436,0.29585-0.87845,0.58231-1.3197,0.87035c-0.13989,0.09131-0.30771,0.15086-0.42496,0.26408
			c-1.10397,1.06593-2.35019,1.98239-3.27661,3.23749c-0.32489,0.44014-0.83725,0.73724-1.23224,1.13148
			c-0.45108,0.45023-0.866,0.93667-1.29837,1.40577c-0.1131,0.12271-0.21164,0.28052-0.35248,0.35255
			c-1.11734,0.57153-1.8692,1.52455-2.67902,2.4398c-1.06995,1.20921-2.22937,2.33908-3.34634,3.5069
			c-0.3461,0.36187-0.73764,0.69828-1.00641,1.1125c-0.62003,0.95555-1.15781,1.96423-1.77002,2.92518
			c-0.25089,0.3938-0.56183,0.77794-0.92487,1.06651c-1.23575,0.98221-2.05267,2.27491-2.83054,3.61047
			c-0.78278,1.34399-1.57059,2.68623-2.40353,3.9992c-0.32373,0.51034-0.79984,0.92124-1.16718,1.40721
			c-1.27692,1.68941-2.04855,3.64924-2.93781,5.54614c-0.14142,0.30168-0.31488,0.59274-0.50623,0.86581
			c-0.68707,0.98063-1.44836,1.91511-2.06512,2.93729c-0.50198,0.83195-0.88031,1.74758-1.23669,2.65622
			c-0.57639,1.46971-1.47467,2.75295-2.2399,4.1152c-1.25793,2.23937-2.37766,4.55675-3.64957,6.78769
			c-0.50461,0.88508-1.26218,1.62547-1.90021,2.43517c-0.293,0.3718-0.57468,0.75249-0.86288,1.12805
			c-0.50867,0.6628-1.02783,1.31779-1.52258,1.99077c-0.17996,0.2448-0.3244,0.52206-0.44763,0.80104
			c-0.42148,0.95422-1.45532,1.64429-2.46573,1.55038c-1.18713-0.11034-1.69009-0.63985-1.15399-1.76758
			c0.14163-0.29794,0.20663-0.63451,0.28934-0.95781c0.23465-0.91678,0.41037-1.85223,0.70444-2.74915
			c0.25909-0.79031,0.69583-1.52167,0.96594-2.3093c0.44308-1.29219,1.22162-2.44241,1.4696-3.82903
			c0.10931-0.61115,0.64725-1.1423,0.97574-1.71823c0.77271-1.35477,1.56143-2.70132,2.29599-4.07666
			c0.57751-1.08135,1.0509-2.21851,1.63217-3.29766c0.4621-0.85786,1.03207-1.65686,1.52789-2.49748
			c0.7641-1.29545,1.50723-2.60329,2.25629-3.90755c0.39987-0.69621,0.81992-1.38252,1.18417-2.0971
			c0.59305-1.16334,1.1459-2.34711,1.71979-3.52026c0.20663-0.42242,0.42511-0.83905,0.638-1.25842
			c0.40424-0.79646,0.84964-1.57504,1.20462-2.39285c1.00027-2.30445,1.96683-4.62358,2.93945-6.93996
			c0.44171-1.05193,0.85852-2.11431,1.3009-3.16597c0.37851-0.89994,0.83859-1.77045,1.15256-2.6915
			c0.45856-1.34524,1.01288-2.63493,1.66199-3.90121c0.49268-0.96109,0.78012-2.02747,1.15744-3.04753
			c0.04849-0.13108,0.05432-0.29353,0.13742-0.39377c0.69345-0.83641,0.63708-1.88505,0.82797-2.86266
			c0.10666-0.54605,0.11899-1.12424,0.30984-1.63737c0.44388-1.19331,0.11353-2.30862-0.24048-3.42114
			c-0.25684-0.80716-0.88669-1.2225-1.71628-1.23585c-0.74811-0.01204-1.51312-0.05679-2.22015,0.31042
			c-0.19287,0.10015-0.42523,0.13974-0.64456,0.17047c-0.64227,0.09-1.20639,0.37933-1.80313,0.60192
			c-1.3945,0.52016-2.30945,1.54247-3.17691,2.63141c-0.86438,1.08508-1.94092,1.92968-3.05273,2.70158
			c-1.19785,0.8316-1.90036,2.02622-2.71509,3.15125c-0.5553,0.76672-1.0423,1.5874-1.6427,2.31565
			c-0.54834,0.66512-1.24643,1.20564-1.8075,1.86179c-0.50574,0.59138-0.93808,1.25034-1.3609,1.90646
			c-0.46658,0.72399-0.84314,1.50842-1.33676,2.21188c-0.5126,0.73051-1.12112,1.39342-1.68228,2.09023
			c-0.29401,0.36507-0.57501,0.74059-0.86453,1.10928c-0.32205,0.41009-0.68475,0.79393-0.96255,1.23182
			c-0.47791,0.75327-0.8775,1.55642-1.35898,2.3072c-0.46585,0.72642-1.0079,1.40352-1.49118,2.11936
			c-1.16739,1.72916-2.31503,3.47163-3.48328,5.20021c-0.20053,0.29672-0.48636,0.5353-0.6918,0.82937
			c-0.27728,0.39692-0.49796,0.83321-0.77252,1.23225c-1.12485,1.63468-2.25964,3.2625-3.39456,4.89021
			c-0.12619,0.18098-0.27975,0.34263-0.41467,0.51784c-0.17017,0.22102-0.41888,0.42448-0.48474,0.67474
			c-0.18231,0.69256-0.57523,1.25428-0.93628,1.85238c-0.58954,0.97665-1.09802,2.00254-1.63327,3.01159
			c-0.83731,1.57838-1.67468,3.15678-2.50012,4.74137c-0.6315,1.21228-1.26059,2.42633-1.86127,3.65401
			c-0.5929,1.2119-1.36716,2.30302-2.14621,3.39552c-0.4693,0.65817-0.8797,1.35851-1.35202,2.01438
			c-0.45432,0.63091-0.95169,1.23102-1.4357,1.84024c-0.17352,0.21835-0.37534,0.41469-0.54327,0.6369
			c-0.62167,0.82254-1.22708,1.65744-1.85336,2.47643c-0.45819,0.59915-0.94089,1.17957-1.41028,1.77025
			c-0.39243,0.49385-0.8071,0.98445-1.52856,0.79236c-0.79083-0.21059-1.43506-1.01091-1.47549-1.76247
			c-0.01044-0.19405-0.00894-0.39793,0.03845-0.58426c0.19983-0.7861,0.34521-1.59718,0.64755-2.34364
			c0.52286-1.29088,1.15863-2.53551,1.7254-3.80918c0.3963-0.89056,0.73251-1.80818,1.1387-2.69393
			c0.56696-1.23645,1.207-2.43999,1.75452-3.68459c0.50574-1.14971,0.92471-2.33736,1.39331-3.50369
			c0.3313-0.82468,0.66736-1.64799,1.02621-2.46092c0.93643-2.12142,1.88437-4.23779,2.83231-6.35411
			c0.42154-0.94116,0.96591-1.84389,1.25909-2.8226c0.63425-2.11744,1.7778-4.03602,2.29117-6.20275
			c0.26141-1.10339,0.80142-2.13813,1.16791-3.22003c0.35678-1.05321,0.65616-2.12599,0.97461-3.19199
			c0.29526-0.98817,0.58304-1.97856,0.87256-2.96841c0.03696-0.12643,0.06454-0.25562,0.12207-0.48601
			c-0.69836,0.15159-1.17551,0.50791-1.59116,0.93261c-0.86041,0.87912-1.70322,1.77609-2.53525,2.68224
			c-1.33899,1.45821-2.65076,2.94154-3.99741,4.39253c-1.49823,1.6143-3.0127,3.21339-4.70911,4.62849
			c-0.42874,0.35764-0.83441,0.75163-1.20303,1.1708c-0.879,0.99945-1.90216,1.78883-3.09586,2.38594
			c-0.49252,0.24636-0.96335,0.59346-1.3475,0.98861c-1.28641,1.32327-2.75729,2.35761-4.44012,3.11469
			c-1.29599,0.58303-2.45132,1.47125-3.87057,1.78902c-0.85922,0.19235-1.67902,0.52264-2.6156,0.3185
			c-0.65253-0.14223-1.2753,0.17443-1.71133,0.70604c-0.79691,0.97157-1.55972,1.97109-2.35568,2.94348
			c-0.24152,0.29504-0.53775,0.54761-0.82324,0.80367c-0.20749,0.18614-0.47223,0.31641-0.65356,0.5225
			c-0.99258,1.12818-1.93353,2.30366-2.95807,3.40137c-0.94846,1.01613-1.9472,1.99129-2.98242,2.91908
			c-1.53723,1.37775-3.12689,2.69693-4.69278,4.04276c-1.05847,0.90972-2.14185,1.79304-3.1604,2.74558
			c-0.54562,0.51025-1.20563,0.86969-1.5672,1.64433c-0.30234,0.64772-1.0209,1.10184-1.51309,1.68546
			c-0.17877,0.21198-0.53531,0.28802-0.82318,0.39153c-1.18094,0.42461-2.34085,0.96399-3.5592,1.2097
			c-0.90347,0.18222-1.88943,0.02231-2.83112-0.06592c-1.90964-0.17894-3.64044-0.86227-5.15942-2.03783
			c-0.46143-0.35709-0.83545-0.82784-1.2998-1.18018c-1.08459-0.82297-1.95551-1.81873-2.63626-2.99392
			c-0.10767-0.18584-0.3298-0.30152-0.46799-0.47442c-0.20749-0.2597-0.43695-0.5193-0.56989-0.81777
			c-0.37445-0.84053-0.76154-1.68283-1.03787-2.55783c-0.37604-1.19074-0.6618-2.41045-0.96991-3.6219
			c-0.10754-0.42294-0.16641-0.85824-0.2547-1.32593c-0.67358,0.11465-0.86023,0.62067-1.14957,1.00583
			c-0.14955,0.19908-0.2406,0.45097-0.41454,0.62136c-0.79787,0.78165-1.61839,1.54013-2.425,2.31297
			c-0.30278,0.29008-0.64964,0.55798-0.87216,0.9032c-0.54044,0.83849-1.32553,1.40672-2.05116,2.0529
			c-1.10638,0.98529-2.11377,2.0843-3.24307,3.04069c-1.59647,1.35204-3.25456,2.63263-4.91522,3.90608
			c-0.26712,0.20482-0.67938,0.27406-1.03313,0.30368c-2.86203,0.23961-5.49794-0.27122-7.78076-2.19022
			c-0.89345-0.75101-1.66803-1.54341-2.24355-2.55891c-1.50562-2.65667-1.82715-5.52586-1.59651-8.50234
			c0.08646-1.11572,0.15579-2.23409,0.29022-3.34431c0.0905-0.74764,0.25369-1.48993,0.43295-2.22269
			c0.46886-1.91649,0.63905-3.90618,1.6965-5.67155c0.54695-0.91315,0.89758-1.97494,1.17351-3.01301
			c0.58502-2.20098,1.48022-4.275,2.44881-6.31697c0.99323-2.09396,2.16095-4.10757,3.09853-6.22449
			c0.47859-1.08057,1.14337-2.02885,1.69374-3.05324c0.47408-0.88232,1.0522-1.70876,1.52536-2.59151
			c0.6447-1.20279,1.22305-2.44096,1.851-3.65301c0.26869-0.51865,0.53098-1.05935,0.90027-1.50349
			c0.90892-1.09313,1.15233-2.47472,1.65181-3.73237c0.60434-1.52165,1.0947-3.11087,1.42055-4.71429
			c0.29984-1.47529,0.3205-3.01595-0.69255-4.31953c-0.19093-0.24574-0.48895-0.48114-0.78094-0.55932
			c-0.506-0.13548-1.04716-0.20484-1.57132-0.19369c-1.08865,0.02319-2.1543,0.2414-3.19868,0.55051
			c-0.13159,0.03895-0.2601,0.10303-0.37637,0.17697c-0.96294,0.61248-1.96507,1.1742-2.87091,1.8624
			c-0.83679,0.63577-1.56963,1.40842-2.34764,2.12147c-0.34702,0.31799-0.70055,0.62944-1.03694,0.95837
			c-0.55518,0.54296-1.10475,1.09196-1.64629,1.64853c-1.36357,1.40151-2.73708,2.79401-4.07047,4.22379
			c-0.33565,0.3599-0.56044,0.83342-0.7925,1.27754c-0.48882,0.93562-1.37521,1.53367-1.97699,2.35696
			c-0.90126,1.23303-1.68248,2.55381-2.51509,3.83703c-0.50235,0.77419-1.01166,1.54395-1.50557,2.32345
			c-0.26683,0.42116-0.50479,0.86047-0.76201,1.28785c-0.11307,0.18785-0.23416,0.37203-0.36604,0.547
			c-0.08334,0.1106-0.22096,0.18559-0.287,0.3031c-0.44943,0.79999-0.86583,1.61922-1.33426,2.40768
			c-0.33441,0.56289-0.75104,1.07648-1.09586,1.63379c-0.16992,0.27464-0.2347,0.61253-0.39093,0.89775
			c-0.70956,1.29531-1.46451,2.5667-2.14079,3.87883c-0.30373,0.58926-0.40855,1.27921-0.69688,1.87859
			c-0.51959,1.08033-1.12085,2.12106-1.66527,3.18992c-0.2903,0.57-0.5168,1.17226-0.80006,1.74612
			c-0.84021,1.70206-1.77531,3.36276-2.51791,5.10585c-0.61983,1.45492-1.51024,2.72952-2.28572,4.08264
			c-0.56833,0.99171-1.02025,2.05412-1.47375,3.1067c-0.60469,1.40343-1.21402,2.80941-1.71304,4.25179
			c-0.22105,0.63895-0.28305,1.37818-0.22951,2.05708c0.09892,1.25426-0.28368,2.04022-1.29634,2.74782
			c-0.58018,0.40536-1.01601,1.02211-1.49983,1.55899c-0.35332,0.39204-0.69212,0.79898-1.01308,1.21793
			c-0.30589,0.39922-0.60208,0.8093-0.86356,1.23836c-0.39996,0.65622-0.90277,1.20712-1.52893,1.64859
			c-0.71701,0.50554-1.46722,0.34409-1.7643-0.46846c-0.1911-0.52274-0.50571-0.73756-1.00119-0.88141
			c-0.9828-0.28534-1.54443-1.00497-1.54259-2.04005c0.00101-0.57249,0.11212-1.15932,0.26692-1.71362
			c0.23119-0.828,0.52116-1.64217,0.83246-2.44424c0.16992-0.43778,0.4436-0.83435,0.65439-1.25752
			c0.136-0.27296,0.3269-0.55447,0.34734-0.84249c0.06686-0.94352,0.51619-1.68247,1.06064-2.41698
			c0.44463-0.59988,0.77336-1.28487,1.16405-1.92567c0.46373-0.7606,0.96231-1.50095,1.40089-2.2755
			c0.3141-0.5547,0.52682-1.16625,0.83304-1.72606c0.70813-1.29459,1.46625-2.56211,2.16194-3.86316
			c0.31384-0.58691,0.52811-1.2272,0.78566-1.84406c0.72125-1.72752,1.54482-3.42125,2.13185-5.19331
			c0.53726-1.62182,1.37315-3.09485,1.99684-4.66624c0.61873-1.55891,1.15929-3.14869,1.76585-4.71262
			c0.76765-1.97933,1.53444-3.96025,2.36461-5.91368c0.57747-1.35878,1.32147-2.64774,1.87991-4.01337
			c0.53801-1.31573,0.95348-2.68341,1.38655-4.03983c0.6299-1.97275,1.31425-3.93437,1.81085-5.94146
			c0.39076-1.57925,0.87605-3.18935,0.59099-4.85384c-0.33301-1.94461-0.77834-2.9124-2.73903-3.60059
			c-1.8744-0.6579-3.16452,0.13769-4.43565,1.2957c-0.32256,0.29387-0.7117,0.51509-1.07248,0.76647
			c-0.61234,0.42662-1.25389,0.81667-1.83316,1.28405c-0.80269,0.6477-1.56194,1.34954-2.33441,2.03428
			c-0.60606,0.53729-1.2373,1.05161-1.7982,1.63318c-1.02527,1.06307-2.00938,2.16599-3.00287,3.25938
			c-0.10936,0.12035-0.15576,0.29559-0.25215,0.43052c-0.40453,0.56622-0.81551,1.12789-1.22801,1.68834
			c-0.06567,0.08926-0.19019,0.15091-0.22194,0.247c-0.43594,1.31931-1.62862,2.11472-2.27103,3.27601
			c-0.6557,1.18539-1.70781,2.15144-1.96265,3.56705c-0.05586,0.31034-0.27852,0.61077-0.48148,0.87128
			c-1.42809,1.83307-2.69487,3.78828-3.67738,5.8751c-0.81027,1.72098-2.06279,3.11708-2.97536,4.74474
			c-0.38084,0.67921-0.68739,1.39967-1.05554,2.08644c-0.64597,1.20499-1.36078,2.3755-1.95654,3.60419
			c-0.45993,0.94856-0.86314,1.94158-1.14351,2.95578c-0.3228,1.16751-0.76961,2.26233-1.29076,3.35252
			c-0.57568,1.20433-0.99289,2.48466-1.47322,3.73416c-0.17056,0.4436-0.30772,0.90044-0.48787,1.33986
			c-0.59331,1.44704-1.21881,2.88113-1.79572,4.33459c-0.78107,1.96787-1.51759,3.95342-2.29608,5.92237
			c-0.31349,0.79294-0.81325,1.45782-1.52626,1.95664c-0.24847,0.17381-0.50252,0.38499-0.65785,0.63814
			c-0.4704,0.7666-1.28606,1.19751-1.76994,1.9866c-0.37074,0.6046-1.12537,0.97188-1.70247,1.45287
			c-0.23557,0.19626-0.44646,0.42189-0.68021,0.62047c-0.48831,0.41476-0.95148,0.27742-1.16544-0.31583
			c-0.54996-1.52515-0.38469-3.08911-0.33745-4.66188c0.04582-1.52464,0.83366-2.77321,1.35921-4.10871
			c0.92746-2.35696,2.0164-4.64991,2.9973-6.98663c0.24641-0.58699,0.31055-1.24776,0.50868-1.85831
			c0.33604-1.03542,0.73546-2.05041,1.06566-3.08754c0.50797-1.59561,0.93147-3.21962,1.48329-4.79929
			c0.40372-1.15583,0.93718-2.26836,1.44621-3.38501c0.88077-1.93221,1.82149-3.83782,2.66782-5.78471
			c0.38615-0.8882,0.60382-1.84925,0.90405-2.77525c0.46445-1.43236,0.95976-2.85531,1.39262-4.29707
			c0.28917-0.96322,0.50092-1.95025,0.7276-2.93119c0.04637-0.20063,0.00465-0.42159,0.00325-0.69259
			c-1.36685,1.36328-2.09424,3.01497-2.81775,4.66902c-0.64429,1.47284-1.59764,2.74652-2.6194,3.9659
			c-0.54265,0.64764-1.03615,1.30003-1.37273,2.08806c-0.87463,2.0479-2.07513,3.89719-3.62032,5.50364
			c-1.05188,1.09355-1.806,2.37984-2.25311,3.78994c-0.45256,1.42731-1.39244,2.46826-2.33356,3.52249
			c-1.01135,1.13284-1.91331,2.321-2.49905,3.73183c-0.07372,0.17751-0.17157,0.35338-0.29312,0.50126
			c-0.70549,0.85797-1.42407,1.70518-2.13109,2.56189c-0.10509,0.12733-0.20291,0.27582-0.25298,0.43101
			c-0.56531,1.75317-1.82626,3.02013-2.98961,4.36604c-0.61836,0.71548-1.11761,1.53268-1.69453,2.28568
			c-0.55791,0.72826-1.24811,1.37524-1.696,2.16271c-0.56975,1.00184-1.39995,1.78785-2.01549,2.74134
			c-0.0882,0.13664-0.21819,0.25287-0.34717,0.35556c-0.87242,0.69478-1.82741,1.3064-2.60687,2.09245
			c-1.10408,1.11348-2.40141,1.68182-3.92004,1.85149c-0.22229,0.02484-0.44308,0.06609-0.66312,0.10765
			c-1.12689,0.21295-2.11896-0.04369-3.10864-0.64877c-0.77187-0.47195-1.47397-1.00003-2.13919-1.5985
			c-0.48787-0.43886-0.8826-0.91568-1.01132-1.59378c-0.06644-0.35014-0.27934-0.66975-0.38907-1.01491
			c-0.52203-1.64194-0.73064-3.31161-0.4978-5.03539c0.16347-1.21078,0.18456-2.44361,0.39581-3.64433
			c0.22585-1.28374,0.59973-2.54147,0.91013-3.81027c0.11867-0.48526,0.15533-1.01328,0.37685-1.44638
			c0.6449-1.26048,0.94048-2.61805,1.31384-3.9656c0.42451-1.53222,0.87154-3.05476,1.21214-4.61019
			c0.13493-0.61627,0.45424-1.19221,0.69031-1.78622c0.01021-0.02579,0.033-0.04732,0.04018-0.07348
			c0.269-0.98151,0.53685-1.96331,0.74867-2.97362c-0.97517,0.88445-1.85161,1.83395-2.48851,2.98067
			c-0.22966,0.41347-0.42018,0.8485-0.64502,1.26479c-0.54623,1.01154-1.23788,1.90842-1.99944,2.77608
			c-0.69371,0.79041-1.22395,1.72598-1.81059,2.60797c-0.23103,0.34735-0.38466,0.74928-0.6342,1.08067
			c-0.75478,1.00233-1.55574,1.97006-2.30487,2.97644c-0.3479,0.46733-0.59761,1.00654-0.92696,1.48914
			c-0.67728,0.99242-1.36464,1.97871-2.07555,2.94716c-0.32732,0.44589-0.7435,0.8261-1.0761,1.2686
			c-0.33374,0.44389-0.60858,0.93162-0.91817,1.39415c-0.89592,1.33837-1.68997,2.73917-2.95858,3.81087
			c-0.60278,0.50922-1.06763,1.22974-1.45808,1.93078c-0.53638,0.96323-1.33497,1.62938-2.1646,2.295
			c-0.60892,0.48862-1.21004,0.99178-1.77305,1.5318c-0.81507,0.78183-1.75423,1.24879-2.88187,1.04974
			c-0.64308-0.11349-1.31129-0.33817-1.85723-0.6866c-0.74781-0.47731-1.39113-1.11868-2.07679-1.69269
			c-0.08482-0.07097-0.1702-0.15002-0.22884-0.24219c-0.95079-1.49306-1.80598-3.02047-2.0714-4.81725
			c-0.13807-0.93501-0.39198-1.85268-0.58534-2.77992c-0.04543-0.21784-0.08437-0.44317-0.08026-0.66421
			c0.02258-1.22398,0.06039-2.44769,0.08865-3.67157c0.0018-0.07917-0.03318-0.15919-0.0855-0.39278
			c-0.19393,0.2825-0.35625,0.4561-0.4464,0.66139c-0.35825,0.81518-0.98048,1.41103-1.59818,2.01987
			c-1.21333,1.19598-2.45367,2.36879-3.60418,3.62332c-1.56503,1.70663-3.05557,3.48163-4.58121,5.22449
			c-0.10921,0.12473-0.2273,0.26033-0.37051,0.33366c-1.12403,0.57539-1.99569,1.51149-3.06825,2.14772
			c-0.5894,0.34956-1.25358,0.6241-1.9972,0.48605c-0.30087-0.05585-0.617-0.08763-0.92027-0.06129
			c-1.03432,0.08978-1.96104-0.27298-2.92934-0.55554c-1.30609-0.38116-2.17575-1.32611-3.16227-2.12842
			c-0.49648-0.40376-1.007-0.82498-1.38378-1.33281c-0.52763-0.71103-1.00523-1.47829-1.37766-2.28028
			c-0.41989-0.90422-0.64284-1.89912-1.05294-2.80882c-0.63358-1.40537-0.5936-2.95354-1.03266-4.39551
			c-0.04761-0.15648-0.04713-0.33408-0.03823-0.50023c0.05643-1.05478,0.12115-2.10912,0.18422-3.16353
			c0.00665-0.11166,0.03447-0.22379,0.02795-0.33424c-0.15104-2.54603,0.35372-5.01067,0.92426-7.46693
			c0.56351-2.426,1.14214-4.84714,2.01093-7.18901c0.1436-0.38712,0.10856-0.84228,0.26105-1.22404
			c0.58727-1.47009,1.23843-2.91467,1.82374-4.3855c0.39237-0.98599,0.73003-1.99483,1.06334-3.003
			c0.46571-1.40842,0.89133-2.83008,1.35837-4.23804c0.47604-1.43494,1.04516-2.81993,1.8541-4.11907
			c0.70606-1.13383,1.23593-2.37713,1.84834-3.56966c0.25494-0.49649,0.52641-0.98448,0.78283-1.48028
			c0.8079-1.5619,1.58784-3.13884,2.42712-4.68365c0.4792-0.88203,1.05173-1.71342,1.58463-2.56615
			c0.07389-0.11819,0.2086-0.21777,0.23528-0.34303c0.23124-1.08302,1.04605-1.82108,1.57653-2.72614
			c0.13053-0.22276,0.25432-0.52828,0.20713-0.76032c-0.10548-0.51826-0.62022-0.66851-1.14597-0.40886
			c-0.5488,0.27106-1.11236,0.5139-1.6513,0.80299c-1.21481,0.65164-2.25897,1.50624-3.17639,2.54809
			c-0.62383,0.7084-1.36268,1.32172-2.08788,1.93269c-0.61835,0.52101-1.33339,0.93136-1.9274,1.47598
			c-0.6343,0.58153-1.15619,1.28358-1.7638,1.8967c-1.21776,1.22874-2.46428,2.42897-3.69005,3.64982
			c-0.27575,0.27462-0.51151,0.58897-0.77224,0.87912c-0.89484,0.99573-1.79079,1.98711-2.41887,3.18916
			c-0.15097,0.28881-0.41219,0.52382-0.63887,0.76859c-0.9881,1.06683-1.99261,2.11868-2.96835,3.19662
			c-0.3345,0.36947-0.60744,0.79553-0.89942,1.20226c-0.53766,0.74878-1.01569,1.54759-1.61236,2.24536
			c-1.64462,1.92315-3.00248,4.01257-4.09479,6.30054c-0.48824,1.02261-1.19816,1.95242-1.88895,2.86245
			c-1.22569,1.61477-2.12851,3.38817-2.9321,5.24201c-0.62061,1.43182-1.40093,2.80082-2.18825,4.15229
			c-0.91772,1.57539-1.72268,3.18278-2.14097,4.97211c-0.09064,0.38778-0.37961,0.72569-0.54959,1.09914
			c-0.36834,0.80947-0.72395,1.62488-1.07159,2.44347c-0.06367,0.14977-0.01793,0.35699-0.10237,0.48528
			c-0.94403,1.43507-1.28425,3.14275-2.10054,4.63043c-0.46387,0.84559-0.8892,1.67673-0.82798,2.68237
			c0.00992,0.16309-0.15429,0.34481-0.25756,0.50527c-0.34712,0.53921-0.69329,1.07957-1.06042,1.60509
			c-0.15635,0.22382-0.37677,0.40179-0.54585,0.61803c-0.87649,1.12082-1.74531,2.24767-2.61792,3.37155
			c-0.37251,0.47986-0.72815,0.97469-1.12722,1.43149c-0.3927,0.44948-1.19899,0.23447-1.31949-0.36789
			c-0.08631-0.43088-0.11531-0.89923-0.04513-1.3306c0.22945-1.4119,0.75429-2.7307,1.34248-4.03109
			c0.2847-0.62939,0.51354-1.29825,0.66102-1.97257c0.30599-1.3993,0.89222-2.69041,1.41502-4.0088
			c0.27623-0.6968,0.50679-1.41164,0.7608-2.11733c0.46355-1.28805,0.9958-2.55586,1.37983-3.86713
			c0.77715-2.65348,1.80363-5.23549,2.31075-7.96732c0.0355-0.19118,0.08229-0.39011,0.17213-0.55987
			c0.97552-1.84299,1.51899-3.84426,2.14442-5.81548c0.35402-1.11567,0.71025-2.23071,1.05074-3.35052
			c0.08633-0.28396,0.11646-0.585,0.19551-0.99927c-0.68734,0.31245-1.18129,0.61626-1.46417,1.20078
			c-0.43779,0.90471-0.94552,1.77927-1.32843,2.70592c-0.4421,1.07007-1.23244,1.86281-1.96912,2.69724
			c-1.06403,1.20501-1.85926,2.58157-2.6951,3.94012c-0.58171,0.94559-1.26846,1.82793-1.92896,2.72323
			c-0.41221,0.5587-0.89969,1.06407-1.28805,1.63763c-0.6088,0.8993-1.23363,1.80021-1.71925,2.76693
			c-0.48481,0.965-1.17219,1.74251-1.85767,2.54751c-0.73872,0.86777-1.38133,1.81667-2.10178,2.70092
			c-1.7804,2.18523-3.46615,4.4557-5.52417,6.39823c-1.05326,0.99411-2.14663,1.94786-3.25409,2.88167
			c-1.23798,1.04384-2.5104,2.04683-3.77357,3.06047c-0.14247,0.11433-0.31771,0.24995-0.48494,0.26035
			c-0.67035,0.0417-1.23478,0.30722-1.76602,0.69524c-0.71993,0.52579-1.53831,0.70985-2.42393,0.83275
			c-1.75983,0.24419-3.51164,0.24489-5.26215,0.05479c-0.93522-0.10158-1.85141-0.37283-2.77852-0.55583
			c-0.5749-0.11348-1.15631-0.19406-1.73076-0.30959c-0.5572-0.11205-1.0396-0.3445-1.46312-0.76097
			c-0.33109-0.32561-0.78333-0.52707-1.17808-0.78911c-0.80941-0.53729-1.63365-1.05463-2.41693-1.62779
			c-0.37837-0.27689-0.66705-0.67323-1.01491-0.99542c-1.40208-1.29855-2.64734-2.73289-3.66175-4.35136
			c-0.82925-1.32301-1.69651-2.62141-2.10378-4.178c-0.19337-0.73904-0.6672-1.40565-1.0207-2.10168
			c-0.85585-1.68514-1.16078-3.5579-1.81702-5.30362c-0.35824-0.95315-0.51685-1.93114-0.66095-2.88812
			c-0.3828-2.54295-1.28578-4.98749-1.33406-7.59534c-0.02944-1.58858-0.274-3.1721-0.37499-4.76088
			c-0.06183-0.97237-0.03649-1.95036-0.04595-2.92587c-0.00161-0.16762,0.0502-0.34045,0.02432-0.50242
			c-0.33869-2.12051,0.34891-4.16856,0.4665-6.25848c0.07749-1.37758,0.55038-2.73212,0.83696-4.09892
			c0.30941-1.4756,0.59556-2.95615,0.91426-4.4297c0.53738-2.48505,0.89396-5.01126,1.95372-7.36902
			c0.39308-0.87458,0.44989-1.89397,0.76508-2.81123c0.58981-1.71657,1.20131-3.42997,1.90639-5.10143
			c0.69392-1.64507,1.47825-3.25531,2.29142-4.84581c0.73417-1.43604,1.56856-2.82059,2.34187-4.23703
			c0.21251-0.38919,0.36224-0.81242,0.54556-1.21786c0.07906-0.17476,0.15139-0.35703,0.25916-0.51359
			c0.72711-1.05671,1.47646-2.09833,2.19158-3.16301c0.57462-0.8555,1.09227-1.74932,1.66908-2.60326
			c0.85692-1.26857,1.7217-2.53301,2.62378-3.76959c0.9549-1.30892,1.9731-2.55685,3.20207-3.64226
			c0.91498-0.8081,1.6489-1.81736,2.51273-2.68818c1.00423-1.01242,2.06041-1.97343,3.09748-2.95313
			c0.83017-0.78425,1.61743-1.62389,2.51045-2.32919c1.1368-0.89786,2.34429-1.71043,3.55376-2.51062
			c0.73987-0.4895,1.52542-0.91728,2.31879-1.31638c0.72021-0.36224,1.47775-0.65056,2.22081-0.96681
			c0.42955-0.18283,0.87654-0.3297,1.29187-0.53984c0.81056-0.41014,1.66003-0.64787,2.56152-0.75592
			c0.49206-0.05897,0.96885-0.2368,1.45699-0.33992c0.29434-0.06218,0.60086-0.13491,0.89564-0.11421
			c0.8931,0.06272,1.79559,0.10554,2.67046,0.27769c0.70311,0.13837,1.41789,0.36784,2.04605,0.70747
			c1.59665,0.8632,3.17016,1.77462,4.71144,2.73337c2.17873,1.35531,3.95499,3.19927,5.75386,4.99444
			c0.94613,0.94415,1.7256,2.05689,2.56537,3.10551c0.80172,1.00104,1.58573,2.01637,2.37322,3.02876
			c0.12002,0.15428,0.22192,0.32354,0.32365,0.49104c0.54282,0.89364,0.48361,1.33247-0.33348,2.01836
			c-0.81214,0.68178-1.63522,1.35253-2.4803,1.99269c-1.36005,1.03023-2.81561,1.25796-4.40571,0.5094
			c-0.59012-0.27779-1.24924-0.40562-1.86468-0.63467c-0.30721-0.11435-0.63353-0.25139-0.87053-0.46688
			c-0.82393-0.74931-1.62546-1.52461-2.4113-2.31418c-0.84778-0.85184-1.6192-1.77309-2.63944-2.45192
			c-0.55022-0.36613-0.9673-0.92595-1.48782-1.34442c-1.37167-1.10268-2.80841-2.10522-4.3561-2.96163
			c-1.06316-0.58834-2.1978-0.94147-3.32313-1.35032c-1.35285-0.49149-2.7043-0.26459-4.06176-0.08564
			c-1.20809,0.15926-2.30917,0.65498-3.42284,1.10625c-1.96791,0.79737-3.71414,1.96766-5.27475,3.37946
			c-0.77175,0.69816-1.46909,1.48598-2.04241,2.41016c-0.95498,1.53941-2.13277,2.93892-3.18048,4.42295
			c-0.88614,1.25514-1.72373,2.54465-2.57728,3.82268c-0.55965,0.83788-1.11789,1.67696-1.65938,2.52659
			c-0.22469,0.35254-0.40675,0.73256-0.60314,1.10276c-0.09155,0.17258-0.14586,0.3702-0.25996,0.52478
			c-1.56136,2.11443-2.44044,4.56836-3.47144,6.94689c-0.15577,0.35939-0.35764,0.70258-0.47805,1.07281
			c-0.41383,1.27264-0.79572,2.55559-1.20169,3.83083c-0.10979,0.34487-0.25443,0.67944-0.39589,1.01331
			c-0.34864,0.82311-0.7063,1.63214-0.75035,2.55604c-0.0579,1.21352-0.48429,2.34377-0.92638,3.46348
			c-0.08193,0.20735-0.18628,0.42935-0.18315,0.64315c0.03113,2.10462-0.80593,4.03463-1.26678,6.03153
			c-0.42038,1.82125-0.61131,3.6786-1.05717,5.49521c-0.22556,0.91902-0.01957,1.94505-0.00008,2.92252
			c0.00606,0.30497,0.10261,0.62035,0.05117,0.91218c-0.24599,1.39544-0.16341,2.77564-0.00096,4.17635
			c0.15433,1.33051,0.08256,2.68637,0.21691,4.02034c0.12288,1.22014,0.38679,2.42621,0.59202,3.63787
			c0.09271,0.54743,0.30313,1.10002,0.27038,1.63873c-0.08705,1.43331,0.54833,2.6717,0.93193,3.97911
			c0.40889,1.39368,0.79905,2.79364,1.24797,4.17442c0.18752,0.57689,0.51454,1.10737,0.76186,1.66613
			c0.36031,0.81407,0.66923,1.65313,1.06867,2.44698c0.35983,0.7152,0.8041,1.38883,1.2269,2.07104
			c0.20534,0.33129,0.48361,0.62068,0.66482,0.96294c0.59376,1.12135,1.391,2.0505,2.29319,2.95258
			c0.96413,0.96403,2.13766,1.62084,3.13235,2.51743c1.0269,0.92556,2.30361,1.21366,3.60717,1.43809
			c0.13728,0.02364,0.28722-0.00256,0.41663,0.03947c1.9142,0.62181,3.83507,0.14765,5.7433-0.00927
			c0.7272-0.05979,1.50003-0.31985,2.12661-0.69704c1.53089-0.92155,3.04565-1.89061,4.45913-2.98033
			c1.34605-1.03767,2.64033-2.17273,3.80357-3.40965c1.4313-1.52213,2.70073-3.19617,4.04491-4.80054
			c0.91559-1.09274,1.82141-2.19453,2.76517-3.26255c0.76043-0.86061,1.50647-1.71061,1.97535-2.78726
			c0.63288-1.45344,1.69062-2.62886,2.72464-3.80043c0.72852-0.82544,1.31228-1.70644,1.81762-2.6937
			c0.79985-1.56256,1.68779-3.08662,2.86609-4.42883c0.62059-0.70698,1.12582-1.54138,1.55659-2.383
			c0.71613-1.39915,1.51904-2.72948,2.51589-3.94577c1.172-1.43011,2.06557-3.03403,2.93306-4.66086
			c0.6302-1.18166,1.38438-2.29671,2.06784-3.4506c0.38501-0.65002,0.71273-1.33488,1.11339-1.97453
			c0.50106-0.7999,1.01527-1.59649,1.58782-2.34557c0.76704-1.00346,1.19575-2.13213,1.45379-3.34911
			c0.07445-0.35124,0.20108-0.69424,0.33147-1.03027c0.40327-1.03923,0.8347-2.06772,1.22768-3.11073
			c0.55022-1.46011,0.9949-2.966,1.63495-4.38452c0.6124-1.35724,1.05855-2.75602,1.50701-4.16663
			c0.42225-1.32828,0.98882-2.60998,1.44725-3.92772c0.33919-0.97509,0.60052-1.97704,0.90768-2.96355
			c0.41597-1.33586,0.84196-2.66861,1.26579-4.00202c0.04225-0.13285,0.07908-0.27374,0.15221-0.38954
			c1.14706-1.81493,1.75549-3.84296,2.408-5.86497c0.40082-1.24204,1.05383-2.40031,1.5196-3.62436
			c0.644-1.69218,1.19463-3.41973,1.82782-5.11625c1.01632-2.72285,2.0518-5.43884,3.10966-8.1458
			c0.62875-1.60871,1.319-3.19337,1.9731-4.79231c0.08398-0.20538,0.14539-0.42855,0.16904-0.64866
			c0.14954-1.39206,0.8428-2.55522,1.63974-3.63472c1.2632-1.7111,2.62721-3.3458,4.2598-4.73114
			c0.064-0.05431,0.14492-0.10104,0.18421-0.17042c0.67298-1.18687,1.85684-1.83028,2.85923-2.65992
			c0.42396-0.35086,0.93361-0.6347,1.44956-0.82854c0.61907-0.23257,1.26896-0.02563,1.71404,0.39996
			c0.66839,0.63908,1.51288,1.23725,1.32713,2.37592c0.42771,0.59904,0.36244,1.26362,0.23855,1.92747
			c-0.05404,0.2894-0.19234,0.56393-0.23826,0.85379c-0.10406,0.65681-0.19389,1.31725-0.25198,1.9795
			c-0.04143,0.47272,0.01971,0.95683-0.4372,1.29499c-0.0842,0.06228-0.08548,0.25075-0.10511,0.3839
			c-0.08865,0.60338-0.14402,1.21291-0.26025,1.81072c-0.18612,0.95706-0.34582,1.92706-0.63698,2.85381
			c-0.32085,1.02119-0.57007,2.07258-1.23224,2.97744c-0.50797,0.69421-0.76495,1.51656-0.89147,2.40094
			c-0.0913,0.63855-0.42753,1.25121-0.70537,1.85185c-0.45511,0.98404-0.95227,1.94862-1.42944,2.92252
			c-0.0366,0.07478-0.03381,0.17635-0.08428,0.23576c-0.74455,0.87598-0.86337,2.02684-1.33847,3.01883
			c-0.3735,0.77973-0.82169,1.52338-1.22514,2.28913c-0.66284,1.25823-1.31786,2.52061-1.97128,3.78378
			c-0.06352,0.12283-0.11958,0.26083-0.1332,0.3964c-0.11031,1.10417-0.73126,1.97942-1.26586,2.89844
			c-0.74389,1.27875-1.46028,2.57347-2.19228,3.8592c-0.55125,0.9684-1.14243,1.91587-1.65379,2.90472
			c-0.56429,1.09115-1.16576,2.18207-1.56013,3.3382c-0.87659,2.56975-2.13242,4.9025-3.83207,7.01892
			c-1.45884,1.81661-2.55068,3.8454-3.37672,6.03303c-0.38239,1.01261-1.02358,1.9245-1.45971,2.92048
			c-0.72758,1.6616-1.37929,3.35629-2.07391,5.03252c-0.33095,0.79867-0.69399,1.58394-1.0302,2.38049
			c-0.50994,1.20812-1.0107,2.42013-1.51156,3.63208c-0.0853,0.20634-0.14555,0.42296-0.22775,0.63071
			c-0.61509,1.55366-1.22038,3.11136-1.85529,4.65691c-0.29665,0.7223-0.64832,1.42227-0.98307,2.12859
			C72.52525,90.53115,72.26742,90.79987,72.62897,91.33263z M292.49719,111.09474c-1.27661-0.24684-2.31625-0.44653-3.35516-0.64996
			c-0.1907-0.03734-0.3952-0.05653-0.56454-0.14146c-0.7485-0.37531-1.50635-0.7383-2.22443-1.16674
			c-1.9046-1.13646-3.51312-2.55174-4.422-4.65766c-0.22256-0.51571-0.25888-0.94241-0.05496-1.43758
			c0.40128-0.9745,0.73233-1.98205,1.19412-2.92619c0.34988-0.71535,0.86029-1.35176,1.2937-2.02686
			c0.24139-0.3759,0.47351-0.7578,0.70599-1.13934c0.27652-0.45382,0.54233-0.91433,0.82501-1.36423
			c0.29163-0.46403,0.71991-0.60706,1.23581-0.454c1.26401,0.375,2.16159,1.21022,2.8739,2.28782
			c0.35168,0.53198,0.71024,1.06663,1.12714,1.54665c0.76221,0.87758,1.83112,1.21413,2.88373,1.61991
			c1.19632,0.4612,2.43137,0.63922,3.67743,0.79078c0.76184,0.09267,1.17288-0.24606,1.43979-0.98697
			c0.14096-0.39122,0.31989-0.76881,0.48303-1.15198c0.11761-0.2762,0.27313-0.5419,0.34998-0.82882
			c0.30362-1.13387,0.58835-2.27291,0.86966-3.4126c0.29474-1.19391,0.64703-2.37913,0.84915-3.58904
			c0.29425-1.7613,0.50156-3.53855,0.69666-5.31441c0.10663-0.97079,0.15378-1.95285,0.15073-2.9296
			c-0.00284-0.92071-0.06348-1.8465-0.17722-2.76027c-0.14062-1.12988-0.31308-2.2607-0.56168-3.37099
			c-0.29102-1.29973-0.42328-2.64777-1.05237-3.85813c-0.15475-0.29771-0.30389-0.60215-0.41592-0.9176
			c-0.59274-1.66926-1.70721-2.93171-3.10989-3.95408c-0.27692-0.20183-0.66415-0.35474-1.00018-0.35415
			c-1.08774,0.00191-2.09052-0.30395-3.10953-0.62976c-0.68182-0.21799-1.41275-0.32338-2.12964-0.38198
			c-1.5712-0.12842-2.65408,0.88341-3.78668,1.74007c-0.4436,0.33553-0.9458,0.66593-1.23099,1.11858
			c-0.29916,0.4749-0.70804,0.77016-1.10211,1.11588c-0.41708,0.36593-0.87192,0.71105-1.20517,1.14584
			c-0.77509,1.01109-1.47342,2.08056-2.22864,3.10742c-0.60931,0.82845-1.24768,1.63608-1.88925,2.4401
			c-0.54034,0.6771-1.21317,1.27368-1.63422,2.01553c-0.86765,1.52862-1.59155,3.13812-2.40372,4.6992
			c-0.47647,0.9157-0.94379,1.84872-1.54025,2.68475c-0.36679,0.5141-0.63455,1.03714-0.84735,1.61708
			c-0.66415,1.81039-1.44565,3.5649-2.48859,5.19701c-0.20691,0.32383-0.30328,0.71826-0.45078,1.08008
			c-0.49448,1.21342-0.9834,2.42915-1.48544,3.63944c-0.384,0.92571-0.92316,1.81207-1.14847,2.7733
			c-0.44424,1.89515-0.63983,3.8487-1.08716,5.74295c-0.38177,1.61679-0.24597,3.22606-0.20047,4.83611
			c0.04642,1.64346,0.10541,3.29941,0.65555,4.88511c0.28369,0.81776,0.4212,1.70325,0.81042,2.46297
			c0.4534,0.88493,1.04834,1.71846,1.69687,2.47585c0.55673,0.65019,1.26434,1.1749,1.92523,1.73138
			c0.94394,0.7949,2.0943,1.0151,3.27921,1.08202c0.19193,0.01083,3.48816,0.7103,6.22543-1.82883
			c1.0658-0.48302,1.81726-1.64898,2.89194-2.11259c0.25531-0.11015,0.53839-0.2019,0.74173-0.37901
			c1.13638-0.98975,2.3125-1.94465,3.35898-3.02396c1.16422-1.20069,2.23932-2.4939,3.28284-3.80293
			C291.62427,112.73921,291.97452,111.9723,292.49719,111.09474z"/>
		<path class="st1" d="M447.21664,50.74058c-0.68393-0.10879-1.3895-0.14563-2.04666-0.34337
			c-0.96625-0.29075-1.66132-1.0214-2.29941-1.75911c-0.73569-0.85054-1.16129-1.82182-0.91199-3.00806
			c0.07083-0.33716-0.0618-0.71746-0.10321-1.07774c-0.14429-1.25504-0.04153-2.44918,0.74649-3.51554
			c0.20898-0.28281,0.29907-0.65261,0.44946-0.97984c0.15048-0.32735,0.24777-0.70317,0.47418-0.96693
			c0.61343-0.71461,1.29843-1.36728,1.92633-2.07014c0.74896-0.83832,1.79532-1.37095,2.49884-2.19759
			c1.16006-1.36308,2.73148-2.11436,4.11261-3.13467c1.2934-0.95551,3.91718-1.35729,5.45706,0.38869
			c0.64136,0.7272,1.47583,1.31089,2.00153,2.10594c0.55148,0.8341,0.88403,1.81714,1.3638,2.71495
			c0.26303,0.49219,0.19934,1.21162,0.13895,1.81413c-0.18173,1.81245-0.51578,3.58494-1.61957,5.12025
			c-0.54123,0.75279-1.27997,1.22472-2.04315,1.70012c-1.27811,0.79616-2.52982,1.63464-3.79404,2.45314
			c-0.25494,0.16505-0.51529,0.32182-0.7746,0.47998c-0.42755,0.26076-0.88483,0.48248-1.27924,0.78605
			C450.28568,50.19626,448.77167,50.71811,447.21664,50.74058z"/>
	</g>
</g>
</svg>
