<?xml version="1.0" encoding="utf-8"?>
<!-- Generator: Adobe Illustrator 25.4.1, SVG Export Plug-In . SVG Version: 6.00 Build 0)  -->
<svg version="1.1" id="Layer_1" xmlns="http://www.w3.org/2000/svg" xmlns:xlink="http://www.w3.org/1999/xlink" x="0px" y="0px"
	 viewBox="0 0 641.09479 189.40817" style="enable-background:new 0 0 641.09479 189.40817;" xml:space="preserve">
<style type="text/css">
	.st0{fill:#EFEDE5;}
	.st1{fill:#B48039;}
	.st2{fill:#AD8246;}
	.st3{fill:none;stroke:#B48039;stroke-width:0.99892;stroke-miterlimit:10;}
</style>
<g>
	<path class="st1" d="M77.91378,92.42449c0.45106-0.63635,0.95264-1.24331,1.34332-1.91479
		c1.01672-1.74751,2.12011-3.42865,3.46734-4.94189c0.14879-0.16713,0.3259-0.32217,0.42838-0.5154
		c1.35062-2.5474,3.40823-4.57371,5.05521-6.89871c1.23635-1.74532,2.50677-3.42855,4.15533-4.80827
		c0.29188-0.24428,0.51476-0.59441,0.70566-0.93181c0.72928-1.28897,1.73334-2.33326,2.84721-3.28477
		c0.25558-0.21835,0.56179-0.3905,0.77576-0.64244c2.65536-3.12675,6.2262-5.09097,9.46556-7.4753
		c0.90897-0.66904,1.89684-1.17508,2.98081-1.51795c0.90578-0.28648,1.78095-0.66954,2.67063-1.00732
		c1.44357-0.54805,2.60446,0.24728,3.78375,0.84557c0.43414,0.22025,0.46672,0.73086,0.39052,1.20226
		c-0.19968,1.23544-0.70498,2.359-1.28587,3.44984c-1.18585,2.22688-2.30946,4.47874-2.97044,6.92992
		c-0.02915,0.1081-0.05282,0.21985-0.0988,0.32092c-0.88035,1.9342-1.77195,3.8633-2.64345,5.80146
		c-0.59624,1.32601-1.18606,2.65562-1.74178,3.99893c-0.89896,2.173-1.73154,4.37399-2.65807,6.53492
		c-1.14806,2.67759-2.40598,5.3084-3.53558,7.99346c-0.84644,2.01192-1.68451,4.04186-2.30957,6.12868
		c-0.73907,2.46748-1.26725,5.03392-1.08697,7.61326c0.20971,3.00071,0.40467,6.07423,2.13829,8.70438
		c0.76516,1.16088,1.6166,2.30537,2.61623,3.26138c1.36434,1.30482,3.38499,1.95293,5.57449,0.06511
		c2.18831-1.88683,3.91368-4.14745,5.64163-6.41731c0.65072-0.85479,1.26851-1.70634,2.30007-2.14672
		c0.63649-0.27172,0.88465-0.86424,0.98479-1.47881c0.40131-2.46286,1.47897-4.68345,2.40305-6.96408
		c1.11453-2.75067,2.13267-5.54052,3.25436-8.28817c1.28938-3.15842,2.48175-6.35578,4.22304-9.32124
		c1.1314-1.92684,1.98641-4.0137,3.04406-5.98664c1.58847-2.96315,3.31079-5.84756,5.31358-8.55782
		c0.99664-1.34869,1.89195-2.77426,2.92131-4.09637c1.96606-2.52521,4.09074-4.90194,6.80124-6.67779
		c1.76729-1.15791,3.75192-1.75797,5.78217-2.18865c2.30919-0.48992,4.67883-0.73175,7.01974-0.56062
		c3.13452,0.22913,6.18199,0.97374,8.97595,2.51682c0.14679,0.08108,0.28839,0.17347,0.42488,0.27112
		c1.46454,1.04818,1.53156,1.65209,0.18575,2.90116c-1.55853,1.44651-3.16531,2.84181-4.77161,4.23573
		c-0.96938,0.84117-1.96284,0.88844-3.25536,0.49401c-2.71257-0.82775-5.45082-1.73454-8.37666-1.46871
		c-0.66682,0.06059-1.34459,0.0248-2.01631,0.00279c-1.65112-0.05409-3.21999,0.36404-4.78435,0.80948
		c-0.21268,0.06057-0.43553,0.14357-0.6088,0.27523c-1.41718,1.07688-2.96402,1.99667-3.86232,3.65199
		c-0.55516,1.02297-1.21184,2.01015-1.94725,2.91204c-1.65724,2.0324-2.35864,4.57376-3.71988,6.75748
		c-1.51633,2.43252-2.47865,5.12023-3.61615,7.73002c-0.82104,1.88379-1.92241,3.62306-2.39824,5.68337
		c-0.29599,1.28164-1.076,2.45391-1.65655,3.66675c-0.60677,1.26763-1.12745,2.54896-1.3269,3.96471
		c-0.13179,0.93533-0.39286,1.87085-0.72952,2.75549c-1.03499,2.71949-1.38512,5.48346-1.14804,8.40269
		c0.13405,1.65057,0.60625,3.17959,0.97852,4.74828c0.26643,1.12265,1.04745,1.98961,1.9233,2.69318
		c0.73923,0.5938,1.62617,0.733,2.51357,0.20974c0.09654-0.05692,0.20485-0.09801,0.29158-0.16676
		c1.87222-1.48399,3.99527-2.66547,5.4068-4.69905c0.73187-1.05441,1.61267-2.00546,2.42633-3.00311
		c0.42473-0.52079,0.89058-1.01359,1.26694-1.56722c1.10204-1.62111,2.32104-3.15054,3.50861-4.70702
		c1.11505-1.46139,1.98196-3.11112,2.9718-4.66924c1.17044-1.84238,2.3835-3.65834,3.52318-5.51937
		c0.61099-0.99773,1.10863-2.06502,1.65367-3.10287c0.25851-0.49223,0.44443-1.03673,0.77258-1.47585
		c1.82727-2.44508,3.01265-5.23612,4.36136-7.94116c0.9984-2.00244,1.99292-4.00916,3.07248-5.96805
		c0.87177-1.58184,2.23563-2.61429,3.99741-3.09428c1.52585-0.41573,2.76016,0.6256,2.48076,2.14919
		c-0.11993,0.65413-0.38501,1.28173-0.58493,1.92112c-0.45055,1.44078-0.90204,2.88128-1.35214,4.32218
		c-0.16666,0.5335-0.28467,1.08756-0.50381,1.59839c-0.86285,2.01129-1.54829,4.07317-2.08669,6.19848
		c-0.28459,1.1233-0.87157,2.16825-1.29842,3.25782c-0.34543,0.88177-0.69685,1.76488-0.97064,2.67006
		c-0.32365,1.07014-0.55721,2.16719-0.84703,3.24797c-0.40604,1.51403-0.74825,3.05146-1.26091,4.52921
		c-0.8676,2.50086-1.18361,5.12087-1.76678,7.68085c-0.40869,1.79395-0.54465,3.65236-0.75632,5.4873
		c-0.05667,0.4914,0.05875,1.00209,0.08975,1.50426c0.10338,1.67442,1.21043,2.46828,2.64694,2.86507
		c1.40172,0.38718,2.50986-0.18085,3.37634-1.30602c0.3752-0.4872,0.80885-0.92898,1.19365-1.40928
		c0.7681-0.95873,1.52861-1.92381,2.27716-2.89785c0.51175-0.66595,0.99474-1.35397,1.49741-2.02702
		c0.16739-0.22408,0.40627-0.40742,0.5273-0.65159c1.47086-2.96722,3.81516-5.39635,5.17767-8.43351
		c0.29457-0.65659,0.78226-1.22433,1.15489-1.84857c0.80219-1.34387,1.58795-2.69753,2.37866-4.04821
		c0.08482-0.14494,0.13843-0.31155,0.23886-0.44344c2.08537-2.73858,3.28748-5.98438,5.09982-8.88327
		c0.82625-1.32162,1.44534-2.77646,2.1161-4.19091c1.8685-3.94012,3.71994-7.88835,5.56557-11.83924
		c0.35533-0.76069,0.64664-1.55107,0.97931-2.32265c1.37004-3.17769,2.5959-6.42288,4.74324-9.21017
		c0.71315-0.92567,1.25169-1.99035,1.8304-3.01388c0.55736-0.98579,1.36324-1.36705,2.49174-1.3632
		c2.85646,0.00974,5.71321-0.09255,8.56982-0.09087c3.36696,0.00196,6.70293,0.43665,10.02832,0.90612
		c0.80956,0.11428,1.62227,0.4592,2.3481,0.85479c1.1248,0.61302,1.71466,1.60377,1.47824,2.93433
		c-0.14638,0.82404-0.2543,1.68005-0.56865,2.44383c-0.63751,1.54896-1.40735,3.04324-2.11537,4.56346
		c-0.59093,1.26872-1.16882,2.54348-1.7572,3.81339c-1.6707,3.60588-3.19859,7.28798-5.06454,10.78992
		c-1.35356,2.54031-2.46011,5.13683-3.36598,7.85371c-0.34959,1.04852-1.04494,1.97688-1.52065,2.98919
		c-1.06845,2.27358-2.30544,4.4682-2.92525,6.94405c-0.54211,2.16546-1.42003,4.25691-1.83707,6.44073
		c-0.38528,2.01773-0.57539,4.12952-0.4375,6.17195c0.10558,1.56343,0.38976,3.22356,1.43329,4.59144
		c0.49959,0.65487,1.05141,1.19646,1.84517,1.36484c1.68242,0.35686,3.3313,0.37353,4.83878-0.67481
		c1.58217-1.10025,2.86465-2.50563,4.08113-3.97086c1.46469-1.76418,2.98032-3.49404,4.08328-5.53053
		c0.21039-0.38844,0.51855-0.73467,0.82663-1.05746c1.12575-1.17951,2.16623-2.38612,2.62787-4.02458
		c0.15526-0.55103,0.68356-1.00922,1.07922-1.47784c1.01347-1.20039,1.9119-2.45437,2.63628-3.87178
		c0.65506-1.28171,1.57602-2.43992,2.46724-3.58443c0.65602-0.84248,1.3172-1.65182,1.74199-2.65327
		c0.50398-1.18826,1.18898-2.2703,2.08847-3.22751c0.84578-0.90005,1.43054-1.98365,1.98587-3.09812
		c0.77202-1.54941,1.73399-3.003,2.55351-4.53037c0.5802-1.08134,1.07753-2.20882,1.57726-3.33112
		c0.36264-0.81435,0.62546-1.67456,1.00972-2.47752c0.6064-1.2671,1.02727-2.57565,1.39767-3.93675
		c0.60011-2.2053,1.24284-4.43056,2.08141-6.54063c1.02643-2.58261,2.49869-4.99722,4.33191-7.14323
		c0.64011-0.74935,1.49162-1.04751,2.4113-0.91166c2.209,0.32624,4.35049-0.17331,6.50975-0.42792
		c1.78635-0.21067,3.5558-0.28173,5.35701-0.12705c2.2832,0.19609,4.58035,0.27181,6.8728,0.30275
		c1.39001,0.01876,2.6557,0.2559,3.79337,1.1039c0.61652,0.45951,0.88757,1.02441,0.70105,1.74284
		c-0.1958,0.75428-0.42551,1.51167-0.74774,2.21875c-0.64969,1.42568-1.32178,2.84586-2.07574,4.21823
		c-1.31909,2.40102-2.71375,4.7604-4.06421,7.14431c-1.87512,3.3101-4.25229,6.33287-5.74969,9.85468
		c-0.89674,2.10899-1.63901,4.28369-2.44931,6.42935c-0.27676,0.73282-0.54451,1.46909-0.825,2.20045
		c-0.34065,0.88819-0.72806,1.76027-1.02942,2.66133c-1.08212,3.23574-2.17352,6.46928-3.18102,9.7285
		c-0.34471,1.11509-0.38692,2.32064-0.68507,3.45389c-0.40599,1.54274-0.54596,3.09932-0.35446,4.66454
		c0.17616,1.4396,0.43842,2.87531,0.7708,4.28728c0.32462,1.37902,1.31297,2.31409,2.43806,3.09374
		c0.83162,0.57629,1.69377,0.52813,2.51047-0.0355c0.45949-0.31713,0.93254-0.64689,1.29948-1.05981
		c1.11255-1.25202,2.19412-2.53278,3.25519-3.82903c1.8064-2.20671,3.58789-4.43377,5.38004-6.65215
		c0.1759-0.2177,0.35992-0.42912,0.52866-0.65221c0.63898-0.84482,1.33621-1.65373,1.89658-2.54819
		c1.30719-2.0867,3.15555-3.77631,4.29227-5.9934c0.42798-0.83481,1.10461-1.5435,1.67859-2.30157
		c0.30362-0.40101,0.74734-0.73795,0.92538-1.18452c0.68112-1.70844,2.00732-2.95567,3.0285-4.41866
		c0.38361-0.54955,0.76443-1.10133,1.16241-1.64033c0.1619-0.21922,0.32898-0.50456,0.55774-0.59167
		c0.76309-0.29056,1.0838-0.93318,1.41925-1.5835c2.80453-5.43719,6.05167-10.59373,9.79205-15.4374
		c0.17111-0.22154,0.40747-0.42509,0.48944-0.67734c0.34402-1.05849,1.17563-1.72105,1.85657-2.53113
		c1.37619-1.63728,2.9866-3.02516,4.48935-4.52522c0.82678-0.8253,1.6969-1.64732,2.67392-2.27347
		c1.83136-1.17371,3.64301-2.40816,5.76837-3.05386c0.51782-0.15733,1.00519-0.48732,1.44354-0.82079
		c1.6044-1.22044,3.38782-1.67121,5.37207-1.36305c0.11072,0.01718,0.22217,0.0297,0.33347,0.04307
		c3.84525,0.46204,3.83835,0.47182,6.90363,2.62879c0.85001,0.59808,1.40909,1.25188,1.07605,2.38565
		c-0.10483,0.35691-0.09219,0.79842,0.0126,1.15881c0.79282,2.72751,0.13351,5.31344-0.66296,7.90839
		c-0.97498,3.17658-2.42322,6.14303-3.91324,9.09401c-0.32739,0.64837-0.69888,1.25117-1.26401,1.75648
		c-0.49188,0.43978-0.8385,1.0432-1.24393,1.57835c-2.34427,3.09479-5.02075,5.89622-8.03296,8.3175
		c-3.18704,2.56183-6.58789,4.86995-10.35657,6.51591c-1.42093,0.6206-2.99222,0.90862-4.50919,1.29203
		c-0.63739,0.16109-1.24994-0.01908-1.58768-0.65116c-0.31198-0.58386-0.29398-1.19601,0.08603-1.75208
		c0.18777-0.27485,0.44034-0.5057,0.66565-0.75459c0.37549-0.41485,0.84131-0.77734,1.11295-1.2514
		c0.92419-1.61267,2.44193-2.42944,4.04529-3.13065c0.44983-0.1967,0.97162-0.22812,1.45996-0.33746
		c0.98209-0.21989,1.99408-0.35437,2.93851-0.68281c1.32455-0.46066,2.50333-1.14809,3.4649-2.26382
		c2.05338-2.38259,4.03909-4.80429,5.47171-7.62019c1.19501-2.34891,2.23865-4.76553,2.77078-7.36573
		c0.37515-1.83297,0.45996-3.66738-0.12943-5.48131c-0.3595-1.1064-0.65009-1.34268-1.78177-1.43032
		c-0.94849-0.07345-1.8974-0.14193-2.8468-0.2013c-0.22156-0.01385-0.45724-0.02257-0.66742,0.03535
		c-3.58646,0.98822-7.00912,2.23077-9.73599,4.97936c-2.39423,2.41327-4.45856,5.01234-5.86584,8.12028
		c-0.22565,0.49835-0.56885,0.97507-0.95721,1.3619c-0.98499,0.98104-1.56479,2.15733-1.9422,3.47384
		c-0.2153,0.75108-0.43594,1.52676-0.81625,2.19978c-1.40451,2.48565-1.84573,5.26772-2.56616,7.96531
		c-0.24496,0.9171-0.4946,1.83297-0.74048,2.74982c-0.05795,0.21603-0.15305,0.43282-0.15759,0.6508
		c-0.0574,2.73376-0.47131,5.43736-0.0452,8.21101c0.36673,2.38712,0.87027,4.71933,1.62982,6.98528
		c0.7489,2.23432,2.13516,4.14639,4.27179,5.19225c2.3728,1.16149,4.94662,1.45868,7.46841,0.3681
		c2.95572-1.27822,5.5759-3.08136,7.86942-5.35439c0.95395-0.94545,2.08368-1.74706,2.89096-2.80001
		c1.70456-2.22315,3.94949-3.96416,5.47842-6.34425c0.50201-0.78152,1.37723-1.31247,1.98703-2.03765
		c1.65466-1.96772,3.32562-3.92188,4.73602-6.08605c1.4968-2.29678,3.09323-4.5284,4.60275-6.8171
		c0.55173-0.83655,1.00543-1.74191,1.45685-2.63949c0.72955-1.45039,1.3996-2.93073,2.13287-4.37914
		c0.79861-1.57742,2.09695-2.6396,3.74747-3.18215c0.97827-0.32156,1.56543-0.89451,2.12317-1.73875
		c1.88028-2.84624,3.57379-5.83068,5.90503-8.35967c0.91406-1.7912,2.60434-2.90543,3.83041-4.40685
		c1.26157-1.54493,2.60858-2.88628,4.35416-3.84484c0.38235-0.20996,0.70392-0.558,1.00146-0.88919
		c0.57803-0.64325,1.29874-1.0463,2.07138-1.39873c0.60751-0.27715,1.23862-0.54909,1.76636-0.94662
		c2.32709-1.75292,5.00119-1.92615,7.69873-1.54622c2.03876,0.28716,3.97931,1.00985,5.8931,1.87647
		c2.02637,0.91761,3.7254,2.20759,5.29538,3.59348c0.65366-0.07449,0.82977-0.51029,1.00888-0.91563
		c0.47552-1.07611,0.91409-2.16868,1.39612-3.24177c0.73322-1.63218,1.49313-3.25238,2.23691-4.87984
		c0.32568-0.71264,0.72208-1.4061,0.94373-2.15072c0.69141-2.32315,1.85068-4.44008,2.83505-6.63312
		c0.75705-1.68647,1.57297-3.34676,2.37543-5.01254c0.41284-0.85714,0.854-1.70061,1.2811-2.5509
		c0.22614-0.45016,0.49994-0.88392,0.66629-1.3554c1.12268-3.18116,2.70404-6.14541,4.2688-9.11835
		c0.10422-0.19803,0.21008-0.39849,0.28348-0.6089c0.84766-2.43057,1.70981-4.85646,2.51849-7.30001
		c0.21426-0.6475,0.45752-1.24354,0.87491-1.79132c0.50812-0.6669,0.99911-1.35997,1.39359-2.09731
		c0.56848-1.06241,1.38702-1.88269,2.25439-2.68566c1.93777-1.79383,4.09152-3.30597,6.229-4.84032
		c0.27136-0.19477,0.55515-0.39114,0.8623-0.51401c1.45294-0.58126,2.95779,0.42851,2.88071,1.98908
		c-0.08328,1.68491-0.59879,3.29663-1.1301,4.88149c-0.76443,2.28052-1.63019,4.52707-2.4498,6.78921
		c-0.07614,0.21026-0.09344,0.44992-0.20209,0.63923c-1.53281,2.67086-2.57474,5.59006-4.24609,8.19757
		c-1.53854,2.40031-3.08148,4.80621-4.19601,7.4565c-0.40985,0.97445-1.0274,1.86043-1.5336,2.79577
		c-0.8522,1.57463-1.68857,3.15785-2.53748,4.73428c-0.21173,0.39311-0.45871,0.76733-0.66727,1.162
		c-0.67929,1.28547-1.33777,2.58204-2.02597,3.86266c-0.31631,0.58855-0.62891,1.19241-1.03827,1.7148
		c-0.87439,1.11581-1.52292,2.33468-2.01852,3.66014c-0.22961,0.61435-0.57684,1.21202-0.98538,1.72613
		c-0.67084,0.84415-1.16647,1.76474-1.60989,2.74087c-0.48431,1.06601-1.13739,2.05538-1.62024,3.1219
		c-0.75986,1.67819-1.57693,3.35087-2.11145,5.10463c-0.49051,1.60931-0.99582,3.20092-1.66562,4.74189
		c-0.17874,0.41113-0.38373,0.81319-0.53058,1.23546c-1.12128,3.22361-2.24722,6.44578-3.33905,9.67941
		c-0.73404,2.17413-1.42767,4.36219-2.11273,6.55238c-0.23364,0.74692-0.41623,1.51324-0.56931,2.28125
		c-0.34933,1.75275-0.66327,3.51251-0.99692,5.26839c-0.19849,1.04424-0.45758,2.07969-0.60059,3.13116
		c-0.27841,2.047-0.49597,4.10233-0.73386,6.15475c-0.02563,0.22172,0.008,0.45202-0.03125,0.67019
		c-0.64801,3.59894,0.47192,6.89542,1.89233,10.08042c0.48236,1.08154,1.46698,1.96238,2.31058,2.85091
		c0.51935,0.54697,1.27258,0.71302,2.03284,0.52306c2.64099-0.65988,5.10666-1.66988,7.02573-3.69635
		c1.34808-1.42348,2.62952-2.88127,3.4198-4.73404c0.36493-0.85559,1.03693-1.58559,1.60248-2.34824
		c0.36392-0.49073,0.75357-0.97291,1.19492-1.39242c0.35602-0.33839,0.77124-0.66956,1.22214-0.84263
		c1.25363-0.48116,2.55771,0.37605,2.67303,1.71236c0.06909,0.80067-0.07422,1.57807-0.50565,2.2608
		c-0.71707,1.13491-1.43243,2.27499-2.22525,3.35664c-0.66071,0.90134-1.4498,1.70733-2.14999,2.58121
		c-1.74988,2.18388-3.47208,4.38989-5.22314,6.57278c-1.59164,1.98409-3.49213,3.61777-5.68973,4.90257
		c-0.24179,0.1414-0.49667,0.26404-0.72437,0.42522c-2.29343,1.62325-4.82819,1.93465-7.52271,1.40332
		c-1.27307-0.25105-2.25845-0.94267-3.03354-1.96141c-0.54218-0.71262-1.14127-1.38997-1.61163-2.14725
		c-0.67667-1.08935-1.40811-2.18113-1.85492-3.37007c-1.4805-3.93993-1.93442-8.02508-1.52017-12.22428
		c0.40765-4.13179,1.15543-8.20464,1.90543-12.28146c0.33905-1.84308,1.20197-3.49056,1.76505-5.24748
		c0.3035-0.94705,0.59949-1.89648,1.00906-3.19381c-0.52612,0.2909-0.80319,0.35331-0.91779,0.5245
		c-0.34085,0.50943-0.61151,1.06529-0.92111,1.59633c-0.67505,1.15791-1.36334,2.30808-2.03415,3.46844
		c-0.44696,0.77322-0.9841,1.5183-1.28424,2.34718c-0.56204,1.55211-1.44055,2.90004-2.35062,4.25011
		c-0.62341,0.92477-1.15491,1.91158-1.72452,2.87245c-0.22797,0.38457-0.423,0.79096-0.67548,1.15826
		c-2.02942,2.95261-4.06796,5.89895-6.10562,8.84589c-2.22913,3.22392-4.39273,6.4961-6.71231,9.65364
		c-1.80386,2.45564-4.0239,4.57575-6.76111,5.93923c-1.6998,0.84673-3.62109,0.73543-5.31607-0.32549
		c-1.00272-0.62762-1.81198-1.47635-2.45276-2.49536c-2.05045-3.26093-3.40796-6.80717-4.31717-10.52676
		c-0.26379-1.07918-0.40485-2.21946-0.38882-3.32866c0.02414-1.67383,0.20718-3.34786,0.37695-5.01627
		c0.1239-1.21774,0.55975-2.38306,0.504-3.6462c-0.02545-0.57618,0.33304-1.17142,0.52725-1.75472
		c0.30081-0.90314,0.62769-1.7981,0.90381-2.7086c0.07214-0.23784-0.00235-0.5201-0.01453-0.96554
		c-0.33044,0.21261-0.54483,0.28983-0.67099,0.4408c-1.75854,2.10453-3.50583,4.21844-5.25253,6.33286
		c-0.10632,0.12868-0.20615,0.27107-0.27286,0.42293c-1.0097,2.29751-2.87457,3.9812-4.27551,5.99451
		c-1.4516,2.08619-3.26123,3.84733-5.00266,5.64848c-1.86432,1.92825-3.6358,3.94675-5.56119,5.81548
		c-0.27924,0.271-0.61731,0.48151-0.92969,0.71806c-0.89221,0.67575-1.83185,1.29768-2.66824,2.03653
		c-1.71729,1.51714-3.84821,2.26558-5.85306,3.24318c-0.4252,0.20731-0.99786,0.23593-1.48172,0.1767
		c-1.66452-0.20378-3.32303-0.46422-4.97644-0.7462c-0.4335-0.07394-0.8699-0.25191-1.25491-0.47034
		c-3.62015-2.05386-6.30881-4.86826-7.82419-8.85751c-1.76144-4.63705-1.72919-9.43651-1.75394-14.25245
		c-0.00342-0.66148,0.21399-1.32265,0.31042-1.98666c0.061-0.42013,0.08719-0.84532,0.13309-1.30975
		c-0.23138,0.05438-0.38281,0.04326-0.42975,0.10795c-0.95389,1.31438-1.9137,2.62519-2.83539,3.96212
		c-1.04623,1.51751-2.04559,3.06731-3.08542,4.58932c-0.8815,1.29031-1.79715,2.55727-2.68793,3.84132
		c-1.23932,1.78636-2.41281,3.62173-3.71896,5.3575c-1.41006,1.87392-2.44977,4.02551-4.20847,5.63875
		c-0.16345,0.14993-0.33438,0.31689-0.43042,0.51123c-0.89008,1.80093-2.53893,2.80753-4.11847,3.84708
		c-1.51628,0.99791-3.26041,1.10521-5.02727,0.9026c-0.05504-0.0063-0.11363-0.01793-0.1617-0.04364
		c-1.98703-1.06262-3.99319-2.22093-4.89624-4.36856c-1.34253-3.19294-1.59778-6.58572-1.43095-10.05175
		c0.1718-3.56975,1.17978-6.9475,2.01204-10.36933c0.35541-1.4612,0.90761-2.87385,1.3495-4.31494
		c0.27885-0.90936,0.52177-1.82983,0.77449-2.74706c0.05933-0.21532,0.04764-0.46093,0.14571-0.65327
		c1.28023-2.51041,1.83054-5.28438,2.86014-7.88424c1.03117-2.60384,2.11671-5.17364,3.5097-7.62199
		c0.88213-1.55038,1.58725-3.20379,2.59625-4.69077c0.46974-0.69226,0.89763-1.41284,1.34805-2.11833
		c0.24098-0.37746,0.51308-0.73699,0.73073-1.12714c1.17334-2.10332,2.34714-4.20663,3.4888-6.32714
		c0.25241-0.46883,0.67813-0.9133,0.48163-1.64374c-0.34805-0.04749-0.71884-0.14613-1.08804-0.14053
		c-2.07709,0.03158-4.13542-0.13144-6.19743-0.39073c-1.09978-0.13829-2.23579-0.04508-3.35143,0.01646
		c-1.00269,0.0553-1.9978,0.23735-3.00008,0.31299c-0.9137,0.06892-1.62926,0.43941-2.04988,1.25246
		c-0.46217,0.8933-0.94215,1.78996-1.27599,2.73408c-0.46843,1.32472-1.07364,2.55804-1.74033,3.79849
		c-1.21948,2.26904-2.41568,4.53404-3.86032,6.67879c-1.08978,1.61789-2.04398,3.35099-2.85677,5.1252
		c-0.91896,2.00598-2.10379,3.81533-3.39627,5.58112c-0.55885,0.76347-1.00388,1.61062-1.49529,2.42299
		c-0.40558,0.67051-0.79224,1.35264-1.20688,2.0174c-0.79881,1.28058-1.69267,2.50957-2.39622,3.83974
		c-0.73944,1.39799-1.68076,2.64194-2.58937,3.91708c-0.84576,1.187-1.65343,2.38939-2.21669,3.75233
		c-0.25133,0.60812-0.68633,1.14965-1.08644,1.68517c-1.07571,1.4398-2.07272,2.91878-2.78102,4.58552
		c-0.23619,0.55576-0.59125,1.08149-0.97954,1.54807c-0.97122,1.16706-1.80873,2.40369-2.50488,3.76147
		c-0.45322,0.8839-1.14064,1.64833-1.72917,2.46196c-0.42609,0.58898-0.84492,1.18449-1.29829,1.75208
		c-0.48628,0.60876-1.00182,1.19471-1.51891,1.77794c-0.29669,0.33461-0.69102,0.60094-0.92226,0.9722
		c-1.00682,1.61664-2.59593,2.53903-4.25438,3.14755c-2.5218,0.92528-5.14062,0.9734-7.73318-0.00172
		c-2.75291-1.03543-4.09535-3.17155-4.72975-5.87012c-0.49007-2.08463-0.50908-4.1806-0.34891-6.33405
		c0.22208-2.98673,0.98401-5.84055,1.61525-8.73305c0.14333-0.65668,0.36771-1.30019,0.45801-1.96295
		c0.18373-1.34861,0.72278-2.57308,1.15117-3.84655c1.30283-3.87295,3.3074-7.46056,4.52582-11.36473
		c0.24818-0.79524,0.68877-1.52908,1.02017-2.30005c0.57379-1.33474,1.13084-2.67667,1.69679-4.01479
		c0.08722-0.20609,0.17979-0.41023,0.27809-0.61127c0.93318-1.9082,1.89592-3.80251,2.79594-5.72621
		c1.30539-2.79009,2.58339-5.59347,3.83315-8.4089c0.31471-0.70903,0.54085-1.47285,0.69234-2.23444
		c0.14401-0.7239-0.14035-1.08826-0.84831-1.1658c-3.55682-0.38959-7.09738-1.07162-10.70645-0.5461
		c-0.76746,0.11177-1.56296,0.05766-2.34451,0.0386c-0.87508-0.0213-1.50557,0.29159-1.87688,1.12029
		c-1.23413,2.75449-2.87082,5.31972-3.84904,8.19633c-0.1237,0.36369-0.34398,0.69772-0.54132,1.03264
		c-0.70955,1.20415-1.45695,2.38694-2.1358,3.60796c-0.67776,1.21902-1.18799,2.52146-2.0835,3.63072
		c-0.44458,0.5507-0.77243,1.26555-0.93793,1.9576c-0.39174,1.6382-1.30641,2.96683-2.30859,4.24659
		c-0.80424,1.02701-1.39529,2.1459-1.89604,3.34593c-0.40627,0.97366-0.97223,1.88407-1.50412,2.8012
		c-0.78624,1.35578-1.58156,2.70745-2.41655,4.03345c-0.89522,1.42159-1.84569,2.80827-2.76154,4.21703
		c-0.27373,0.42104-0.59904,0.83699-0.74991,1.30399c-0.40509,1.25407-1.12732,2.30692-1.91336,3.33326
		c-0.23793,0.31069-0.48853,0.62134-0.66725,0.96624c-1.57158,3.03302-3.8802,5.62047-5.285,8.7532
		c-0.02287,0.05102-0.04102,0.10925-0.07816,0.14804c-1.98285,2.07193-3.13812,4.77805-5.20584,6.7877
		c-0.39864,0.38744-0.82114,0.80473-1.05899,1.29285c-0.7002,1.43703-1.99738,2.24103-3.18256,3.16389
		c-0.69554,0.5416-1.49287,0.69968-2.38115,0.50844c-2.52168-0.543-4.72237-1.71996-6.72891-3.30441
		c-0.42894-0.3387-0.5856-0.7951-0.65974-1.31133c-0.44133-3.07342-0.48625-6.12814,0.26674-9.17278
		c0.24045-0.97223,0.31396-1.98583,0.46172-2.98083c0.0164-0.11059,0.00417-0.22672,0.02979-0.33445
		c0.59514-2.50362,1.15305-5.01713,1.80743-7.50523c0.371-1.41055,0.85333-2.78951,0.8035-4.27314
		c-0.00858-0.25532-0.07487-0.50873-0.13472-0.89266c-0.7253,0.4313-1.08994,0.99897-1.45343,1.53823
		c-2.15869,3.2027-4.29562,6.42005-6.44032,9.63218c-0.21786,0.32626-0.39256,0.69719-0.66612,0.96767
		c-1.20703,1.19347-2.03191,2.65836-2.98878,4.03513c-1.72357,2.47993-3.53676,4.89759-5.31621,7.33855
		c-0.13078,0.17942-0.25861,0.40665-0.44336,0.49355c-1.10117,0.51778-1.77754,1.51894-2.67191,2.26732
		c-0.85413,0.71471-1.7813,1.36641-2.75063,1.91447c-2.5734,1.45502-6.62095,0.16869-8.13149-2.077
		c-0.6888-1.02402-1.36271-2.05171-1.6818-3.272c-0.43887-1.67838-0.91057-3.34821-1.37312-5.02033
		c-0.05756-0.20811-0.14495-0.40796-0.25919-0.72425c-0.34676,0.12265-0.68433,0.16024-0.91436,0.33743
		c-1.03599,0.79798-1.78062,1.84677-2.4391,2.96432c-1.40379,2.38245-3.18639,4.43809-5.20052,6.33747
		c-2.278,2.14821-4.84349,2.36824-7.64235,1.48254c-1.1795-0.37326-2.18048-1.07639-3.18108-1.82864
		c-1.41446-1.06346-2.49997-2.41431-3.58392-3.74854c-0.72339-0.89042-1.23729-2.01131-1.61936-3.10766
		c-1.27045-3.64558-1.69134-7.37148-1.1798-11.24814c0.40026-3.0333,1.23296-5.92214,2.30556-8.74384
		c1.25189-3.29336,2.69549-6.51357,4.03419-9.77441c0.40361-0.98315,0.70191-2.00954,1.10563-2.99264
		c1.06303-2.58849,2.13957-5.17181,3.24528-7.74233c0.84057-1.95418,1.79202-3.86227,2.58629-5.83429
		c0.668-1.65858,1.16283-3.38612,1.76875-5.07076c0.34031-0.94611,0.7619-1.86272,1.12242-2.80199
		c0.11411-0.29729,0.14917-0.62489,0.24024-1.02604c-0.83842-0.15651-1.38538,0.26775-1.8987,0.64391
		c-1.75803,1.28827-3.50205,2.59708-5.21755,3.94126c-0.70032,0.54873-1.3239,1.19784-1.96407,1.82014
		c-0.60197,0.58514-1.17943,1.19545-1.76845,1.79393c-0.19645,0.19962-0.41559,0.38063-0.58992,0.59776
		c-1.82051,2.26759-3.7827,4.44104-5.3976,6.84728c-1.09193,1.62698-2.2009,3.21949-3.40475,4.76473
		c-0.85493,1.09737-1.47281,2.37747-2.22279,3.55931c-0.47926,0.75523-0.92245,1.5593-1.52924,2.20239
		c-1.37402,1.45625-2.22781,3.2094-3.08514,4.97182c-0.04887,0.10047-0.07121,0.2145-0.12462,0.31197
		c-1.72215,3.14193-3.45133,6.28002-5.16755,9.42519c-0.45528,0.83437-0.97565,1.65379-1.28481,2.54311
		c-0.68598,1.97322-1.63274,3.80251-2.7116,5.57973c-0.37498,0.61773-0.76112,1.2714-0.93493,1.9609
		c-0.65057,2.58083-1.93696,4.87646-3.16031,7.19286c-0.59623,1.12896-1.45022,2.1195-2.15182,3.19596
		c-0.42542,0.65276-0.85372,1.32039-1.15157,2.03516c-0.33921,0.81404-0.8978,1.42703-1.54079,1.95972
		c-0.93495,0.77458-1.88442,0.58922-2.58923-0.41054c-0.5213-0.73944-0.62589-1.56354-0.42182-2.40889
		c0.24919-1.03226,0.52858-2.06175,0.87369-3.06535c0.60101-1.74774,1.23301-3.48625,1.90708-5.20706
		c0.61268-1.56409,1.33788-3.0844,1.94038-4.65211c0.52158-1.35715,0.95559-2.74888,1.40194-4.13386
		c1.08461-3.36541,2.49981-6.59328,3.95126-9.8131c1.61046-3.57249,3.10746-7.1963,4.63852-10.80428
		c0.16336-0.38498,0.22421-0.81345,0.10552-1.35069c-0.48441,0.51606-0.96541,1.03539-1.45417,1.54733
		c-0.50294,0.52676-1.04459,1.01991-1.51466,1.57411c-1.26395,1.49026-2.54773,2.96783-3.73402,4.51893
		c-1.93842,2.53455-3.80155,5.12658-5.70685,7.68661c-0.36696,0.49306-0.78029,0.95175-1.17485,1.42413
		c-1.47083,1.76092-2.9433,3.52045-4.41391,5.28154c-0.35899,0.42989-0.69417,0.88128-1.07286,1.29285
		c-2.0834,2.26427-3.93554,4.72414-5.98166,7.0245c-1.52369,1.71302-2.96247,3.49976-4.61977,5.09348
		c-2.75338,2.64774-5.91587,4.64758-9.60881,5.63361c-2.0498,0.54729-4.20107,0.63475-6.34062,0.48538
		c-1.67383-0.11685-3.37028-0.09637-4.92057-0.88394c-1.09675-0.55716-2.25706-1.02448-3.26625-1.71207
		c-2.96161-2.01785-5.82118-4.17084-8.39524-6.68782c-1.34055-1.31081-2.48382-2.72319-3.18536-4.47991
		c-0.49814-1.24737-1.18666-2.43259-1.55937-3.71274c-0.48306-1.65923-0.74199-3.38415-1.08493-5.08331
		c-0.07739-0.38345-0.08634-0.78036-0.15595-1.16583c-0.24122-1.33582-0.21761-2.6515-0.01492-4.00616
		c0.39751-2.65671,0.60418-5.34158,0.97932-8.00217c0.2499-1.77237,0.57992-3.54121,1.00568-5.27941
		c0.89219-3.64229,1.77605-7.29159,2.84439-10.88417c0.87626-2.94669,2.01303-5.81599,3.03821-8.7182
		c0.1305-0.36944,0.2727-0.7357,0.42956-1.09467c0.87399-2.00008,1.74599-4.00108,2.6347-5.99464
		c0.77497-1.73839,1.58517-3.46115,2.35495-5.20178c1.43583-3.24675,3.33907-6.21985,5.43034-9.06425
		c2.15302-2.9284,4.3821-5.80453,6.67066-8.62836c1.51395-1.86802,3.19356-3.60167,4.7939-5.4
		c0.33438-0.37577,0.6488-0.76947,0.9677-1.15877c0.21246-0.25936,0.38772-0.55616,0.62902-0.78385
		c1.66862-1.57436,3.38206-3.10255,5.01748-4.71031c1.29093-1.26905,2.7613-2.27814,4.26582-3.25435
		c0.23507-0.15253,0.46836-0.30778,0.70246-0.46181c2.93829-1.9334,2.92389-2.06606,6.31244-2.43408
		c3.40021-0.36929,6.81729-0.41531,10.05069,1.12441c2.02102,0.9624,4.10546,1.79151,6.16064,2.68228
		c0.20515,0.08891,0.42371,0.16366,0.6041,0.29043c3.02094,2.12291,6.3165,3.85871,9.04027,6.40047
		c0.90058,0.8404,1.80846,1.67398,2.68114,2.54268c0.26893,0.2677,0.49041,0.61962,0.62328,0.97433
		c0.08567,0.22874,0.07517,0.66416-0.0719,0.78127c-0.8595,0.68434-1.25385,1.83624-2.38166,2.26361
		c-0.5038,0.19089-1.07355,0.51549-1.34446,0.9479c-0.52972,0.84547-1.27556,1.18387-2.16475,1.43084
		c-0.4767,0.13242-0.9152,0.41304-1.35973,0.648c-0.66071,0.34924-1.29576,0.33803-1.88914-0.12415
		c-0.66267-0.51617-1.41582-0.96584-1.94029-1.60079c-1.78829-2.16508-4.1324-3.58258-6.46461-5.02974
		c-0.3807-0.23623-0.80715-0.42353-1.13136-0.72165c-1.21572-1.11789-2.67739-1.57929-4.27713-1.74616
		c-0.44093-0.04601-0.88499-0.15626-1.30349-0.30497c-1.20932-0.42971-2.43354-0.83411-3.59974-1.3634
		c-0.95715-0.43442-1.91921-0.56472-2.94141-0.49636c-0.50277,0.0336-1.00955,0.0577-1.51208,0.03411
		c-1.04269-0.04892-1.95734,0.2446-2.87548,0.75213c-0.86886,0.48029-1.83074,0.838-2.7933,1.09195
		c-1.29126,0.3407-2.3922,0.8379-3.15946,2.01805c-0.75946,1.16816-1.6545,2.24794-2.48598,3.36953
		c-1.29979,1.7533-2.62129,3.49125-3.88512,5.27015c-0.83958,1.18176-1.3128,2.59887-2.32298,3.6803
		c-0.34231,0.36644-0.66493,0.75691-0.95363,1.16664c-0.57729,0.8193-1.18538,1.62566-1.67355,2.49739
		c-1.47545,2.63472-2.88828,5.30442-4.34907,7.94747c-0.62179,1.12504-1.33632,2.19941-1.94305,3.33196
		c-0.36784,0.68662-0.59981,1.44497-0.91095,2.16323c-0.51129,1.18033-1.06412,2.34342-1.54749,3.53486
		c-0.31241,0.77003-0.55001,1.57232-0.78811,2.37003c-0.20636,0.69141-0.2485,1.4565-0.56771,2.08518
		c-1.17007,2.30434-2.05083,4.72019-2.83058,7.16938c-0.72983,2.29238-1.43579,4.60358-1.94764,6.95115
		c-0.57159,2.62157-0.96462,5.28609-1.33981,7.9454c-0.39387,2.79166-0.31902,5.58343,0.35463,8.33988
		c0.03986,0.16305,0.07758,0.32893,0.09173,0.49558c0.23394,2.75367,1.50095,5.14417,2.71747,7.53665
		c0.42368,0.83322,1.03135,1.61263,1.69475,2.2771c2.45939,2.46338,5.19852,4.59466,8.15564,6.42507
		c0.74413,0.4606,1.63735,0.73754,2.4993,0.94137c5.69819,1.3474,10.78411,0.06078,15.1993-3.75051
		c1.9443-1.67837,3.77823-3.46207,5.44157-5.45747c1.31237-1.57441,2.79101-3.03791,4.15573-4.58862
		c0.2928-0.33272,0.68467-0.57676,1.02115-0.87273c1.09789-0.96568,2.07733-2.02013,2.86896-3.2718
		c0.77614-1.22715,1.69466-2.36519,2.56527-3.53146c1.23886-1.65956,2.57462-3.24464,3.59182-5.06822
		c0.48788-0.87468,1.13497-1.66412,1.74224-2.46777c0.88358-1.16927,1.49277-2.47687,2.13554-3.78618
		c0.65508-1.33442,1.44887-2.63624,3.06038-3.14935c0.48534-0.15454,0.89919-0.64175,1.26365-1.0499
		c2.02345-2.26607,3.65511-4.80795,5.2062-7.41125c1.08833-1.82661,2.27726-3.59304,3.3981-5.4007
		c0.35133-0.56661,0.69271-1.15527,0.9268-1.77605c1.22538-3.24963,2.39376-6.52079,3.62626-9.76766
		c0.55537-1.463,1.19552-2.89497,1.8295-4.32671c0.9289-2.09777,1.88834-4.17593,2.68343-6.33696
		c1.15936-3.15118,2.53074-6.22376,3.77438-9.34474c1.18134-2.96466,2.31563-5.9481,3.46834-8.92414
		c0.28322-0.73121,0.5093-1.48891,0.84608-2.19411c0.70515-1.47658,1.18031-3.02219,1.57248-4.60412
		c0.17428-0.703,0.44047-1.38447,0.68531-2.06843c0.52847-1.47619,1.14314-2.92596,1.58824-4.4264
		c0.587-1.97869,1.57123-3.65454,2.99315-5.16966c1.84882-1.96998,3.96999-3.61915,5.95507-5.42636
		c0.88614-0.80672,1.9244-1.15041,3.0872-0.52151c0.7461,0.40355,1.21455,0.97248,1.14169,1.88217
		c-0.11624,1.45134-0.08464,2.92891-0.35255,4.35076c-0.61045,3.23978-1.1681,6.49975-2.71577,9.48947
		c-0.77052,1.48848-1.28397,3.10832-2.02071,4.61648c-1.17758,2.4106-2.44457,4.77749-3.67299,7.16326
		c-0.17919,0.34802-0.35711,0.69678-0.5304,1.04776c-0.54424,1.10228-1.09521,2.20136-1.62552,3.31033
		c-0.36228,0.75751-0.68876,1.53206-1.0414,2.29428c-0.44597,0.96392-0.82872,1.96679-1.369,2.8754
		c-1.23427,2.07572-2.2587,4.24305-3.20218,6.46339c-0.47755,1.12387-1.20905,2.14016-1.82912,3.20312
		c-0.76073,1.30412-1.52216,2.60786-2.28857,3.90865c-0.73756,1.25179-1.48012,2.50064-2.22355,3.74895
		c-1.66806,2.80088-2.92204,5.78939-4.10619,8.81972c-1.79269,4.58767-3.66541,9.14423-5.52209,13.7067
		c-0.86444,2.1242-1.67494,4.27329-2.82724,6.27089c-0.21839,0.37857-0.2907,0.84141-0.43033,1.26528
		C77.92804,92.43819,77.91378,92.42449,77.91378,92.42449z M367.58466,70.97348c-0.09628-0.08513-0.19263-0.17028-0.28891-0.25543
		c-0.33432,0.17033-0.70541,0.29385-0.9953,0.52093c-0.57068,0.44706-1.08417,0.96623-1.64346,1.42883
		c-0.77225,0.63878-1.32224,0.64655-2.08081-0.02489c-0.6698-0.59283-1.26599-1.26854-1.93262-1.86536
		c-0.45306-0.40572-0.94211-0.78896-1.46625-1.09441c-1.70908-0.99596-3.58514-1.58972-5.50095-1.99192
		c-2.07977-0.43665-4.11429-0.35566-5.90897,1.05749c-0.56494,0.44487-1.26105,0.71944-1.87592,1.10571
		c-0.65887,0.4139-1.31335,0.84054-1.93088,1.31251c-0.48734,0.37249-0.87796,0.87558-1.37726,1.22751
		c-1.47214,1.03766-2.40884,2.4603-3.14221,4.06682c-0.24976,0.54714-0.59708,1.06997-0.98859,1.52807
		c-0.83865,0.9815-1.62225,1.9809-2.21414,3.14558c-0.93582,1.84167-1.97604,3.63003-2.94586,5.45484
		c-0.28668,0.53937-0.60529,1.10582-0.70157,1.69384c-0.27594,1.68477-0.94528,3.21362-1.65933,4.73577
		c-0.16571,0.35327-0.3548,0.70924-0.4386,1.08502c-0.60953,2.73367-1.89725,5.25583-2.42899,8.02043
		c-0.45575,2.36935-0.66098,4.75249-0.74228,7.15269c-0.01492,0.4407,0.11288,0.88637,0.17593,1.32957
		c0.22098,1.55359,0.68073,3.04912,1.05786,4.56703c0.53751,2.1634,1.61057,4.03956,2.75317,5.89912
		c0.17386,0.28298,0.40707,0.53286,0.63242,0.78019c0.55136,0.60504,1.25024,0.79221,1.983,0.46705
		c0.91626-0.40658,1.93747-0.75469,2.6456-1.41512c1.46793-1.36901,2.89352-2.82719,4.09201-4.43134
		c1.90536-2.5502,3.81949-5.1113,5.31711-7.94187c0.05228-0.09883,0.11255-0.19372,0.17322-0.28777
		c1.93698-3.0017,4.01047-5.92058,5.47943-9.20322c0.36481-0.81528,0.79874-1.60412,1.25394-2.37372
		c1.4801-2.5024,2.98517-4.99003,4.47958-7.48398c0.23013-0.38411,0.45593-0.77083,0.68112-1.15787
		c0.56088-0.96406,1.11078-1.93467,1.68304-2.8919c0.48773-0.81578,1.01166-1.60986,1.49997-2.42532
		c1.03424-1.72733,1.99686-3.50087,3.09912-5.18318c1.04736-1.59853,1.97098-3.25184,2.72614-5.00129
		C367.27023,72.02393,367.41,71.4912,367.58466,70.97348z"/>
	<path class="st1" d="M572.39142,108.51022c-0.55054,0.15207-0.75262,0.62442-1.00024,1.06602
		c-0.90436,1.61312-1.83685,3.20858-3.06989,4.60305c-0.03699,0.04188-0.08075,0.08359-0.10107,0.13362
		c-0.76373,1.88186-2.22772,3.34825-3.07495,5.17862c-0.47931,1.03561-1.20477,1.85342-2.01062,2.65614
		c-1.14484,1.14031-2.16467,2.4071-3.22424,3.63164c-0.5462,0.6312-1.05865,1.29149-1.59497,1.93143
		c-0.25165,0.30028-0.57379,0.55223-0.7782,0.87962c-1.25934,2.0168-3.25464,3.18405-5.13,4.48943
		c-1.04871,0.72993-2.21423,1.04466-3.49652,0.95677c-1.34119-0.09192-2.7074-0.08188-3.9502-0.67128
		c-1.83423-0.86989-3.17584-2.29218-4.06982-4.08199c-0.57263-1.14636-0.91992-2.38754-1.12341-3.67986
		c-0.48212-3.06235-0.43927-6.14429-0.44934-9.22297c-0.00305-0.94196,0.23846-1.88517,0.37335-2.82703
		c0.24597-1.71774,0.48535-3.43655,0.7511-5.15127c0.07629-0.49243,0.24835-0.96935,0.34607-1.45944
		c0.03912-0.19632-0.00385-0.40901-0.01422-0.79018c-0.36456,0.20174-0.63147,0.28662-0.8136,0.46034
		c-1.26758,1.20903-2.39313,2.56025-3.0401,4.18509c-0.45245,1.13644-1.16028,2.03956-1.93866,2.91204
		c-0.94147,1.05528-1.72235,2.19202-2.2851,3.49587c-0.28601,0.66274-0.64398,1.32186-1.09528,1.88104
		c-1.82782,2.26469-3.71594,4.48059-5.55731,6.73447c-0.70648,0.86477-1.32806,1.79843-2.02216,2.67391
		c-1.88098,2.37256-4.09241,4.31653-7.10352,5.09465c-2.59583,0.67079-4.80267,0.06627-6.68222-1.96977
		c-1.65762-1.79564-2.57504-3.86153-3.12869-6.2016c-0.85318-3.60611-0.86121-7.22457-0.35794-10.85175
		c0.30719-2.21369,0.84259-4.39468,1.21219-6.60097c0.7706-4.60011,2.14914-9.03622,3.48428-13.49055
		c0.50061-1.67018,1.15274-3.25449,1.80167-4.86309c0.95984-2.37939,1.97522-4.74691,2.79498-7.17569
		c0.396-1.17324,0.7384-2.37127,1.40057-3.39282c2.67816-4.13175,5.34387-8.26499,8.49347-12.08131
		c1.88385-2.28262,4.03583-4.18773,6.4184-5.86674c0.85797-0.60465,1.8584-1.01616,2.81592-1.46899
		c2.56757-1.21422,5.33984-1.65493,8.11426-2.04891c0.82336-0.11691,1.68488-0.13666,2.50916-0.03703
		c1.44391,0.17452,2.87708,0.45266,4.30499,0.73666c0.48657,0.09678,0.96259,0.30377,1.41089,0.52597
		c1.55481,0.77063,3.10852,1.54565,4.63391,2.37209c0.51978,0.28161,0.95453,0.7202,1.40796,1.07145
		c-0.17944,1.05598-0.89941,1.57436-1.51294,2.09414c-1.58044,1.33887-3.24573,2.57697-4.85278,3.88516
		c-0.94476,0.76906-1.88007,0.80573-2.95428,0.261c-2.42957-1.23198-5.06866-1.74725-7.74371-2.0733
		c-0.65564-0.07991-1.34381-0.00702-2.00372,0.08818c-1.16364,0.16789-2.32281,0.37998-3.47229,0.6274
		c-0.59436,0.12792-1.16779,0.36047-1.74323,0.56667c-0.36792,0.13187-0.71033,0.34529-1.08453,0.44808
		c-2.84875,0.78252-4.66827,2.78261-6.0517,5.22474c-0.68475,1.20885-1.14941,2.54198-1.7204,3.81586
		c-0.45679,1.01904-1.01031,2.0041-1.36774,3.0563c-0.68457,2.01545-1.55609,3.94866-2.34869,5.91632
		c-0.95697,2.37553-1.54297,4.90115-2.27826,7.36517c-0.84778,2.84117-1.50861,5.73373-1.87909,8.6684
		c-0.26727,2.11713-0.67615,4.18995-1.17017,6.25731c-0.11542,0.48309-0.09314,1.00082-0.11829,1.50341
		c-0.05884,1.17445-0.18842,2.35235-0.14539,3.52356c0.10919,2.97261,0.26929,5.94058,2.03369,8.53546
		c1.12561,1.65543,2.0993,2.00307,4.00427,1.34202c1.31537-0.45644,2.35565-1.2693,3.20868-2.34785
		c1.14435-1.44695,2.32782-2.86526,3.41754-4.35226c0.55786-0.76125,0.94751-1.64563,1.41449-2.47365
		c0.2746-0.48695,0.47211-1.04617,0.84192-1.4454c1.30035-1.40378,2.28583-3.00304,3.23865-4.65112
		c0.63818-1.10381,1.56189-2.03886,2.30933-3.08414c0.91046-1.27337,1.81488-2.55521,2.64178-3.88331
		c1.50885-2.42346,2.96167-4.88189,4.43207-7.32919c0.97858-1.62871,2.13824-3.1825,2.87219-4.91579
		c0.92627-2.18772,2.41681-4.02477,3.42603-6.15115c0.42078-0.88657,1.19952-1.60733,1.83716-2.38573
		c0.60291-0.73604,1.21808-1.46352,1.85748-2.16782c0.6745-0.7429,1.38599-1.45218,2.07776-2.17947
		c0.46173-0.4854,0.93909-0.95822,1.3714-1.46888c1.04675-1.23663,1.82587-1.35963,3.17218-0.45778
		c0.13953,0.09345,0.27936,0.18867,0.40717,0.29705c0.75555,0.64076,0.89246,0.98205,0.48193,1.90048
		c-0.45581,1.01984-1.01526,1.99465-1.55212,2.97678c-1.63922,2.99895-3.2287,6.02573-4.4007,9.24148
		c-1.16742,3.20331-2.13824,6.48099-3.37964,9.65392c-1.34033,3.42589-1.76892,7.05286-2.63867,10.58103
		c-0.09265,0.37576-0.20197,0.80405-0.1106,1.15819c0.3042,1.17897,0.11377,2.35739-0.00934,3.50887
		c-0.23071,2.1578,0.12,4.25092,0.49023,6.34209c0.1438,0.81206,0.46979,1.62443,0.86646,2.353
		c1.17627,2.16039,4.24225,2.49363,5.89465,1.42284c1.17181-0.75935,2.36011-1.51207,3.25818-2.62507
		c0.73755-0.9141,1.53375-1.78191,2.24963-2.71208c0.37231-0.48375,0.76398-1.02357,0.90845-1.59804
		c0.39081-1.554,1.46466-2.76402,1.99915-4.23879c0.16949-0.46767,0.39587-0.97047,0.74139-1.30898
		c1.54718-1.5157,2.11597-3.54437,2.89349-5.44715c0.745-1.82322,1.53735-3.60293,2.70691-5.19673
		c0.09912-0.13508,0.19476-0.27541,0.27118-0.42403c1.4068-2.735,2.8811-5.43843,4.18774-8.22059
		c0.76831-1.63586,1.66412-3.16355,2.72791-4.61251c0.66241-0.90234,1.32745-1.81263,1.88043-2.78255
		c0.52228-0.91602,0.98724-1.88532,1.32178-2.88335c0.63422-1.89201,1.67139-3.5528,2.87378-5.09514
		c0.85345-1.09473,1.31824-2.32795,1.77936-3.58559c0.49982-1.36325,0.90381-2.76523,1.46619-4.10126
		c1.75983-4.18111,3.44293-8.40245,5.40826-12.48674c1.68579-3.50351,2.96735-7.11785,4.06647-10.82997
		c0.53772-1.81611,1.37878-3.54197,2.07458-5.31182c1.16754-2.96981,2.32233-5.94464,3.49756-8.91139
		c0.24695-0.62333,0.56445-1.2184,0.83966-1.8309c0.34375-0.76493,0.67108-1.53726,1.01703-2.30116
		c0.36932-0.8154,0.70746-1.64922,1.13727-2.43218c1.40289-2.55593,2.76398-5.11733,3.56445-7.95307
		c0.49597-1.75708,1.58392-3.18197,2.95526-4.40664c0.99579-0.88932,1.95197-1.7993,3.09393-2.52576
		c0.88544-0.56325,1.61371-1.37223,2.4176-2.06528c0.89209-0.76906,1.85907-1.23502,3.07751-0.80968
		c1.55145,0.54161,2.15149,1.22732,1.98755,2.86492c-0.16095,1.60751-0.56689,3.19208-0.89362,4.78087
		c-0.23676,1.15114-0.47003,2.30724-0.79779,3.43407c-0.26392,0.90737-0.64355,1.78423-1.01477,2.65636
		c-0.3938,0.92507-0.83936,1.82805-1.25964,2.74188c-0.09363,0.20353-0.16345,0.41871-0.26587,0.6174
		c-1.02496,1.9885-1.9884,4.01243-3.0979,5.95277c-1.72772,3.02141-3.20062,6.16072-4.63019,9.32762
		c-0.48071,1.06487-1.12958,2.05345-1.69482,3.0806c-1.07941,1.96139-2.17334,3.91514-3.22516,5.89127
		c-1.05188,1.97636-2.0799,3.96614-3.07898,5.9697c-0.54834,1.09962-0.99121,2.25154-1.52832,3.3572
		c-0.31409,0.64645-0.68866,1.26942-1.09125,1.86568c-0.84406,1.25005-1.75201,2.45745-2.57916,3.71814
		c-0.45923,0.69986-0.83795,1.4578-1.1991,2.21523c-0.35858,0.75201-0.64789,1.53696-0.97076,2.3061
		c-0.38953,0.92783-0.71478,1.89063-1.18945,2.7729c-0.74615,1.38681-1.34973,2.81566-1.8645,4.30643
		c-0.61993,1.79551-1.43823,3.52201-2.15009,5.28672c-0.15704,0.38923-0.22754,0.81336-0.34741,1.25671
		c0.19556-0.00534,0.27765,0.01421,0.29529-0.01115c2.82111-4.04906,6.12091-7.71252,9.33411-11.43829
		c1.49017-1.72788,3.01862-3.45866,4.87933-4.84264c1.43524-1.06752,2.79785-2.23218,4.22205-3.31517
		c1.84625-1.40389,3.85559-2.50335,6.14349-3.00433c0.70636-0.15467,1.43335-0.21937,2.15295-0.30801
		c0.44226-0.05447,0.89929-0.02694,1.33099-0.1217c1.40161-0.30772,2.77496-0.204,4.16174,0.11578
		c0.78076,0.18003,1.48853,0.46132,2.13556,0.92908c1.2171,0.87982,2.57697,1.56157,3.47144,2.86054
		c0.77667,1.12782,1.2146,2.31098,1.51337,3.66677c0.47052,2.13532,0.10724,4.09938-0.47314,6.10406
		c-0.78473,2.71066-1.85413,5.31409-3.54926,7.56086c-1.58063,2.09506-3.40796,4.00302-5.54968,5.57215
		c-2.16589,1.58682-4.31281,3.19952-6.47449,4.79208c-2.93054,2.15896-5.86475,4.31293-8.80371,6.46041
		c-0.49622,0.36259-1.02185,0.68526-1.53778,1.02046c-2.41046,1.56614-2.39246,3.90974-1.43896,5.71697
		c0.2085,0.39517,0.47418,0.75986,0.7074,1.14235c1.16589,1.91225,2.28571,3.85442,3.50702,5.73055
		c1.15784,1.77862,2.42145,3.48842,3.63831,5.22862c0.60968,0.87191,1.26099,1.71812,1.81934,2.62177
		c1.05188,1.70232,2.42889,3.08808,4.09491,4.15356c1.78406,1.141,3.6358,1.52262,5.71368,0.52666
		c2.45319-1.17588,4.63287-2.73093,6.70837-4.43632c0.80365-0.66034,1.39368-1.59225,2.03516-2.43536
		c0.80371-1.05639,1.47278-2.18385,2.67517-2.92744c0.77948-0.48205,1.28088-1.37445,2.13312-1.85893
		c1.20007-0.6823,1.45038-0.71178,2.55304,0.15063c0.38452,0.30074,0.71552,0.66992,1.15686,1.08961
		c-0.4043,0.65266-0.6947,1.25832-1.10852,1.76272c-1.06445,1.29758-2.16309,2.56884-3.28857,3.81396
		c-0.67426,0.74586-1.41296,1.4351-2.14301,2.12849c-2.15155,2.04366-4.29535,4.09608-6.47772,6.10652
		c-1.2757,1.17524-2.61407,2.283-3.93604,3.4072c-0.33954,0.28868-0.69983,0.57027-1.09192,0.77652
		c-1.28735,0.67719-2.58289,1.34084-3.89697,1.96404c-0.70691,0.33525-1.44604,0.58972-2.26813,0.50072
		c-3.33362-0.36093-6.24469-1.53264-8.65051-3.99184c-1.73334-1.7718-3.39966-3.54754-4.59546-5.74514
		c-0.42133-0.77431-1.16376-1.36711-1.65051-2.11389c-1.40546-2.15624-2.75317-4.35002-4.12799-6.52629
		c-0.62671-0.99209-1.25043-1.9865-1.89929-2.96407c-0.93878-1.41439-1.80273-2.86256-1.77435-4.63126
		c0.00964-0.60252,0.12659-1.22186,0.30402-1.79992c0.73969-2.40999,2.13422-4.41656,3.91724-6.17069
		c0.0799-0.0786,0.1701-0.14954,0.237-0.23803c2.09338-2.7675,4.89771-4.73278,7.65924-6.73565
		c1.17554-0.85258,2.46637-1.54428,3.66766-2.36355c2.31134-1.57628,4.62506-3.15189,6.88324-4.80241
		c1.91345-1.39856,3.04437-3.39252,3.88135-5.56688c0.5838-1.51656,1.15216-3.02837,1.31647-4.67451
		c0.07916-0.79344,0.13696-1.55224-0.08435-2.32423c-0.0921-0.32121-0.19031-0.66243-0.17438-0.98914
		c0.06946-1.42653-0.84442-2.25278-1.81146-3.04318c-0.92365-0.75494-2.00482-0.93148-3.16364-0.79851
		c-0.72278,0.08292-1.44849,0.14262-2.17377,0.20087c-1.70239,0.1367-3.28723,0.62653-4.74017,1.53541
		c-0.33124,0.20718-0.71991,0.33341-1.02368,0.57146c-0.91998,0.72081-1.8653,1.423-2.69861,2.23695
		c-0.8338,0.8144-1.49969,1.77898-2.42914,2.53043c-0.62738,0.50723-1.02399,1.30493-1.50592,1.98543
		c-0.41711,0.58911-0.74475,1.25434-1.22443,1.78409c-1.28784,1.42231-2.43329,2.92708-3.18542,4.70712
		c-0.52478,1.24204-1.16956,2.41246-1.97864,3.50007c-1.95026,2.62149-3.26471,5.6131-4.85645,8.44346
		c-0.24707,0.43931-0.52942,0.86073-0.74963,1.31273c-0.38953,0.79935-0.76337,1.60759-1.10809,2.42713
		c-0.47717,1.13452-0.90417,2.29019-1.3833,3.42385c-0.91534,2.16591-1.85791,4.31833-2.37756,6.62878
		c-0.14655,0.65144-0.42358,1.27476-0.65576,1.90544c-0.84985,2.30831-1.72528,4.60746-2.54926,6.92493
		c-0.27985,0.78718-0.45532,1.61391-0.64343,2.43062c-0.20105,0.87269-0.38135,1.75136-0.53302,2.63389
		c-0.17017,0.99039-0.40112,1.98629-0.41797,2.98296c-0.02008,1.19106-0.41895,2.17384-1.12262,3.09072
		c-1.2583,1.63956-2.49609,3.29489-3.74493,4.9417c-0.20294,0.26755-0.39331,0.5517-0.6333,0.78265
		c-0.82233,0.79132-2.60931,0.75653-3.36218-0.09189c-0.20483-0.23079-0.3501-0.59846-0.35669-0.90688
		c-0.03235-1.50974-0.00903-3.02069-0.00323-4.53119c0.00024-0.05482,0.021-0.10988,0.03436-0.16428
		c0.4267-1.73521,0.78955-3.48931,1.29523-5.20119c0.81165-2.7476,1.16748-5.5875,1.81592-8.36631
		c0.15149-0.64903,0.34821-1.28953,0.55939-1.92216c0.46106-1.38098,0.97101-2.74809,1.00763-4.22952
		c0.02942-0.03161,0.06592-0.0592,0.08618-0.09576c0.01447-0.02605,0.00726-0.06415,0.00977-0.09687
		C572.44067,108.37025,572.41608,108.44024,572.39142,108.51022z"/>
	<path class="st1" d="M509.47958,50.56754c0.15668,3.14344-0.08707,6.26837-0.61441,9.35983
		c-0.47961,2.81171-1.02188,5.61995-1.70978,8.38665c-0.57776,2.32384-1.32422,4.60851-2.25168,6.8327
		c-0.60132,1.44211-0.93076,2.99724-1.52728,4.44173c-0.91711,2.22072-1.95978,4.38956-2.94781,6.58102
		c-1.01001,2.24025-1.98825,4.49547-3.03809,6.71687c-0.69302,1.46642-1.49722,2.87996-2.2352,4.32557
		c-1.44916,2.83869-3.05099,5.5983-4.85989,8.21104c-1.93954,2.80145-3.67667,5.7528-5.97214,8.30706
		c-1.27097,1.41428-2.42862,2.9306-3.63239,4.40497c-1.17062,1.43379-2.47787,2.71703-3.94614,3.85491
		c-1.36768,1.05994-2.69217,2.16308-3.83145,3.50555c-4.3215,6.08922-9.16272,7.64294-11.33423,7.93562
		c-2.28174,0.30751-4.57733,0.33527-6.79965-0.51793c-0.50821-0.1951-1.09464-0.22783-1.6489-0.25397
		c-1.93445-0.09123-3.74142-0.61623-5.48035-1.45152c-0.75378-0.36209-1.5463-0.65805-2.34479-0.9091
		c-1.0845-0.341-2.00653-0.93785-2.96024-1.53949c-2.98413-1.88255-5.33716-4.46342-7.56744-7.09066
		c-1.75192-2.06374-3.40106-4.30516-4.49487-6.84132c-0.53043-1.2299-0.86755-2.54166-1.34937-3.79437
		c-1.00412-2.61074-0.96924-5.3862-1.23199-8.09875c-0.15982-1.64996,0.15625-3.34575,0.25534-5.02116
		c0.07272-1.22961,0.15222-2.45899,0.20755-3.68943c0.11404-2.53654,0.75354-4.96906,1.42294-7.39845
		c0.20789-0.75449,0.3653-1.52332,0.53305-2.28837c0.63773-2.90822,1.71634-5.67744,2.78128-8.43919
		c1.06512-2.76223,2.31055-5.4564,3.52133-8.16052c1.02844-2.2969,2.22012-4.52548,3.15326-6.85879
		c0.79724-1.99349,1.81274-3.82658,3.04086-5.57187c0.51254-0.72839,0.94595-1.52938,1.30411-2.34615
		c0.90924-2.07347,2.21832-3.88499,3.56479-5.67836c0.26852-0.35767,0.57877-0.69974,0.77002-1.09702
		c0.79199-1.64521,2.05667-2.91774,3.24191-4.26083c1.14719-1.29997,2.24176-2.64637,3.35959-3.97223
		c0.53961-0.64004,1.06473-1.29305,1.62222-1.91711c1.52658-1.7089,3.08679-3.38813,4.59653-5.11163
		c1.74442-1.9914,3.71637-3.72304,5.87665-5.23875c1.37161-0.96237,2.70007-1.97648,4.22037-2.73804
		c1.74133-0.87229,3.56219-1.27936,5.46408-1.46653c0.94519-0.09302,1.89462-0.15413,2.83524-0.28083
		c4.87042-0.65604,9.34491,0.35556,13.41043,3.13455c0.55365,0.37845,1.10214,0.76906,1.68234,1.10318
		c1.71497,0.98765,3.16049,2.30225,4.55829,3.67955c1.19308,1.17559,2.47525,2.27425,3.56207,3.54077
		c1.34662,1.56929,2.62112,3.21843,3.75397,4.94642c0.66351,1.01212,1.03662,2.22799,1.4595,3.38185
		c1.0491,2.86253,1.60519,5.82034,1.56747,8.87896C509.46463,50.23175,509.47501,50.39967,509.47958,50.56754z M450.40527,53.26594
		c-0.10974-0.04699-0.21951-0.09398-0.32925-0.14098c-0.69482,0.68-0.89316,1.6061-1.15253,2.50733
		c-0.12082,0.41984-0.25125,0.84666-0.45142,1.2318c-0.35883,0.69034-0.81247,1.33248-1.15509,2.02983
		c-0.41785,0.85044-0.72562,1.75504-1.14526,2.60448c-1.06381,2.15342-2.18338,4.27942-3.23804,6.43719
		c-0.36691,0.75069-0.61661,1.55961-0.9054,2.34722c-0.21188,0.57793-0.34427,1.19136-0.6088,1.74255
		c-1.14215,2.37993-1.86273,4.905-2.61169,7.42068c-0.27051,0.90852-0.46912,1.83897-0.75351,2.74274
		c-0.76334,2.4256-1.10782,4.94012-1.13367,7.44704c-0.01505,1.46056-0.11996,2.89217-0.27432,4.3325
		c-0.04178,0.38979-0.11322,0.77977-0.11508,1.16993c-0.01871,3.95479,0.58047,7.81066,1.92679,11.53556
		c0.20709,0.57289,0.53085,1.10963,0.84549,1.63631c0.60284,1.00912,1.26291,1.98447,1.85379,3.00027
		c0.90485,1.55555,1.86935,3.04827,3.27853,4.21922c0.55466,0.46091,0.98325,1.07093,1.49094,1.5919
		c0.42822,0.43944,0.83481,0.93147,1.34323,1.25548c1.68088,1.07121,3.09827,2.59265,5.20886,2.95031
		c0.63583,0.10775,1.19565,0.6063,1.82224,0.84033c0.94031,0.3512,1.892,0.70496,2.86945,0.91568
		c1.30811,0.282,2.64761,0.41536,3.96982,0.63553c2.74509,0.45713,5.36157,0.10885,7.7572-1.34377
		c2.01968-1.22464,3.78497-2.78506,5.47018-4.43353c0.27966-0.27357,0.50284-0.6546,0.83478-0.81622
		c1.26447-0.61566,2.03372-1.70693,2.88394-2.7505c1.67108-2.05112,3.10941-4.24119,4.26572-6.6211
		c0.26807-0.55172,0.62323-1.06059,0.92737-1.59541c0.99545-1.7505,2.07281-3.46125,2.95755-5.26627
		c1.28033-2.61207,2.44354-5.28278,3.61374-7.94733c1.66605-3.79355,3.29239-7.60117,4.49295-11.58025
		c0.56555-1.87453,1.10172-3.75581,1.64987-5.63315c1.13452-3.88548,1.84818-7.84543,2.45435-11.82831
		c0.31104-2.04366,0.51642-4.11811,0.56424-6.1834c0.05951-2.57159-0.04895-5.14305-0.42371-7.70779
		c-0.44739-3.06147-1.4902-5.87772-3.2915-8.35392c-2.44083-3.35538-5.13589-6.47266-8.73511-8.71213
		c-1.5256-0.94925-3.03171-1.91619-4.69803-2.57261c-2.59198-1.02108-5.26312-1.48259-8.05191-0.87198
		c-0.92453,0.20242-1.87509,0.36243-2.81763,0.38579c-1.06891,0.02649-1.83664,0.49901-2.39426,1.32012
		c-1.06787,1.57248-2.10428,3.16769-3.10809,4.78185c-0.7933,1.27559-1.46982,2.62509-2.28726,3.88395
		c-0.81158,1.2499-1.30127,2.58933-1.5256,4.04908c-0.07587,0.49353-0.17969,0.99202-0.34805,1.46045
		c-0.62476,1.73824-1.26691,3.47059-1.93005,5.19456c-0.98672,2.56527-1.83337,5.16044-1.92123,7.94282
		c-0.0069,0.21825-0.08157,0.43829-0.14832,0.65008c-0.57898,1.83756-0.68063,3.73497-0.75333,5.64209
		c-0.05957,1.56371-0.13742,3.13026-0.30331,4.68531c-0.15051,1.41073-0.18472,2.78407,0.28696,4.14957
		c0.16193,0.46881,0.21506,0.98788,0.2428,1.48816c0.11133,2.00789,0.86084,3.71786,1.89111,5.4646
		c1.18195,2.00393,2.46951,3.81883,4.19492,5.37578c2.60968,2.35487,5.48953,4.02603,9.10788,4.11212
		c0.50314,0.01197,1.02066,0.00481,1.50488,0.11921c1.72992,0.40869,3.10742-0.24583,4.22452-1.46054
		c0.78815-0.85703,1.70364-1.40717,2.88519-1.83037c0.42072,0.42523,0.88416,0.82274,1.25876,1.29127
		c0.41339,0.51703,0.51614,1.20608,0.20447,1.74837c-0.72241,1.25685-1.44855,2.56954-2.68857,3.3881
		c-0.92789,0.61251-1.78787,1.29579-2.67334,1.94682c-1.30997,0.96314-2.55157,1.99395-3.79404,3.03285
		c-0.70782,0.59185-1.51187,0.94505-2.45135,0.96796c-1.67941,0.04098-3.35852,0.12953-5.03766,0.12646
		c-0.60394-0.00111-1.2117-0.19061-1.81046-0.32613c-1.4512-0.32845-2.59833-1.28885-3.90961-1.89978
		c-2.84256-1.32438-5.18878-3.23992-7.34259-5.49233c-1.2605-1.3182-2.32339-2.72571-3.09082-4.35577
		c-1.49814-3.18217-2.22098-6.5722-2.44363-10.05859c-0.09216-1.44308,0.14493-2.90436,0.11307-4.35475
		c-0.05917-2.69389,0.02994-5.36668,0.44815-8.03751c0.45972-2.93578,0.8945-5.86257,2.05606-8.63293
		C449.85492,55.29771,450.09213,54.26591,450.40527,53.26594z"/>
</g>
</svg>
