<?xml version="1.0" encoding="utf-8"?>
<!-- Generator: Adobe Illustrator 25.4.1, SVG Export Plug-In . SVG Version: 6.00 Build 0)  -->
<svg version="1.1" id="Layer_1" xmlns="http://www.w3.org/2000/svg" xmlns:xlink="http://www.w3.org/1999/xlink" x="0px" y="0px"
	 viewBox="0 0 416.86331 188.99892" style="enable-background:new 0 0 416.86331 188.99892;" xml:space="preserve">
<style type="text/css">
	.st0{fill:#EFEDE6;}
	.st1{fill:#EFEDE5;}
	.st2{fill:#B48039;}
	.st3{fill:#AD8246;}
	.st4{fill:none;stroke:#B48039;stroke-width:0.99892;stroke-miterlimit:10;}
	.st5{fill:#FF00FF;}
	.st6{fill:#00FFFF;}
	.st7{fill:#606060;}
	.st8{fill:#A7834F;}
</style>
<g>
	<path class="st2" d="M145.89479,24.55674c0.96402,0.5703,1.86696,1.01138,2.47383,1.86746
		c0.36012,0.50806,0.44896,0.99973,0.07158,1.54348c-0.28621,0.41238-0.51192,0.8672-0.80316,1.27561
		c-1.63586,2.29393-2.74879,4.85191-3.80092,7.44339c-0.2518,0.62021-0.52051,1.23859-0.8425,1.82422
		c-0.64734,1.17738-1.31508,2.34098-1.64606,3.65973c-0.04048,0.16127-0.10439,0.32053-0.18144,0.46819
		c-0.95625,1.83271-1.90413,3.66996-2.88037,5.49203c-0.897,1.67418-1.84995,3.31863-2.73294,4.99997
		c-0.72797,1.38614-1.51587,2.73068-2.43826,3.99532c-0.49893,0.68407-0.91133,1.4112-1.09122,2.2457
		c-0.05603,0.26022-0.03877,0.53624-0.05788,0.85148c0.26753,0.07701,0.47382,0.18246,0.68352,0.18977
		c2.79066,0.09722,5.57979,0.38595,8.37483,0.08242c0.27641-0.03001,0.55846-0.0246,0.83711-0.01436
		c1.84283,0.06764,3.6855,0.14002,5.52811,0.21353c0.39075,0.01559,0.80058-0.0253,1.16669,0.0806
		c0.47189,0.1365,0.96307,0.32316,1.3479,0.61676c0.60599,0.46234,0.67186,1.0929,0.32118,1.79287
		c-0.55368,1.10514-1.30225,2.07605-2.07809,3.02953c-0.59764,0.73447-1.16109,1.49773-1.77818,2.21512
		c-0.47173,0.54834-1.00134,1.04714-1.50951,1.56375c-0.30937,0.31448-0.69447,0.26502-1.09499,0.25624
		c-2.79041-0.0612-5.58115-0.11308-8.37207-0.14076c-2.34605-0.02326-4.69258,0.00384-7.03867-0.0167
		c-1.99449-0.01744-2.1136,0.01077-2.93627,1.81017c-0.74279,1.62471-1.41656,3.28094-2.12326,4.9222
		c-1.08289,2.51488-2.23104,5.00409-3.23032,7.55173c-0.69198,1.76425-1.21342,3.59869-1.74892,5.42002
		c-0.48804,1.65967-0.93439,3.33426-1.32259,5.0199c-0.45118,1.95885-0.87646,3.92733-1.20667,5.90934
		c-0.32065,1.92461-0.58875,3.86092-0.58438,5.82571c0.00473,2.12204-0.05251,4.24421-0.08128,6.36635
		c-0.00227,0.16758-0.00303,0.33623,0.01205,0.50287c0.23196,2.56586,0.65947,5.08982,1.64617,7.48888
		c0.12681,0.30834,0.29525,0.6032,0.47302,0.88635c1.07166,1.70688,2.56539,2.24635,4.46122,1.54798
		c0.56653-0.20868,1.11023-0.53613,1.59331-0.90282c1.11105-0.84346,2.20169-1.71742,3.25823-2.6282
		c1.73714-1.49752,3.3828-3.07874,4.65687-5.01984c0.54723-0.83365,1.22379-1.59274,1.90784-2.32369
		c0.91652-0.97942,1.88138-1.90233,2.56084-3.08759c0.29897-0.5215,0.78424-0.93702,1.18967-1.39647
		c0.59074-0.66944,1.25398-1.2869,1.76634-2.01137c1.57964-2.23373,3.1087-4.50344,4.645-6.76759
		c1.03409-1.52395,2.07869-3.04224,3.06262-4.59843c1.6423-2.59741,3.2339-5.22684,4.85875-7.83535
		c0.7677-1.23241,1.65057-2.40123,2.32806-3.68003c1.51546-2.86047,3.24954-5.59853,4.63857-8.53149
		c1.38632-2.92735,2.90645-5.79134,4.36819-8.68297c0.0504-0.09972,0.12987-0.19267,0.15141-0.29787
		c0.35558-1.73609,1.53192-2.94446,2.66689-4.18393c0.90442-0.98772,1.78365-1.9985,2.6877-2.98659
		c0.91765-1.00301,1.4527-1.19399,2.66075-0.59662c1.58574,0.78414,3.27289,0.61703,4.92822,0.72696
		c1.05339,0.06996,2.11859-0.05997,3.17862-0.0628c2.12187-0.00566,4.24495-0.0234,6.36517,0.04116
		c0.94139,0.02866,1.90628,0.1426,2.80835,0.40035c1.31075,0.37451,2.39008,1.17067,3.30888,2.19896
		c0.71638,0.80172,1.00211,1.69386,0.95898,2.75839c-0.07834,1.93316-0.65137,3.7309-1.38469,5.49189
		c-0.51509,1.23687-1.16371,2.39591-1.84113,3.55795c-1.11989,1.92116-2.02391,3.971-2.62845,6.13376
		c-0.17953,0.64229-0.36491,1.30173-0.67709,1.88389c-0.50624,0.9442-0.88319,1.91719-1.16908,2.94978
		c-0.28223,1.01922-0.68321,2.00891-1.07999,2.99225c-0.56345,1.39641-1.23264,2.75275-1.74377,4.16702
		c-0.66333,1.83552-1.21674,3.71079-1.81505,5.56973c-0.11966,0.3718-0.19104,0.76379-0.34898,1.11777
		c-0.50665,1.13543-0.72351,2.33627-0.93475,3.55149c-0.29135,1.67626-0.30594,3.32726,0.06184,4.99288
		c0.14355,0.65013,0.19095,1.32673,0.22766,1.99427c0.12558,2.28237,1.02791,4.3336,1.86902,6.40407
		c0.12608,0.31043,0.34126,0.59554,0.41331,0.91531c0.46974,2.08502,1.83473,3.68084,2.94904,5.40669
		c0.79565,1.23238,1.52827,1.43058,2.85411,0.89194c0.51389-0.20875,1.02055-0.47135,1.47163-0.79219
		c1.87773-1.33553,3.62366-2.87836,4.99036-4.69576c1.40201-1.86435,3.13947-3.5096,4.10175-5.69558
		c0.04422-0.10044,0.13062-0.18145,0.18871-0.27679c1.39459-2.28809,2.7677-4.58965,4.19191-6.85914
		c0.53999-0.86047,1.00705-1.74738,1.30435-2.70969c0.31952-1.03429,0.83252-1.95441,1.48856-2.79646
		c0.79582-1.02154,1.37343-2.16371,1.98378-3.29726c1.1913-2.21249,2.46599-4.37994,3.69264-6.57361
		c0.32625-0.5834,0.61024-1.19093,0.90039-1.79377c0.14528-0.30185,0.2178-0.64565,0.39648-0.92334
		c1.19173-1.85176,1.78947-3.96444,2.64154-5.96437c0.85387-2.00412,1.62871-4.04263,2.51228-6.03318
		c0.90561-2.0401,1.90083-4.04041,2.85739-6.05788c0.0239-0.05043,0.0598-0.09567,0.08-0.1473
		c0.96252-2.45948,2.68817-4.32603,4.64323-6.0239c0.75592-0.65648,1.45728-1.37545,2.19275-2.05594
		c0.28604-0.26468,0.58394-0.52102,0.90106-0.74649c0.38538-0.27398,0.80687-0.34588,1.26819-0.15241
		c1.11588,0.46798,1.99399,1.23101,2.7041,2.18833c0.3607,0.48625,0.41231,1.04136,0.08228,1.57523
		c-0.29361,0.47494-0.61092,0.93623-0.93585,1.39061c-1.00764,1.40915-2.03194,2.80132-2.55856,4.49196
		c-0.18097,0.58111-0.51651,1.11442-0.78494,1.66788c-0.51115,1.05405-1.04286,2.09856-1.53291,3.1623
		c-0.63057,1.3687-1.16858,2.77583-1.92174,4.09276c-0.6368,1.1134-1.02621,2.3386-1.43553,3.56368
		c-0.50974,1.52567-1.32652,2.94846-2.00612,4.41779c-0.30405,0.65736-0.6028,1.31731-0.89346,1.98067
		c-0.40363,0.92106-0.82776,1.8347-1.18994,2.77205c-1.34811,3.48898-2.7561,6.95824-3.97403,10.49265
		c-0.59564,1.72849-0.99811,3.54939-1.01241,5.42016c-0.00555,0.72369-0.08549,1.45287-0.20029,2.16851
		c-0.36153,2.25353-0.09488,4.46861,0.53137,6.62117c0.4344,1.49319,1.00841,2.96902,1.71489,4.35313
		c0.67696,1.32624,1.94348,2.12911,3.25003,2.80738c0.24702,0.12823,0.53871,0.17698,0.77315,0.32173
		c1.67209,1.03229,3.33459,0.72998,4.95953-0.0713c1.35086-0.66614,2.66165-1.41394,3.98627-2.13283
		c0.94189-0.51119,1.7373-1.20464,2.50531-1.94969c1.93359-1.87583,3.66513-3.90851,5.03925-6.2328
		c0.25488-0.43111,0.49855-0.86961,0.72897-1.31424c0.46075-0.88898,0.91684-1.76288,1.5519-2.56436
		c0.72328-0.91285,1.26505-1.97218,1.86159-2.98207c0.53879-0.91214,1.05289-1.83919,1.56345-2.76758
		c0.45743-0.83177,0.86967-1.68925,1.34776-2.50859c0.67418-1.15546,1.39389-2.28427,2.08772-3.42835
		c0.34691-0.57202,0.77585-1.11761,1.00098-1.73586c0.71597-1.96638,1.83211-3.69424,3.00076-5.40436
		c0.47083-0.68899,0.84322-1.44491,1.26724-2.16637c0.81998-1.3952,1.67426-2.77122,2.45943-4.18565
		c0.81215-1.4631,1.56381-2.95995,2.33368-4.4463c1.66985-3.22379,3.35194-6.44143,4.99336-9.67966
		c0.75806-1.49554,1.43851-3.03055,2.44067-4.38823c0.33109-0.44854,0.63629-0.92533,1.02155-1.32312
		c1.51321-1.56246,3.06015-3.09219,4.58044-4.64791c0.53113-0.54353,1.0694-0.68008,1.80804-0.37984
		c0.75662,0.30754,1.32965,0.78296,1.86136,1.37565c0.52316,0.58319,0.55502,1.18664,0.25198,1.85689
		c-0.06903,0.15265-0.13971,0.30692-0.23035,0.44707c-1.67502,2.59061-2.87317,5.43118-4.21814,8.18969
		c-0.73636,1.51019-1.51944,2.98435-2.36389,4.43158c-0.11264,0.19305-0.25668,0.38046-0.31537,0.59029
		c-0.44229,1.58123-1.2565,2.97972-2.10165,4.36573c-0.14487,0.23757-0.25845,0.49615-0.36835,0.75279
		c-1.3194,3.08101-2.65079,6.15702-3.94608,9.24816c-0.71231,1.69986-1.36252,3.42576-2.04031,5.14007
		c-0.38992,0.98624-0.79143,1.96815-1.16357,2.96106c-0.19505,0.52042-0.39552,1.04979-0.49533,1.59315
		c-0.70671,3.84865-1.36444,7.70639-2.08891,11.55161c-0.29576,1.56987,0.01028,3.12012-0.00313,4.67924
		c-0.0112,1.29862,0.29358,2.53997,0.92632,3.70224c0.34584,0.6353,0.55452,1.3437,0.8634,2.0011
		c0.41231,0.87762,1.06848,1.28423,2.02373,1.11731c0.76196-0.13316,1.51453-0.39098,2.23376-0.68514
		c2.70367-1.10581,5.15628-2.66526,7.58185-4.27087c1.41452-0.93639,2.60947-2.11134,3.65009-3.43189
		c1.87195-2.37547,3.9913-4.52155,6.0657-6.71177c0.99841-1.05416,1.96179-2.1435,2.89978-3.25185
		c0.31885-0.37673,0.56326-0.83914,0.75183-1.29922c0.64209-1.56654,1.61179-2.92728,2.56079-4.31101
		c0.72406-1.05572,1.32809-2.19308,2.00497-3.28205c0.44086-0.70924,0.87781-1.42654,1.38513-2.08759
		c0.9216-1.20089,1.7113-2.47547,2.45798-3.79211c0.90915-1.6031,1.95374-3.12891,2.91977-4.70045
		c0.37906-0.61669,0.69046-1.27464,1.05753-1.89918c0.36743-0.62514,0.73074-1.25774,1.15796-1.84164
		c0.9256-1.26505,1.74979-2.57762,2.41766-4.00488c0.37338-0.79789,0.98398-1.48552,1.49414-2.21833
		c0.25473-0.36589,0.64255-0.68586,0.76419-1.08878c0.35132-1.16344,1.14072-2.04102,1.79163-3.01052
		c0.34268-0.51047,0.73355-0.99092,1.04834-1.51741c1.41718-2.37032,3.32578-4.33512,5.18378-6.34319
		c1.10077-1.18963,2.16776-2.41191,3.2998-3.57077c1.13431-1.16118,2.3418-2.2487,3.84088-2.9413
		c1.50961-0.69747,3.10184-0.88642,4.74225-0.7278c0.57092,0.0552,1.07532,0.26889,1.4805,0.7032
		c0.59772,0.64068,1.4729,1.04988,1.71365,2.14989c-0.60028,0.56033-1.22784,1.17745-1.88931,1.75575
		c-0.85022,0.7433-1.24335,1.70189-1.37726,2.7852c-0.30276,2.44956-0.38989,4.90182-0.00443,7.35184
		c0.10406,0.66134,0.23639,1.31841,0.36441,1.97575c0.14926,0.7665,0.3497,1.52541,0.45575,2.29753
		c0.59424,4.32714,1.67688,8.54562,2.77417,12.76334c0.76035,2.92262,1.46039,5.86014,1.24011,8.92325
		c-0.02399,0.33335-0.03625,0.67722,0.01648,1.00491c0.46133,2.86808,0.03348,5.68216-0.46777,8.4971
		c-0.1366,0.76695-0.20724,1.54905-0.25638,2.32748c-0.1145,1.81291-0.63144,3.52577-1.3591,5.16324
		c-0.97342,2.19046-2.04572,4.33698-3.06833,6.50576c-0.03986,0.08453-0.00507,0.20424-0.00507,0.39749
		c0.65796,0.00819,1.12183-0.42265,1.62122-0.72147c0.91019-0.54463,1.79218-1.13622,2.69284-1.69704
		c0.28391-0.17677,0.57373-0.37508,0.88895-0.4646c0.95245-0.27052,1.64609-0.91976,2.38037-1.52042
		c0.86365-0.70644,1.74393-1.39252,2.60883-2.09743c0.64859-0.52861,1.33392-1.02435,1.91705-1.61892
		c2.46466-2.51308,4.9325-5.02492,7.32602-7.60508c1.13721-1.22582,2.11716-2.59848,3.15598-3.91436
		c1.34988-1.70983,2.73184-3.3969,4.0173-5.15425c1.1864-1.62191,2.29904-3.30105,3.38135-4.99512
		c2.16489-3.3885,3.97339-6.97732,5.85208-10.52723c0.70267-1.32776,1.53134-2.57917,2.42584-3.80438
		c1.50842-2.06612,3.01053-4.16659,3.62549-6.74649c0.17685-0.74192,0.62158-1.43194,1.00732-2.10943
		c0.63513-1.11555,1.3082-2.21045,1.99533-3.29499c0.23645-0.37322,0.52597-0.73117,0.8559-1.02298
		c0.66855-0.59129,1.3844-1.12882,2.07462-1.69598c0.46817-0.38468,0.9649-0.51791,1.55679-0.29756
		c0.93268,0.34723,1.74826,0.10598,2.46527-0.5531c0.16287-0.14973,0.3269-0.30917,0.51752-0.41562
		c0.47876-0.26736,1.06424,0.04939,1.13101,0.5941c0.07089,0.57849-0.0636,1.11849-0.37018,1.60173
		c-0.54996,0.86689-0.85556,1.82848-1.03192,2.81822c-0.14197,0.79654-0.49036,1.47375-0.88699,2.15244
		c-0.3942,0.67445-0.83655,1.3391-1.10635,2.06438c-0.7677,2.06367-1.90042,3.89966-3.19904,5.66339
		c-0.7598,1.03194-1.39453,2.15889-2.04874,3.26485c-0.73874,1.24887-1.43756,2.52141-2.15137,3.785
		c-1.4306,2.53251-2.72098,5.12617-3.75198,7.8559c-0.57089,1.51159-1.38855,2.92852-2.05969,4.40417
		c-0.55444,1.21915-1.05841,2.46133-1.5809,3.69492c-0.06519,0.15396-0.07742,0.33622-0.16373,0.47446
		c-1.01544,1.62679-1.47333,3.48786-2.21042,5.23117c-0.06531,0.15447-0.15939,0.30139-0.19781,0.46194
		c-0.79175,3.30726-2.01572,6.53352-2.12772,9.97002c-0.05054,1.55145,0.05621,3.15189,0.40005,4.65977
		c0.33038,1.44886,0.93958,2.86528,2.10886,3.9341c0.59979,0.54829,1.23901,0.88815,2.07288,0.96458
		c3.54758,0.32512,6.76163-0.50954,9.65118-2.60813c1.44571-1.04999,2.89114-2.08964,4.17728-3.34496
		c2.67953-2.6153,5.35233-5.22592,7.42944-8.38033c0.64075-0.97307,1.46176-1.82644,2.18484-2.7467
		c0.41348-0.52625,0.87695-1.03539,1.17831-1.62374c1.28226-2.50317,3.04172-4.66977,4.70496-6.91161
		c1.72861-2.32992,3.34174-4.74519,5.02838-7.10667c1.06989-1.49797,2.18436-2.96404,3.27319-4.44856
		c0.29614-0.40376,0.60272-0.80479,0.85132-1.2376c0.9736-1.69492,1.92563-3.40224,2.88654-5.10446
		c0.10992-0.19471,0.25906-0.37431,0.33279-0.5813c0.75482-2.11947,2.08444-3.94733,3.02209-5.97374
		c0.13983-0.3022,0.31876-0.5904,0.5094-0.86436c1.60083-2.30058,2.70163-4.88094,4.05469-7.31909
		c0.70248-1.26582,1.54126-2.31355,2.71274-3.11978c0.87354-0.60118,1.76538-1.17598,2.63342-1.7848
		c0.64047-0.44919,1.24728-0.94615,1.88467-1.39994c0.5914-0.42105,1.20898-0.55901,1.86102-0.09312
		c0.49756,0.35551,1.0697,0.62608,1.50821,1.04071c0.94791,0.89633,0.99915,1.3584,0.43906,2.53075
		c-0.3364,0.70421-0.68179,1.40446-1.03839,2.09865c-0.86743,1.68858-1.71204,3.39008-2.62897,5.05156
		c-0.51065,0.92537-1.15652,1.77538-1.72583,2.66931c-1.0795,1.69506-2.19293,3.37077-3.21014,5.10275
		c-1.526,2.59824-3.16806,5.12929-4.52448,7.82738c-0.82718,1.64543-1.77887,3.22993-2.56714,4.89275
		c-0.59598,1.25716-1.03439,2.59028-1.52097,3.89776c-1.46222,3.92915-2.83963,7.88797-4.043,11.9046
		c-0.52927,1.76663-0.9938,3.5526-1.4946,5.32787c-0.28833,1.02208-0.59396,2.03928-0.88452,3.06075
		c-0.12222,0.42973-0.27551,0.85871-0.3295,1.29848c-0.35556,2.89675-1.25845,5.66953-1.92322,8.49473
		c-0.78082,3.31848-1.10849,4.78318-2.03506,8.06357c-0.56097,1.98596-1.36505,4.08211-2.49652,6.20293
		c-0.49655,0.93074-0.85477,1.93433-1.29974,2.89374c-1.0369,2.23581-2.29391,3.34033-3.7327,5.3439
		c-0.87906,1.22411-1.64877,2.52631-2.51205,3.76237c-0.41321,0.59164-0.92404,1.1161-1.40082,1.66212
		c-0.73349,0.84004-1.4776,1.67081-2.21371,2.50856c-0.81036,0.92218-1.6152,1.8492-2.42593,2.77104
		c-0.22113,0.25143-0.48798,0.46872-0.6774,0.74097c-1.25586,1.80527-2.88556,3.26514-4.47983,4.74083
		c-1.18323,1.09523-2.53464,2.00819-3.80554,3.00945c-0.7869,0.61995-1.55374,1.26559-2.34698,1.87711
		c-0.88287,0.68063-1.78305,1.33897-2.68066,2.00027c-0.40369,0.29742-0.85995,0.53511-1.22269,0.87439
		c-1.52124,1.423-3.30377,2.48073-5.00894,3.64697c-0.1843,0.12607-0.36972,0.2597-0.57288,0.34766
		c-1.73981,0.75319-3.46014,1.55965-5.23309,2.22565c-1.82758,0.68654-3.70709,1.23485-5.565,1.84027
		c-0.31885,0.10388-0.63797,0.21866-0.96597,0.28099c-2.02808,0.38527-4.05124,0.80544-6.09039,1.12129
		c-2.70361,0.41876-5.39417,0.93456-8.13754,1.08571c-1.16687,0.0643-2.32346,0.30969-3.48566,0.46584
		c-1.05112,0.14124-2.08878,0.23933-3.16501,0.082c-1.87729-0.27443-3.77737-0.38942-5.65945-0.63599
		c-0.88013-0.11533-1.75534-0.33226-2.60718-0.5883c-3.42505-1.02936-6.85657-2.04195-10.25244-3.16161
		c-1.95801-0.64558-3.90005-1.37578-5.63251-2.55006c-0.73697-0.4995-1.44113-1.0692-2.3497-1.25995
		c-0.15689-0.03296-0.30618-0.13397-0.44269-0.22737c-2.85706-1.95523-5.73685-3.87859-8.56009-5.88159
		c-2.97369-2.10973-5.63919-4.58597-8.03015-7.3297c-0.94464-1.08406-1.6777-2.36725-2.41254-3.61543
		c-0.79803-1.35553-0.26776-2.47069,0.7012-3.27156c0.60196-0.49757,1.2598-0.9283,1.85443-1.43384
		c1.06409-0.90465,2.13574-1.80589,3.13406-2.78043c0.67667-0.66048,1.30048-0.71225,2.10233-0.27458
		c0.49802,0.27184,0.92462,0.57097,1.31866,0.9901c1.22403,1.30197,2.3562,2.67972,3.41339,4.11284
		c1.61743,2.19254,3.70645,3.87303,5.84378,5.49449c1.60196,1.21532,3.24896,2.38124,4.94644,3.45792
		c1.78973,1.13518,3.63782,2.18564,5.50601,3.1881c2.82007,1.51326,5.82468,2.55586,8.91956,3.36664
		c1.01859,0.26686,1.991,0.7184,2.97296,1.1142c0.8811,0.35513,1.73788,0.7709,2.62045,1.12206
		c1.41409,0.56262,2.87308,0.90611,4.41306,0.86296c0.55582-0.01556,1.12082,0.03058,1.67068,0.11763
		c1.6268,0.25746,3.22787,0.11168,4.83417-0.18356c0.82025-0.1508,1.6586-0.20633,2.49008-0.29207
		c1.49973-0.15466,3.00095-0.29482,4.50052-0.45076c0.72195-0.07504,1.44339-0.15958,2.16165-0.26338
		c0.55118-0.07967,1.09985-0.18306,1.64465-0.29933c0.92593-0.19759,1.8389-0.52397,2.77332-0.60051
		c2.48959-0.20393,4.80215-1.01907,7.11295-1.86842c0.26221-0.09641,0.51151-0.24727,0.78113-0.3011
		c1.99603-0.39836,3.77701-1.36847,5.64163-2.11319c0.51456-0.20552,0.991-0.51221,1.47223-0.79417
		c0.67358-0.39467,1.33694-0.80693,2.00131-1.21713c0.33228-0.20515,0.67612-0.39821,0.98203-0.63838
		c1.40558-1.10355,2.79312-2.23003,4.19965-3.33237c1.36969-1.0735,2.66733-2.21185,3.59406-3.71259
		c0.08792-0.14238,0.18204-0.28468,0.2944-0.40773c2.01248-2.20377,3.39731-4.83943,5.04517-7.2951
		c1.84592-2.75087,3.19238-4.76283,4.66727-7.70724c1.42642-2.8476,2.80493-8.14285,3.39511-11.28305
		c0.67059-3.56805,1.05402-5.84359,1.8223-9.3908c0.4957-2.28854,1.22992-4.52459,1.82376-6.79292
		c0.49344-1.88474,0.93805-3.78228,1.39362-5.63089c-0.30197-0.28062-0.47903-0.09564-0.61923,0.04771
		c-1.24954,1.27758-2.47552,2.56466-3.58304,3.98385c-1.51016,1.93513-3.21997,3.71442-4.84372,5.56096
		c-1.14307,1.29993-2.28229,2.60327-3.4299,3.8992c-0.33255,0.37553-0.64282,0.79341-1.04269,1.08187
		c-0.78336,0.56516-1.45493,1.21729-1.97372,2.02999c-0.05975,0.09364-0.12219,0.201-0.21146,0.25803
		c-1.24298,0.79367-2.09161,2.00401-3.16449,2.976c-0.28723,0.26024-0.63181,0.45736-0.95111,0.68198
		c-0.45679,0.32135-0.94897,0.60206-1.36646,0.96809c-3.43707,3.01367-7.50854,3.7332-11.89655,3.32341
		c-0.55606-0.05193-1.10663-0.16367-1.66281-0.21323c-2.71771-0.24217-4.69614-1.70164-6.18274-3.86602
		c-1.51004-2.19858-2.38211-4.59757-2.56793-7.33079c-0.15933-2.34335,0.34076-4.55907,0.65344-6.8175
		c0.19849-1.43372,0.53363-2.85137,0.86401-4.26301c0.22681-0.96895,0.55078-1.91514,0.83011-2.86732
		c-0.44543-0.28749-0.64774,0.0853-0.85464,0.2894c-1.35294,1.33472-2.6886,2.68703-4.02637,4.03709
		c-2.35892,2.38058-4.68536,4.79449-7.08856,7.12943c-0.87531,0.85042-1.93719,1.50728-2.90152,2.26817
		c-0.47955,0.37838-0.92072,0.80522-1.39734,1.1876c-1.26263,1.01291-2.51581,2.03916-3.80844,3.01272
		c-1.69476,1.27642-3.61441,2.22639-5.22864,3.63087c-0.80762,0.70267-1.8179,1.10635-2.85117,1.36897
		c-0.72064,0.18317-1.34308,0.5231-1.98224,0.87321c-0.82977,0.45451-1.69672,0.84201-2.55301,1.24704
		c-1.15958,0.54848-2.35117,1.03581-3.48087,1.63945c-2.1084,1.12662-4.32587,1.47853-6.65863,1.05159
		c-1.42883-0.26149-2.84726-0.58821-4.25897-0.9325c-1.13504-0.27682-2.27417-0.51921-3.39664-0.88104
		c-1.35629-0.43719-2.54056-1.14343-3.74194-1.84192c-0.42197-0.24532-0.79712-0.61084-1.11615-0.98717
		c-2.7417-3.23434-4.78577-6.86999-6.10458-10.89747c-0.43387-1.32493-0.71414-2.69977-1.07895-4.0479
		c-0.15689-0.57981-0.19589-1.2076-0.57004-1.68665c-0.59427-0.12456-0.88916,0.26147-1.17398,0.58078
		c-0.74301,0.83286-1.43881,1.70766-2.17532,2.54652c-0.73596,0.83824-1.4975,1.65406-2.24948,2.47821
		c-1.27914,1.40188-2.60025,2.76801-3.82843,4.21315c-1.31833,1.55125-2.88599,2.79723-4.52094,3.97518
		c-2.04904,1.4763-4.23914,2.69709-6.60083,3.60316c-0.20755,0.07962-0.40442,0.19058-0.59903,0.2999
		c-3.11931,1.75195-6.1003,1.35461-9.00584-0.54373c-1.18791-0.77612-1.75317-2.00686-2.37854-3.17843
		c-0.49838-0.93367-0.86499-1.93938-1.26598-2.92294c-0.66786-1.63829-0.77161-3.37753-0.7625-5.10854
		c0.01239-2.35037,0.31036-4.68154,0.71678-6.99763c0.14326-0.81651,0.35243-1.63932,0.09035-2.43982
		c-0.48926-0.20791-0.69643,0.09167-0.85231,0.37827c-1.28769,2.36736-2.99742,4.4458-4.54289,6.63536
		c-0.6416,0.90897-1.37105,1.76126-2.11165,2.59388c-1.1866,1.33408-2.31557,2.72617-3.52087,4.03149
		c-1.8111,1.96138-3.58426,3.98362-5.71135,5.63902c-1.06361,0.82776-2.17604,1.55745-3.41068,2.10135
		c-0.46021,0.20273-0.9193,0.41531-1.35498,0.6651c-2.2164,1.27077-4.59172,1.21864-7.00589,0.86804
		c-0.11023-0.01601-0.22226-0.03722-0.32643-0.07524c-3.15358-1.15134-6.03091-2.74147-7.9825-5.57013
		c-1.50104-2.17566-2.58073-4.55894-3.01016-7.21346c-0.26904-1.66286-0.44012-3.31956-0.38405-5.00478
		c0.03317-0.99828-0.01454-1.99924-0.02505-2.92558c-0.4127-0.28172-0.63062-0.11844-0.79671,0.12157
		c-0.34966,0.50533-0.66806,1.03235-1.01926,1.53657c-1.43506,2.06024-2.80684,4.16963-4.33482,6.15884
		c-2.03983,2.65548-4.05038,5.34079-6.31332,7.81676c-0.60051,0.65704-1.28242,1.23972-1.92807,1.8554
		c-0.28267,0.26956-0.60199,0.50858-0.84686,0.80864c-1.4046,1.72121-3.27849,2.4444-5.42783,2.59882
		c-0.33458,0.02403-0.67162,0.01872-1.00519,0.05104c-2.59491,0.25148-4.52812-0.92799-6.1073-2.84192
		c-1.42809-1.73086-2.51456-3.69376-3.72435-5.57256c-0.06036-0.09373-0.12776-0.18822-0.16292-0.29215
		c-1.30452-3.85816-2.94736-7.63347-3.13179-11.78087c-0.12163-2.73522-0.20955-5.47557,0.69127-8.13812
		c0.35739-1.0563,0.63762-2.14751,0.84785-3.243c0.45732-2.3829,1.46565-4.57018,2.3087-6.81752
		c0.62761-1.6729,1.24438-3.34984,1.86314-5.02604c0.13548-0.3671,0.25075-0.74173,0.38922-1.10764
		c0.61101-1.61435,1.2865-3.20714,1.82794-4.84434c0.88132-2.66492,2.06242-5.18827,3.43474-7.62431
		c1.03371-1.83495,1.56461-3.81927,1.88435-5.87254c0.14162-0.90931-0.23532-1.3453-1.22369-1.36774
		c-1.8446-0.04188-3.69083-0.04414-5.53593-0.02423c-1.67714,0.01809-3.35349,0.10553-5.03064,0.126
		c-0.73901,0.00903-1.24649,0.25948-1.64246,0.92182c-0.63054,1.05466-1.35365,2.04792-1.70641,3.25329
		c-0.1058,0.36154-0.33356,0.71864-0.59099,0.99928c-1.25923,1.37278-2.22487,2.95-3.11726,4.56172
		c-1.43629,2.59396-3.0867,5.04356-4.74774,7.49312c-0.87617,1.29218-1.6012,2.68636-2.40753,4.02664
		c-0.28726,0.47752-0.62404,0.92502-0.91885,1.39828c-0.55995,0.89896-1.10889,1.80486-1.65666,2.71134
		c-0.34583,0.57229-0.60413,1.21856-1.03755,1.71239c-0.89191,1.01614-1.62534,2.12461-2.30324,3.2868
		c-0.39259,0.67307-0.86272,1.30742-1.35028,1.91739c-1.92171,2.40401-3.51091,5.0355-5.24173,7.57033
		c-0.5325,0.7798-1.19777,1.46867-1.79855,2.2022c-0.63576,0.77622-1.25856,1.56319-1.90285,2.33218
		c-0.64401,0.76865-1.31468,1.51487-1.96027,2.28222c-0.50049,0.59496-0.98882,1.20067-1.46695,1.81374
		c-0.47954,0.61485-0.88922,1.29208-1.41916,1.85804c-1.06648,1.13892-2.2124,2.20306-3.29179,3.33037
		c-1.62007,1.69196-3.21178,3.41116-4.8137,5.12045c-0.19053,0.20329-0.33319,0.47663-0.5603,0.61628
		c-1.39203,0.85606-2.41274,2.13969-3.6822,3.1445c-3.43715,2.72064-3.24404,2.9101-8.56766,2.8006
		c-0.92656-0.01904-1.76878-0.29509-2.51804-0.81282c-1.29498-0.89473-2.49424-1.90854-3.32246-3.26991
		c-0.9025-1.48344-1.65975-3.03902-2.08756-4.73761c-0.41029-1.62894-0.75265-3.26969-0.83919-4.95123
		c-0.23589-4.58338-0.17355-9.16172,0.38939-13.72012c0.17773-1.43916,0.53649-2.85508,0.77525-4.28783
		c0.17406-1.04433,0.28838-2.09866,0.42282-3.14937c0.0054-0.04224-0.05623-0.09303-0.14672-0.23235
		c-0.16414,0.11349-0.37228,0.1917-0.4798,0.34193c-1.00777,1.40802-2.03306,2.80547-2.98492,4.25099
		c-1.13648,1.72595-2.20111,3.49907-3.30897,5.24409c-0.17824,0.28072-0.4078,0.53214-0.6336,0.77882
		c-0.9468,1.03424-1.82942,2.10972-2.43687,3.3913c-0.1653,0.34877-0.40975,0.67028-0.66349,0.96503
		c-0.88137,1.02386-1.60524,2.13674-2.17721,3.36726c-0.25313,0.54451-0.69454,1.01116-1.09294,1.47683
		c-1.67054,1.95241-3.31477,3.91569-4.81805,6.01189c-1.39399,1.94381-3.00929,3.74212-4.83485,5.32272
		c-0.29519,0.25558-0.58505,0.5242-0.83846,0.8201c-1.73924,2.03093-4.10918,2.72324-6.60446,2.73026
		c-1.6968,0.00478-3.4659-0.13509-5.10314-0.77786c-1.35163-0.53062-2.71576-1.04425-4.01938-1.67841
		c-1.60619-0.78133-2.79564-2.06044-3.58597-3.64485c-0.67195-1.34714-1.23058-2.75417-1.78102-4.15758
		c-0.55302-1.40997-0.85338-2.89034-1.06984-4.38907c-0.17578-1.21716-0.43082-2.42396-0.5758-3.64426
		c-0.28848-2.42878,0.22088-4.78465,0.74199-7.13532c0.11577-0.52232,0.43496-1.03219,0.19151-1.57671
		c-0.4922-0.11791-0.66601,0.22301-0.85293,0.47572c-1.59398,2.15469-3.1694,4.32311-4.76342,6.47777
		c-0.29814,0.40297-0.65187,0.76522-0.98483,1.14194c-0.40723,0.46083-0.87185,0.88078-1.22071,1.38172
		c-1.40894,2.02307-3.17435,3.74636-4.71487,5.65916c-0.97885,1.21533-2.11607,2.3031-3.18194,3.44841
		c-1.37015,1.47235-2.73935,2.94562-4.11077,4.41679c-0.19036,0.20419-0.36152,0.44661-0.59215,0.58984
		c-2.0332,1.26254-3.94466,2.6987-6.28629,3.46321c-2.24179,0.73193-4.48801,0.81381-6.78196,0.70525
		c-0.38552-0.01823-0.80512-0.06357-1.14152-0.23154c-0.96558-0.48206-2.01481-0.65315-3.035-0.93903
		c-2.16183-0.60571-4.17439-1.50671-6.06909-2.75189c-1.17483-0.77213-2.24831-1.65019-3.33642-2.51763
		c-0.56224-0.4482-1.02342-1.02406-1.52323-1.54896c-0.1147-0.12048-0.1809-0.29013-0.30261-0.40063
		c-2.40271-2.1823-3.53383-5.11279-4.72582-8.00858c-1.3919-3.38142-2.28366-6.89337-2.66779-10.52567
		c-0.26439-2.4994-0.46544-5.00611-0.6563-7.51247c-0.17939-2.3561,0.22162-4.68386,0.39916-7.02364
		c0.32403-4.27209,1.5263-8.34853,2.69523-12.43126c0.38327-1.33871,0.94223-2.62652,1.40275-3.94392
		c0.36868-1.05475,0.7127-2.11816,1.06287-3.17933c1.019-3.08866,2.45268-5.98516,3.99304-8.84223
		c1.27515-2.365,2.80244-4.57037,4.16873-6.87632c0.255-0.43028,0.58518-0.81714,0.89184-1.21542
		c1.53491-1.99339,3.04757-4.00473,4.61959-5.96852c1.15176-1.43885,2.35097-2.84309,3.5874-4.20991
		c1.46064-1.61468,2.93107-3.21719,4.56794-4.67037c2.46755-2.19063,4.98041-4.28444,7.76331-6.09535
		c3.06494-1.99446,6.30509-3.59564,9.62786-5.05796c2.66095-1.17107,5.4064-2.1275,8.20282-2.93254
		c1.13923-0.32797,2.30243-0.49275,3.47955-0.43739c0.71864,0.03379,1.45318,0.13868,2.14012,0.3459
		c1.17311,0.35392,2.30214,0.85263,3.47197,1.21943c1.83469,0.57528,3.23343,1.78126,4.48388,3.14019
		c1.92912,2.09644,3.78683,4.26064,5.62045,6.44178c0.7524,0.89496,1.37785,1.89904,2.03443,2.87143
		c0.56155,0.83163,1.06103,1.69521,1.76013,2.44049c0.40383,0.43047,0.6377,1.04316,0.8696,1.60615
		c0.27217,0.66064,0.12306,1.09667-0.49227,1.39623c-0.64962,0.31624-1.33009,0.5886-2.02276,0.79318
		c-1.81883,0.53716-3.65151,1.02752-5.47903,1.53521c-0.26934,0.07483-0.5393,0.14851-0.81147,0.21215
		c-0.574,0.1342-1.0888,0.04885-1.57932-0.32108c-0.62827-0.47384-1.19957-0.96822-1.64887-1.64083
		c-1.08421-1.62295-2.00506-3.36412-3.36984-4.79087c-0.19245-0.2012-0.3326-0.46184-0.54745-0.63076
		c-1.63302-1.28405-3.00329-2.84122-4.48584-4.28143c-1.87532-1.82177-4.16767-2.72499-6.71572-3.12361
		c-0.84883-0.13279-1.58349,0.04206-2.20202,0.54674c-1.05345,0.85958-2.2887,1.37154-3.46541,2.0022
		c-0.63766,0.34174-1.26589,0.72716-1.82678,1.18134c-1.86693,1.51181-3.76654,2.9932-5.52893,4.62124
		c-1.55646,1.43785-3.00972,3.00144-4.3947,4.60768c-2.1885,2.53815-4.29241,5.14981-6.40709,7.75069
		c-0.45541,0.56012-0.82638,1.19363-1.19847,1.81594c-1.00278,1.67698-1.9847,3.36644-2.9758,5.0504
		c-0.36864,0.62646-0.73733,1.25293-1.11141,1.87617c-0.11495,0.19154-0.28118,0.35811-0.36749,0.56022
		c-1.07131,2.5091-2.68622,4.76866-3.34256,7.47219c-0.51583,2.12453-1.47268,4.09879-2.26052,6.13029
		c-1.54531,3.98434-2.44998,8.12564-2.97199,12.35759c-0.08205,0.66528-0.17668,1.32925-0.24534,1.99588
		c-0.07447,0.72234-0.16173,1.44622-0.17984,2.17101c-0.07406,2.96634,0.13494,5.92484,0.46577,8.8657
		c0.49006,4.35629,1.53028,8.59013,3.45751,12.5498c1.72466,3.54369,4.34853,6.20257,8.08997,7.62881
		c1.14648,0.43704,2.31348,0.83041,3.49212,1.17107c3.13122,0.90502,6.04316,0.4045,8.84343-1.27208
		c1.75485-1.0507,3.25621-2.31604,4.57912-3.86803c1.882-2.20791,3.86625-4.32848,5.79823-6.49406
		c0.33378-0.37416,0.6393-0.77606,0.93293-1.18312c1.43684-1.99204,2.86753-3.98851,4.29462-5.98756
		c0.25955-0.36358,0.49887-0.74218,0.73589-1.12113c1.68853-2.69984,3.52023-5.32355,5.01654-8.12619
		c1.31554-2.46391,2.6999-4.88464,4.08606-7.30563c0.69292-1.2102,1.52737-2.33868,2.23893-3.53905
		c0.88218-1.48824,1.69729-3.0161,2.55276-4.52035c0.66318-1.16608,1.32435-2.33404,2.02116-3.48003
		c1.19003-1.95717,2.43097-3.88364,3.60285-5.85139c0.57059-0.95811,1.0478-1.97331,1.54093-2.97564
		c0.3992-0.81146,0.87947-1.5418,1.57259-2.1464c0.45901-0.40034,0.82449-0.90843,1.22865-1.37106
		c0.84465-0.96685,1.67927-1.94263,2.53707-2.89762c0.17995-0.20032,0.423-0.36941,0.66961-0.48009
		c1.1398-0.51159,2.08904-1.28912,3.01681-2.10072c1.4381-1.25809,1.91187-1.26909,3.41428,0.10347
		c0.20575,0.18795,0.39165,0.3997,0.57199,0.6129c0.50832,0.60091,0.68256,1.27323,0.39245,2.02869
		c-0.1199,0.31225-0.22654,0.6352-0.39072,0.92398c-1.90537,3.35115-3.80042,6.70846-5.74191,10.03864
		c-0.93314,1.60064-1.73518,3.2541-2.37611,4.98945c-0.11605,0.3142-0.1925,0.66323-0.38351,0.92625
		c-1.15795,1.59473-1.88962,3.41568-2.75778,5.16111c-1.29244,2.59844-2.5605,5.21049-3.76941,7.84861
		c-1.37642,3.00363-2.21128,6.20152-3.24764,9.32812c-0.54704,1.65034-0.92023,3.33371-1.243,5.02373
		c-0.20663,1.08185-0.17242,2.22849-0.10851,3.33817c0.0705,1.2234,0.30424,2.43698,0.45672,3.65611
		c0.31694,2.53371,1.28515,4.84972,2.37256,7.1259c0.32681,0.68407,0.84821,1.21396,1.54085,1.47868
		c1.40849,0.53831,2.828,1.05447,4.35139,1.20374c1.84096,0.1804,3.50204-0.37104,4.79931-1.58312
		c1.83272-1.71236,3.49522-3.60802,5.21059-5.4439c0.30061-0.32172,0.52015-0.72472,0.74883-1.1071
		c0.68989-1.15366,1.38975-2.29688,2.39926-3.21233c0.16438-0.1491,0.30766-0.32627,0.43887-0.50636
		c1.48032-2.03184,2.97355-4.05463,4.42673-6.10577c0.77474-1.09354,1.47276-2.2412,2.21529-3.35786
		c1.17506-1.76706,2.39259-3.50699,3.52686-5.29968c0.83574-1.32082,1.69524-2.65219,2.31233-4.07912
		c0.73927-1.70943,1.74711-3.24184,2.69147-4.82226c0.40115-0.67134,0.86386-1.32239,1.15234-2.04134
		c0.7364-1.83527,1.89028-3.4176,2.9072-5.08592c0.5792-0.95016,1.15382-1.9222,1.56758-2.94997
		c0.75596-1.87767,1.78893-3.59858,2.77579-5.34982c0.24536-0.43539,0.46716-0.89056,0.63885-1.35897
		c0.14413-0.39326-0.11278-0.77585-0.53779-0.88829c-0.21453-0.05676-0.43791-0.10284-0.65867-0.10986
		c-1.73113-0.05507-3.46394-0.07117-5.19363-0.1538c-2.62224-0.12527-5.24308-0.28397-7.86273-0.45536
		c-0.4383-0.02868-0.8847-0.14879-1.29723-0.30576c-0.62411-0.23747-0.82605-0.72793-0.63397-1.35272
		c0.01641-0.05335,0.02818-0.10979,0.05424-0.15827c1.16258-2.16173,2.14944-4.42509,3.7513-6.33083
		c0.35605-0.42358,0.76514-0.61437,1.28587-0.67724c2.43779-0.29432,4.88554-0.21053,7.33021-0.18506
		c3.07379,0.03201,6.14756,0.08935,9.22043,0.16993c0.76404,0.02003,1.30106-0.27405,1.66309-0.90181
		c0.6974-1.20937,1.37365-2.43104,2.04984-3.6525c0.21599-0.39018,0.39996-0.79793,0.60561-1.19399
		c1.33878-2.57854,2.70762-5.14203,4.00419-7.74159c0.44583-0.89389,0.64108-1.91155,1.07523-2.81273
		c1.18599-2.46187,2.3728-4.92772,3.68579-7.32263c0.99084-1.80735,2.15318-3.52332,3.28885-5.24725
		c0.39461-0.59901,0.88091-1.16661,1.42426-1.63338c1.81836-1.56213,3.67952-3.07454,5.53067-4.59823
		C145.37558,24.8107,145.58859,24.72882,145.89479,24.55674z M306.7789,69.75223c-0.74106,0.12608-0.95297,0.66127-1.23685,1.13705
		c-0.59976,1.00504-1.2077,2.0055-1.83057,2.99635c-0.56454,0.89806-1.26334,1.7298-1.70569,2.68238
		c-0.66504,1.43216-1.52008,2.72715-2.41754,4.00919c-0.3837,0.54814-0.73834,1.12019-1.06342,1.70515
		c-0.9498,1.7093-1.94162,3.38755-3.23145,4.87155c-0.25534,0.29379-0.48251,0.61621-0.69214,0.94489
		c-0.93027,1.45855-1.85037,2.92358-2.77173,4.38782c-0.17828,0.28333-0.38715,0.55743-0.50632,0.86508
		c-0.11719,0.3026-0.26617,0.68371-0.17764,0.95826c0.27118,0.84083-0.05997,1.52737-0.38504,2.24388
		c-0.36911,0.81366-0.71149,1.63947-1.06543,2.46001c-0.68881,1.5969-1.12909,3.26469-1.44852,4.97066
		c-0.4791,2.55869,0.15933,5.02191,0.79337,7.4358c0.54916,2.09074,1.17719,4.17893,2.20877,6.13126
		c0.57611,1.09031,1.28378,2.09123,1.85071,3.17554c0.57843,1.10638,1.46039,1.8114,2.59442,2.25099
		c0.57291,0.22209,1.13348,0.48864,1.72229,0.65489c2.04382,0.5771,4.04947,0.75612,5.97531-0.47722
		c0.88898-0.56933,1.88364-0.97125,2.81607-1.47562c2.23856-1.21091,3.8598-2.95471,4.76648-5.37362
		c0.49524-1.32127,0.84241-2.66045,0.96301-4.0573c0.12964-1.50152,0.11484-3.02258,0.34494-4.50694
		c0.57205-3.69027-0.02069-7.35697-0.08881-11.03342c-0.00308-0.16592-0.03717-0.33398-0.0769-0.49614
		c-0.50488-2.06209-1.03369-4.11855-1.51633-6.18579c-0.71078-3.04444-1.41119-6.09171-2.06894-9.14792
		c-0.21045-0.97768-0.25787-1.98958-0.40735-2.98168c-0.06601-0.43822-0.18259-0.87136-0.30713-1.29777
		c-0.42468-1.45374-0.7363-2.92261-0.71146-4.44884c0.00906-0.55809,0.0076-1.11946-0.04483-1.67406
		C307.03668,70.22765,306.87619,69.99156,306.7789,69.75223z"/>
	<path class="st2" d="M102.42188,47.30665c-0.74093,0.58059-1.6665,0.57368-2.53137,0.75596
		c-1.47359,0.31055-2.97794,0.50653-4.42276,0.91534c-2.761,0.78124-5.04731,0.07996-7.01984-1.92687
		c-1.19518-1.21594-1.89622-2.60225-1.6713-4.35452c0.0213-0.16595,0.03521-0.33334,0.04265-0.50051
		c0.07926-1.77793,0.95177-3.12872,2.15733-4.38536c1.77351-1.84863,3.9235-2.89868,6.38399-3.41949
		c0.87377-0.18496,1.77498-0.30149,2.60886-0.60159c1.9692-0.70866,3.72114-0.16678,5.43166,0.77341
		c0.19083,0.10489,0.41118,0.23997,0.50706,0.42003c0.62576,1.17521,1.54685,2.19836,1.82752,3.5533
		c0.11312,0.54617,0.27422,1.08222,0.4034,1.62527c0.45363,1.90644-0.29408,3.84251-1.91395,4.96328
		c-0.09154,0.06332-0.1951,0.10903-0.28856,0.16982C102.80846,46.02839,102.80869,46.02873,102.42188,47.30665z"/>
</g>
</svg>
