<?xml version="1.0" encoding="utf-8"?>
<!-- Generator: Adobe Illustrator 25.4.1, SVG Export Plug-In . SVG Version: 6.00 Build 0)  -->
<svg version="1.1" id="Layer_1" xmlns="http://www.w3.org/2000/svg" xmlns:xlink="http://www.w3.org/1999/xlink" x="0px" y="0px"
	 viewBox="0 0 289.34711 188.99892" style="enable-background:new 0 0 289.34711 188.99892;" xml:space="preserve">
<style type="text/css">
	.st0{fill:#EFEDE5;}
	.st1{fill:#B48039;}
	.st2{fill:#AD8246;}
	.st3{fill:none;stroke:#B48039;stroke-width:0.99892;stroke-miterlimit:10;}
</style>
<path class="st1" d="M98.39858,134.19693c0.16639-0.45157,0.27459-0.96056,0.52515-1.38567
	c0.82271-1.39592,1.69792-2.76089,2.55109-4.13887c0.23531-0.38007,0.46289-0.76495,0.69639-1.14619
	c0.20417-0.33351,0.39707-0.67519,0.62071-0.99524c0.46837-0.67026,1.09731-0.89027,1.90607-0.70636
	c1.47449,0.33535,2.95207,0.66321,4.43937,0.93353c0.65282,0.11868,1.33366,0.12955,1.99999,0.11351
	c0.58516-0.0141,1.08569-0.28367,1.38988-0.81451c0.61166-1.06733,1.31155-2.09842,1.79494-3.22195
	c1.03708-2.41043,1.96677-4.86735,2.92281-7.31212c0.16125-0.41233,0.3345-0.86084,0.32736-1.28976
	c-0.01561-0.93813,0.3752-1.72753,0.69146-2.5676c0.76916-2.04307,1.50501-4.10091,2.17538-6.17828
	c0.69012-2.13883,1.54377-4.20051,2.58591-6.18855c0.15505-0.29581,0.28417-0.60898,0.3909-0.9257
	c0.75077-2.22741,1.49642-4.45655,2.23163-6.68915c0.08136-0.24711,0.08648-0.51929,0.15953-0.98989
	c-0.36948,0.22164-0.5922,0.29203-0.72054,0.44276c-0.68609,0.80587-1.31807,1.65948-2.02798,2.44292
	c-0.71079,0.78438-1.45968,1.54099-2.24824,2.24677c-1.41523,1.26671-2.87446,2.47762-4.19691,3.85291
	c-1.15916,1.20546-2.51635,2.21982-3.6842,3.41785c-1.69541,1.73923-3.82787,2.91497-5.6227,4.5213
	c-0.45057,0.40323-1.02689,0.67067-1.55915,0.97665c-0.5341,0.30699-1.10628,0.5511-1.6254,0.88016
	c-2.31734,1.4688-4.83424,2.32312-7.5761,2.44663c-0.99316,0.04474-1.66226,0.48896-2.2217,1.27781
	c-1.35924,1.91663-2.7291,3.8278-4.16082,5.69032c-1.09,1.41799-2.28272,2.73929-3.86658,3.67109
	c-1.01092,0.59473-1.92372,1.35416-2.69424,2.26108c-0.1807,0.21271-0.35737,0.45327-0.58871,0.59456
	c-1.41065,0.86176-2.49438,2.05149-3.50852,3.3338c-1.04873,1.3261-2.3587,2.3985-3.7056,3.39511
	c-2.06258,1.52615-4.39921,2.22501-6.95847,1.69695c-1.24921-0.25774-2.45485-0.73535-3.66978-1.14445
	c-0.31177-0.10498-0.61798-0.28778-0.86899-0.50235c-2.30483-1.97029-4.46863-4.06764-6.03423-6.70763
	c-0.76123-1.28357-1.045-2.71098-1.30031-4.14308c-0.23574-1.32234-0.39065-2.65897-0.5947-3.98721
	c-0.05072-0.33012-0.13085-0.66011-0.23987-0.97552c-0.08916-0.25803-0.24153-0.49419-0.42039-0.84782
	c-0.3217,0.15191-0.66465,0.22064-0.86839,0.42692c-0.70759,0.71619-1.34955,1.4968-2.04962,2.2209
	c-0.62021,0.64155-1.28146,1.24368-1.93014,1.85739c-1.13851,1.07719-2.26805,2.16438-3.42616,3.22017
	c-1.07411,0.97922-2.17677,1.92731-3.27382,2.88107c-1.22532,1.06525-2.4576,2.12251-3.68849,3.18135
	c-1.28923,1.10902-2.73383,1.92924-4.3573,2.46231c-1.16751,0.38338-2.31193,0.82935-3.2843,1.64185
	c-0.65361,0.54619-1.44761,0.82542-2.30822,0.92943c-0.60897,0.07358-1.2119,0.21399-1.81013,0.3558
	c-1.07547,0.25494-2.1172,0.13594-3.12501-0.27353c-0.72518-0.29466-1.42117-0.66072-2.14477-0.95966
	c-0.77557-0.32037-1.54597-0.74188-2.35775-0.86871c-2.06707-0.32298-3.73465-1.44545-5.46131-2.47499
	c-0.57568-0.34325-1.15046-0.69147-1.74684-0.99597c-1.43758-0.73412-2.6154-1.70892-3.22578-3.26097
	c-0.38109-0.96897-1.13689-1.66902-1.86293-2.35621c-1.12587-1.06562-1.88032-2.33916-2.50446-3.73803
	c-0.91414-2.04888-1.73491-4.11642-2.20003-6.32471c-0.34877-1.65573-0.52687-3.31705-0.54041-5.00319
	c-0.01123-1.40013-0.03452-2.80014-0.04735-4.20029c-0.00204-0.22301,0.00389-0.44926,0.03832-0.66897
	c0.31175-1.98856,0.69231-3.96863,0.93094-5.96572c0.26092-2.18365,0.86769-4.27821,1.45801-6.37783
	c0.4842-1.72237,0.98204-3.44708,1.80962-5.05022c0.12822-0.24841,0.27194-0.49979,0.33881-0.76723
	c0.68857-2.75441,2.26711-5.10445,3.44796-7.63481c0.42548-0.91166,0.86252-1.82038,1.23314-2.75473
	c0.89115-2.24678,2.03262-4.36919,3.28767-6.42068c1.07576-1.75842,2.33131-3.40594,3.47311-5.12524
	c0.49453-0.74463,0.90653-1.54443,1.34958-2.3228c0.77515-1.36198,1.54386-2.72764,2.31995-4.08908
	c0.08263-0.14498,0.19426-0.27386,0.2961-0.40741c1.52786-2.00366,3.0616-4.00288,4.58233-6.01197
	c0.70942-0.9372,1.38587-1.8993,2.09282-2.83841c0.40305-0.53536,0.80157-1.08151,1.26385-1.56361
	c2.13116-2.22236,4.19222-4.52365,6.4547-6.60504c2.30272-2.11838,4.67009-4.18565,7.3214-5.89227
	c1.5057-0.96918,2.89278-2.13127,4.43409-3.03448c2.65029-1.55312,5.45636-2.62557,8.62989-1.91732
	c0.50804,0.11335,0.98978,0.07088,1.48549-0.09049c0.98649-0.32108,2.00406-0.28662,2.98854-0.03972
	c1.35814,0.34057,2.69746,0.76132,3.91552,1.4853c0.19272,0.11453,0.37483,0.25324,0.57883,0.34145
	c3.07668,1.32976,5.55318,3.54256,8.1494,5.57118c0.74447,0.58171,1.38315,1.30991,2.01759,2.01818
	c0.60864,0.6795,1.3242,1.17468,2.10502,1.63865c1.20057,0.71337,2.34171,1.53056,3.48029,2.34264
	c0.50426,0.3597,0.89297,0.84084,0.90086,1.58522c-0.99221,0.66202-2.13003,0.97436-3.18208,1.46353
	c-0.97752,0.45454-5.93691,1.60529-6.72668,2.1367c-1.21197,0.81554-2.11854,0.74837-3.08041-0.37431
	c-0.58025-0.67722-1.10465-1.41632-1.55946-2.18372c-0.75615-1.27576-1.7667-2.29496-2.89381-3.23501
	c-1.87003-1.55967-3.95219-2.72868-6.22291-3.59329c-0.56968-0.21692-1.08265-0.58215-1.62326-0.87624
	c-1.23477-0.6717-2.50504-1.2396-3.91291-1.4578c-0.49213-0.07626-0.99256-0.19337-1.44853-0.3874
	c-0.80833-0.34393-1.52772-0.22806-2.22146,0.25585c-1.56097,1.08887-3.14427,2.14745-4.67707,3.27467
	c-4.46471,3.28341-8.13083,7.34259-11.37485,11.80674c-0.42754,0.58836-0.92952,1.12365-1.3436,1.72059
	c-1.0847,1.56372-2.13341,3.15233-3.20865,4.7227c-1.04295,1.52317-2.08557,3.04702-3.15606,4.55085
	c-1.75749,2.46894-3.31108,5.05856-4.69869,7.75127c-1.02477,1.98859-2.13188,3.9373-3.0887,5.9576
	c-0.95788,2.02251-1.7549,4.12052-2.65793,6.16983c-1.2923,2.93262-2.07967,6.02493-2.93062,9.09746
	c-1.03828,3.74891-1.56932,7.5844-1.48271,11.46062c0.05103,2.28255,0.49501,4.55856,0.80715,6.83135
	c0.06692,0.48718,0.30998,0.95503,0.50243,1.41914c0.42863,1.03357,0.96575,2.0315,1.29493,3.09467
	c0.44727,1.44464,1.27397,2.61035,2.31481,3.64825c0.56105,0.55948,1.07858,1.12659,1.38064,1.87628
	c0.23832,0.59148,0.7055,0.99026,1.2405,1.3279c1.61074,1.01656,3.20688,2.05629,4.81934,3.07007
	c0.3292,0.20698,0.69338,0.37262,1.06091,0.50191c1.63766,0.57613,3.26994,1.17245,4.92806,1.6841
	c1.6616,0.51271,3.31437,0.35143,4.9362-0.26483c1.46533-0.55678,2.93929-1.09158,4.4166-1.61593
	c0.86429-0.30679,1.58156-0.83163,2.26235-1.42163c1.69145-1.46577,3.39843-2.91431,5.06453-4.40837
	c0.62249-0.55826,1.14692-1.22547,1.71941-1.83991c1.60596-1.72363,3.09429-3.5332,4.38734-5.51347
	c0.85504-1.30944,1.84811-2.53336,2.8343-3.75108c0.7845-0.96869,1.38304-1.97073,1.70583-3.21634
	c0.91613-3.53487,2.3101-6.89516,3.96921-10.15299c1.24461-2.44398,2.35024-4.9584,3.57-7.41547
	c1.54723-3.11668,3.34286-6.07973,5.58433-8.76012c1.57847-1.88763,3.08739-3.83398,4.68539-5.70454
	c1.23526-1.44591,2.5462-2.81914,4.07485-3.98438c1.24472-0.94884,2.37878-2.04207,3.57129-3.06033
	c1.71707-1.46617,3.64993-2.61452,5.714-3.48028c0.95068-0.39878,2.07437-0.39478,3.12366-0.54524
	c0.66016-0.09468,1.33776-0.08611,1.98994-0.21374c1.31516-0.25738,2.56789-0.13078,3.7639,0.46788
	c2.83562,1.41929,5.37796,3.23937,7.40508,5.69394c0.63419,0.76789,1.16618,1.66285,1.55769,2.57961
	c0.81157,1.90039,1.59705,3.82496,1.80051,5.91673c0.13011,1.33764,0.30901,2.67392,0.35777,4.01476
	c0.02804,0.77099-0.12202,1.55655-0.2589,2.32359c-0.24564,1.37637-0.51622,2.74943-0.82182,4.1137
	c-0.82085,3.66441-1.68987,7.32196-3.29318,10.7398c-0.59069,1.25922-1.40126,2.4147-2.10124,3.62346
	c-0.44849,0.77444-0.90408,1.54662-1.30753,2.34457c-0.29031,0.5742-0.00005,1.02264,0.62325,1.03611
	c0.27829,0.006,0.57323,0.01643,0.83386-0.063c1.44192-0.4393,2.92963-0.75993,4.23624-1.56708
	c0.1899-0.1173,0.37962-0.24276,0.58504-0.32593c2.04342-0.82726,3.77721-2.17314,5.61234-3.34811
	c0.27928-0.17879,0.52558-0.41382,0.77037-0.64095c1.27122-1.17952,2.50684-2.39969,3.81657-3.53452
	c0.72565-0.62874,1.35371-1.31451,1.9511-2.0632c2.06023-2.58202,4.14065-5.1497,6.27998-7.66618
	c1.13096-1.33032,2.10999-2.74962,3.00851-4.23684c0.60701-1.00471,1.20685-2.00163,2.0862-2.827
	c0.46803-0.43932,0.78864-1.08649,1.04167-1.69555c1.24602-2.99928,2.45055-6.01584,3.662-9.02937
	c0.37555-0.93414,0.72754-1.87772,1.08905-2.81742c1.69025-4.39304,3.61679-8.68297,5.62311-12.93888
	c0.33328-0.70694,0.59543-1.44851,0.87003-2.18173c0.33298-0.88901,0.57124-1.82099,0.97816-2.67345
	c1.44827-3.03407,2.69769-6.14986,3.96382-9.26123c0.84477-2.07586,1.68105-4.14543,2.31387-6.30227
	c0.34431-1.17369,0.9649-2.26419,1.42491-3.4067c0.45898-1.13991,0.85687-2.30437,1.31357-3.44524
	c0.22682-0.56666,0.45918-1.15072,0.80429-1.64669c0.95865-1.37762,1.99312-2.70226,2.96611-4.07024
	c0.4621-0.64969,0.9875-1.21333,1.65926-1.64291c1.69273-1.08252,3.3829-2.16905,5.07376-3.25454
	c0.14142-0.0908,0.27493-0.19503,0.42084-0.27758c0.92252-0.52204,1.5047-0.48645,2.26276,0.28367
	c1.07838,1.09556,1.87982,2.3712,2.161,3.91345c0.12036,0.66029,0.24361,1.32929,0.2579,1.99662
	c0.01044,0.48772-0.13576,0.98364-0.24699,1.46791c-0.13736,0.59805-0.39131,1.17972-0.452,1.78286
	c-0.12665,1.25864-0.57605,2.39285-1.17374,3.47796c-0.51784,0.94017-0.89932,1.92098-1.147,2.9667
	c-0.21947,0.92675-0.62645,1.77436-1.07677,2.62635c-0.6237,1.18002-1.108,2.45163-1.49661,3.73121
	c-0.23416,0.7709-0.52083,1.47719-1.01654,2.08975c-1.06755,1.31915-1.79042,2.83817-2.57928,4.32116
	c-0.34071,0.64049-0.68777,1.28068-1.07973,1.89029c-1.33482,2.0761-2.57382,4.19798-3.40735,6.53621
	c-0.37915,1.0636-0.92787,2.02217-1.7249,2.85294c-1.9606,2.0436-3.41541,4.42638-4.4939,7.03488
	c-0.41438,1.00227-1.01405,1.8467-1.73083,2.6536c-1.53467,1.72765-2.61305,3.76283-3.71463,5.77686
	c-0.75002,1.37131-1.51562,2.73431-2.24637,4.11578c-0.39194,0.74104-0.82681,1.48264-1.06538,2.27714
	c-0.69463,2.31318-1.59956,4.52621-2.67139,6.69238c-0.88962,1.79793-1.58194,3.69408-2.34859,5.55215
	c-0.89664,2.17308-1.74789,4.36166-2.54988,6.57404c-0.74156,2.04563-1.78284,3.98195-2.67581,5.97372
	c-0.29715,0.66291-0.61223,1.33007-0.79933,2.02744c-0.3945,1.47055-1.01649,2.84627-1.61241,4.23605
	c-0.26467,0.61727-0.56128,1.2295-0.74186,1.87251c-0.56499,2.01186-1.51482,3.84773-2.44393,5.703
	c-0.52259,1.04349-0.85064,2.18301-1.29365,3.26809c-0.50457,1.23589-0.96387,2.49922-1.58403,3.67626
	c-0.54935,1.04257-1.08552,2.05855-1.4086,3.21013c-0.33028,1.17727-0.87663,2.29391-1.32767,3.43739
	c-0.11948,0.30293-0.2364,0.60689-0.32465,0.83366c0.20147,0.4959,0.55269,0.51082,0.88311,0.50518
	c2.63132-0.04478,5.26571-0.05144,7.86724-0.5395c0.27403-0.05141,0.55498-0.07885,0.83382-0.08955
	c2.0887-0.08016,3.91277-0.83418,5.55695-2.10441c1.99295-1.53964,3.97398-3.07957,5.82668-4.80183
	c1.18291-1.09962,2.53256-2.02747,3.55653-3.30234c0.59421-0.73981,1.12297-1.53231,1.71954-2.27011
	c1.54808-1.91469,3.12622-3.8051,4.67242-5.72131c0.42041-0.52106,0.86333-1.05784,1.13071-1.66068
	c0.41895-0.9446,1.05582-1.71825,1.71306-2.47247c1.2533-1.43831,2.40907-2.94064,3.4304-4.55376
	c0.41722-0.65898,0.89897-1.29784,1.44923-1.84794c1.56221-1.5618,2.67415-3.44576,3.84526-5.28121
	c1.35315-2.12076,2.61143-4.30208,3.91444-6.45495c0.17393-0.28736,0.32262-0.61159,0.56172-0.83418
	c1.00984-0.94006,1.54439-2.16147,2.16522-3.35432c0.4326-0.83116,1.07896-1.56466,1.69977-2.2812
	c0.99286-1.14595,1.90367-2.28895,2.42213-3.77974c0.35545-1.02208,1.11246-1.93855,1.8188-2.79611
	c0.93956-1.14073,1.49774-2.48023,2.19891-3.74601c0.40535-0.73176,0.68562-1.54932,1.17729-2.21345
	c1.18546-1.60139,1.87842-3.42496,2.60103-5.24635c0.39163-0.98711,0.85565-1.94527,1.2684-2.92431
	c0.45665-1.08325,0.85025-2.19487,1.3455-3.25962c0.99211-2.13298,2.03781-4.24099,3.0558-6.36197
	c1.4285-2.97627,2.89899-5.93364,4.26083-8.94018c0.8998-1.9865,1.64082-4.04496,2.45198-6.07157
	c0.14542-0.36331,0.25403-0.74532,0.43448-1.08998c1.01787-1.94422,1.80449-3.97563,2.27769-6.11804
	c0.36635-1.65865,1.1772-3.13905,1.79529-4.69668c0.30946-0.77991,0.66093-1.54324,0.96698-2.32442
	c0.44978-1.14797,0.88284-2.29924,1.61133-3.31407c0.26001-0.36219,0.53854-0.74939,0.65678-1.16806
	c0.40826-1.44585,1.4503-2.38049,2.56273-3.23312c2.32191-1.7797,4.81924-3.24429,7.6163-4.18654
	c1.02773-0.34622,1.92697-0.0988,2.70325,0.42064c0.65849,0.44066,0.86569,1.28133,0.8322,2.09532
	c-0.01355,0.32894-0.12735,0.6597-0.23207,0.97761c-0.18236,0.55357-0.17133,1.08645,0.00412,1.64576
	c0.56119,1.78895,0.43848,3.51733-0.41524,5.21495c-0.32173,0.63978-0.44263,1.37934-0.66786,2.06923
	c-0.19014,0.58233-0.33667,1.19028-0.61229,1.73092c-0.55736,1.09338-1.30901,2.08004-1.65454,3.29272
	c-0.11508,0.40384-0.48857,0.74215-0.77037,1.08892c-1.11371,1.37046-1.90953,2.89003-2.25261,4.63574
	c-0.16409,0.83503-0.49625,1.59488-1.03072,2.27309c-0.44983,0.57081-0.85806,1.17572-1.26308,1.78003
	c-0.21652,0.32304-0.45914,0.65585-0.56526,1.02053c-0.3205,1.10133-0.91365,2.03298-1.63,2.90651
	c-1.26019,1.5367-2.12836,3.28851-2.75143,5.16269c-0.23376,0.70317-0.59764,1.31013-1.021,1.91265
	c-1.12646,1.60316-2.20059,3.24306-3.29985,4.86543c-0.21938,0.32374-0.42725,0.66318-0.6925,0.94666
	c-1.74135,1.86095-3.02016,4.01609-4.08749,6.31298c-0.21069,0.45346-0.46593,0.89283-0.75075,1.30397
	c-0.8947,1.29153-1.79416,2.58787-2.34517,4.06548c-1.46997,3.94199-3.55302,7.60347-5.19138,11.46566
	c-0.98801,2.32909-2.14738,4.54942-3.54565,6.65876c-0.55164,0.83221-1.04674,1.74602-1.34207,2.69301
	c-0.38885,1.2468-1.03319,2.34601-1.60973,3.49123c-1.00677,1.99977-1.99121,4.01083-2.98209,6.01859
	c-0.14853,0.30097-0.24202,0.63618-0.42737,0.91074c-1.28711,1.9065-2.22479,4.00705-3.3222,6.01685
	c-1.07149,1.96233-1.97655,4.01668-2.92744,6.04342c-1.16463,2.48235-2.38072,4.94505-3.42714,7.47717
	c-1.04752,2.53479-2.18915,5.0253-3.26717,7.54347c-0.64075,1.49667-1.33348,2.95444-2.08737,4.39105
	c-0.31117,0.59296-0.63185,1.18634-0.87436,1.80833c-0.21252,0.5451,0.12514,1.02197,0.73126,1.0434
	c1.12111,0.03963,2.22968,0.00285,3.27551-0.52766c1.59468-0.8089,3.27977-1.43196,4.75867-2.47809
	c0.67992-0.48097,1.50616-0.75128,2.20491-1.21021c2.29704-1.50863,4.4192-3.23932,6.38-5.1683
	c0.4774-0.46968,0.96895-0.93913,1.51491-1.32175c0.88405-0.61963,1.63412-1.35804,2.27673-2.21666
	c0.63866-0.85331,1.38029-1.60246,2.14246-2.35183c1.23006-1.20934,2.3175-2.56446,3.4556-3.86639
	c1.10539-1.26454,2.20337-2.53564,3.29518-3.81193c0.47232-0.55213,0.95264-1.10188,1.37408-1.69215
	c1.00887-1.41304,1.9995-2.8397,2.96967-4.27962c0.75043-1.11378,1.52641-2.21925,2.16534-3.39661
	c0.56497-1.04108,1.18492-2.0301,1.93605-2.9379c0.65175-0.78764,1.11761-1.67473,1.49059-2.61761
	c0.84332-2.13192,2.25948-3.88465,3.93094-5.37239c1.07294-0.95498,1.93506-2.02374,2.63301-3.22454
	c2.29677-3.95147,5.09161-7.46777,8.4763-10.56297c1.82233-1.66643,3.70561-3.2438,5.65144-4.74715
	c1.72923-1.33598,3.58545-2.49348,5.65475-3.26212c0.36711-0.13635,0.72595-0.29743,1.08098-0.4634
	c0.65707-0.30716,1.27855-0.74632,1.96779-0.91866c2.27531-0.56886,4.46259-1.49553,6.84239-1.65385
	c1.19887-0.07975,2.34056,0.02901,3.45209,0.50325c2.4512,1.04578,4.30716,2.7825,5.78922,4.95288
	c0.1507,0.2207,0.27541,0.5172,0.27054,0.77586c-0.01889,1.00436-0.00276,2.02349-0.17209,3.00747
	c-0.23703,1.37731-0.59851,2.73615-0.96553,4.08695c-0.18954,0.69757-0.50047,1.36285-0.76826,2.03809
	c-0.0822,0.20726-0.23067,0.38974-0.3022,0.59947c-1.12546,3.29945-3.19327,6.00342-5.40881,8.61961
	c-0.6494,0.76682-1.22188,1.59859-1.86557,2.37058c-0.42743,0.51258-0.91769,0.9729-1.38168,1.45484
	c-1.16528,1.21039-2.33145,2.41392-3.73335,3.36964c-0.64241,0.43795-1.19772,1.00258-1.79942,1.50145
	c-2.50732,2.07874-5.19664,3.87613-8.08191,5.39909c-1.77966,0.93936-3.59872,1.79897-5.34363,2.81786
	c-1.58362,0.92478-3.2522,1.75845-5.03358,2.29157c-0.42714,0.12782-0.86584,0.23786-1.30708,0.29191
	c-0.45499,0.05575-0.91374-0.00627-1.18195-0.45558c-0.31523-0.52805-0.28902-1.06625,0.02765-1.58893
	c0.05734-0.09461,0.1243-0.19879,0.21396-0.25602c0.91743-0.58549,1.55345-1.43049,2.17416-2.29761
	c0.15871-0.2217,0.41481-0.37233,0.6196-0.56268c0.57191-0.53159,5.9642-2.60409,6.48776-2.8724
	c1.59468-0.81728,3.20898-1.59619,4.80559-2.40977c0.34605-0.17635,0.69649-0.38956,0.96562-0.66363
	c1.33142-1.35589,2.82007-2.56238,3.88809-4.17052c0.58553-0.88159,1.17033-1.77588,2.06064-2.41086
	c0.22034-0.15714,0.3732-0.41508,0.54091-0.63883c2.793-3.72655,4.79247-7.80533,5.50589-12.45102
	c0.05928-0.38602,0.12321-0.78017,0.10719-1.16733c-0.05649-1.36431-0.6035-2.43912-1.75998-3.25737
	c-1.42371-1.00738-2.91235-1.35799-4.601-0.89435c-4.93268,0.80285-8.61516,2.9622-9.04668,3.52428
	c-0.78195,1.01852-1.6432,1.98943-2.31329,3.07755c-1.08318,1.75895-2.39534,3.39093-3.11,5.367
	c-0.09286,0.2568-0.24792,0.51697-0.44139,0.70724c-1.17667,1.15723-1.92079,2.59635-2.67474,4.03048
	c-0.12961,0.24654-0.27127,0.49433-0.35039,0.75864c-0.74486,2.48818-2.00827,4.71401-3.34401,6.9231
	c-0.59782,0.9887-1.03693,2.13039-1.2807,3.26032c-0.2505,1.16111-0.6718,2.24668-1.02051,3.36548
	c-0.28195,0.90452-0.54767,1.81947-0.73398,2.74717c-0.27562,1.37236-0.43605,2.76793-0.7157,4.13934
	c-0.35191,1.72586-0.34259,3.43756-0.10298,5.17722c0.13658,0.99166,0.12378,2.01019,0.10411,3.01518
	c-0.01781,0.91061,0.04289,1.78818,0.43538,2.62473c0.11845,0.25245,0.22028,0.51963,0.28151,0.79093
	c0.50055,2.21812,1.67538,4.13669,2.7319,6.1018c0.90761,1.68816,2.30086,2.43921,4.28922,2.26754
	c2.5215-0.2177,4.81787-0.93021,6.85858-2.43719c0.26985-0.1993,0.54425-0.40284,0.84308-0.55081
	c1.54424-0.7645,2.68033-2.0002,3.81415-3.24514c0.56374-0.61899,1.12276-1.24868,1.74283-1.80825
	c0.64069-0.57815,14.59497-14.43865,15.16826-15.30222c0.48903-0.73664,1.17937-1.33973,1.78127-2.00137
	c0.52762-0.57996,1.09193-1.13121,1.5726-1.74773c0.37325-0.47876,0.70857-1.01063,0.94461-1.56807
	c0.5235-1.23626,0.97331-2.50369,1.45483-3.75777c0.08015-0.20879,0.13805-0.43426,0.25778-0.61855
	c1.71545-2.64063,2.89977-5.55515,4.33507-8.34011c0.4567-0.88616,1.07716-1.69497,1.67656-2.49903
	c1.16959-1.56893,2.34897-3.13221,3.57486-4.65719c2.56114-3.186,5.17441-6.32235,8.42722-8.85854
	c1.1438-0.89181,2.15244-1.95734,3.29865-2.84564c2.63416-2.04137,5.59216-3.52608,8.70444-4.66722
	c1.35583-0.49716,2.80505-0.8101,4.23929-1.00809c2.86942-0.39614,5.13248,0.76631,6.85217,3.03381
	c0.50525,0.66615,0.89618,1.39359,1.20026,2.19754c0.49512,1.30899,0.52829,2.55467,0.27808,3.93467
	c-0.43167,2.38095-0.93491,4.72063-1.94223,6.93125c-0.09286,0.20378-0.14026,0.43359-0.25864,0.61963
	c-1.19925,1.88506-2.26755,3.87596-3.65131,5.61542c-1.7381,2.18481-3.70197,4.19565-5.6362,6.21667
	c-1.19714,1.25084-2.43634,2.49233-3.81281,3.53113c-1.15216,0.86948-2.0726,1.99485-3.3338,2.74309
	c-1.19864,0.71111-2.29666,1.59325-3.42947,2.41326c-0.49884,0.36108-0.96957,0.76071-1.46118,1.1321
	c-1.62061,1.22428-3.41516,2.1273-5.31763,2.81506c-0.41336,0.14943-0.87073,0.22655-1.31088,0.24046
	c-0.6286,0.01987-1.05847-0.46974-0.97995-1.0992c0.09863-0.79078,0.42487-1.49636,0.93063-2.11993
	c1.35791-1.67424,3.1174-2.87217,4.87137-4.06624c0.49686-0.33825,1.09518-0.56599,1.67911-0.72998
	c1.28946-0.36216,2.28574-1.15392,3.23148-2.03969c1.88278-1.76336,3.58313-3.69375,5.21677-5.68663
	c1.25699-1.53339,2.0249-3.34771,2.95261-5.07045c0.13193-0.24497,0.16245-0.56852,0.34201-0.75989
	c0.97089-1.03464,1.2131-2.39102,1.57584-3.66412c0.44604-1.56543,0.46854-3.20847,0.41925-4.83158
	c-0.02811-0.92558-0.52777-1.71389-1.06076-2.43372c-0.93396-1.26131-2.28683-1.65903-3.72128-0.99631
	c-1.92514,0.88943-3.80307,1.88251-5.68903,2.85487c-1.173,0.60479-2.03412,1.60926-2.8075,2.61201
	c-1.36813,1.7739-2.85724,3.4354-4.36725,5.0783c-0.84851,0.92319-1.5549,1.89469-2.00012,3.07147
	c-0.23563,0.6228-0.55377,1.2199-0.88446,1.8002c-0.88553,1.55395-1.80144,3.09054-2.69656,4.63907
	c-0.16751,0.28976-0.34039,0.58961-0.43291,0.90746c-0.64542,2.21743-1.72437,4.25094-2.67024,6.34021
	c-0.3718,0.82123-0.71385,1.64057-0.79277,2.55327c-0.02864,0.3314-0.14334,0.65596-0.22508,0.98206
	c-0.58696,2.34126-1.07196,4.69121-1.01402,7.13077c0.02112,0.88866-0.12575,1.78631-0.25201,2.67188
	c-0.09761,0.68453-0.08681,1.35433,0.18192,1.98079c0.27466,0.64027,0.30345,1.29034,0.32549,1.96815
	c0.02721,0.83697,0.15511,1.67087,0.2471,2.50527c0.01831,0.16597,0.03192,0.35147,0.11368,0.48863
	c1.33476,2.23891,2.08711,4.84177,4.18835,6.60324c1.08978,0.91357,2.31995,1.38167,3.71826,1.22292
	c1.57346-0.17862,3.05267-0.689,4.39612-1.56279c1.12384-0.73097,2.29288-1.39515,3.39157-2.1611
	c0.63516-0.4428,1.22293-0.98164,1.74121-1.55882c1.60855-1.79111,3.20941-3.59189,4.73767-5.451
	c0.59558-0.72447,1.10004-1.57093,1.44431-2.44156c0.33676-0.85156,0.80606-1.58427,1.32013-2.31845
	c0.67197-0.95966,1.24518-1.99235,1.96008-2.91687c0.67084-0.86749,1.61099-1.38184,2.73895-1.40438
	c0.24622-0.00493,0.54272,0.15229,0.73752,0.32394c1.05591,0.9305,1.34695,2.16177,0.85153,3.4959
	c-0.33377,0.89882-0.77124,1.7412-1.4169,2.46255c-0.29892,0.33401-0.57629,0.68944-0.89404,1.00421
	c-2.86865,2.84193-5.40976,5.96924-7.95041,9.09737c-0.24719,0.30434-0.47864,0.62918-0.76508,0.89268
	c-2.01651,1.85516-3.96686,3.78597-6.16187,5.43902c-1.42972,1.07672-2.8898,2.11633-4.27609,3.24635
	c-0.84052,0.68513-1.72314,1.25536-2.74982,1.57336c-1.01474,0.31429-2.03691,0.63554-3.07947,0.8206
	c-1.10559,0.19623-2.22569,0.16743-3.31335-0.24866c-0.67685-0.25894-1.40799-0.37816-2.08022-0.64659
	c-1.35069-0.5394-2.24361-1.64778-3.15872-2.70743c-0.43726-0.50632-0.81703-1.06277-1.21523-1.60214
	c-0.67821-0.91866-1.07037-1.96405-1.3029-3.06946c-0.16292-0.77443-0.41467-1.49188-0.83755-2.17764
	c-0.65216-1.05754-1.05016-2.22226-1.14011-3.48051c-0.03185-0.44529-0.091-0.89572-0.2034-1.32668
	c-0.22893-0.87782-0.31313-1.75499-0.20798-2.65948c0.04482-0.3857,0.03305-0.78941-0.02635-1.17361
	c-0.19943-1.28973-0.15126-2.56403,0.08656-3.84546c0.08742-0.47106,0.23976-0.98739-0.19531-1.54068
	c-0.21976,0.12495-0.48466,0.21138-0.66002,0.38715c-0.55322,0.55457-1.06033,1.15495-1.60933,1.71397
	c-0.46808,0.4766-0.98276,0.9073-1.45258,1.38229c-0.58821,0.59473-1.21727,1.16526-1.71265,1.83241
	c-1.1767,1.58472-2.51514,2.9909-4.06631,4.21588c-1.23537,0.97559-2.29024,2.12119-3.08611,3.5136
	c-0.35153,0.61499-0.87378,1.20022-1.45488,1.60152c-1.07867,0.74488-1.83894,1.78995-2.78456,2.6525
	c-1.8564,1.6933-3.74088,3.35584-5.61751,5.02683c-0.20872,0.18585-0.46649,0.32033-0.6597,0.51927
	c-1.02699,1.05745-2.12553,1.99417-3.6283,2.29703c-1.48804,1.08401-3.2691,1.44562-4.97626,1.95912
	c-2.01199,0.60522-4.05121,0.80092-6.10837,0.07069c-1.52274-0.54056-2.70363-1.56381-3.91153-2.56253
	c-0.12564-0.10391-0.217-0.2556-0.30598-0.39664c-1.8027-2.85724-3.2702-5.86578-4.04457-9.17301
	c-0.13885-0.5931-0.12178-1.22208-0.18517-1.83361c-0.12685-1.22387-0.26239-2.44682-0.38916-3.67071
	c-0.17332-1.67327-0.24094-3.33099,0.08987-5.01089c0.36734-1.86532,0.56329-3.76402,0.84918-5.64586
	c0.12363-0.81366,0.28574-1.62149,0.45277-2.5575c-0.94702,0.34729-1.52997,0.89975-2.04202,1.55808
	c-0.72223,0.92852-1.44156,1.86047-2.19826,2.76054c-0.53947,0.6417-1.13649,1.23521-1.7117,1.84659
	c-0.2301,0.24458-0.55663,0.43878-0.69206,0.72546c-0.75928,1.6071-2.13844,2.70276-3.25385,4.01251
	c-1.08574,1.27496-2.22296,2.50653-3.35379,3.74233c-0.37711,0.41211-0.80559,0.77708-1.2083,1.16598
	c-1.08621,1.0489-2.24268,2.03158-3.02942,3.35559c-0.16821,0.28307-0.42845,0.51943-0.67419,0.74722
	c-1.92575,1.7851-3.64279,3.79226-5.75372,5.38187c-0.44418,0.3345-0.79559,0.78976-1.22614,1.14532
	c-1.24857,1.03102-2.39096,2.20721-3.9498,2.81697c-0.34911,0.13658-0.61392,0.47864-0.93242,0.70517
	c-1.7485,1.24371-3.68071,2.14677-5.69666,2.82697c-0.99387,0.33531-2.09221,0.36276-3.14427,0.5228
	c-0.27666,0.0421-0.55658,0.07433-0.83598,0.08481c-0.92746,0.03474-1.41121,0.58559-1.65784,1.41049
	c-0.20796,0.69548-0.37921,1.40276-0.60887,2.09071c-0.37155,1.11292-0.80002,2.19319-1.41939,3.21082
	c-0.42831,0.70375-0.68599,1.53009-0.91675,2.33134c-0.43527,1.51131-0.98009,2.97189-1.62651,4.40691
	c-0.68915,1.52985-1.25342,3.11554-1.90312,4.66386c-0.21498,0.5123-0.54318,0.97589-0.78773,1.47733
	c-0.21835,0.44771-0.41309,0.90944-0.58174,1.37816c-0.26404,0.73395-0.48816,1.4821-0.74617,2.21831
	c-0.27707,0.79059-0.5701,1.57565-0.86365,2.36035c-0.11765,0.31436-0.24188,0.62764-0.386,0.93051
	c-0.74261,1.56091-1.61685,3.06224-2.06744,4.75349c-0.09892,0.37128-0.30716,0.72368-0.51486,1.05344
	c-0.36501,0.57957-0.59738,1.19402-0.70021,1.8725c-0.11131,0.73433-0.45018,1.34122-0.9545,1.91718
	c-0.73,0.83374-1.32915,1.77055-1.90724,2.73318c-0.7709,1.2836-1.79813,2.41406-2.72778,3.60052
	c-0.09677,0.1235-0.26959,0.20168-0.42213,0.26457c-0.53618,0.22127-1.10904,0.35703-1.59181-0.04909
	c-0.41666-0.35054-0.48766-0.86214-0.3269-1.38977c0.1938-0.63622,0.29193-1.29207,0.48788-1.93544
	c0.67175-2.20534,1.87361-4.1813,2.5997-6.35867c0.47699-1.43037,1.19093-2.78923,1.58372-4.23843
	c0.59206-2.1843,1.73221-4.12434,2.52068-6.21552c0.15738-0.41739,0.26506-0.85364,0.39299-1.28198
	c0.11211-0.37541,0.1599-0.78423,0.34047-1.1226c0.98593-1.84743,1.52617-3.84105,2.01477-5.85783
	c0.11775-0.48595,0.33458-0.94908,0.52008-1.41704c0.18561-0.46823,0.42357-0.91817,0.57884-1.39555
	c0.72543-2.23042,1.36072-4.49217,2.52731-6.55559c0.21533-0.38087,0.36217-0.84087,0.39662-1.27574
	c0.09113-1.14987,0.57938-2.14465,1.02806-3.17548c0.49052-1.12698,0.84071-2.31444,1.27345-3.4675
	c0.25389-0.67654,0.53101-1.34581,0.83031-2.00351c0.53319-1.17166,1.10753-2.32472,1.63387-3.49939
	c0.48015-1.07155,0.91747-2.16228,1.37727-3.243c0.54752-1.28693,1.09593-2.57349,1.64931-3.85792
	c1.0183-2.36357,2.06581-4.71497,3.05125-7.09214c0.5562-1.34171,0.985-2.7358,1.52153-4.08628
	c0.68169-1.71595,1.36713-3.4334,2.13742-5.11046c0.90936-1.97982,1.92348-3.91129,2.86575-5.87639
	c0.30542-0.63697,0.72513-1.24349,0.80182-2.03577c-1.20996,0.57806-2.23177,1.54287-2.76373,2.59243
	c-0.17706,0.34931-0.33937,0.70781-0.48245,1.0723c-0.35727,0.91005-0.96059,1.60693-1.69083,2.25713
	c-1.6745,1.491-3.24887,3.07941-4.4088,5.03469c-0.65866,1.11028-1.51212,2.06536-2.42598,2.99072
	c-1.56967,1.58942-3.18272,3.14971-4.38553,5.07105c-0.47215,0.75423-1.05225,1.46291-1.68373,2.0913
	c-1.99187,1.98215-3.67514,4.2291-5.53633,6.3221c-0.37065,0.41683-0.79765,0.784-1.20279,1.16973
	c-0.89062,0.84795-1.7767,1.70088-2.67899,2.53627c-0.4512,0.41777-0.92418,0.81363-1.4046,1.1978
	c-0.69891,0.55882-1.49915,1.0183-2.10098,1.66464c-0.87439,0.93907-1.92458,1.51042-3.092,1.94545
	c-0.62961,0.23462-1.25794,0.48143-1.86151,0.77486c-0.71832,0.34923-1.46959,0.48412-2.2545,0.6004
	c-2.55389,0.37842-5.12289,0.51779-7.69633,0.6295c-0.33526,0.01454-0.66806,0.08293-1.00334,0.09998
	c-0.86227,0.04384-1.48186,0.38365-1.79015,1.2523c-0.16637,0.46889-0.47929,0.8838-0.69969,1.33594
	c-0.24463,0.50186-0.5975,1.00191-0.66073,1.53166c-0.18042,1.51205-1.01074,2.72412-1.72185,3.97916
	c-0.44561,0.78645-0.79961,1.56351-1.05781,2.43758c-0.37717,1.27676-0.97373,2.48956-1.49249,3.72304
	c-0.12926,0.30733-0.39785,0.57169-0.46776,0.88577c-0.42797,1.92326-1.28833,3.69661-1.87892,5.55826
	c-0.48911,1.54187-0.99509,3.07912-1.59257,4.57483c-0.72839,1.82346-1.13372,3.73628-1.74588,5.58951
	c-0.19622,0.59398-0.40366,1.14534-0.8287,1.62386c-0.70502,0.79376-1.27454,1.7321-2.06669,2.4185
	c-1.17591,1.01898-2.3532,2.03503-3.50748,3.07904c-0.12414,0.11227-0.46177,0.13353-0.60118,0.04349
	c-0.14145-0.09142-0.23038-0.3765-0.22115-0.57097c0.07145-1.50772,0.17094-3.01411,0.2658-4.52065
	c0.01048-0.1664-0.00507-0.36551,0.0788-0.49124c0.68032-1.0197,0.79869-2.3329,1.73006-3.22766
	c0.45719-0.43924,0.69943-1.04767,0.67818-1.67545c-0.02398-0.70837,0.26339-1.29819,0.48131-1.93239
	c0.4178-1.21574,0.74686-2.46175,1.15448-3.68123c0.37244-1.11423,0.80209-2.20932,1.2027-3.31421
	c0.24606-0.67863,0.51229-1.33223,0.60707-2.07825c0.096-0.7558,0.50846-1.47061,0.77657-2.20549
	c0.38248-1.04854,0.75437-2.10097,1.14178-3.14767c0.15531-0.41965,0.29566-0.85413,0.51856-1.23787
	c0.99645-1.7157,1.63557-3.55562,1.98946-5.50069c0.15209-0.83592,0.51601-1.58493,0.87112-2.35049
	c1.01426-2.18657,0.8273-2.35936-1.52506-2.48163c-2.12353-0.11043-4.21957-0.53625-6.25581-1.18614
	C99.11431,135.02861,98.69088,134.85567,98.39858,134.19693z M99.3457,84.96075c0.02934-0.50244,0.06966-0.78284,0.05832-1.06119
	c-0.13372-3.28623-1.13972-6.37614-2.14338-9.4661c-0.01716-0.05285-0.04436-0.10309-0.07162-0.15187
	c-1.36308-2.43791-3.17591-4.45119-5.57063-5.92018c-0.80214-0.49203-1.624-0.67392-2.56345-0.41183
	c-0.96793,0.27007-1.96656,0.42818-2.94393,0.66732c-0.31689,0.07755-0.64383,0.20774-0.90694,0.39645
	c-1.77684,1.27428-3.42197,2.70283-4.86934,4.34531c-0.62823,0.71294-1.25666,1.43584-1.79343,2.21712
	c-1.07472,1.5643-2.1119,3.14972-2.96842,4.85728c-1.02632,2.04601-2.25783,3.99032-3.25764,6.04803
	c-0.88088,1.81301-1.88607,3.55226-2.83819,5.32307c-0.6675,1.24149-1.14486,2.55977-1.48038,3.91946
	c-0.80383,3.25729-1.53959,6.53139-2.34557,9.78811c-0.42421,1.71408-0.51327,3.4224-0.22458,5.1614
	c0.119,0.71685,0.29533,1.45164,0.24483,2.16405c-0.15369,2.1673,0.5988,4.06885,1.57363,5.91644
	c0.44357,0.84077,0.93871,1.64249,1.73495,2.23414c0.48927,0.36356,0.91319,0.8303,1.31242,1.29694
	c1.20236,1.40539,2.77341,2.03832,4.55777,2.23222c1.51808,0.16495,6.09989-2.2355,8.9838-6.57086
	c0.58739-0.814,1.14572-1.65102,1.67862-2.50187c0.68122-1.08764,1.2151-2.25544,1.98168-3.30399
	c1.18547-1.62151,1.17178-1.7116-0.5023-2.88464c-1.90706-1.33633-3.43898-3.02729-4.85612-4.83423
	c-1.3748-1.75285-1.38149-2.19824-0.15141-4.00066c1.22742-1.79843,2.51518-3.55579,3.73772-5.35743
	c0.37112-0.54691,0.85021-0.73,1.43313-0.64079c1.09009,0.16676,1.97608,0.67629,2.65475,1.59086
	c0.76607,1.03237,1.60654,2.01031,2.43355,2.99605c0.21284,0.25375,0.47948,0.47224,0.75166,0.66402
	c0.40939,0.28852,0.89188,0.17898,1.14041-0.27661c0.21301-0.39043,0.36448-0.81526,0.53252-1.2292
	c0.82198-2.02484,1.65712-4.03978,2.97012-5.81756c0.29289-0.39661,0.57143-0.85702,0.67852-1.32848
	C98.78741,88.94942,99.29501,86.87906,99.3457,84.96075z"/>
</svg>
