<?xml version="1.0" encoding="utf-8"?>
<!-- Generator: Adobe Illustrator 25.4.1, SVG Export Plug-In . SVG Version: 6.00 Build 0)  -->
<svg version="1.1" id="Layer_1" xmlns="http://www.w3.org/2000/svg" xmlns:xlink="http://www.w3.org/1999/xlink" x="0px" y="0px"
	 viewBox="0 0 443.90591 188.99892" style="enable-background:new 0 0 443.90591 188.99892;" xml:space="preserve">
<style type="text/css">
	.st0{fill:#EFEDE6;}
	.st1{fill:#EFEDE5;}
	.st2{fill:#B48039;}
	.st3{fill:#AD8246;}
	.st4{fill:none;stroke:#B48039;stroke-width:0.99892;stroke-miterlimit:10;}
	.st5{fill:#FF00FF;}
	.st6{fill:#00FFFF;}
	.st7{fill:#606060;}
	.st8{fill:#A7834F;}
</style>
<g id="Bittercube-Flavors-24_00000017475970479817629760000003296150728680224147_">
	<g>
		<path class="st2" d="M412.00275,105.9723c-0.15024,0.11-0.2269,0.14402-0.27206,0.20242
			c-1.05219,1.36095-2.2728,2.60713-2.88693,4.26702c-0.08554,0.23113-0.24719,0.43527-0.38159,0.64683
			c-0.16467,0.2592-0.37476,0.49611-0.50113,0.772c-0.72559,1.58382-1.91528,2.78388-3.13989,3.98006
			c-0.77194,0.75404-1.39539,1.65878-2.1001,2.48341c-0.55457,0.64896-0.94745,1.42211-1.6972,1.92574
			c-0.54865,0.36854-0.9834,0.90725-1.46603,1.37309c-0.10031,0.09683-0.18176,0.21326-0.28241,0.30965
			c-1.22507,1.17297-2.50046,2.29831-3.66144,3.53145c-0.76279,0.81021-1.62134,1.4324-2.58569,1.94708
			c-0.16956,0.09049-0.3071,0.23983-0.46313,0.35705c-0.48932,0.36755-0.98755,0.72366-1.46851,1.10176
			c-0.37079,0.29149-0.70724,0.62732-1.08276,0.91205c-0.90503,0.68625-1.81058,1.37338-2.7428,2.02155
			c-0.50122,0.34848-1.06912,0.59943-1.58707,0.92584c-1.03583,0.65279-2.17691,0.99574-3.37521,1.1404
			c-1.13455,0.13698-2.27545,0.22791-3.41565,0.30959c-1.2486,0.08945-2.44623-0.19989-3.6058-0.61893
			c-1.16495-0.42097-2.21628-1.0493-3.09204-1.94376c-0.05859-0.05984-0.11456-0.12772-0.185-0.16968
			c-1.17752-0.7018-1.7388-1.94193-2.56964-2.94566c-0.12149-0.14677-0.19897-0.33728-0.26874-0.51839
			c-0.44037-1.14358-0.83902-2.30452-1.31573-3.43256c-0.73581-1.74107-0.91931-3.59714-1.20682-5.43174
			c-0.15118-0.9647-0.28979-1.93935-0.15942-2.91898c0.17667-1.32782,0.36798-2.65398,0.57568-3.9773
			c0.4595-2.92766,1.09995-5.80892,2.13245-8.59808c0.43472-1.17428,0.76007-2.3891,1.13052-3.58691
			c0.022-0.07117,0.00284-0.15509,0.00284-0.30906c-0.57758,0.20434-0.88763,0.62835-1.16788,1.0584
			c-0.27353,0.41977-0.48206,0.88132-0.73486,1.31535c-0.18225,0.31281-0.37338,0.62325-0.59,0.91274
			c-0.71823,0.96003-1.45898,1.90334-2.1713,2.86771c-0.2471,0.33454-0.42746,0.71756-0.65408,1.06823
			c-0.36249,0.56087-0.70212,1.14181-1.11554,1.66343c-0.96921,1.22292-1.94617,2.44268-2.98428,3.60637
			c-0.37589,0.42132-0.69275,0.85255-0.96671,1.33836c-0.19028,0.33742-0.42529,0.66541-0.70062,0.93629
			c-1.1366,1.11816-2.16571,2.32708-3.16821,3.5648c-0.6492,0.80157-1.38577,1.53175-2.06204,2.31225
			c-1.07645,1.24237-2.13541,2.4999-3.20108,3.75161c-0.0542,0.06367-0.08987,0.14907-0.15442,0.19713
			c-1.18832,0.88424-2.02936,2.12021-3.13809,3.08753c-0.85989,0.75024-1.68024,1.5397-2.72186,2.05232
			c-0.29446,0.14491-0.51645,0.43031-0.8002,0.60492c-1.10333,0.67888-2.30112,1.12732-3.5759,1.34682
			c-0.90567,0.15593-1.81827,0.17906-2.71915-0.06148c-0.5127-0.13689-0.98837-0.31757-1.43256-0.64964
			c-0.55334-0.41373-1.18814-0.72258-1.80139-1.05125c-0.9559-0.51234-1.76044-1.23415-2.35629-2.09892
			c-0.67221-0.97564-1.57391-1.81765-1.89621-3.02987c-0.12695-0.47753-0.4147-0.91216-0.62787-1.36699
			c-0.32611-0.69582-0.41898-1.44968-0.46552-2.1974c-0.0744-1.19484-0.34921-2.37057-0.28165-3.57983
			c0.08707-1.55833,0.1788-3.11316,0.52109-4.6421c0.06079-0.27171,0.14197-0.55303,0.12704-0.82516
			c-0.07425-1.35518,0.4425-2.5631,0.89212-3.79144c0.21088-0.57616,0.3941-1.16238,0.5929-1.74302
			c0.18881-0.55153,0.37909-1.10258,0.57318-1.65228c0.24133-0.68358,0.49228-1.3638,0.73001-2.04862
			c0.42068-1.21191,0.87146-2.41513,1.23877-3.6432c0.26593-0.88903,0.54849-1.77552,1.07007-2.53155
			c0.47675-0.69106,0.64508-1.47567,0.93176-2.22661c0.129-0.33788,0.24756-0.68033,0.39111-1.01196
			c0.78592-1.81567,1.64203-3.6003,2.28571-5.47749c0.32379-0.94431,0.75998-1.84968,1.13098-2.7784
			c0.14432-0.36129,0.25269-0.73721,0.37128-1.10845c0.53378-1.67126,1.05875-3.3454,1.59988-5.01427
			c0.41141-1.26866,0.85477-2.52705,1.25723-3.79845c0.1246-0.39354,0.17163-0.81319,0.23685-1.22366
			c0.17401-1.09526,0.65918-2.13061,0.54276-3.28515c-0.11438-1.13447-0.1254-2.28651-0.56134-3.35791
			c-0.24005-0.58997-0.53772-1.21499-1.12097-1.51509c-0.77237-0.39742-1.61621-0.63759-2.51144-0.43845
			c-0.13416,0.02985-0.26987,0.08585-0.38574,0.15974c-1.59616,1.01794-3.24771,1.9562-4.66821,3.22838
			c-0.08301,0.07436-0.16742,0.15665-0.26639,0.20222c-1.11734,0.51449-1.91235,1.43606-2.79132,2.24162
			c-0.9848,0.90258-1.91803,1.86259-2.85425,2.81668c-0.83981,0.85583-1.64774,1.74289-2.47989,2.60637
			c-0.87106,0.90383-1.76529,1.78552-2.62878,2.69642c-0.73135,0.77149-1.29904,1.66808-1.86929,2.56072
			c-0.11783,0.18447-0.27142,0.34598-0.40683,0.51938c-0.23849,0.30539-0.47806,0.60998-0.71243,0.9185
			c-0.13513,0.17789-0.23438,0.39199-0.39572,0.53952c-0.68854,0.62956-1.16431,1.41762-1.68414,2.17604
			c-1.02219,1.49131-2.07724,2.96043-3.08075,4.46406c-0.2746,0.41149-0.41193,0.91407-0.61649,1.37296
			c-0.89664,2.01119-1.78125,4.02422-2.48337,6.11794c-0.27063,0.80702-0.76675,1.54485-1.20572,2.28725
			c-0.47147,0.79735-0.90155,1.59557-1.10022,2.51825c-0.23135,1.07464-0.89755,1.9545-1.45834,2.87141
			c-0.32019,0.52355-0.58994,1.03468-0.77924,1.63575c-0.2619,0.83142-0.60803,1.65289-1.08374,2.41583
			c-0.33154,0.53172-0.47699,1.17828-0.71606,1.76925c-0.14529,0.35915-0.27136,0.7347-0.47443,1.06022
			c-0.56055,0.89843-1.17328,1.76437-1.73077,2.6646c-0.20206,0.3263-0.28,0.72708-0.46057,1.06962
			c-0.32361,0.61376-0.71088,1.195-1.01657,1.81685c-0.23285,0.4736-0.39481,0.98425-0.56372,1.48667
			c-0.61237,1.82146-1.26215,3.63251-1.79785,5.47655c-0.22861,0.787-0.53488,1.40281-1.20355,1.91709
			c-0.65378,0.50282-1.21512,1.14634-1.74094,1.79026c-0.80777,0.98924-1.65958,1.94766-2.28241,3.08192
			c-0.20959,0.3817-0.56357,0.69061-0.8801,1.004c-0.13126,0.12994-0.33072,0.24191-0.51059,0.26266
			c-0.63443,0.07312-1.27924,0.15279-1.90314-0.05911c-0.79089-0.26862-1.3511-0.72556-1.45395-1.64288
			c-0.11032-0.98401-0.11368-1.92952,0.22174-2.88818c0.52521-1.50103,0.97314-3.02924,1.44437-4.54885
			c0.0907-0.29244,0.11197-0.60737,0.21191-0.89574c0.13538-0.39056,0.25165-0.81303,0.49121-1.13657
			c0.41016-0.55396,0.58414-1.1839,0.82504-1.80662c0.28842-0.74551,0.73636-1.42919,1.11395-2.1403
			c0.51978-0.97894,1.2384-1.86269,1.41336-3.0075c0.02808-0.18378,0.14398-0.35973,0.24149-0.52631
			c0.39279-0.67104,0.82236-1.32233,1.1825-2.01013c0.2305-0.44031,0.34048-0.94205,0.54565-1.39773
			c0.26208-0.58213,0.591-1.13451,0.84613-1.71933c0.58762-1.34705,1.13818-2.71022,1.72379-4.05817
			c0.28845-0.66402,0.61877-1.31001,0.93594-1.96133c0.08533-0.17524,0.20953-0.33258,0.28577-0.51102
			c0.41534-0.97173,0.82111-1.94756,1.23102-2.92162c0.02161-0.05136,0.06366-0.09675,0.07489-0.14945
			c0.19354-0.90876,0.62933-1.71379,1.01263-2.55075c0.55545-1.21285,0.97321-2.48951,1.43405-3.74469
			c0.45193-1.23095,0.90216-2.46309,1.31967-3.70594c0.33649-1.00171,0.61267-2.02351,0.93448-3.03036
			c0.38199-1.19514,0.78699-2.3829,1.17529-3.57607c0.0773-0.23748,0.12189-0.48547,0.18542-0.72759
			c0.17581-0.67005,0.27948-1.35157,0.52887-2.01221c0.24255-0.64244,0.2962-1.35755,0.42056-2.04297
			c0.33487-1.84578,0.56216-3.70908,0.45184-5.58186c-0.04971-0.84418-0.33759-1.67961-0.56454-2.50605
			c-0.1319-0.48021-0.33997-0.94254-0.54559-1.39855c-0.19461-0.43153-0.3952-0.87166-0.92529-1.01402
			c-0.09348-0.0251-0.16861-0.13742-0.24094-0.21943c-0.69568-0.78905-1.55219-0.89438-2.50897-0.60438
			c-0.21204,0.06426-0.43399,0.09518-0.65027,0.14613c-0.18915,0.04457-0.40018,0.05584-0.56128,0.15041
			c-1.12802,0.66226-2.24762,1.339-3.36432,2.02034c-0.16486,0.10059-0.31195,0.23842-0.44696,0.3786
			c-1.00595,1.04479-1.99127,2.10995-3.01505,3.13686c-0.61038,0.61226-1.29218,1.15281-1.91415,1.75427
			c-0.2558,0.24738-0.44394,0.5664-0.65378,0.85931c-0.58054,0.81034-1.13412,1.64114-1.74106,2.43105
			c-0.47507,0.61832-1.00543,1.19529-1.52844,1.77512c-0.22275,0.24699-0.48734,0.45669-0.73636,0.6795
			c-1.17297,1.04956-2.21054,2.22528-2.91745,3.63007c-0.42447,0.8435-1.06607,1.4883-1.61536,2.2191
			c-0.48517,0.64546-0.94998,1.30622-1.4241,1.95998c-0.06509,0.08978-0.11496,0.20197-0.20074,0.26365
			c-1.09158,0.78482-1.71478,1.96777-2.46976,3.01798c-0.64243,0.89365-1.02069,1.97278-1.57254,2.93741
			c-0.39957,0.69849-0.89471,1.34206-1.34232,2.01339c-0.81833,1.22737-1.8031,2.33396-2.51138,3.64568
			c-0.59467,1.1013-1.30777,2.14024-1.99426,3.1899c-0.82291,1.25819-1.67303,2.49857-2.51215,3.74615
			c-0.06192,0.09211-0.11481,0.19829-0.19751,0.2672c-0.74796,0.62325-0.99112,1.52711-1.33847,2.37478
			c-0.16888,0.41209-0.34354,0.82279-0.53815,1.22317c-0.37628,0.77433-0.68094,1.60371-1.17636,2.29481
			c-0.62201,0.86774-0.70563,1.9316-1.23163,2.82726c-0.27502,0.46838-0.35895,1.04876-0.53076,1.57804
			c-0.22342,0.68813-0.38855,1.40285-0.68518,2.05793c-0.62109,1.3717-1.28171,2.72319-1.66455,4.18939
			c-0.0473,0.18114-0.17273,0.34669-0.2814,0.50622c-0.64325,0.94453-1.33078,1.86144-1.92911,2.83338
			c-0.68414,1.11133-1.26367,2.28688-1.94302,3.40138c-0.31357,0.51437-0.73523,0.97008-1.15305,1.40944
			c-0.13159,0.13838-0.40656,0.15585-0.62201,0.19508c-0.27368,0.04987-0.55496,0.05663-0.83063,0.09764
			c-0.93256,0.1387-1.60806-0.29448-2.16203-0.97816c-0.09882-0.12196-0.17812-0.29948-0.18097-0.45294
			c-0.01886-1.0051-0.03607-2.00766,0.39601-2.96128c0.15794-0.3486,0.19972-0.74966,0.29607-1.12641
			c0.05522-0.21595,0.09718-0.4371,0.1732-0.64568c0.50513-1.38602,1.01315-2.77103,1.5293-4.153
			c0.6033-1.61526,1.14078-3.26063,1.84326-4.83191c0.89059-1.99194,1.66602-4.02032,2.36984-6.08261
			c0.45044-1.31972,0.9902-2.6087,1.46286-3.92121c0.207-0.57491,0.3342-1.178,0.51892-1.76155
			c0.4043-1.27728,0.80234-2.55717,1.2435-3.82185c0.19958-0.57222,0.52625-1.09918,0.74112-1.66715
			c0.31494-0.83241,0.58377-1.68235,0.86774-2.52634c0.40942-1.21697,0.81915-2.43388,1.22064-3.65347
			c0.33133-1.00639,0.64679-2.01796,0.97668-3.0248c0.34744-1.06036,0.71793-2.1134,1.04953-3.1786
			c0.14725-0.47308,0.22369-0.96821,0.36591-1.60339c-0.50098,0.41869-0.84647,0.78882-1.07584,1.24291
			c-0.76086,1.50631-1.83023,2.79019-2.89145,4.08181c-0.17703,0.21547-0.37421,0.425-0.50128,0.66894
			c-0.42828,0.82222-1.01678,1.51376-1.66086,2.16903c-0.15323,0.15588-0.26517,0.35901-0.37061,0.55419
			c-1.17386,2.17292-2.6723,4.11603-4.20679,6.03961c-0.60681,0.76063-1.15237,1.58521-1.6188,2.43913
			c-0.7168,1.31226-1.67661,2.43272-2.59164,3.59526c-0.70715,0.8984-1.41098,1.8082-2.01674,2.7753
			c-0.71524,1.14197-1.47147,2.23961-2.42236,3.19716c-0.07858,0.07915-0.15239,0.16436-0.21936,0.25356
			c-0.7009,0.93338-1.36282,1.89904-2.10852,2.79504c-1.03055,1.23824-2.12943,2.41937-3.18733,3.63519
			c-0.38295,0.44014-0.72734,0.91362-1.09805,1.36472c-0.35139,0.42758-0.71404,0.84592-1.07224,1.26791
			c-0.07228,0.08518-0.16496,0.15845-0.21756,0.25407c-0.75687,1.37621-2.04611,2.22195-3.18608,3.21846
			c-0.77586,0.67825-1.53206,1.37912-2.29057,2.07692c-0.12125,0.11152-0.19995,0.26786-0.31277,0.39014
			c-0.31677,0.34337-0.59265,0.7541-0.97336,1.00212c-0.62866,0.40958-1.33977,0.69009-1.9922,1.0665
			c-0.62607,0.36118-1.2274,0.76656-1.82928,1.16798c-0.77464,0.51666-1.59227,0.90858-2.52699,1.04749
			c-0.52348,0.07779-1.03189,0.26689-1.55614,0.3271c-0.4922,0.05655-0.99934,0.0443-1.49457,0.00114
			c-1.17313-0.10223-2.30901-0.36853-3.38911-0.85652c-0.53316-0.24086-0.92883-0.62857-1.19681-1.1266
			c-0.80775-1.50124-1.55524-3.0289-1.7504-4.75722c-0.0188-0.1664-0.07179-0.33997-0.04391-0.4988
			c0.18236-1.0387-0.09801-2.05947-0.09808-3.08926c-0.00005-0.49894,0.06172-0.99793,0.09712-1.49679
			c0.0316-0.44562,0.10173-0.89194,0.09102-1.33641c-0.02432-1.00883,0.0672-1.99417,0.25806-2.99122
			c0.21915-1.14482,0.26373-2.32252,0.39725-3.48442c0.12108-1.05399,0.20691-2.1163,0.41006-3.15502
			c0.12663-0.6474,0.44948-1.25532,0.67021-1.88586c0.12271-0.35053,0.37729-0.67993,0.24234-1.15533
			c-0.14192,0.06794-0.2708,0.08732-0.32309,0.161c-0.84653,1.19328-1.99063,2.16117-2.4747,3.63533
			c-0.24304,0.74009-0.78238,1.41177-1.2924,2.02772c-0.58766,0.70972-1.16124,1.4165-1.68082,2.18333
			c-0.90514,1.33589-1.92313,2.59486-2.87788,3.89774c-0.93773,1.27962-1.82976,2.59351-2.79141,3.85453
			c-0.64046,0.83983-1.36833,1.61295-2.05595,2.41691c-0.12704,0.14854-0.26823,0.2897-0.3696,0.45472
			c-0.68182,1.10997-1.68855,1.92259-2.58459,2.83595c-0.11464,0.11687-0.27234,0.1906-0.4059,0.28995
			c-0.7823,0.58179-1.56364,1.16487-2.34457,1.74855c-0.11142,0.08328-0.20905,0.18964-0.32932,0.25578
			c-1.12497,0.61894-2.25121,1.23576-3.38301,1.84207c-0.2198,0.11775-0.4581,0.22197-0.70038,0.27342
			c-1.58618,0.33681-3.18019,0.70239-4.80862,0.62624c-1.65021-0.07718-3.28737-0.39232-4.74208-1.20023
			c-0.9651-0.53596-1.87102-1.22481-2.67993-1.97786c-0.46716-0.43491-0.75017-1.10757-1.00778-1.71886
			c-0.4548-1.07934-0.8374-2.18983-1.22729-3.29536c-0.11966-0.33929-0.16708-0.70442-0.24289-1.05874
			c-0.14565-0.68084-0.31053-1.35867-0.42429-2.04488c-0.08627-0.52061-0.12912-1.05136-0.14992-1.57923
			c-0.0417-1.05775-0.07359-2.11665-0.07156-3.17501c0.00093-0.47034,0.05301-0.94948,0.15399-1.40878
			c0.19302-0.87811,0.26277-1.75874,0.30489-2.65674c0.04404-0.93871,0.24663-1.87384,0.42738-2.80128
			c0.19734-1.01241,0.43829-2.01683,0.68121-3.01965c0.14377-0.59348,0.32539-1.1779,0.49516-1.7649
			c0.12894-0.44579,0.30472-0.88374,0.22693-1.5214c-0.29639,0.25214-0.52077,0.40389-0.69661,0.59932
			c-0.82028,0.91158-1.71146,1.77602-2.4119,2.77345c-0.5484,0.78095-1.25098,1.4071-1.81253,2.14989
			c-1.01141,1.33788-2.09438,2.60782-3.21304,3.85261c-0.22102,0.24596-0.38651,0.541-0.5934,0.80083
			c-0.11719,0.14716-0.2625,0.27309-0.40215,0.40092c-0.22488,0.20574-0.50436,0.37073-0.67526,0.6132
			c-0.71071,1.00845-1.59796,1.85656-2.42688,2.75819c-0.20708,0.22523-0.37311,0.48801-0.57875,0.71475
			c-0.22089,0.24353-0.46347,0.46772-0.70172,0.69495c-0.14095,0.13443-0.3017,0.24887-0.43669,0.3886
			c-1.02785,1.06345-2.09549,2.09286-3.06244,3.20934c-0.75377,0.8703-1.54646,1.69038-2.44273,2.40118
			c-1.86252,1.4772-3.45154,3.25515-5.27495,4.76806c-1.02449,0.85001-2.00354,1.79388-3.22824,2.36972
			c-1.00847,0.47418-2.02332,0.94737-3.12885,1.17503c-0.24422,0.05029-0.48595,0.13791-0.71278,0.24295
			c-1.49152,0.69061-3.06415,1.0481-4.69972,1.03711c-2.46994-0.0166-4.91241-0.30586-7.25063-1.14058
			c-0.96576-0.34477-1.85146-0.91164-2.81432-1.26715c-1.14828-0.42398-2.10027-1.16217-3.11519-1.79311
			c-0.72668-0.45174-1.36519-1.05083-2.01904-1.61212c-0.37802-0.32451-0.69557-0.71846-1.06276-1.05681
			c-0.9982-0.91997-1.5244-2.18333-2.35995-3.22321c-0.3084-0.38385-0.51474-0.86066-0.71552-1.31796
			c-0.549-1.25053-1.08478-2.50737-1.59555-3.77392c-0.20818-0.51625-0.32962-1.06693-0.50848-1.59588
			c-0.06841-0.20235-0.18708-0.38771-0.31278-0.64119c-0.21387,0.1358-0.40191,0.20488-0.51829,0.33705
			c-0.99335,1.12838-1.95392,2.28619-2.9637,3.39943c-0.95296,1.05056-1.96704,2.04548-2.9282,3.08886
			c-0.56551,0.61395-1.07073,1.283-1.6209,1.91168c-0.43869,0.50132-0.90284,0.98042-1.35831,1.46696
			c-0.97248,1.03885-1.93562,2.08684-2.92593,3.10844c-0.36443,0.37592-0.77237,0.71942-1.19939,1.02296
			c-1.06898,0.75987-2.17596,1.46683-3.23611,2.23845c-0.54762,0.39856-1.14183,0.60455-1.79179,0.60991
			c-1.45704,0.01198-2.87225-0.16719-4.27025-0.67531c-1.03338-0.3756-2.04324-0.79712-2.95073-1.37578
			c-1.26122-0.80423-2.55608-1.60229-3.48926-2.83002c-0.25291-0.3327-0.55159-0.63017-0.81885-0.95244
			c-0.51496-0.62102-1.04279-1.23286-1.52909-1.8759c-1.06525-1.40867-1.97515-2.91531-2.53407-4.59679
			c-0.59903-1.80235-1.10871-3.63497-1.16385-5.55257c-0.0458-1.59007-0.10626-3.18293-0.05629-4.77128
			c0.02782-0.88287,0.2294-1.76764,0.42124-2.63641c0.38651-1.74989,1.04964-3.40932,1.73408-5.06065
			c0.13707-0.33076,0.14796-0.71236,0.2725-1.05005c0.39462-1.06985,0.82089-2.12791,1.22431-3.19456
			c0.29548-0.7812,0.51018-1.60033,0.87767-2.3449c0.39982-0.81007,0.57014-1.68869,0.90836-2.50947
			c0.55241-1.34064,1.16692-2.65554,1.74141-3.98727c0.30879-0.71577,0.59653-1.44094,0.88004-2.16723
			c0.48666-1.24686,1.00597-2.48338,1.43094-3.75126c0.43304-1.29182,0.76174-2.61836,1.15041-3.92545
			c0.1827-0.61442,0.44869-1.20756,0.58994-1.83009c0.31481-1.38758,0.51427-2.80369,0.8791-4.17673
			c0.23321-0.87782,0.2525-1.76524,0.36877-2.64657c0.1174-0.89066-0.29663-1.63321-0.87321-2.27576
			c-0.1147-0.1278-0.34222-0.19722-0.52513-0.21431c-1.6959-0.15851-3.38868-0.3307-5.09626-0.06454
			c-0.54118,0.08437-1.1124-0.0168-1.6694-0.04266c-0.61349-0.0285-1.22668-0.09794-1.83968-0.09438
			c-0.61488,0.00356-1.09212,0.23271-1.4472,0.81567c-0.6216,1.02055-1.37482,1.96047-2.00641,2.97552
			c-0.58555,0.94109-1.087,1.93475-1.61754,2.90959c-0.06435,0.11826-0.09897,0.26113-0.11425,0.39634
			c-0.11195,0.98968-0.59051,1.79823-1.30579,2.44731c-0.63221,0.57367-1.06918,1.28391-1.5554,1.9622
			c-0.64491,0.89964-0.96689,1.91734-1.20473,2.99666c-0.13908,0.631-0.50399,1.24196-0.87829,1.78548
			c-0.88017,1.27821-1.83932,2.50175-2.73907,3.76695c-0.25632,0.36047-0.43845,0.77899-0.62008,1.18627
			c-0.7971,1.78715-1.74416,3.48511-2.84894,5.10398c-0.83134,1.21826-1.55727,2.50797-2.35699,3.74854
			c-0.54262,0.84175-1.13554,1.65099-1.69897,2.47952c-0.408,0.60003-0.8086,1.2052-1.20551,1.81265
			c-0.97636,1.49424-2.06057,2.89528-3.30364,4.18646c-0.71078,0.73824-1.30219,1.60257-1.8784,2.45663
			c-0.9741,1.44376-2.18207,2.6729-3.38713,3.91345c-0.75625,0.77849-1.45023,1.61768-2.16707,2.43407
			c-0.64368,0.73303-1.28859,1.45035-2.07368,2.05499c-1.48088,1.1406-2.8908,2.36179-4.06944,3.84087
			c-0.49752,0.62436-1.19363,1.08908-1.79081,1.63583c-0.86219,0.78933-1.77386,1.5095-2.72919,2.18777
			c-0.65068,0.46199-1.17389,1.1016-1.76529,1.6497c-0.38732,0.3589-0.79119,0.70027-1.19367,1.04242
			c-1.51107,1.28455-3.1073,2.45268-4.85264,3.39784c-0.78267,0.42383-1.61561,0.75436-2.42372,1.13159
			c-0.78087,0.36449-1.55887,0.73511-2.3388,1.10164c-0.09926,0.04665-0.19897,0.09889-0.30429,0.12498
			c-1.62163,0.40189-3.24224,0.80809-4.86788,1.19324c-0.43246,0.10246-0.8805,0.14056-1.32218,0.20238
			c-0.24849,0.03476-0.51595,0.01051-0.7449,0.09447c-0.76223,0.27953-1.53216,0.21497-2.31852,0.1683
			c-1.0596-0.06285-2.13156-0.13327-3.18411-0.04066c-1.18273,0.10405-2.27367-0.19864-3.36988-0.50369
			c-0.91159-0.25371-1.78475-0.64357-2.69315-0.91135c-1.9641-0.57898-3.64414-1.65553-5.2484-2.88284
			c-0.39822-0.30464-0.83408-0.55952-1.24107-0.85333c-0.20085-0.14502-0.39814-0.30713-0.55794-0.49478
			c-0.95878-1.12555-1.8981-2.26762-2.85999-3.39046c-0.71664-0.83662-1.23587-1.78768-1.72326-2.76686
			c-0.3346-0.67233-0.76158-1.29853-1.09913-1.96955c-0.36299-0.7216-0.65486-1.47865-1.00556-2.20683
			c-0.28966-0.60159-0.65306-1.16892-0.92351-1.77819c-0.32686-0.73621-0.65621-1.48272-0.86612-2.25687
			c-0.35762-1.31914-0.62889-2.66199-0.92396-3.99762c-0.10225-0.46275-0.21793-0.9312-0.24095-1.40128
			c-0.09848-2.00892-0.30883-4.02737-0.19852-6.02692c0.09459-1.71517,0.0993-3.45525,0.50862-5.15588
			c0.24681-1.0252,0.29794-2.09618,0.47634-3.13985c0.07284-0.42616,0.25144-0.83398,0.37884-1.2511
			c0.7093-2.32153,1.4139-4.6445,2.128-6.96454c0.30347-0.98601,0.56253-1.99233,0.95415-2.94312
			c0.69009-1.67535,1.47072-3.31326,2.20513-4.97053c0.46331-1.04547,0.88369-2.11079,1.37359-3.14339
			c0.57379-1.20943,1.20465-2.39169,1.80589-3.58819c0.46151-0.91835,0.88992-1.85439,1.38076-2.7566
			c0.3838-0.70548,0.82732-1.38002,1.26823-2.05261c0.85698-1.30723,1.71872-2.61169,2.60093-3.90196
			c0.84977-1.24287,1.72888-2.46568,2.59315-3.69866c0.39928-0.56946,0.7764-1.1554,1.19527-1.70995
			c0.50407-0.66735,1.05566-1.29879,1.56207-1.96449c0.87742-1.15341,1.74969-2.31129,2.59856-3.48576
			c0.9045-1.25144,1.97217-2.34537,3.10828-3.38315c1.39993-1.27875,2.76766-2.59055,3.90644-4.11874
			c0.13277-0.17815,0.27451-0.35609,0.44033-0.5021c1.08622-0.95677,2.16732-1.92006,3.27476-2.85186
			c1.55851-1.31131,3.11971-2.62086,4.71697-3.88411c0.8304-0.65677,1.74055-1.21268,2.61503-1.81366
			c0.27594-0.18962,0.56195-0.36579,0.82802-0.56828c1.95537-1.48816,3.91603-2.96968,5.85546-4.47837
			c0.91483-0.71161,1.9514-1.17694,2.99272-1.6509c1.34356-0.61151,2.64116-1.33652,4.0152-1.86571
			c2.15757-0.83101,4.31965-1.737,6.70073-1.67073c1.67467,0.04661,3.36099,0.06341,5.01597,0.28712
			c1.06009,0.1433,2.07949,0.61938,3.10476,0.98137c1.37785,0.48651,2.60704,1.2682,3.83012,2.04582
			c0.58645,0.3728,1.10445,0.85246,1.6594,1.27593c0.28736,0.21926,0.58911,0.41963,0.88152,0.63239
			c0.1347,0.09795,0.27856,0.19027,0.39121,0.3105c1.18335,1.26294,2.33807,2.55393,3.5564,3.78192
			c0.31429,0.31678,0.57449,0.65017,0.84179,0.99746c0.40669,0.52848,0.87164,1.01273,1.31984,1.50856
			c1.27216,1.40741,2.53441,2.8231,3.58454,4.41017c0.34123,0.51571,0.71458,0.92476,1.42537,0.77177
			c0.13342-0.02873,0.33087,0.06459,0.44749,0.16259c0.54971,0.46193,1.07152,0.95713,1.62237,1.41763
			c0.68641,0.57384,0.79738,1.17636,0.21667,1.86328c-0.33354,0.39454-0.74618,0.75782-1.19334,1.01144
			c-0.52541,0.29803-1.12735,0.46074-1.69517,0.68461c-0.18053,0.07119-0.37835,0.12126-0.53365,0.23029
			c-1.51135,1.06087-3.13351,1.92714-4.80222,2.70343c-0.52525,0.24434-1.09986,0.34985-1.70749,0.19333
			c-0.98111-0.2527-1.7807-0.78979-2.49677-1.47414c-0.11523-0.11015-0.2031-0.2671-0.25845-0.4189
			c-0.36844-1.01029-0.99282-1.86467-1.63425-2.70818c-0.15141-0.19912-0.34005-0.3695-0.5051-0.55876
			c-0.45627-0.52319-0.89925-1.05836-1.36605-1.57191c-0.50518-0.55578-1.05119-1.0753-1.54277-1.64235
			c-0.5076-0.58549-0.97205-1.20844-1.45331-1.81667c-0.08652-0.10937-0.14907-0.24055-0.2462-0.33828
			c-0.72667-0.73129-1.40722-1.52053-2.2023-2.16885c-1.16545-0.95027-2.34564-1.91872-3.645-2.65926
			c-1.59078-0.90664-3.25063-1.75683-5.19658-1.66755c-0.63434,0.02911-1.27519-0.11787-1.91244-0.11204
			c-0.91888,0.0084-1.84124,0.04453-2.75463,0.14007c-0.85583,0.08952-1.55563,0.56392-2.25634,1.04354
			c-1.35655,0.92864-2.74644,1.80852-4.12273,2.70835c-0.07005,0.04581-0.14674,0.0829-0.2117,0.13484
			c-1.11133,0.8881-2.23742,1.75868-3.32798,2.67163c-1.86033,1.55736-3.68822,3.1495-5.31882,4.95798
			c-0.48203,0.53458-1.08672,0.95784-1.62921,1.43882c-0.93768,0.83134-1.89827,1.63966-2.7947,2.51357
			c-0.49453,0.48208-0.86694,1.08736-1.31431,1.62038c-0.65794,0.7839-1.18618,1.67572-1.9618,2.36176
			c-0.06268,0.05542-0.12339,0.11497-0.17541,0.18023c-1.24873,1.56672-2.52748,3.11079-3.7334,4.70985
			c-0.88976,1.17987-1.67996,2.43459-2.52302,3.65007c-0.33292,0.48011-0.71279,0.92898-1.02649,1.42064
			c-0.238,0.37309-0.38556,0.80272-0.60816,1.18702c-0.36291,0.6263-0.76407,1.23035-1.13128,1.85429
			c-0.57801,0.98223-1.15553,1.96534-1.70413,2.9641c-0.24009,0.43719-0.34353,0.95805-0.62082,1.36466
			c-0.9326,1.36749-1.68685,2.8101-2.21931,4.38329c-0.27528,0.81326-0.68354,1.58599-1.07746,2.35355
			c-0.63602,1.2394-1.23185,2.49487-1.55895,3.85327c-0.15718,0.65305-0.55499,1.1886-0.72589,1.84905
			c-0.38245,1.47726-0.95116,2.90517-1.39002,4.36937c-0.26336,0.87855-0.41366,1.79041-0.63549,2.68214
			c-0.25455,1.02345-0.55974,2.03497-0.7905,3.06345c-0.16312,0.72713-0.27119,1.4706-0.3466,2.21257
			c-0.12978,1.27729-0.24669,2.55759-0.30773,3.83955c-0.04101,0.86006,0.01647,1.72543,0.04797,2.58777
			c0.00569,0.15678,0.10524,0.30846,0.14833,0.46606c0.03507,0.12836,0.11245,0.29248,0.06513,0.3886
			c-0.40723,0.82715-0.1553,1.66302,0.00582,2.46811c0.29568,1.47729,0.66011,2.94261,1.05046,4.39827
			c0.15644,0.58353,0.45053,1.13123,0.69366,1.69013c0.36721,0.84409,0.74666,1.68283,1.11633,2.5259
			c0.08971,0.20449,0.12015,0.44745,0.24829,0.62057c0.80639,1.0893,1.17196,2.40385,1.84485,3.55997
			c0.49485,0.85021,1.11191,1.59792,1.84558,2.25284c0.12081,0.10782,0.24431,0.24096,0.30048,0.3877
			c0.19102,0.49879,0.57588,0.82146,0.98365,1.11549c0.52054,0.37541,1.05763,0.72885,1.59767,1.0761
			c1.0877,0.69936,2.28911,1.14513,3.5124,1.53507c0.29179,0.09301,0.60644,0.1148,0.89729,0.21004
			c1.51205,0.49515,3.07539,0.44551,4.63659,0.50885c1.17749,0.04777,2.34298,0.04018,3.50798-0.11144
			c0.41276-0.05373,0.82188-0.14078,1.22927-0.22859c1.06127-0.22882,2.11288-0.51488,3.18296-0.68716
			c1.09081-0.17563,2.09612-0.5867,3.10844-0.97833c1.09184-0.42241,2.15589-0.91627,3.23417-1.37408
			c0.72331-0.30711,1.41254-0.65097,1.94324-1.26666c0.25116-0.29135,0.60837-0.48862,0.88148-0.7642
			c1.00011-1.00904,2.0128-2.0079,2.96818-3.05837c1.02047-1.12202,2.22947-2.02224,3.36517-3.00915
			c0.14735-0.12805,0.32542-0.22453,0.45811-0.36505c0.68927-0.73022,1.37142-1.46718,2.05016-2.20724
			c0.56462-0.61566,1.12141-1.23854,1.68099-1.85881c0.16812-0.18635,0.34832-0.36392,0.49858-0.56389
			c0.93699-1.24705,1.82813-2.53093,2.81137-3.74009c0.83118-1.02216,1.45597-2.15487,2.1062-3.28726
			c0.618-1.07618,1.25529-2.14357,1.9949-3.15359c0.65437-0.89362,1.24058-1.87134,1.66415-2.89191
			c0.6545-1.57686,1.45326-3.05472,2.45522-4.42702c0.6721-0.92046,1.37489-1.81844,2.05757-2.73126
			c0.14879-0.19893,0.31068-0.40299,0.39687-0.63101c0.26414-0.69907,0.46323-1.42363,0.74511-2.11481
			c0.43218-1.05959,0.92695-2.08659,1.61147-3.0202c0.67211-0.91676,1.35122-1.82125,1.74666-2.92758
			c0.30535-0.85432,0.84227-1.62496,1.26511-2.4386c0.17942-0.34526,0.29855-0.72478,0.50018-1.05506
			c0.65105-1.06631,1.33705-2.11131,1.98868-3.17728c0.18741-0.30656,0.28938-0.66403,0.45651-0.98463
			c0.34861-0.66859,0.67419-1.35466,1.08675-1.9826c0.29953-0.45593,0.47449-0.93484,0.63057-1.44524
			c0.15398-0.5038,0.38687-0.98408,0.59468-1.47061c0.13133-0.3074,0.26279-0.61702,0.42525-0.90831
			c0.22846-0.40954,0.43742-0.84473,0.74023-1.1951c0.76354-0.88358,1.57411-1.72659,2.36858-2.58334
			c0.07537-0.08131,0.16185-0.15882,0.25697-0.21445c1.02813-0.60099,1.81384-1.47263,2.58889-2.34814
			c0.66977-0.75652,1.51917-0.90696,2.4426-0.78188c1.53495,0.20791,3.06699,0.08274,4.60197,0.03951
			c0.97464-0.02744,1.95099,0.01225,2.92657,0.01175c0.75277-0.00038,1.50558-0.01286,2.25822-0.0268
			c0.47437-0.0088,0.95152-0.07274,1.42205-0.03827c1.6412,0.12025,3.31208,0.10741,4.88689,0.64093
			c1.29045,0.43716,2.58156,0.92036,3.31698,2.24165c0.28124,0.50534,0.70918,0.93111,1.08421,1.38154
			c0.29375,0.35287,0.4901,0.73871,0.55632,1.19821c0.06368,0.44184,0.1963,0.87629,0.22961,1.31918
			c0.02884,0.38344,0.01182,0.78577-0.07343,1.15957c-0.3217,1.41096-0.69712,2.80969-1.0182,4.22079
			c-0.259,1.13821-0.46431,2.28857-0.70459,3.43119c-0.03931,0.18695-0.10221,0.38655-0.21246,0.53786
			c-0.4246,0.58284-0.60562,1.2701-0.75163,1.94185c-0.3516,1.6172-0.92664,3.16079-1.48772,4.7051
			c-0.34966,0.96239-0.88773,1.85558-1.32847,2.78588c-0.31016,0.6546-0.64912,1.30189-0.88635,1.98338
			c-0.44039,1.26511-0.91347,2.51028-1.5932,3.66975c-0.09815,0.16736-0.17143,0.3531-0.23145,0.53838
			c-0.55199,1.70476-1.2876,3.33025-2.10747,4.9201c-0.07644,0.14827-0.16792,0.30018-0.19598,0.46029
			c-0.23383,1.33315-0.88721,2.51753-1.31313,3.78036c-0.46302,1.37286-0.82122,2.78508-1.14881,4.19784
			c-0.14965,0.64526-0.18172,1.33581-0.15292,2.00086c0.07238,1.67006,0.06808,3.35287,0.53487,4.98227
			c0.03077,0.10739,0.07484,0.21696,0.07603,0.32593c0.01131,1.03466,0.46671,1.9465,0.80676,2.88641
			c0.44811,1.23849,1.04731,2.40424,1.86369,3.44489c1.05304,1.3423,2.15589,2.64326,3.69195,3.46271
			c0.61308,0.32707,1.26254,0.60691,1.92479,0.81487c0.65396,0.20538,1.31016,0.15973,1.91725-0.26942
			c0.56574-0.39997,1.1219-0.8419,1.84108-0.959c0.05247-0.00855,0.10886-0.03829,0.14841-0.07455
			c1.06545-0.9772,2.42579-1.58159,3.33189-2.77915c0.58389-0.77169,1.31741-1.44617,2.05531-2.08119
			c0.88228-0.75924,1.53973-1.68658,2.20937-2.61388c0.13072-0.18098,0.25237-0.37157,0.40369-0.534
			c0.36201-0.38863,0.57025-0.82422,0.49416-1.36778c-0.00768-0.05476-0.00195-0.11147-0.00182-0.16726
			c0.00131-0.57585,0.63092-0.77736,0.76237-1.25791c0.1392-0.50874,0.39881-0.82065,0.92651-0.95953
			c0.25175-0.06626,0.4892-0.26814,0.68198-0.45998c0.3729-0.37115,0.72713-0.76489,1.05261-1.17801
			c0.13058-0.16573,0.18905-0.40171,0.23831-0.6154c0.12505-0.54212,0.26789-1.0851,0.3289-1.63601
			c0.15069-1.36034,0.55057-2.66447,0.82825-3.99577c0.22916-1.09866,0.53101-2.16434,0.94827-3.20264
			c0.07196-0.17907,0.08971-0.37984,0.13332-0.57039c0.14294-0.62461,0.25659-1.24901,0.67308-1.78483
			c0.17593-0.22633,0.1929-0.57467,0.28824-0.86555c0.14764-0.45039,0.29706-0.90025,0.452-1.34817
			c0.1819-0.52604,0.42062-1.03801,0.54701-1.57666c0.39183-1.66994,1.04932-3.22254,1.88283-4.71778
			c0.61031-1.09493,1.1373-2.23643,1.69775-3.35902c0.41019-0.82156,0.80602-1.64099,1.35271-2.39616
			c1.01291-1.39915,1.90349-2.88689,2.91721-4.28539c0.7341-1.01274,1.5842-1.94144,2.38361-2.90676
			c0.44324-0.53526,0.86438-1.09144,1.33855-1.59789c0.75914-0.81081,1.55533-1.58686,2.33327-2.38013
			c0.3503-0.35724,0.68184-0.7338,1.0444-1.07787c0.52376-0.49706,1.06715-0.97346,1.60452-1.45604
			c0.06158-0.05532,0.1333-0.10542,0.20886-0.13818c0.78076-0.33829,1.42537-0.87058,2.06296-1.41868
			c0.88739-0.76277,1.77832-1.52216,2.68732-2.25881c0.53992-0.43756,1.11774-0.82832,1.67812-1.24068
			c0.91968-0.6768,1.83168-1.36438,2.76189-2.02641c0.40781-0.29023,0.84334-0.54517,1.28218-0.78737
			c0.99892-0.55135,2.0215-1.06108,3.00812-1.63318c0.80135-0.46467,1.5755-0.94808,2.5466-0.9814
			c0.29677-0.01018,0.58788-0.16654,0.88284-0.25157c1.673-0.48232,3.38588-0.53551,5.06308-0.17431
			c1.22057,0.26286,2.37796,0.77423,3.22597,1.81522c0.74554,0.91515,1.30786,1.93776,1.93663,2.92419
			c0.5192,0.81454,0.80627,1.7214,1.11481,2.60739c0.24239,0.69598,0.28035,1.47768,0.32172,2.22612
			c0.09149,1.65672-0.17084,3.28787-0.48108,4.90839c-0.11525,0.6022-0.27063,1.19898-0.44485,1.78725
			c-0.55518,1.87464-1.11784,3.74723-1.70155,5.61313c-0.12338,0.39442-0.34589,0.75829-0.52795,1.13368
			c-0.06062,0.12494-0.15935,0.23444-0.20384,0.36367c-0.43877,1.27416-1.16565,2.40513-1.86836,3.53056
			c-1.00218,1.60506-2.05009,3.18243-3.36081,4.57906c-0.95845,1.02132-1.90421,2.03218-3.04005,2.86449
			c-0.48918,0.35844-0.9165,0.81969-1.30974,1.28659c-0.7007,0.83193-1.61844,1.392-2.52321,1.9152
			c-1.59097,0.92004-3.20644,1.82424-4.94174,2.45501c-0.91548,0.33276-1.87904,0.5333-2.82115,0.79266
			c-0.02641,0.00726-0.05795-0.00208-0.08319,0.0071c-1.17438,0.42773-2.39073,0.44763-3.62404,0.45548
			c-0.59622,0.0038-1.19832,0.24079-1.78395,0.41783c-0.55945,0.16912-1.09712,0.40883-1.65138,0.5969
			c-0.65399,0.2219-1.30138,0.24317-1.97672-0.14622c0.22429-0.63476,0.274-1.31893,0.91045-1.72092
			c0.11452-0.07235,0.21935-0.17919,0.2934-0.29302c0.27559-0.4237,0.69414-0.61025,1.14172-0.80126
			c0.45508-0.19422,0.9505-0.41899,1.26891-0.7735c0.32639-0.36333,0.67981-0.53529,1.11369-0.6624
			c0.48039-0.14073,0.90575-0.35268,1.30104-0.71046c0.3911-0.35403,0.90164-0.54837,1.48656-0.66061
			c0.64067-0.12293,1.34445-0.08289,1.92662-0.37685c0.56319-0.28439,1.067-0.70614,1.5536-1.11863
			c1.53464-1.30093,2.91734-2.73573,4.09811-4.38322c1.03113-1.43871,1.80107-3.00938,2.6329-4.55365
			c1.03957-1.92975,1.6517-4.01096,2.21468-6.1125c0.38947-1.45393,0.73914-2.91246,0.85229-4.42089
			c0.07091-0.94469,0.22765-1.88367,0.2793-2.82887c0.05711-1.04524-0.11859-2.05859-0.61784-3.00246
			c-0.20732-0.39191-0.34215-0.82225-0.5509-1.21325c-0.18442-0.34538-0.49335-0.53035-0.90645-0.4617
			c-1.26562,0.21033-2.52667,0.45374-3.7975,0.62518c-0.90683,0.12234-1.55455,0.71404-2.31441,1.10918
			c-1.313,0.68281-2.30081,1.76138-3.4023,2.70107c-1.10626,0.94376-2.00372,2.09216-3.01161,3.12891
			c-1.02023,1.04944-1.83273,2.24689-2.75089,3.36629c-0.59906,0.73033-1.08936,1.55011-1.62465,2.33239
			c-0.20416,0.29837-0.41493,0.59418-0.59317,0.90797c-0.61987,1.09128-1.23785,2.18394-1.83475,3.28786
			c-0.39754,0.73518-0.72963,1.5065-1.14134,2.23311c-0.69707,1.23022-0.93332,2.62356-1.44403,3.91857
			c-0.20421,0.51785-0.34897,1.06206-0.58575,1.56362c-0.79111,1.67566-1.11996,3.50911-1.8055,5.21684
			c-0.64934,1.61762-0.80264,3.35315-1.27194,5.01385c-0.24744,0.87567-0.23773,1.82275-0.35896,2.73563
			c-0.29539,2.22422,0.09006,4.388,0.56514,6.54471c0.0661,0.30011,0.17792,0.59672,0.19667,0.89939
			c0.04449,0.7192,0.30028,1.33241,0.68091,1.94619c0.28343,0.45697,0.3215,1.05867,0.55023,1.55871
			c0.3573,0.78122,0.76573,1.54091,1.18729,2.29014c0.24445,0.43443,0.55246,0.83372,0.83963,1.24339
			c1.01605,1.44978,2.37669,2.5248,3.92848,3.30628c1.92204,0.96795,3.91891,1.76778,6.1096,1.94466
			c1.27687,0.10309,2.54607,0.23557,3.82684,0.03431c0.38414-0.06036,0.66611-0.19264,0.91798-0.49806
			c0.46706-0.56644,1.03769-0.92812,1.79439-1.12429c1.37195-0.35564,2.69218-0.8539,3.78795-1.85629
			c1.89287-1.73159,3.77835-3.4846,5.7988-5.05949c1.90816-1.48742,3.36237-3.43074,5.25706-4.91679
			c0.36772-0.2884,0.63135-0.70667,0.95857-1.0502c0.55792-0.58575,1.09146-1.20236,1.7018-1.72884
			c0.94272-0.81316,1.59691-1.86133,2.40669-2.78081c0.46094-0.52335,0.94923-1.02264,1.40787-1.54792
			c0.60468-0.6925,1.19603-1.39676,1.78604-2.10188c0.48221-0.57629,0.9079-1.20794,1.4395-1.73323
			c1.35411-1.33808,2.59808-2.75579,3.63965-4.35654c0.31361-0.48199,0.76405-0.88926,1.20372-1.27096
			c0.44904-0.38982,0.81233-0.81225,1.11072-1.33606c0.42696-0.74948,0.98854-1.4209,1.44853-2.15331
			c0.47154-0.7508,0.87207-1.54602,1.33926-2.29975c0.2308-0.37238,0.52841-0.70675,0.81868-1.03831
			c1.12987-1.29066,2.08586-2.69844,2.73817-4.28491c0.4747-1.15453,1.21898-2.13083,1.89664-3.15337
			c0.66371-1.00145,1.35025-1.98778,2.02901-2.97923c0.45712-0.66781,0.95512-1.31106,1.36682-2.00562
			c0.40947-0.69077,0.73251-1.43262,1.0966-2.15049c0.10051-0.1982,0.18452-0.41344,0.32312-0.58226
			c1.00681-1.2265,2.02875-2.44057,3.03989-3.66355c1.19173-1.44139,2.37381-2.89075,3.56728-4.33068
			c0.53394-0.64418,1.05843-1.2998,1.63786-1.90146c0.44299-0.46,0.93971-0.88007,1.46173-1.24813
			c0.3557-0.2508,0.78047-0.43927,1.20203-0.55401c1.04866-0.28544,2.0249-0.76174,3.11179-0.97316
			c1.79555-0.34927,3.59599-0.39587,5.4061-0.42508c0.27827-0.00449,0.55736,0.05239,0.83592,0.05117
			c0.80705-0.00354,1.61444-0.00988,2.42094-0.0375c1.75766-0.0602,3.53926-0.30241,5.26132,0.10878
			c1.5882,0.37922,3.22186,0.35957,4.79362,0.72411c1.21068,0.28079,2.40833,0.42853,3.64261,0.3515
			c0.16139-0.01007,0.34612,0.02334,0.4888,0.09708c0.89035,0.46014,1.83846,0.8216,2.59729,1.51042
			c0.67715,0.61469,0.7289,0.86353,0.06522,1.47626c-0.97798,0.90282-2.00919,1.74868-3.02998,2.60416
			c-0.74826,0.6271-1.54581,1.19805-2.26797,1.85291c-0.9304,0.8437-1.98927,1.30855-3.24263,1.30758
			c-1.20108-0.00093-2.39262-0.04583-3.56743-0.38038c-0.52518-0.14956-1.10808-0.087-1.6618-0.14795
			c-0.86014-0.0947-1.71793-0.211-2.57632-0.32114c-2.28201-0.29279-4.5688-0.18565-6.85622-0.09343
			c-0.44514,0.01794-0.89253-0.01688-1.33879-0.03101c-0.52814-0.01672-1.05954-0.08452-1.58353-0.04684
			c-1.22206,0.0879-2.43863,0.25757-3.66121,0.33085c-0.6873,0.04119-1.09738,0.38821-1.33919,0.9642
			c-0.29712,0.70767-0.76103,1.28209-1.25507,1.85633c-0.39737,0.46194-0.70006,1.00597-1.03897,1.5174
			c-0.41484,0.62599-0.86954,1.23129-1.22398,1.8902c-0.49362,0.91769-1.40587,1.47701-1.92325,2.35983
			c-0.20755,0.3541-0.36076,0.74049-0.53209,1.11521c-0.08014,0.17531-0.11729,0.37559-0.2206,0.53412
			c-0.57928,0.88872-1.18208,1.76213-1.7588,2.65247c-0.57607,0.88923-1.13148,1.79186-1.69418,2.68972
			c-0.04411,0.07045-0.10571,0.14896-0.10683,0.22449c-0.01711,1.15585-0.78993,1.99653-1.22601,2.9777
			c-0.29269,0.65863-0.53839,1.33801-0.81303,2.00482c-0.61383,1.49026-1.25325,2.97037-1.84253,4.47021
			c-0.42819,1.08978-0.78828,2.20618-1.18745,3.30755c-0.21819,0.60206-0.45963,1.19566-0.68074,1.79671
			c-0.134,0.36422-0.28435,0.72775-0.36598,1.10485c-0.19452,0.89861-0.3466,1.80634-0.52979,2.70756
			c-0.04375,0.21523-0.16313,0.41466-0.21123,0.62952c-0.13948,0.62349-0.28993,1.24689-0.381,1.87824
			c-0.10724,0.74382-0.19199,1.49448-0.22374,2.24483c-0.06024,1.42313-0.12669,2.84938-0.09279,4.27198
			c0.02449,1.02851,0.19936,2.05418,0.32188,3.07934c0.07278,0.60926,0.10301,1.2365,0.27788,1.81792
			c0.33665,1.11932,0.71217,2.2329,1.1636,3.3103c0.60262,1.43823,1.93687,2.14706,3.6044,2.01776
			c1.40718-0.10911,2.72366-0.47579,4.00232-1.11895c1.36023-0.68418,2.57503-1.56316,3.81941-2.41422
			c1.5787-1.07971,2.96365-2.35896,4.14406-3.86231c0.0685-0.08723,0.14706-0.17321,0.23772-0.23531
			c0.8154-0.55865,1.22253-1.42429,1.71844-2.23058c0.30449-0.49506,0.67682-0.95064,1.041-1.40611
			c0.32974-0.4124,0.6618-0.82996,1.04303-1.19249c0.54097-0.51446,0.7901-1.20594,1.18102-1.80939
			c0.49997-0.77186,0.93831-1.58351,1.41019-2.37386c0.09967-0.16691,0.22194-0.32216,0.3468-0.47192
			c0.76715-0.91992,1.47096-1.87719,1.98834-2.96916c0.22464-0.47409,0.51778-0.93169,0.85603-1.33245
			c0.60599-0.71795,0.99713-1.54018,1.3488-2.39498c0.10495-0.25512,0.28999-0.47619,0.40974-0.72652
			c0.95235-1.99061,2.24388-3.7784,3.36491-5.66789c0.49268-0.83045,1.17625-1.57491,1.3208-2.58849
			c0.01096-0.07691,0.06227-0.16129,0.11961-0.21642c0.86125-0.82761,1.26692-1.9662,1.97942-2.89887
			c0.38452-0.50336,0.63478-1.10978,0.94176-1.67181c0.45338-0.8299,0.90984-1.65826,1.34985-2.49522
			c0.1022-0.19439,0.16553-0.4165,0.20868-0.63342c0.2027-1.01898,0.84685-1.80325,1.42934-2.60481
			c0.22963-0.31599,0.61118-0.5191,0.88161-0.85046c0.68497-0.83928,1.45918-1.60536,2.18806-2.40945
			c0.18594-0.20511,0.32814-0.44923,0.50504-0.66335c0.1757-0.21262,0.35107-0.43224,0.56044-0.60864
			c0.28188-0.23746,0.57515-0.24793,0.92044-0.04188c1.07478,0.64135,1.93622,0.12822,2.35449-0.61237
			c0.25279-0.44753,0.66917-0.6614,1.05258-0.92902c0.28465-0.19868,0.5874-0.1316,0.86308,0.05462
			c0.66805,0.45116,1.35493,0.87042,1.93037,1.45365c0.32892,0.3334,0.48082,0.67319,0.37607,1.12359
			c-0.08855,0.38082-0.14415,0.77544-0.28384,1.13713c-0.48203,1.24807-0.9502,2.52091-1.78671,3.5761
			c-0.67715,0.85413-1.09517,1.83605-1.45509,2.81393c-0.37091,1.00764-0.92459,1.90614-1.35626,2.87164
			c-0.05685,0.12718-0.20312,0.25578-0.18777,0.36715c0.10419,0.75535-0.44302,1.17007-0.78389,1.72507
			c-0.62399,1.0158-1.1945,2.07332-1.5932,3.21507c-0.20004,0.57292-0.5639,1.08647-0.80971,1.64618
			c-0.27899,0.63516-0.51015,1.2914-0.7597,1.93941c-0.41008,1.06487-0.79163,2.13863-1.38345,3.12764
			c-0.28337,0.47354-0.49052,1.00238-0.6671,1.52805c-0.31824,0.94753-0.58736,1.91157-0.87766,2.8685
			c-0.01614,0.05321-0.02422,0.11852-0.05988,0.15472c-0.87312,0.88614-0.83733,2.09068-1.11032,3.18377
			c-0.42534,1.70325-0.7101,3.43342-0.86658,5.18095c-0.09694,1.08263-0.12489,2.17131-0.19106,3.25684
			c-0.04076,0.66895-0.06422,1.34103-0.14934,2.00479c-0.21944,1.71223,0.07072,3.33917,0.7674,4.90167
			c0.28664,0.64287,0.72606,0.87109,1.42931,0.71318c1.17743-0.26438,2.31018-0.63486,3.2914-1.39172
			c0.39168-0.30212,0.86203-0.50833,1.31116-0.72851c0.68333-0.33498,1.28743-0.75086,1.8201-1.31208
			c1.17084-1.23358,2.44934-2.34969,3.8562-3.31754c0.45529-0.31323,0.93932-0.65622,1.24678-1.09906
			c0.81863-1.17912,1.8661-2.14881,2.79385-3.22607c0.50653-0.58815,1.11429-1.09048,1.6075-1.68833
			c0.47807-0.57948,0.86365-1.23479,1.29761-1.85132c0.67392-0.95744,1.30072-1.95452,2.04295-2.85622
			c1.77922-2.16152,3.21329-4.5587,4.79182-6.85691c0.91443-1.33137,1.77399-2.7009,2.70322-4.02158
			c1.65256-2.34866,3.20612-4.76698,5.00497-7.01378c0.62402-0.77945,1.08981-1.68362,1.65976-2.50882
			c0.83853-1.21411,1.65079-2.45284,2.57718-3.59779c0.79599-0.9838,1.50833-2.0102,2.0947-3.12189
			c0.681-1.29111,1.5441-2.43968,2.49762-3.53882c0.3754-0.43274,0.61475-0.98901,0.88721-1.50428
			c0.49457-0.9353,0.94708-1.89323,1.45624-2.82025c0.37527-0.6833,0.80038-1.34054,1.2272-1.99376
			c0.25836-0.3954,0.55652-0.76552,0.84723-1.13888c0.41141-0.52837,0.83307-1.04876,1.24921-1.57345
			c0.44919-0.56635,0.85034-1.17979,1.35498-1.69133c1.15616-1.17202,2.36407-2.29293,3.54688-3.43884
			c0.17963-0.17403,0.3251-0.3838,0.50766-0.55421c0.32562-0.30389,0.64804-0.61835,1.0116-0.87111
			c0.15775-0.10966,0.47144-0.17665,0.61646-0.09313c0.86368,0.49728,1.77652,0.92541,2.40021,1.77099
			c0.311,0.42162,0.3866,0.8069,0.29852,1.31938c-0.22861,1.33025-0.68259,2.58911-1.11801,3.85495
			c-0.11719,0.34084-0.30975,0.65543-0.46317,0.98421c-0.30643,0.65657-0.61545,1.312-0.91263,1.97276
			c-0.30844,0.68582-0.61063,1.37462-0.9035,2.06721c-0.28165,0.66605-0.58173,1.32709-0.8147,2.01044
			c-0.74686,2.19047-1.46832,4.38962-2.19446,6.5871c-0.1138,0.3444-0.2045,0.69664-0.29959,1.04697
			c-0.1535,0.56557-0.34335,1.09505-0.69217,1.59605c-0.36041,0.51772-0.58847,1.13966-0.80887,1.74007
			c-0.35443,0.96548-0.84183,1.89233-0.89221,2.95554c-0.01135,0.23972-0.16046,0.47028-0.22379,0.71095
			c-0.05295,0.20096-0.07321,0.41051-0.13376,0.76927c0.54593-0.32131,0.84308-0.64694,1.08954-1.04221
			c0.27811-0.44596,0.58536-0.87376,0.88095-1.30874c0.03128-0.04598,0.08618-0.0817,0.10236-0.13124
			c0.29297-0.89711,1.0831-1.39641,1.64319-2.08075c0.91794-1.12158,1.80356-2.27095,2.66925-3.43357
			c0.7467-1.00277,1.49719-1.99597,2.34583-2.91968c0.92303-1.00473,1.7735-2.07593,2.6647-3.11031
			c0.25464-0.29556,0.55267-0.55355,0.81024-0.84683c0.56924-0.64821,1.11548-1.3168,1.69022-1.95998
			c0.42624-0.47701,0.87451-0.93519,1.32703-1.38767c1.22375-1.22368,2.45703-2.43787,3.68161-3.66071
			c0.2366-0.23626,0.45779-0.48898,0.67429-0.74409c0.6008-0.70791,1.33023-1.26361,2.06549-1.82161
			c0.53009-0.40232,0.99448-0.89056,1.49561-1.33205c0.18668-0.16447,0.38055-0.32917,0.59488-0.45256
			c1.5715-0.90474,3.14215-1.81136,4.72757-2.69127c0.76202-0.42293,1.57211-0.72078,2.46729-0.73154
			c0.58411-0.00703,1.16861-0.09151,1.7514-0.07782c1.68793,0.03966,3.12827,0.75487,4.47992,1.69953
			c0.7782,0.5439,1.23959,1.35733,1.78809,2.09181c0.39911,0.53445,0.72668,1.12321,1.07462,1.69478
			c0.46664,0.76663,0.82849,1.56416,0.94952,2.47708c0.08746,0.6597,0.30975,1.30246,0.48425,1.94945
			c0.28979,1.07427,0.34418,2.14405-0.0253,3.21185c-0.01825,0.05278-0.05557,0.10644-0.05273,0.15796
			c0.08044,1.45919-0.33969,2.87311-0.38516,4.32019c-0.00314,0.0995,0.05396,0.20089,0.09341,0.33717
			c0.39944-0.08284,0.59665-0.36781,0.77795-0.62769c0.87119-1.24883,2.0704-2.18573,3.09766-3.28542
			c0.70428-0.75393,1.46942-1.45126,2.21283-2.16817c0.24008-0.23148,0.4935-0.44968,0.74786-0.66567
			c1.8067-1.53428,3.61536-3.06631,5.42297-4.59952c0.08499-0.0721,0.15408-0.17879,0.25131-0.21813
			c0.85849-0.34732,1.36304-1.14345,2.10068-1.64273c0.59738-0.40432,1.18594-0.82169,1.78345-1.22577
			c0.20798-0.14062,0.46213-0.22545,0.64212-0.39283c0.92438-0.85956,2.07574-1.28465,3.20731-1.771
			c1.04935-0.45101,2.0618-0.99044,3.07831-1.5146c1.56305-0.80598,3.14761-1.09922,4.8316-0.36264
			c0.48114,0.21045,1.03198,0.26099,1.51425,0.46953c1.31216,0.56742,2.29443,1.49128,3.08844,2.70255
			c0.83856,1.27922,1.45029,2.6325,1.87402,4.08527c0.10916,0.37422,0.23822,0.76077,0.24478,1.14359
			c0.02658,1.55402,0.28152,3.13226-0.39142,4.62921c-0.04501,0.10017-0.06714,0.21528-0.07776,0.32558
			c-0.13742,1.42756-0.71292,2.74957-1.00095,4.14207c-0.11118,0.53751-0.37054,1.04404-0.55878,1.56599
			c-0.6149,1.70512-1.23792,3.40742-1.83826,5.11766c-0.35068,0.99899-0.63733,2.02093-1.00363,3.01379
			c-0.25003,0.67761-0.58521,1.32404-0.88745,1.98206c-0.19717,0.42932-0.40118,0.85555-0.60623,1.28119
			c-0.4841,1.00501-1.06189,1.97652-1.4321,3.02168c-0.41992,1.18537-0.89279,2.33189-1.51569,3.42121
			c-0.095,0.16615-0.12836,0.36663-0.19852,0.54803c-0.37192,0.96152-0.82202,1.90059-1.10202,2.88799
			c-0.39767,1.40253-1.01349,2.71354-1.52631,4.06727c-0.43515,1.14886-0.87369,2.29643-1.31406,3.44331
			c-0.04984,0.12977-0.14835,0.24516-0.17825,0.3776c-0.27609,1.22293-0.5423,2.44807-0.81036,3.67282
			c-0.01788,0.08176-0.04987,0.16889-0.03745,0.24756c0.13431,0.84976-0.13455,1.65743-0.25101,2.48071
			c-0.16547,1.16998-0.14542,2.3298,0.0896,3.4945c0.15363,0.76134,0.06644,1.56305,0.40665,2.29871
			c0.24554,0.53098,0.38159,1.1211,0.67755,1.61877c1.12631,1.89378,3.31931,2.63306,5.20816,0.6022
			c0.53104-0.57096,1.04102-1.20229,1.97067-1.00858c0.07816,0.0163,0.19839,0.02247,0.24323-0.02242
			c0.49268-0.49342,1.23935-0.62028,1.66928-1.23069c0.2825-0.4011,0.71655-0.69447,1.07739-1.04165
			c0.48077-0.46259,0.97708-0.9114,1.42984-1.40028c0.94827-1.02388,1.88446-2.05959,2.80212-3.11093
			c0.58374-0.66879,1.12634-1.37355,1.68546-2.06377c0.38492-0.47518,0.77231-0.94853,1.14828-1.43076
			c0.582-0.74655,1.18091-1.48191,1.72501-2.25551c0.56128-0.79798,1.05051-1.64632,1.59958-2.45333
			c0.4386-0.64458,0.93649-1.24881,1.37656-1.89248c0.32983-0.48245,0.61423-0.99641,0.91055-1.50122
			c0.46359-0.78978,0.91748-1.58526,1.38138-2.37487c0.14056-0.23927,0.28247-0.48149,0.45456-0.69787
			c0.94211-1.18447,1.73309-2.45975,2.38141-3.82798c0.21457-0.45285,0.47995-0.88376,0.74625-1.30961
			c0.90207-1.44251,1.83328-2.86715,2.71695-4.32071c0.55023-0.90507,1.03677-1.84896,1.54858-2.77725
			c1.06216-1.92654,2.17276-3.82877,3.16296-5.79169c0.54517-1.08075,1.32645-1.9966,1.88556-3.05594
			c0.24567-0.4655,0.4364-0.95966,0.66916-1.4324c0.4296-0.87247,0.88455-1.73262,1.30533-2.60923
			c0.4697-0.97854,0.91748-1.96771,1.36679-2.95589c0.45877-1.00889,0.94714-2.0069,1.34869-3.03841
			c0.32175-0.82641,0.46069-1.72012,0.93234-2.49661c0.09219-0.1518,0.06851-0.37845,0.08386-0.57172
			c0.05865-0.73823,0.33109-1.36319,0.74155-1.99926c0.40027-0.62024,0.95108-0.98643,1.50787-1.37843
			c0.18774-0.13217,0.47067-0.22213,0.69312-0.1945c0.65536,0.08142,1.1275-0.21915,1.5701-0.62635
			c0.32819-0.30196,0.64371-0.61833,0.98093-0.90967c0.27411-0.23679,0.57626-0.26696,0.93622-0.14059
			c0.98404,0.34546,1.82343,0.91049,2.62201,1.566c0.5563,0.45661,0.698,1.02592,0.47455,1.64996
			c-0.49597,1.38517-1.04959,2.74967-1.57669,4.12374c-0.1795,0.4679-0.33731,0.94444-0.5271,1.408
			c-0.48514,1.18491-0.95837,2.37565-1.48224,3.54346c-0.50137,1.11762-1.07324,2.20342-1.58878,3.31496
			c-0.24564,0.52966-0.50256,1.07057-0.63147,1.63448c-0.27612,1.20795-0.80667,2.31778-1.22757,3.46955
			c-0.05664,0.15497-0.15445,0.29559-0.23877,0.43958c-0.36722,0.627-0.72913,1.25264-0.80142,2.0017
			c-0.01794,0.18621-0.12045,0.36575-0.19269,0.54488c-0.11407,0.28285-0.28287,0.55261-0.34558,0.84566
			c-0.27625,1.29096-0.82443,2.47513-1.31494,3.69041c-0.39651,0.98247-0.89948,1.90906-1.30356,2.88372
			c-0.34036,0.82101-0.77097,1.59667-0.94504,2.49258c-0.10886,0.56025-0.41748,1.08263-0.64368,1.61897
			c-0.86447,2.04971-1.74658,4.09219-2.58682,6.15176c-0.18655,0.45733-0.21649,0.9766-0.34073,1.46168
			c-0.27594,1.07727-0.59348,2.14462-0.84155,3.22803c-0.20532,0.89673-0.33942,1.80999-0.49768,2.7172
			c-0.16214,0.92947-0.33548,1.85776-0.46356,2.79209c-0.06021,0.43918-0.07236,0.89619-0.02634,1.33677
			c0.20294,1.94347,0.3696,3.89393,1.02695,5.75932c0.30591,0.86809,0.55881,1.75475,0.84479,2.63004
			c0.06024,0.18439,0.13821,0.37041,0.24524,0.53085c0.57166,0.8569,1.11066,1.74126,1.74973,2.5456
			c0.44858,0.56458,1.04114,0.99002,1.79669,1.15628c0.8819,0.19404,1.74426,0.39455,2.63672,0.04759
			c0.22672-0.08813,0.49658-0.10023,0.74487-0.09225c1.66501,0.05352,3.18658-0.45508,4.66058-1.16055
			c0.12607-0.06033,0.24438-0.1469,0.37674-0.18258c1.27045-0.34257,2.34882-1.06103,3.33875-1.86924
			c1.83255-1.49617,3.71823-2.94207,5.19846-4.8279c0.75705-0.96449,1.59198-1.8675,2.3797-2.80839
			c0.28659-0.34232,0.55438-0.70309,0.80258-1.07429c0.58783-0.8791,1.18362-1.75455,1.72824-2.66029
			c0.39987-0.665,0.71088-1.38278,1.08627-2.06336c0.22656-0.41071,0.48779-0.80408,0.75586-1.18969
			c0.60388-0.86877,1.24368-1.71329,1.82797-2.59479c0.64505-0.97319,1.29013-1.95181,1.84753-2.97577
			c0.36633-0.67299,0.51779-1.46147,0.87195-2.14291c0.54898-1.05626,1.10733-2.11198,1.86032-3.05204
			c0.66052-0.82464,1.35114-1.64361,1.8764-2.55292c0.51089-0.88445,0.85309-1.87112,1.22089-2.83147
			c0.18073-0.47192,0.34229-0.93199,0.6929-1.31519c0.18497-0.20218,0.34064-0.45131,0.4425-0.70604
			c0.53467-1.33704,1.51822-2.38182,2.28085-3.56979c0.57022-0.88821,1.14908-1.76566,1.59863-2.73885
			c0.50967-1.10336,0.97891-2.23375,1.70901-3.24242c0.86469-1.19465,1.5498-2.50882,2.12604-3.87655
			c0.3678-0.87305,0.80136-1.71867,1.21402-2.57243c0.43576-0.90162,0.88159-1.79837,1.32324-2.69713
			c0.32016-0.65146,0.63828-1.30392,0.96149-1.95385c0.68451-1.37643,1.41452-2.72197,2.43512-3.89159
			c0.30923-0.3544,0.59024-0.75213,0.79794-1.17263c0.4563-0.92381,1.23578-1.56805,1.91382-2.29473
			c0.5502-0.58971,1.2052-1.08026,1.77988-1.64899c0.49475-0.48964,0.94019-1.02894,1.41037-1.54359
			c0.24426-0.26734,0.47919-0.54605,0.74582-0.78952c0.61023-0.55725,1.33896-0.66229,1.97424-0.15075
			c0.86661,0.69781,1.68799,1.46029,2.28351,2.42751c0.18085,0.29372,0.18799,0.52818,0.02008,0.84739
			c-0.81772,1.55445-1.61459,3.12024-2.39514,4.69377c-0.76834,1.54895-1.73959,2.96498-2.76285,4.35035
			c-0.1633,0.22108-0.30545,0.45845-0.44882,0.69349c-0.62375,1.02241-1.10214,2.11642-1.58237,3.20995
			c-0.07773,0.17702-0.17758,0.35715-0.30954,0.49547c-0.89288,0.93596-1.37506,2.08253-1.75671,3.29292
			c-0.42075,1.33441-0.89288,2.64937-1.66095,3.83743c-0.14926,0.23089-0.22089,0.51158-0.33136,0.768
			c-0.37561,0.8719-0.76608,1.73772-1.12433,2.61668c-0.24146,0.59234-0.43484,1.20412-0.65552,1.80509
			c-0.47037,1.281-0.9671,2.55286-1.40988,3.84327c-0.34378,1.00183-0.5759,2.04305-0.93991,3.03663
			c-0.62555,1.70734-1.11066,3.45223-1.50015,5.22335c-0.44293,2.01406-0.79288,4.04961-1.27631,6.05336
			c-0.28278,1.17208-0.48782,2.34759-0.6619,3.53734c-0.18124,1.23896-0.44409,2.4666-0.69247,3.69489
			c-0.15967,0.78956-0.36188,1.57043-0.53574,2.35725c-0.04791,0.21685-0.08829,0.44102-0.08844,0.66187
			c-0.00153,1.91882-0.46152,3.75549-0.9389,5.59654c-0.31482,1.21411-0.60129,2.44643-0.75531,3.6886
			c-0.18701,1.50828-0.6651,2.93575-1.01099,4.39957c-0.03207,0.13575-0.08401,0.26675-0.11807,0.40211
			c-0.21722,0.86333-0.42856,1.721-0.74799,2.56258c-0.43359,1.1424-0.65115,2.36559-1.06293,3.51784
			c-0.35538,0.99443-0.85068,1.93903-1.28845,2.90369c-0.1384,0.30495-0.32697,0.59193-0.42825,0.90778
			c-0.15683,0.48914-0.38589,0.9207-0.73581,1.29808c-0.14929,0.16101-0.30179,0.35042-0.36545,0.5542
			c-0.30478,0.97581-0.94205,1.76283-1.44159,2.62813c-0.40244,0.69707-0.84579,1.38083-1.15384,2.11937
			c-0.37027,0.88771-0.92975,1.64423-1.43777,2.44048c-0.11642,0.18245-0.25952,0.40063-0.2533,0.59805
			c0.0152,0.48216-0.22311,0.78093-0.56543,1.05711c-0.92264,0.74438-1.60892,1.69945-2.28497,2.65437
			c-0.3678,0.5195-0.85394,0.86435-1.36124,1.21851c-0.54327,0.37927-1.03973,0.82695-1.54672,1.25648
			c-0.55252,0.46814-1.07471,0.97383-1.64346,1.42072c-1.42514,1.11981-2.88052,2.20125-4.30127,3.32652
			c-0.85101,0.67403-1.6268,1.44543-2.49493,2.09486c-1.36169,1.01868-2.56842,2.24382-4.0827,3.0616
			c-0.34131,0.1843-0.64783,0.43762-0.95609,0.67754c-0.75574,0.58812-1.5965,1.00279-2.49387,1.33224
			c-0.51816,0.19023-0.99454,0.4919-1.49808,0.72537c-0.27679,0.12834-0.56448,0.24268-0.85825,0.3233
			c-7.92273,4.95975-21.75137,7.14244-24.293,7.18257c-0.72537,0.01146-6.0495-0.01598-6.77451,0.00117
			c-2.31512,0.05478-11.48535-1.96297-14.57672-3.11313c-0.42911,0.0076-0.80719-0.07256-1.2084-0.24501
			c-1.6413-0.70546-3.30652-1.35495-4.95551-2.04283c-0.43079-0.17972-0.82437-0.44756-1.25296-0.63377
			c-1.74026-0.75621-3.42722-1.61357-5.06198-2.57727c-0.35876-0.21149-0.75391-0.36392-1.13904-0.52766
			c-1.34808-0.57312-2.47995-1.48817-3.67642-2.30264c-0.57129-0.38892-1.20459-0.69504-1.74173-1.12393
			c-0.73688-0.58835-1.46976-1.18201-2.16406-1.83032c-1.19894-1.11955-2.50784-2.1207-3.75845-3.18584
			c-0.52988-0.45132-1.04266-0.92497-1.53763-1.41438c-0.38995-0.3856-0.47668-0.8499-0.29486-1.38832
			c0.33395-0.98892,0.8302-1.8829,1.42599-2.7361c0.57401-0.82198,1.10345-1.67531,1.64432-2.5201
			c0.4361-0.68112,0.86078-1.3696,1.28922-2.05562c0.51413-0.82327,1.43082-1.06775,2.24365-0.50882
			c0.91718,0.63069,1.78116,1.33882,2.66644,2.0157c0.37744,0.28862,0.75833,0.57355,1.12357,0.87708
			c1.65347,1.37407,3.29736,2.75974,4.95642,4.127c0.29932,0.24667,0.65384,0.42622,0.98233,0.63756
			c1.10052,0.70801,2.17026,1.47061,3.30841,2.11179c1.67776,0.94516,3.37839,1.85817,5.11688,2.68478
			c1.88843,0.8979,3.82428,1.69795,5.75366,2.50677c0.84747,0.35529,1.7294,0.62869,2.59705,0.93542
			c0.68466,0.24205,1.35791,0.53381,2.0603,0.70428c1.10562,0.26834,2.18784,0.62241,3.28964,0.90402
			c1.91074,0.48837,3.87857,0.52837,5.77972,0.95132c2.17941,0.48485,4.39151,0.38966,6.58179,0.62383
			c0.25003,0.02675,0.50406,0.02675,0.75113,0.069c0.91925,0.15726,1.83334,0.12094,2.75522,0.00365
			c1.32809-0.16895,2.66223-0.28986,3.99176-0.44844c0.63635-0.0759,1.26859-0.18776,1.9017-0.28944
			c1.23862-0.19894,2.479-0.38831,3.71414-0.60709c1.57965-0.27977,3.08066-0.81834,4.48981-1.56963
			c0.72351-0.38571,1.47787-0.65421,2.24405-0.91096c1.35431-0.45384,2.66351-0.98611,3.87271-1.77402
			c1.05142-0.68507,2.16919-1.2686,3.26041-1.89215c0.44452-0.25401,0.76715-0.55403,0.97668-1.07681
			c0.1702-0.4247,0.64142-0.7397,1.00916-1.06992c0.20438-0.1835,0.4552-0.33641,0.71094-0.43787
			c1.05377-0.41801,1.88736-1.17897,2.83344-1.76044c1.13315-0.69646,2.0455-1.62433,3.02051-2.49391
			c0.34998-0.31213,0.77441-0.54141,1.12042-0.85719c1.14902-1.04865,1.909-2.38643,2.69202-3.70491
			c0.48346-0.81404,0.97937-1.62082,1.45117-2.4415c0.19293-0.33559,0.3334-0.70102,0.50388-1.04987
			c0.87152-1.78334,1.63989-3.6059,2.18338-5.5204c0.22812-0.80348,0.55365-1.5799,0.77002-2.38603
			c0.53552-1.995,1.04364-3.99754,1.5401-6.00268c0.13364-0.53973,0.16956-1.10287,0.27866-1.64959
			c0.50815-2.54588,1.02139-5.08984,1.30139-7.67531c0.08093-0.74741,0.27194-1.48221,0.38788-2.22662
			c0.22733-1.45959,0.42059-2.92464,0.66083-4.382c0.14484-0.87839,0.36038-1.74489,0.52795-2.61982
			c0.15201-0.79379,0.29596-1.58973,0.41309-2.38918C412.10733,106.52263,412.03436,106.27979,412.00275,105.9723z"/>
	</g>
</g>
</svg>
