<?xml version="1.0" encoding="utf-8"?>
<!-- Generator: Adobe Illustrator 25.4.1, SVG Export Plug-In . SVG Version: 6.00 Build 0)  -->
<svg version="1.1" id="Layer_1" xmlns="http://www.w3.org/2000/svg" xmlns:xlink="http://www.w3.org/1999/xlink" x="0px" y="0px"
	 viewBox="0 0 388.09653 189.0938" style="enable-background:new 0 0 388.09653 189.0938;" xml:space="preserve">
<style type="text/css">
	.st0{fill:#EFEDE5;}
	.st1{fill:#B48039;}
	.st2{fill:#AD8246;}
	.st3{fill:none;stroke:#B48039;stroke-width:0.99892;stroke-miterlimit:10;}
	.st4{fill:#00FFFF;}
</style>
<path class="st1" d="M383.11618,60.59445c-0.11563-0.12155-0.23846-0.23678-0.36063-0.35209
	c-0.35962-0.33968-0.70383-0.69862-1.08502-1.01255c-0.71323-0.58749-1.9339-0.9016-2.65689,0.09341
	c-0.17758,0.24405-0.38406,0.47005-0.59741,0.68433c-0.74832,0.75122-1.51562,1.48388-2.25674,2.24203
	c-0.97772,0.99998-1.90961,2.04631-2.91217,3.02029c-1.32672,1.2891-2.60233,2.60532-3.3544,4.33427
	c-0.0556,0.12805-0.12866,0.2485-0.19504,0.37176c-0.97858,1.8151-2.26633,3.44397-3.12891,5.334
	c-0.90485,1.98276-1.90414,3.92265-2.86905,5.87786c-0.67938,1.37662-1.36713,2.74895-2.05743,4.12009
	c-0.21198,0.42086-0.42789,0.84155-0.67081,1.24496c-0.77844,1.29184-1.66788,2.5274-2.33118,3.87501
	c-0.74677,1.51733-1.61261,2.93645-2.64252,4.26858c-0.42395,0.54841-0.86841,1.09441-1.19913,1.69868
	c-0.53326,0.97414-0.97107,2.00003-1.46548,2.9959c-0.54559,1.0986-1.03333,2.2357-1.68225,3.27083
	c-1.1127,1.77506-2.33133,3.48383-3.50461,5.22117c-0.04688,0.06929-0.09033,0.14251-0.12402,0.21899
	c-0.42447,0.96627-1.13617,1.71544-1.81964,2.4978c-0.77158,0.88296-1.46054,1.83777-2.19397,2.75459
	c-0.34439,0.43061-0.68466,0.86875-1.06909,1.26225c-0.74112,0.75815-1.55957,1.44513-2.2598,2.23775
	c-1.08673,1.2299-2.41861,2.16119-3.69812,3.15013c-0.80991,0.62582-1.75598,1.07243-2.6196,1.63264
	c-1.29767,0.84172-2.74536,1.20322-4.25278,1.36558c-0.2915,0.03148-0.60904-0.07117-0.89816-0.16356
	c-0.17487-0.05577-0.3699-0.17741-0.46603-0.32719c-0.37485-0.58305-0.74182-1.17474-1.05865-1.79046
	c-0.36853-0.71632-0.72095-1.44607-1.00974-2.19712c-0.53036-1.37969-1.15787-2.7468-1.46924-4.17919
	c-0.33636-1.54624-0.49103-3.16168-0.48349-4.7459c0.01077-2.25948,0.00137-4.54086,0.62976-6.75294
	c0.09906-0.3485,0.13565-0.71444,0.20306-1.072c0.31958-1.69971,0.61795-3.40385,0.96988-5.09671
	c0.16406-0.78877,0.51923-1.54298,0.63538-2.33527c0.23355-1.5909,0.8313-3.06699,1.32812-4.57234
	c0.29477-0.8939,0.79279-1.71843,1.14044-2.59753c0.69785-1.76557,1.33032-3.55714,2.03619-5.31946
	c0.71753-1.79089,1.49988-3.55576,2.23709-5.33895c0.68225-1.65077,1.3418-3.31095,2.01346-4.966
	c0.07339-0.18049,0.14798-0.36278,0.24481-0.53095c0.89545-1.55368,1.68671-3.15176,2.17273-4.88841
	c0.21112-0.7537,0.41968-1.51219,0.70044-2.24117c0.41125-1.06875,0.88208-2.11491,1.33597-3.16707
	c0.28537-0.6614,0.23318-1.29056-0.29941-1.77472c-0.68124-0.61932-1.39703-1.20912-2.15015-1.73725
	c-0.40494-0.284-0.93155-0.24533-1.35721,0.03738c-0.32111,0.21317-0.59998,0.49725-0.87268,0.77423
	c-0.54883,0.55704-0.99826,1.26361-1.64136,1.66257c-0.72968,0.45285-1.28809,1.04822-1.86514,1.63375
	c-0.77774,0.78912-1.67557,1.4832-2.07794,2.59574c-0.16751,0.46278-0.44174,0.92915-0.78561,1.2773
	c-0.77499,0.78493-1.06808,1.821-1.56796,2.74698c-0.50317,0.93197-0.84412,1.97472-1.46481,2.81481
	c-1.06757,1.44488-1.93341,2.99522-2.81601,4.54736c-0.84036,1.47772-1.76761,2.90583-2.65555,4.35651
	c-0.40784,0.66663-0.8205,1.33051-1.21674,2.00389c-0.45129,0.76696-0.87387,1.5512-1.33255,2.31354
	c-0.69186,1.14976-1.42459,2.27514-2.10275,3.43268c-0.84344,1.43999-1.56577,2.95056-2.84015,4.10203
	c-0.79468,0.71812-1.31015,1.6506-1.81586,2.599c-0.61676,1.15634-1.2496,2.34502-2.0997,3.32515
	c-0.96027,1.10707-1.76282,2.29335-2.53525,3.52189c-0.86346,1.37294-1.77567,2.71516-2.6629,4.0733
	c-0.24414,0.37364-0.45132,0.77364-0.71616,1.13136c-0.59537,0.80477-1.23691,1.57601-1.82098,2.38865
	c-0.50504,0.70298-0.89819,1.49243-1.44427,2.15888c-1.13324,1.38286-2.27985,2.76315-3.52362,4.04489
	c-1.36145,1.40296-2.83072,2.70216-4.26901,4.02898c-0.57498,0.53027-1.2453,0.96439-1.77908,1.53033
	c-0.70056,0.74284-1.60388,1.10511-2.47675,1.54111c-0.44687,0.22327-0.84616,0.15816-1.06976-0.29836
	c-0.18137-0.37048-0.45407-0.5277-0.82513-0.63172c-0.40341-0.113-0.8147-0.24097-1.17807-0.44242
	c-0.38254-0.21205-0.82086-0.44798-1.04807-0.79553c-1.52689-2.33587-2.76483-4.79517-2.94003-7.65583
	c-0.00668-0.11103-0.01367-0.22874-0.05405-0.33002c-0.63611-1.59825-0.27307-3.33918-0.70966-4.96566
	c-0.02106-0.07784-0.00052-0.16731,0.00238-0.25132c0.03644-1.00425,0.03644-2.0115,0.11908-3.01189
	c0.10095-1.22461,0.18597-2.46093,0.4342-3.65979c0.27118-1.3098,0.6987-2.58941,1.09851-3.86953
	c0.4498-1.43948,1.01044-2.84715,1.40033-4.30151c0.35052-1.30792,0.70383-2.58642,1.58505-3.65483
	c0.10181-0.12352,0.20618-0.30811,0.19247-0.45354c-0.0787-0.83881,0.38632-1.50338,0.68246-2.21808
	c0.14694-0.35491,0.38919-0.66901,0.56012-1.01554c0.46738-0.94746,0.85916-1.93836,1.39688-2.84322
	c0.44345-0.74643,0.83453-1.49619,1.16815-2.30113c0.58627-1.41374,1.31287-2.76871,1.96246-4.15704
	c0.29648-0.6336,0.52609-1.29868,0.82632-1.9304c0.66995-1.40955,1.38406-2.79822,2.04495-4.21178
	c0.81708-1.74744,1.58371-3.5183,2.4032-5.26454c0.29715-0.63335,0.26141-1.18064-0.17709-1.71629
	c-0.19501-0.23832-0.34573-0.5206-0.56833-0.72744c-0.56216-0.52231-0.98578-1.2891-1.86206-1.32657
	c-1.24374-0.05304-2.45862,0.1035-3.5708,0.73959c-0.62857,0.35953-1.24344,0.77312-1.91699,1.01751
	c-1.27386,0.46235-2.46152,1.05498-3.5556,1.8541c-0.40375,0.29503-0.84326,0.5573-1.29901,0.76208
	c-1.12967,0.50769-2.18866,1.10989-3.0788,1.9866c-0.25815,0.25432-0.53549,0.49811-0.83539,0.69998
	c-1.11136,0.7478-2.23587,1.47627-3.35559,2.21192c-0.30334,0.19931-0.62259,0.37827-0.90796,0.60067
	c-0.92178,0.71854-1.79822,1.49988-2.75287,2.17052c-1.4624,1.02752-3.01944,1.90654-4.3075,3.18803
	c-2.02014,2.00996-4.35901,3.66672-6.33517,5.74177c-1.44189,1.51382-3.0723,2.84116-4.44678,4.43813
	c-1.0347,1.20211-2.17838,2.32133-3.3532,3.38982c-2.66409,2.42278-4.7619,5.32493-7.00821,8.10313
	c-0.3401,0.42052-0.6833,0.83847-1.02512,1.25762c-0.05373-0.02455-0.10744-0.04901-0.16116-0.07356
	c0.10522-0.29247,0.18306-0.59853,0.32043-0.875c0.53532-1.07773,1.0419-2.16008,1.3175-3.34499
	c0.15089-0.64866,0.40768-1.2749,0.64584-1.90021c0.21812-0.57296,0.50845-1.11948,0.70862-1.69782
	c0.52916-1.5281,0.98012-3.08495,1.55479-4.59509c0.33412-0.87782,0.85918-1.68156,1.27507-2.53004
	c0.35379-0.72188,0.81776-1.43102,0.97328-2.19849c0.19127-0.94437,0.51668-1.81373,0.88622-2.68616
	c0.37894-0.89424,0.74112-1.79653,1.07645-2.70789c0.27971-0.76046,0.46483-1.5577,0.77312-2.30507
	c0.42548-1.03171,0.93497-2.02843,1.39261-3.0474c0.1709-0.38065,0.36166-0.77038,0.43179-1.17516
	c0.23679-1.369,0.86313-2.58907,1.40048-3.84301c0.52454-1.22444,1.11032-2.42364,1.60681-3.65902
	c0.80084-1.99242,1.55002-4.00563,2.3233-6.00917c0.02975-0.07699,0.0845-0.14414,0.12506-0.21727
	c0.39194-0.70572,0.83163-1.39004,1.16455-2.12279c0.57758-1.27097,1.06549-2.58248,1.63895-3.8555
	c0.27271-0.6058,0.65799-1.16062,0.98834-1.74093c0.31464-0.55251,0.72678-1.07525,0.91565-1.66856
	c0.49646-1.55856,1.17294-3.0344,2.08017-4.37405c1.01898-1.50467,1.73428-3.10891,2.2453-4.84453
	c0.25662-0.87081,0.72025-1.69268,1.17087-2.49112c0.54712-0.96969,1.21246-1.87258,1.76385-2.84013
	c0.38699-0.67903,0.74045-1.42152,0.64209-2.22629c-0.10641-0.87029,0.10999-1.66651,0.34113-2.47436
	c0.10794-0.37707,0.21625-0.75413,0.33105-1.12914c0.15121-0.49408,0.16269-0.96696,0.00204-1.47969
	c-0.12009-0.38322-0.12283-0.82787-0.07492-1.2329c0.06192-0.52317,0.22958-1.03342,0.34592-1.5506
	c0.19177-0.85088-0.16135-1.31374-1.0347-1.38303c-0.1615-0.01283-0.37946-0.02789-0.46774-0.13088
	c-0.63403-0.74036-1.30502-0.55105-2.01843-0.1473c-0.24054,0.1361-0.53378,0.17639-0.78268,0.30076
	c-0.22037,0.11018-0.42978,0.25705-0.61438,0.42103c-0.85916,0.76294-1.55649,1.64025-2.17975,2.62269
	c-1.03845,1.63725-1.99155,3.29829-2.67554,5.1174c-0.43286,1.1519-0.94266,2.27539-1.43369,3.4047
	c-1.14828,2.64048-2.30719,5.27617-3.45926,7.91494c-0.48145,1.10288-0.94455,2.21397-1.4371,3.31189
	c-1.07336,2.39258-2.1683,4.77559-3.23773,7.16996c-0.41006,0.91777-0.76456,1.86017-1.16216,2.78376
	c-0.66312,1.54034-1.33974,3.07494-2.01158,4.61143c-0.48125,1.10014-0.95515,2.20354-1.44872,3.29795
	c-0.51668,1.14591-1.09732,2.26496-1.57156,3.42763c-0.88603,2.1724-1.71698,4.36739-2.56691,6.55441
	c-0.13106,0.33729-0.21762,0.69322-0.36543,1.0223c-0.35312,0.78595-0.71872,1.56676-1.10075,2.33903
	c-0.51837,1.04839-0.85541,2.17095-1.49286,3.17751c-0.80647,1.27336-1.48036,2.6321-2.18214,3.96935
	c-0.3627,0.69126-0.55431,1.49723-1.01434,2.10713c-0.75807,1.00494-1.19861,2.15538-1.66771,3.27827
	c-0.48177,1.15258-1.11613,2.17651-1.83606,3.18016c-0.51872,0.72325-1.05215,1.48371-1.34538,2.31038
	c-0.46928,1.32332-1.21126,2.44357-2.0612,3.52668c-0.6212,0.79143-1.19774,1.61775-1.79498,2.42791
	c-0.41402,0.56184-0.80511,1.14283-1.24942,1.67977c-1.03111,1.24651-2.23381,2.35204-2.92482,3.86885
	c-0.19827,0.4354-0.64891,0.75703-0.98816,1.12675c-0.7733,0.84292-1.64325,1.61672-2.29951,2.54237
	c-0.76149,1.07422-1.48602,2.157-2.50653,3.00805c-0.19264,0.16064-0.37654,0.33566-0.54266,0.52359
	c-1.1454,1.29672-2.26616,2.61584-3.43208,3.89375c-1.12914,1.23778-2.14058,2.58556-3.48904,3.62095
	c-0.8614,0.66123-1.63588,1.43452-2.4812,2.11817c-0.40495,0.32753-0.87714,0.5756-1.33171,0.83778
	c-0.58014,0.33472-1.23401,0.57175-1.74725,0.98586c-0.93428,0.75378-1.9736,0.9939-3.13319,0.972
	c-0.71547-0.0136-1.2963-0.27458-1.81741-0.73959c-1.09149-0.97372-1.47815-2.33818-2.01534-3.61693
	c-0.39195-0.93326-0.49135-1.9369-0.68074-2.92268c-0.342-1.77968-0.78082-3.54089-1.1808-5.30936
	c-0.04295-0.19007-0.0515-0.40735-0.15295-0.56115c-0.50316-0.76337-0.44516-1.59038-0.35175-2.43758
	c0.0515-0.4686,0.05287-0.94506,0.04414-1.41742c-0.01575-0.83453-0.13054-1.6742-0.06775-2.50139
	c0.07579-1.00049,0.32077-1.97403,0.6833-2.92944c0.33377-0.87919,0.49135-1.82527,0.72778-2.74142
	c0.02805-0.10804,0.05867-0.2159,0.0975-0.32043c0.41591-1.12051,0.85799-2.23211,1.24515-3.36245
	c0.51341-1.4985,0.98441-3.01138,1.47336-4.51819c0.25781-0.7951,0.60426-1.5749,0.74626-2.39027
	c0.13258-0.76063,0.39262-1.44205,0.70947-2.13057c0.47714-1.03719,1.0318-2.0659,1.31459-3.15997
	c0.63522-2.45793,2.00935-4.59646,2.84955-6.96295c0.33327-0.93847,0.95959-1.76899,1.36642-2.68676
	c0.20821-0.46962,0.48485-0.62479,0.95259-0.63882c1.22357-0.03644,2.44612-0.12198,3.66971-0.1408
	c2.56503-0.03935,5.13057-0.04525,7.69595-0.07169c1.14624-0.01172,2.2925-0.03507,3.43857-0.0621
	c0.86551-0.02036,1.7341-0.01814,2.59515-0.09503c0.68552-0.06116,1.41365-0.09025,1.8559-0.7869
	c0.09871-0.15569,0.32368-0.22617,0.44412-0.37381c0.27545-0.33772,0.52112-0.69955,0.78065-1.05028
	c0.22908-0.30931,0.44241-0.63283,0.69562-0.92136c0.36491-0.41616,0.76524-0.80118,1.13889-1.20998
	c0.13071-0.14302,0.21283-0.33002,0.34251-0.47441c0.61349-0.68382,1.27542-1.32931,1.83452-2.05452
	c0.20923-0.27134,0.24071-0.71957,0.2561-1.09108c0.02327-0.56192-0.48793-0.84523-0.75995-1.25686
	c-0.33704-0.50982-0.78047-0.67338-1.36061-0.63275c-0.86363,0.06039-1.72913,0.13199-2.59378,0.13028
	c-1.19928-0.00222-2.39839-0.07322-3.59785-0.1047c-0.78372-0.02053-1.57481,0.03892-2.35066-0.04619
	c-1.81963-0.19982-3.63275-0.1822-5.45102-0.01522c-0.8087,0.07416-1.6198,0.12797-2.43108,0.1627
	c-0.55447,0.02378-1.11049-0.00359-1.5825-0.33224c0-0.12711-0.02806-0.22232,0.0041-0.28844
	c0.66687-1.37379,1.33923-2.74484,2.01364-4.11495c0.1851-0.37595,0.40016-0.7383,0.56764-1.1217
	c1.00597-2.30336,2.02989-4.59954,2.99171-6.92138c0.58716-1.4175,1.10861-2.86502,1.59123-4.32179
	c0.25935-0.7827,0.36389-1.61578,0.55637-2.42175c0.35123-1.46925,0.73068-2.93192,1.07114-4.40356
	c0.35945-1.55411,0.72214-3.10138,1.57584-4.48303c0.1591-0.25756,0.2496-0.56286,0.34183-0.85558
	c0.40546-1.28671-0.29256-1.93126-1.60065-2.02724c-1.33736-0.09811-2.60182,0.42086-3.40488,1.63358
	c-0.35329,0.53343-0.63147,1.11622-0.94916,1.67344c-1.14967,2.01611-2.35547,4.00238-3.43602,6.05476
	c-0.92316,1.75359-1.73596,3.568-2.53799,5.3819c-0.94745,2.1428-1.83366,4.31272-2.73972,6.47374
	c-0.15106,0.36004-0.24908,0.74258-0.40427,1.10048c-0.54506,1.25643-1.09424,2.51131-1.66103,3.75816
	c-0.6467,1.42272-1.2879,2.84903-1.98164,4.24882c-0.4236,0.85507-0.87834,0.96431-1.82887,0.94027
	c-2.20798-0.05577-4.41801-0.02652-6.62738-0.03781c-1.47832-0.00753-2.95766,0.00368-4.43443-0.05167
	c-0.69495-0.02618-1.38542-0.18443-2.07643-0.29152c-0.94112-0.14576-1.74725-0.00068-2.41739,0.79082
	c-0.46346,0.54721-0.76166,1.13368-1.04086,1.78576c-0.66978,1.56472-1.44992,3.0823-2.19344,4.61519
	c-0.07083,0.1461-0.18752,0.27365-0.29803,0.39622c-0.95018,1.05412-0.64087,2.1014,0.73497,2.41808
	c0.7312,0.16834,1.48927,0.23353,2.20662,0.44328c0.50195,0.14679,0.9738,0.19067,1.48328,0.12044
	c0.38631-0.05329,0.78253-0.05474,1.1738-0.04688c0.97876,0.01959,1.95702,0.06835,2.93559,0.08562
	c1.19792,0.02113,2.39618,0.0266,3.59444,0.02934c0.44585,0.00103,0.92282,0.07075,1.33102-0.06073
	c0.65987-0.21265,1.13495-0.00924,1.6535,0.44789c-0.11908,0.33002-0.20377,0.6851-0.36731,0.99911
	c-1.04668,2.0091-2.11577,4.00658-3.16451,6.01456c-0.20581,0.39391-0.41522,0.80271-0.51941,1.22982
	c-0.35448,1.45394-1.0128,2.76562-1.77258,4.0378c-0.08383,0.14046-0.10948,0.31445-0.17758,0.46594
	c-0.51324,1.14291-0.96251,2.32132-1.56403,3.41608c-0.71187,1.29569-1.57071,2.50977-2.33424,3.77834
	c-0.24294,0.40376-0.342,0.89322-0.57912,1.30142c-1.23538,2.12707-2.48737,4.24472-3.74721,6.35741
	c-0.70143,1.17593-1.44615,2.32612-2.14229,3.50496c-1.09561,1.85471-2.15443,3.73087-3.25365,5.58318
	c-0.46944,0.79117-0.98628,1.55591-1.51253,2.31107c-0.23781,0.34131-0.59109,0.60307-0.82324,0.94736
	c-0.82684,1.2264-1.65044,2.44698-2.74261,3.46792c-0.40341,0.37698-0.69974,0.86678-1.0578,1.29424
	c-0.44653,0.53275-0.89751,1.06242-1.36319,1.57823c-0.41248,0.45679-0.8412,0.89938-1.27457,1.33666
	c-0.71854,0.72504-1.33443,1.61929-2.55116,1.53392c-0.14594-0.01026-0.30881,0.11617-0.45287,0.19829
	c-1.20493,0.68723-2.59993,0.40461-3.4863-0.69417c-0.15535-0.19238-0.35397-0.36158-0.56133-0.49785
	c-1.20493-0.79219-2.25366-1.78447-3.10207-2.91644c-1.20184-1.60338-2.23262-3.33533-3.33147-5.01544
	c-0.19829-0.30307-0.45474-0.59981-0.5437-0.93658c-0.28331-1.07337-0.52693-2.15923-0.73703-3.2497
	c-0.28279-1.46806-0.33652-2.97187-0.09973-4.43085c0.24464-1.5086,0.70331-2.98795,1.14334-4.45763
	c0.35704-1.19287,1.11955-2.25323,1.17636-3.55183c0.00546-0.12617,0.12556-0.24533,0.18373-0.37167
	c0.64122-1.3885,1.29167-2.7729,1.91714-4.16842c0.53583-1.19578,0.9998-2.42543,1.57259-3.60247
	c0.75601-1.55334,1.58662-3.07024,2.38762-4.60159c0.05133-0.09811,0.10556-0.20855,0.18922-0.27356
	c0.54951-0.42668,0.85832-1.01469,1.16353-1.62066c0.45216-0.8975,0.95036-1.77207,1.43007-2.65571
	c0.35706-0.65747,0.71924-1.31229,1.07286-1.97155c0.18375-0.34234,0.31633-0.7182,0.5372-1.03316
	c0.80768-1.15173,1.3577-2.41995,1.80577-3.74438c0.27766-0.82008,0.60391-1.62366,0.90947-2.43424
	c0.53326-1.41399,1.07764-2.82388,1.59055-4.24523c0.07939-0.22018,0.0905-0.52129,0.00581-0.73428
	c-0.34113-0.85772-0.69116-1.71595-1.45624-2.31902c-0.37279-0.29375-0.69768-0.64754-1.05644-0.96037
	c-0.83556-0.72889-1.79858-1.26934-2.87161-1.4885c-1.44717-0.29563-2.91763-0.50076-4.38739-0.65696
	c-1.52708-0.16219-3.06665-0.20085-4.59766-0.33019c-0.91393-0.07733-1.80766-0.23986-2.74211-0.06595
	c-0.58972,0.10975-1.22717,0.00881-1.83794-0.05124c-1.13666-0.11171-2.26752-0.34747-3.40453-0.37399
	c-1.22495-0.02857-2.45451,0.11967-3.68152,0.19863c-0.54831,0.03533-0.90331,0.36287-1.22682,0.78339
	c-1.08894,1.41553-2.21193,2.80472-3.3024,4.21914c-0.9933,1.28825-1.81004,2.6445-2.12997,4.29843
	c-0.2686,1.38893-0.60735,2.78487-1.30605,4.05173c-0.19981,0.36253-0.35413,0.75097-0.51923,1.1318
	c-0.48724,1.12358-0.75259,2.34861-1.62888,3.29102c-0.37518,0.40359-0.67406,0.88852-0.95464,1.36755
	c-0.66141,1.12811-1.28397,2.27907-1.93802,3.41172c-0.19383,0.33566-0.55208,0.61282-0.64053,0.96558
	c-0.21864,0.87234-0.91324,1.46326-1.16489,2.36298c-0.2982,1.0667-1.02975,2.04366-1.7009,2.96674
	c-0.78407,1.07807-1.34779,2.2434-1.86702,3.4586c-0.46912,1.09775-1.05592,2.14845-1.63846,3.19333
	c-0.32556,0.58408-0.78972,1.09065-1.1199,1.67267c-1.14334,2.01526-2.25879,4.04635-3.37801,6.07521
	c-0.79655,1.44393-1.70963,2.84081-2.33818,4.35523c-0.68792,1.65685-1.83502,3.03038-2.56126,4.656
	c-0.47698,1.06773-1.21913,2.01381-1.75137,3.06083c-0.90691,1.78404-2.09952,3.35236-3.43105,4.82725
	c-0.72915,0.80743-1.44736,1.62631-2.20969,2.40157c-0.44413,0.45174-0.94078,0.86277-1.4595,1.22709
	c-0.50092,0.35175-1.05301,0.63454-1.59637,0.92145c-0.73907,0.39024-1.49166,0.69331-2.35596,0.77372
	c-0.99963,0.09298-1.80766-0.39392-2.68599-0.66988c-0.1911-0.05996-0.38853-0.25662-0.48263-0.44139
	c-0.54523-1.07149-1.13478-2.12578-1.29714-3.35167c-0.07681-0.57919-0.23301-1.14779-0.34815-1.7222
	c-0.10847-0.54241-0.2378-1.08286-0.30573-1.63058c-0.05167-0.41462,0.01711-0.84403-0.03336-1.25883
	c-0.21915-1.79901,0.07852-3.57185,0.2431-5.35127c0.02293-0.24841,0.10539-0.49194,0.16783-0.73591
	c0.22155-0.86584,0.51633-1.71972,0.65559-2.5984c0.32317-2.03921,0.62753-4.07765,1.36678-6.02063
	c0.02977-0.07827,0.04585-0.16167,0.06809-0.24277c0.33224-1.20972,0.64395-2.42551,1.00391-3.62694
	c0.22412-0.74822,0.58698-1.45839,0.77193-2.21388c0.41453-1.69183,1.08654-3.287,1.75838-4.87943
	c0.54131-1.28337,1.39312-2.41465,1.7914-3.78313c0.27937-0.95977,0.73343-1.87241,1.14984-2.78779
	c0.80922-1.77891,1.65025-3.54327,2.46803-5.31842c0.10419-0.22617,0.13806-0.48357,0.22155-0.7206
	c0.18391-0.5218,0.00086-0.86345-0.40495-1.23752c-0.73001-0.67295-1.666-0.90143-2.50122-1.34359
	c-0.42189-0.22343-0.74815-0.17682-1.02837,0.19161c-0.42223,0.55524-0.83813,1.11545-1.2501,1.67848
	c-0.53514,0.73121-1.09663,1.41091-2.07762,1.56617c-0.1964,0.03105-0.45628,0.19007-0.53326,0.3597
	c-0.49152,1.08389-1.29185,1.95444-1.94076,2.92841c-0.67902,1.01948-1.26601,2.09978-1.90483,3.14637
	c-0.91221,1.49449-1.89217,2.93782-2.7202,4.49552c-1.28448,2.41628-2.83432,4.69159-4.27072,7.0272
	c-0.90571,1.47267-1.81381,2.94406-2.7137,4.42033c-0.52386,0.85951-1.03163,1.72887-1.55069,2.59138
	c-0.86362,1.43495-1.73083,2.86776-2.59617,4.3016c-0.59315,0.98287-1.3134,1.86223-2.05898,2.7368
	c-0.71923,0.84377-1.30929,1.80868-1.87472,2.76845c-0.35995,0.61102-0.74095,1.16815-1.27234,1.64649
	c-0.70588,0.63557-1.4624,1.25694-2.00748,2.02014c-0.96439,1.35017-2.07522,2.54125-3.26612,3.6857
	c-1.53152,1.47157-3.22678,2.6623-5.20158,3.45406c-1.13377,0.45473-2.04375,0.10658-2.52757-0.99937
	c-0.2804-0.6413-0.56508-1.28081-0.83026-1.92835c-0.09392-0.22942-0.14251-0.4786-0.19999-0.72145
	c-0.16031-0.67783-0.30727-1.35882-0.47356-2.03502c-0.09991-0.40692-0.28331-0.80075-0.33036-1.21178
	c-0.15551-1.35976-0.23969-2.72773-0.39999-4.08681c-0.30727-2.60609-0.24585-5.19353,0.27749-7.76815
	c0.12181-0.59913,0.18204-1.21237,0.3307-1.80406c0.4147-1.65163,0.86397-3.29461,1.29355-4.94256
	c0.21129-0.8105,0.35055-1.64513,0.62685-2.4321c0.4053-1.15489,0.90229-2.27779,1.36404-3.41275
	c0.72642-1.78472,1.44804-3.5715,2.18729-5.35093c0.36235-0.87218,0.7377-1.74042,1.14762-2.59087
	c0.32693-0.67817,0.71837-1.32494,1.07473-1.98917c0.1834-0.34216,0.35346-0.69151,0.52814-1.03821
	c0.36235-0.71931,0.6626-1.47884,1.09818-2.15067c0.95532-1.47379,1.97308-2.90746,2.97854-4.3483
	c0.26911-0.38579,0.56611-0.7567,0.88535-1.10228c0.41505-0.44961,0.8188-0.88073,1.13154-1.4335
	c0.58441-1.03325,1.37088-1.87753,2.66888-2.06701c1.10331-0.16099,2.19618-0.39965,3.28922-0.62547
	c1.49988-0.31001,3.00403-0.1266,4.50801-0.07426c0.83796,0.02917,1.69936,0.18366,2.50977,0.04517
	c1.87985-0.32129,3.61034,0.1189,5.3328,0.7579c1.49509,0.55447,2.89043,0.54096,4.12051-0.65918
	c0.21625-0.21077,0.57433-0.32506,0.88518-0.37963c0.69836-0.12267,1.35908-0.3035,1.93836-0.73445
	c0.8241-0.61291,1.65402-1.21811,2.49027-1.8145c0.22549-0.16082,0.46842-0.34969,0.72795-0.40102
	c0.73942-0.14594,0.88193-0.80579,1.1714-1.3134c0.17775-0.31179,0.00171-0.64634-0.28297-0.89082
	c-0.34011-0.29187-0.62838-0.66637-1.00819-0.88492c-0.8176-0.47039-1.66582-0.89459-2.52825-1.27721
	c-0.53086-0.23566-1.1122-0.35705-1.6689-0.53548c-0.18494-0.0592-0.35893-0.16048-0.54678-0.2006
	c-1.17397-0.25063-2.34621-0.51213-3.52771-0.72197c-0.54575-0.09692-1.11032-0.10975-1.66685-0.11676
	c-0.83694-0.0106-1.67421,0.02823-2.51131,0.02695c-2.22715-0.00351-4.46114-0.56466-6.68076,0.08383
	c-0.07819,0.02284-0.17039-0.00565-0.25098,0.01258c-1.14146,0.25782-2.31183,0.4313-3.41582,0.80169
	c-1.58063,0.53035-2.89111,1.54256-4.19083,2.57975c-1.31938,1.05284-2.48222,2.2085-3.45876,3.5946
	c-0.70195,0.99647-1.621,1.83742-2.40798,2.77734c-1.00425,1.19929-1.99532,2.41106-2.95065,3.64935
	c-0.9738,1.26241-1.93375,2.53869-2.83244,3.85464c-0.891,1.30416-2.00816,2.4617-2.59634,3.96928
	c-0.11856,0.30402-0.39486,0.5425-0.55756,0.8342c-0.58493,1.04958-1.13564,2.11842-1.73049,3.16228
	c-0.87252,1.53152-1.56951,3.14133-2.19105,4.78585c-0.91683,2.4256-1.73631,4.89217-3.22746,7.05901
	c-0.27698,0.40256-0.37672,0.92256-0.61761,1.35548c-0.55533,0.99826-1.14659,1.97651-1.72433,2.96229
	c-0.09872,0.16834-0.19503,0.33874-0.30453,0.4999c-1.11289,1.63939-2.20337,3.29469-3.34961,4.91048
	c-1.29013,1.81886-2.63261,3.60051-3.94892,5.4008c-0.61025,0.83437-1.12897,1.7542-1.83503,2.49643
	c-1.72895,1.81732-3.1024,3.95508-5.10406,5.52998c-1.24462,0.97935-2.35135,2.1333-3.59204,3.11823
	c-0.82769,0.65713-1.77344,1.16883-2.68342,1.71749c-0.41333,0.24927-0.77175,0.51085-1.04617,0.93359
	c-0.21625,0.33284-0.57227,0.58938-0.90314,0.8288c-0.31479,0.2278-0.68176,0.38177-1.01777,0.58168
	c-0.63711,0.37904-1.32246,0.65926-2.06137,0.62693c-1.47849-0.06467-2.95869-0.15526-4.42948-0.31496
	c-1.82579-0.19811-3.51882-0.8336-5.17335-1.63246c-1.77703-0.85798-3.32053-1.97395-4.64813-3.43584
	c-1.96915-2.16779-3.23687-4.73975-4.41272-7.37381c-0.2378-0.53284-0.4739-1.06644-0.71256-1.59885
	c-0.39777-0.88741-0.87782-1.74786-1.17653-2.66734c-0.44772-1.37849-0.78835-2.79333-1.13479-4.20254
	c-0.17296-0.70332-0.39041-1.43504-0.35431-2.14212c0.06826-1.3341-0.75213-6.28655,1.22241-12.79096
	c0.40551-1.33582,1.71644-4.29089,2.31352-5.50267c0.8744-1.77429,1.86736-3.49692,3.06014-5.0914
	c0.33361-0.44584,0.53891-1.0022,0.91939-1.39543c0.65268-0.67466,3.24577-3.59477,3.95422-4.20708
	c1.20288-1.03992,2.40182-2.08472,3.61787-3.10899c0.42753-0.35995,0.85695-0.77774,1.36147-0.97482
	c1.40458-0.54875,2.5534-1.46866,3.76962-2.31149c0.65148-0.45148,1.44975-0.73993,2.22253-0.95618
	c1.18064-0.33053,2.40182-0.51444,3.59546-0.80306c0.48142-0.11642,0.8525-0.00735,1.26378,0.23627
	c1.30365,0.77218,2.667,1.40903,4.16978,1.71355c1.03881,0.21043,2.0612,0.50743,3.10411,0.69152
	c0.79091,0.1396,1.60133,0.18597,2.40541,0.22839c0.52779,0.02771,1.06636,0.02061,1.5885-0.05321
	c0.7969-0.11266,1.64341-0.1633,2.35922-0.48468c0.85062-0.38203,1.56181-1.06242,2.37599-1.54085
	c0.93582-0.54994,1.8778-1.13727,2.89299-1.48901c0.84155-0.29135,1.40681-0.8862,2.07471-1.36942
	c0.13498-0.0976,0.16509-0.46252,0.11394-0.67261c-0.16304-0.66842-1.63898-1.80243-5.55024-2.70892
	c-4.84176-1.12214-9.6569-3.40025-11.43359-4.5554c-1.21776-0.79177-2.11012-1.81432-2.5173-3.22866
	c-0.19401-0.67321-0.42052-1.33795-0.59092-2.01688c-0.4792-1.90791-0.75961-3.80983-0.44772-5.80721
	c0.31325-2.00688,0.89151-3.92839,1.49577-5.84776c0.21556-0.68484,0.55328-1.35805,0.96199-1.9488
	c0.50264-0.72659,1.18834-1.32554,1.70176-2.04614c0.49426-0.69391,1.085-1.17824,1.90671-1.39021
	c0.16133-0.04157,0.31428-0.11993,0.46654-0.19101c0.80545-0.37613,1.64718-0.50632,2.53578-0.44909
	c1.59192,0.10248,3.1539,0.35286,4.72392,0.65054c3.01447,0.57167,5.54853,1.97968,7.7637,4.03249
	c0.75379,0.69861,1.44889,1.46036,2.17942,2.18472c0.65096,0.64558,1.30518,1.28876,1.97428,1.91543
	c0.48519,0.45431,1.01931,0.85755,1.4891,1.32615c0.30915,0.30829,0.56817,0.18913,0.90708,0.09033
	c0.99552-0.2905,1.64649-1.10502,2.51542-1.58541c0.99809-0.552,1.91988-1.28106,2.9693-1.68995
	c0.98132-0.38237,1.60612-1.09167,2.25452-1.79901c0.44584-0.48613,0.61521-1.29347-0.06586-1.87891
	c-0.35825-0.30786-0.7105-0.63848-0.99689-1.01144c-1.14368-1.49064-2.5262-2.75801-3.92719-3.97654
	c-1.29236-1.12393-2.47317-2.42731-4.08408-3.15133c-0.04944-0.02216-0.08708-0.06989-0.1319-0.10359
	c-1.67951-1.26045-3.56107-2.1032-5.57642-2.64989c-0.97174-0.26364-1.95324-0.51222-2.94535-0.67603
	c-2.16179-0.35679-4.33317-0.61128-6.49427,0.0302c-0.80118,0.2378-1.59705,0.49528-2.40216,0.71872
	c-1.53649,0.42651-3.07417,0.82598-4.40622,1.77823c-0.65524,0.46859-1.38388,0.83522-2.08155,1.24377
	c-0.79296,0.46432-1.61724,0.88159-2.37684,1.39492c-1.22752,0.82949-2.43142,1.69671-3.6112,2.59275
	c-1.06601,0.80965-2.16076,1.59354-2.81772,2.8326c-0.23062,0.43498-0.64789,0.76756-0.95361,1.16712
	c-0.40649,0.53104-0.84805,1.04882-1.16473,1.63178c-0.47732,0.87842-0.61641,1.92185-1.28859,2.71524
	c-0.06706,0.0793-0.08469,0.20573-0.11086,0.31368c-0.43712,1.79465-0.9324,3.57784-1.2891,5.3884
	c-0.31907,1.61903-0.58955,3.27211-0.2402,4.92426c0.33532,1.58524,0.75036,3.15355,1.12948,4.72956
	c0.0917,0.38049,0.1562,0.76944,0.27561,1.14086c0.15209,0.47295,0.26826,0.98552,0.53994,1.38619
	c0.61162,0.90229,1.31134,1.74452,1.97138,2.61413c0.53138,0.70007,0.52573,0.96473-0.25064,1.27268
	c-1.21776,0.48297-2.22424,1.26703-3.26253,2.01928c-0.29341,0.21248-0.5952,0.42326-0.91905,0.5815
	c-1.51356,0.73993-2.89351,1.68601-4.23359,2.69643c-0.86191,0.64994-1.69508,1.34342-2.59343,1.93845
	c-1.72998,1.14582-3.47006,2.26743-4.74872,3.95276c-0.09854,0.12985-0.26535,0.20564-0.38596,0.32164
	c-1.40784,1.35309-2.97922,2.54938-4.01307,4.25925c-0.2585,0.42754-0.55773,0.84789-0.91187,1.19672
	c-0.9324,0.9182-1.57293,2.03237-2.1984,3.15475c-0.98098,1.76026-1.90106,3.555-2.89847,5.30577
	c-0.5863,1.02914-1.10519,2.07351-1.37242,3.23122c-0.30145,1.30689-0.63044,2.60866-0.89048,3.92385
	c-0.42822,2.16667-0.8407,4.33744-1.20425,6.51575c-0.37552,2.25058-0.14456,4.52529-0.16013,6.78939
	c-0.00462,0.66875,0.03678,1.35172,0.17006,2.00508c0.33515,1.64196,0.65268,3.2952,1.13051,4.89825
	c0.54096,1.81483,1.24787,3.58023,1.88789,5.3653c0.03644,0.10162,0.12575,0.18323,0.18306,0.27852
	c0.3745,0.6224,0.79929,1.22118,1.11015,1.87421c0.93223,1.95803,2.02544,3.79135,3.63395,5.28643
	c0.44704,0.41548,0.74369,0.99741,1.20425,1.39235c1.60612,1.37714,3.20437,2.73817,5.10235,3.76414
	c1.2063,0.65208,2.45657,1.06235,3.72446,1.45737c1.54556,0.48143,3.1219,0.77876,4.78106,0.74747
	c1.06584-0.02002,2.14246,0.20016,3.23756,0.20572c1.18474,0.00598,2.25264-0.25636,3.31454-0.69083
	c0.62-0.25363,1.24941-0.48715,1.85624-0.76927c1.03145-0.47946,2.14113-0.83621,3.06818-1.49457
	c9.00935-6.39818,12.86776-12.09285,13.33328-12.59831c0.30213-0.32796,0.59297-0.66663,0.87868-1.00904
	c0.35568-0.42625,0.69476-0.86636,1.05267-1.29065c0.25183-0.29871,0.54781-0.56252,0.7803-0.87457
	c0.61761-0.8289,1.19792-1.6855,1.81758-2.51277c1.15566-1.54239,2.32518-3.0746,3.49692-4.60476
	c0.30538-0.39896,0.64053-0.77517,0.96199-1.16181c0.05474,0.02848,0.10966,0.05697,0.16441,0.08554
	c-0.02258,0.27099-0.04568,0.5419-0.06775,0.81289c-0.12711,1.55993-0.27903,3.1184-0.36783,4.68055
	c-0.03148,0.55174,0.1408,1.11289,0.13464,1.66874c-0.02412,2.16658,0.28622,4.30613,0.68313,6.41497
	c0.50948,2.70729,1.47011,5.30312,2.88154,7.67123c0.97414,1.63469,2.48309,2.63544,4.49997,2.60593
	c0.78339-0.01146,1.57533,0.0183,2.34741-0.08777c0.82188-0.11292,1.69457-0.22429,2.42133-0.58527
	c1.44923-0.71967,2.75853-1.70253,3.94292-2.80267c1.20733-1.12152,2.34297-2.32732,3.4379-3.56022
	c0.75738-0.85267,1.38217-1.82194,2.08634-2.72345c0.35893-0.45961,0.8017-0.85661,1.13702-1.33119
	c0.69271-0.9803,1.32212-2.00525,2.00833-2.99051c0.85831-1.23265,1.75787-2.43655,2.62098-3.66612
	c1.2205-1.73904,2.42389-3.49007,3.63429-5.23614c0.5259-0.7584,1.04856-1.51904,1.5772-2.27556
	c0.33464-0.47886,0.67116-0.95669,1.01846-1.4264c0.29665-0.40127,0.60135-0.79733,0.91871-1.18243
	c0.19435-0.23592,0.41932-0.44686,0.63061-0.6691c0.04192,0.44704-0.0426,0.79322-0.10573,1.14334
	c-0.4508,2.50259-0.90674,5.00432-1.34145,7.50982c-0.21984,1.26806-0.52334,2.5386-0.57039,3.81607
	c-0.10624,2.88675,0.10812,5.75092,0.90075,8.56077c0.35089,1.24377,0.77431,2.44262,1.35702,3.58897
	c0.48724,0.95865,1.07047,1.85324,1.99892,2.44228c0.76953,0.48827,1.52554,0.97757,2.43946,1.2317
	c1.30878,0.36398,2.60712,0.69981,3.96619,0.48682c0.99194-0.15535,2.00713-0.30376,2.9409-0.64798
	c0.9276-0.3419,1.77377-0.91177,2.6415-1.40663c0.55602-0.31718,1.17567-0.59238,1.61108-1.03847
	c1.20835-1.23787,2.33167-2.55862,3.4964-3.83951c0.35414-0.3893,0.73873-0.75071,1.09801-1.13513
	c0.13036-0.13943,0.23558-0.30435,0.33942-0.46586c0.19589-0.30478,0.36919-0.62488,0.57552-0.9223
	c0.84241-1.21442,1.68687-2.42773,2.54382-3.63207c1.02016-1.43358,2.05914-2.8539,3.07759-4.28894
	c0.19144-0.26997,0.35089-0.57047,0.47903-0.87637c0.36714-0.87663,0.68638-1.76565,1.32486-2.51012
	c0.59982-0.69921,1.0773-1.4808,1.43195-2.35118c0.24944-0.61196,0.65063-1.172,1.03949-1.71561
	c0.88005-1.23008,1.75308-2.44493,2.26137-3.90529c0.38425-1.10459,0.97226-2.1263,1.69952-3.07178
	c0.54233-0.70469,0.97603-1.50039,1.39963-2.28694c0.62189-1.15455,1.16147-2.35383,1.79567-3.50111
	c0.32216-0.58288,0.71907-1.14745,1.18065-1.62494c0.71255-0.73685,1.34641-1.53195,1.66548-2.49095
	c0.60751-1.82545,1.79927-3.2894,2.92361-4.7708c0.54781-0.72162,0.94849-1.41998,1.12007-2.28403
	c0.16647-0.8383,0.52541-1.57626,1.06602-2.25272c1.29457-1.61946,2.27829-3.43772,3.25107-5.25974
	c0.5105-0.95652,0.89151-1.99876,1.92467-2.58308c0.20787-0.11762,0.31104-0.44909,0.42429-0.6993
	c0.19435-0.42924,0.29614-0.91238,0.5466-1.30228c0.94849-1.47601,2.16283-2.78684,2.72842-4.49801
	c0.19435-0.58775,0.66602-0.81922,1.24821-0.79048c1.56352,0.07699,3.12601,0.17724,4.68867,0.271
	c0.86397,0.05175,1.7269,0.14294,2.5912,0.15636c1.73546,0.02703,3.47742-0.06347,5.1843,0.35345
	c0.59212,0.14465,1.1288,0.31265,1.54984,0.8738c0.52522,0.70016,0.55772,1.39098,0.29991,2.13211
	c-0.28416,0.817-0.62685,1.61501-0.97192,2.40918c-0.80185,1.84529-1.55411,3.71642-2.44955,5.51585
	c-1.05865,2.12724-2.24698,4.18997-3.37938,6.28059c-0.37141,0.68569-0.75601,1.36472-1.11118,2.0588
	c-0.24123,0.4715-0.42,0.97534-0.66551,1.44444c-0.58253,1.11306-1.25847,2.18284-1.76744,3.32764
	c-0.69203,1.55624-1.28859,3.1568-1.88037,4.75531c-0.70827,1.91303-1.36848,3.84386-2.04921,5.76717
	c-1.44975,4.09707-2.18062,8.279-1.40015,12.61798c0.20702,1.15112,0.48656,2.29541,0.82668,3.4142
	c0.24242,0.79767,0.58749,1.57729,0.98851,2.30918c0.31718,0.5786,0.84001,1.04154,1.18286,1.60945
	c1.06551,1.76531,2.43587,3.27776,3.90273,4.69714c1.16405,1.12631,2.22353,2.44608,3.65277,3.21257
	c3.41432,1.83109,7.26192,1.81741,8.74605,0.47305c0.2272-0.20599,0.51753-0.34439,0.73566-0.55791
	c0.75584-0.73993,1.61246-1.41707,2.20064-2.27582c0.51564-0.75267,1.05489-1.4453,1.75923-1.99934
	c0.39297-0.30898,0.6602-0.64669,0.81862-1.12486c0.10008-0.30247,0.34183-0.56646,0.55089-0.8224
	c0.24704-0.30247,0.55943-0.55431,0.78766-0.86858c0.84891-1.16917,1.62802-2.38266,2.58163-3.48238
	c1.07747-1.24248,2.03246-2.59087,3.04594-3.88921c0.41008-0.52531,0.83488-1.03932,1.25163-1.55941
	c0.72864-0.90965,1.49321-1.79346,2.1736-2.738c0.6022-0.83625,1.10741-1.74213,1.66086-2.61396
	c0.49358-0.77748,0.99947-1.54726,1.49098-2.32612c0.47697-0.75541,0.8987-1.55043,1.4294-2.26538
	c0.32317-0.4354,0.66978-0.92453,1.29132-1.11195c0.01352,0.15098,0.04073,0.23566,0.02464,0.3112
	c-0.05835,0.27348-0.11823,0.54789-0.20068,0.81478c-0.5916,1.9168-0.8017,3.89682-0.83437,5.88316
	c-0.03096,1.90106,0.08348,3.80538,0.16441,5.70695c0.02223,0.52419,0.11223,1.05455,0.24396,1.56326
	c0.22395,0.86456,0.5425,1.70492,0.75635,2.57153c0.68793,2.78616,1.14471,5.62946,2.47745,8.23537
	c0.57791,1.13008,1.32965,2.1049,2.24973,2.89085c1.28003,1.09338,2.94928,1.42871,4.55078,1.83708
	c0.10521,0.02686,0.22462,0.01796,0.33464,0.00394c1.08192-0.13875,2.17206-0.23456,3.24217-0.4366
	c1.22444-0.23114,2.3428-0.73018,3.30444-1.55925c0.40051-0.34506,0.83797-0.66927,1.30673-0.90878
	c1.27422-0.65147,2.15187-1.77394,3.23465-2.65057c0.71187-0.57637,1.34453-1.25027,2.0174-1.87531
	c0.50658-0.47047,1.08124-0.84728,1.38663-1.5376c0.19177-0.43335,0.64822-0.74874,0.98303-1.11965
	c0.44875-0.49708,0.94266-0.96207,1.33273-1.50184c1.05009-1.45248,2.09438-2.90155,3.50153-4.04558
	c0.18237-0.1485,0.27151-0.40983,0.40991-0.6147c0.71974-1.06438,1.32777-2.23244,2.1902-3.16536
	c1.17943-1.27584,2.41158-2.48634,3.2338-4.04087c0.09067-0.17133,0.22581-0.32001,0.34644-0.47449
	c0.82256-1.05301,1.67625-2.08327,2.46272-3.16245c1.05182-1.44324,2.05367-2.92294,3.0728-4.38979
	c0.27083-0.38964,0.50487-0.80648,0.79382-1.18158c0.62924-0.81683,1.2773-1.61938,1.92947-2.41815
	c0.25423-0.3112,0.54044-0.59631,0.81212-0.89339c-0.12352,1.05344-0.27972,2.04734-0.55858,3.0054
	c-0.35825,1.2311-0.82086,2.43159-1.22649,3.64918c-0.15004,0.45063-0.24825,0.91871-0.4012,1.36814
	c-0.35995,1.05797-0.7336,2.11141-1.11134,3.16331c-0.5851,1.62998-1.15993,3.26416-1.77686,4.88216
	c-0.24773,0.64926-0.63985,1.24377-0.88518,1.89371c-0.245,0.64874-0.35791,1.34634-0.58562,2.00278
	c-0.20975,0.6046-0.43523,1.21733-1.04018,1.58054c-0.13293,0.07973-0.21658,0.24953-0.30881,0.38733
	c-0.21385,0.31984-0.49408,0.62018-0.61298,0.97363c-0.30676,0.91264-0.62428,1.83717-0.76697,2.78265
	c-0.06638,0.44045-0.01762,0.89767-0.31274,1.25532c-0.35413,0.42916-0.42445,0.88295-0.31342,1.40869
	c0.05115,0.24276,0.00462,0.50443,0.03302,0.75404c0.11189,0.98321-0.12233,2.00935,0.42616,2.94569
	c0.10847,0.18494-0.02942,0.53625-0.09975,0.79852c-0.10812,0.40366-0.30212,0.78809-0.37723,1.19594
	c-0.14748,0.79999,0.24088,1.3223,1.03676,1.401c0.44225,0.04379,0.9052,0.05791,1.33684-0.02652
	c0.33685-0.06578,0.76797-0.22121,0.93547-0.48022c0.70982-1.09732,1.41211-2.20825,2.06599-3.3325
	c0.92281-1.58628,1.76282-3.24663,2.28856-5.0305c0.16492-0.55978,0.37656-1.11391,0.46671-1.68636
	c0.29033-1.84495,0.90417-3.59084,1.7406-5.23494c0.82256-1.61655,1.82903-3.13902,2.74329-4.70955
	c0.35124-0.60323,0.63335-1.24907,1.01196-1.8334c0.80254-1.23855,1.63828-2.45605,2.47812-3.66979
	c0.88997-1.28577,1.80098-2.55682,2.70139-3.83532c0.12917-0.18323,0.25285-0.37022,0.37466-0.55841
	c1.76266-2.72226,3.51027-5.45606,5.83783-7.75275c0.93359-0.92128,1.89337-1.81732,2.80182-2.76263
	c1.19586-1.24428,2.35495-2.52389,3.52496-3.79288c0.26398-0.28622,0.48059-0.62035,0.76508-0.88245
	c1.06638-0.98244,2.16983-1.92475,3.22559-2.91814c1.54727-1.45573,3.0593-2.94868,4.59937-4.4122
	c0.42343-0.40231,0.88022-0.77261,1.34369-1.12889c0.86139-0.66225,1.73477-1.30903,2.61105-1.95161
	c0.76062-0.5579,1.51682-1.12418,2.30344-1.64359c0.62857-0.41505,1.3158-0.74044,1.94812-1.15018
	c0.84222-0.54567,1.64633-1.14993,2.48514-1.70098c1.1442-0.75165,2.30875-1.47224,3.45807-2.21603
	c0.35706-0.23105,0.70795-0.43241,1.14285-0.3082c0.22067,0.49417-0.05118,0.84181-0.23489,1.21297
	c-0.40872,0.82495-0.8147,1.65137-1.20975,2.48291c-0.35944,0.75703-0.70691,1.51989-1.05283,2.28326
	c-0.70178,1.54778-1.40988,3.09282-2.09335,4.64881c-0.3822,0.87046-0.69528,1.77164-1.08347,2.63937
	c-0.923,2.06316-1.91904,4.09502-2.79224,6.17863c-0.49304,1.17679-0.78595,2.43612-1.19962,3.6479
	c-0.18924,0.55379-0.51752,1.06447-0.67099,1.62527c-0.7962,2.91079-1.60339,5.82039-2.30927,8.75376
	c-0.33823,1.40586-0.50693,2.85852-0.66516,4.29955c-0.09991,0.9099-0.04758,1.83768-0.04517,2.75732
	c0.00067,0.36338,0.05783,0.72625,0.07733,1.09005c0.13858,2.57137,0.32181,5.13255,0.94452,7.64934
	c0.44601,1.80244,0.93155,3.57022,1.92349,5.1701c0.33173,0.53489,0.69885,1.15524,0.71939,1.74803
	c0.02463,0.70734,0.32693,1.11896,0.75021,1.59097c0.96747,1.07903,2.1864,1.8246,3.33609,2.6664
	c1.10486,0.80905,2.29764,1.42126,3.67725,1.51219c1.43948,0.09496,2.92548,0.3331,4.1756-0.72914
	c0.12469-0.1059,0.28827-0.18187,0.44635-0.23045c0.72229-0.22147,1.28207-0.6792,1.78815-1.2128
	c0.28809-0.30418,0.53018-0.65524,0.83539-0.93958c1.28601-1.19758,2.58865-2.37736,3.88321-3.56586
	c0.16476-0.15115,0.32181-0.31112,0.4758-0.47339c1.21124-1.27712,2.40573-2.57042,3.63721-3.82761
	c0.61008-0.62283,1.23486-1.21486,1.53424-2.06667c0.06195-0.17638,0.21918-0.32266,0.34457-0.4727
	c1.19843-1.43486,2.41806-2.85245,3.59476-4.30476c1.28244-1.58276,2.54025-3.1864,3.77869-4.80381
	c0.42328-0.55294,0.69342-1.22854,1.14215-1.75548c1.17755-1.38226,2.49695-2.6504,3.25928-4.34514
	c0.07666-0.17023,0.26312-0.28784,0.38016-0.4437c0.68604-0.91357,1.40628-1.80482,2.03964-2.75391
	c0.89801-1.34539,1.73016-2.73475,2.59293-4.10366c0.04413-0.06997,0.11292-0.12386,0.16867-0.18665
	c0.89307-1.00391,1.74777-2.03109,2.41193-3.21292c0.28091-0.49982,0.58783-1.03052,1.18338-1.28603
	c-0.12985,0.49494-0.36972,0.93633-0.50436,1.40784c-0.49118,1.72125-0.95737,3.4497-1.41211,5.18105
	c-0.24158,0.91991-0.44772,1.84957-0.6561,2.77786c-0.29376,1.30835-0.61847,2.61191-0.84958,3.93147
	c-0.27545,1.57147-0.40805,3.16878-0.70657,4.73503c-0.41678,2.18729-0.52011,4.38142-0.34406,6.59059
	c0.091,1.14368,0.19537,2.29353,0.4101,3.4183c0.31308,1.63974,0.37363,3.35142,1.23486,4.85437
	c0.16629,0.29015,0.34421,0.57638,0.47971,0.88091c0.60187,1.35172,1.13547,2.73731,1.80423,4.05456
	c0.39966,0.78714,0.92487,1.54547,1.53256,2.18454c1.15173,1.21101,2.66632,1.72151,4.30066,1.93845
	c1.07269,0.14235,2.14041,0.13943,3.15201-0.22797c1.77841-0.64575,3.60229-1.19987,5.22177-2.21945
	c0.84805-0.53403,1.70294-1.06352,2.50687-1.65958c0.69424-0.51462,1.28757-1.16592,1.98505-1.67523
	c1.03265-0.75379,1.84427-1.69115,2.56024-2.73252c0.25305-0.36809,0.51755-0.73651,0.82721-1.05583
	c1.10825-1.14275,2.24579-2.25717,3.35489-3.39923c0.28949-0.29828,0.5083-0.66423,0.77313-0.98792
	c0.49512-0.6052,0.93976-1.27029,1.51749-1.78421c0.62051-0.55174,1.07492-1.19937,1.54541-1.86308
	c0.59485-0.83899,1.28207-1.61177,1.91663-2.42321c0.56421-0.72163,1.21655-1.40202,1.63281-2.20311
	c0.35089-0.67551,0.69406-1.32973,1.18372-1.91372c0.55429-0.6608,1.08054-1.34488,1.61792-2.01971
	c0.18802-0.23618,0.37277-0.47492,0.55893-0.71247c0.04959,0.03174,0.09921,0.06339,0.14865,0.09504
	c-0.27286,1.33495-0.52643,2.67435-0.82376,4.00383c-0.40854,1.82733-0.86295,3.64439-1.27078,5.4718
	c-0.12112,0.54311-0.14285,1.10767-0.22482,1.66027c-0.16458,1.10664-0.33017,2.2132-0.51187,3.31711
	c-0.24002,1.45959-0.51221,2.91404-0.74045,4.37542c-0.25473,1.63007-0.46106,3.26785-0.71649,4.89774
	c-0.15158,0.96643-0.35294,1.92519-0.53992,2.8858c-0.32095,1.64864-0.56561,3.31796-0.99536,4.93794
	c-0.4501,1.69646-1.05847,3.35278-1.63898,5.01219c-0.49887,1.42546-1.05865,2.82953-1.58609,4.24506
	c-0.24927,0.6691-0.65079,1.2684-0.76303,2.00774c-0.06329,0.41701-0.44479,0.77509-0.59109,1.19183
	c-0.58612,1.66832-1.58609,3.0741-2.74106,4.37645c-0.72147,0.81342-1.50708,1.56969-2.2583,2.35666
	c-0.82889,0.86824-1.64313,1.73843-2.65005,2.42509c-2.87949,1.96361-5.94476,4.48439-11.51175,6.37639
	c-1.58194,0.53764-3.18811,1.07123-4.89792,1.08655c-0.21951,0.00204-0.44397,0.0668-0.65628,0.13405
	c-2.06958,0.65601-4.2009,0.84882-6.35739,0.86763c-0.22003,0.00197-0.43951,0.07135-0.65918,0.10985
	c-0.40906,0.07167-0.82532,0.23318-1.22565,0.2005c-2.1452-0.17433-4.28662-0.39374-6.42874-0.60564
	c-0.52847-0.05234-1.05557-0.12454-1.58063-0.20496c-1.63947-0.25072-3.27777-0.50905-4.91605-0.7673
	c-0.0816-0.01282-0.16388-0.04311-0.23798-0.08092c-1.76865-0.90202-3.69965-1.24615-5.6156-1.64667
	c-0.35431-0.07416-0.69971-0.1964-1.04395-0.31204c-1.11066-0.37331-2.22748-0.73087-3.32547-1.13873
	c-0.91428-0.33942-1.82443-0.70143-2.70172-1.12486c-1.13223-0.54652-2.23401-1.1572-3.34125-1.75427
	c-0.53891-0.29059-1.07404-0.59229-1.58731-0.92529c-0.96008-0.62291-1.90002-1.27628-2.8533-1.90971
	c-1.15857-0.77003-2.35272-1.49046-3.47534-2.30927c-1.28723-0.93889-2.53082-1.94058-3.75732-2.95851
	c-0.55533-0.46089-0.97858-1.08261-1.53955-1.53496c-1.99567-1.6091-3.40863-3.6786-4.7164-5.83543
	c-0.23077-0.38065-0.43866-0.79022-0.56799-1.21365c-0.20511-0.67166-0.55756-1.23213-1.11511-1.63519
	c-0.65491-0.47348-1.33051-0.92488-2.03021-1.32846c-0.79724-0.45987-1.22787-0.36577-1.84958,0.30838
	c-0.17023,0.18477-0.32404,0.38733-0.46704,0.59433c-0.84155,1.21768-2.04257,2.1275-2.84561,3.3882
	c-0.41351,0.64891-1.05215,1.15036-1.50792,1.77754c-0.44464,0.61197-0.80614,1.32607-0.6207,2.10654
	c0.15329,0.64575,0.45714,1.25908,0.72368,1.87402c1.23436,2.84715,3.25571,5.14394,5.37952,7.3177
	c1.15857,1.18585,2.1712,2.55818,3.6413,3.43446c0.61932,0.3692,1.21057,0.79674,1.77002,1.25241
	c1.49869,1.22075,3.03995,2.35374,4.7359,3.31223c1.24203,0.70187,2.37238,1.61536,3.60846,2.36197
	c0.8862,0.53531,1.74246,1.09775,2.71747,1.46411c0.36285,0.13652,0.71442,0.31856,1.04581,0.52147
	c1.69339,1.03743,3.37683,2.08463,5.39441,2.40131c0.80972,0.12711,1.51218,0.54105,2.2374,0.90707
	c1.02188,0.51547,2.07968,0.94916,3.26492,0.96455c0.55261,0.00711,1.11804,0.05902,1.6535,0.18973
	c1.3555,0.33122,2.59378,1.05234,4.00589,1.2128c0.41504,0.04723,0.83557,0.12045,1.23111,0.25021
	c1.61398,0.52924,3.26236,0.77817,4.9614,0.73027c0.38647-0.01079,0.77737,0.07527,1.1637,0.13429
	c0.65866,0.1006,1.31287,0.23456,1.9736,0.31967c1.33221,0.17168,2.66647,0.34772,4.0105,0.09451
	c0.10779-0.02036,0.22549-0.01265,0.33514,0.00403c1.21707,0.1852,2.38593,0.02266,3.53677-0.41136
	c0.38495-0.14525,0.82172-0.20847,1.23575-0.21233c1.47369-0.01376,2.87726-0.35756,4.2926-0.73068
	c1.00922-0.26587,2.07504-0.3165,3.21976-0.47783c10.98468-4.15741,16.62473-9.12808,17.99374-10.31514
	c1.64117-1.42297,3.06305-3.07887,4.86728-4.34352c0.91803-0.64343,1.72363-1.55136,2.33612-2.49762
	c0.63831-0.98621,1.50021-1.72665,2.24185-2.5936c0.47049-0.54987,0.95926-1.08553,1.40271-1.6566
	c0.39178-0.50435,0.73068-1.04976,1.09576-1.57506c0.20667-0.29735,0.43164-0.58263,0.62653-0.88731
	c0.75208-1.17636,1.50259-2.35393,2.23895-3.54021c0.39725-0.64001,0.79227-1.28432,1.13751-1.9529
	c0.34576-0.66962,0.65662-1.3607,0.93188-2.06232c0.4585-1.16832,0.89578-2.34578,1.30655-3.53172
	c0.59348-1.71313,1.38422-3.35971,1.7341-5.15659c0.06329-0.32506,0.24258-0.62566,0.33923-0.94633
	c0.43472-1.44188,0.90793-2.87469,1.27286-4.33437c0.35208-1.40758,0.59897-2.8421,0.87286-4.2685
	c0.24258-1.26353,0.49991-2.52645,0.67236-3.80025c0.1199-0.88423,0.03763-1.79662,0.168-2.67838
	c0.2785-1.88096,0.61502-3.75422,0.9678-5.62295c0.38339-2.03126,0.56149-4.09895,1.15445-6.09497
	c0.22858-0.7697,0.2113-1.60971,0.40787-2.39224c0.42889-1.7062,0.92899-3.39452,1.38885-5.09311
	c0.50314-1.85889,0.99432-3.72095,1.48996-5.58189c0.12146-0.45644,0.25079-0.91118,0.35721-1.37122
	c0.23917-1.03402,0.42548-2.08198,0.70844-3.10342c0.32831-1.18509,0.73465-2.34862,1.11188-3.51993
	c0.19641-0.61034,0.37689-1.2276,0.6116-1.8233c0.34781-0.88261,0.72385-1.75488,1.11221-2.62072
	c0.57141-1.27448,1.12128-2.5617,1.763-3.80059c0.43539-0.8407,1.02289-1.60175,1.52451-2.40943
	c0.79657-1.28278,1.55927-2.58694,2.37085-3.85995c1.14011-1.7878,2.32092-3.54961,3.46683-5.33374
	c0.65045-1.01263,1.16968-2.12681,1.92688-3.04826c0.64584-0.78569,1.10947-1.65231,1.61621-2.5072
	C383.67838,61.39759,383.64587,61.15047,383.11618,60.59445z"/>
</svg>
