<?xml version="1.0" encoding="utf-8"?>
<!-- Generator: Adobe Illustrator 25.4.1, SVG Export Plug-In . SVG Version: 6.00 Build 0)  -->
<svg version="1.1" id="Layer_1" xmlns="http://www.w3.org/2000/svg" xmlns:xlink="http://www.w3.org/1999/xlink" x="0px" y="0px"
	 viewBox="0 0 635.52789 188.99892" style="enable-background:new 0 0 635.52789 188.99892;" xml:space="preserve">
<style type="text/css">
	.st0{fill:#EFEDE6;}
	.st1{fill:#EFEDE5;}
	.st2{fill:#B48039;}
	.st3{fill:#AD8246;}
	.st4{fill:none;stroke:#B48039;stroke-width:0.99892;stroke-miterlimit:10;}
	.st5{fill:#FF00FF;}
	.st6{fill:#00FFFF;}
	.st7{fill:#606060;}
	.st8{fill:#A7834F;}
</style>
<path class="st2" d="M631.60138,64.23882c-0.51373-0.36071-1.09869-0.7526-1.69495-0.83938
	c-2.29437-0.334-4.60516-0.54651-6.93262-0.47076c-0.69708,0.02258-1.39655-0.033-2.09418-0.02014
	c-1.45007,0.02665-2.90979-0.01558-4.34625,0.14326c-1.15668,0.12794-2.2832,0.08308-3.42059-0.05429
	c-0.18134-0.02187-0.35504-0.10806-0.56958-0.17643c0.04822-0.23534,0.047-0.44076,0.13025-0.6028
	c0.63373-1.23416,1.13934-2.53482,1.91748-3.69442c0.16992-0.25337,0.32556-0.519,0.46191-0.79191
	c1.02051-2.04374,2.03375-4.091,3.05249-6.13575c0.06171-0.1239,0.15955-0.22947,0.22443-0.3522
	c0.18201-0.34367,0.37048-0.6851,0.52979-1.03935c0.68591-1.52441,1.33228-3.06754,2.05267-4.57523
	c0.49194-1.02958,1.0899-2.00818,1.62463-3.01787c0.15588-0.29448,0.30194-0.60757,0.37549-0.92974
	c0.21466-0.9399,0.7829-1.7137,1.16101-2.5757c0.33569-0.76565,0.76959-1.49486,1.03839-2.28174
	c0.44592-1.30514,0.95526-2.56221,1.83826-3.64096c0.10376-0.12671,0.17749-0.28219,0.24579-0.43311
	c0.60999-1.34595,0.76282-2.85675,1.54456-4.14944c0.29468-0.48718,0.13226-1.1312-0.1908-1.30027
	c-0.4657-0.24374-0.85864-0.0387-1.2157,0.27026c-0.02118,0.01835-0.04114,0.03796-0.06305,0.05538
	c-0.54462,0.43505-1.10248,0.58105-1.78162,0.24691c-0.91144-0.44829-1.82312-0.5184-2.62488,0.27696
	c-0.05719,0.05669-0.14929,0.07628-0.21838,0.12317c-1.08594,0.73718-2.18835,1.45947-2.98138,2.53607
	c-0.6925,0.94035-1.4209,1.86238-2.02374,2.85878c-1.00861,1.66702-2.17426,3.25427-2.89209,5.07995
	c-0.48175,1.22494-0.98187,2.43031-1.69568,3.54084c-0.19556,0.3041-0.3609,0.63031-0.51453,0.95832
	c-0.63879,1.36316-1.26544,2.73194-1.90125,4.09636c-0.47131,1.01149-0.96539,2.01274-1.42108,3.03111
	c-0.45074,1.00672-0.97546,1.97638-1.43127,2.98203c-0.74286,1.63922-1.48071,3.28848-2.45642,4.81261
	c-0.0575,0.08981-0.0567,0.21492-0.10028,0.31623c-0.15302,0.35591-0.28168,0.72766-0.47791,1.05882
	c-0.46863,0.79111-1.02765,1.5336-1.43915,2.35156c-0.29291,0.58199-0.69598,0.74767-1.27454,0.71554
	c-0.63916-0.0354-1.27838-0.07763-1.91809-0.09374c-0.7226-0.01801-1.4469,0.01178-2.16858-0.0199
	c-0.75189-0.03297-1.50079-0.14944-2.25244-0.16842c-2.23425-0.05642-4.47168-0.03463-6.67786-0.48523
	c-1.04877-0.21429-1.84705,0.20151-2.28784,1.19671c-0.36066,0.81423-0.64795,1.66177-1.02521,2.4676
	c-0.6969,1.4883-1.43707,2.95613-2.15656,4.43387c-0.26843,0.55124-0.12378,1.31744,0.35767,1.57189
	c0.43878,0.23199,0.9162,0.47035,1.39758,0.52663c1.18579,0.13853,2.34448,0.53493,3.56268,0.39908
	c0.18671-0.02085,0.38342,0.07071,0.57745,0.08633c0.38483,0.0311,0.77191,0.07387,1.15637,0.06119
	c1.08875-0.03592,2.16846-0.10181,3.25928,0.09773c0.78711,0.1439,1.60645,0.10934,2.41083,0.16358
	c0.20477,0.01382,0.40723,0.06275,0.6734,0.10554c-0.08905,0.24488-0.12439,0.40553-0.20111,0.54285
	c-0.52936,0.94666-1.06506,1.88979-1.604,2.83097c-0.16608,0.28996-0.33643,0.57874-0.52588,0.85369
	c-0.9198,1.33508-1.71942,2.73399-2.34265,4.2346c-0.18011,0.43396-0.39111,0.87439-0.67816,1.24126
	c-0.98523,1.25905-1.74982,2.6581-2.42902,4.08209c-0.78918,1.65461-1.55334,3.31756-2.44977,4.91856
	c-0.28564,0.5099-0.49811,1.0606-0.7464,1.59154c-0.37695,0.80566-0.67365,1.66343-1.15118,2.40442
	c-0.97986,1.5205-1.93646,3.04799-2.70325,4.68919c-0.57831,1.23782-1.11792,2.49479-2.01025,3.5603
	c-0.4826,0.57632-0.94067,1.17924-1.34918,1.80933c-0.39343,0.60684-0.6272,1.32952-1.07367,1.88721
	c-1.37524,1.71813-2.54492,3.60703-4.17877,5.11375c-0.08173,0.07533-0.15594,0.16177-0.21985,0.25283
	c-1.10394,1.57286-2.2439,3.12245-3.29114,4.73233c-0.49829,0.76582-1.0993,1.40264-1.77277,1.99173
	c-0.69403,0.60709-1.38531,1.21809-2.09827,1.80245c-0.4292,0.35186-0.8562,0.77249-1.35919,0.95109
	c-0.57288,0.20347-1.09161,0.47419-1.63434,0.72564c-1.24078,0.57497-2.57202,0.92978-3.97375,0.8055
	c-0.5343-0.0475-1.09735-0.12481-1.45068-0.56087c-0.43665-0.53883-0.96722-1.0957-1.14526-1.732
	c-0.48499-1.73423-1.77173-3.21087-1.65173-5.13279c0.00336-0.05268-0.02441-0.10888-0.04395-0.16113
	c-0.62286-1.67059-0.46613-3.43192-0.45148-5.1433c0.01398-1.6303,0.16022-3.28009,0.66791-4.88041
	c0.41168-1.29795,0.56812-2.67155,1.31433-3.86401c0.30701-0.49069,0.57782-1.03452,0.7207-1.59117
	c0.33899-1.32059,1.11316-2.43092,1.69-3.63066c0.49475-1.02891,1.04657-2.02567,1.47009-3.09465
	c0.37799-0.95383,0.927-1.83834,1.34314-2.7789c0.74298-1.67959,1.40009-3.39333,2.36017-4.97588
	c0.50317-0.82919,0.80829-1.77587,1.24902-2.64613c0.80634-1.59219,1.64502-3.16816,2.47607-4.74773
	c0.08972-0.17046,0.22729-0.31502,0.32788-0.48053c0.1983-0.32588,0.39819-0.65186,0.57477-0.98969
	c0.12811-0.2451,0.19275-0.52503,0.33209-0.7622c0.90417-1.53962,1.81989-3.0725,2.73486-4.60572
	c0.24316-0.40732,0.48846-0.81396,0.74786-1.21117c0.53058-0.81276,1.24139-1.51447,1.50623-2.49155
	c0.04169-0.15404,0.17041-0.28461,0.2594-0.4257c0.6438-1.02003,1.21875-2.06955,1.47919-3.26508
	c0.18646-0.85595-0.14398-1.58681-0.54132-2.29596c-0.18719-0.33385-0.4928-0.60838-0.64398-0.95386
	c-0.32538-0.74386-0.91364-1.03938-1.65948-1.04816c-0.38239-0.00457-0.79065,0.0624-1.14484,0.20338
	c-0.93323,0.37146-1.86102,0.76575-2.75824,1.2163c-1.19641,0.60107-2.35986,1.26727-3.54108,1.89894
	c-0.68658,0.36712-1.41272,0.67123-2.06329,1.09269c-1.14471,0.74149-2.25299,1.53133-3.44366,2.21003
	c-0.96075,0.54749-1.80743,1.29465-2.70648,1.95107c-0.65356,0.47713-1.31482,0.94373-1.96356,1.42731
	c-0.87067,0.64911-1.72388,1.32198-2.60126,1.96167c-0.63025,0.45953-1.28925,0.87935-1.93195,1.32191
	c-0.11053,0.07615-0.20929,0.17184-0.30414,0.26783c-0.56592,0.57279-1.09357,1.18949-1.70001,1.71549
	c-2.02155,1.75354-4.08716,3.45647-6.10449,5.21476c-1.45203,1.26546-2.85437,2.58797-4.27844,3.88565
	c-0.76245,0.69476-1.58405,1.3364-2.27148,2.09895c-1.02289,1.13465-1.94775,2.35754-2.9201,3.53814
	c-0.47791,0.5802-0.9538,1.16303-1.45758,1.72048c-0.61627,0.68192-1.27173,1.32848-1.88818,2.01023
	c-0.29663,0.32803-0.53339,0.70926-0.8139,1.05269c-0.42108,0.51566-0.93109,0.97484-1.26886,1.53849
	c-0.50354,0.84029-1.31073,1.33885-1.98224,1.98895c-0.01758,0.0172-0.0968-0.02927-0.20227-0.06412
	c0.02106-0.14423,0.01294-0.31306,0.07117-0.45477c0.72968-1.78079,1.44183-3.56947,2.2132-5.33215
	c0.80518-1.83977,1.6687-3.65405,2.50891-5.47839c0.24316-0.52817,0.40485-1.12533,0.7605-1.56374
	c0.68604-0.8454,1.10199-1.79697,1.4494-2.805c0.2818-0.81763,0.55847-1.64408,0.93054-2.42197
	c0.81793-1.71022,1.71228-3.38384,2.54291-5.0882c0.79413-1.6293,1.51306-3.29649,2.54938-4.79671
	c0.07684-0.11121,0.10779-0.25339,0.16394-0.37946c0.22461-0.50523,0.43011-1.02029,0.68262-1.51124
	c0.19049-0.37012,0.49023-0.68749,0.65692-1.06561c0.63-1.43,1.21991-2.87761,1.83722-4.31323
	c0.1889-0.4394,0.23376-0.87152-0.00696-1.28952c-0.44531-0.77279-0.85803-1.57331-1.38568-2.28749
	c-0.6427-0.8698-1.13232-0.90476-2.08313-0.35257c-0.43396,0.25204-0.87744,0.48795-1.32025,0.72453
	c-1.57257,0.84011-3.14099,1.68873-4.72266,2.51185c-1.1214,0.58358-1.89886,1.40871-2.24054,2.66668
	c-0.31317,1.15269-0.9953,2.07571-1.91223,2.87625c-0.57483,0.50211-1.04285,1.17629-1.40942,1.85394
	c-0.40295,0.74501-0.89856,1.40234-1.39984,2.07336c-0.52936,0.70846-1.08197,1.41335-1.31915,2.30572
	c-0.33221,1.24918-0.92975,2.37809-1.60913,3.47639c-0.3017,0.4875-0.49567,1.06136-0.64111,1.62135
	c-0.28339,1.09134-0.56702,2.19855-1.38959,3.00227c-1.56714,1.53111-2.62921,3.37931-3.427,5.37289
	c-0.49408,1.23511-1.32111,2.24882-1.94501,3.39354c-0.75714,1.38927-1.64508,2.70721-2.47729,4.05542
	c-0.13092,0.21218-0.245,0.43985-0.40399,0.62912c-0.75146,0.89456-1.51721,1.77721-2.27402,2.66746
	c-0.08963,0.10534-0.17218,0.22308-0.2294,0.34823c-0.5589,1.22333-1.25351,2.35803-2.08408,3.42033
	c-0.66833,0.85481-1.26245,1.76794-1.88614,2.65747c-0.2059,0.29394-0.36301,0.63255-0.60867,0.88644
	c-1.04852,1.08322-1.98294,2.24124-2.7731,3.5357c-0.38031,0.62279-1.01312,1.09156-1.53238,1.62942
	c-0.20013,0.20735-0.44824,0.38769-0.66788,0.58743c-0.10391,0.1157-0.21332,0.22367-0.30658,0.34543
	c-0.35123,0.45929-0.60861,1.00182-1.00565,1.41257c-1.25711,1.30036-2.54498,2.57213-3.85217,3.82236
	c-0.7254,0.69414-1.54684,1.28867-2.26556,1.98906c-1.48178,1.44399-3.28131,2.32071-5.0896,3.31367
	c-4.99417,2.7424-9.15454,2.89527-10.4664,2.57885c-0.27109-0.06545-0.53741-0.18275-0.81085-0.20064
	c-0.74527-0.0489-1.24924-0.44861-1.62115-1.04787c-0.4407-0.71009-0.87698-1.42381-1.2861-2.15233
	c-0.27197-0.48415-0.5621-0.97541-0.72433-1.50046c-0.61731-1.99955-1.19745-4.00043-1.38516-6.11176
	c-0.20926-2.35389-0.35425-4.67228,0.5274-6.93408c0.0733-0.18783-0.02563-0.4366-0.01218-0.65511
	c0.04086-0.6627,0.01584-1.34322,0.16443-1.9826c0.35309-1.5199,0.78723-3.02116,1.19592-4.52801
	c0.31296-1.15345,0.60043-2.31591,0.97195-3.45045c0.17917-0.54695,0.51678-1.04403,0.79898-1.55466
	c0.53955-0.97593,1.16711-1.9109,1.62115-2.92439c0.99652-2.22456,2.24808-4.2907,3.67764-6.25301
	c1.11566-1.53156,2.33154-2.99376,3.38629-4.56512c0.71497-1.06548,1.41034-2.10341,2.34366-3.01247
	c0.94876-0.92411,1.68826-2.05951,2.55762-3.06963c0.52417-0.6089,1.09055-1.19015,1.69522-1.71827
	c0.43381-0.37878,0.96909-0.63922,1.44714-0.96987c1.16187-0.8035,2.49728-1.17993,3.8259-1.57433
	c0.07748-0.02297,0.16708-0.00285,0.25067-0.00804c0.41614-0.02556,0.83389-0.03808,1.24814-0.08266
	c0.78775-0.08466,1.44992,0.17877,1.91528,0.79359c0.54974,0.72596,0.84692,1.59047,0.91922,2.48791
	c0.20419,2.53265-0.10751,5.03396-0.82559,7.45312c-0.418,1.40827-1.00613,2.79877-1.73309,4.07455
	c-0.90524,1.58896-1.84897,3.17139-3.18103,4.48763c-1.22421,1.20956-2.32986,2.53834-3.50897,3.79474
	c-0.20041,0.21367-0.49088,0.36967-0.76859,0.47906c-0.88196,0.3475-1.79141,0.62763-2.66415,0.99554
	c-0.90369,0.38113-1.81851,0.67444-2.77908,0.89941c-1.12994,0.26463-2.42346,0.32717-3.10025,1.55656
	c-0.05923,0.10749-0.21774,0.18146-0.34576,0.22617c-0.83713,0.29253-1.20416,1.30063-2.16461,1.41473
	c-0.10556,0.01244-0.19672,0.18581-0.28531,0.29218c-0.24872,0.29812-0.50363,0.59193-0.73538,0.90289
	c-0.26617,0.3574-0.54877,0.71091-0.75562,1.10249c-0.43289,0.81985,0.21661,1.79346,1.1395,1.7236
	c0.38828-0.02936,0.78973-0.07,1.15387-0.19628c2.18842-0.75861,4.36896-1.5403,6.54935-2.32163
	c0.86636-0.31034,1.72958-0.62988,2.58759-0.96233c1.63535-0.63339,3.28058-1.24433,4.89227-1.93336
	c0.89005-0.38051,1.78259-0.81412,2.56299-1.37777c1.12305-0.81104,2.18851-1.71619,3.19507-2.66944
	c0.69498-0.6583,1.6087-1.13092,1.97784-2.10883c0.05301-0.14004,0.23648-0.23067,0.35931-0.34439
	c0.44907-0.41508,0.93216-0.79955,1.33841-1.25304c0.55783-0.62266,1.0538-1.30064,1.58295-1.94936
	c0.61688-0.75652,1.27805-1.48019,1.85132-2.2681c0.55707-0.76535,1.07901-1.5666,1.52011-2.40273
	c0.4144-0.78556,0.68823-1.644,1.0527-2.45741c0.21536-0.48023,0.55402-0.91288,0.71841-1.40654
	c0.32495-0.97739,0.59033-1.97659,0.83606-2.97768c0.15909-0.64843,0.20462-1.32465,0.36197-1.97366
	c0.43146-1.7798,0.30435-3.56389-0.05124-5.31716c-0.15134-0.74575-1.73492-4.79344-2.88016-5.64534
	c-0.55502-0.41288-1.92892-1.11333-2.60852-1.18818c-1.43539-0.15815-1.91718-0.11698-3.34116,0.12242
	c-2.14255,0.3602-4.35043,1.34019-5.45898,1.78379c-0.85144,0.34069-1.76581,0.56128-2.55875,1.00298
	c-1.46152,0.8138-2.87021,1.72628-4.27118,2.64304c-1.49265,0.97681-2.96472,1.98665-4.4194,3.01931
	c-1.02319,0.72636-1.98422,1.54031-3.00568,2.26921c-1.25165,0.89314-2.46036,1.83501-3.44409,3.02065
	c-1.01599,1.2243-1.96481,2.50397-2.96399,3.74255c-0.89301,1.10683-1.82742,2.18052-2.35648,3.53069
	c-0.06927,0.17645-0.22073,0.32018-0.33249,0.48031c-1.05115,1.5075-2.14105,2.99004-3.13989,4.53143
	c-0.73895,1.14026-1.32281,2.38017-2.04239,3.53394c-0.78546,1.25925-1.38437,2.60307-2.03223,3.93088
	c-0.73169,1.49908-1.57941,2.96059-2.53781,4.32516c-1.22864,1.74906-2.57309,3.4026-3.64694,5.2741
	c-1.43268,2.49702-3.21802,4.75471-5.39816,6.67064c-0.86197,0.75751-10.73648,7.88361-11.03796,8.05003
	c-1.04791,0.57831-2.1225,1.10903-3.19485,1.64204c-0.47366,0.23555-0.96869,0.42807-1.44949,0.64985
	c-0.41803,0.19277-8.8989,1.93192-10.9184,1.73168c-0.72241-0.07163-2.54886-1.00066-3.07956-1.88628
	c-0.38449-0.64158-0.6246-1.36896-1.00354-2.0146c-0.92151-1.57016-1.34259-3.31719-1.73389-5.05209
	c-0.58887-2.61-0.62201-5.2709-0.25958-7.92103c0.14685-1.0732,0.4632-2.12203,0.64865-3.19135
	c0.14905-0.86028,0.36151-1.68631,0.74084-2.47876c0.25137-0.52541,0.42322-1.09125,0.60403-1.64768
	c0.52655-1.62215,1.19073-3.1748,2.17767-4.57972c0.27005-0.3844,0.46582-0.82079,0.69913-1.23126
	c0.45355-0.79799,0.88254-1.61165,1.37262-2.38654c0.44592-0.70506,0.96164-1.36571,1.44238-2.04895
	c0.92804-1.31859,1.84714-2.64342,2.78104-3.95753c0.51672-0.72679,1.05682-1.43687,1.58542-2.15523
	c0.54428-0.7399,1.07208-1.49264,1.63544-2.21767c0.57922-0.74547,1.18561-1.47032,1.79388-2.19263
	c0.39282-0.46645,0.78632-0.93691,1.22247-1.36146c0.75851-0.73861,1.55112-1.44232,2.32788-2.16212
	c0.71509-0.66238,1.37979-1.39163,2.15613-1.9718c0.75595-0.56499,1.61246-1.00233,2.45114-1.44611
	c0.33484-0.17718,0.73874-0.30327,1.11353-0.30914c0.82486-0.01301,1.61176-0.16116,2.35922-0.48669
	c0.6413-0.27937,1.24628-0.20683,1.86551,0.04696c0.57248,0.2347,1.02109,0.66949,1.53415,0.96739
	c1.17978,0.68513,2.14828,1.57173,3.08908,2.5345c0.93301,0.95507,1.69839,2.07533,2.84354,2.82833
	c0.81314,0.53467,0.7854,0.56808,1.61594,0.06233c0.13794-0.08405,0.31079-0.11272,0.46948-0.1599
	c0.18597-0.05532,0.39532-0.06602,0.55792-0.15965c1.24585-0.71796,2.4754-1.46455,3.72488-2.17606
	c1.15839-0.65975,2.3353-1.28712,3.59058-1.9764c-0.0773-0.2556-0.09848-0.58077-0.25882-0.80737
	c-0.49802-0.70358-1.01797-1.39692-1.5867-2.04404c-0.92099-1.04803-1.88483-2.05875-2.836-3.08016
	c-0.51266-0.55035-1.14981-1.02189-1.5293-1.65062c-0.59186-0.98055-1.54034-1.60146-2.22134-2.47813
	c-0.09656-0.12435-0.26636-0.20622-0.41794-0.27117c-1.49985-0.64334-3.0603-0.83712-4.66489-0.54689
	c-2.02185,0.36581-3.90524,1.17058-5.79108,1.94114c-2.62717,1.07333-4.92545,2.72767-7.25708,4.30426
	c-2.38037,1.60958-4.71567,3.28734-7.0401,4.97721c-0.96823,0.70407-1.90131,1.47069-2.77167,2.2922
	c-1.05215,0.99312-2.02853,2.06749-3.02304,3.12058c-0.61176,0.64783-1.21988,1.30212-1.78592,1.98953
	c-0.54929,0.66714-0.95737,1.47227-1.58093,2.05158c-0.90588,0.84167-1.5029,1.88659-2.09375,2.91251
	c-1.32901,2.30794-3.04053,4.34084-4.50623,6.54717c-0.52206,0.78573-1.07861,1.55329-1.53931,2.37403
	c-0.50159,0.89395-0.89551,1.84791-1.36795,2.75938c-0.16458,0.31751-0.41864,0.59007-0.63998,0.87687
	c-0.86542,1.1212-1.7439,2.2327-2.59814,3.36251c-0.48685,0.64394-0.85901,1.39204-1.41745,1.96102
	c-1.40594,1.4323-3.03729,2.63406-4.33203,4.18547c-0.05173,0.06203-0.13751,0.09463-0.20282,0.14677
	c-0.9563,0.76569-1.9133,1.53095-2.86633,2.3008c-0.10669,0.08619-0.18475,0.20646-0.28592,0.30029
	c-0.55121,0.51131-1.09277,1.03432-1.66553,1.52055c-0.21414,0.18195-0.47504,0.36887-0.84567,0.29524
	c0.02405-0.15202,0.03226-0.25962,0.05859-0.36259c0.43967-1.73054,0.89526-3.45718,1.31955-5.19152
	c0.46579-1.90382,0.76822-3.83017,0.79379-5.79879c0.02191-1.69574,0.04364-3.39507,0.17111-5.08489
	c0.12128-1.60674-0.06784-3.18509-0.36127-4.73777c-0.35663-1.88793-0.90536-3.73936-1.36395-5.60839
	c-0.21289-0.86808-0.42508-1.73693-0.60934-2.61137c-0.51199-2.42985-1.07156-4.85215-1.48914-7.29845
	c-0.26221-1.53603-0.46176-3.11608-0.40369-4.66557c0.08514-2.2701,0.13123-4.56013,1.02939-6.74363
	c0.35321-0.85864,0.81467-1.38879,1.61478-1.76842c0.74908-0.35542,1.44696-0.81839,2.16827-1.23264
	c0.30347-0.1742,0.36154-0.45101,0.19986-0.71593c-0.2601-0.42561-0.49762-1.0413-0.88495-1.17718
	c-0.89539-0.31416-1.5564-0.93196-2.32217-1.41068c-0.11594-0.07248-0.25806-0.10661-0.39169-0.1466
	c-0.42807-0.12839-0.87964-0.20334-1.2829-0.38586c-0.91135-0.4127-1.74234-0.20625-2.5661,0.22571
	c-0.19788,0.10381-0.40765,0.18842-0.59534,0.30811c-0.91541,0.58426-1.84891,1.14434-2.73221,1.77443
	c-1.74573,1.24517-3.45505,2.54109-5.19385,3.79619c-1.15668,0.83495-2.27841,1.70487-3.28271,2.72416
	c-0.38947,0.39532-0.8457,0.72411-1.25803,1.09811c-0.93008,0.84417-1.82239,1.71859-2.50708,2.79049
	c-0.37363,0.58484-0.76797,1.18359-1.2666,1.65599c-1.03314,0.97881-1.81894,2.12933-2.42178,3.38672
	c-0.4299,0.8968-1.03101,1.57502-1.82687,2.12206c-0.18301,0.12579-0.4082,0.22726-0.52991,0.39942
	c-0.70779,1.00141-1.45465,1.98402-2.05853,3.04674c-0.383,0.67384-0.81104,1.307-1.40759,1.74228
	c-0.96616,0.70483-1.55096,1.69768-2.09476,2.67406c-0.6582,1.18229-1.51065,2.17665-2.38934,3.17191
	c-0.69821,0.7907-1.41391,1.56891-2.06793,2.39528c-0.94965,1.19979-1.8371,2.4485-2.77832,3.65514
	c-0.46063,0.59039-1.01746,1.10636-1.46848,1.703c-0.80646,1.06696-1.46982,2.22583-2.09442,3.40999
	c-0.25494,0.48345-0.62244,0.91463-0.97739,1.33699c-0.77042,0.91647-1.59653,1.78756-2.34048,2.72431
	c-0.53561,0.67437-0.95267,1.44168-1.46472,2.13652c-0.54398,0.7381-1.1355,1.44142-1.71036,2.15656
	c-0.45502,0.56619-0.90146,1.14026-1.37814,1.68777c-0.78537,0.90234-1.59344,1.78497-2.38968,2.67776
	c-0.46054,0.5164-0.90921,1.04362-1.37802,1.55224c-0.31766,0.34441-0.67126,0.6553-0.99081,0.99802
	c-0.5506,0.59085-1.04248,1.23978-1.63629,1.78677c-3.94519,3.63415-7.52539,6.34271-13.65964,6.7117
	c-1.41443,0.08508-2.81931-0.19312-4.20038-0.66945c-1.28577-0.44328-2.3721-1.09953-3.2861-2.06397
	c-1.10934-1.17046-1.86877-2.53212-2.41315-4.07027c-0.77118-2.17892-1.33612-4.3763-1.40155-6.69164
	c-0.04263-1.50961,0.0177-3.01131,0.33386-4.49405c0.2905-1.36211,0.64117-2.71463,0.85904-4.0882
	c0.29526-1.86194,0.93036-3.61578,1.57541-5.36535c0.48193-1.30687,1.06812-2.57599,1.62781-3.85326
	c0.36935-0.84306,0.78275-1.66668,1.16119-2.50589c0.59753-1.32468,1.51337-2.45968,2.17496-3.75832
	c0.76645-1.50448,1.82971-2.86152,2.80258-4.25565c0.78094-1.11917,1.62128-2.19691,2.4295-3.29726
	c0.09827-0.13383,0.14127-0.30904,0.24301-0.43923c0.90826-1.16191,1.7081-2.44083,2.76974-3.44137
	c1.06198-1.00088,2.0238-2.12685,3.29736-2.92253c0.97952-0.61199,1.84973-1.41037,2.72305-2.17754
	c0.61975-0.54428,1.38852-0.54746,2.10883-0.72231c1.08234-0.26272,1.96289,0.11967,2.41092,1.1524
	c0.50958,1.17451,0.91986,2.397,0.93585,3.70634c0.0072,0.58695,0.04993,1.1778-0.00009,1.76035
	c-0.08817,1.02638-0.17984,2.05851-0.37482,3.06807c-0.15726,0.8151-0.44971,1.60703-0.71588,2.39774
	c-0.41794,1.24091-0.84256,2.48032-1.30655,3.70444c-0.29761,0.78566-0.91684,1.39805-1.31317,2.11263
	c-0.6304,1.13684-1.37421,2.16055-2.21277,3.13825c-0.52448,0.61147-0.96527,1.29549-1.49628,1.9007
	c-0.93246,1.0631-2.11557,1.81342-3.33624,2.49713c-0.43488,0.2436-0.90515,0.43576-1.37772,0.59722
	c-0.62509,0.21369-1.4043,0.01852-1.84506,0.72509c-0.04028,0.06458-0.21429,0.03558-0.31848,0.07182
	c-0.73587,0.25562-1.50607,0.44316-1.91736,1.23083c-0.08762,0.16788-0.34357,0.28597-0.5462,0.34894
	c-0.88013,0.2735-1.64026,0.70214-2.14874,1.50227c-0.04315,0.06793-0.11719,0.117-0.17957,0.17177
	c-0.49872,0.43801-1.00397,0.8689-1.49564,1.31463c-0.53909,0.48859-0.54819,1.15027-0.48154,1.78899
	c0.06964,0.66771,0.57175,0.96176,1.23199,0.79157c0.43097-0.11111,0.84888-0.27734,1.28308-0.36987
	c1.37924-0.29349,2.63846-0.87483,3.87387-1.53117c0.33774-0.17943,0.72955-0.25413,1.08929-0.39591
	c0.84875-0.33461,1.75626-0.57879,2.5191-1.05396c0.61435-0.3826,1.1712-0.83115,1.88568-1.03061
	c0.51025-0.14238,1.0527-0.25114,1.50266-0.51038c1.01135-0.58254,1.96957-1.25668,2.95892-1.87864
	c0.44568-0.28022,0.91159-0.5291,1.3725-0.78442c0.94016-0.52054,1.91315-0.98782,2.62708-1.83855
	c0.17487-0.20834,0.43839-0.34016,0.65033-0.52003c0.50916-0.43221,1.0752-0.81775,1.50531-1.31905
	c1.36169-1.5871,2.73672-3.17039,3.98215-4.84755c1.09512-1.47464,2.10718-3.0268,2.99554-4.63355
	c0.61542-1.11299,2.64615-5.46293,3.02902-6.68269c1.07431-3.42275,0.64487-8.98129-1.01733-11.85481
	c-0.38214-0.66061-0.95374-1.15555-1.7088-1.4261c-0.7049-0.2526-1.37531-0.56803-1.99326-1.0276
	c-0.38309-0.28501-0.91885-0.39147-1.40317-0.50568c-0.45917-0.10835-0.93924-0.14142-1.41266-0.17429
	c-1.26227-0.08774-2.5314-0.05006-3.73972,0.32145c-2.01523,0.61958-3.82632,1.69355-5.58472,2.82446
	c-1.21597,0.782-2.34857,1.70074-3.47769,2.60886c-1.29858,1.04414-2.79294,1.80393-4.06094,2.89375
	c-0.99231,0.85277-2.06146,1.61568-3.0791,2.4398c-0.65045,0.52669-1.22165,1.16456-1.91342,1.62424
	c-1.19846,0.79653-2.21957,1.78148-3.202,2.80691c-1.93488,2.01939-3.44565,4.37766-5.14896,6.58195
	c-1.26114,1.63205-2.07889,3.55948-3.40738,5.15691c-1.15317,1.3866-1.7095,3.12624-2.61053,4.66669
	c-0.83014,1.4192-1.54193,2.90832-2.28372,4.37786c-0.18219,0.36108-0.43579,0.45475-0.74139,0.27154
	c-0.8114-0.48646-1.68585-0.91685-2.3746-1.54553c-0.75494-0.68925-1.36078-1.55815-1.74573-2.53531
	c-0.33722-0.85574-0.61627-1.73516-0.97049-2.58343c-0.38956-0.93249-0.70538-1.86572-0.69272-2.89799
	c0.00397-0.31837-0.18018-0.63833-0.27301-0.95901c-0.17776-0.61394-0.45087-1.21961-0.50888-1.84508
	c-0.16705-1.80563-0.23535-3.62022-0.36502-5.42955c-0.08923-1.24689,0.29587-2.34611,0.84464-3.44868
	c0.6825-1.37076,1.31592-2.77749,1.82547-4.21994c0.7785-2.2039,1.26953-4.50111,2.15494-6.67776
	c0.32031-0.78771,0.33856-1.69304,0.5972-2.51227c0.4281-1.3562,0.15463-2.39611-1.11737-3.13326
	c-0.57617-0.33384-1.09442-0.76757-1.67108-1.1003c-0.4249-0.24534-0.8761-0.16667-1.2366,0.1803
	c-0.35947,0.3461-0.68314,0.72913-1.04089,1.07727c-0.87421,0.85081-1.72568,1.72943-2.64828,2.52473
	c-1.03638,0.89315-2.1431,1.70022-2.63519,3.06025c-0.14081,0.38884-0.37494,0.74274-0.53458,1.12601
	c-0.28845,0.69273-0.53186,1.4049-0.83368,2.09159c-0.32547,0.74047-0.71997,1.4506-1.04114,2.19283
	c-0.37616,0.86932-0.83038,1.73192-1.02817,2.64558c-0.37726,1.7437-0.57535,3.52541-0.89429,5.28281
	c-0.10355,0.57008-0.31128,1.13159-0.54227,1.66631c-0.63916,1.47949-1.31805,2.94171-1.97672,4.41265
	c-0.54681,1.22076-1.09567,2.44051-1.62793,3.66755c-0.47357,1.09139-1.18292,2.06875-1.51187,3.2329
	c-0.14313,0.50613-0.38013,0.99114-0.6174,1.46413c-0.62195,1.23995-1.28653,2.45874-1.89853,3.70348
	c-0.63803,1.29752-1.20425,2.631-1.85684,3.92079c-0.91849,1.81489-1.87451,3.61112-2.8396,5.40189
	c-0.71329,1.32338-1.45862,2.62968-2.2041,3.93531c-0.67767,1.18688-1.3512,2.37732-2.07172,3.53818
	c-0.51306,0.82661-1.02283,1.67899-1.67746,2.38741c-0.67834,0.73439-1.23459,1.56016-1.90594,2.28954
	c-0.80185,0.87106-1.58972,1.78222-2.51929,2.50058c-0.87167,0.67387-1.9007,1.15832-2.89688,1.65301
	c-0.90131,0.44759-1.23544,0.23901-1.45645-0.76974c-0.09528-0.43417-0.09476-0.91194-0.28339-1.29903
	c-0.63174-1.29764-0.98849-2.65984-1.15167-4.08434c-0.02182-0.19117-0.08224-0.38528-0.1618-0.56123
	c-0.51633-1.13981-0.72549-2.33932-0.75787-3.58323c-0.013-0.50071-0.03329-1.01826-0.16663-1.49582
	c-0.58554-2.09983-0.57016-4.2604-0.67776-6.40514c-0.08246-1.64346-0.04465-3.29263-0.0853-4.93864
	c-0.0293-1.17771-0.0112-2.34666,0.26489-3.50102c0.0509-0.21249,0.03217-0.4449,0.02475-0.66743
	c-0.05042-1.54052,0.00153-3.06845,0.41827-4.56889c0.15652-0.56316,0.31528-1.14459,0.33649-1.72272
	c0.0574-1.56783,0.56097-3.00921,1.10486-4.44979c0.16687-0.44213,0.32779-0.90034,0.39273-1.36488
	c0.34842-2.49879,1.42316-4.75854,2.40857-7.02483c0.7663-1.76196,1.55869-3.50868,2.24207-5.30695
	c0.37439-0.98555,0.88181-1.92146,1.34454-2.87219c0.34048-0.69911,0.8252-1.35294,1.02866-2.08707
	c0.23383-0.84378,0.60754-1.6111,0.94989-2.39898c0.17804-0.40979,0.12036-0.72929-0.15158-1.08065
	c-0.5329-0.68863-1.24966-1.10184-2.01309-1.46108c-0.759-0.35723-1.10468-0.29587-1.74078,0.27338
	c-1.09848,0.98291-2.17749,1.99024-3.31458,2.92669c-1.05905,0.87207-2.03418,1.8045-2.76422,2.97405
	c-0.20615,0.32986-0.42892,0.65073-0.61365,0.99221c-0.54102,1.00018-1.10742,1.98989-1.58301,3.02087
	c-0.27722,0.60107-0.36346,1.28767-0.60519,1.90851c-0.14523,0.37266-0.37253,0.74545-0.65469,1.02574
	c-0.54297,0.53941-1.013,1.10897-1.29871,1.82686c-0.16501,0.41446-0.31586,0.85143-0.56836,1.21136
	c-1.16653,1.66254-1.91742,3.51775-2.60931,5.40697c-0.18112,0.49456-0.4151,0.97282-0.65891,1.44081
	c-0.5399,1.03687-1.15862,2.03655-1.64061,3.09882c-0.6907,1.52257-1.3038,3.08139-1.91998,4.63657
	c-0.46123,1.16383-0.87109,2.34784-1.31177,3.51987c-0.14729,0.39154-0.317,0.77454-0.48038,1.15981
	c-0.56622,1.33459-1.0036,2.72884-1.83502,3.94025c-0.71483,1.04149-1.30141,2.15306-1.67627,3.35898
	c-0.27133,0.87318-0.76869,1.59001-1.29478,2.32055c-0.81042,1.12554-1.71019,2.19965-2.11229,3.58782
	c-0.13974,0.48228-0.54387,0.90095-0.87244,1.31261c-0.6754,0.84583-1.43681,1.62994-1.8642,2.64732
	c-0.8578,2.04202-2.23499,3.72057-3.70673,5.33551c-0.43169,0.47367-0.81348,0.99857-1.28012,1.43352
	c-0.85434,0.79604-1.75499,1.54242-2.636,2.3099c-0.67471,0.58765-2.5466,1.30241-4.70036,0.36446
	c-3.22592-1.40487-4.74608-4.12292-4.82593-4.33472c-0.40324-1.06833-0.93292-2.1284-1.09686-3.23891
	c-0.29234-1.98113-0.36086-3.99586-0.50401-5.9978c-0.01727-0.24148,0.1011-0.48966,0.12645-0.73771
	c0.06148-0.60226,0.10672-1.20618,0.15451-1.80978c0.01086-0.13809-0.01845-0.28278,0.01088-0.41563
	c0.19843-0.89787,0.35936-1.80774,0.62296-2.68666c0.64294-2.14385,1.54239-4.18646,2.52214-6.19727
	c0.37575-0.77126,0.67419-1.58218,0.97661-2.38683c0.45155-1.2008,0.83238-2.4298,1.32092-3.61485
	c0.81796-1.98444,1.7267-3.93154,2.53987-5.91774c0.51376-1.25471,1.35997-2.36732,1.58873-3.74456
	c0.0303-0.18271,0.18095-0.34333,0.26457-0.51946c0.53743-1.13141,1.12257-2.23179,1.49138-3.44833
	c0.58241-1.92113,1.25427-3.81821,1.96931-5.69473c0.67241-1.76456,1.06036-3.58157,1.246-5.44809
	c0.02579-0.25803-0.08723-0.54185-0.18245-0.79629c-0.08719-0.23248-0.23921-0.44054-0.35959-0.66098
	c-0.77698-1.42426-1.6796-2.76353-3.00191-3.73029c-0.83611-0.61121-1.80544-1.08225-2.84731-1.14408
	c-2.0047-0.11892-4.01628-0.1165-6.02487-0.16872c-0.50279-0.0131-1.00693-0.02345-1.50742-0.06788
	c-2.09569-0.18622-4.18663-0.11788-6.27412,0.10584c-0.21199,0.02275-0.45529,0.10072-0.61127,0.23655
	c-0.52094,0.45372-0.98486,0.9739-1.51443,1.41634c-0.9196,0.76813-1.85555,1.51863-2.8141,2.23748
	c-1.26228,0.94665-2.38159,1.97291-2.97556,3.51067c-0.64249,1.66327-1.40961,3.27844-2.12965,4.91134
	c-0.11185,0.25368-0.22719,0.51917-0.40082,0.7298c-0.99988,1.21418-1.82811,2.52626-2.39288,4.0003
	c-0.0786,0.20511-0.2039,0.39711-0.33203,0.57786c-0.79004,1.11301-1.57906,2.2267-2.38591,3.32755
	c-0.27711,0.37814-0.64726,0.69181-0.90106,1.08282c-1.12044,1.72627-2.20706,3.4743-3.32251,5.20386
	c-0.22511,0.34923-0.52779,0.64768-0.78412,0.97769c-0.47667,0.61374-0.89349,1.28342-1.4283,1.84052
	c-1.18578,1.23494-2.19308,2.58667-3.06067,4.0619c-0.4763,0.8096-1.05923,1.56355-1.65309,2.29453
	c-0.40048,0.49305-0.965,0.8558-1.34883,1.3587c-0.82916,1.08661-1.58913,2.22609-2.3781,3.34344
	c-0.09639,0.1368-0.19087,0.27581-0.29704,0.40484c-0.72192,0.87709-1.45485,1.74531-2.16885,2.62891
	c-1.24413,1.53991-2.41949,3.13946-3.72791,4.6221c-1.9704,2.23269-3.81932,4.58698-6.27664,6.35326
	c-1.69659,1.21944-3.31535,2.54698-4.97276,3.82116c-0.46199,0.3551-0.94794,0.67959-1.40511,1.0408
	c-0.89259,0.70553-1.66864,1.5594-2.7444,2.02809c-0.71529,0.31161-1.39442,0.70548-2.09633,1.04883
	c-0.57642,0.28202-1.15976,0.55112-1.74608,0.81239c-0.43799,0.19524-4.12633,0.85854-5.83621,0.42689
	c-2.02626-0.51151-3.4901-2.78774-3.83075-3.25684c-0.21191-0.2914-0.44046-0.59215-0.55916-0.92517
	c-0.28035-0.78672-0.47032-1.60574-0.74896-2.39307c-0.75494-2.13271-0.94427-4.3625-1.06616-6.58693
	c-0.08356-1.52405,0.03502-3.06258,0.12024-4.59145c0.05128-0.91762,0.1729-1.8363,0.33507-2.74157
	c0.17101-0.95398,0.42816-1.8926,0.64787-2.83801c0.07578-0.32619,0.12672-0.66064,0.23106-0.9775
	c0.71494-2.17181,1.43192-4.34305,2.16687-6.50829c0.45638-1.34507,0.88849-2.69388,1.67139-3.91215
	c0.66148-1.02956,1.16119-2.16195,1.79813-3.20889c1.31601-2.16342,3.01305-4.0611,4.3683-6.20282
	c0.6826-1.07879,1.48097-2.08843,2.27461-3.09163c0.44447-0.56219,0.96965-1.06476,1.48819-1.56326
	c0.76384-0.7343,1.62003-1.38304,2.31668-2.17406c0.85907-0.97513,1.7592-1.85184,2.97113-2.3676
	c1.50555-0.6409,2.76886-1.6747,4.12329-2.56105c0.53696-0.35135,1.08459-0.68819,1.64247-1.00488
	c0.4894-0.27783,0.95296-0.23917,1.37463,0.17826c1.01141,1.00147,1.84256,2.08784,1.83887,3.60651
	c-0.00035,0.19408,0.05188,0.38775,0.06827,0.58255c0.19089,2.2739,0.15628,4.52542-0.65813,6.70144
	c-0.18571,0.49613-0.37143,0.99346-0.52548,1.49976c-0.70442,2.31384-1.82376,4.43584-3.04065,6.50623
	c-0.46419,0.78979-0.99579,1.55741-1.60197,2.24207c-0.9222,1.04185-1.9613,1.97983-2.90154,3.00689
	c-0.54848,0.59928-1.17586,0.91328-1.97606,0.93369c-0.21657,0.00564-0.4456,0.03168-0.64539,0.10922
	c-1.3576,0.52699-2.37415,1.72723-3.87976,1.97195c-0.09717,0.01579-0.17339,0.13537-0.26871,0.1904
	c-0.75204,0.4337-1.34589,1.06074-2.00813,1.60527c-0.69939,0.57496-1.0955,1.33775-1.50482,2.09246
	c-0.26819,0.49431-0.01534,0.86766,0.55334,0.94638c0.1895,0.02624,0.40038,0.03396,0.57916-0.02157
	c0.73354-0.22787,1.55899,0.02898,2.24765-0.43357c0.05841-0.03929,0.1647-0.00267,0.24776-0.01118
	c0.41411-0.04262,0.83582-0.05218,1.24033-0.1403c1.08698-0.23681,2.17126-0.49023,3.24712-0.7727
	c0.50455-0.13235,0.98691-0.34834,1.48055-0.5231c0.2337-0.08276,0.47003-0.15802,0.70547-0.23592
	c0.9183-0.30392,1.86777-0.51054,2.65059-1.15546c0.70802-0.58321,1.46706-1.10676,2.22458-1.62601
	c0.31865-0.21836,0.71848-0.31924,1.03421-0.54099c0.91393-0.64194,1.84917-1.26571,2.69295-1.99287
	c1.3736-1.18351,2.72868-2.39684,4.00157-3.6864c0.99469-1.00769,1.9101-2.10991,2.58972-3.37064
	c0.6877-1.27581,1.34523-2.56794,2.01083-3.85552c0.69299-1.34003,1.35736-2.69486,1.76831-4.15266
	c0.30235-1.07254,0.64259-2.1441,0.81966-3.23981c0.27223-1.68543,0.26001-3.38432,0.06795-5.09381
	c-0.16083-1.42896-0.67421-2.6957-1.37599-3.9135c-0.2229-0.38673-0.45872-0.76671-0.70729-1.13736
	c-0.46515-0.69386-0.86055-1.45876-1.43245-2.05183c-1.64082-1.70214-3.83122-2.0583-6.05362-2.27253
	c-0.16228-0.0157-0.33438,0.02244-0.49658,0.05923c-0.65311,0.14777-1.31946,0.25836-1.95261,0.46785
	c-1.506,0.49812-3.01385,0.99941-4.48674,1.58526c-1.29149,0.51366-2.54117,1.13445-3.80046,1.72655
	c-0.78056,0.36701-1.57733,0.71615-2.30876,1.16752c-1.09001,0.67261-2.13039,1.42599-3.18877,2.14989
	c-0.55142,0.3774-1.08487,0.78241-1.6458,1.14495c-1.53827,0.99432-2.75775,2.34816-4.08192,3.58411
	c-0.71335,0.66588-1.45576,1.30492-2.12405,2.01363c-0.93506,0.99134-1.80823,2.04066-2.71732,3.05681
	c-0.53754,0.6009-1.15836,1.13819-1.62862,1.78619c-1.65392,2.27892-3.2795,4.57913-4.87418,6.89974
	c-0.90097,1.31104-1.79755,2.63586-2.55875,4.02943c-1.14835,2.10202-2.17876,4.26848-3.25374,6.41028
	c-0.21393,0.42654-0.38994,0.85458-0.93973,0.98532c-0.18588,0.04423-0.33818,0.27629-0.48177,0.44334
	c-0.30885,0.35953-0.61699,0.72153-0.89801,1.10277c-0.39584,0.53705-0.79529,1.07516-1.14018,1.64492
	c-0.32788,0.54164-0.54497,1.15187-0.88554,1.68422c-0.88284,1.38011-1.59741,2.86284-2.67387,4.12695
	c-1.24643,1.46364-2.40109,3.00507-3.61487,4.49703c-0.38678,0.47528-0.88812,0.86201-1.2442,1.35617
	c-0.67992,0.94332-1.54119,1.68223-2.43816,2.39718c-0.67307,0.53643-1.35212,1.07069-1.97783,1.65974
	c-0.89053,0.83831-1.68531,1.78306-2.89003,2.21845c-0.21769,0.0787-0.37555,0.31986-0.56477,0.4818
	c-1.00828,0.8634-1.84692,1.93958-3.15881,2.42004c-0.46532,0.17027-0.95299,0.38706-1.31485,0.71159
	c-1.16643,1.04601-2.60236,1.49108-4.04131,1.94199c-0.58539,0.18334-1.19061,0.19043-1.79731,0.13898
	c-0.19681-0.64724,0.1372-1.12714,0.36076-1.62869c0.31631-0.71027,0.69374-1.39781,0.95306-2.12769
	c0.2877-0.80991,0.4323-1.67014,0.71075-2.48389c0.37872-1.10711,0.80347-2.20008,1.24878-3.28246
	c0.52871-1.28514,1.1581-2.53121,1.6406-3.83263c0.902-2.43198,1.72507-4.89329,2.58975-7.33939
	c0.5386-1.52393,1.08457-3.04552,1.6444-4.56194c0.27941-0.75684,0.59734-1.4993,0.89799-2.24828
	c0.26968-0.67175,0.53609-1.34476,0.81022-2.01476c0.24097-0.58857,0.51636-1.16428,0.73114-1.76203
	c0.64868-1.8078,1.25507-3.63114,1.91676-5.4341c0.61374-1.672,1.27797-3.32545,1.91927-4.98726
	c0.78214-2.02623,1.56428-4.05247,2.34368-6.07962c0.02977-0.07687,0.03694-0.1633,0.0484-0.246
	c0.20625-1.48332,0.75288-2.83312,1.41753-4.17677c0.99913-2.01967,1.98434-4.05289,2.73592-6.1888
	c0.34157-0.97009,0.80122-1.89905,1.2159-2.84284c0.55952-1.2736,1.14629-2.53564,1.68594-3.81771
	c0.44266-1.0512,0.82161-2.12905,1.25108-3.18595c0.34474-0.8485,0.74394-1.6749,1.08202-2.52592
	c0.71011-1.78729,1.39352-3.58522,2.09354-5.37653c0.20277-0.51889,0.4184-1.033,0.63983-1.54427
	c0.63063-1.45646,1.46701-2.81939,1.90643-4.36541c0.17371-0.61117,0.42288-1.24239,0.79613-1.74743
	c0.9449-1.2787,1.30562-2.82716,2.06075-4.19022c0.44379-0.80115,0.7739-1.66473,1.16916-2.49366
	c0.33548-0.70351,0.85478-1.36461,1.00308-2.10266c0.28873-1.43712,0.95868-2.6696,1.66595-3.90784
	c0.16382-0.28678,0.27992-0.60595,0.38223-0.92177c0.30809-0.95131,0.58008-1.91471,0.90186-2.86127
	c0.26924-0.79192,0.57457-1.5726,0.89157-2.34681c0.15373-0.37537,0.14026-0.74089-0.08279-1.03783
	c-0.33208-0.44246-0.70059-0.87233-1.12125-1.22754c-0.23404-0.1976-0.59959-0.25318-0.91534-0.33645
	c-0.34621-0.09131-0.72478-0.089-1.04999-0.2229c-0.32742-0.13482-0.55208-0.09506-0.84715,0.08547
	c-1.63466,0.99969-3.34256,1.86776-4.92712,2.96589c-0.9921,0.68728-1.68552,1.49851-2.15837,2.57317
	c-0.92207,2.09476-1.8719,4.17737-2.80904,6.26551c-0.26151,0.58242-0.51822,1.16685-0.77835,1.74986
	c-0.51155,1.14597-1.02037,2.29303-1.53757,3.43632c-0.17264,0.38149-0.38995,0.74363-0.54735,1.13072
	c-0.5363,1.31874-1.04059,2.65053-1.58578,3.96558c-0.34186,0.82501-0.75702,1.61971-1.10042,2.4443
	c-0.54642,1.31233-1.05482,2.64058-1.59114,3.95735c-0.23158,0.56844-0.58221,1.10394-0.72009,1.69161
	c-0.24208,1.03127-0.81294,1.88566-1.29619,2.79073c-0.7078,1.32513-1.48772,2.61678-2.11363,3.97932
	c-0.6984,1.51981-1.30039,3.07949-2.43277,4.35233c-0.07157,0.08036-0.09776,0.19971-0.15128,0.29743
	c-0.42673,0.77712-0.85415,1.55382-1.28225,2.33018c-0.51123,0.92714-1.02367,1.85378-1.53507,2.78075
	c-0.68221,1.23617-1.14059,2.588-2.11193,3.6753c-0.64598,0.72321-1.16282,1.56744-1.69437,2.38567
	c-0.55668,0.85683-1.07149,1.74167-1.58717,2.62464c-0.68847,1.17929-1.34812,2.3755-2.04414,3.55033
	c-0.3411,0.57536-0.73331,1.12058-1.1082,1.67557c-0.13969,0.20695-0.28899,0.40819-0.44604,0.60214
	c-0.45388,0.56021-0.96525,1.08128-1.36114,1.67918c-0.90427,1.36611-1.75314,2.76891-2.62464,4.15669
	c-0.28117,0.44773-0.57143,0.89007-0.84232,1.34386c-0.8418,1.41068-1.65735,2.83754-2.52264,4.23364
	c-0.39422,0.63621-0.98062,1.16598-1.30669,1.82922c-0.81577,1.65874-2.18456,2.88711-3.27363,4.32688
	c-0.98434,1.30137-2.25974,2.38143-3.39483,3.57056c-0.42271,0.44279-0.79401,0.93467-1.21896,1.37492
	c-0.94811,0.98249-1.9117,1.95033-2.87597,2.91733c-1.14056,1.14394-2.29128,2.27773-3.43116,3.42252
	c-0.33276,0.33428-0.63113,0.70303-0.96578,1.03537c-0.96468,0.95821-1.75575,2.07088-2.78484,2.97925
	c-0.9162,0.80864-1.80608,1.68612-2.52341,2.66789c-0.5277,0.72227-1.15511,1.28992-1.84177,1.79163
	c-1.37212,1.00257-2.796,1.93488-4.21178,2.87651c-0.97311,0.64745-1.97024,1.25906-2.95303,1.89207
	c-0.31809,0.20487-0.62529,0.42681-0.96059,0.65682c-0.3612-0.4127-0.19673-0.78951-0.07597-1.14679
	c0.46417-1.37424,0.92371-2.75057,1.41887-4.11388c0.80837-2.22675,1.56313-4.47791,2.4895-6.65533
	c0.92118-2.16517,1.57901-4.41257,2.34892-6.62502c0.13736-0.39504,0.28926-0.78508,0.42815-1.17962
	c0.48914-1.39023,0.94695-2.79232,1.47187-4.16892c0.41705-1.09427,0.91441-2.15786,1.377-3.23483
	c0.18655-0.43427,0.39928-0.859,0.55862-1.30286c0.66872-1.86369,1.283-3.74778,1.99246-5.5955
	c0.56898-1.48167,1.26604-2.91348,1.86617-4.38369c0.27328-0.66948,0.41453-1.3922,0.67719-2.06671
	c0.60577-1.55553,1.25333-3.09465,1.87657-4.64332c1.30341-3.23877,2.63387-6.467,3.89018-9.72391
	c0.72258-1.87351,1.54726-3.70045,2.34984-5.53738c0.5796-1.32625,1.26745-2.60513,1.62529-4.02061
	c0.03394-0.13426,0.10618-0.2585,0.15396-0.3898c0.43853-1.20556,0.86286-2.41656,1.31817-3.61586
	c0.28593-0.75296,0.58691-1.50348,0.93655-2.22836c0.4971-1.03081,1.06171-2.02887,1.56772-3.05566
	c0.85997-1.74555,1.68259-3.50967,2.55096-5.25093c0.32194-0.64605,0.76247-1.2327,1.08886-1.87683
	c0.47832-0.94421,1.06736-1.87564,1.3132-2.88466c0.41331-1.69619,1.10444-3.2739,1.71041-4.89104
	c0.08525-0.22769,0.1511-0.49202,0.12329-0.72735c-0.11401-0.97008,0.04797-1.89941,0.38654-2.79651
	c0.37183-0.98553,0.30338-1.97824,0.11833-2.97456c-0.12105-0.65083-0.58296-0.93454-1.25008-0.9628
	c-0.85084-0.03603-1.55716,0.24445-2.26281,0.69664c-0.34374,0.22026-0.83972,0.20481-1.26781,0.29132
	c-0.31783,0.0643-0.67676,0.04819-0.94819,0.19543c-0.66098,0.35873-1.25525,0.84392-1.92441,1.18326
	c-1.18582,0.6015-1.9335,1.54554-2.42275,2.74903c-0.23089,0.56801-0.51521,1.11485-0.78635,1.66585
	c-0.73967,1.50392-1.50024,2.99709-1.83785,4.66212c-0.07672,0.37877-0.21197,0.75997-0.39379,1.10066
	c-0.8543,1.59965-1.73902,3.17274-2.34599,4.9017c-0.86822,2.47251-1.8679,4.89911-2.82085,7.34156
	c-0.35335,0.90558-0.7274,1.80347-1.10386,2.69985c-0.42153,1.00333-0.76262,2.05561-1.30743,2.98805
	c-0.78447,1.34306-1.25458,2.87259-2.35234,4.03327c-0.0882,0.09338-0.10383,0.25319-0.16087,0.37867
	c-0.28807,0.63281-0.54975,1.27993-0.87536,1.89315c-0.45309,0.85389-0.95795,1.68026-1.4323,2.52322
	c-0.06699,0.1189-0.0781,0.26784-0.12965,0.39712c-0.20554,0.51558-0.34518,1.07561-0.64198,1.5331
	c-0.53896,0.83058-0.75272,1.83833-1.46056,2.57654c-0.18199,0.1897-0.22986,0.5045-0.35282,0.7552
	c-0.11053,0.22473-0.22534,0.44976-0.36315,0.65816c-0.46048,0.6963-0.96076,1.36775-1.39227,2.08115
	c-0.60235,0.9964-1.14758,2.02724-1.73398,3.03358c-0.54563,0.93646-1.10979,1.8624-1.67258,2.78884
	c-0.77779,1.28002-1.56056,2.55718-2.34402,3.83383c-0.49512,0.80651-1.02522,1.59306-1.48484,2.41901
	c-0.47411,0.85191-0.81839,1.78064-1.33248,2.60505c-0.98859,1.58466-2.06825,3.11236-3.08668,4.67899
	c-0.37742,0.5806-0.69752,1.1995-1.02794,1.80969c-0.31696,0.58533-0.56444,1.21424-0.92928,1.76658
	c-0.64467,0.97617-1.37239,1.89716-2.03163,2.8644c-0.37442,0.54935-0.64605,1.16905-1.02545,1.71452
	c-1.35407,1.9466-2.69131,3.90724-4.11629,5.80157c-1.5765,2.09592-3.25225,4.11711-4.86583,6.18542
	c-1.07201,1.37401-2.32467,2.54513-3.74266,3.55403c-1.20208,0.85528-2.40826,1.70974-3.55636,2.63423
	c-1.03939,0.83676-2.04598,1.69766-3.26558,2.28031c-0.8295,0.39625-1.61267,0.8884-2.42671,1.31841
	c-0.71478,0.3775-1.409,0.85052-2.17301,1.06668c-1.9567,0.55348-3.8778,1.24973-5.89989,1.5634
	c-1.5577,0.24173-3.09938,0.37271-4.65215-0.0798c-1.80119-0.52498-3.50899-1.28378-5.24158-1.98331
	c-0.05103-0.02068-0.09739-0.0547-0.14338-0.08626c-0.91939-0.63197-1.81417-1.30357-2.76272-1.88803
	c-1.54512-0.95203-2.5048-2.36229-3.19094-3.97588c-0.50177-1.17935-0.92223-2.3952-1.33705-3.60904
	c-0.27957-0.81821-0.54662-1.64934-0.71444-2.49541c-0.4551-2.29383-0.48378-4.60443-0.10792-6.91566
	c0.09848-0.60588,0.29838-1.2077,0.30691-1.81347c0.02699-1.89745,0.59303-3.68634,1.02025-5.50314
	c0.127-0.53971,0.34873-1.05686,0.51967-1.58668c0.24809-0.76846,0.54866-1.52597,0.72151-2.31133
	c0.34982-1.58849,0.83782-3.1016,1.70839-4.49996c0.68871-1.1059,1.21292-2.31282,1.86936-3.44039
	c0.51852-0.89093,1.16976-1.70473,1.68742-2.59608c1.46794-2.52726,3.34452-4.73105,5.35682-6.82368
	c0.84091-0.87453,1.44765-1.9418,2.55528-2.6095c1.25118-0.75411,2.30333-1.83377,3.53925-2.61857
	c1.31218-0.83328,2.69214-1.59898,4.12587-2.19315c2.31944-0.96115,4.69871-1.78255,7.0732-2.60366
	c0.47255-0.16342,1.04235-0.11586,1.55856-0.06848c0.9716,0.08927,1.93564,0.25823,2.90474,0.37749
	c1.05249,0.12951,2.12532,0.15585,3.15636,0.3795c1.44106,0.31258,2.69877,0.1683,3.75507-0.94682
	c0.16911-0.17834,0.39783-0.30843,0.61569-0.43125c1.70087-0.95856,3.40695-1.90779,5.10869-2.86465
	c0.59257-0.33318,0.6785-0.62566,0.32941-1.23346c-0.27761-0.48308-0.61893-0.92965-0.89331-1.41446
	c-0.56988-1.00702-1.34042-1.3354-2.45281-1.01125c-0.26737,0.07781-0.53394,0.19241-0.80655,0.21223
	c-1.52425,0.11122-3.01023-0.09697-4.45249-0.6037c-1.86777-0.65605-3.44874-1.82457-5.08401-2.88743
	c-0.87468-0.56841-1.60791-1.31664-2.03108-2.29093c-0.32198-0.74116-0.62363-1.50253-0.82167-2.2835
	c-0.27977-1.10242-0.39943-2.24622-0.69128-3.3447c-0.3172-1.19473-0.30996-2.39457-0.10282-3.57057
	c0.35841-2.03458,0.88986-4.03263,1.85363-5.88338c0.23102-0.44383,0.56293-0.8434,0.74107-1.30465
	c0.39608-1.02669,2.36686-2.86428,2.60482-3.121c0.35948-0.38775,1.78589-1.08883,2.18613-1.43782
	c0.53281-0.46491,1.82213-0.73346,2.55698-0.78316c1.72034-0.11636,3.86863,0.5557,5.08968,1.49663
	c1.31105,1.0102,2.79957,1.82057,3.82724,3.19497c0.5969,0.79821,1.32718,1.49552,1.98076,2.25266
	c0.83929,0.97194,1.70931,1.92265,2.47599,2.94978c0.59329,0.79517,1.27048,1.42744,2.08026,2.01342
	c1.18266,0.85589,2.3708,0.82926,3.64919,0.49211c0.28531-0.07531,0.64551-0.15693,0.80535-0.3638
	c0.47241-0.61225,1.19163-0.66522,1.81761-0.91724c0.6139-0.24715,1.25688-0.4219,1.88575-0.63247
	c0.21025-0.07037,0.41943-0.14567,0.62358-0.2322c0.45967-0.19498,0.91742-0.39489,1.37292-0.59957
	c0.32708-0.14699,0.64039-0.32938,0.97603-0.45186c0.50039-0.18267,0.58895-0.2723,0.46454-0.78766
	c-0.1666-0.69135-0.44722-1.33964-1.07238-1.73941c-0.39664-0.25359-0.63831-0.59425-0.86607-0.99136
	c-0.13708-0.23891-0.42237-0.52854-0.66132-0.54815c-0.73446-0.06042-1.17685-0.42204-1.47816-1.05446
	c-0.08071-0.16937-0.25596-0.29259-0.3831-0.44094c-0.8149-0.95088-1.6274-1.90375-2.44263-2.85429
	c-0.59953-0.69877-1.15521-1.44328-1.81451-2.08039c-0.8793-0.84975-1.83461-1.62158-2.76774-2.41458
	c-0.67913-0.57703-1.35795-1.15714-2.06902-1.69321c-0.61989-0.46732-1.23795-0.98321-1.93916-1.28731
	c-1.66672-0.72302-3.3986-1.24641-5.26157-1.07951c-0.2185,0.01965-0.44333-0.04839-0.66579-0.05465
	c-0.41692-0.01164-0.85296-0.08756-1.24807,0.0044c-1.1659,0.27148-2.31817,0.60363-3.47066,0.92971
	c-0.4285,0.12125-0.84401,0.28865-1.26357,0.44013c-0.78687,0.28385-1.54626,0.58728-2.2094,1.14821
	c-0.71723,0.60676-1.52368,1.11258-2.31401,1.62766c-1.16681,0.76027-2.35781,1.48334-3.53016,2.23555
	c-0.53582,0.34383-1.01846,0.7841-1.58171,1.06883c-2.66596,1.34803-4.92462,3.17556-6.6654,5.60734
	c-0.74588,1.04165-1.38551,2.1586-2.11096,3.21562c-0.80189,1.16841-1.36136,2.42793-1.62602,3.82099
	c-0.22369,1.17749-0.53434,2.34389-0.67295,3.5307c-0.12869,1.10215-0.21936,2.24283-0.07896,3.33466
	c0.23423,1.81934,0.64301,3.60804,1.35442,5.33101c1.03056,2.49514,2.4293,4.68771,4.57688,6.36366
	c0.18429,0.14371,0.32515,0.34291,0.54844,0.58344c-0.4813,0.26522-0.85689,0.49453-1.25139,0.68489
	c-0.7016,0.33848-1.41534,0.65162-2.12233,0.97863c-0.93454,0.43224-1.86959,0.86362-2.80082,1.30284
	c-0.60643,0.28609-1.21907,0.56268-1.80747,0.88311c-1.61819,0.88093-3.24623,1.74725-4.82999,2.68723
	c-1.36578,0.81074-2.68864,1.69659-4.00584,2.58572c-0.57642,0.38913-1.09532,0.86443-1.63358,1.30906
	c-0.60135,0.49703-1.23433,0.9641-1.78234,1.51507c-0.84605,0.8505-1.58903,1.80576-2.45231,2.63695
	c-1.54004,1.48277-2.73496,3.24368-3.97639,4.95085c-1.22437,1.68391-2.26703,3.51011-3.27863,5.33529
	c-0.80999,1.46121-1.45111,3.01582-2.17383,4.52575c-0.25272,0.52816-0.59188,1.02448-0.77547,1.5742
	c-0.43388,1.29762-0.82154,2.6121-1.18527,3.93152c-0.86799,3.14964-1.56354,6.32591-1.91343,9.59017
	c-0.35958,3.35514-0.50891,6.68378,0.30708,9.97664c0.40729,1.64327,0.95893,3.25793,1.55183,4.84562
	c0.40701,1.0899,0.9224,2.1564,1.52088,3.15448c1.56142,2.60402,3.88273,4.40559,6.44746,5.94902
	c1.39367,0.83861,2.84425,1.53439,4.35392,2.12654c0.80475,0.31557,1.57373,0.72768,2.38913,1.00885
	c0.68087,0.23479,1.40008,0.37486,2.11249,0.49751c0.70951,0.12215,1.43139,0.23337,2.14832,0.2364
	c1.14487,0.00487,2.29136-0.06522,3.43476-0.13878c0.92109-0.05934,1.82725-0.19504,2.68648-0.58768
	c0.63354-0.28947,1.28665-0.586,1.96271-0.72202c1.55748-0.31316,2.99935-0.8484,4.29123-1.78709
	c0.33553-0.24393,0.72728-0.41524,1.10461-0.59677c1.57836-0.75967,3.15572-1.49384,4.42268-2.77849
	c0.69698-0.70671,1.55824-1.2535,2.35622-1.85809c0.71162-0.53938,1.4782-1.01313,2.15039-1.59658
	c1.4949-1.29781,2.94536-2.64664,4.41511-3.97344c0.57827-0.52228,1.10625-1.12302,1.75139-1.54359
	c1.06068-0.69115,2.06124-1.42962,2.88658-2.39526c0.30697-0.35883,0.59592-0.75106,0.96441-1.03587
	c1.12973-0.87331,1.91535-2.00626,2.63499-3.21422c0.35292-0.59228,0.76718-1.17607,1.26427-1.64684
	c0.57621-0.54565,1.20073-0.98312,1.66657-1.69176c0.88262-1.34281,2.0907-2.4529,2.93744-3.84407
	c0.41823-0.68667,0.94568-1.31088,1.45966-1.9337c0.38836-0.47051,0.89555-0.85089,1.24138-1.3471
	c0.76118-1.0923,1.47413-2.21989,2.16805-3.35672c0.63866-1.0461,1.22363-2.1248,1.84306-3.18287
	c0.04042-0.06885,0.17242-0.08389,0.4063-0.18867c-0.08269,0.44479-0.12881,0.76461-0.20246,1.0779
	c-0.34052,1.44752-1.01457,2.76563-1.60336,4.1173c-0.256,0.58801-0.51231,1.17918-0.71319,1.78723
	c-0.54211,1.64191-1.02859,3.30231-1.5856,4.93896c-0.64691,1.90073-1.34193,3.7852-2.02274,5.67426
	c-0.33021,0.91675-0.68336,1.82549-1.01202,2.7429c-0.30145,0.8409-0.58595,1.68783-0.87423,2.53349
	c-0.41372,1.21381-0.81648,2.4313-1.23791,3.64236c-0.37636,1.08149-0.77241,2.15605-1.15767,3.23446
	c-0.13677,0.38223-0.39731,0.59048-0.80793,0.61968c-0.50087,0.03571-1.00791,0.04671-1.49876,0.13969
	c-0.36917,0.07-0.7989,0.16472-1.05595,0.40452c-0.44207,0.41273-0.76795,0.94932-1.14752,1.42992
	c-0.63849,0.8078-1.29261,1.60345-1.91804,2.42123c-0.50616,0.66185-1.00542,1.33217-1.45547,2.03249
	c-0.18919,0.2944-0.29173,0.66776-0.34937,1.01907c-0.15244,0.92737,0.06202,1.28191,0.96501,1.56563
	c0.6114,0.19215,1.24926,0.2984,1.86917,0.46513c0.63445,0.17062,1.26142,0.36827,1.89565,0.55521
	c-0.02063,0.2189-0.01239,0.33243-0.04351,0.43407c-0.5622,1.84314-1.12542,3.68594-1.69686,5.52617
	c-0.30594,0.98569-0.61068,1.97231-0.94708,2.94774c-0.48225,1.39819-1.01036,2.7807-1.48697,4.18073
	c-0.58403,1.71495-1.12049,3.44617-1.70452,5.16119c-0.56568,1.66154-1.13752,3.32213-1.75798,4.96362
	c-0.631,1.66888-1.32466,3.31404-1.99127,4.96939c-0.05206,0.1297-0.11268,0.25624-0.15977,0.3877
	c-0.47028,1.31387-0.99822,2.61086-1.39322,3.94701c-0.52085,1.76198-0.93613,3.55505-1.39967,5.33408
	c-0.03479,0.13326-0.12017,0.25803-0.13278,0.39134c-0.03641,0.38153-0.08729,0.76872-0.05716,1.14767
	c0.0324,0.40642,0.29951,0.66264,0.72062,0.6862c0.83915,0.04678,1.65203,0.05342,2.36464-0.55638
	c0.45913-0.39288,1.0261-0.65947,1.54294-0.98547c0.21078-0.13293,0.44322-0.24571,0.62111-0.41475
	c1.38585-1.31648,2.95504-2.37241,4.61602-3.30386c0.15515-0.08708,0.32635-0.23865,0.37955-0.39729
	c0.15876-0.47289,0.25711-0.96552,0.38797-1.44798c0.48233-1.77661,0.93728-3.56139,1.46152-5.32553
	c0.56465-1.90016,1.74411-3.56435,2.16746-5.52553c0.03968-0.18362,0.18282-0.34367,0.27123-0.51822
	c0.18857-0.37233,0.42522-0.73009,0.54945-1.12315c0.6721-2.12735,1.68367-4.12801,2.27836-6.28802
	c0.39159-1.42172,0.96332-2.7933,1.4425-4.19139c0.34353-1.00255,0.6648-2.01268,1.0008-3.01781
	c0.24679-0.73848,0.48535-1.48041,0.75816-2.20927c0.20444-0.54596,0.50097-1.05952,0.68129-1.61203
	c0.62296-1.90874,1.20758-3.82997,1.81856-5.74261c0.22586-0.70752,0.61501-1.29384,1.27982-1.68768
	c1.05505-0.62514,2.13526-1.22086,3.12592-1.93791c1.39952-1.01302,2.75188-2.09566,4.0781-3.20403
	c1.21515-1.01566,2.56242-1.87943,3.58975-3.11842c0.40697-0.49105,0.89056-0.91956,1.34737-1.3685
	c0.7146-0.70224,1.44933-1.38467,2.15102-2.09944c0.80126-0.81627,1.56622-1.66827,2.36439-2.48775
	c1.34235-1.37836,2.70998-2.73209,4.04528-4.11697c1.08287-1.12301,2.12119-2.28902,3.20629-3.40965
	c0.38332-0.39579,0.8824-0.67924,1.26778-1.07343c1.81277-1.85379,3.55138-3.78389,5.42319-5.57516
	c1.19908-1.14765,2.17425-2.50758,3.47743-3.54988c0.18591-0.14861,0.27135-0.41769,0.42117-0.61756
	c0.45049-0.60107,0.86501-1.23744,1.37517-1.78359c0.97104-1.03934,2.02153-2.00429,2.99361-3.04269
	c0.53046-0.56679,0.99348-1.20269,1.4406-1.84c0.51852-0.73885,0.74637-1.69285,1.63664-2.15359
	c0.09061-0.04697,0.15199-0.16302,0.21082-0.25719c0.87129-1.39308,1.73916-2.78835,2.61011-4.18176
	c0.13434-0.21502,0.14594-0.5402,0.61392-0.63283c-0.06063,0.34109-0.07111,0.61284-0.15845,0.8571
	c-0.90264,2.52271-1.81522,5.04191-2.73036,7.56019c-0.37187,1.02333-0.77249,2.03665-1.13255,3.06408
	c-0.56271,1.60579-0.95975,3.28854-1.69416,4.80975c-0.64977,1.34592-0.91165,2.80894-1.57092,4.14145
	c-0.47814,0.96648-0.78389,2.02036-1.14211,3.04376c-0.32282,0.92224-0.5705,1.87256-0.92586,2.7814
	c-0.67058,1.71512-1.41084,3.40288-2.09151,5.11416c-0.50427,1.2677-0.95307,2.55733-1.44073,3.83189
	c-0.25738,0.67268-0.47078,1.35902-1.02387,1.89236c-0.43552,0.42001-0.77519,0.93904-1.16322,1.40946
	c-0.49554,0.601-1.02184,1.17843-1.4894,1.80019c-0.6537,0.86973-1.23304,1.79638-1.90582,2.6503
	c-0.48891,0.62065-0.5527,1.3396-0.60442,2.05128c-0.04298,0.58829,0.56123,0.77766,0.91856,1.11043
	c0.06122,0.05704,0.11367,0.12814,0.18348,0.17128c0.61357,0.38058,0.6716,0.91942,0.42963,1.53275
	c-0.11211,0.28407-0.26567,0.55148-0.38481,0.83304c-0.10757,0.25415-0.21341,0.51196-0.28539,0.77754
	c-0.12406,0.45758-0.20279,0.92776-0.33301,1.38353c-0.62817,2.19887-1.26473,4.3954-1.90368,6.59128
	c-0.26539,0.91206-0.51622,1.8299-0.82165,2.72878c-1.10313,3.24632-2.22079,6.48755-3.34394,9.72694
	c-0.9324,2.68927-1.9057,5.36462-2.81396,8.062c-1.00683,2.99011-2.04911,5.96523-3.21548,8.8978
	c-0.45105,1.13416-1.02886,2.23276-1.16035,3.47908c-0.01969,0.18629-0.15831,0.35681-0.20838,0.54359
	c-0.28022,1.04404-0.58642,2.08324-0.80816,3.13995c-0.10593,0.50549,0.28716,0.95692,0.73788,0.9043
	c0.48978-0.05722,1.0432-0.11673,1.43287-0.37788c1.10654-0.74153,2.29371-1.38846,3.16626-2.4492
	c0.23669-0.28778,0.60243-0.57573,0.94947-0.63786c0.39578-0.07098,0.7209-0.14217,1.04035-0.41158
	c0.48427-0.40811,1.05022-0.71846,1.53948-1.12123c0.74127-0.6102,1.85621-0.9155,1.85571-2.16615
	c-0.00002-0.02356,0.02642-0.04852,0.04382-0.07034c0.56081-0.70145,0.71335-1.55202,0.90279-2.39639
	c0.1268-0.56488,0.31412-1.11736,0.49582-1.66841c0.09551-0.28992,0.22952-0.56818,0.35859-0.84589
	c0.79942-1.71921,1.12052-3.63657,2.17698-5.25061c0.0877-0.13402,0.09391-0.3196,0.14711-0.47826
	c0.40739-1.21581,0.7843-2.44316,1.23552-3.64259c0.44971-1.1955,1.00505-2.35121,1.45682-3.54604
	c0.33405-0.88409,0.57018-1.80513,0.86125-2.70604c0.25742-0.79652,0.53521-1.58646,0.79452-2.3824
	c0.12881-0.39548,0.14129-0.86848,0.37402-1.18217c0.46851-0.63159,0.51576-1.36902,0.71248-2.07143
	c0.03751-0.13446,0.06715-0.27159,0.11083-0.40388c0.67553-2.03845,1.36749-4.07166,2.02556-6.11577
	c0.61609-1.91449,1.23267-3.83043,1.77536-5.76627c0.21814-0.77768,0.67044-1.06206,1.4042-1.19757
	c0.95806-0.17673,1.91402-0.40422,2.8376-0.71049c0.51039-0.16943,0.96813-0.52177,1.42246-0.83133
	c0.93802-0.63924,1.73379-1.45905,2.8309-1.9023c0.72858-0.2944,1.39457-0.81839,1.98881-1.35088
	c0.74304-0.66611,1.35764-1.47372,2.07965-2.16613c0.37643-0.36092,0.89797-0.56662,1.2957-0.90996
	c1.28558-1.10976,2.52241-2.2764,3.82023-3.37115c0.93462-0.78822,1.94231-1.48876,2.90415-2.24528
	c0.28211-0.22182,0.51595-0.50438,0.77753-0.75318c0.64276-0.61137,1.2814-1.22768,1.93555-1.82668
	c0.86292-0.79029,1.7692-1.53553,2.60149-2.35631c0.9312-0.91852,1.78532-1.91494,2.70378-2.84709
	c0.41216-0.41821,0.89932-0.76234,1.39279-1.17368c0.07227,0.20306,0.12271,0.28033,0.12282,0.35773
	c0.00017,0.19485-0.01244,0.39107-0.0372,0.58449c-0.2365,1.84662-0.04529,3.68457,0.19699,5.50769
	c0.30109,2.2656,0.70361,4.51512,1.51065,6.67525c0.33063,0.88499,0.47252,1.84145,0.81302,2.72192
	c0.31975,0.82635,0.71115,1.64753,1.20782,2.37792c0.89131,1.31085,1.86871,2.56642,3.39282,3.23578
	c0.16855,0.07411,0.28255,0.2661,0.43153,0.39191c0.46964,0.3963,0.94078,0.7675,1.56075,0.94252
	c1.01857,0.28758,2.02272,0.6288,3.02432,0.97258c0.94136,0.3232,1.90231,0.38217,2.88704,0.33974
	c1.43042-0.06175,2.73306-0.61153,3.98604-1.18146c1.8185-0.82721,3.56068-1.8293,5.30231-2.81532
	c1.11067-0.62891,2.20789-1.27579,3.17029-2.15538c0.92122-0.84187,1.97414-1.54304,2.99113-2.27558
	c0.74442-0.53639,1.52628-1.02111,2.28812-1.53391c0.39018-0.26271,0.78619-0.51966,1.15704-0.8085
	c1.03316-0.80512,2.05475-1.62552,3.08064-2.44015c0.63254-0.50206,1.26698-1.00174,1.89539-1.50871
	c0.25934-0.20927,0.51486-0.42482,0.75543-0.65502c1.07896-1.03226,2.52794-1.61911,3.43369-2.86396
	c0.12495-0.17202,0.34547-0.28275,0.53677-0.39674c0.43135-0.25681,0.88121-0.48328,1.30411-0.7524
	c0.17612-0.11208,0.37692-0.27617,0.43999-0.45999c0.3821-1.11217,1.29971-1.80672,2.06728-2.58722
	c1.17143-1.19079,2.49944-2.22646,3.51326-3.57491c0.66722-0.88741,1.48441-1.69698,1.97461-2.672
	c0.46011-0.9153,1.12798-1.59285,1.8544-2.20232c0.8251-0.69237,1.57059-1.39681,1.98265-2.40886
	c0.04956-0.12184,0.17499-0.21194,0.2612-0.31998c0.25706-0.32191,0.52548-0.63589,0.76469-0.97079
	c0.3076-0.4307,0.57948-0.88689,0.88725-1.31742c0.74519-1.04216,1.47372-2.09784,2.2641-3.10503
	c0.56375-0.71854,1.15028-1.44683,1.84622-2.02739c0.93909-0.78356,1.73483-1.69401,2.28902-2.7367
	c0.76358-1.43661,1.83821-2.58737,2.90768-3.76336c0.46671-0.5132,0.97017-0.99964,1.38382-1.55288
	c1.05008-1.40422,2.05569-2.8418,3.0869-4.26038c0.24501-0.33701,0.54564-0.63493,0.77829-0.97952
	c0.93553-1.38607,1.85768-2.78109,2.77759-4.1777c0.36752-0.55817,0.68991-1.14772,1.07924-1.68959
	c0.66487-0.9252,1.46136-1.76191,1.83595-2.87402c0.05136-0.15215,0.17511-0.28243,0.27545-0.41508
	c0.436-0.57594,0.93323-1.11551,1.29448-1.73473c0.25682-0.44019,0.58788-0.57996,1.02266-0.57734
	c1.4238,0.00846,2.84763,0.04167,4.27148,0.05653c0.58484,0.00605,1.17746,0.04651,1.7533-0.0293
	c1.05002-0.13828,1.86032,0.59919,1.72946,1.64332c-0.02071,0.16522-0.07025,0.33289-0.05753,0.49546
	c0.11667,1.48017-0.29445,2.87268-0.70575,4.2628c-0.24487,0.82817-0.5257,1.64587-0.79367,2.46714
	c-0.33698,1.03228-0.62926,2.08247-1.02702,3.0909c-0.71588,1.81457-1.49683,3.60345-2.24934,5.40353
	c-0.53725,1.28512-1.08272,2.56697-1.60439,3.85837c-0.32277,0.79883-0.60274,1.61498-0.91251,2.41926
	c-0.23015,0.59813-0.4911,1.18465-0.71457,1.78511c-0.65201,1.75261-1.27425,3.51643-1.94389,5.26226
	c-0.36743,0.95792-0.84016,1.87563-1.2047,2.83456c-0.3846,1.01141-0.72124,2.043-1.03481,3.07901
	c-0.41985,1.38729-0.88754,2.76967-1.16566,4.18724c-0.23415,1.19311-0.54027,2.37091-0.64163,3.60479
	c-0.20198,2.45615,0.17212,4.84586,0.54269,7.24329c0.07915,0.51145,0.40395,0.98272,0.50017,1.49421
	c0.33411,1.77802,1.22725,3.27901,2.2944,4.68134c0.92657,1.21714,1.93375,2.37295,2.90817,3.55352
	c0.94978,1.1508,2.01466,2.09245,3.45363,2.67935c1.74103,0.70998,3.39873,0.37888,5.08994,0.01073
	c0.28372-0.06174,0.52779-0.30246,0.79233-0.45682c0.38518-0.22511,0.74937-0.51424,1.16371-0.65569
	c0.78886-0.2692,1.42671-0.74739,2.04663-1.27034c1.53571-1.29556,3.07195-2.59064,4.60576-3.88875
	c0.31537-0.26707,0.60626-0.56518,0.93423-0.81535c0.41722-0.31814,0.87668-0.58165,1.28804-0.90657
	c0.3932-0.3107,0.74348-0.67533,1.12117-1.00622c0.47787-0.41856,0.99275-0.79849,1.44069-1.24617
	c0.69012-0.68993,1.28952-1.47661,2.01651-2.12211c0.63698-0.56567,1.13129-1.21693,1.63153-1.8917
	c1.0799-1.45651,2.23979-2.85341,3.32878-4.30351c0.82008-1.09225,1.60287-2.21459,2.3615-3.35057
	c0.66583-0.99698,1.2469-2.05064,1.91841-3.0434c0.507-0.74976,1.10085-1.43996,1.82529-2.04208
	c0.39087,0.45232,0.26692,0.94642,0.29445,1.404c0.10551,1.7532,0.13786,3.51345,0.31587,5.2589
	c0.16374,1.60526,0.48236,3.19469,0.72713,4.79198c0.08441,0.55177,0.09625,1.1206,0.23602,1.657
	c0.58954,2.26221,0.85229,4.60382,1.70233,6.80431c0.39102,1.01185,0.66156,2.0697,1.00769,3.09956
	c0.19473,0.57907,0.59534,1.13884,0.61252,1.71591c0.02579,0.86383,0.48251,1.24915,1.14175,1.57626
	c1.37726,0.68349,2.83707,0.75337,4.32874,0.60161c0.99023-0.10068,1.91696-0.41704,2.76215-0.92616
	c1.07263-0.64601,2.14658-1.27991,3.12524-2.08803c1.39722-1.15382,2.73709-2.34577,3.86005-3.77395
	c0.60229-0.76596,1.22244-1.51892,1.85806-2.25758c0.83707-0.97291,1.70078-1.92263,2.54626-2.88835
	c1.0275-1.17352,2.0015-2.39834,3.08768-3.51428c0.70621-0.7254,1.35495-1.42353,1.77411-2.38289
	c0.82019-1.87675,2.11884-3.47018,3.31482-5.11845c0.1947-0.26833,0.43503-0.50681,0.60571-0.78851
	c0.31744-0.52423,0.57654-1.08427,0.89966-1.60462c1.25162-2.01543,2.51233-4.0254,3.78387-6.02827
	c0.43076-0.67832,0.79956-1.39626,1.47504-1.90822c0.25589-0.19388,0.36526-0.60748,0.49066-0.94003
	c0.15649-0.41474,0.20059-0.87962,0.39911-1.26892c0.39752-0.77962,0.80814-1.56532,1.57547-2.31338
	c0.19751,0.49924,0.38129,0.83935,0.46729,1.20258c0.40527,1.71088,1.23785,3.2384,2.12451,4.71768
	c1.02106,1.70294,2.52869,2.96558,4.21603,3.98869c0.88141,0.53429,1.84085,0.93902,2.72714,1.46585
	c0.79968,0.47536,1.68192,0.55083,2.55859,0.68217c0.18372,0.02757,0.38577,0.00053,0.56839-0.04512
	c0.63748-0.15934,0.88492,0.00837,0.72229,0.61707c-0.12732,0.47646-0.13193,0.93079-0.14944,1.4122
	c-0.0386,1.05586-0.16083,2.1129-0.31573,3.15944c-0.32086,2.16435-0.12158,4.31025,0.36505,6.40574
	c0.40167,1.73037,1.0834,3.39417,1.59396,5.10167c0.25317,0.84676,0.70395,1.55729,1.19812,2.27267
	c1.40051,2.02673,3.16934,3.65933,5.21866,4.99808c0.39221,0.25618,0.87701,0.36911,1.27347,0.62013
	c0.81763,0.5174,1.707,0.83058,2.63974,1.03452c2.11169,0.46176,4.25867,0.52834,6.40988,0.59233
	c1.09354,0.03249,4.7995-0.71695,9.43524-3.48851c1.005-0.60085,1.85541-1.42859,2.78308-2.14293
	c0.11063-0.08519,0.23123-0.15989,0.33188-0.25559c1.2525-1.18835,2.5011-2.38078,3.75293-3.56981
	c1.29166-1.22716,2.58932-2.44788,3.87668-3.67953c0.50214-0.48029,0.96088-1.00768,1.47903-1.46906
	c0.82648-0.7359,1.77771-1.34392,2.32309-2.35633c0.02609-0.04817,0.06586-0.09099,0.10568-0.12971
	c0.83154-0.80712,1.66223-1.61508,2.49789-2.41779c0.13162-0.1265,0.28702-0.22826,0.4787-0.37862
	c0.10248,0.24567,0.19888,0.41492,0.24454,0.59686c0.21008,0.83823,0.41269,1.67847,0.60608,2.52076
	c0.57843,2.51885,1.79578,4.74008,3.2399,6.84312c0.866,1.26131,1.88043,2.40921,3.07727,3.37525
	c1.04123,0.84045,2.1012,1.65813,3.16116,2.47513c0.48395,0.37306,0.95322,0.78619,1.48901,1.0665
	c1.52701,0.79889,3.04996,1.62444,4.77643,1.94055c0.1347,0.02472,0.25626,0.11295,0.38986,0.15123
	c0.50143,0.14369,0.99847,0.35483,1.50952,0.40063c0.91147,0.08138,1.83237,0.084,2.74893,0.07777
	c1.43631-0.00981,2.83829-0.19211,4.10962-0.94568c0.4679-0.27733,0.96683-0.36081,1.52853-0.30107
	c0.54465,0.058,1.11227,0.00555,1.65836-0.07593c1.02722-0.15355,1.80591-0.84503,2.68756-1.3161
	c0.48816-0.26093,0.99564-0.51927,1.52588-0.66035c0.96887-0.25789,1.7984-0.71559,2.5621-1.36002
	c0.63788-0.53828,1.30182-1.08283,2.03897-1.45812c1.32504-0.67446,2.5585-1.44849,3.6969-2.41234
	c1.89243-1.6023,3.84222-3.13654,5.76791-4.69959c0.40976-0.33259,0.86526-0.62286,1.22-1.00648
	c1.11887-1.20966,2.29474-2.33707,3.63306-3.3176c1.52637-1.11841,2.95334-2.37241,4.42758-3.56218
	c0.14111-0.11394,0.31256-0.1904,0.51694-0.31236c0.07928,0.18407,0.17432,0.30485,0.17682,0.42755
	c0.00955,0.49732,0.01675,0.99722-0.022,1.49253c-0.16556,2.11789-0.19644,4.21577,0.21747,6.32736
	c0.45959,2.3456,1.12137,4.61245,2.13391,6.77087c0.35315,0.75243,0.83755,1.44281,1.25412,2.16606
	c0.64294,1.11584,1.63623,1.89609,2.60706,2.68845c0.37833,0.30869,0.82736,0.56152,1.28348,0.73782
	c1.04114,0.40228,2.0961,0.77765,3.16592,1.09436c0.77045,0.2281,1.57062,0.46143,2.36346,0.48367
	c1.33289,0.03725,2.67087-0.14709,4.00577-0.13553c1.58191,0.01378,3.12964-0.04156,4.54868-0.85161
	c0.07019-0.03999,0.16428-0.03519,0.24255-0.06372c0.8364-0.30481,1.66068-0.64851,2.51053-0.9088
	c0.86893-0.26616,1.59201-0.80409,2.3992-1.17029c1.33295-0.60489,2.55304-1.3398,3.67123-2.29291
	c0.73618-0.62747,1.61865-1.08115,2.42252-1.63167c1.10471-0.75671,2.18713-1.54618,3.29999-2.29031
	c0.3905-0.26109,0.83679-0.44291,1.26779-0.63825c0.99615-0.45159,1.92343-0.98175,2.67508-1.81248
	c0.57684-0.63766,1.25394-1.18385,1.87323-1.78437c0.4389-0.42576,0.85904-0.87117,1.28177-1.31336
	c0.73135-0.76519,1.43671-1.55672,2.19318-2.2959c0.65738-0.64222,1.39526-1.20195,2.05164-1.84501
	c0.57672-0.56528,1.08395-1.20094,1.63504-1.79324c0.15555-0.16731,0.35699-0.29163,0.65213-0.5273
	c0.03564,0.38394,0.07864,0.59748,0.07092,0.8092c-0.02734,0.75229-0.10571,1.50404-0.10385,2.25583
	c0.00577,2.28654,0.01056,4.57565,0.75531,6.78227c0.11572,0.34286,0.17099,0.70548,0.27698,1.052
	c0.25198,0.82544,0.48831,1.6574,0.78455,2.46712c0.46478,1.27054,1.27386,2.35119,2.00491,3.4724
	c0.27112,0.41571,3.27585,3.541,7.18884,4.57191c1.0444,0.27516,2.1636,0.46861,3.39288,0.33145
	c0.32327-0.03607,0.65793-0.09499,0.98929-0.13472c0.71844-0.08607,1.46771-0.0705,2.14902-0.27815
	c1.11569-0.33987,2.18863-0.8204,3.27594-1.25078c0.25763-0.1019,0.50513-0.23152,0.74969-0.36293
	c1.00098-0.53783,1.99966-1.07999,2.99768-1.62341c0.26715-0.14558,0.54691-0.27684,0.79028-0.45612
	c1.16653-0.85944,2.32391-1.73152,3.48114-2.60377c0.17783-0.13412,0.3284-0.30472,0.50674-0.43807
	c0.66806-0.49927,1.33734-0.99777,2.01749-1.4804c0.27106-0.19238,0.67068-0.27551,0.8399-0.52495
	c0.46216-0.68053,1.17734-1.00632,1.79773-1.4685c0.98013-0.7302,1.98798-1.41419,2.73093-2.43552
	c0.38348-0.52714,0.94226-0.96776,1.50348-1.31606c1.18542-0.73558,2.14627-1.70442,3.01529-2.76113
	c0.38766-0.47144,0.81396-0.89139,1.26181-1.28897c0.56122-0.54134,1.34396-1.0003,1.90021-1.54672
	c0.55521-0.54557,1.06448-1.13746,1.61316-1.68997c0.72394-0.72894,1.57715-1.34156,2.01697-2.31934
	c0.06778-0.15074,0.17029-0.29169,0.27991-0.41682c0.46555-0.53137,0.98447-1.00146,1.61798-1.3808
	c0.04993,0.28961,0.03665,0.5315-0.02795,0.75887c-0.15195,0.5358-0.29703,1.07702-0.50171,1.59353
	c-0.38992,0.9838-0.80658,1.95764-1.23572,2.9251c-0.64499,1.45376-1.31155,2.89796-1.96512,4.34803
	c-0.103,0.22869-0.18817,0.4656-0.27747,0.70041c-0.27658,0.72771-0.55365,1.45517-0.82578,2.18456
	c-0.4458,1.19487-0.86349,2.4007-1.33875,3.58359c-0.39322,0.97895-0.75372,1.99306-1.30795,2.8795
	c-0.63345,1.01293-1.03445,2.08857-1.31055,3.22141c-0.20004,0.82056,0.2204,1.38564,1.04593,1.61075
	c0.37393,0.10201,0.77655,0.20142,1.08548,0.41747c0.56403,0.39427,1.19763,0.43808,1.83075,0.5069
	c0.58173,0.06325,1.16791,0.09019,1.75275,0.11656c0.6055,0.02721,1.09326-0.24147,1.43945-0.71199
	c0.32779-0.44554,0.56888-0.95456,0.89151-1.40442c0.68207-0.95102,1.33301-1.93448,2.35547-2.58018
	c0.13263-0.08383,0.22784-0.23915,0.31824-0.3759c0.86011-1.30031,1.71674-2.60289,2.57117-3.90681
	c0.38251-0.58363,0.76093-1.16996,1.13568-1.75857c0.62842-0.98695,1.26654-1.96802,1.87378-2.96786
	c0.49121-0.80895,1.1106-1.59203,1.37396-2.47574c0.43018-1.4437,1.21857-2.68181,1.89923-3.98496
	c0.25671-0.49174,0.6076-0.93353,0.88885-1.4137c0.54517-0.93048,0.86102-2.00373,1.72388-2.73565
	c0.08258-0.07012,0.13416-0.17773,0.19708-0.27005c0.61096-0.89653,1.20599-1.80462,1.83704-2.68687
	c0.45386-0.63412,0.88721-1.30692,1.4494-1.83462c1.26465-1.18658,2.49341-2.3989,3.51984-3.79994
	c0.54016-0.73748,1.16064-1.45187,1.52234-2.27438c0.34772-0.79058,0.8089-1.44431,1.37946-2.05989
	c1.11841-1.20641,2.24347-2.40759,3.32904-3.64319c1.06763-1.21514,2.14691-2.40307,3.3996-3.44498
	c1.10632-0.92015,2.09302-1.98598,3.11731-3.00278c0.73315-0.72765,1.40594-1.51918,2.16821-2.2136
	c1.25342-1.14185,2.71265-2.03032,3.88153-3.29568c0.76709-0.83051,1.75983-1.45557,2.66614-2.15353
	c1.01642-0.7828,2.04431-1.55102,3.07617-2.31329c1.61517-1.19318,3.23804-2.37593,4.85693-3.56386
	c0.11163-0.08196,0.25055-0.14997,0.32135-0.26003c0.32153-0.49942,0.85468-0.62048,1.47424-0.93356
	c-0.16785,0.49352-0.22815,0.86311-0.40662,1.16221c-0.75751,1.26945-1.54022,2.52433-2.33429,3.77145
	c-0.37445,0.58818-0.85291,1.11539-1.185,1.7244c-1.01288,1.85711-1.98407,3.73711-2.95709,5.61558
	c-0.34644,0.66886-0.64362,1.36311-0.97723,2.03879c-0.93787,1.89936-1.88947,3.792-2.82141,5.69431
	c-0.26929,0.54962-0.4798,1.12771-0.73615,1.68398c-0.3847,0.83491-0.80383,1.65438-1.17572,2.49474
	c-0.37207,0.84095-0.68018,1.7105-1.0611,2.54709c-0.32257,0.70827-0.73755,1.37435-1.06042,2.08246
	c-0.42706,0.93671-0.78839,1.9033-1.20624,2.84455c-0.92957,2.09474-1.7616,4.22276-2.21576,6.47752
	c-0.26312,1.30566-0.59479,2.57925-0.62488,3.95057c-0.03943,1.79497-0.03931,3.57997,0.18683,5.3515
	c0.22253,1.7416,0.5166,3.48127,1.32123,5.08428c0.27472,0.54686,0.46576,1.13509,0.70477,1.70041
	c0.15131,0.35828,0.29523,0.72327,0.48633,1.06024c0.53595,0.94456,1.09412,1.87647,1.64526,2.81237
	c0.04211,0.07153,0.09705,0.1357,0.14801,0.20187c0.48834,0.63478,1.00073,1.25256,1.46051,1.90736
	c0.7901,1.12511,2.01727,1.47147,3.22931,1.73874c1.03107,0.22742,2.1109,0.10349,3.16052-0.07771
	c0.62756-0.10823,1.27142-0.17836,1.87134-0.37683c0.92529-0.30612,1.7998-0.77142,2.73108-1.05292
	c1.26343-0.38193,2.24585-1.20329,3.30353-1.91396c0.08905-0.05994,0.138-0.17615,0.21899-0.25197
	c0.58734-0.54993,1.17108-1.10408,1.77051-1.64069c0.35236-0.3155,0.74506-0.58607,1.09576-0.90309
	c1.2406-1.12119,2.48621-2.23746,3.69971-3.38744c0.80939-0.76717,1.65289-1.52283,2.32922-2.40059
	c1.078-1.39906,2.23145-2.71175,3.53876-3.89705c0.32806-0.29746,0.60034-0.66122,0.87262-1.01432
	c0.49048-0.63577,0.93353-1.30984,1.44672-1.92609c0.97528-1.17131,2.08167-2.23817,2.78424-3.62096
	c0.12512-0.24619,0.27814-0.50267,0.48297-0.67933c0.61304-0.5287,0.80963-1.26628,0.961-1.98626
	c0.12897-0.61295,0.42572-1.07676,0.81958-1.5183c0.25916-0.29034,0.50879-0.58915,0.76617-0.88102
	c0.19379-0.21985,0.39325-0.43479,0.72351-0.79884c-0.05255,0.43287-0.05963,0.65465-0.10907,0.86653
	c-0.12646,0.54209-0.32007,1.07276-0.40057,1.62064c-0.27991,1.90424-0.52966,3.81309-0.77563,5.72218
	c-0.06042,0.46894-0.10535,0.94724-0.0849,1.41801c0.08844,2.03481,0.12677,4.07375,0.49927,6.08694
	c0.15198,0.82145,0.25055,1.65296,0.36523,2.48102c0.1908,1.37657,0.90967,2.56983,1.34692,3.86107
	c0.13965,0.41214,0.40308,0.81119,0.698,1.13633c0.6723,0.74155,1.42706,1.40852,2.09625,2.15257
	c0.73083,0.81244,1.70679,1.25381,2.61108,1.78793c0.7381,0.43608,1.56433,0.73167,2.44995,0.802
	c1.13953,0.09041,2.27448,0.24864,3.41498,0.31183c1.16425,0.06462,2.33105,0.11301,3.41504-0.50647
	c0.64996-0.37137,1.33862-0.68806,2.13898-0.625c0.19806,0.01558,0.4129-0.13155,0.61414-0.2178
	c0.22736-0.09764,0.44977-0.20752,0.6712-0.31818c0.47162-0.23553,0.94623-0.46579,1.41046-0.71509
	c0.68475-0.36778,1.34479-0.78557,2.04608-1.11705c0.81165-0.38373,1.59613-0.78004,2.25769-1.4124
	c0.56091-0.53613,1.17444-1.02157,1.79462-1.4899c0.41833-0.31602,0.92926-0.51498,1.32819-0.8503
	c1.23505-1.03801,2.46497-2.08562,3.64355-3.1866c1.44629-1.35094,2.84216-2.7561,4.25348-4.14439
	c0.97241-0.95656,1.93652-1.92151,2.89752-2.8895c0.1546-0.15587,0.31543-0.32877,0.40179-0.52532
	c0.56824-1.29236,1.46637-2.35767,2.30957-3.46709c0.72284-0.95083,1.39417-1.94367,2.04047-2.94878
	c0.34564-0.53759,0.6228-1.12653,0.87213-1.71706c0.302-0.71519,0.62201-1.43941,0.78296-2.19206
	c0.12445-0.58211,0.01611-1.21392,0.01111-1.84792c-0.32141-0.14639-0.67981-0.24751-0.96051-0.45412
	c-0.30988-0.22807-0.52478-0.58312-0.82904-0.82173c-0.13831-0.10849-0.43274-0.15609-0.58667-0.08361
	c-0.96997,0.4571-1.73352,1.18986-2.44666,1.97035c-0.52478,0.57426-0.90588,1.37739-1.5437,1.72833
	c-1.02429,0.5637-1.30829,1.6087-1.97565,2.38977c-0.06427,0.07527-0.08246,0.21539-0.07513,0.32218
	c0.05621,0.82331-0.42218,1.42042-0.84619,2.04202c-0.15692,0.22997-0.31934,0.45657-0.46313,0.69445
	c-0.63293,1.04776-1.21411,2.13027-1.90204,3.14006c-0.70532,1.03536-1.5072,2.00551-2.28168,2.99252
	c-0.13354,0.17012-0.33521,0.29009-0.51508,0.41988c-0.74139,0.535-1.52521,1.01913-2.22021,1.6084
	c-0.85736,0.72684-1.69159,1.45298-2.80298,1.77832c-0.36993,0.10832-0.73169,0.28674-1.05774,0.49492
	c-1.01782,0.64967-2.07593,1.1935-3.25262,1.50424c-0.78217,0.20657-1.54358,0.49014-2.32214,0.71222
	c-0.9101,0.25939-1.82257,0.56676-2.77533,0.1497c-0.12213-0.05348-0.27478-0.05509-0.41272-0.05178
	c-1.00476,0.02415-1.88019-0.31389-2.78796-0.74608c-1.24939-0.59471-2.02783-1.42119-2.45264-2.75555
	c-0.43512-1.36704-0.87122-2.70182-0.74091-4.15783c0.01196-0.13289-0.02692-0.27938-0.07513-0.4071
	c-0.40839-1.08118-0.55817-2.21407-0.62506-3.35402c-0.03571-0.60986,0.06146-1.22639,0.07397-1.84039
	c0.02246-1.10959,0.03278-2.21124,0.30164-3.30655c0.21204-0.86324,0.24347-1.7691,0.41595-2.64407
	c0.32343-1.64154,0.6554-3.28297,1.04999-4.90843c0.41406-1.70533,0.84747-3.41311,1.88013-4.88743
	c0.12433-0.17757,0.19415-0.39814,0.26575-0.60695c0.41479-1.2099,0.7511-2.45246,1.24994-3.62633
	c0.66455-1.56418,1.56354-3.02849,2.04572-4.67247c0.27765-0.94706,0.64832-1.83511,1.29218-2.60012
	c0.21112-0.25089,0.4046-0.5402,0.51843-0.84476c0.26306-0.70345,0.44739-1.43616,0.71008-2.13978
	c0.29199-0.78194,0.62427-1.54961,0.95917-2.31465c0.59009-1.34801,1.52191-2.53178,1.91437-3.97569
	c0.0144-0.05328,0.04388-0.10276,0.06897-0.15272c0.19366-0.3849,0.4743-0.54475,0.93579-0.54909
	c2.17584-0.02061,4.35114-0.09294,6.52692-0.13105c0.69495-0.01215,1.39075,0.02766,2.08624,0.03719
	c1.1427,0.01572,2.29639,0.12582,3.4245,0.00365c0.7583-0.08203,1.49396-0.08469,2.24457-0.04838
	c1.03027,0.0498,2.06158,0.0833,3.09296,0.10571c0.15649,0.00336,0.3576-0.04636,0.46582-0.14826
	c0.52435-0.4942,1.0683-0.97832,1.52185-1.53417c0.65051-0.79724,1.19238-1.68349,1.84784-2.47633
	c0.68878-0.83338,1.46075-1.5977,2.18701-2.40057c0.16754-0.18516,0.31439-0.39456,0.4408-0.61029
	C632.15094,65.4649,632.08807,64.58045,631.60138,64.23882z M391.97763,104.10395c-0.03156,0.97524,0.01392,1.9532-0.02414,2.92806
	c-0.0715,1.83755-0.17004,3.66533-0.77188,5.44076c-0.33844,0.99815-0.46927,2.06567-0.70914,3.09829
	c-0.4006,1.72536-1.15494,3.31756-1.9726,4.8681c-0.32254,0.61192-2.565,3.37786-7.58725,4.05878
	c-0.74033,0.10037-1.51657,0.00405-2.24536-0.14066c-0.86798-0.17236-1.73364-0.44358-2.54333-0.80058
	c-1.26804-0.55914-2.54245-1.09964-3.59384-2.08646c-0.76474-0.71744-1.75067-1.19364-2.56033-1.87026
	c-0.61288-0.51209-1.19696-1.11028-1.62775-1.77734c-0.81445-1.26078-1.70441-2.48862-2.22202-3.9226
	c-0.42599-1.17987-0.98486-2.32728-1.26532-3.53988c-0.29886-1.29259-0.5361-2.628-0.3959-3.97928
	c0.03729-0.35951,0.11469-0.7161,0.19211-1.07005c0.23145-1.05901,0.46616-2.11745,0.71317-3.17283
	c0.06226-0.26557,0.12173-0.55827,0.27536-0.77148c0.96866-1.344,1.5968-2.85558,2.26376-4.3567
	c0.45767-1.03033,0.84995-2.10709,1.76117-2.8987c0.49484-0.4297,0.86295-1.02389,1.22394-1.58524
	c1.04529-1.62505,2.27289-3.09554,3.62738-4.46845c0.45029-0.45632,0.84152-0.97029,1.27579-1.4433
	c0.75293-0.8205,1.522-1.62627,2.27579-2.44608c0.16754-0.18243,0.32983-0.38188,0.44315-0.60007
	c0.65991-1.2709,1.68652-2.19341,2.79031-3.0643c0.51602-0.40717,0.97095-0.87991,1.29874-1.49733
	c0.62549-1.17802,1.32425-2.28605,2.39783-3.18153c0.76309-0.63657,1.25244-1.61116,1.82608-2.46062
	c0.27448-0.40654,0.44275-0.88683,1.04578-1.27933c-0.01859,0.47852-0.00235,0.78461-0.04694,1.08162
	c-0.25571,1.70493-0.00031,3.39352,0.15048,5.08457c0.06442,0.72289,0.13638,1.44904,0.27139,2.16112
	c0.3735,1.96896,0.76236,3.93568,1.18564,5.89443c0.18213,0.84186,0.46478,1.66185,0.70059,2.4921
	c0.06091,0.21468,0.15222,0.42767,0.1705,0.64635c0.13052,1.57069,0.69766,3.02972,1.09787,4.53419
	c0.32019,1.204,0.44965,2.46337,0.60114,3.70583c0.1077,0.88419,0.16071,1.78178,0.14948,2.6722
	C392.13336,101.60669,392.0181,102.85451,391.97763,104.10395z"/>
</svg>
