<?xml version="1.0" encoding="utf-8"?>
<!-- Generator: Adobe Illustrator 25.4.1, SVG Export Plug-In . SVG Version: 6.00 Build 0)  -->
<svg version="1.1" id="Layer_1" xmlns="http://www.w3.org/2000/svg" xmlns:xlink="http://www.w3.org/1999/xlink" x="0px" y="0px"
	 viewBox="0 0 321.39075 188.99892" style="enable-background:new 0 0 321.39075 188.99892;" xml:space="preserve">
<style type="text/css">
	.st0{fill:#EFEDE5;}
	.st1{fill:#B48039;}
	.st2{fill:#AD8246;}
	.st3{fill:none;stroke:#B48039;stroke-width:0.99892;stroke-miterlimit:10;}
</style>
<g>
	<path class="st1" d="M112.51873,103.82413c-0.28706,0.84911-0.77577,1.60619-1.40781,2.26785
		c-0.89864,0.94077-1.53321,2.06123-2.09468,3.22638c-0.72932,1.51341-1.54578,2.96576-2.50529,4.35904
		c-2.12852,3.09088-4.262,6.17499-6.56822,9.13709c-0.20583,0.26439-0.3953,0.5462-0.55703,0.83942
		c-0.65147,1.18127-1.37986,2.30404-2.31231,3.28972c-0.26716,0.28239-0.51595,0.60612-0.68446,0.95387
		c-0.80637,1.6639-2.19338,2.82496-3.52555,4.0061c-1.65178,1.46455-3.67528,1.81728-5.81499,1.53966
		c-0.88652-0.11502-1.76381-0.31363-2.6376-0.50873c-0.37852-0.08452-0.79189-0.18086-1.09666-0.40053
		c-1.98199-1.42851-3.75597-2.98547-4.21059-5.61501c-0.27745-1.60467-0.55304-3.19489-0.56785-4.8258
		c-0.01219-1.34147-0.13348-2.6872-0.0611-4.02319c0.17896-3.30346,0.60604-6.56723,1.7627-9.70364
		c0.46382-1.25777,0.74215-2.58311,1.18486-3.84974c0.57227-1.63741,1.28975-3.22551,1.82887-4.87274
		c1.11383-3.40307,2.49191-6.71461,3.37358-10.20105c0.49233-1.94678,1.29261-3.81471,1.93233-5.72547
		c0.78223-2.3363,1.67649-4.62582,2.60886-6.90767c0.75726-1.85319,1.59492-3.67796,2.04996-5.67066
		c0.49857-2.18325,1.5229-4.1965,2.90585-5.99648c0.95457-1.24247,1.88664-2.50222,2.84236-3.7438
		c0.71279-0.92598,1.44977-1.06621,2.49878-0.50456c0.14784,0.07917,0.28722,0.17474,0.42767,0.26702
		c0.95244,0.62591,1.02885,0.79682,0.65188,1.93983c-0.80682,2.44621-1.62489,4.88666-2.81493,7.18703
		c-0.46159,0.89224-0.7794,1.85802-1.18259,2.78162c-0.35725,0.81841-0.80212,1.60313-1.10395,2.44036
		c-1.10164,3.05589-2.15956,6.12757-3.23425,9.19318c-0.03708,0.10577-0.09817,0.20728-0.11392,0.31573
		c-0.40364,2.77866-1.7366,5.29166-2.29443,8.03158c-0.15196,0.74652-0.58813,1.44834-0.96236,2.13326
		c-0.51264,0.93819-0.89346,1.91015-1.22073,2.93275c-0.51049,1.59496-1.20903,3.12988-1.83186,4.68867
		c-0.16571,0.41475-0.44541,0.81026-0.50324,1.23758c-0.41163,3.03982-1.37477,6.01844-1.03351,9.14511
		c0.04833,0.44269,0.02643,0.8978-0.0071,1.34385c-0.15027,1.99804,0.38745,3.8817,0.89494,5.7793
		c0.33411,1.24935,1.13321,2.03913,2.26202,2.53281c0.56123,0.24545,1.1605,0.41002,1.75157,0.57989
		c1.10094,0.31643,2.11305,0.03755,3.03613-0.56607c1.17636-0.76922,2.30724-1.59732,2.96955-2.9014
		c0.07459-0.14687,0.19099-0.2795,0.31057-0.39548c1.42399-1.38139,2.4184-3.07581,3.47041-4.7302
		c0.69055-1.08596,1.45397-2.12785,2.10337-3.23712c0.79139-1.35185,1.4958-2.75455,2.24139-4.13335
		c0.18629-0.3445,0.33903-0.7216,0.58795-1.0153c1.13602-1.34028,1.89833-2.89079,2.67597-4.44911
		c0.5967-1.1957,1.37566-2.30054,2.07505-3.44489c0.64251-1.05134,1.29432-2.09708,1.92905-3.15309
		c0.89382-1.48705,1.78658-2.97498,2.65569-4.4765c0.25069-0.43317,0.41257-0.91711,0.62566-1.37286
		c0.4267-0.91259,0.79057-1.86369,1.30513-2.72432c1.40839-2.35564,2.65295-4.79109,3.84618-7.26109
		c0.80169-1.65955,1.78909-3.22861,2.67012-4.8508c0.9317-1.71548,1.84325-3.44206,2.74467-5.17366
		c0.15268-0.2933,0.24575-0.62979,0.30507-0.95744c0.24677-1.36282,0.97799-2.48659,1.71188-3.6186
		c0.72859-1.12385,1.43903-2.26089,2.11414-3.4174c0.3584-0.61395,0.92065-0.79502,1.53787-0.85157
		c0.43748-0.04008,0.88631,0.0432,1.37138,0.07405c0.29214-0.23381,0.60228-0.47052,0.8996-0.72234
		c0.62335-0.52794,1.28444-0.57709,2.03212-0.26248c1.08437,0.45629,1.58792,1.45119,1.21632,2.57786
		c-0.175,0.5306-0.42441,1.03626-0.61124,1.56346c-0.22447,0.63342-0.44809,1.26984-0.61955,1.91885
		c-0.50328,1.90469-1.291,3.68689-2.1846,5.43708c-0.37727,0.73894-0.5779,1.56973-0.84222,2.36428
		c-0.38838,1.16774-0.75775,2.3418-1.14406,3.51025c-0.12289,0.37168-0.3231,0.72353-0.40421,1.10239
		c-0.60269,2.81548-1.81339,5.40769-2.94714,8.02478c-0.91166,2.1043-1.93244,4.16151-2.83518,6.26944
		c-0.41651,0.97256-0.74578,1.99911-0.97097,3.03249c-0.2422,1.11143-0.59723,2.15363-1.18488,3.12308
		c-0.07963,0.1313-0.09992,0.29854-0.19276,0.59126c0.61743-0.15954,0.92409-0.52046,1.1905-0.92744
		c0.88594-1.3534,1.7446-2.72534,2.65897-4.05919c0.47324-0.69037,1.04-1.3169,1.56785-1.96954
		c0.77388-0.95674,1.60974-1.86993,2.31163-2.87665c0.89948-1.29007,1.90837-2.48053,2.93571-3.66457
		c1.20964-1.39414,2.35234-2.84644,3.56462-4.23817c1.06563-1.22338,2.1907-2.39489,3.28217-3.59601
		c0.33839-0.37243,0.64566-0.77303,0.97977-1.14957c0.44598-0.50264,0.83363-1.09483,1.37041-1.47202
		c1.62788-1.14394,2.82724-2.70574,4.19139-4.10651c0.78452-0.80556,1.60954-1.55255,2.58006-2.13815
		c0.8624-0.52037,1.63766-1.14984,2.38008-1.84544c0.811-0.75988,1.77278-1.35778,2.66074-2.03682
		c1.92488-1.47194,4.07294-2.55312,6.23447-3.61955c1.09135-0.53843,2.16936-0.91942,3.38002-0.44569
		c0.10211,0.03996,0.22137,0.06786,0.32869,0.05798c1.54613-0.14223,2.31557,0.90446,3.0472,1.99549
		c0.26558,0.39605,0.30299,0.83794,0.10922,1.28386c-0.13377,0.30787-0.25569,0.62355-0.41905,0.91551
		c-1.42084,2.53937-2.84946,5.07436-4.27657,7.61021c-0.60338,1.07215-1.20988,2.14255-1.81223,3.2153
		c-0.13707,0.24416-0.30913,0.48117-0.38608,0.74455c-0.48099,1.64613-1.53499,2.97321-2.40627,4.4033
		c-0.29015,0.47626-0.54042,0.97891-0.7811,1.48279c-0.50471,1.05653-0.88721,2.16823-1.73828,3.04373
		c-0.33563,0.34528-0.54924,0.8568-0.69424,1.33061c-0.38206,1.24847-1.01994,2.3663-1.69702,3.45931
		c-0.50923,0.82206-0.89944,1.69512-1.1024,2.61819c-0.18483,0.84071-0.51683,1.58841-0.9283,2.32395
		c-0.57535,1.02849-1.04851,2.09807-1.36337,3.24163c-0.17755,0.645-0.42519,1.27761-0.70586,1.88598
		c-0.8358,1.81154-1.16165,3.74598-1.34259,5.70016c-0.13907,1.50187-0.12857,3.01772-0.17941,4.52754
		c-0.02075,0.6158,0.01633,1.23684-0.0498,1.84718c-0.17342,1.601,0.11792,3.15228,0.66602,4.61842
		c0.56581,1.51353,1.36432,2.93395,2.49269,4.13781c0.76611,0.81736,1.51755,1.64164,2.43889,2.29668
		c1.94896,1.38565,3.51181,1.34516,5.33058-0.16741c0.65735-0.54667,1.16338-1.20264,1.50496-1.99256
		c0.22157-0.51241,0.4467-1.03214,0.74582-1.5003c0.66058-1.03384,1.33656-2.04798,2.43585-2.71598
		c0.56537-0.34356,1.04765-0.84141,1.51704-1.3191c0.30797-0.31342,0.62328-0.68058,0.7674-1.08369
		c0.7149-1.99969,1.37851-4.01782,2.04868-6.03329c0.12328-0.37074,0.14998-0.77667,0.29523-1.13651
		c0.98378-2.43717,1.8925-4.89874,2.72916-7.39251c0.71129-2.12012,1.6048-4.18088,2.46028-6.25031
		c0.72701-1.75861,1.5009-3.49837,2.28442-5.23275c0.22858-0.50594,0.5623-0.96423,0.84624-1.4453
		c0.82486-1.39749,1.75716-2.73428,2.36017-4.25618c0.73288-1.84972,2.05119-3.3281,3.17284-4.92857
		c0.86615-1.23589,1.8616-2.37099,2.62164-3.69498c0.52322-0.91151,1.29652-1.68134,1.97177-2.5032
		c0.67502-0.82155,1.43893-1.58014,2.03444-2.45449c0.83511-1.22618,1.88629-2.18705,3.05516-3.07835
		c1.10583-0.84323,2.09438-1.83866,3.16467-2.73096c0.38222-0.31865,0.83954-0.55694,1.28537-0.78785
		c1.80124-0.93287,3.74799-1.47299,5.68036-2.04176c0.53125-0.15637,1.10062-0.2099,1.65685-0.24946
		c1.28474-0.09136,2.57173-0.1553,3.8587-0.20883c0.44464-0.0185,0.8992-0.01912,1.33687,0.05021
		c3.07277,0.48672,6.00978,1.30526,8.49791,3.32355c0.65108,0.52814,1.4023,0.91784,1.74585,1.88702
		c-0.23979,0.29789-0.45702,0.71022-0.79396,0.96296c-2.06133,1.5462-4.13731,3.0766-6.50694,4.13922
		c-0.25299,0.11345-0.52393,0.22607-0.79443,0.25005c-0.26488,0.02348-0.54259-0.05446-0.80899-0.11346
		c-0.10233-0.02267-0.19312-0.1106-0.28221-0.17798c-1.96492-1.48622-4.3024-1.81515-6.64215-2.0785
		c-0.82172-0.09248-1.67009,0.01705-2.50343,0.07535c-0.55707,0.03896-1.10669,0.18578-1.66374,0.22279
		c-1.88283,0.12509-3.5995,0.78673-5.2843,1.57058c-0.73868,0.34366-1.2843,0.90868-1.73105,1.55547
		c-1.01822,1.47413-2.20233,2.80039-3.41634,4.11262c-0.48051,0.51939-0.74677,1.23762-1.10757,1.86703
		c-0.63931,1.11526-1.25105,2.24726-1.91995,3.34445c-1.16521,1.91134-2.28255,3.84851-3.21777,5.88281
		c-0.30177,0.65646-0.5034,1.36095-0.72586,2.05151c-0.5343,1.65874-1.36182,3.18643-2.0811,4.76353
		c-0.3221,0.7062-0.58246,1.45984-0.73563,2.21922c-0.22464,1.11371-0.58966,2.15988-1.15288,3.13771
		c-0.56268,0.97691-1.00754,1.99633-1.2597,3.0991c-0.31445,1.37505-0.94962,2.62631-1.51936,3.90369
		c-0.20226,0.45341-0.43854,0.9287-0.48041,1.40958c-0.12183,1.39941-0.33881,2.77229-0.74724,4.11774
		c-0.32855,1.08223-0.20491,2.22601-0.37292,3.31497c-0.27692,1.79488,0.02228,3.38523,0.77243,5.01913
		c0.49805,1.0848,1.12952,2.04919,1.78809,3.01796c0.32588,0.47936,0.79034,0.62313,1.32092,0.50391
		c0.37769-0.08487,0.74184-0.24323,1.10104-0.39479c1.63739-0.69084,2.86719-1.92988,4.15706-3.09226
		c2.51457-2.26601,4.556-4.92623,6.44319-7.71275c0.87852-1.2972,1.70151-2.6319,2.5584-3.94392
		c0.27562-0.42197,0.54082-0.86043,0.87691-1.23143c1.09732-1.21136,1.86809-2.65491,2.84456-3.94262
		c1.28854-1.69932,2.41289-3.49266,3.55238-5.28517c0.44795-0.70466,1.1107-1.2757,1.53842-1.98981
		c1.32289-2.2087,2.59322-4.44942,3.85054-6.69642c0.24117-0.43096,0.33946-0.94417,0.48683-1.42459
		c0.11481-0.37425,0.0928-0.85217,0.32304-1.11854c0.94987-1.09892,1.41106-2.52467,2.44876-3.55754
		c0.82745-0.82362,1.6902-1.60862,2.26117-2.66764c0.1916-0.35544,0.62685-0.68689,1.01833-0.80473
		c0.79761-0.24007,1.63762-0.3552,2.4679-0.46111c0.25194-0.03214,0.55829,0.08597,0.7885,0.22194
		c0.38318,0.2263,0.73097,0.51499,1.08302,0.79101c0.69695,0.54647,0.95702,1.21937,0.56683,2.06757
		c-0.30307,0.65884-0.52283,1.37395-0.92439,1.96584c-0.88849,1.30968-1.52936,2.7325-2.16518,4.16843
		c-0.45251,1.022-1.05112,1.98209-1.46652,3.01717c-0.90126,2.24578-2.33002,4.20309-3.38077,6.36452
		c-0.92944,1.91188-1.81523,3.85079-2.97792,5.63581c-1.72327,2.64564-2.75565,5.61772-4.09691,8.4445
		c-0.76799,1.61854-1.45369,3.25594-2.04015,4.94906c-0.43784,1.26404-1.09724,2.44984-1.61824,3.68723
		c-0.25859,0.61418-0.44739,1.26051-0.62805,1.90344c-0.07559,0.26899,0.27856,0.54805,0.54649,0.46045
		c0.20972-0.06857,0.42589-0.14388,0.60851-0.26318c0.32774-0.21413,0.61037-0.50333,0.95029-0.69183
		c2.46312-1.36589,4.5648-3.23794,6.84206-4.86342c0.36342-0.25941,0.69931-0.55775,1.04468-0.84204
		c1.21046-0.99641,2.42365-1.98958,3.62793-2.99343c1.20474-1.00418,2.37474-2.03646,3.34631-3.28886
		c0.64909-0.83668,1.39323-1.60675,2.14851-2.35223c1.23-1.21404,2.03775-2.63056,2.41817-4.32484
		c0.19475-0.86729,0.50383-1.71961,0.85405-2.53903c0.72592-1.69849,1.45528-3.39153,1.94125-5.17986
		c0.26543-0.97674,0.70476-1.87273,1.2101-2.75733c0.94342-1.65148,1.76518-3.37195,2.67876-5.04117
		c0.69673-1.27302,1.44589-2.50729,2.29315-3.7015c0.87085-1.22749,1.6946-2.49787,2.60144-3.70434
		c1.71693-2.28419,3.55209-4.46671,5.52834-6.53683c2.24669-2.35342,4.76851-4.38522,7.28242-6.42831
		c1.77887-1.44572,3.564-2.88808,5.40826-4.24793c2.33998-1.72538,4.98529-2.50254,7.90451-2.20231
		c0.89127,0.09166,1.78015,0.22063,2.66342,0.37154c0.82797,0.14146,1.63367,0.34647,2.3588,0.82534
		c0.36404,0.24041,0.80936,0.3684,1.23053,0.50954c1.03192,0.34583,1.78461,0.94044,1.90048,2.09811
		c0.07092,0.70864,0.45645,1.26373,0.85809,1.79644c0.38464,0.51017,0.59827,1.06499,0.71228,1.68047
		c0.17319,0.93489,0.35214,1.86906,0.55121,2.79872c0.32388,1.51277,0.26752,2.99368-0.21393,4.47487
		c-0.65979,2.0298-1.5419,3.94238-2.57651,5.81493c-1.16647,2.11113-2.3584,4.20246-3.72556,6.18391
		c-1.37607,1.99439-3.21844,3.56666-5.06554,5.09821c-1.63326,1.35424-3.21457,2.78938-5.05791,3.87489
		c-1.15738,0.68154-2.31479,1.36309-3.46846,2.05088c-0.52754,0.3145-1.00873,0.75208-1.57523,0.94812
		c-2.48985,0.8616-4.7394,2.31792-7.3131,2.95375c-0.86566,0.21387-1.75862,0.33028-2.64555,0.43802
		c-0.31932,0.03878-0.67064-0.03683-0.98405-0.1348c-0.43311-0.13538-0.72821-0.65945-0.59782-1.07518
		c0.21666-0.69082,0.46469-1.31687,1.21288-1.70903c1.6308-0.85477,3.18309-1.85847,4.80507-2.73142
		c0.52434-0.28219,1.15814-0.44268,1.75557-0.49158c1.6097-0.13174,3.05757-0.57704,4.28967-1.6778
		c0.62357-0.55708,1.37335-0.97158,2.00679-1.51914c2.6145-2.25993,4.68025-4.95354,6.23511-8.03914
		c0.20149-0.39987,0.3613-0.825,0.5984-1.20195c1.15065-1.82926,1.76965-3.8609,2.29272-5.92989
		c0.08167-0.32301,0.18066-0.66655,0.14987-0.98896c-0.17548-1.83664-0.2861-3.68421-0.99544-5.42957
		c-0.37762-0.92921-0.99754-1.63411-1.84715-2.1013c-0.68208-0.37508-1.41708-0.68484-2.16345-0.90599
		c-1.84003-0.54523-3.55431-0.10548-5.12691,0.89047c-0.99013,0.62708-1.92696,1.34174-2.86218,2.05077
		c-0.57764,0.43793-1.20837,0.86234-1.6377,1.42767c-0.9122,1.2012-2.11726,2.16445-2.83647,3.51942
		c-0.10155,0.19128-0.26616,0.35778-0.42809,0.50701c-2.26462,2.08704-3.68762,4.7635-5.18398,7.38856
		c-0.72066,1.26425-1.44057,2.52895-2.15338,3.79765c-0.38426,0.68396-0.69183,1.38502-0.86145,2.17209
		c-0.17476,0.81104-0.45485,1.63079-0.85327,2.35647c-1.31094,2.38779-1.9026,5.01372-2.67613,7.58514
		c-0.52345,1.74021-0.53125,3.5359-0.74352,5.31048c-0.05319,0.44474-0.06648,0.89841-0.16479,1.33287
		c-0.35028,1.54813-0.46893,3.08949-0.13995,4.66457c0.11201,0.53632,0.05194,1.11727,0.01483,1.67414
		c-0.06458,0.96892,0.09955,1.89179,0.41498,2.80342c0.3662,1.05837,0.66568,2.14096,1.06136,3.18764
		c0.27467,0.72663,0.60114,1.4494,1.01506,2.10397c0.59755,0.94498,1.28435,1.83476,1.95348,2.73289
		c0.65961,0.88532,1.52208,1.47028,2.61891,1.69821c2.01479,0.41865,3.91408,0.36153,5.86969-0.5547
		c1.84836-0.86598,3.45386-2.05014,5.13226-3.14785c0.46254-0.3025,0.86989-0.70348,1.25804-1.10255
		c0.74074-0.76157,1.39548-1.61446,2.1832-2.32099c1.4583-1.30801,7.56339-8.16727,8.03001-8.89462
		c1.02542-1.59836,2.03036-3.21009,3.07303-4.79708c0.58273-0.88697,1.23026-1.73114,1.83603-2.60332
		c0.22113-0.31839,0.42059-0.65412,0.60464-0.99557c0.74634-1.38468,1.55179-2.72276,2.71609-3.81211
		c0.99722-0.93303,1.75815-2.02102,2.11227-3.36443c0.25247-0.95779,0.9856-1.61035,1.56219-2.35343
		c0.51328-0.66145,1.14066-1.23343,1.66803-1.88511c0.4198-0.51881,0.86356-1.05612,1.12094-1.66012
		c0.44537-1.04514,1.1181-1.93029,1.70935-2.87891c1.12292-1.80161,2.47632-3.45314,3.45105-5.35074
		c0.22873-0.44525,0.51703-0.87537,0.8493-1.24898c0.90686-1.01969,1.63278-2.12492,1.99008-3.46298
		c0.08148-0.30514,0.36093-0.55463,0.53531-0.83833c0.35159-0.57201,0.75726-1.12175,1.02695-1.731
		c0.65683-1.48389,1.52148-2.85013,2.28488-4.27316c0.47263-0.88098,0.77924-1.85469,1.12119-2.80094
		c0.27664-0.76552,0.6987-1.33025,1.4389-1.75887c0.76294-0.44177,1.41669-1.08374,2.08157-1.67903
		c0.42133-0.3772,0.84506-0.6921,1.38205-0.914c0.55832-0.23074,1.05444-0.62555,1.55411-0.98181
		c0.88211-0.62897,1.75909-0.73759,2.5975,0.03002c0.67517,0.61814,1.44299,0.74646,2.32669,0.71078
		c2.34702-0.09478,4.69672-0.12199,7.04517-0.18232c0.33563-0.00862,0.67593-0.02216,1.00461-0.08381
		c2.32541-0.4362,4.30597,0.43297,6.13599,1.70325c0.57623,0.39998,0.99048,1.05373,1.41803,1.63601
		c0.14093,0.19193,0.18359,0.55294,0.11151,0.78761c-0.31216,1.01639-0.60419,2.05141-1.05002,3.01165
		c-0.87155,1.87708-1.83981,3.70931-2.77032,5.55895c-0.8035,1.59722-1.58908,3.20399-2.42346,4.78498
		c-0.4953,0.93855-1.08939,1.82445-1.6048,2.75302c-1.49222,2.68835-3.25757,5.22699-4.40988,8.10288
		c-0.29071,0.72552-0.62152,1.4545-1.05713,2.09853c-1.01974,1.50761-1.51596,3.2178-2.15564,4.89046
		c-1.02124,2.67034-1.60608,5.46786-2.61795,8.14314c-0.97638,2.5815-1.30652,5.32837-0.93576,8.09914
		c0.11038,0.82491,0.38348,1.63395,0.63818,2.43234c0.44199,1.38559,0.97226,2.74412,1.38287,4.13834
		c0.43106,1.46355,1.36032,2.55779,2.43121,3.56207c0.23749,0.2227,0.55142,0.40042,0.86185,0.50262
		c1.50177,0.4945,3.01096,0.79714,4.60422,0.3502c2.13547-0.59905,4.04883-1.54992,5.76035-2.99287
		c2.0816-1.75499,3.76761-3.81606,5.21988-6.09425c0.17902-0.28082,0.40045-0.53452,0.58078-0.81462
		c0.42178-0.65527,0.83655-1.31528,1.24133-1.98119c0.14487-0.23829,0.22925-0.51445,0.38159-0.74686
		c0.65567-1.00011,1.77222-1.17957,2.72672-0.45139c0.13361,0.10194,0.25702,0.21812,0.39523,0.31306
		c0.71109,0.48851,0.80405,1.11477,0.55096,1.91383c-0.37711,1.19054-0.8959,2.29696-1.68121,3.26446
		c-1.12933,1.39136-2.28809,2.75879-3.42386,4.14498c-0.24658,0.30094-0.48608,0.61869-0.66553,0.96181
		c-1.04303,1.99442-2.37506,3.75566-3.858,5.46053c-1.37268,1.5781-2.95193,2.89864-4.44901,4.32325
		c-0.28192,0.26826-0.59161,0.53572-0.93695,0.70415c-1.70743,0.8327-3.39255,1.67752-5.30466,2.04681
		c-1.82834,0.35312-3.57483,0.15167-5.31381-0.29796c-2.3511-0.60789-4.31378-1.8649-5.74973-3.85002
		c-0.42233-0.58388-0.77603-1.2347-1.05878-1.89847c-0.50452-1.18432-0.96866-2.38904-1.38306-3.60789
		c-1.17261-3.44901-1.6178-6.97675-0.96326-10.59084c0.24881-1.37388,0.63507-2.72335,0.87115-4.09896
		c0.40668-2.36971,1.36301-4.61656,1.54202-7.03546c0.02011-0.27184,0.1084-0.54753,0.21121-0.80285
		c0.68753-1.70726,1.48029-3.35601,2.40015-4.95982c0.9996-1.74288,1.78836-3.60611,2.68265-5.41013
		c0.81924-1.6526,1.65451-3.29728,2.48877-4.94236c0.1008-0.19874,0.25937-0.36848,0.35748-0.56822
		c1.18427-2.41099,2.36279-4.8248,3.54092-7.2388c0.12271-0.25142,0.19974-0.53161,0.35498-0.75962
		c1.11734-1.64101,1.58875-3.57688,2.45041-5.33389c0.09753-0.19888,0.16736-0.41895,0.20752-0.63702
		c0.1507-0.81787-0.22629-1.47975-1.03418-1.65704c-0.47864-0.10505-1.02914-0.16132-1.48706-0.02975
		c-1.37799,0.39591-2.79477,0.27535-4.17163,0.26662c-1.17947-0.00747-2.33792,0.12989-3.50702,0.1567
		c-0.68881,0.0158-1.19357,0.36632-1.43353,0.98908c-0.57587,1.49457-1.60504,2.68371-2.5509,3.93221
		c-0.23648,0.31215-0.50653,0.61279-0.67465,0.96054c-1.10471,2.28463-2.60706,4.30769-4.11285,6.32976
		c-0.06693,0.08989-0.15399,0.16904-0.20285,0.2675c-1.23117,2.48128-3.21466,4.44132-4.68274,6.74984
		c-1.26431,1.98805-2.57962,3.91914-4.13034,5.6935c-0.36414,0.41663-0.59909,0.94347-0.92197,1.39941
		c-0.64655,0.91305-1.22293,1.89831-1.99023,2.69846c-1.45074,1.51284-2.56375,3.25195-3.6431,5.01824
		c-0.70493,1.15353-1.48462,2.25425-2.46875,3.16089c-1.37811,1.26965-2.48666,2.73367-3.44644,4.31793
		c-0.59015,0.97411-1.27731,1.83883-2.21069,2.4958c-0.84415,0.5942-1.40729,1.42831-1.98625,2.25786
		c-0.57484,0.82362-1.17863,1.62868-1.80414,2.41449c-0.23975,0.30121-8.24944,7.94471-10.31158,9.55865
		c-1.4174,1.10931-2.77124,2.24333-3.98071,3.56514c-0.14798,0.16173-0.35298,0.27104-0.53041,0.40614
		c-1.44043,1.09676-3.17897,1.63634-4.73621,2.5175c-0.37093,0.20988-0.86327,0.22672-1.306,0.28459
		c-2.60602,0.34065-5.13652,0.01198-7.58519-0.9258c-0.35837-0.13727-0.70633-0.35452-0.99683-0.60655
		c-0.97252-0.84372-1.93794-1.698-2.86534-2.59056c-0.78604-0.75652-1.18767-1.75111-1.53221-2.76682
		c-0.61156-1.80287-1.2164-3.6082-1.84995-5.40337c-0.24451-0.69279-0.4278-1.37949-0.42462-2.12477
		c0.00214-0.49928-0.09642-1.00205-0.18068-1.49805c-0.27245-1.60361-0.5036-3.2085-0.44908-4.84379
		c0.01651-0.49447-0.04892-0.99168-0.08549-1.64206c-0.30222,0.14428-0.49767,0.20467-0.65535,0.31774
		c-2.92818,2.09947-5.35132,4.75517-7.92232,7.24463c-1.97322,1.91064-4.09081,3.64776-6.17921,5.42346
		c-1.53732,1.30716-3.07498,2.60062-4.84245,3.59909c-0.53247,0.30081-0.99512,0.7244-1.49356,1.0865
		c-0.58626,0.42592-1.14348,0.90651-1.77394,1.25305c-0.73741,0.40532-1.19095,0.98354-1.47954,1.74689
		c-0.3557,0.94092-0.72707,1.87648-1.1187,2.80293c-0.15088,0.35692-0.38644,0.67706-0.56509,1.02342
		c-0.28015,0.54311-0.55034,1.09154-0.81453,1.64261c-0.33788,0.70468-0.57072,1.48172-1.0164,2.10838
		c-1.10268,1.55052-1.85025,3.33206-3.16473,4.74692c-0.45027,0.48466-0.71864,1.13361-1.11292,1.67641
		c-0.36006,0.49568-0.74399,0.98337-1.17661,1.4153c-1.46297,1.46056-2.95531,2.89165-4.42833,4.34222
		c-0.23827,0.23466-0.45378,0.49803-0.64804,0.77078c-0.65404,0.91838-1.42313,1.71931-2.28673,2.44693
		c-0.51022,0.42989-0.95042,0.9502-1.38391,1.46217c-0.73685,0.87027-1.59473,1.54053-2.66515,1.97665
		c-0.66487,0.27089-1.31165,0.64188-1.88084,1.07942c-0.95049,0.73062-1.99049,1.22565-3.13487,1.54851
		c-0.48096,0.13568-0.94214,0.34595-1.40559,0.53851c-2.12466,0.8828-4.27837,1.68536-6.57915,1.94981
		c-1.16336,0.13373-2.3423,0.13383-3.51456,0.18692c-0.22311,0.0101-0.45107-0.04356-0.67131-0.01895
		c-2.19577,0.24544-4.35614-0.03319-6.50484-0.44357c-0.71049-0.13571-1.42793-0.28607-2.10599-0.53023
		c-1.47433-0.53085-2.93298-1.10771-4.38353-1.70128c-1.20396-0.49265-2.45554-0.78198-3.73643-0.93678
		c-0.86412-0.10443-1.61317-0.38989-2.27617-0.96643c-0.37642-0.32735-0.83963-0.55359-1.25668-0.83583
		c-0.88464-0.59869-1.71205-1.23761-2.25131-2.21194c-0.29329-0.52991-0.69795-1.04158-1.16507-1.42372
		c-1.3817-1.13034-2.23288-2.65903-3.06676-4.15717c-0.59067-1.06111-0.75259-2.33482-0.56319-3.59138
		c0.0834-0.55336,0.22577-1.10268,0.25534-1.65842c0.10806-2.0284,1.09454-3.58936,2.49319-4.97395
		c0.46942-0.46472,0.83789-1.03897,1.21271-1.59024c0.87144-1.28183,2.54448-1.44806,3.57253-0.30124
		c0.29062,0.32419,0.55338,0.72791,0.67155,1.14024c0.21411,0.74727,0.34468,1.52388,0.44536,2.29669
		c0.09579,0.73549,0.23949,1.43254,0.72157,2.02589c0.17578,0.21631,0.34254,0.45053,0.46075,0.70139
		c1.16702,2.47676,3.28149,4.06616,5.36664,5.66173c0.45935,0.3515,1.12627,0.50426,1.72086,0.59325
		c1.95772,0.293,3.79204,0.94786,5.57037,1.7774c1.17978,0.55035,2.40038,0.92628,3.69438,1.07014
		c0.38907,0.04324,0.81438,0.0304,1.15515,0.18912c1.18164,0.55035,2.3853,0.43306,3.6273,0.32704
		c1.50479-0.12846,3.02209-0.1095,4.53387-0.15784c0.33533-0.01074,0.69188,0.03212,1.00169-0.06619
		c1.7036-0.54066,3.40202-1.0995,5.08882-1.69032c0.73669-0.25804,1.44954-0.58975,2.1588-0.9191
		c0.91197-0.42348,1.81384-0.86952,2.71097-1.32384c0.34872-0.17661,0.64944-0.47176,1.01213-0.59256
		c1.06616-0.35516,1.82033-1.05991,2.43111-1.96526c0.12347-0.18304,0.27959-0.36371,0.46115-0.48476
		c1.2412-0.82756,2.10907-1.97893,2.92296-3.20294c0.61386-0.9232,1.36719-1.72743,1.92738-2.72083
		c0.86189-1.52831,1.48175-3.12811,2.0728-4.75797c0.51482-1.41963,1.09996-2.81509,1.57558-4.24728
		c0.81131-2.44302,1.54958-4.9102,2.34532-7.35854c0.18773-0.5776,0.48242-1.1204,0.72714-1.67954
		c0.11169-0.25518,0.2541-0.50222,0.32716-0.76818c0.66843-2.43322,1.48317-4.81146,2.5703-7.09364
		c0.26097-0.5479,0.49002-1.12056,0.43553-1.72335c-0.37784-0.27991-0.56863-0.02518-0.73601,0.17545
		c-2.00793,2.40726-4.08157,4.75857-5.98257,7.25637c-2.03406,2.67262-4.14899,5.27951-6.58563,7.61156
		c-0.97849,0.93648-2.03932,1.74925-3.16199,2.48926c-0.32281,0.21277-0.68832,0.41678-1.06046,0.48802
		c-1.04327,0.19975-2.09589,0.37517-3.15289,0.47217c-1.20476,0.11057-2.1982-0.38562-2.93361-1.33231
		c-1.66086-2.13806-3.02753-4.43301-3.69641-7.09321c-0.07697-0.30614-0.26865-0.58344-0.38243-0.82228
		c-0.65761-0.1261-1.10454,0.17214-1.4855,0.47092c-1.66953,1.30933-3.49669,2.4225-4.94904,4.00551
		c-0.75581,0.82382-1.54254,1.62471-2.36826,2.37788c-2.17729,1.98602-4.62778,2.61652-7.43076,1.41817
		c-1.14163-0.48808-2.22258-1.06796-3.1696-1.87411c-2.32625-1.98022-4.31-4.23827-5.64409-7.01785
		c-0.79187-1.64984-1.07919-3.43278-1.13924-5.21991c-0.08441-2.5127-0.05954-5.035,0.05779-7.54669
		c0.09421-2.01647,0.59695-3.97799,1.22488-5.90321c0.73141-2.24252,1.68105-4.39304,2.65819-6.53394
		c0.13954-0.30572,0.35609-0.60493,0.39348-0.92397c0.2469-2.10735,1.46011-3.85703,2.13806-5.80463
		c0.45515-1.30762,1.28038-2.48168,1.86705-3.74928c1.26859-2.74111,3.00157-5.24211,4.11723-8.06329
		c0.34875-0.88189,0.85118-1.70224,1.26788-2.55824c0.48956-1.00568,0.9397-2.03109,1.44801-3.02699
		c0.68602-1.34406,1.40308-2.67255,2.12415-3.9983c0.23959-0.44051,0.39398-0.88158,0.40913-1.50343
		c-0.64305,0.41662-1.12987,0.7847-1.66214,1.06721c-1.75426,0.9311-3.26288,2.11953-4.49477,3.7091
		c-0.67552,0.87171-1.58156,1.57338-2.42456,2.30457c-1.10246,0.9562-2.21559,1.88792-2.98807,3.16053
		c-0.19629,0.32341-0.5228,0.58127-0.82565,0.82416c-1.3721,1.10047-2.50232,2.40153-3.33922,3.95112
		c-0.35129,0.65039-0.83138,1.17703-1.3951,1.65754c-1.41374,1.20512-2.73129,2.53493-3.6496,4.14584
		c-0.72942,1.27959-1.66194,2.38157-2.53087,3.5433c-0.70358,0.94071-1.43866,1.85833-2.12592,2.81062
		c-0.35916,0.4977-0.64403,1.04891-0.96509,1.57433c-0.20421,0.33415-0.36139,0.71616-0.62892,0.98924
		c-1.27357,1.29993-1.98365,2.97205-2.99048,4.44663c-0.15706,0.23006-0.31281,0.47799-0.39269,0.7409
		c-0.39977,1.3153-1.2826,2.34149-2.10207,3.37787c-1.0205,1.29068-1.75934,2.71937-2.48269,4.1763
		c-0.82082,1.65319-1.70238,3.27625-2.56001,4.91112c-0.38976,0.74298-0.78154,1.48494-1.18023,2.22314
		c-0.18497,0.34246-0.3891,0.67458-0.58382,1.01181c-0.36362,0.62976-0.74731,1.24905-1.0851,1.8924
		c-0.46709,0.88961-0.89993,1.79721-1.34628,2.69765c-0.07462,0.15054-0.19017,0.29879-0.20761,0.45686
		c-0.16488,1.49477-1.18083,2.51019-2.05309,3.58632c-0.98646,1.21707-2.06323,2.36057-3.08675,3.54811
		c-0.32666,0.379-0.57415,0.82988-0.92032,1.18741c-0.3827,0.39525-0.79494,0.79826-1.2706,1.05823
		c-0.63382,0.34639-1.38872,0.02434-1.68871-0.63248c-0.26295-0.5757-0.3504-1.18826-0.17385-1.80484
		c0.41331-1.44307,0.40914-3.00964,1.27219-4.31995c0.83056-2.72747,1.65485-5.45688,2.49552-8.18123
		c0.24754-0.80217,0.45158-1.63671,0.83401-2.37424c0.70284-1.35545,1.08041-2.82092,1.61204-4.23344
		c0.41379-1.09944,0.83423-2.19639,1.24859-3.29563c0.11817-0.31355,0.26541-0.62315,0.33095-0.94836
		c0.36718-1.82254,1.10523-3.51642,1.7226-5.25705c0.68844-1.94098,2.95181-8.12539,3.17843-9.30201
		C117.271,95.30659,113.3515,101.36077,112.51873,103.82413z"/>
	<path class="st1" d="M59.43012,104.68122c-1.60065,1.14227-2.48734,2.8351-3.5146,4.42052
		c-0.42452,0.65518-0.86953,1.29708-1.29721,1.95028c-0.85821,1.31078-1.69759,2.63409-2.57029,3.93509
		c-0.62285,0.92856-1.28872,1.82822-1.9327,2.74266c-0.32237,0.45771-0.66391,0.90442-0.95332,1.38243
		c-1.01553,1.67715-2.0757,3.32069-3.3727,4.79998c-0.18373,0.20959-0.35223,0.43993-0.48825,0.68279
		c-1.02514,1.83075-2.46105,3.34084-3.95304,4.76286c-2.0325,1.93718-4.27679,3.70268-6.95522,4.60146
		c-3.23565,1.08578-6.56616,1.24271-9.46043-0.98676c-2.31236-1.78127-4.40783-3.80908-5.37102-6.7253
		c-0.38474-1.16496-1.01273-2.25075-1.3821-3.41933c-0.7758-2.45432-1.61001-4.89497-2.044-7.44737
		c-0.4423-2.60126-0.75735-5.20697-0.67996-7.85404c0.07035-2.40608,0.02369-4.81719,0.15342-7.21935
		c0.0811-1.50132,0.36855-2.99421,0.611-4.48313c0.15273-0.93809,0.42263-1.85666,0.5891-2.79304
		c0.46324-2.60559,1.4647-5.05163,2.20645-7.57442c0.17345-0.58993,0.38989-1.17982,0.46146-1.78455
		c0.16659-1.407,0.64364-2.70885,1.14303-4.01923c0.45799-1.20173,0.76565-2.46036,1.214-3.66625
		c0.76084-2.04641,1.52699-4.09399,2.38986-6.09848c0.88469-2.05514,1.89678-4.05515,2.83735-6.08659
		c1.22302-2.64155,2.55168-5.2262,4.00243-7.75132c1.03143-1.79525,1.92915-3.66863,2.99161-5.44427
		c0.80222-1.34078,1.76149-2.58863,2.66794-3.8657c0.80928-1.14011,1.6083-2.29014,2.47364-3.38704
		c0.90015-1.14107,1.83791-2.25761,2.82715-3.32174c0.87424-0.94046,1.88581-1.75346,2.75733-2.69616
		c1.1137-1.20469,2.41848-2.15707,3.73471-3.10987c1.49582-1.08279,2.96703-2.1995,4.45196-3.29741
		c1.73054-1.27951,3.66566-2.14751,5.6987-2.81542c1.54012-0.50598,3.04236-1.11129,4.67812-1.32031
		c2.44792-0.31279,4.79517-0.1366,7.05254,0.94322c1.36261,0.65181,2.76305,1.21111,4.05931,2.01157
		c1.14095,0.70454,2.38097,1.24658,3.55784,1.89559c0.83061,0.45804,1.67771,0.90995,2.43191,1.47815
		c1.96553,1.48076,3.99263,2.89026,5.738,4.64485c0.15788,0.15873,0.34225,0.29199,0.49376,0.45604
		c0.46428,0.50275,0.50858,0.95314,0.15634,1.52171c-0.08807,0.14213-0.17863,0.29382-0.30278,0.40079
		c-1.52109,1.31042-2.78533,2.92953-4.65969,3.81887c-0.44448,0.21088-0.84385,0.5458-1.21272,0.88022
		c-0.54556,0.49463-1.10136,0.50449-1.68537,0.13399c-0.42435-0.26921-0.82633-0.57446-1.23186-0.87241
		c-1.89443-1.39189-3.70405-2.921-5.69913-4.14903c-2.95531-1.81913-6.06817-3.37182-9.33407-4.58418
		c-0.7417-0.27533-1.50861-0.36806-2.3074-0.36423c-2.41658,0.0116-4.58702,0.86403-6.77434,1.77299
		c-3.2084,1.33326-5.98778,3.26295-8.45245,5.67833c-0.95469,0.93556-1.89595,1.8856-2.81808,2.8531
		c-0.22435,0.23539-0.37196,0.55474-0.51591,0.8542c-1.11967,2.32943-2.45444,4.52591-4.00653,6.59323
		c-0.26409,0.35178-0.47026,0.75267-0.66571,1.14934c-0.59237,1.20211-1.13445,2.42989-1.7536,3.61771
		c-1.70654,3.27401-3.45663,6.52562-4.93959,9.91082c-0.04494,0.10259-0.10067,0.20341-0.12647,0.31101
		c-0.58938,2.45745-1.63107,4.75009-2.52879,7.09822c-0.49668,1.29924-0.71253,2.70453-1.08065,4.05502
		c-0.11586,0.425-0.3167,0.82668-0.47594,1.24007c-0.46128,1.19746-1.01573,2.36897-1.36035,3.5992
		c-0.57244,2.04329-1.01761,4.1226-1.49829,6.19094c-0.11366,0.48916-0.18999,0.9926-0.22473,1.49355
		c-0.18962,2.7361-0.42422,5.47121-0.52202,8.211c-0.11628,3.25606,0.1559,6.50538,0.89615,9.67467
		c0.4066,1.74081,0.84322,3.47437,1.22961,5.22221c0.21402,0.96826,0.70173,1.88605,1.13714,2.79247
		c0.41074,0.855,0.93118,1.65655,1.37404,2.49704c0.91369,1.73412,2.47426,2.86479,3.85895,4.15729
		c0.1895,0.1769,0.49572,0.24259,0.75909,0.32309c0.32057,0.09798,0.65117,0.16626,0.98057,0.23156
		c1.8246,0.36168,3.5537,0.25924,5.13-0.89814c1.39815-1.02659,2.84859-1.98187,4.27196-2.97433
		c0.18245-0.12721,0.36797-0.26686,0.50646-0.43772c1.8647-2.30052,3.94622-4.42773,5.3659-7.0793
		c0.57508-1.0741,1.37599-2.03868,2.14918-2.99223c0.85192-1.05066,1.62916-2.13152,2.14996-3.3884
		c0.58799-1.41902,1.48225-2.63593,2.59724-3.6787c0.63184-0.5909,1.04786-1.28332,1.37831-2.074
		c0.69508-1.66319,1.57921-3.20818,2.91897-4.46673c0.39446-0.37059,0.74069-0.85841,0.93879-1.35976
		c0.58218-1.47358,1.33301-2.85159,2.32005-4.07419c1.04025-1.28851,1.69783-2.76275,2.31964-4.26162
		c0.53545-1.29065,1.16096-2.52682,1.82998-3.75489c0.58358-1.07129,0.94329-2.27068,1.34315-3.43368
		c0.25521-0.7423,0.53013-1.45694,0.9018-2.15777c0.46766-0.8819,0.83429-1.84017,1.0842-2.80693
		c0.1716-0.66397,0.40413-1.2605,0.74288-1.8481c0.38935-0.6754,0.74007-1.38002,1.0312-2.10271
		c0.19926-0.4947-0.08961-0.88091-0.64223-0.93219c-0.44302-0.04111-0.89438-0.03136-1.33955-0.00397
		c-2.12275,0.1306-4.24928,0.4338-6.36563,0.3719c-2.3475-0.06866-4.69901,0.19816-7.04658-0.12968
		c-0.81692-0.11407-1.67627,0.00594-2.50886,0.0913c-1.12796,0.11565-2.23764,0.08597-3.33811-0.18893
		c-0.5459-0.13638-1.08578-0.2875-1.4876-0.87802c-0.03478-0.67764,0.24083-1.33847,0.59928-1.97486
		c1.04287-1.85159,2.10704-3.69144,3.12661-5.55573c0.43089-0.78795,1.04631-1.09154,1.92033-1.0602
		c1.90296,0.06825,3.82481-0.04679,5.70665,0.18039c2.29651,0.27725,4.58196,0.02153,6.87275,0.12645
		c2.22662,0.10198,4.46977-0.16801,6.70616-0.26305c1.2309-0.0523,2.46317-0.07283,3.69421-0.1228
		c0.72665-0.0295,1.45884-0.04127,2.17676-0.14362c1.75043-0.24955,2.30164,0.012,3.24384,1.69412
		c-0.37302,0.65761-0.88029,1.25253-1.46011,1.77028c-0.51919,0.46363-0.83159,1.03251-1.13304,1.6415
		c-0.86771,1.75317-1.7972,3.47585-2.6601,5.23129c-0.44268,0.90052-0.82737,1.83325-1.18144,2.77284
		c-0.66969,1.77718-1.21193,3.59566-1.96579,5.34944c-1.12659,2.62089-2.08069,5.31577-3.11636,7.97598
		c-0.40556,1.0417-0.86635,2.0629-1.24384,3.11433c-0.71865,2.00172-1.38749,4.02128-2.09476,6.02716
		c-0.20444,0.57979-0.48338,1.13284-0.70388,1.70745c-0.54134,1.41071-1.06371,2.82867-1.60264,4.24028
		c-0.63454,1.66209-1.13165,3.37327-1.84905,5.00676c-1.07927,2.45747-1.7189,5.08444-2.91056,7.50608
		c-0.36117,0.73397-0.40582,1.62181-0.6088,2.43584c-0.65142,2.61255-1.60136,5.12891-2.47848,7.66883
		c-0.52939,1.53297-1.03075,3.07581-1.57511,4.60336c-0.28143,0.78967-0.58203,1.57922-0.95568,2.32806
		c-1.1738,2.35214-1.9233,4.89357-3.343,7.14319c-0.9524,1.50916-1.63455,3.18604-2.51201,4.74603
		c-1.04031,1.84956-1.96124,3.7704-3.19714,5.50684c-0.12949,0.18198-0.24152,0.37961-0.3901,0.5443
		c-1.65422,1.83383-2.92553,3.93481-4.19361,6.03517c-0.32732,0.54214-0.69704,1.00528-1.24611,1.32751
		c-0.68042,0.39931-1.27212,0.89691-1.78927,1.50545c-0.66257,0.77962-1.55218,1.27484-2.4587,1.72047
		c-0.65304,0.32103-1.3472,0.56221-1.98623,0.90714c-1.32283,0.714-2.77804,0.82004-4.2201,1.01256
		c-3.23039,0.43124-6.47262,0.57228-9.72308,0.33928c-1.46898-0.1053-2.82723-0.58911-4.10601-1.35071
		c-2.21285-1.31786-4.42418-2.64746-6.70743-3.83517c-2.0644-1.07388-3.63072-2.6203-4.7965-4.57117
		c-0.50725-0.84885-0.77948-1.84303-1.11665-2.78615c-0.13011-0.36391-0.12954-0.77249-0.21377-1.15518
		c-0.44643-2.02866,0.14285-3.82416,1.06887-5.61852c0.5412-1.04875,1.44261-1.8105,1.91879-2.91628
		c0.41146-0.9554,1.49657-1.1541,2.46519-0.69325c1.04503,0.49719,1.75991,1.21619,2.14735,2.40994
		c0.69937,2.15486,2.01259,3.9868,3.5948,5.6071c0.26793,0.27441,0.6222,0.47768,0.96328,0.66528
		c1.46864,0.80777,2.95427,1.58482,4.41893,2.3996c0.63517,0.35332,1.27846,0.71637,1.84169,1.16985
		c1.34968,1.08664,2.90135,1.44547,4.56974,1.32001c2.67895-0.20145,5.35449-0.45378,8.0275-0.72395
		c0.4864-0.04916,0.98412-0.22623,1.42421-0.44818c1.24981-0.63037,2.47952-1.30202,3.70132-1.98566
		c0.33584-0.18791,0.6329-0.45682,0.91882-0.72c0.78183-0.7197,1.57641-1.42924,2.30908-2.19708
		c0.37899-0.39717,0.67631-0.88803,0.94334-1.37352c1.02452-1.86267,2.0054-3.74939,3.03368-5.60994
		c1.13968-2.0621,2.13609-4.18829,3.01222-6.37462c0.60188-1.50189,1.31725-2.96196,1.85084-4.48657
		c0.64442-1.84135,1.41462-3.65116,1.52381-5.65466c0.0608-1.11558,0.39136-2.19308,0.88594-3.22139
		c0.75333-1.56621,1.37809-3.18641,1.80362-4.8783c0.09512-0.37814,0.22309-0.75319,0.38148-1.10941
		C57.78043,111.00719,58.44379,107.81419,59.43012,104.68122z"/>
	<path class="st1" d="M104.28603,52.11411c-1.35072-0.05447-2.66617-0.33451-3.81376-1.09877
		c-0.49892-0.3323-1.07439-0.74154-1.30077-1.25455c-0.63321-1.43455-1.01644-2.93422-0.7623-4.56104
		c0.28165-1.80278,1.22056-3.22973,2.34786-4.56749c0.82777-0.98234,1.68836-1.93985,2.57771-2.86678
		c1.04543-1.08961,2.11507-2.15837,3.21568-3.19204c1.29322-1.21454,2.88228-1.37413,4.55031-1.12434
		c0.21386,0.03203,0.43307,0.13746,0.61427,0.26101c1.24684,0.85017,2.55654,1.62796,3.22006,3.10157
		c0.15179,0.33712,0.47974,0.6067,0.7599,0.87226c1.41727,1.34344,1.99534,2.94897,1.51395,4.87011
		c-0.1765,0.70433-0.39322,1.40437-0.66111,2.07877c-0.50212,1.26417-1.33687,2.18908-2.74209,2.47628
		c-0.27063,0.05532-0.55831,0.13184-0.78532,0.27966c-2.1525,1.40156-4.55843,2.39772-6.52628,4.09606
		C105.87109,52.02249,105.12322,52.22959,104.28603,52.11411z"/>
</g>
</svg>
