<?xml version="1.0" encoding="utf-8"?>
<!-- Generator: Adobe Illustrator 25.4.1, SVG Export Plug-In . SVG Version: 6.00 Build 0)  -->
<svg version="1.1" id="Layer_1" xmlns="http://www.w3.org/2000/svg" xmlns:xlink="http://www.w3.org/1999/xlink" x="0px" y="0px"
	 viewBox="0 0 617.41382 188.99892" style="enable-background:new 0 0 617.41382 188.99892;" xml:space="preserve">
<style type="text/css">
	.st0{fill:#EFEDE6;}
	.st1{fill:#EFEDE5;}
	.st2{fill:#B48039;}
	.st3{fill:#AD8246;}
	.st4{fill:none;stroke:#B48039;stroke-width:0.99892;stroke-miterlimit:10;}
	.st5{fill:#FF00FF;}
	.st6{fill:#00FFFF;}
	.st7{fill:#606060;}
	.st8{fill:#A7834F;}
</style>
<path class="st2" d="M613.61755,58.4539c-0.42249-0.61269-0.88654-1.22267-1.43878-1.71409
	c-0.91339-0.81293-1.88501-1.56868-2.88696-2.27039c-0.51617-0.36168-1.12585-0.66183-1.73657-0.80237
	c-1.39111-0.32013-2.79565-0.65738-5.93274,0.68899c-0.59131,0.25378-0.94031,0.76694-1.50183,1.02842
	c-0.42822,0.19922-0.85815,0.42295-1.22961,0.71043c-0.94287,0.72959-1.87701,1.47435-2.77142,2.262
	c-1.50476,1.32521-3.0011,2.66201-4.45319,4.0442c-1.06946,1.01794-2.09436,2.0875-3.08081,3.18639
	c-1.01819,1.13426-2.11591,2.20827-2.87115,3.56228c-0.21332,0.38249-0.53754,0.70569-0.8266,1.04256
	c-1.21545,1.41688-2.46118,2.80842-3.64954,4.24751c-1.34637,1.63042-2.6355,3.30805-3.96356,4.95371
	c-1.13617,1.40766-2.29468,2.79723-3.4389,4.19842c-1.02283,1.2527-2.04614,2.50506-3.0556,3.76844
	c-0.36102,0.45174-0.69727,0.92529-1.01855,1.40636c-0.49542,0.74172-0.90594,1.54902-1.46429,2.23797
	c-1.00043,1.23442-2.07947,2.40388-2.67053,3.91496c-0.0603,0.15417-0.15521,0.29919-0.2547,0.43316
	c-1.07739,1.45041-2.11206,2.93608-3.25323,4.33467c-1.03802,1.27225-2.19482,2.44749-3.29614,3.66833
	c-1.28662,1.42625-2.57446,2.85158-3.85315,4.28498c-0.92523,1.03716-1.83069,2.09199-2.75519,3.12964
	c-0.83142,0.93295-1.67487,1.8551-2.51855,2.77709c-0.13074,0.14305-0.27802,0.27861-0.4389,0.38549
	c-1.12347,0.74588-2.05255,1.69022-2.97467,2.6721c-1.00696,1.072-2.1546,2.02045-3.29926,2.95102
	c-0.57507,0.46758-1.31506,0.72791-1.91461,1.17112c-0.51135,0.37815-1.05646,0.54657-1.64478,0.46953
	c-0.62897-0.08246-1.24884-0.26402-1.85803-0.45042c-0.19568-0.05982-0.3938-0.24193-0.50647-0.42111
	c-0.7348-1.16779-1.32654-2.39043-1.38428-3.81039c-0.0202-0.50118-0.07837-1.00295-0.1532-1.49931
	c-0.27795-1.84607-0.05457-3.67107,0.22784-5.49107c0.07611-0.49157,0.2124-0.95081,0.10071-1.47423
	c-0.08289-0.38838,0.00311-0.83578,0.1015-1.23518c0.19257-0.78048,0.4317-1.55059,0.67804-2.31651
	c0.43341-1.34817,0.56836-2.7867,1.258-4.05945c0.23785-0.43868,0.41693-0.91491,0.57538-1.38979
	c0.45703-1.36867,0.84637-2.76138,1.34644-4.11366c0.38544-1.04282,0.89075-2.0419,1.35712-3.05392
	c0.21021-0.45636,0.4892-0.88281,0.67847-1.3467c0.72668-1.7811,1.42627-3.57314,2.14246-5.35839
	c0.42529-1.0601,0.76526-2.1704,1.32147-3.15797c0.63068-1.11971,1.14093-2.27896,1.64874-3.45175
	c0.41577-0.95996,0.97906-1.85484,1.44495-2.79456c1.05206-2.12292,2.07806-4.25893,3.12701-6.38352
	c0.59137-1.19768,1.20142-2.38636,1.81458-3.5732c0.383-0.74142,0.77991-1.47584,1.18475-2.20557
	c0.25537-0.46048,0.50952-0.92573,0.81293-1.35452c0.43359-0.6128,0.93774-1.17624,1.36456-1.79332
	c0.61047-0.88228,0.17987-2.80114-0.93298-3.05047c-0.30994-0.06949-0.58905-0.30961-0.8631-0.49927
	c-0.59875-0.41405-0.99567-0.42823-1.59601,0.00226c-0.52985,0.37982-1.08557,0.60282-1.76282,0.6365
	c-0.3999,0.01991-0.78986,0.31802-1.17523,0.50905c-0.16498,0.08183-0.29974,0.28911-0.46057,0.30355
	c-1.07001,0.096-1.52539,0.95102-2.04681,1.67863c-0.21649,0.30213-0.41321,0.55452-0.73022,0.75755
	c-0.4801,0.30737-0.86694,0.67023-1.14264,1.24413c-0.36987,0.77011-0.50323,1.61852-1.01044,2.35645
	c-0.68433,0.99607-1.16821,2.13223-1.71698,3.21888c-0.70325,1.3924-1.39703,2.78972-2.073,4.19537
	c-0.5083,1.05672-0.95123,2.14545-1.47882,3.19191c-0.74976,1.48726-1.55017,2.94909-2.33014,4.42125
	c-0.06494,0.12265-0.12646,0.24969-0.20898,0.36042c-0.74402,1.00019-1.52319,1.97596-2.22937,3.00208
	c-0.53406,0.7758-0.99695,1.60335-1.45422,2.42843c-0.60626,1.09415-1.12103,2.24237-1.77643,3.30484
	c-0.74622,1.2094-1.60675,2.34795-2.41193,3.5211c-0.37305,0.5438-0.73438,1.09566-1.09833,1.64559
	c-0.81488,1.23155-1.68066,2.43332-2.42578,3.7057c-0.6322,1.07927-1.19867,2.18797-1.93042,3.21568
	c-0.78857,1.10723-1.52435,2.27367-2.11279,3.4964c-0.71515,1.48566-2.14905,2.84374-3.15155,4.10456
	c-0.05664,0.07356-1.90326,2.11444-2.84497,2.98509c-1.00134,0.92564-2.02997,1.83556-3.13251,2.63386
	c-1.03888,0.75214-2.13171,1.41667-2.98865,2.39779c-0.23123,0.26475-0.58533,0.41982-0.87311,0.6383
	c-0.62192,0.47206-1.31027,0.88362-1.84103,1.44345c-1.28674,1.35764-2.82794,2.21624-4.62579,2.65966
	c-0.24219,0.05978-0.47061,0.1742-0.71155,0.2408c-0.9111,0.25168-1.8132,0.56027-2.74057,0.72074
	c-0.86899,0.15039-1.5925-0.11983-2.16052-0.9248c-0.72687-1.02962-1.14212-2.12717-1.43988-3.3468
	c-0.66776-2.73636-0.61154-5.48177-0.38757-8.2463c0.01117-0.1367,0.07004-0.269,0.09967-0.40497
	c0.4202-1.93163,1.32895-3.73074,1.55063-5.7173c0.01791-0.16118,0.11426-0.31381,0.1749-0.47012
	c0.36298-0.93484,0.87427-1.84164,1.0571-2.81055c0.33078-1.75441,1.18655-3.29976,1.75781-4.95408
	c0.45212-1.30913,1.06924-2.57957,1.75882-3.78378c0.83344-1.45573,1.39185-3.02736,2.12668-4.52093
	c0.41727-0.848,0.89273-1.66767,1.35223-2.49432c0.44647-0.80294,0.91473-1.59376,1.35779-2.39862
	c0.53659-0.9753,1.02286-1.97995,1.59128-2.93591c1.06821-1.79614,2.21396-3.54668,3.26413-5.35293
	c1.09097-1.87663,2.17673-3.7626,3.13461-5.70859c0.81702-1.6602,1.92346-3.12427,2.86322-4.69818
	c0.49933-0.83616,0.91205-1.72405,1.36188-2.58968c0.36102-0.6949,0.13733-1.23432-0.45428-1.67022
	c-0.51422-0.37895-1.04706-0.73455-1.54272-1.13616c-0.69818-0.56565-1.06415-0.5505-1.73322,0.07429
	c-0.44611,0.41639-0.9314,0.79048-1.39874,1.18399c-0.17072,0.14369-0.3504,0.27861-0.50867,0.43496
	c-1.09052,1.0781-2.18985,2.14777-3.25583,3.24982c-0.32513,0.3361-0.56598,0.75732-0.82419,1.15348
	c-0.42267,0.64869-0.77197,1.35352-1.25378,1.95306c-0.66571,0.82831-1.36588,1.61247-1.69391,2.65845
	c-0.10547,0.33624-0.31317,0.65713-0.53415,0.93781c-1.2215,1.55154-2.44919,3.09837-3.69858,4.62737
	c-1.16055,1.42023-2.34628,2.81995-3.53064,4.2205c-0.3591,0.42466-0.76801,0.8075-1.12296,1.23544
	c-0.63889,0.77073-1.23795,1.57478-1.88269,2.34045c-1.53159,1.81893-3.29739,3.40181-5.06561,4.98199
	c-0.53918,0.48183-1.03375,1.01367-1.57294,1.4956c-0.47568,0.42501-0.93463,0.90838-1.48871,1.19844
	c-1.62695,0.85134-3.01837,2.00366-4.39056,3.19484c-0.3349,0.29089-0.68268,0.59099-1.07431,0.78867
	c-1.50394,0.75951-2.89197,1.67844-4.13574,2.81698c-0.12378,0.11327-0.2991,0.1703-0.60016,0.3355
	c0.12332-0.51457,0.1842-0.86813,0.29303-1.20619c0.45285-1.40678,0.93805-2.80334,1.37445-4.21522
	c0.21375-0.69172,0.2796-1.43324,0.53006-2.10874c0.45959-1.23888,0.70505-2.51391,0.95834-3.80558
	c0.37177-1.89555,0.70078-3.78719,0.80603-5.71646c0.07855-1.44572,0.38663-2.88185,0.16049-4.34053
	c-0.03806-0.24579-0.02899-0.50442-0.00446-0.75359c0.12253-1.24891-0.07196-2.45695-0.50034-3.62306
	c-0.34604-0.94201-0.74951-1.86312-1.13071-2.79218c-0.12479-0.30442-0.18121-0.69073-0.40277-0.89295
	c-1.37183-1.25177-2.40979-2.79716-3.82367-4.04049c-1.60638-1.41262-3.45541-2.24089-5.34406-3.02534
	c-1.00986-0.41945-2.16431-0.53642-3.26794-0.67294c-1.36636-0.16901-2.73837-0.01892-4.08218,0.26509
	c-1.63089,0.34458-3.258,0.69023-4.74167,1.53416c-0.84085,0.47831-1.82648,0.70766-2.65207,1.20636
	c-1.81476,1.09645-3.57446,2.28495-5.34552,3.45258c-0.60571,0.39924-1.25745,0.77376-1.74841,1.29181
	c-0.78433,0.82715-1.77347,1.34041-2.65936,2.0089c-1.01819,0.7682-2.15417,1.39287-2.95389,2.44876
	c-0.46762,0.6173-1.06607,1.13927-1.62949,1.679c-0.80328,0.76925-1.68427,1.46474-2.43097,2.28368
	c-1.03049,1.13014-1.99142,2.32663-2.93741,3.52994c-1.13754,1.44711-2.27914,2.89597-3.32526,4.40892
	c-1.1235,1.62498-5.85895,8.26542-11.30862,15.41847c-0.36337,0.47696-3.58176,3.73347-3.96594,4.20161
	c-0.73923,0.90113-1.4993,1.79055-2.31274,2.62436c-1.14282,1.17107-1.81848,2.76022-3.27847,3.64449
	c-0.08948,0.05423-0.13409,0.17783-0.21133,0.25794c-1.1973,1.24485-2.37454,2.50986-3.60272,3.72325
	c-0.81296,0.80299-1.69449,1.53715-2.55533,2.29086c-0.56412,0.494-1.14886,0.96425-1.71854,1.45208
	c-0.40085,0.34339-0.78403,0.70757-1.18854,1.04614c-0.6384,0.53439-1.30676,1.03423-1.92825,1.58702
	c-0.70865,0.63021-1.42969,1.16877-2.29214,1.64874c-4.46515,2.48487-8.04202,3.13129-9.89508,3.0882
	c-1.85309-0.04309-4.85532-2.04482-5.41141-3.59016c-0.74564-2.07219-1.48975-4.14628-2.16873-6.24076
	c-0.6843-2.11047-1.06323-4.28138-1.00964-6.5127c0.02191-0.91938,0.03601-1.83901,0.06989-2.75803
	c0.03497-0.94309,0.03009-1.89314,0.14914-2.82656c0.18985-1.48962,0.46909-2.96783,0.70865-4.4512
	c0.23639-1.46474,0.49832-2.91978,1.37457-4.17485c0.07806-0.11187,0.10434-0.25881,0.16583-0.38389
	c0.48843-0.99436,0.71252-2.12549,1.53085-2.95056c0.07474-0.07539,0.09595-0.20119,0.15408-0.29619
	c1.13138-1.8521,1.87045-3.94205,3.37286-5.56997c0.05527-0.05988,0.08176-0.14538,0.12753-0.21505
	c0.52856-0.80202,1.05646-1.60456,1.58868-2.40407c0.18567-0.27889,0.40536-0.53728,0.57162-0.82677
	c1.18375-2.06055,2.79666-3.74183,4.57947-5.28633c0.55728-0.48282,1.02042-1.07429,1.52817-1.61448
	c0.39752-0.4229,0.76285-0.88467,1.20435-1.25552c0.70126-0.58898,1.53082-1.0425,2.16119-1.69355
	c0.50275-0.51904,1.08981-0.86335,1.6727-1.2298c0.65945-0.41455,3.88373-2.41409,5.54492,0.38697
	c0.27045,0.8305,0.58426,1.60553,0.77145,2.41004c0.33157,1.42466,0.2095,2.88574,0.20438,4.33273
	c-0.00623,1.68717-0.36093,3.32255-0.81982,4.93995c-0.59146,2.08395-1.79526,3.83414-3.00436,5.58252
	c-0.39709,0.57448-0.75369,1.19439-1.23624,1.68879c-1.06882,1.09474-2.22723,2.1017-3.30383,3.18919
	c-0.42221,0.42661-0.89258,0.66379-1.45685,0.74103c-1.12857,0.15456-2.26083,0.28262-3.39047,0.42951
	c-0.24542,0.032-0.50113,0.06198-0.72742,0.15376c-0.89752,0.3641-1.78586,0.75071-2.67581,1.13341
	c-0.12637,0.05432-0.24432,0.17234-0.35333,0.20508c-0.7424,0.22299-0.97787,0.16412-1.8125,1.0541
	c-0.01566,0.01669-0.05496,0.01498-0.07608,0.03179c-0.58905,0.46715-1.20712,0.90374-1.75449,1.41581
	c-0.32028,0.29959-0.38104,0.76418-0.18384,1.17239c0.17548,0.36331,0.47757,0.60538,0.93051,0.59782
	c0.77979-0.01278,1.57333,0.08669,2.33691-0.02568c1.65289-0.24327,3.29114-0.58701,4.93369-0.89895
	c0.32767-0.06216,0.65091-0.1555,0.97049-0.25256c1.11563-0.33842,2.21103-0.77065,3.34769-1.00511
	c1.24579-0.25708,2.42093-0.61524,3.50089-1.29882c0.77667-0.49172,1.56082-0.98703,2.39062-1.37653
	c2.1123-0.99149,3.81244-2.49917,5.41153-4.1493c0.21283-0.21981,0.45068-0.41534,0.66647-0.63245
	c0.98349-0.98978,2.04831-1.91481,2.91858-2.9962c0.76294-0.94818,1.32385-2.06305,1.94211-3.12296
	c1.15112-1.97379,1.79953-4.13641,2.31802-6.34368c0.05737-0.244,0.10242-0.49368,0.12201-0.74313
	c0.04779-0.60688,0.05289-1.2177,0.11847-1.82232c0.22263-2.05245,0.05624-4.07651-0.49118-6.05861
	c-0.22147-0.80214-0.55515-1.57967-0.90207-2.33902c-0.345-0.75511-0.71021-1.51469-1.17609-2.19753
	c-0.60168-0.8819-1.46387-1.5017-2.33011-2.13485c-1.38074-1.0091-2.93637-1.49321-4.5502-1.32405
	c-1.41574,0.14847-2.83832,0.62784-4.15744,1.19475c-1.37262,0.59007-2.64053,1.43428-3.92313,2.21857
	c-0.63892,0.39075-1.19208,0.91927-1.81232,1.34428c-1.30875,0.89709-2.69797,1.68826-3.94122,2.66669
	c-1.83759,1.44624-3.85834,2.67528-5.42947,4.45148c-0.25571,0.2891-0.6008,0.4986-0.89893,0.7516
	c-0.59525,0.50511-1.27148,0.94436-1.76227,1.53675c-1.12393,1.35664-2.34674,2.60658-3.5939,3.84776
	c-0.99948,0.99467-1.82538,2.16447-2.72293,3.26086c-0.40521,0.49485-0.81799,0.98536-1.1915,1.50365
	c-1.09253,1.51528-2.13547,3.06745-3.26675,4.55272c-0.35788,0.4698-3.60107,4.52893-4.47226,5.31622
	c-0.33069,0.29887-0.65988,0.60949-0.93454,0.9584c-0.65402,0.83115-1.34033,1.64819-1.89255,2.5454
	c-0.64752,1.05197-1.29556,2.10223-2.1915,2.94837c-1.30191,1.2297-2.41977,2.62272-3.37338,4.10658
	c-0.82452,1.28339-1.74237,2.44164-2.83411,3.48818c-0.4014,0.38462-0.76364,0.8153-1.10809,1.25285
	c-1.12076,1.42319-4.0441,4.18832-5.24387,5.5439c-3.52094,3.97805-11.21671,9.34014-17.59402,9.58306
	c-0.79181,0.03017-1.48114-0.18584-2.14694-0.56888c-0.36246-0.20859-0.75543-0.36954-1.09958-0.60343
	c-1.00854-0.68523-2.10706-1.27007-2.62061-2.49492c-0.31177-0.74381-0.61319-1.52222-1.08722-2.16042
	c-0.66693-0.89846-1.02792-1.88016-1.36411-2.92829c-0.53589-1.67054-0.78815-3.36183-0.79022-5.10054
	c-0.00092-0.61237,0.06357-1.22466,0.09613-1.83707c0.05307-0.99973,0.08582-2.00092,0.16675-2.99824
	c0.02878-0.35334,0.25345-0.69781,0.25089-1.04541c-0.00977-1.35062,0.64944-2.52426,0.96863-3.78462
	c0.314-1.23965,0.86395-2.4137,1.57065-3.49957c0.11938-0.18363,0.17322-0.40933,0.26196-0.61359
	c0.42212-0.97044,0.82864-1.94822,1.27393-2.90801c0.42151-0.90865,0.89706-1.79216,1.32541-2.69781
	c0.44934-0.95028,0.8367-1.93108,1.31165-2.86774c0.85327-1.68308,1.62906-3.40766,2.71457-4.9687
	c0.48981-0.70435,0.7988-1.53956,1.31723-2.21805c1.21759-1.59366,2.50131-3.13766,3.78452-4.67986
	c0.26071-0.31348,0.62827-0.54298,0.96213-0.79007c0.82462-0.61033,1.65131-1.21828,2.49069-1.80788
	c0.51904-0.36441,1.02277-0.84276,1.60574-0.99883c0.66263-0.17749,1.2547-0.41491,1.81842-0.78413
	c0.59692-0.39094,1.23972-0.55658,1.97809-0.53345c1.50082,0.04691,2.74475,0.68918,3.92044,1.5207
	c0.65753,0.46491,1.28287,0.97543,1.91791,1.4715c0.49945,0.3903,0.992,0.78922,1.48676,1.18539
	c0.23367,0.18723,0.43796,0.44514,0.70331,0.5516c0.56647,0.22701,1.15973,0.39326,1.7515,0.54777
	c0.20462,0.05341,0.47693,0.0723,0.6503-0.0203c0.65833-0.35104,1.3009-0.7356,1.92667-1.14267
	c0.858-0.55823,1.58698-1.36176,2.65018-1.52895c0.70587-0.11108,1.12527-0.51691,1.53268-1.04372
	c0.31961-0.41335,0.71259-0.78712,1.12927-1.1045c0.6434-0.49024,2.42426-1.5822,2.02301-2.28732
	c-0.14697-0.25858-0.34897-0.52539-0.59406-0.68193c-1.00668-0.64362-1.64191-1.76247-2.81552-2.18656
	c-0.04834-0.01744-0.07993-0.07741-0.12421-0.11102c-0.64279-0.48711-1.2713-0.99521-1.93457-1.45288
	c-0.63214-0.43627-1.66345-0.93681-1.95108-1.0797c-0.66534-0.33074-1.36188-0.64284-2.08112-0.80881
	c-0.78342-0.18075-1.60992-0.16452-2.41199-0.27549c-1.83441-0.25396-3.61472-0.1169-5.32837,0.63373
	c-0.63684,0.27892-1.26868,0.58936-1.93283,0.78086c-1.01495,0.29277-1.8783,0.84628-2.74789,1.40448
	c-0.39966,0.25649-0.79828,0.51527-1.20575,0.75906c-1.26569,0.75721-2.56802,1.45894-3.79425,2.275
	c-1.15747,0.77036-2.25891,1.63043-3.34418,2.50192c-1.21817,0.97847-2.42554,1.97593-3.5726,3.03567
	c-1.06128,0.98063-2.16943,1.9077-3.03992,3.10124c-1.11542,1.5293-2.38303,2.9473-3.5697,4.42537
	c-0.29575,0.36819-0.54803,0.77383-0.79471,1.17797c-0.71255,1.16796-1.41187,2.34421-2.117,3.51669
	c-0.95999,1.59574-1.98178,3.15807-2.86359,4.79582c-0.88516,1.64402-1.64178,3.35796-2.43454,5.05074
	c-0.80389,1.71595-1.5798,3.44489-2.37427,5.16516c-0.2673,0.57883-0.61829,1.12708-0.81879,1.72688
	c-0.42737,1.27879-0.95288,2.48627-1.79007,3.56454c-1.25287,1.61328-2.28113,3.40843-3.91272,4.70834
	c-0.19397,0.15455-0.35236,0.35938-0.50742,0.55649c-0.78738,1.00207-1.5246,2.04741-2.36218,3.00526
	c-1.17426,1.34316-2.43997,2.60572-3.63217,3.93382c-1.21191,1.35017-2.73621,2.27959-4.24878,3.21894
	c-0.70358,0.437-1.45499,0.78616-2.34818,0.79088c-0.8688,0.00462-1.01501,0.05533-1.33575-0.75623
	c-0.44974-1.13777-0.9389-2.29241-1.1445-3.48573c-0.25397-1.47337-0.29614-2.99363-0.30563-4.49429
	c-0.00455-0.71893,0.18661-1.42976-0.09747-2.14342c-0.07584-0.19012-0.03955-0.44437,0.00143-0.65832
	c0.50381-2.62787,1.07373-5.23911,1.84659-7.80502c0.32132-1.06664,0.50012-2.17555,0.80118-3.24921
	c0.42133-1.50268,0.88751-2.9929,1.35114-4.48328c0.33978-1.09272,0.69241-2.18192,1.06543-3.26369
	c0.30847-0.89468,0.64182-1.78155,0.98871-2.66209c0.39709-1.00754,0.8028-2.01244,1.23883-3.00354
	c0.51685-1.17487,1.13455-2.3091,1.59036-3.50586c0.5358-1.40647,0.88556-2.88449,1.43372-4.28548
	c0.26892-0.68699,0.15375-1.21983-0.25482-1.70338c-0.46152-0.54626-0.8949-1.1228-1.55325-1.49689
	c-0.72485-0.41171-1.04507-0.3837-1.69839,0.16324c-0.82993,0.6948-1.70813,1.33486-2.59143,1.96227
	c-0.38022,0.27-0.80524,0.56222-1.24591,0.63945c-0.5257,0.09223-0.84674,0.36948-1.13324,0.74148
	c-0.39206,0.50895-0.79187,0.99665-1.4003,1.26841c-0.1192,0.0533-0.20416,0.18702-0.29974,0.28843
	c-0.47729,0.50535-0.98267,0.98815-1.41895,1.52682c-0.31125,0.38458-0.65372,0.81537-0.76364,1.27755
	c-0.26202,1.10239-0.86826,1.9771-1.53445,2.84989c-0.80771,1.0582-1.66113,2.09348-2.13324,3.36922
	c-0.09531,0.25786-0.23355,0.50359-0.37793,0.73914c-0.91675,1.4964-1.92511,2.94181-2.52161,4.61418
	c-0.07419,0.20793-0.16309,0.42781-0.30334,0.59232c-1.01831,1.194-1.79788,2.525-2.55405,3.90334
	c-1.40167,2.55489-2.98584,5.00996-4.50574,7.49941c-0.60892,0.99706-1.20486,2.00677-1.88638,2.95331
	c-0.73227,1.01678-1.56488,1.96074-2.33984,2.94747c-0.3269,0.41634-0.5835,0.89153-0.93289,1.28612
	c-0.7193,0.81255-1.5217,1.5538-2.21362,2.38779c-1.41226,1.70196-3.02866,3.18766-4.73392,4.57813
	c-1.51694,1.23701-3.28183,1.87063-5.24106,1.96014c-0.43301,0.01978-0.87424,0.02174-1.14624-0.36117
	c-0.38516-0.54195-0.82852-1.08261-1.04468-1.69518c-0.30411-0.86126-0.52899-1.78012-0.59537-2.68848
	c-0.10336-1.41413-0.15103-2.84922-0.02939-4.25875c0.16489-1.91214,0.48816-3.81232,0.79025-5.71021
	c0.15338-0.96241,0.37787-1.9167,0.62894-2.85902c0.20007-0.75172,0.53989-1.46712,0.7261-2.22124
	c0.26474-1.0723,0.70926-2.05257,1.28412-2.98461c0.10083-0.16327,0.21448-0.32719,0.27277-0.50686
	c0.45627-1.40528,0.89865-2.81517,1.35114-4.22169c0.04199-0.13065,0.13129-0.24539,0.18613-0.37286
	c0.19638-0.45501,0.39227-0.91035,0.57837-1.36959c0.104-0.25702,0.18811-0.52208,0.28165-0.78341
	c0.13965-0.39008,0.31165-0.7719,0.41412-1.17152c0.43701-1.70531,1.00314-3.34719,1.91098-4.87788
	c0.83734-1.41182,1.61139-2.86539,2.03653-4.47813c0.13251-0.50265,0.40054-0.97771,0.65543-1.43827
	c0.71487-1.29097,1.76346-2.3766,2.29477-3.78686c0.20425-0.54165,0.54019-1.03312,0.80927-1.55095
	c0.53662-1.03274,1.45786-1.74227,2.17041-2.62243c0.56296-0.6954,1.25055-1.06863,2.02762-1.39803
	c0.79556-0.3373,1.54773-0.78162,2.35266-1.09093c0.93207-0.35828,1.88538-0.69402,2.85898-0.90231
	c0.86191-0.18453,1.76559-0.16864,2.64853-0.26304c1.63339-0.1746,3.24295-0.59138,4.90823-0.45074
	c0.29852,0.02525,0.60715-0.10445,0.91147-0.10711c0.72061-0.00645,1.44351-0.00712,2.16187,0.04176
	c0.74878,0.05092,1.49457,0.23911,2.23932,0.22657c0.74496-0.01245,1.43542,0.10231,2.13129,0.34204
	c1.2157,0.4189,2.45883,0.73079,3.74484,0.85918c0.87842,0.0878,1.56769-0.3475,2.17694-0.85159
	c0.94025-0.77786,1.77487-1.68259,2.70578-2.47289c0.91245-0.7748,1.89972-1.46096,2.83502-2.20975
	c1.06467-0.85222,1.03412-0.92355-0.21027-1.54473c-2.11218-1.05416-4.49548-1.06993-6.69434-1.7856
	c-0.0257-0.0084-0.05582-0.00139-0.08353-0.00422c-1.0502-0.1077-2.12463-0.11202-3.14478-0.34955
	c-1.29218-0.30098-2.54507-0.06891-3.81506,0.00359c-0.69241,0.03949-1.38477,0.08256-2.07614,0.13646
	c-0.86124,0.067-1.73065,0.09159-2.58008,0.23321c-1.54214,0.25716-3.07846,0.55881-4.60529,0.8961
	c-1.22687,0.27094-2.45529,0.56802-3.52127,1.29402c-0.13684,0.09328-0.2959,0.15472-0.44696,0.22633
	c-1.20709,0.57224-2.41208,1.14907-3.62354,1.71164c-0.40338,0.18732-0.81198,0.42233-1.24005,0.48354
	c-0.58521,0.08371-0.98093,0.39786-1.31607,0.81233c-0.73053,0.90324-1.66977,1.53643-2.61304,2.1875
	c-0.79666,0.54991-1.52188,1.20729-2.25208,1.84748c-0.35464,0.31076-0.62518,0.71645-0.97409,1.03483
	c-1.00116,0.91317-1.81177,1.95734-2.38904,3.18984c-0.25876,0.55287-0.57513,1.08184-0.89951,1.60032
	c-0.57233,0.9146-1.15958,1.82026-1.76254,2.71491c-0.32562,0.48308-0.60666,1.06976-1.06412,1.37617
	c-1.24377,0.83291-2.09109,1.9946-2.8194,3.2288c-0.77823,1.31835-1.73132,2.45475-2.84283,3.48863
	c-0.85638,0.7965-1.66711,1.64231-2.49707,2.46735c-0.17783,0.17655-0.32083,0.41226-0.53079,0.52792
	c-1.16936,0.64435-2.02939,1.63814-2.97966,2.53638c-0.46004,0.43473-1.022,0.76431-1.55054,1.12279
	c-0.69244,0.46982-1.39635,0.92278-2.09749,1.37982c-1.04738,0.68251-2.06931,1.41013-3.15363,2.02778
	c-0.84459,0.481-1.76532,0.82916-2.65698,1.22571c-0.68619,0.30519-1.36328,0.64458-2.0744,0.87685
	c-0.83968,0.27422-1.76909,0.16151-2.5972,0.5481c-0.15567,0.07259-0.37212,0.01454-0.5882,0.01709
	c-0.19383-0.55863,0.06706-1.01499,0.24696-1.46494c0.62094-1.55479,1.38203-3.06403,1.87296-4.65739
	c0.48978-1.58917,1.17596-3.0966,1.73267-4.65472c0.7388-2.06836,1.0403-4.2216,1.55313-6.33073
	c0.31503-1.29539,0.43637-2.64397,0.56711-3.97628c0.11414-1.16414,0.18715-2.34094,0.15392-3.50864
	c-0.03238-1.13946-0.20915-2.27602-0.34816-3.41063c-0.08006-0.65258-0.10559-1.34087-0.3441-1.9379
	c-0.34843-0.87225-0.81238-1.69604-1.16554-2.57762c-0.44391-1.10789-1.06265-2.14689-1.62189-3.20708
	c-0.88768-1.68235-2.16512-3.02263-3.74481-4.05542c-0.47203-0.30861-1.06294-0.5646-1.614-0.5971
	c-1.19144-0.07011-2.3941-0.09211-3.5649,0.31473c-1.15926,0.40277-2.37949,0.6418-3.51524,1.09679
	c-1.05386,0.4221-2.10722,0.92963-3.02205,1.59138c-0.99809,0.72196-2.00406,1.39894-3.08598,1.9896
	c-1.24406,0.67894-2.46857,1.4098-3.62775,2.22319c-1.0466,0.73448-1.99388,1.61049-2.98476,2.42437
	c-0.38478,0.31598-0.7739,0.62714-1.15244,0.95039c-0.70996,0.60624-1.41074,1.22347-2.12086,1.82946
	c-0.80275,0.68501-1.60876,1.36638-2.42137,2.03946c-0.12408,0.10269-0.29199,0.15204-0.54364,0.27817
	c0.04208-0.25245,0.03369-0.37048,0.08096-0.45877c0.60376-1.12929,1.18517-2.27197,1.83275-3.37583
	c0.84604-1.44239,1.79366-2.82658,2.60963-4.28509c0.76065-1.35988,1.38916-2.79279,2.10597-4.17792
	c1.01006-1.95139,2.37233-3.69526,3.24937-5.73657c0.64029-1.49049,1.1869-3.00753,1.73277-4.52925
	c0.32954-0.91891,0.57098-1.88228,1.00871-2.74631c0.50795-1.00261,0.97932-1.99523,1.21959-3.10172
	c0.1713-0.78937,0.41425-1.56703,0.67783-2.33179c0.44597-1.29386,0.9754-2.56011,1.38916-3.86358
	c0.2872-0.90476,0.59315-1.78345,1.08104-2.6054c0.45074-0.75946,0.83133-1.56102,1.23068-2.35009
	c0.07339-0.14502,0.11388-0.31705,0.12799-0.48015c0.1255-1.44456,0.25356-2.88916,0.35394-4.33564
	c0.03151-0.45469-0.16368-0.76621-0.64955-0.94433c-0.40013-0.14669-0.7359-0.46569-1.10516-0.70032
	c-0.17989-0.1143-0.36452-0.2823-0.55865-0.30033c-0.4337-0.04029-0.88507-0.05827-1.31075,0.01802
	c-0.61935,0.11109-1.23741,0.15678-1.82509,0.52252c-1.63507,1.01735-2.62473,2.55677-3.55159,4.15059
	c-0.82265,1.41472-1.57706,2.86909-2.36206,4.30564c-0.02673,0.04888-0.06445,0.09208-0.09016,0.14146
	c-0.62891,1.21135-1.27086,2.4162-1.88106,3.63706c-0.49779,0.99592-0.94321,2.0181-1.4379,3.01578
	c-0.55672,1.12327-1.18108,2.21431-1.70554,3.3518c-0.55907,1.21292-1.00761,2.47642-1.55467,3.69534
	c-0.93559,2.08476-1.86653,4.17373-2.8799,6.221c-1.20042,2.42535-1.91762,5.05283-3.23894,7.43173
	c-0.75536,1.35982-1.28972,2.84385-1.89853,4.28268c-0.24895,0.58843-0.43182,1.20476-0.64474,1.80847
	c-0.10225,0.28934-0.18047,0.59026-0.31172,0.86578c-0.35931,0.75317-0.78487,1.47752-1.10526,2.24603
	c-0.8486,2.035-1.67355,4.08013-2.47243,6.13503c-0.56593,1.45556-1.09311,2.92688-1.60231,4.40345
	c-0.43689,1.26746-0.76578,2.5748-1.25139,3.82218c-0.37244,0.95705-0.88716,1.86339-1.38692,2.76545
	c-0.98145,1.77198-1.77235,3.67709-3.39198,5.02029c-0.06119,0.05074-0.10153,0.13306-0.13684,0.20765
	c-0.38124,0.80413-0.76421,1.6076-1.13756,2.41531c-0.40831,0.88322-0.78246,1.78295-1.21584,2.6535
	c-0.73219,1.47049-1.52637,2.91039-2.24466,4.38738c-0.86746,1.78352-1.77045,3.53623-2.95045,5.14516
	c-0.57185,0.77991-1.11693,1.6319-1.42923,2.53593c-0.3392,0.98142-0.92188,1.75763-1.50172,2.56897
	c-0.75517,1.05648-1.73064,1.94605-2.33234,3.11927c-0.37944,0.74001-1.13824,1.15548-1.62576,1.77771
	c-0.74802,0.95491-1.81413,1.36487-2.77165,1.96669c-0.63068,0.39629-1.22231,0.3093-1.73914-0.23579
	c-0.536-0.56526-1.10056-1.10664-1.59869-1.70341c-0.31461-0.37704-0.51256-0.84916-0.79424-1.25688
	c-0.61963-0.89713-1.2151-1.80173-1.56119-2.85094c-0.11243-0.341-0.27058-0.6825-0.47852-0.97331
	c-0.40631-0.56858-0.58044-1.19342-0.63937-1.87714c-0.05496-0.63708-0.05128-1.30891-0.26492-1.89572
	c-0.33536-0.9214-0.26929-1.80299-0.07811-2.71626c0.10294-0.49129,0.19269-0.98721,0.25287-1.48533
	c0.16084-1.32771,0.20879-2.67662,0.85359-3.90045c0.08781-0.16679,0.08565-0.37945,0.13446-0.56831
	c0.18089-0.69858,0.33128-1.40755,0.55759-2.09131c0.29669-0.89659,0.65884-1.7716,0.98396-2.65897
	c0.12404-0.33825,0.20555-0.69256,0.33817-1.02681c0.4794-1.20916,1.15376-2.31564,1.53627-3.59203
	c0.59782-1.99458,1.50401-3.89497,2.23714-5.85129c0.59676-1.59265,1.13179-3.20856,1.69099-4.81537
	c0.036-0.10352,0.03943-0.21785,0.06427-0.32577c0.28726-1.24727,0.5788-2.49373,0.86246-3.74181
	c0.12219-0.53794,0.20638-1.08534,0.34879-1.61738c0.17117-0.63992,0.35275-1.28098,0.59111-1.8978
	c0.23952-0.62007,0.58723-1.19823,0.82677-1.81813c0.27115-0.7022,0.51138-1.42094,0.6996-2.14949
	c0.31932-1.23603,0.79033-2.4474,0.63184-3.77117c-0.08234-0.68643-0.13083-1.38171-0.12685-2.07258
	c0.00859-1.49986-0.4377-2.78123-1.62196-3.76295c-0.25444-0.21097-0.44592-0.49677-0.69449-0.71642
	c-0.97272-0.8602-2.04404-1.49887-3.40431-1.483c-0.61119,0.00712-1.22282-0.02365-1.83432-0.0283
	c-1.08249-0.00815-2.16402-0.22379-3.24959,0.05786c-0.30547,0.07922-0.66182-0.03112-0.99387-0.06305
	c-0.24966-0.02403-0.50227-0.1081-0.74628-0.0856c-1.11055,0.10212-2.21622,0.27177-3.32834,0.34155
	c-1.07938,0.06761-2.17329,0.13325-3.24396,0.02818c-0.7487-0.07345-1.28122,0.14842-1.83012,0.57413
	c-1.2084,0.93739-2.43658,1.84957-3.66043,2.76699c-0.82655,0.61948-1.66092,1.22847-2.4892,1.84592
	c-0.4677,0.34879-0.73442,0.81905-0.87677,1.38531c-0.2793,1.11112-0.56972,2.22016-0.89526,3.31826
	c-0.10786,0.36427-0.26967,0.75639-0.52374,1.02516c-0.76862,0.81365-1.20256,1.79516-1.63126,2.80299
	c-0.32471,0.76326-0.70955,1.4948-1.36047,2.08337c-0.56075,0.50693-1.10187,1.10017-1.45219,1.76098
	c-0.67578,1.27455-1.45802,2.51101-1.81828,3.93658c-0.03947,0.15631-0.13982,0.30327-0.23518,0.43822
	c-0.42494,0.60168-1.14168,0.99413-1.28511,1.80134c-0.01218,0.06808-0.10641,0.12467-0.16806,0.18053
	c-0.87738,0.79624-1.41701,1.82099-1.95448,2.85237c-0.60342,1.15813-1.22195,2.3091-1.85938,3.44878
	c-0.68593,1.22628-1.49323,2.37777-1.87263,3.77207c-0.16869,0.62009-0.6324,1.16189-0.97562,1.73103
	c-0.09912,0.16461-0.26082,0.2907-0.36662,0.45215c-1.04953,1.60089-1.9314,3.30505-3.15215,4.80298
	c-0.81374,0.99854-1.54137,2.08815-2.161,3.21754c-0.52573,0.95827-1.09092,1.85461-1.79987,2.69138
	c-1.04044,1.22798-1.98293,2.53922-2.96544,3.8161c-0.10188,0.1323-0.19739,0.26965-0.28929,0.409
	c-0.50478,0.76462-1.00217,1.53427-1.51591,2.29269c-0.09026,0.13327-0.25144,0.21676-0.37162,0.33186
	c-0.23884,0.22882-0.50727,0.43776-0.70047,0.70104c-0.44437,0.60481-0.80672,1.27379-1.28266,1.85047
	c-0.77853,0.94315-1.60426,1.84923-2.44281,2.74009c-0.45552,0.48392-0.98579,0.89661-1.46806,1.35644
	c-0.26231,0.25027-0.45864,0.57331-0.74477,0.79485c-2.91512,2.2571-6.37859,4.02648-12.78669,5.10888
	c-0.74246,0.12541-1.45243-0.02589-2.12399-0.33265c-0.91063-0.41592-1.82566-0.82847-2.70273-1.30837
	c-0.43003-0.2351-0.82412-0.57774-1.15515-0.94348c-0.83121-0.91872-1.36116-2.02798-1.88501-3.14056
	c-0.78087-1.65843-1.26914-3.40208-1.47655-5.21236c-0.11039-0.96494-0.16679-1.92658-0.36964-2.88744
	c-0.34533-1.63651-0.434-3.29346-0.21882-4.97874c0.2036-1.59587,0.0246-3.22598,0.37142-4.82157
	c0.19446-0.89487,0.23901-1.82221,0.43311-2.71725c0.30729-1.4165,0.64294-2.82974,1.04045-4.22331
	c0.54947-1.92641,1.00714-3.89245,2.07964-5.62932c0.08492-0.13756,0.09679-0.31821,0.15538-0.47407
	c0.42105-1.11988,0.75073-2.28682,1.29148-3.34581c0.74664-1.46196,1.63631-2.85271,2.49854-4.25305
	c0.42191-0.68504,0.88863-1.34815,1.39093-1.97662c0.69137-0.86531,1.41476-1.7077,2.16285-2.52478
	c0.92117-1.0062,1.88358-1.97483,2.82478-2.96283c0.4222-0.44308,0.90099-0.84995,1.24076-1.35017
	c0.69664-1.02592,1.74104-1.64276,2.66273-2.40206c0.29247-0.24097,0.66344-0.44003,1.02958-0.52714
	c0.72173-0.17169,1.23214-0.61931,1.74728-1.09882c0.42515-0.396,0.84689-0.82088,1.34245-1.10855
	c0.44317-0.25718,0.97515-0.42374,1.48566-0.48643c0.62914-0.07724,1.27708-0.02163,1.91581,0.00549
	c0.93538,0.03976,1.75282,0.31126,2.23776,1.20819c0.14536,0.26893,0.36654,0.49677,0.51259,0.76543
	c0.46482,0.85509,0.97794,1.70953,1.0293,2.70615c0.05618,1.0872,0.10021,2.187-0.00159,3.26701
	c-0.09909,1.04951-0.29585,2.11127-0.61945,3.11282c-0.42638,1.3194-1.07228,2.56646-1.52554,3.87859
	c-0.56882,1.64618-1.42762,3.13575-2.25797,4.64999c-0.7981,1.45514-1.66516,2.83701-2.96553,3.90923
	c-0.74993,0.61841-1.44721,1.30071-2.19211,1.92572c-0.86879,0.72905-1.86581,1.1953-3.0005,1.34924
	c-0.7434,0.10086-1.49463,0.17432-2.2243,0.33912c-0.56709,0.12814-1.07001,0.08055-1.49419-0.29476
	c-0.47955-0.42433-1.05326-0.58349-1.6321-0.4966c-0.75964,0.11394-1.53426,0.28796-2.23446,0.59264
	c-0.71854,0.31274-1.35947,0.8073-2.02492,1.23685c-0.22989,0.14841-0.40714,0.43147-0.65015,0.49595
	c-0.69733,0.18507-1.21501,0.58054-1.72778,1.07359c-0.72932,0.70129-1.04603,1.54981-1.12864,2.50636
	c-0.01818,0.20932,0.14256,0.47969,0.29888,0.65042c0.64155,0.70023,1.46674,1.0069,2.40675,0.97652
	c0.6124-0.01986,1.23396-0.03043,1.8328-0.14409c1.78151-0.33833,3.55681-0.71202,5.3278-1.10297
	c0.45867-0.10134,0.89507-0.30979,1.33704-0.48109c0.51792-0.20071,1.02844-0.42095,1.54637-0.62132
	c1.55921-0.6032,3.19319-1.06176,4.66405-1.83273c2.26347-1.18658,4.41656-2.58413,6.61245-3.89914
	c0.16492-0.09873,0.29556-0.25441,0.44376-0.38179c0.48566-0.41745,0.97254-0.83356,1.45803-1.25117
	c0.33763-0.2905,0.70734-0.55235,1.00426-0.87984c0.85686-0.94485,1.82377-1.77799,2.57362-2.83731
	c0.66187-0.93495,1.38519-1.812,1.78506-2.90449c0.09393-0.25681,0.265-0.48586,0.40419-0.72562
	c0.78413-1.35059,1.64966-2.66135,2.33267-4.06128c0.73051-1.49718,1.36012-3.05404,1.89886-4.63099
	c0.36482-1.06826,0.56305-2.20737,0.71179-3.33129c0.12006-0.90757,0.06264-1.83967,0.06731-2.76099
	c0.00136-0.27476,0.02461-0.59023-0.09431-0.81824c-0.79919-1.53275-1.33702-3.17894-2.1684-4.70602
	c-0.95178-1.74817-2.32307-2.98467-3.98786-3.95244c-0.72532-0.4216-1.53101-0.66696-2.39141-0.67422
	c-0.86195-0.00742-1.7278,0.01525-2.58392-0.06213c-0.61175-0.05535-1.18343,0.03085-1.70943,0.285
	c-1.505,0.72734-3.00716,1.46471-4.47671,2.26043c-1.93752,1.04909-3.84711,2.15008-5.76003,3.24402
	c-0.74926,0.42858-1.49133,0.87424-2.20789,1.35484c-1.29424,0.8679-2.57076,1.76222-3.84694,2.65662
	c-0.81992,0.5746-1.6851,1.10287-2.42542,1.76827c-1.47069,1.32191-2.90982,2.68458-4.28546,4.10462
	c-1.31813,1.36098-2.57835,2.78334-3.79192,4.23894c-1.12352,1.3476-2.19492,2.74426-3.20647,4.17767
	c-0.68736,0.974-1.1809,2.08372-1.85206,3.07076c-1.02854,1.51274-1.74872,3.17735-2.45817,4.83995
	c-0.64451,1.50991-1.15533,3.07936-1.67652,4.63886c-0.35317,1.05721-0.65336,2.13477-0.92002,3.21741
	c-0.26684,1.08264-0.48042,2.17934-0.68513,3.27593c-0.25497,1.36552-0.55177,2.72965-0.69358,4.10835
	c-0.15681,1.52515-0.19651,3.06583-0.21784,4.60066c-0.0217,1.56181-0.02523,3.1298,0.08905,4.68581
	c0.08541,1.1635,0.37634,2.31152,0.5663,3.46806c0.58202,3.54102,1.6613,6.8814,3.91557,9.75037
	c0.32719,0.41641,0.68502,0.81137,0.98274,1.24767c0.65762,0.96335,1.4815,1.73782,2.49903,2.30209
	c0.75395,0.4182,1.52914,0.79842,2.27606,1.2283c2.09985,1.20871,4.34821,1.53555,6.71505,1.15378
	c0.37857-0.06113,0.74223-0.21445,1.11198-0.32814c1.06488-0.32741,2.12709-0.66443,3.19481-0.98265
	c1.03609-0.30872,2.14149-0.41325,3.0537-1.07906c0.49249-0.3595,0.98179-0.72987,1.50647-1.03761
	c1.22465-0.71848,2.49249-1.36501,3.70097-2.10866c1.70892-1.05159,3.38912-2.15065,5.06221-3.25892
	c0.57418-0.38034,1.14092-0.79849,1.62216-1.28707c1.23507-1.25366,2.46958-2.49673,3.89847-3.54136
	c0.66969-0.48952,1.26397-1.0903,1.85396-1.67917c1.08549-1.08325,2.15009-2.18776,3.209-3.29707
	c0.96297-1.00848,1.93385-2.01152,2.85109-3.06087c0.75035-0.8585,1.37509-1.82971,2.14944-2.66374
	c0.91156-0.98177,1.81702-1.95988,2.58549-3.06064c0.55663-0.79707,1.12566-1.58634,1.71088-2.3625
	c0.73883-0.97999,1.51314-1.93342,2.24646-2.91743c0.39792-0.53403,0.74933-1.10319,1.10938-1.66451
	c1.05263-1.64147,2.49474-2.99795,3.42921-4.7296c0.32909-0.60978,0.70349-1.22606,1.18248-1.71718
	c0.80147-0.8218,1.17101-1.88099,1.73936-2.82781c0.50156-0.83533,0.86832-1.75409,1.39536-2.57112
	c1.011-1.56733,2.02797-3.12081,2.87076-4.79565c0.50737-1.00849,1.29706-1.87402,1.95107-2.80991
	c0.82791-1.18459,1.70206-2.32851,2.33905-3.64988c0.70032-1.45262,1.44858-2.90701,2.55005-4.11266
	c0.64848-0.70956,1.16699-1.46819,1.53476-2.35871c0.30702-0.74317,0.69496-1.4576,1.09984-2.15395
	c0.35921-0.61781,0.83243-1.13506,1.63811-1.13747c1.44832-0.00427,2.89673-0.00087,4.34497-0.01231
	c0.47331-0.00371,0.94846-0.08168,1.4187-0.05582c0.42993,0.02361,0.78279,0.18528,0.93227,0.68682
	c0.399,1.33878,0.23558,2.70876,0.2789,4.0665c0.0078,0.24179-0.10622,0.48877-0.17096,0.73141
	c-0.17981,0.67416-0.35312,1.35012-0.54802,2.01985c-0.2177,0.74783-0.43401,1.49736-0.6913,2.23201
	c-0.30435,0.86886-0.70363,1.70708-0.96791,2.58674c-0.35265,1.1731-0.58678,2.38133-0.92281,3.55987
	c-0.46602,1.63447-0.92807,3.27307-1.48611,4.87714c-0.63103,1.81394-1.39351,3.58163-2.04784,5.388
	c-0.54108,1.49384-0.96353,3.03118-1.51781,4.51972c-0.80728,2.16732-1.93063,4.21042-2.51956,6.46658
	c-0.32304,1.23795-0.72279,2.45565-1.06177,3.68979c-0.32521,1.18362-0.45912,2.39288-0.58466,3.61784
	c-0.15692,1.53046-0.33914,3.00001-0.0585,4.56354c0.28355,1.58006,0.6476,3.09506,1.27675,4.56871
	c0.61493,1.43976,1.30141,2.8372,2.14922,4.15011c0.48215,0.74675,0.98003,1.49503,1.56146,2.16414
	c1.23036,1.41611,2.73178,2.54208,4.17686,3.72548c1.11072,0.90962,2.45589,0.97415,3.79372,1.0666
	c0.10797,0.00743,0.22701-0.01668,0.32791-0.05798c1.29124-0.52852,2.57709-1.06696,3.61952-2.039
	c0.76501-0.71332,1.5425-1.41313,2.30043-2.13388c0.30165-0.28674,0.57028-0.60921,0.84517-0.92294
	c0.32996-0.37627,0.63455-0.77588,0.97833-1.1384c1.11159-1.1719,2.30751-2.27223,3.33601-3.5122
	c1.061-1.27917,2.13295-2.55669,3.06946-3.94151c0.87209-1.28941,1.89812-2.46465,2.73874-3.78851
	c0.80374-1.26572,1.82074-2.3969,2.75797-3.57613c0.18132-0.22797,0.42709-0.40464,0.78438-0.73626
	c0.00742,0.62851,0.02919,1.05663,0.01373,1.48347c-0.02907,0.80655-0.08015,1.61234-0.121,2.41851
	c-0.01122,0.22136-0.0354,0.44381-0.02461,0.66431c0.10045,2.06145,0.21214,4.12251,0.31088,6.18407
	c0.09714,2.0276,0.70029,3.88691,1.85884,5.55369c0.81161,1.16747,1.58745,2.3708,2.50793,3.44814
	c0.69702,0.81575,1.57916,1.47977,2.41466,2.16791c0.42731,0.35207,0.93506,0.60614,1.40344,0.90898
	c1.36781,0.88412,2.74089,1.75063,4.46524,1.70332c0.13702-0.00375,0.27856,0.0276,0.41298,0.06281
	c1.69086,0.44266,3.31903,0.21545,4.91122-0.44308c0.77274-0.31963,1.53242-0.68875,2.33145-0.92145
	c1.12906-0.3286,2.10582-0.89095,2.96657-1.66464c0.88879-0.79893,1.74922-1.62936,2.6228-2.4451
	c0.44218-0.41277,0.88731-0.8224,1.32899-1.23549c0.56898-0.53212,1.1604-1.04282,1.69727-1.60555
	c0.63231-0.66251,1.21059-1.37627,1.82303-2.05818c1.03906-1.15687,2.06447-2.32706,3.13736-3.45181
	c0.80565-0.84456,1.66357-1.64108,2.52777-2.42633c0.21263-0.19308,0.61586-0.18965,0.80396-0.39397
	c1.18532-1.28858,2.38266-2.57159,3.4818-3.93246c0.97849-1.21146,1.8484-2.51194,2.73955-3.79176
	c0.42131-0.60532,1.0097-0.83775,1.69447-0.9298c0.41415-0.05558,0.83403-0.08819,1.24022-0.18003
	c1.35431-0.30598,2.70517-0.62781,4.05406-0.95746c0.4279-0.10456,0.93649-0.14214,1.2506-0.40121
	c1.14297-0.94241,2.54797-1.3789,3.823-2.05241c1.00139-0.52902,1.93484-1.08686,2.7233-1.89819
	c0.24876-0.25607,0.55128-0.46867,0.85439-0.66171c1.4342-0.91342,2.74792-1.98161,3.98221-3.14308
	c0.56573-0.53259,1.02049-1.182,1.57704-1.72601c0.55739-0.54487,1.13664-1.08906,1.78595-1.511
	c0.47992-0.31189,0.90616-0.62946,1.23126-1.0993c0.12454-0.18027,0.32083-0.31104,0.48444-0.46438
	c0.04993,0.03713,0.10004,0.07436,0.15015,0.1114c-0.05667,0.20192-0.10049,0.40847-0.17191,0.6051
	c-0.41812,1.15236-0.84052,2.30333-1.26581,3.45313c-0.60992,1.64948-1.14966,3.32988-1.85344,4.9383
	c-1.01593,2.32162-1.59615,4.7674-2.18549,7.20586c-0.41129,1.70193-0.62909,3.45382-0.87198,5.192
	c-0.12688,0.90782-0.1629,1.83402-0.1642,2.75206c-0.00114,0.97444,0.19173,1.95761,0.11212,2.92146
	c-0.11813,1.4321,0.32674,2.76727,0.61157,4.10841c0.52231,2.45889,2.02406,4.26398,4.3436,5.29847
	c0.7034,0.31364,1.46878,0.58815,2.2265,0.65961c1.67538,0.1582,3.32037-0.20763,4.94882-0.57079
	c0.45645-0.10175,0.93936-0.25961,1.31345-0.52699c1.6069-1.14838,3.32025-2.15717,4.62064-3.70726
	c0.69235-0.82538,1.57159-1.49114,2.31116-2.28072c1.21729-1.29971,2.39212-2.63904,3.57712-3.96875
	c0.12567-0.14111,0.1879-0.33652,0.29767-0.49409c0.74814-1.07415,1.48199-2.15889,2.25818-3.21237
	c0.67307-0.91375,1.48389-1.73677,2.0741-2.69785c0.73257-1.19269,1.5033-2.33437,2.505-3.31506
	c0.11441-0.11205,0.17355-0.28029,0.25891-0.4222c0.19907-0.33069,0.39642-0.66246,0.59824-0.99147
	c0.20364-0.33211,0.4202-0.6566,0.61646-0.99288c0.4213-0.7219,0.78824-1.47977,1.25775-2.16827
	c1.12994-1.65681,2.30548-3.2824,3.46744-4.91723c0.02014-0.0284,0.10193-0.01298,0.26306-0.02837
	c-0.07269,0.73964-0.07907,1.4738-0.22833,2.17773c-0.25937,1.22329-0.60706,2.42791-0.91724,3.64046
	c-0.24216,0.94656-0.59558,1.88078-0.70221,2.84238c-0.22696,2.04619-0.66675,4.06647-0.547,6.15901
	c0.13092,2.28786,0.16864,4.57443,0.8075,6.79844c0.65274,2.27164,1.44791,4.46069,3.18216,6.18188
	c0.90109,0.89441,1.89819,1.56442,3.20529,1.58443c0.94345,0.01448,1.89163-0.00327,2.83127-0.08211
	c0.98328-0.08261,1.88278-0.49376,2.70825-1.00305c0.94849-0.58507,1.89838-1.19611,2.73837-1.92242
	c1.23944-1.07158,2.37573-2.26186,3.56808-3.38879c1.44086-1.36158,2.70596-2.87523,3.93204-4.42819
	c0.91193-1.15485,1.86517-2.27743,2.81812-3.39906c0.26819-0.31554,0.59604-0.58126,0.90341-0.86243
	c0.854-0.78146,1.71146-1.55886,2.66974-2.43073c0.11386,0.37872,0.2045,0.57907,0.23154,0.78769
	c0.11469,0.88184,0.22751,1.76472,0.30914,2.65012c0.15582,1.69328,0.68686,3.26931,1.45599,4.77168
	c0.31693,0.61932,0.66748,1.22167,1.00479,1.83067c0.29529,0.53371,0.52802,1.11842,0.90414,1.58793
	c0.71292,0.88981,1.50278,1.71871,2.27234,2.56236c0.45117,0.4944,0.8569,1.07135,1.40259,1.42944
	c1.04388,0.68552,2.15808,1.27049,3.27081,1.84355c1.44913,0.74644,3.01712,0.88705,4.63147,0.93501
	c1.48047,0.04391,2.93063-0.18161,4.24594-0.69572c1.17548-0.45956,2.46735-0.74757,3.45258-1.76408
	c0.82587-0.85205,1.78342-1.68141,3.0307-1.98698c0.20441-0.05005,0.36957-0.24556,0.5639-0.35385
	c0.60559-0.33676,1.18277-0.79601,1.83374-0.96234c0.86301-0.2204,1.49261-0.70697,2.12585-1.26059
	c0.83194-0.72751,1.49286-1.65648,2.52713-2.14927c0.14648-0.06976,0.26443-0.20079,0.39188-0.30787
	c1.46982-1.23535,2.74939-2.69608,4.40356-3.71323c0.06915-0.04247,0.11743-0.11831,0.17786-0.17587
	c0.7262-0.69102,1.44202-1.39335,2.18188-2.06933c1.02814-0.93936,2.13864-1.79758,3.09772-2.8015
	c1.40613-1.47161,2.71277-3.03841,4.05499-4.57047c0.8804-1.00504,1.74698-2.02221,2.62375-3.03045
	c0.47409-0.545,0.95145-1.08748,1.43814-1.62101c0.15335-0.16807,0.34244-0.30362,0.51511-0.45399
	c0.05939,0.02747,0.11877,0.05476,0.17798,0.08205c0.00317,0.26949,0.01559,0.53922,0.00818,0.80833
	c-0.04337,1.56445-0.1113,3.12851-0.13226,4.69321c-0.02063,1.53593-0.05679,3.07409,0.32413,4.58677
	c0.20435,0.81122,0.38318,1.63333,0.50168,2.46085c0.25876,1.80772,0.89038,3.50349,1.53537,5.19041
	c0.2103,0.54981,2.77359,6.45042,4.45535,7.45341c0.49991,0.29813,1.04803,0.60249,1.39941,1.0432
	c0.5979,0.74974,1.37036,1.04301,2.24524,1.14784c1.68683,0.20201,3.37628,0.39368,5.06946,0.52614
	c0.92346,0.07225,1.83035-0.10385,2.68842-0.49957c0.47504-0.21898,0.96335-0.46918,1.47006-0.54744
	c1.38358-0.21373,2.77301-0.36292,3.84561-1.40906c0.03815-0.03706,0.10083-0.04771,0.14865-0.07619
	c1.48578-0.88031,3.11572-1.52275,4.43057-2.68449c0.45999-0.40639,0.88986-0.8522,1.37833-1.22044
	c1.64761-1.24197,3.28842-2.49606,4.98465-3.66914c1.15186-0.79675,1.87582-2.06768,3.14896-2.71573
	c0.26843-0.13665,0.53168-0.33452,0.72083-0.56651c0.9295-1.13995,2.0972-1.9986,3.25906-2.87305
	c0.3465-0.26081,0.69501-0.60052,0.87314-0.9831c0.22241-0.47759,0.50739-0.86323,0.91205-1.17108
	c0.70972-0.54001,1.44284-1.04999,2.1423-1.60285c0.67581-0.53397,1.33469-1.07211,1.62671-1.95934
	c0.12921-0.39251,0.47018-0.73127,0.76276-1.05068c0.63635-0.69456,1.42371-1.28217,1.93076-2.05664
	c0.82346-1.25785,1.81992-2.29396,3.05743-3.12074c0.35178-0.23502,0.70163-0.47309,1.1582-0.78112
	c-0.02747,0.55074-0.07193,0.93491-0.0611,1.31766c0.03796,1.33714,0.16571,2.67579,0.12735,4.01008
	c-0.05106,1.78082,0.14603,3.52534,0.6868,5.204c0.62332,1.93494,1.38354,3.82594,2.08954,5.73404
	c0.13556,0.366,0.24564,0.755,0.45361,1.0779c0.69379,1.07678,1.44397,2.11704,2.13995,3.19243
	c0.7572,1.16949,1.91571,1.93686,2.85779,2.92024c0.40305,0.42079,0.88437,0.76556,1.30295,1.17278
	c0.78156,0.76021,1.83456,1.04942,2.73572,1.60176c0.36777,0.22525,0.81763,0.40378,1.242,0.43378
	c1.47214,0.10384,2.94983,0.22365,4.42493,0.18065c7.26675-0.21184,11.72031-3.38802,14.6203-5.83921
	c2.89999-2.45118,8.11734-8.38118,8.95834-9.58351c0.91037-1.30164,2.20355-2.27425,3.07074-3.62975
	c0.93024-1.45422,1.9762-2.83496,2.99039-4.23427c0.19266-0.26601,0.43881-0.52538,0.71783-0.69041
	c0.88657-0.52443,1.7551-1.1316,2.71457-1.46656c1.22977-0.42947,2.06876-1.28226,2.93301-2.15125
	c0.07877-0.07911,0.13748-0.18204,0.22513-0.24795c0.68372-0.51469,1.21442-1.19521,2.05295-1.5523
	c1.21033-0.51527,2.26556-1.31071,3.08481-2.36214c0.78748-1.0106,1.78601-1.75381,2.85898-2.42323
	c0.63611-0.39686,1.3139-0.76306,1.85452-1.26942c1.70605-1.59737,3.34732-3.2637,5.03229-4.88387
	c0.72864-0.70069,1.50327-1.3537,2.25696-2.02831c0.05511,0.04134,0.11038,0.08286,0.1655,0.1242
	c-0.16196,0.49599-0.29404,1.00444-0.49338,1.48492c-0.26526,0.63864-0.595,1.25004-0.87363,1.8832
	c-0.21295,0.48354-0.37445,0.98952-0.58536,1.4738c-0.80157,1.83994-1.64279,3.66301-2.41351,5.51556
	c-0.68655,1.64996-1.41821,3.29584-1.91782,5.00555c-0.79773,2.73119-1.4252,5.51252-2.11298,8.27554
	c-0.18839,0.75722-0.41278,1.51768-0.48407,2.28922c-0.11533,1.2501-0.14111,2.51041-0.15753,3.76704
	c-0.00729,0.55374,0.07782,1.11263,0.16251,1.66282c0.18152,1.18037,0.29236,2.38428,0.61682,3.52601
	c0.2869,1.00869,0.78857,1.96381,1.25925,2.91075c0.7041,1.416,1.72232,2.60265,2.92877,3.61159
	c0.57544,0.48123,1.22787,0.87383,2.008,0.9772c1.5192,0.20117,3.03168,0.05106,4.54822-0.04739
	c0.94699-0.06152,1.75519-0.52861,2.63455-0.78275c0.99808-0.28838,1.96185-0.6198,2.81006-1.25549
	c0.37326-0.27974,0.81808-0.49904,1.26382-0.63907c0.75357-0.2366,1.30664-0.6871,1.82071-1.27098
	c0.49017-0.55663,0.90002-1.26627,1.67892-1.468c0.73178-0.18957,1.18185-0.69912,1.67133-1.2
	c0.50397-0.51591,1.01456-1.03436,1.57996-1.47853c0.5441-0.42736,1.22687-0.68949,1.73352-1.1508
	c1.02936-0.93716,2.00592-1.93624,2.95837-2.95289c1.27362-1.35944,2.51697-2.7478,3.74695-4.147
	c0.73456-0.83553,1.39514-1.73589,2.13397-2.56728c0.25543-0.28748,0.55157-0.5343,0.84509-0.78818
	c0.42004-0.53634,0.83881-1.06882,1.25299-1.61226c1.5882-2.0834,3.31024-4.06478,4.98212-6.08405
	c0.03607-0.04353,0.14551-0.0263,0.28845-0.04744c-0.0332,0.28033-0.03265,0.52869-0.09515,0.76004
	c-0.26184,0.97044-0.57605,1.92775-0.80884,2.90475c-0.38141,1.60197-0.83331,3.20052-1.03809,4.82781
	c-0.26764,2.12801-0.37671,4.27377-0.21826,6.43465c0.11639,1.58903,0.17267,3.16032,0.61072,4.71687
	c0.44617,1.58428,1.3667,2.88388,2.32465,4.13071c0.92352,1.20184,2.22424,1.99928,3.72125,2.43407
	c1.59106,0.46217,3.18958,0.57195,4.79407,0.15889c0.44128-0.11351,0.84863-0.39937,1.24042-0.65388
	c0.65253-0.42369,1.27173-0.89819,1.92078-1.32747c0.44141-0.29198,1.05945-0.43814,1.33649-0.83324
	c0.70068-0.99925,1.79901-1.48871,2.63715-2.29635c0.97656-0.94106,1.75238-2.05676,2.85187-2.90794
	c1.09241-0.84554,1.96851-1.96754,2.95673-2.95099c1.20581-1.20014,2.42719-2.38485,3.64789-3.56998
	c0.27728-0.2693,0.69855-0.45803,0.84772-0.77942c0.42499-0.91586,1.10498-1.58909,1.81226-2.26913
	c0.98627-0.94825,1.93579-1.93524,2.88477-2.9212c0.28412-0.29525,0.5517-0.62017,0.75903-0.97152
	c0.24353-0.41289,0.50409-0.76956,1.12726-1.00385c-0.01849,0.57299-0.04773,1.03132-0.04535,1.48945
	c0.00525,0.97352-0.11188,1.97485,0.07678,2.91334c0.23969,1.19173,0.67999,2.35326,1.12695,3.49115
	c1.22412,3.116,2.80328,6.02759,5.27264,8.35317c1.13586,1.06969,2.33716,2.07416,3.55432,3.05148
	c0.6488,0.521,1.36353,0.98242,2.10547,1.3586c0.73505,0.37267,1.5365,0.61945,2.31866,0.89272
	c0.55048,0.19238,1.10858,0.38824,1.67975,0.4894c0.67773,0.11986,1.37402,0.13094,2.06067,0.20461
	c2.03937,0.21886,4.00262-0.23428,5.91772-0.8101c0.99329-0.29865,1.90094-0.90918,2.81659-1.43233
	c1.3316-0.76072,2.60724-1.60194,3.6156-2.79293c0.18878-0.22302,0.49487-0.34459,0.73926-0.52338
	c0.69403-0.50807,1.43323-0.96845,2.06-1.54982c0.48462-0.44944,0.80762-1.06862,1.51318-1.26112
	c0.11255-0.03069,0.19421-0.18477,0.284-0.2873c0.52997-0.60498,1.04712-1.22149,1.58972-1.81467
	c0.54352-0.59386,1.15338-1.13116,1.66003-1.75361c0.87427-1.07394,1.68585-2.19868,2.53375-3.29431
	c0.66565-0.85998,1.42303-1.65958,2.00354-2.57249c1.0592-1.66536,2.13086-3.34222,2.74622-5.23757
	c0.49084-1.51169,1.36731-2.84195,1.87335-4.35638c0.66473-1.9893,1.29016-3.95988,1.60626-6.04963
	c0.34344-2.26947,0.80298-4.5095,0.39258-6.81464c-0.03894-0.21863-0.01782-0.44727-0.0434-0.66905
	c-0.17621-1.52413-0.30121-3.05707-0.5545-4.56834c-0.20715-1.23623-0.57727-2.4446-0.86047-3.66875
	c-0.40247-1.73979-0.79865-3.48119-1.18317-5.22504c-0.1745-0.79092-0.31824-1.58878-0.46991-2.38457
	c-0.31879-1.67207-0.63611-3.34441-0.94904-5.01767c-0.15814-0.84557-0.31677-1.6913-0.45258-2.54063
	c-0.06989-0.43684,0.06183-0.74617,0.57001-0.84878c0.61237-0.1238,1.13452-0.42757,1.56763-0.90509
	c0.29706-0.32749,0.66235-0.59604,1.01056-0.87411c1.24084-0.9912,2.48712-1.97563,3.73248-2.96116
	c0.15253-0.12077,0.3053-0.24318,0.46906-0.34753C613.99146,59.50202,614.10553,59.16158,613.61755,58.4539z M234.14374,84.92894
	c-0.32265,1.89497-0.48735,3.82137-0.89507,5.69617c-0.42035,1.93256-1.02019,3.82884-1.60023,5.72292
	c-0.36703,1.19904-0.8396,2.36588-1.2695,3.54535c-0.0668,0.1831-0.14334,0.36579-0.24123,0.53363
	c-0.19659,0.33714-0.47131,0.47626-0.83907,0.25288c-0.882-0.53574-1.81143-1.01154-2.62198-1.64021
	c-0.45998-0.35663-1.97458-2.23203-2.23979-2.54623c-0.47504-0.56283-1.01926-1.18233-1.71236-0.85618
	c-0.43439,0.20442-4.10725,3.86119-4.71031,4.65881c-1.07419,1.42059-0.9834,2.85253-0.12602,4.3688
	c0.79758,1.41072,1.80722,2.59353,3.10962,3.54731c1.19496,0.87508,2.38339,1.74563,3.83926,2.16476
	c0.61182,0.1762,0.64816,0.5368,0.21706,1.06507c-0.46945,0.57558-1.04747,1.12266-1.31668,1.78797
	c-0.47154,1.16546-1.17256,2.12383-2.02013,3.01847c-0.26166,0.27637-0.4259,0.64983-0.61461,0.98995
	c-0.74631,1.34512-1.72935,2.48929-2.84903,3.54085c-0.52202,0.49026-0.93468,1.10588-1.35121,1.69697
	c-0.47362,0.67216-1.05243,1.20995-1.74438,1.64852c-1.03726,0.65747-2.04099,1.3358-3.31581,1.52042
	c-0.84676,0.12265-1.64948,0.56278-2.49591,0.66972c-1.30679,0.16502-2.61055,0.12432-3.7379-0.77818
	c-0.47252-0.37842-1.03947-0.64494-1.58022-0.93114c-0.86554-0.45802-1.48871-1.16273-2.04819-1.93768
	c-0.16312-0.22613-0.26453-0.51734-0.46935-0.68913c-0.77254-0.64765-1.0771-1.53476-1.37495-2.44474
	c-0.15477-0.47357-0.47118-0.90128-0.58368-1.3803c-0.18872-0.80483-0.27327-1.63411-0.40157-2.45306
	c0.0298-0.00658,0.05942-0.01324,0.08905-0.01991c-0.01218-1.03258,0.01112-2.06712-0.04489-3.0973
	c-0.08084-1.48515-0.05597-2.95226,0.23174-4.42229c0.16968-0.86761,0.1416-1.7719,0.2625-2.65147
	c0.14729-1.07253,0.35991-2.1361,0.53798-3.20455c0.02727-0.16317,0.01486-0.33253,0.02963-0.49828
	c0.04175-0.46991,0.01013-0.96423,0.14868-1.40438c0.31706-1.00676,0.68513-2.00115,1.09993-2.97186
	c0.19235-0.45001,0.54669-0.82973,0.8195-1.24654c0.44116-0.674,0.92937-1.32431,1.30095-2.03539
	c0.61464-1.1767,1.14975-2.39497,1.72557-3.59238c0.08363-0.1739,0.18275-0.35294,0.31618-0.48885
	c1.22675-1.24981,2.00919-2.78832,2.84848-4.29626c0.58186-1.04556,1.24484-2.04599,1.87311-3.06564
	c0.52727-0.85544,1.0246-1.73186,1.59523-2.55735c0.4733-0.68487,1.00157-1.33975,1.56964-1.94799
	c0.3149-0.33684,0.83461-0.48652,1.13577-0.83087c1.1559-1.3222,2.63866-2.28672,3.82312-3.57546
	c0.80679-0.87777,1.80409-1.44959,2.94135-1.84972c0.69272-0.24364,1.33614-0.68813,1.93172-1.13539
	c1.29573-0.97324,2.54277-2.00863,4.17348-2.39716c0.41704-0.0994,0.74007-0.3835,1.24913-0.35007
	c1.08786,0.07141,1.84459,0.52235,2.32567,1.48232c0.61115,1.21995,1.18736,2.45985,1.85075,3.65109
	c1.14381,2.05367,1.11464,4.34197,1.40121,6.56817C234.60921,81.49686,234.43605,83.21288,234.14374,84.92894z M469.47543,84.43847
	c-0.05322,0.82698-0.31796,1.63818-0.4407,2.46325c-0.42007,2.82489-1.12701,5.58352-1.91013,8.3235
	c-0.23721,0.8294-0.54446,1.64043-0.85178,2.44753c-0.3078,0.80796-0.50983,0.87145-1.32281,0.65897
	c-0.51007-0.13328-1.03949-0.24072-1.56375-0.25877c-0.61868-0.0213-1.22342,0.01135-1.7428-0.41679
	c-0.09445-0.07792-0.26617-0.07931-0.4035-0.0852c-1.81287-0.07677-3.11929-1.06798-4.21317-2.38823
	c-0.53128-0.64128-1.3457-0.87663-2.06055-0.46774c-0.58176,0.33281-1.14667,0.70203-1.75275,0.98247
	c-0.39508,0.18287-0.85974,0.20866-1.27554,0.35524c-0.3252,0.11479-0.71762,0.23106-0.91681,0.47819
	c-0.80334,0.99679-1.53137,2.0538-2.31125,3.07011c-0.4993,0.65079-0.55084,1.28879-0.16583,2.01995
	c0.69077,1.31255,1.57965,2.41733,2.88687,3.17304c0.8671,0.50136,1.67731,1.10069,2.53854,1.61295
	c1.12082,0.66659,2.36557,0.95951,3.64658,1.15419c0.95932,0.14574,1.92175,0.32113,2.85266,0.58822
	c0.61334,0.17601,0.62146,0.45953,0.26096,0.99756c-0.6817,1.01738-1.39536,2.02011-1.98804,3.08867
	c-0.7251,1.30688-1.7413,2.38804-2.57965,3.60058c-0.86386,1.24963-3.4437,2.91702-4.41037,3.78011
	c-0.96667,0.8631-4.9628,2.49331-5.69446,2.76464c-1.67642,0.62182-3.38858,0.67478-5.03403-0.19976
	c-0.14755-0.07849-0.32257-0.12823-0.43845-0.23962c-1.51471-1.45731-3.34195-2.62289-4.15329-4.72289
	c-0.55145-1.42702-1.31619-2.77275-1.84756-4.20599c-0.65958-1.77935-1.09268-3.62393-1.3024-5.52696
	c-0.10226-0.92944,0.06644-1.85166-0.03748-2.74447c-0.13242-1.13853-0.02475-2.22843,0.15054-3.32997
	c0.08279-0.52032,0.21704-1.03579,0.36899-1.54123c0.53726-1.7874,1.01367-3.59841,1.66049-5.34605
	c0.77222-2.08659,1.70425-4.11182,2.74426-6.08575c0.59653-1.13228,1.09793-2.3143,1.66528-3.46253
	c0.14505-0.29352,0.38626-0.53825,0.56992-0.81421c0.64493-0.96949,1.27966-1.94552,1.92682-2.9135
	c0.43042-0.64391,0.84961-1.29777,1.31912-1.91261c0.87885-1.15071,1.76196-2.30036,2.69736-3.40472
	c0.7894-0.93219,1.63187-1.82301,2.49341-2.68974c1.10632-1.11294,2.40811-1.9776,3.75443-2.77135
	c1.05478-0.62183,2.22531-1.09464,3.16147-1.8582c0.97705-0.79691,3.17999-1.47241,4.67856-1.47239
	c1.91522,0.00003,2.94781,0.90881,3.51572,1.12411c1.14197,0.43291,1.62622,1.13462,2.58289,1.86605
	c0.87952,0.67233,1.58688,1.48164,1.93875,2.55775c0.05206,0.15899,0.08807,0.33208,0.1774,0.46861
	c0.86966,1.327,0.78906,2.87293,1.13147,4.72422C469.69528,79.8196,469.62372,82.13152,469.47543,84.43847z M599.63458,100.18109
	c-0.15991,1.13003-0.23663,2.27376-0.44019,3.395c-0.17358,0.95625-0.43524,1.90218-0.73145,2.82915
	c-0.44971,1.40742-0.88177,2.83008-1.47467,4.17893c-0.47742,1.0864-1.18152,2.07332-1.78577,3.10395
	c-0.11243,0.19183-0.31287,0.37547-0.32764,0.57365c-0.07037,0.95034-0.76526,1.50895-1.28125,2.18707
	c-0.38776,0.50967-0.72638,1.05648-1.09564,1.58061c-0.12726,0.18073-0.25092,0.3872-0.42719,0.50672
	c-1.4541,0.98544-2.92584,1.86985-4.73132,2.17313c-1.16766,0.19624-2.31732,0.33022-3.48602,0.27274
	c-0.54517-0.02686-1.11005-0.14429-1.61786-0.34366c-1.13971-0.44745-2.28955-0.89751-3.36237-1.48059
	c-2.00128-1.08782-3.48401-2.74864-4.69769-4.64598c-0.93488-1.46142-1.71002-3.00974-2.2085-4.67892
	c-0.13373-0.4477-0.16431-0.92572-0.25195-1.38788c-0.04016-0.21136-0.0614-0.44241-0.16406-0.62299
	c-0.64758-1.1386-0.81903-2.36304-0.68713-3.64228c0.11731-1.13772,0.21997-2.27894,0.40149-3.40692
	c0.10028-0.62304,0.36859-1.21725,0.52625-1.83336c0.16925-0.6608,0.28485-1.33515,0.45081-1.99686
	c0.05249-0.20904,0.16125-0.42079,0.29633-0.58958c0.84857-1.06057,1.31268-2.25085,1.30811-3.62049
	c-0.00073-0.21302,0.05945-0.44759,0.15936-0.63628c0.63544-1.19991,1.28754-2.39096,1.94104-3.58118
	c0.09296-0.16949,0.20599-0.33478,0.33862-0.47461c1.01996-1.07599,1.90723-2.24822,2.7738-3.45453
	c1.06635-1.48434,2.31348-2.8403,3.5047-4.23265c0.93958-1.09826,1.9353-2.1487,2.86609-3.25419
	c1.45233-1.72488,2.87524-3.47467,4.30176-5.22126c0.70508-0.86343,1.36359-1.76617,2.09253-2.60845
	c0.65601-0.75813,1.37506-1.46203,2.0788-2.1777c0.08398-0.08531,0.24622-0.09371,0.4978-0.18169
	c0.20648,1.03473,0.38055,1.95982,0.57715,2.88004c0.37744,1.76791,0.71448,3.54193,1.21545,5.28568
	c0.36072,1.25533,0.492,2.57516,0.75824,3.85942c0.33429,1.61189,0.71423,3.21428,1.05225,4.82552
	c0.64008,3.05103,1.54486,6.0537,1.77734,9.18037c0.12622,1.69713,0.20709,3.40102,0.2146,5.10237
	C599.99957,98.75521,599.73602,99.46475,599.63458,100.18109z"/>
<path class="st2" d="M81.65901,90.24848c-0.1183-0.55064-0.43288-0.95371-0.96865-1.18125
	c-0.11477-0.04866-0.20758-0.18916-0.2718-0.30815c-0.15811-0.2931-0.39637-0.37675-0.70287-0.31305
	c-0.32455,0.06741-0.71496,0.02317-0.96572,0.2245c-2.53677,2.03678-6.85481,4.50977-7.84453,4.94392
	c0.12936-0.37971,0.19073-0.56009,0.2521-0.74055c0.79964-2.35167,1.61865-4.69691,2.39243-7.05688
	c0.62449-1.90425,1.16999-3.8342,1.795-5.7382c0.59139-1.80135,1.2981-3.56617,1.85114-5.37843
	c0.87235-2.8589,1.67839-5.73981,2.85344-8.49329c0.77972-1.82687,1.45772-3.68097,1.91988-5.61377
	c0.20757-0.86857,0.39848-1.74531,0.67886-2.59118c0.43863-1.32296,0.98367-2.61082,1.41631-3.93551
	c0.52802-1.61668,0.98613-3.25609,1.47594-4.88512c0.05634-0.18707,0.11405-0.37449,0.18548-0.5561
	c0.64863-1.65284,1.51791-3.22301,1.8658-4.98864c0.01047-0.05355,0.04575-0.10176,0.06424-0.15447
	c0.45269-1.28899,0.8908-2.58335,1.36012-3.86631c0.69819-1.90802,1.40443-3.8134,2.13348-5.70984
	c0.61097-1.58924,1.28062-3.15211,1.5675-4.85163c0.1144-0.67723,0.37835-1.33915,0.64908-1.97632
	c0.16624-0.39184,0.2177-0.74784,0.06453-1.12856c-0.22896-0.56914-0.48425-1.12756-0.71406-1.69626
	c-0.59782-1.47982-1.55973-1.81414-2.96103-1.02145c-0.09717,0.05491-0.19553,0.10916-0.29794,0.15322
	c-1.81912,0.78259-3.65243,1.53446-5.45245,2.35865c-0.77438,0.35463-1.64803,0.68584-2.00632,1.55482
	c-0.37091,0.89909-0.69025,1.82855-0.93007,2.77073c-0.4682,1.84061-0.86256,3.68983-1.67036,5.43681
	c-0.654,1.41452-1.14661,2.90694-1.65838,4.38295c-0.44705,1.28901-0.80447,2.60879-1.23129,3.90516
	c-0.51433,1.56224-1.06738,3.11179-1.59045,4.67113c-0.58572,1.74683-1.16493,3.49598-1.73146,5.24916
	c-0.34106,1.05561-0.65078,2.12117-0.97831,3.18114c-0.06594,0.21338-0.15945,0.41838-0.22162,0.63266
	c-0.43552,1.50019-0.90562,2.99175-1.28788,4.5054c-0.47164,1.8672-1.0261,3.70362-1.73712,5.49324
	c-0.60625,1.52594-1.2747,3.03178-1.79183,4.58765c-0.63351,1.90666-1.10046,3.86837-1.71014,5.78362
	c-0.56738,1.78212-1.22695,3.53495-1.84813,5.29996c-0.11991,0.34076-0.2751,0.67118-0.37001,1.01839
	c-0.33775,1.23634-0.61056,2.49214-0.99234,3.71423c-0.74036,2.37042-1.53743,4.72317-2.31206,7.08282
	c-0.23762,0.72341-0.72252,1.11891-1.46538,1.14935c-0.69048,0.02828-1.38564,0.06558-2.07293,0.01685
	c-1.44617-0.10243-2.90437-0.1682-4.32852-0.41573c-1.81175-0.31483-3.57906-0.82716-5.30656-1.49633
	c-1.79404-0.69492-3.60335-1.32378-5.26482-2.32778c-1.54112-0.93125-2.95998-1.98949-4.12556-3.36933
	c-0.17986-0.21262-0.31306-0.4927-0.53564-0.63654c-1.34666-0.87073-1.95609-2.33496-2.86742-3.5488
	c-0.5416-0.72131-0.62093-1.57233-0.23714-2.46414c0.3966-0.92107,0.70328-1.88171,1.0292-2.83199
	c0.69558-2.02782,1.367-4.06397,2.07253-6.08824c0.22934-0.65801,0.58002-1.2747,0.79601-1.93623
	c0.58847-1.80286,1.13274-3.62021,1.69962-5.43032c0.10001-0.31953,0.23036-0.62952,0.33637-0.9475
	c0.31736-0.9524,0.67394-1.89459,0.9341-2.86253c0.50627-1.88365,0.88322-3.80478,1.45084-5.66859
	c0.66638-2.18853,1.37836-4.37401,2.25133-6.4862c1.24671-3.01711,2.62877-5.97744,3.50939-9.13405
	c0.02964-0.10669,0.08736-0.20561,0.13242-0.30796c0.66267-1.50407,1.32482-3.00839,1.98921-4.51163
	c0.05636-0.12741,0.11093-0.26282,0.19811-0.36806c0.97633-1.17789,1.59727-2.54398,2.07214-3.97815
	c0.09527-0.28738,0.08218-0.65969-0.01189-0.95048c-0.18779-0.58046-0.4184-1.1594-0.72282-1.68617
	c-0.24483-0.42386-0.57654-0.83329-0.96321-1.12575c-0.21615-0.16346-0.62239-0.07451-0.94294-0.10163
	c-0.11021-0.00928-0.22626-0.00706-0.32925-0.04152c-1.01969-0.34184-2.05761-0.08789-2.90913,0.32534
	c-1.48477,0.72061-3.02328,1.28499-4.5323,1.93198c-0.86534,0.37089-1.68977,0.85157-2.49374,1.346
	c-0.59399,0.3653-1.11683,0.81511-1.2392,1.59835c-0.12857,0.82206-0.2789,1.65155-0.53418,2.44063
	c-0.48058,1.48536-1.05884,2.93885-1.56837,4.41534c-0.48213,1.39739-0.9269,2.80748-1.39035,4.21139
	c-0.24326,0.73679-0.39702,1.52168-0.75468,2.19853c-0.95458,1.80632-1.89254,3.60425-2.31038,5.63297
	c-0.16225,0.78849-0.42814,1.56113-0.70494,2.31974c-0.65878,1.80505-1.64555,3.4728-2.12221,5.36293
	c-0.28995,1.14898-0.94065,2.20661-1.23504,3.35496c-0.32524,1.26931-0.81672,2.53904-0.58331,3.90588
	c0.03061,0.17879-0.03967,0.3848-0.09761,0.56728c-0.33708,1.06119-0.65289,2.13067-1.03642,3.17525
	c-0.48011,1.30827-1.00994,2.59859-1.53566,3.88955c-0.26112,0.64132-0.63534,1.24522-0.8278,1.90417
	c-0.36588,1.25289-0.66135,2.52808-0.94264,3.80352c-0.31872,1.44505-0.57789,2.90305-0.8896,4.34982
	c-0.08739,0.40575-0.26428,0.79276-0.40644,1.18602c-0.59708,1.65215-1.24814,3.28692-1.78062,4.95956
	c-0.52425,1.64736-0.89276,3.34376-1.39455,4.99905c-0.85669,2.82679-1.75552,5.64111-2.65401,8.45509
	c-0.46521,1.45728-0.93914,2.91312-1.4628,4.35008c-0.44809,1.23022-0.99149,2.42554-1.45895,3.64915
	c-0.70705,1.85129-1.36352,3.72211-2.08052,5.56933c-0.78758,2.02848-1.60637,4.04494-2.43597,6.05659
	c-0.77616,1.88257-1.59743,3.74654-2.37461,5.6287c-0.64907,1.57167-1.28475,3.1496-1.88306,4.74091
	c-0.28616,0.76144,0.08273,1.22583,0.89183,1.10849c0.48225-0.06996,0.96834-0.27779,1.39596-0.52249
	c0.54291-0.31085,1.0775-0.53094,1.71433-0.59258c0.54493-0.05267,1.09157-0.23546,1.60447-0.44267
	c1.34331-0.54269,2.65425-1.16704,4.0055-1.68823c1.03043-0.39743,1.73701-1.0143,2.10669-2.09013
	c0.44328-1.29007,0.98081-2.5495,1.51891-3.8045c0.47181-1.10043,1.01842-2.16844,1.50001-3.26479
	c0.66228-1.50765,1.28562-3.03234,1.9419-4.54256c0.73373-1.68781,1.64397-3.30294,2.06107-5.11999
	c0.06138-0.26701,0.21637-0.51345,0.33389-0.76662c0.65722-1.41567,1.35134-2.81556,1.9643-4.25017
	c0.52508-1.22942,0.96283-2.49638,1.43027-3.75004c0.69198-1.85563,1.37967-3.71274,2.06085-5.57217
	c0.16323-0.44523,0.2709-0.91148,0.44529-1.35172c0.26273-0.6637,0.58543-0.75849,1.14741-0.34981
	c0.33746,0.24541,0.67098,0.50401,0.9687,0.79513c1.35337,1.3242,3.01297,2.18406,4.65337,3.06558
	c0.58115,0.31226,1.23861,0.47948,1.84787,0.74353c0.70123,0.30377,1.36493,0.71159,2.08619,0.94855
	c1.16235,0.38189,2.36966,0.62498,3.53797,0.991c2.30903,0.72334,4.70864,0.83314,7.08379,1.1129
	c1.73859,0.20465,3.45295-0.00871,5.16259-0.30498c0.52263-0.09048,1.04701-0.17801,1.57414-0.23501
	c0.50428-0.0546,0.66842,0.14191,0.57119,0.63979c-0.02673,0.13593-0.08991,0.26437-0.13204,0.39749
	c-0.48894,1.54393-0.98182,3.08654-1.46374,4.63251c-0.33158,1.06387-0.62221,2.14115-0.97934,3.1961
	c-0.27646,0.81638-0.69462,1.58809-0.9336,2.41316c-0.97757,3.37479-1.88919,6.76862-2.87002,10.14225
	c-0.41996,1.44445-0.90958,2.87231-1.4459,4.27777c-0.32024,0.83882-0.59668,1.6722-0.72325,2.56259
	c-0.06211,0.43636-0.12326,0.82338,0.29376,1.12793c0.42632,0.31145,0.84501,0.30821,1.33808,0.14238
	c0.68077-0.229,1.39019-0.37393,2.0892-0.54791c1.37571-0.34242,2.76532-0.6362,4.1238-1.03638
	c0.81941-0.2413,1.60882-0.60899,2.37569-0.99168c0.35722-0.17833,0.70943-0.47676,0.91903-0.81158
	c0.26136-0.41771,0.39693-0.92159,0.5449-1.4012c0.34428-1.1165,0.57573-2.27605,1.01109-3.35437
	c0.92215-2.28466,1.41852-4.68925,2.07472-7.04529c0.56139-2.0154,1.16405-4.0055,1.87088-5.97678
	c0.80649-2.24915,1.41172-4.57062,2.10352-6.86085c0.06441-0.21276,0.1091-0.4323,0.18568-0.64034
	c0.37428-1.0181,0.75783-2.03274,1.13503-3.04977c0.21342-0.57538,0.40488-1.15963,0.64043-1.72554
	c0.06889-0.16554,0.23137-0.32706,0.39234-0.41345c0.93056-0.49908,1.87718-0.96866,2.81176-1.46037
	c1.72564-0.90781,3.53662-1.65727,5.04968-2.94614c0.99896-0.85101,2.18057-1.44157,3.33764-2.05743
	c0.20577-0.10946,0.42487-0.28991,0.5208-0.49297C81.83395,91.86771,81.83276,91.05708,81.65901,90.24848z"/>
</svg>
