<?xml version="1.0" encoding="utf-8"?>
<!-- Generator: Adobe Illustrator 25.4.1, SVG Export Plug-In . SVG Version: 6.00 Build 0)  -->
<svg version="1.1" id="Layer_1" xmlns="http://www.w3.org/2000/svg" xmlns:xlink="http://www.w3.org/1999/xlink" x="0px" y="0px"
	 viewBox="0 0 816.89722 188.99892" style="enable-background:new 0 0 816.89722 188.99892;" xml:space="preserve">
<style type="text/css">
	.st0{fill:#EFEDE6;}
	.st1{fill:#EFEDE5;}
	.st2{fill:#B48039;}
	.st3{fill:#AD8246;}
	.st4{fill:none;stroke:#B48039;stroke-width:0.99892;stroke-miterlimit:10;}
	.st5{fill:#FF00FF;}
	.st6{fill:#00FFFF;}
	.st7{fill:#606060;}
	.st8{fill:#A7834F;}
</style>
<g id="Bittercube-Flavors-20_1_00000118360437290608392740000002671469153683342770_">
	<g>
		<path class="st2" d="M52.38361,70.70775c0.10688-0.15659,0.23274-0.30247,0.31647-0.46949
			c1.01451-2.024,1.95918-4.08617,3.05046-6.06767c1.11142-2.01803,1.81265-4.20632,2.80252-6.26994
			c0.55339-1.15372,1.18399-2.27041,1.77847-3.40446c0.6225-1.18742,1.20514-2.39787,1.87678-3.55676
			c0.57275-0.98825,1.25242-1.91418,1.87445-2.87439c0.37865-0.5845,0.76612-1.16613,1.0999-1.77626
			c0.78968-1.44356,1.52702-2.90898,2.55241-4.21897c0.66508-0.84967,1.14886-1.83897,1.74957-2.74197
			c0.54041-0.81232,1.12266-1.59728,1.6991-2.38505c0.4944-0.67564,1.03944-1.31631,1.50349-2.01157
			c0.71944-1.07796,1.50719-2.07865,2.59454-2.81438c0.2058-0.13926,0.39079-0.31966,0.55564-0.50721
			c0.57183-0.65057,1.20568-1.21586,1.90961-1.73301c0.98866-0.72632,1.88536-1.57712,2.82882-2.36579
			c0.7702-0.64381,1.55019-1.27593,2.32799-1.91063c0.45424-0.37069,0.91683-0.73124,1.36798-1.10559
			c0.37034-0.30728,0.76768-0.523,1.24895-0.64041c0.86636-0.21135,1.70012-0.58146,2.57388-0.73089
			c1.03944-0.17777,2.11465-0.31372,3.15969-0.24488c1.06879,0.07042,1.97962,0.67045,2.82894,1.34759
			c1.21498,0.96864,2.14675,2.19139,3.12581,3.36734c0.47178,0.56665,0.87865,1.20096,1.04039,1.97548
			c0.15298,0.73257,0.45213,1.43401,0.67429,2.15306c0.08226,0.26623,0.17279,0.54188,0.18364,0.81624
			c0.06831,1.72808,0.41858,3.44417,0.20702,5.18537c-0.05001,0.41158,0.02855,0.83881-0.02185,1.25031
			c-0.06713,0.54831-0.13426,1.11339-0.32332,1.62635c-0.35905,0.97417-0.66033,1.94571-0.78313,2.98727
			c-0.17405,1.4763-0.68309,2.87572-1.18385,4.26854c-0.4343,1.20798-0.91908,2.398-1.3438,3.6092
			c-0.42249,1.2049-1.02231,2.29049-1.95229,3.17585c-0.18,0.17138-0.37965,0.33196-0.59467,0.45471
			c-0.49422,0.28215-0.88281,0.65651-1.22691,1.11346c-0.38419,0.51019-0.87974,0.93592-1.27065,1.44181
			c-0.55905,0.7235-0.99426,1.55422-1.6124,2.21809c-1.21354,1.30333-1.96841,2.9592-3.37224,4.12632
			c-1.04284,0.86699-1.91338,1.94039-2.86803,2.91463c-0.58368,0.59568-1.16735,1.19279-1.7792,1.75883
			c-0.26174,0.24215-0.60751,0.39069-0.89395,0.60943c-1.23925,0.94632-2.36336,2.02759-3.54556,3.04091
			c-0.44389,0.38049-0.91624,0.7286-1.38424,1.07996c-0.68792,0.51643-1.38592,1.0194-2.07538,1.53382
			c-0.82825,0.61794-1.66769,1.18519-2.68298,1.49939c-0.70889,0.21938-1.37781,0.60484-2.02247,0.98717
			c-1.42021,0.84229-2.87001,1.5737-4.51143,1.91225c-1.03311,0.21309-2.0247,0.62097-3.05239,0.86904
			c-0.72512,0.17503-1.47729,0.25008-2.22162,0.33006c-0.71801,0.07714-1.44321,0.08627-2.1619,0.15855
			c-0.41153,0.04138-0.73888,0.29055-0.94278,0.63795c-0.52066,0.88715-1.08557,1.73596-1.43571,2.73339
			c-0.72819,2.07418-1.61713,4.08779-2.5775,6.07011c-0.8264,1.7057-1.51592,3.47907-2.37337,5.16798
			c-0.75197,1.48111-1.14038,3.08711-1.78133,4.60143c-0.30445,0.71933-0.67146,1.4123-0.97267,2.13285
			c-0.31105,0.74406-0.56363,1.51238-0.86628,2.26018c-0.23893,0.59036-0.53967,1.15617-0.76885,1.74992
			c-0.34984,0.90631-0.8647,1.72665-1.20506,2.65192c-0.56099,1.52517-1.0701,3.13148-2.32678,4.30683
			c-0.15724,0.14706-0.25837,0.36176-0.36121,0.55784c-0.2803,0.53447-0.24776,0.58945,0.22895,0.94408
			c1.00648,0.74872,1.98628,1.534,3.00452,2.266c0.70168,0.50443,1.43354,0.97205,2.18023,1.40758
			c1.37441,0.80165,2.73001,1.62733,3.96985,2.63055c0.10755,0.08704,0.22342,0.17569,0.35041,0.22506
			c2.10786,0.81946,4.22451,1.62669,6.44787,2.07013c1.23619,0.24656,2.4968,0.29696,3.73019-0.12238
			c0.34238-0.11642,0.70033-0.20952,1.05847-0.25335c1.56319-0.19133,2.90586-0.92056,4.27668-1.62909
			c1.07928-0.55784,1.97286-1.36014,2.98743-1.9911c0.70714-0.43977,1.50056-0.73859,2.24164-1.12674
			c0.46571-0.24391,0.96998-0.46851,1.34463-0.82111c0.87669-0.8251,1.78033-1.58102,2.83642-2.18634
			c1.40569-0.80571,2.63039-1.86147,3.75786-3.03841c1.11752-1.16653,2.34275-2.23035,3.45118-3.40488
			c0.72432-0.76752,1.33033-1.64764,1.97859-2.48564c0.44398-0.57388,0.89582-1.14448,1.29795-1.74734
			c0.96999-1.45407,2.19432-2.67299,3.49194-3.82143c1.64462-1.45553,2.81918-3.23213,3.65985-5.2415
			c0.77921-1.86238,1.73996-3.61784,2.90108-5.27324c1.05779-1.50806,1.87556-3.16094,2.7352-4.78722
			c0.69119-1.3076,1.49532-2.54044,2.43848-3.68851c1.20444-1.46606,2.37999-2.9545,3.3793-4.57812
			c0.42115-0.68426,0.95293-1.31319,1.50404-1.9021c1.25734-1.34359,2.41347-2.77406,3.72283-4.07745
			c1.59812-1.59081,3.19336-3.1761,4.92606-4.62009c0.12739-0.10618,0.25269-0.22212,0.35046-0.35457
			c0.09774-0.13241,0.15971-0.29123,0.22655-0.41798c0.23004-0.05193,0.47513-0.04622,0.64429-0.15672
			c0.53561-0.3499,1.02859-0.76511,1.56461-1.11431c0.69981-0.45589,1.4566-0.82886,2.13314-1.31505
			c1.74984-1.25749,3.80601-1.86217,5.73807-2.72226c1.1152-0.49645,2.35802-0.69846,3.50054-1.14311
			c1.8531-0.7212,3.67627-0.3433,5.51933-0.02728c0.68619,0.11765,1.38342,0.19687,2.07866,0.23065
			c1.90048,0.09232,3.35811,1.07125,4.71873,2.27377c1.05135,0.92918,1.9063,2.03194,2.77736,3.11921
			c0.2209,0.27573,0.40747,0.60086,0.52565,0.93322c0.52386,1.47311,1.08672,2.93816,1.49706,4.44383
			c0.27661,1.01501,0.32484,2.0926,0.46989,3.14294c0.04959,0.35905,0.05505,0.72613,0.12833,1.07966
			c0.35893,1.73206,0.48222,3.48061,0.38876,5.24431c-0.10635,2.007-0.18481,4.01676-0.35352,6.01875
			c-0.12904,1.53122-0.45996,3.02884-1.03358,4.47105c-0.37114,0.93307-0.62193,1.91348-0.97722,2.85356
			c-0.33443,0.88491-0.69608,1.76447-1.12122,2.60834c-0.26009,0.51621-0.69257,0.94259-0.99352,1.44193
			c-0.38818,0.64408-0.73495,1.31435-1.07463,1.98595c-0.18834,0.37241,0.02986,0.66722,0.45268,0.63541
			c0.16394-0.01234,0.32736-0.07129,0.48456-0.12721c1.46184-0.52005,2.93192-1.01909,4.37869-1.57832
			c0.64513-0.24937,1.27809-0.56828,1.8551-0.94884c1.86284-1.22858,3.71219-2.47903,5.53714-3.76314
			c1.22987-0.86539,2.45012-1.75412,3.5972-2.72404c0.71742-0.60663,1.30437-1.37177,1.92581-2.08669
			c0.89606-1.03086,1.77036-2.08063,2.65359-3.12261c0.05421-0.06398,0.1122-0.12614,0.15724-0.19633
			c1.32924-2.07149,3.08211-3.83421,4.39616-5.90558c1.3429-2.11684,2.80153-4.16634,3.85405-6.46858
			c0.6599-1.44343,1.50691-2.80384,2.30797-4.17937c0.57875-0.99375,1.0759-2.02073,1.47189-3.09749
			c0.34322-0.93322,0.8876-1.73332,1.55528-2.46135c0.2065-0.22517,0.43591-0.46149,0.54701-0.7363
			c0.43428-1.07418,1.28888-1.8096,2.03358-2.63675c0.37093-0.41199,0.73068-0.83512,1.07666-1.26826
			c0.45227-0.56622,0.6545-0.60831,1.30791-0.24954c0.14276,0.07839,0.30795,0.13008,0.46907,0.15843
			c0.74103,0.13042,1.34401,0.50842,1.90257,0.99295c0.2955,0.25635,0.40453,0.55043,0.24527,0.89121
			c-0.37189,0.79581-0.49699,1.64401-0.65918,2.49582c-0.09538,0.50089-0.3708,1.01432-0.69621,1.416
			c-1.07787,1.33049-1.65028,2.9129-2.28294,4.45719c-0.5078,1.23953-1.23041,2.29802-2.13251,3.27106
			c-0.73746,0.79545-1.41133,1.6178-1.61638,2.77293c-0.17192,0.9684-0.85838,1.73843-1.39015,2.55516
			c-0.46907,0.72043-0.90413,1.46811-1.42851,2.14631c-0.93748,1.21248-1.33682,2.69083-2.07016,3.9984
			c-0.75056,1.3383-1.25577,2.79224-2.09132,4.09713c-0.53258,0.83173-0.75789,1.85561-1.16191,2.77536
			c-0.60458,1.37635-1.10841,2.79093-1.88301,4.10063c-1.09018,1.84325-2.16754,3.71952-2.74704,5.79736
			c-0.32095,1.15077-0.97592,2.12865-1.37804,3.2297c-0.32539,0.89097-0.65346,1.76474-0.70093,2.7318
			c-0.03261,0.66416-0.1376,1.33331-0.29085,1.98116c-0.29495,1.24699-0.24538,2.47488-0.01472,3.72465
			c0.08882,0.48126-0.00555,0.99921-0.03673,1.49917c-0.07443,1.19345,0.11444,2.3458,0.57753,3.44209
			c0.1929,0.4567,0.47278,0.87923,0.73628,1.30289c0.30963,0.49777,0.63577,0.9859,0.97064,1.46716
			c0.38255,0.54978,0.74901,1.11614,1.18327,1.62319c0.57114,0.66686,1.25571,0.94627,2.16315,0.58324
			c0.72667-0.29072,1.40468-0.66454,2.1048-0.9904c1.87509-0.87273,3.4155-2.21083,5.04976-3.40983
			c1.16167-0.85227,2.21243-1.86655,3.25279-2.87058c1.36371-1.31609,2.71341-2.65272,3.9817-4.05935
			c0.76123-0.84428,1.3783-1.82359,2.0197-2.76963c0.84404-1.24493,1.66594-2.50579,2.46349-3.78099
			c0.53082-0.84874,0.98317-1.74632,1.50682-2.59985c0.40796-0.66497,0.82219-1.33701,1.32004-1.93383
			c1.39827-1.67618,2.63353-3.45979,3.78972-5.30984c0.87192-1.39519,1.85699-2.7198,2.79523-4.07338
			c0.74695-1.07759,1.54747-2.12152,2.23846-3.23367c1.20663-1.94205,2.34785-3.92477,3.51453-5.8916
			c0.07111-0.11987,0.13269-0.24676,0.18596-0.37565c0.7359-1.78085,1.44313-3.5741,2.21158-5.34075
			c0.69968-1.60852,1.36815-3.23234,2.18806-4.78747c0.45502-0.86303,0.83507-1.76643,1.30728-2.61933
			c0.47092-0.85059,1.01768-1.65902,1.52556-2.48939c0.31931-0.52207,0.59122-1.07746,0.9502-1.56996
			c0.59021-0.80975,1.21083-1.58557,1.62021-2.52148c0.19391-0.44334,0.62354-0.78028,0.92816-1.17931
			c0.42247-0.55339,0.82616-1.12108,1.24121-1.68018c0.18224-0.24548,0.35722-0.49919,0.56401-0.7228
			c0.18666-0.20185,0.40381-0.2372,0.67677-0.0868c0.51102,0.28157,1.06511,0.48733,1.56615,0.78395
			c0.44963,0.26619,0.86066,0.60122,1.27216,0.92681c0.24568,0.19437,0.30093,0.46939,0.16585,0.75696
			c-0.45233,0.9629-0.84512,1.94218-1.05397,2.99482c-0.04919,0.24801-0.32048,0.44733-0.47063,0.68124
			c-0.14851,0.23139-0.3429,0.46375-0.39604,0.72073c-0.24146,1.16747-0.82185,2.19124-1.32741,3.24525
			c-0.32675,0.68124-0.65204,1.34879-0.81133,2.10234c-0.08849,0.41859-0.34175,0.82207-0.59285,1.18207
			c-0.41394,0.59353-0.92522,1.12047-1.32507,1.72224c-0.61443,0.92474-1.14134,1.88683-1.49689,2.96461
			c-0.48811,1.47962-1.10056,2.92347-1.74081,4.34616c-0.6431,1.42899-1.16652,2.89558-1.68103,4.3725
			c-0.42041,1.20682-0.95886,2.37409-1.47572,3.54533c-0.57347,1.29952-1.21873,2.56836-1.76222,3.87978
			c-0.37299,0.89999-0.61928,1.85203-0.93379,2.77685c-0.34106,1.00293-0.69568,2.00124-1.0441,3.00166
			c-0.2012,0.57773-0.41714,1.15087-0.59975,1.73443c-0.45807,1.46394-0.83328,2.95795-1.37007,4.39187
			c-0.48007,1.28242-0.86052,2.58939-1.24886,3.89708c-0.10323,0.34761-0.23384,0.70118-0.25273,1.05727
			c-0.07605,1.43277-0.48526,2.80192-0.73929,4.20057c-0.19449,1.07079-0.42589,2.16171-0.40144,3.23824
			c0.02707,1.19236,0.04651,2.39288,0.14679,3.58334c0.04614,0.54778,0.21771,1.10445,0.4346,1.61356
			c0.28531,0.66967,0.76523,1.15688,1.57756,1.17546c1.38531,0.03169,2.7216-0.07439,3.93776-0.87335
			c0.45317-0.29771,1.03374-0.39787,1.54968-0.60443c1.06142-0.42496,2.11827-0.83688,3.0108-1.60821
			c0.562-0.48569,1.22241-0.87913,1.88728-1.21879c0.86615-0.44247,1.57579-1.05037,2.21021-1.76611
			c0.66309-0.7481,1.3511-1.47663,1.97533-2.25607c0.83484-1.04243,1.6129-2.13014,2.42673-3.18965
			c0.49155-0.63992,1.02864-1.24596,1.50006-1.89981c0.34203-0.47437,0.64952-0.98316,0.90277-1.51009
			c0.54048-1.12462,1.31035-2.07451,2.14355-2.98387c0.68259-0.74498,1.23341-1.57487,1.70593-2.47132
			c0.3764-0.71409,0.85344-1.37543,1.29048-2.05719c0.76819-1.19833,1.54448-2.39148,2.30896-3.59215
			c0.77974-1.22462,1.54437-2.45888,2.32506-3.68288c0.58461-0.91658,1.22075-1.80234,1.76697-2.74079
			c0.5587-0.95988,1.02151-1.97504,1.55212-2.95197c0.71912-1.32398,1.45808-2.63728,2.1976-3.95005
			c0.52017-0.92339,1.03181-1.84758,1.21196-2.91232c0.02275-0.13452,0.06667-0.27005,0.12572-0.39314
			c0.61443-1.28064,1.27274-2.54201,1.83696-3.84422c0.31886-0.7359,0.49585-1.53481,0.71791-2.31073
			c0.3148-1.09992,0.56566-2.2206,0.93245-3.30238c0.27425-0.80883,0.38028-1.62252,0.43462-2.46273
			c0.08272-1.27923,0.24214-2.55411,0.30151-3.83396c0.02538-0.54722-0.07648-4.11329-1.25145-7.55748
			c-0.20775-0.60898-0.18021-0.83916,0.31024-1.21472c0.15118-0.11576,0.26698-0.2846,0.42856-0.37793
			c0.15544-0.08979,5.11333-4.2004,5.53261-4.55917c0.73958-0.41163,2.27243,0.97306,3.14656,1.91636
			c0.49843,0.5379,0.83226,1.10731,0.95206,1.81769c0.17183,1.01872,0.35594,2.03552,0.51323,3.05646
			c0.05061,0.3285,0.06192,0.6692,0.04219,1.00142c-0.16467,2.77182-0.65175,5.48251-1.51981,8.12556
			c-0.32181,0.97985-0.52983,1.99728-0.85741,2.97492c-0.22913,0.68386-0.58133,1.32574-0.86414,1.99249
			c-0.72011,1.69777-1.39601,3.41541-2.16026,5.09292c-0.49559,1.08782-1.10762,2.1233-1.68198,3.1743
			c-0.46797,0.85635-0.98257,1.6879-1.43163,2.55372c-0.70644,1.36208-1.35683,2.7533-2.06836,4.11259
			c-0.3092,0.59069-0.7088,1.13437-1.07167,1.69659c-0.77092,1.19447-1.54054,2.3898-2.31847,3.5797
			c-0.71642,1.09583-1.46602,2.17062-2.15891,3.28097c-0.75208,1.20522-1.49866,2.41781-2.16605,3.67064
			c-0.5015,0.94138-1.08057,1.8185-1.70107,2.68074c-0.60098,0.83511-1.13396,1.71902-1.70099,2.57872
			c-0.56705,0.85968-1.11623,1.7324-1.71425,2.57012c-1.09961,1.54039-2.28906,3.01794-3.20569,4.68408
			c-0.13388,0.24332-0.3264,0.4536-0.47469,0.6899c-1.35127,2.15327-3.15494,3.96368-4.58382,6.05991
			c-0.62619,0.91864-1.36038,1.76297-2.00624,2.66906c-0.77548,1.08796-1.51894,2.1993-2.25293,3.31585
			c-0.15804,0.24039-0.35075,0.39674-0.56752,0.57471c-0.68727,0.56428-1.42326,1.11734-1.94826,1.8186
			c-0.6153,0.82189-1.32234,1.50689-2.15034,2.07465c-0.77963,0.5346-1.60384,1.00393-2.40305,1.51049
			c-0.21051,0.13344-0.45221,0.26178-0.59108,0.45581c-0.40016,0.55917-1.0499,0.7052-1.60536,0.95898
			c-0.69673,0.31831-1.40334,0.6295-2.18561,0.78722c-0.71512,0.14418-1.38156,0.55992-2.05046,0.89401
			c-0.56088,0.28014-1.1338,0.46675-1.76331,0.47168c-0.16713,0.00131-0.3421-0.00356-0.49992,0.04167
			c-1.67651,0.48059-3.2375,0.07349-4.76639-0.60184c-0.15324-0.06769-0.30768-0.13513-0.46667-0.18695
			c-2.23181-0.72746-3.12045-2.46179-3.42555-4.6104c-0.15694-1.10513-0.29774-2.2164-0.3611-3.32973
			c-0.05049-0.88749-0.04135-1.79052,0.06415-2.67196c0.16548-1.38255,0.4416-2.75159,0.65733-4.12848
			c0.16838-1.07457,0.30205-2.15471,0.47928-3.22773c0.08559-0.51814,0.21574-1.03136,0.36061-1.53681
			c0.4913-1.71422,1.00595-3.42176,1.49506-5.13659c0.18288-0.64117,0.31706-1.29613,0.47949-1.94328
			c0.06767-0.26958,0.1447-0.53727,0.22942-0.80199c0.07521-0.23501,0.16609-0.46468-0.00656-0.69274
			c-0.07935,0.02728-0.1503,0.02892-0.17593,0.06384c-0.52805,0.71928-1.05313,1.44077-1.57404,2.16527
			c-0.30843,0.42899-0.61603,0.85892-0.91055,1.29746c-0.35672,0.53114-0.69574,1.07412-1.04858,1.60789
			c-0.89162,1.34879-1.78108,2.69905-2.68346,4.04063c-0.31064,0.46184-0.67,0.89076-0.98395,1.35053
			c-0.49983,0.73198-1.04601,1.41875-1.41309,2.25638c-0.30498,0.69593-0.89705,1.27274-1.39314,1.87667
			c-0.76028,0.92554-1.54686,1.82952-2.32329,2.74178c-0.48709,0.57227-0.95389,1.1638-1.46819,1.71056
			c-1.76671,1.87824-3.86229,3.37926-5.82481,5.03284c-0.61766,0.52043-1.2453,1.02972-1.88196,1.52672
			c-0.90907,0.70966-2.02046,1.06903-2.9816,1.67746c-0.92401,0.58498-1.96968,0.79286-2.9743,1.05963
			c-0.92377,0.24532-1.95752,0.31197-2.90211,0.17552c-0.90109-0.13014-1.81128-0.48352-2.51663-1.17924
			c-0.23036-0.22722-0.55374-0.36699-0.84787-0.52136c-0.87495-0.45921-1.43744-1.25948-2.0043-1.99879
			c-0.87843-1.14567-1.67311-2.37085-2.36942-3.63601c-0.56412-1.025-0.85535-2.1652-0.89833-3.37101
			c-0.06754-1.89469-0.22575-3.78606-0.33492-5.67945c-0.01906-0.33074-0.00356-0.66615,0.02681-0.99656
			c0.07664-0.83421,0.11655-1.67699,0.27051-2.49771c0.24567-1.30945,0.39375-2.63737,0.97134-3.88059
			c0.47978-1.03268,0.78279-2.14655,1.18311-3.21735c0.47786-1.27816,0.97432-2.54939,1.46599-3.82236
			c0.2276-0.58935,0.53069-1.15502,0.60275-1.88878c-0.186,0.04511-0.33437,0.03828-0.41879,0.10841
			c-0.61684,0.51257-1.23116,1.01675-1.90298,1.46867c-0.77548,0.52164-1.38074,1.29278-2.14552,1.83476
			c-1.24832,0.88461-2.21799,2.11674-3.645,2.78523c-0.82512,0.38653-1.5627,0.95944-2.34204,1.44467
			c-0.11755,0.07319-0.2449,0.13313-0.373,0.1865c-1.23241,0.5134-2.47008,1.01443-3.69804,1.5382
			c-1.24596,0.53145-2.53526,0.77216-3.89363,0.79001c-0.9969,0.0131-1.9962,0.15533-2.9845,0.30544
			c-0.26389,0.04008-0.50926,0.30008-0.73067,0.49584c-0.24815,0.2194-0.44461,0.49672-0.68944,0.72052
			c-0.86273,0.78865-1.77791,1.52471-2.59354,2.35863c-0.69447,0.71005-1.27557,1.53048-1.91342,2.29658
			c-0.73114,0.87812-1.45776,1.76041-2.20712,2.62285c-1.86351,2.14471-3.78026,4.23946-5.76243,6.2772
			c-1.07882,1.10905-2.38877,1.9195-3.51698,2.95244c-0.73218,0.67032-1.6221,1.17633-2.17407,2.0417
			c-0.06994,0.10965-0.1946,0.20537-0.31547,0.25824c-0.99509,0.4353-1.98937,0.87383-2.99786,1.27635
			c-0.2732,0.10905-0.59696,0.14912-0.89248,0.13235c-0.57468-0.03264-1.11132,0.071-1.63337,0.29353
			c-1.12041,0.47762-2.31181,0.62474-3.50752,0.74513c-0.52539,0.0529-1.08022,0.20497-1.57508,0.09749
			c-1.62406-0.35275-3.30817-0.54488-4.72134-1.57164c-0.37556-0.27287-0.85271-0.41273-1.29359-0.58748
			c-0.80896-0.32065-1.51266-0.79346-2.22097-1.2997c-0.66308-0.47391-1.27097-0.99597-1.86417-1.54112
			c-1.45448-1.33663-2.61105-2.88023-3.30135-4.75608c-0.43375-1.17873-0.93353-2.33301-1.38628-3.50497
			c-0.23051-0.59663-0.47066-1.19656-0.61914-1.81593c-0.16175-0.6747-0.26592-1.37035-0.31838-2.06268
			c-0.12865-1.69799-0.21059-3.39948-0.31819-5.09913c-0.01508-0.23837-0.06874-0.4743-0.11802-0.80041
			c-0.23225,0.11968-0.3939,0.16248-0.49918,0.26384c-0.66072,0.63611-1.32615,1.26884-1.9577,1.93343
			c-1.42175,1.49616-2.82211,3.0126-4.23586,4.51639c-1.4716,1.56529-2.96369,3.11157-4.41911,4.6917
			c-1.44323,1.56688-3.05986,2.9081-4.88523,4.00876c-0.47361,0.28559-0.93514,0.63499-1.30141,1.04512
			c-0.6142,0.68777-1.3773,1.16241-2.17955,1.52679c-1.03168,0.46858-1.88214,1.18782-2.81825,1.78577
			c-0.61015,0.38976-1.17665,0.84778-1.76385,1.27365c-0.0898,0.06512-0.17972,0.1608-0.27979,0.17632
			c-1.11213,0.17232-1.97905,0.86852-2.94381,1.35576c-0.22102,0.11162-0.46364,0.18855-0.70404,0.25232
			c-0.83543,0.2216-1.6678,0.46196-2.51361,0.63527c-0.86946,0.17816-1.73986,0.32632-2.64845,0.24373
			c-1.10849-0.10075-2.22953-0.05869-3.34002-0.14441c-0.51868-0.04005-1.02748-0.22731-1.5369-0.36237
			c-0.5647-0.1497-1.11703-0.35873-1.68902-0.46538c-0.94283-0.17578-1.82906-0.45868-2.66863-0.94038
			c-0.54758-0.31418-1.18365-0.46982-1.75415-0.74942c-0.89967-0.44092-1.81683-0.85835-2.58176-1.53267
			c-0.24925-0.21973-0.51413-0.42844-0.79596-0.60332c-1.49151-0.92554-2.99315-1.83189-4.38122-2.91624
			c-0.87753-0.68552-1.81396-1.29515-2.70494-1.96416c-0.30383-0.22813-0.55366-0.23088-0.81958,0.00922
			c-0.14448,0.13049-0.27889,0.27404-0.40518,0.42247c-0.77659,0.91249-1.5294,1.84626-2.33235,2.73481
			c-0.38961,0.43115-0.87357,0.77648-1.30987,1.16618c-0.62365,0.55705-1.23433,1.12895-1.86742,1.67496
			c-0.31617,0.27269-0.6708,0.50063-1.0062,0.75125c-0.29052,0.21712-0.58997,0.42419-0.86534,0.65932
			c-0.73182,0.62486-1.55269,1.04877-2.49938,1.25861c-1.52516,0.33807-3.03227,0.76436-4.5653,1.0578
			c-1.00865,0.19307-2.04807,0.26418-3.07655,0.29506c-0.39068,0.01173-0.78474-0.25818-1.18517-0.37186
			c-1.37084-0.38918-2.73679-0.80075-4.12116-1.13528c-0.9212-0.22261-1.52301-0.80626-1.99928-1.54465
			c-0.71453-1.10783-1.45083-2.18883-2.46237-3.05618c-0.34609-0.29675-0.56882-0.67602-0.68159-1.13024
			c-0.10075-0.40575-0.24151-0.80392-0.39379-1.19404c-0.39459-1.01102-0.56953-2.09294-0.43414-3.13011
			c0.21562-1.6519,0.41821-3.32573,1.08075-4.89149c0.49066-1.15958,1.08569-2.25984,1.71794-3.34641
			c0.39232-0.6742,0.65191-1.4273,1.06002-2.09023c0.53836-0.87453,1.16508-1.69457,1.75159-2.53958
			c0.38101-0.54894,0.73089-1.12192,1.14228-1.64688c1.08948-1.39024,2.33374-2.62856,3.79975-3.62256
			c0.29093-0.19726,0.6581-0.34653,1.00505-0.38576c1.69404-0.19153,3.36792-0.23751,5.07154,0.15043
			c1.42283,0.32399,2.7963,0.78096,4.18809,1.18897c0.39252,0.11507,0.74484,0.3681,1.11471,0.55954
			c1.1157,0.57742,2.25327,1.11697,3.34063,1.74357c1.30385,0.75133,2.55237,1.59813,3.84876,2.36308
			c0.80833,0.47697,1.66087,0.87907,2.47997,1.30765c0.41084-0.36208,0.49807-0.77119,0.62004-1.16914
			c0.22002-0.71773,0.42862-1.44133,0.69726-2.14126c0.48983-1.27629,1.1295-2.5059,1.50209-3.81328
			c0.35865-1.25851,0.75717-2.48026,1.29285-3.67676c0.96966-2.16586,1.863-4.36645,2.75982-6.56411
			c0.47485-1.16358,0.92214-2.34065,1.32421-3.53111c0.53742-1.59132,1.26637-3.08676,2.0213-4.58391
			c0.77704-1.54095,1.38181-3.16902,2.05215-4.7631c0.06114-0.14535,0.05104-0.32066,0.08267-0.54264
			c-0.30791-0.1507-0.59921-0.30492-0.90018-0.43719c-0.28057-0.12331-0.58586-0.1959-0.85501-0.33852
			c-0.89498-0.47429-1.86328-0.70314-2.84468-0.89568c-0.84142-0.16506-1.58853-0.55838-2.24908-1.07196
			c-0.81985-0.63743-1.68169-1.17846-2.59698-1.67222c-0.72385-0.39048-1.37449-0.96056-1.96363-1.54556
			c-0.70656-0.70163-1.33283-1.48809-1.95807-2.26656c-0.69962-0.87109-1.36038-1.77343-2.03494-2.66453
			c-0.11771-0.15549-0.24702-0.31064-0.32526-0.4863c-0.65785-1.47713-1.45376-2.89106-1.95592-4.44024
			c-0.35172-1.08516-0.83017-2.12959-1.17391-3.21689c-0.47984-1.51777-0.90049-3.05486-1.31581-4.59198
			c-0.10792-0.39948-0.10786-0.8292-0.14727-1.24598c-0.21851-2.31089-0.4151-4.63112-0.19284-6.94441
			c0.15673-1.63145,0.26936-3.2842,0.81452-4.86097c0.41006-1.18592,0.72954-2.40461,1.17419-3.57651
			c0.23411-0.61697,0.62707-1.17979,0.98911-1.74073c0.66557-1.03126,1.34436-2.04957,1.9625-3.11493
			c0.63678-1.09757,1.19025-2.29157,2.16513-3.15265c1.74985-1.54563,3.32662-3.27869,5.16064-4.73204
			c0.76571-0.60677,1.50902-1.24194,2.27686-1.84593c0.98094-0.77164,2.17263-1.13325,3.28781-1.64148
			c0.22078-0.10062,0.44693-0.03829,0.57523,0.19882c0.18584,0.34344,0.52787,0.4572,0.84064,0.64212
			c0.84408,0.49906,1.61467,1.0953,2.02888,2.03438c0.22567,0.5116,0.1786,0.66337-0.31271,0.92896
			c-0.26996,0.14593-0.54327,0.28681-0.82167,0.41567c-0.64108,0.2967-1.22591,0.65449-1.63568,1.25987
			c-0.11993,0.17718-0.31947,0.31707-0.50962,0.42723c-0.82154,0.47593-1.36037,1.20577-1.87317,1.97661
			c-0.78527,1.18044-1.61583,2.33077-2.40154,3.51095c-0.29011,0.43576-0.53918,0.90586-0.75148,1.38491
			c-0.40535,0.91458-0.82872,1.82791-1.13872,2.77636c-0.41624,1.27356-0.74085,2.57487-0.81166,3.92957
			c-0.03181,0.60864-0.21302,1.20889-0.25365,1.81781c-0.05938,0.88955-0.10495,1.78596-0.06241,2.67494
			c0.05872,1.22676,0.20274,2.44954,0.31612,3.67347c0.01796,0.19374,0.02939,0.40164,0.10756,0.57413
			c0.64118,1.41528,0.68827,2.98719,1.19207,4.44159c0.39351,1.13597,0.79781,2.25835,1.36159,3.32478
			c0.3117,0.58957,0.52609,1.22983,0.80096,1.83976c0.6114,1.3567,1.34618,2.63097,2.44658,3.66503
			c0.20071,0.18863,0.35326,0.43337,0.50739,0.66589c0.61015,0.92052,1.33942,1.68896,2.37825,2.15278
			c0.50321,0.22467,0.92003,0.63764,1.41611,0.88474c0.64696,0.32227,1.33369,0.56465,2.0034,0.84118
			C51.11834,70.18587,51.73002,70.43809,52.38361,70.70775z M128.0773,109.5248c-0.42355-0.14964-0.71042-0.24376-0.99194-0.35188
			c-0.75082-0.28835-1.54663-0.49954-2.23834-0.89298c-1.22898-0.69904-2.49316-1.33321-3.61217-2.23882
			c-1.31331-1.06284-2.56796-2.1534-3.43478-3.61938c-0.3447-0.58295-0.52907-1.17701-0.25426-1.90416
			c0.81914-2.16752,1.98848-4.12076,3.46921-5.88553c0.37577-0.44787,0.81042-0.84984,1.52571-0.88861
			c0.52768-0.0286,1.02499-0.19672,1.53139,0.09177c0.10734,0.06115,0.28008,0.05274,0.40958,0.02169
			c0.50178-0.1203,0.79262,0.11452,1.00658,0.53428c0.32117,0.63007,0.74062,1.18127,1.32886,1.59176
			c0.41003,0.28614,0.79804,0.60703,1.22352,0.86724c1.64058,1.00333,3.27759,2.01601,5.23663,2.30828
			c0.3445,0.05139,0.52838-0.04251,0.64874-0.35116c0.1293-0.33161,0.28297-0.65366,0.41515-0.98423
			c0.14482-0.36225,0.31755-0.71982,0.40781-1.09628c0.32445-1.35349,0.97267-2.61211,1.14687-4.01017
			c0.09277-0.74458,0.31876-1.47943,0.3466-2.22384c0.06688-1.78809,0.39267-3.56726,0.18925-5.36583
			c0.30579-1.62481,0.01018-3.22348-0.15297-4.82448c-0.07603-0.74606-0.26306-1.48053-0.39259-2.22151
			c-0.077-0.44027-0.15036-0.88167-0.20705-1.3249c-0.18942-1.48128-0.74362-2.85639-1.22021-4.25484
			c-0.25224-0.74018-0.44936-1.5078-0.96965-2.11938c-0.63225-0.74317-1.28648-1.46759-1.92999-2.20117
			c-0.39565-0.45102-0.83171-0.82759-1.47112-0.87292c-0.10631-0.00754-0.22588-0.05431-0.30934-0.12065
			c-0.48294-0.38383-0.96844-0.27684-1.50317-0.09836c-0.71255,0.23783-1.45004,0.40432-2.18234,0.57817
			c-0.37794,0.08973-0.76828,0.12656-1.15226,0.19173c-1.05881,0.1797-1.77879,0.98048-2.66932,1.46871
			c-1.09118,0.59824-1.98705,1.55016-3.2745,1.79656c-0.10137,0.01941-0.21335,0.09343-0.2784,0.17539
			c-0.548,0.6906-1.40302,0.88237-2.1177,1.29762c-0.25048,0.14552-0.58515,0.19628-0.88198,0.19818
			c-0.31525,0.00201-0.53537,0.09579-0.714,0.34174c-0.36002,0.4957-0.72299,0.98934-1.08983,1.48003
			c-0.40133,0.53682-0.90343,1.02381-1.18719,1.61609c-0.30482,0.63625-0.86285,1.06315-1.16761,1.6802
			c-0.05651,0.11443-0.19703,0.18996-0.30461,0.27616c-0.92904,0.74465-1.64375,1.6549-2.1455,2.73623
			c-0.35244,0.75954-0.66921,1.54277-1.09779,2.25797c-0.49289,0.82256-1.09191,1.58147-1.64397,2.36864
			c-0.62431,0.89016-1.26367,1.77042-1.8632,2.677c-0.22783,0.34451-0.35663,0.75343-0.54182,1.12742
			c-0.41843,0.84501-0.82214,1.69835-1.27269,2.52608c-0.42572,0.78212-0.96697,1.50608-1.34402,2.30888
			c-0.59244,1.26145-1.09084,2.56713-1.62691,3.85497c-0.57491,1.38116-0.66599,2.87542-0.97982,4.31642
			c-0.15128,0.69459-0.06479,1.43737-0.14906,2.15087c-0.19135,1.61983-0.08063,3.22953,0.12933,4.83324
			c0.14835,1.13309,0.30956,2.26603,0.76046,3.33902c0.41019,0.97607,0.72407,1.99298,1.14345,2.96468
			c0.34115,0.79041,0.71052,1.58416,1.18733,2.29607c0.46019,0.6871,1.06174,1.28246,1.62268,1.89855
			c1.32621,1.45664,2.92091,2.42716,4.93367,2.5093c1.65053,0.06736,3.31905,0.2469,4.92036-0.78681
			c1.4927,0.09226,2.55509-0.40619,3.53944-1.20659c0.73444-0.59721,1.50941-1.14551,2.27767-1.69994
			c1.04451-0.75379,2.12906-1.45222,3.13784-2.25524c0.85907-0.93197,1.65005-1.92497,2.47855-2.88477
			c0.2544-0.29472,0.60497-0.52135,0.80541-0.84489c0.57948-0.93538,1.35184-1.69764,2.09275-2.49184
			C127.76485,110.0293,127.86604,109.83334,128.0773,109.5248z M89.01324,39.82997c-0.14945-1.19126-0.29549-2.3656-0.44623-3.54193
			c-0.20927-0.70672-0.51392-1.39075-0.66985-2.10781c-0.16378-0.75306-0.51714-1.39532-0.8659-2.06681
			c-0.72837-1.40236-2.61961-1.46555-3.43993-0.19129c-0.49684,0.77178-1.0919,1.48183-1.66264,2.20397
			c-0.34237,0.43321-0.7571,0.81161-1.07906,1.25809c-0.68409,0.94867-1.34158,1.91735-1.98634,2.8934
			c-0.8085,1.22397-2.01845,2.15475-2.44758,3.65542c-0.65578,0.92115-1.12167,2.02783-1.87717,2.87019
			c-0.94082,1.049-1.50856,2.32723-2.48499,3.33094c-0.60632,2.01437-1.67399,3.70898-2.83942,5.36413
			c-0.57791,1.28108-1.10347,2.5858-1.68804,3.86363c-0.50048,1.09391-1.32896,2.03514-1.36559,3.35254
			c-1.55575,2.08536-2.76266,4.26768-3.78662,6.57605c-0.54092,1.21945-0.88586,2.52833-1.6434,3.65051
			c-0.0458,0.06783-0.07154,0.15233-0.09342,0.23267c-0.10335,0.37947,0.0298,0.59205,0.4253,0.64622
			c0.16353,0.02241,0.33423,0.00219,0.50088-0.00975c0.863-0.06187,1.7249-0.15894,2.58885-0.18167
			c0.71249-0.01874,1.38303-0.16346,2.0347-0.43289c0.2319-0.09589,0.45614-0.22986,0.69765-0.27984
			c1.70014-0.35186,3.18222-1.17556,4.62363-2.09494c0.35279-0.22502,0.71955-0.42809,1.07998-0.64108
			c0.50294-0.29723,1.0354-0.55436,1.50351-0.89891c1.59072-1.1708,3.13307-2.40655,4.8654-3.38034
			c1.08216-1.53979,2.61981-2.6876,3.60977-4.30836c0.56551-0.92587,1.27325-1.77283,1.76865-2.73191
			c1.12862-2.18488,2.19758-4.40695,2.84126-6.80707c0.04145-0.15457,0.1411-0.39883,0.21373-0.54142
			c0.32095-0.63013,0.49825-1.26717,0.52775-1.95877c0.02859-0.67039,0.16628-1.31025,0.36473-1.96198
			c0.30572-1.00393,0.65292-2.01807,0.56689-3.10891c-0.03899-0.49446,0.00463-0.99725,0.03497-1.49478
			C88.90838,40.59874,88.96938,40.21252,89.01324,39.82997z M27.6134,120.15891c-0.77161-0.46858-1.52606-0.93423-2.2878-1.38759
			c-1.24473-0.74084-2.48312-1.49351-3.74578-2.20275c-0.86612-0.48651-1.8215-0.80857-2.54309-1.55659
			c-1.59498-0.59546-3.25286-0.83946-4.93394-0.946c-0.39199-0.02484-0.67338,0.14043-0.76252,0.50845
			c-0.19473,0.80369-0.52947,1.59775-0.17082,2.45144c0.36507,0.86905,0.67777,1.76003,1.04363,2.62889
			c0.8751,0.92654,1.96404,1.64771,2.39399,2.97351c0.74019,0.32607,1.54745,0.47331,2.34359,0.62942
			c0.69099,0.13548,1.36794,0.12903,2.0626-0.09249c0.95544-0.30468,1.92811-0.60629,2.9164-0.74377
			c1.17483-0.16343,2.18143-0.62159,3.13305-1.2832C27.38113,120.91683,27.61268,120.67519,27.6134,120.15891z"/>
	</g>
</g>
<path class="st2" d="M458.65652,27.94072c-0.26669,0.48539-0.55859,0.95879-0.79581,1.45816
	c-1.34189,2.82444-2.61267,5.67873-3.74438,8.59661c-0.54465,1.40415-1.23697,2.75103-1.86362,4.12333
	c-0.95898,2.10007-4.94528,10.85382-6.04932,13.24306c-0.4436,0.95985-0.95395,1.88889-1.43753,2.83014
	c-1.556,3.02857-3.15372,6.0366-4.65631,9.09142c-1.08362,2.20302-2.0401,4.46854-3.05551,6.70517
	c-1.29187,2.8456-2.45248,5.75311-4.05112,8.45358c-0.33951,0.57356-0.55991,1.21732-0.84048,1.82631
	c-0.21024,0.45648-0.3681,0.95232-0.65479,1.35571c-1.07913,1.51858-1.72772,3.23209-2.34821,4.96265
	c-0.05643,0.15742-0.08707,0.32613-0.15866,0.47572c-0.79459,1.66006-1.63397,3.29997-2.38318,4.98014
	c-0.8179,1.83412-1.52408,3.71784-2.33249,5.55643c-1.07632,2.4481-1.96799,4.97012-3.3063,7.3156
	c-0.6814,1.19421-1.2128,2.50465-1.88583,3.72265c-1.3085,2.36797-2.73035,4.67321-3.98633,7.07046
	c-0.99133,2.59684-2.76007,4.7547-3.91495,7.26637c-0.23676,0.51476-0.86105,0.84723-1.29425,1.27647
	c-1.14722,1.13666-2.34488,2.2294-3.41522,3.43477c-1.21298,1.36595-2.68842,1.19533-4.17111,0.84494
	c-0.73718-0.17419-1.1947-0.8414-1.30893-1.60939c-0.16385-1.10252-0.36118-2.21692-0.35306-3.32484
	c0.02011-2.73695,0.17316-5.47263,0.22809-8.20971c0.07178-3.577,0.06094-7.15593,0.15689-10.73211
	c0.14969-5.58107,0.19861-11.16443,0.55453-16.74086c0.25269-3.95883,0.31998-7.92947,0.47125-11.8948
	c0.15973-4.18786,0.32111-8.37566,0.48141-12.5635c0.04495-1.17306,0.06735-2.34746,0.13885-3.51888
	c0.07135-1.16988,0.18106-2.33777,0.29178-3.50484c0.38-4.00648,0.77573-8.01149,1.14725-12.01875
	c0.12622-1.36069,0.11954-2.73329,0.28455-4.09124c0.21481-1.76819,0.31314-3.54819,0.41437-5.3265
	c0.11246-1.97593,0.24225-3.98758,0.0817-5.96358c-0.12912-1.58897,0.41058-2.69117,1.69629-3.55063
	c1.80569-1.20707,3.5752-2.4681,5.37311-3.68701c1.03726-0.70323,1.36868-0.60717,2.3168,0.28017
	c1.12396,1.05192,1.76886,2.26383,1.70428,3.84016c-0.09134,2.23008-0.11591,4.46289-0.2059,6.69304
	c-0.05185,1.28377-0.15598,2.56645-0.27173,3.84643c-0.44778,4.95149-0.93033,9.89992-1.35748,14.85315
	c-0.20157,2.33687-0.20279,4.6947-0.48517,7.01991c-0.29129,2.39875-0.30539,4.79276-0.33081,7.19654
	c-0.01538,1.45106-0.15085,2.90088-0.23419,4.35115c-0.01599,0.27897-0.05069,0.55714-0.0593,0.8362
	c-0.16,5.1927-0.30453,10.38593-0.48288,15.57799c-0.05554,1.61694-0.24802,3.22946-0.29364,4.84637
	c-0.05991,2.12112-0.02335,4.24478-0.05273,6.36701c-0.0278,2.01126-0.0979,4.02192-0.12738,6.03316
	c-0.01205,0.82142,0.03381,1.64368,0.05219,2.41731c0.55518,0.1681,0.62109-0.18999,0.71509-0.40649
	c0.57715-1.32978,1.13351-2.66873,1.68372-4.01001c0.52972-1.29135,0.99789-2.60984,1.57272-3.88042
	c1.91196-4.22651,3.84399-8.44415,5.80258-12.64926c0.65952-1.41595,1.47119-2.76128,2.12476-4.17971
	c1.02863-2.23248,2.04382-4.47499,2.95282-6.75782c1.53885-3.86476,3.0932-7.69957,5.21442-11.33629
	c1.00214-1.71815,1.85541-3.51787,2.58191-5.36951c2.89758-7.38506,6.23718-14.58518,9.42697-21.84821
	c1.21347-2.76299,2.39539-5.53988,3.6196-8.29801c0.22205-0.50026,0.49792-1.0283,0.88919-1.39301
	c1.95795-1.82497,3.86166-3.72102,6.14606-5.15795c0.18634-0.11719,0.39908-0.19247,0.66858-0.31988
	c0.3718,0.18512,0.75113,0.41197,1.1575,0.56872c0.97067,0.37441,1.5722,1.0236,1.71381,2.07951
	c0.02835,0.21087,0.16104,0.40775,0.24554,0.6111C458.65652,27.717,458.65652,27.82886,458.65652,27.94072z"/>
<path class="st2" d="M368.4747,72.55343c0.34735,0.86444,1.05304,1.14044,1.6366,1.54381
	c3.29153,2.27513,5.86282,5.12329,7.31213,8.92351c0.98367,2.57926,1.07571,5.22962,0.87772,7.92522
	c-0.0654,0.89008-0.08813,1.7866-0.21378,2.6683c-0.33051,2.31952-0.67773,4.63754-1.07614,6.94617
	c-0.46509,2.6948-1.32101,5.32768-1.70236,8.01165c-1.45694,1.62738-2.46054,3.57688-3.70493,5.35712
	c-0.54105,0.77394-1.08856,1.5541-1.72256,2.2502c-1.83289,2.01245-3.46167,4.19544-5.67932,5.87624
	c-1.58908,1.20441-3.32111,2.22685-4.74731,3.6827c-1.1734,1.19778-2.60794,2.19566-4.25146,2.79803
	c-2.63773,2.14728-5.65323,3.27531-8.93167,3.6467c-2.3819,0.26981-4.76572,0.56839-7.1571,0.69461
	c-2.09454,0.11053-4.2052-0.06152-6.30539-0.09422c-1.63733-0.0255-3.27509-0.05272-4.90973-0.15012
	c-2.54501-0.15166-5.11304-0.01472-7.63318-0.48367c-0.06006-1.94209,0.84705-3.58197,1.44485-5.32159
	c0.87112-2.5349,1.74811-5.06838,2.57034-7.61932c0.85675-2.65797,1.62192-5.34557,2.48706-8.00066
	c0.43149-1.32416,1.01367-2.5985,1.49609-3.90702c0.36664-0.99448,0.7713-1.98731,1.0058-3.01581
	c0.71115-3.11868,1.92944-6.06307,2.95975-9.07452c1.24728-3.64567,2.32086-7.3504,3.51025-11.01637
	c0.62006-1.91107,1.35309-3.78524,1.98889-5.69148c0.84811-2.54275,1.65134-5.10046,2.47375-7.65178
	c0.51398-1.59445,1.03424-3.18693,1.53992-4.78401c0.48914-1.54488,0.98157-3.08912,1.44003-4.64323
	c0.97995-3.32188,1.92001-6.6556,2.91299-9.97352c0.67239-2.24668,1.54971-4.44148,2.08032-6.71891
	c0.78168-3.35537,2.49747-6.32417,3.64529-9.52242c0.5657-1.57618,1.28482-3.09723,1.76065-4.70579
	c1.86188-1.37259,3.68625-2.72455,5.19711-4.56897c2.57996-0.66352,5.24139-0.87819,7.89017-1.11954
	c2.39255-0.21801,4.78445-0.42905,7.17926,0.1891c3.68341-0.10911,7.34332,0.16364,10.56091,2.00663
	c2.53464,1.45182,4.50079,3.43154,5.02713,6.52747c0.24716,1.45349,0.42557,2.85686,0.02765,4.30793
	c-0.14407,0.52539-0.06265,1.10979-0.10977,1.66509c-0.16528,1.94744-0.20773,3.91827-0.55569,5.83318
	c-0.38193,2.1013-0.82224,4.23994-2.19568,6.10321c-0.71518,2.67086-1.49701,5.10668-3.29523,7.07312
	c-1.27966,1.39935-2.4104,2.9352-3.69464,4.32997c-1.84988,2.00913-3.83957,3.88023-5.92783,5.64573
	c-1.31873,1.11492-2.62543,2.23473-4.14191,3.08908C369.13214,71.81707,368.82297,72.23061,368.4747,72.55343z M333.33447,122.47496
	c0.36343,0.07947,0.7294,0.18417,1.10272,0.23685c1.65897,0.23414,3.3338,0.38236,4.97604,0.70016
	c1.34457,0.26018,2.65744,0.21567,3.99667,0.06725c1.88309-0.20869,3.77142-0.49924,5.65857-0.5071
	c1.97159-0.0082,3.8436-0.18572,5.74677-0.8102c1.55487-0.51021,2.99438-1.20158,4.44504-1.90408
	c0.34204-0.16564,0.66614-0.42236,0.92023-0.70702c1.90787-2.13679,3.63544-4.42062,4.65631-7.11261
	c0.80914-2.13374,1.52847-4.31735,1.83133-6.60448c0.06586-0.49743,0.15854-0.99281,0.267-1.4829
	c0.83679-3.7806,1.25043-7.61403,1.08774-11.47517c-0.20242-4.80437-2.08951-8.73042-6.41946-11.21519
	c-0.38754-0.2224-0.75406-0.48718-1.15668-0.67619c-0.50323-0.23624-1.01785-0.50657-1.55566-0.59928
	c-1.31717-0.22707-2.64636-0.41033-3.97821-0.52006c-2.00156-0.16489-4.00958-0.25037-6.01459-0.37416
	c-0.22235-0.01373-0.44208-0.06882-0.66446-0.08424c-0.49271-0.03416-0.87741,0.17281-1.11484,0.59663
	c-0.16214,0.28938-0.28708,0.60404-0.39392,0.91917c-0.76981,2.27072-1.62823,4.51734-2.26962,6.82415
	c-0.7793,2.80289-1.61783,5.57333-2.8389,8.21872c-0.09283,0.20115-0.13889,0.4241-0.20438,0.63763
	c-0.68741,2.24065-1.33844,4.49328-2.07187,6.71874c-0.68137,2.06748-1.48105,4.09587-2.1684,6.16151
	c-0.35153,1.05639-0.50403,2.1796-0.86359,3.23261c-0.88382,2.58846-1.84528,5.15032-2.75278,7.73089
	C333.33795,121.06543,333.10031,121.70424,333.33447,122.47496z M351.05167,69.24918
	c1.84967,0.57307,3.66174,1.0834,5.60071,0.72183c0.32559-0.06071,0.66638-0.03931,1.00009-0.05721
	c1.88947-0.10128,3.78357-0.15067,5.66287-0.36815c2.94821-1.07235,5.45892-2.81573,7.67328-4.97517
	c0.55765-0.54379,1.1897-1.0524,1.60178-1.69612c0.99203-1.54959,1.97122-3.12238,2.77432-4.77394
	c0.8772-1.80399,1.59174-3.6917,2.29767-5.57274c0.44952-1.19783,0.80252-2.42782,0.88104-3.73566
	c0.10687-1.78026,0.36111-3.55123,0.49268-5.33058c0.15253-2.06232,0.15985-4.09996-0.46643-6.13409
	c-0.35876-1.16524-0.9913-1.78841-2.08514-2.14928c-1.79733-0.59295-3.64105-0.84642-5.54233-0.85374
	c-1.10437-0.00425-2.20218-0.12376-3.29739-0.26568c-2.03751-0.26402-4.02551,0.08409-6.05502,0.24997
	c-1.42551,3.23143-2.98535,6.40181-3.13126,10.07624c-0.91037,3.28231-2.04736,6.49538-3.11298,9.73037
	c-0.05222,0.15851-0.06982,0.32818-0.11798,0.48832c-0.96478,3.20768-1.9332,6.41428-2.89758,9.62209
	c-0.44977,1.49609-0.89496,2.99358-1.33334,4.49305C350.96817,68.81616,351.01614,68.93599,351.05167,69.24918z"/>
<path class="st2" d="M299.25488,126.66539c0.26913-3.20573,0.56711-6.88238,0.89047-10.55678
	c0.19113-2.17143,0.51581-4.3351,0.6142-6.50977c0.1543-3.41042,0.62308-6.78635,0.92548-10.17983
	c0.20831-2.33775,0.31335-4.68464,0.47134-7.02698c0.06018-0.89156,0.147-1.78132,0.20639-2.67292
	c0.04211-0.63297,0.07269-1.28177-0.14771-1.88254c-0.3381-0.07415-0.79343-0.19291-1.22424-0.167
	c-2.74609,0.16514-5.47098-0.07968-8.19678-0.37893c-0.99594-0.10934-2.00784-0.06432-3.00894-0.13758
	c-1.28049-0.0937-2.55753-0.23463-3.83582-0.3576c-0.50034-0.04815-0.99911-0.13301-1.50024-0.14905
	c-2.19601-0.07025-2.02982,0.20084-3.22629,3.16729c-1.58447,3.35777-3.3092,6.64783-4.91095,9.9969
	c-1.42169,2.97258-2.77243,5.97904-4.16959,8.96348c-0.33136,0.70775-0.7316,1.38292-1.08783,2.07936
	c-0.76224,1.49007-1.51266,2.98619-2.27478,4.47631c-1.32098,2.58279-2.63373,5.16994-3.9769,7.74119
	c-0.80643,1.54377-1.66721,3.06126-2.56522,4.55244c-2.12311,1.97033-4.29703,3.88523-6.43767,5.83657
	c-0.91081,0.83029-2.04785,0.90804-3.25414,0.81c0.04919-0.56357-0.16171-1.36734,0.04671-1.99385
	c0.28035-0.84268,0.55421-1.72829,1.04227-2.45401c2.03539-3.02666,3.6223-6.29312,5.2372-9.54442
	c1.6655-3.35315,3.2933-6.72537,4.90192-10.10622c0.62411-1.31172,1.1091-2.68948,1.72925-4.00326
	c1.81302-3.84082,3.68396-7.65434,5.48926-11.49873c1.13986-2.42734,2.19968-4.8922,3.30103-7.3377
	c1.30658-2.90112,2.61945-5.79939,3.93094-8.6983c1.84552-2.89668,3.02109-6.11266,4.44891-9.21021
	c1.47284-3.19514,3.10483-6.3167,4.59134-9.50581c1.65256-3.54537,3.2146-7.13287,4.82669-10.69722
	c0.43704-0.96631,0.92728-1.90849,1.36752-2.87342c1.11322-2.43987,2.26996-4.86227,3.2973-7.33812
	c0.96335-2.32156,1.59119-4.78085,2.65131-7.0657c2.18326-2.5798,4.7717-4.69296,7.65472-6.43111
	c0.73264-0.44167,1.50568-0.69366,2.37106-0.74161c1.39319-0.07719,2.78198-0.23104,4.17407-0.33287
	c0.26993-0.01974,0.6304-0.05014,0.80551,0.09621c0.80618,0.67375,1.87988,1.02943,2.44202,1.98572
	c0.19272,0.32787,0.37051,0.69971,0.42065,1.06967c0.15677,1.15693,0.2998,2.32019,0.35437,3.48539
	c0.07297,1.55875,0.08807,3.12194,0.07056,4.68258c-0.0119,1.05951-0.1626,2.11721-0.18109,3.17694
	c-0.04584,2.62499-0.03052,5.25111-0.08408,7.87588c-0.0372,1.82147-0.56473,3.63156-0.13846,5.46819
	c-1.15872,5.96001-1.18832,12.02913-2.18268,18.00634c-0.25031,1.5046-0.56192,3.98098-0.71533,5.49853
	c-0.43881,4.3401-0.82776,8.68562-1.18951,13.03299c-0.15747,1.89236-0.24026,3.79082-0.38391,5.68447
	c-0.10568,1.39295-0.22998,2.78553-0.39127,4.173c-0.27722,2.38499-0.61499,4.76308-0.87827,7.14949
	c-0.23749,2.1527-0.28143,4.3265-0.55698,6.47571c-0.1832,1.42887-0.32285,2.86138-0.3681,4.30124
	c-0.10043,3.19559-0.57706,6.41719-0.48953,9.61854c0.05914,2.16368-1.19958,3.22444-2.74039,4.20744
	c-1.53964,0.98227-3.27686,1.62527-4.6908,2.83693c-0.80759,0.69205-2.51324,0.56435-3.26917-0.21298
	c-0.26855-0.27618-0.38818-0.80688-0.38376-1.21936C299.07367,130.26581,299.16901,128.70216,299.25488,126.66539z
	 M306.85211,36.52987c-0.20667,0.16248-0.3811,0.2354-0.45111,0.36482c-0.55679,1.02955-1.10831,2.06255-1.63239,3.10901
	c-0.44989,0.89826-0.85361,1.81951-1.29193,2.72372c-0.68112,1.40521-1.39557,2.79462-2.05823,4.20837
	c-1.89255,4.03728-3.73306,8.09927-5.65875,12.12055c-1.27682,2.66634-2.76453,5.23467-3.97531,7.92889
	c-1.21323,2.69974-2.28357,5.45782-3.90591,7.95728c-0.32272,0.49725-0.59915,1.08057-0.39426,1.75543
	c0.14224,0.08176,0.27664,0.21829,0.42419,0.23438c1.16287,0.1268,2.32617,0.27509,3.49344,0.3311
	c1.78314,0.08555,3.57224,0.05726,5.35379,0.16245c1.50262,0.08871,2.99609,0.32262,4.49753,0.44421
	c0.70432,0.05704,1.44797,0.20113,2.16714-0.32486c0.11237-0.61724,0.2598-1.26888,0.34616-1.9285
	c0.42737-3.26466,0.87341-6.52747,1.24734-9.79842c0.55801-4.88172,1.07828-9.76797,1.57657-14.65616
	c0.13562-1.3302,0.13037-2.67452,0.19769-4.01196c0.13742-2.73072,0.28873-5.46077,0.41418-8.19202
	c0.02808-0.61146-0.00644-1.2284-0.05603-1.83924C307.13101,36.93134,306.96976,36.75563,306.85211,36.52987z"/>
<g>
	<path class="st2" d="M555.0545,92.6226c0.16382-0.31886,0.38226-0.62146,0.48267-0.95915
		c0.66895-2.2503,2.00208-4.09611,3.4798-5.86632c0.49786-0.59641,1.00549-1.21548,1.349-1.90389
		c0.90991-1.82367,2.17072-3.3815,3.505-4.89009c0.51984-0.58772,1.08191-1.13277,1.3255-1.91121
		c0.0484-0.15456,0.1601-0.29488,0.26263-0.42609c1.5799-2.02081,2.9613-4.19875,4.89539-5.93604
		c1.53827-1.38174,2.97748-2.87339,4.50836-4.26373c2.83002-2.57025,6.14557-4.29779,9.84772-5.1581
		c2.04248-0.47464,4.09235-0.20657,6.00616,0.85645c1.8606,1.03344,3.2804,2.50313,4.50537,4.18987
		c1.98444,2.73251,3.15192,5.77146,3.35065,9.16335c0.03918,0.66924,0.11261,1.33744,0.19586,2.00293
		c0.16772,1.34065,0.1095,2.66816-0.05621,4.01025c-0.63873,5.172-1.74353,10.24262-3.18994,15.24405
		c-0.05768,0.19949-0.02972,0.42382-0.04974,0.78027c0.34601-0.06313,0.62482-0.04945,0.83423-0.16339
		c0.88892-0.48373,1.68701-1.07838,2.3158-1.89799c0.99054-1.29121,2.10822-2.44701,3.47552-3.3705
		c0.58649-0.39605,1.05432-0.99534,1.50513-1.559c0.98187-1.22767,2.08344-2.32063,3.26691-3.35833
		c1.68243-1.4752,3.14142-3.17805,4.40051-5.02889c1.53864-2.26171,3.03064-4.55602,4.49927-6.86398
		c0.43939-0.69054,1.05048-1.31908,1.13495-2.29604c-0.24799-0.10274-0.48914-0.28589-0.73425-0.29142
		c-2.62012-0.05907-5.24176-0.35367-7.85876,0.14613c-0.63574,0.1214-1.34198,0.05624-1.98291-0.07896
		c-0.78888-0.16642-1.14288-0.80688-0.87195-1.52653c0.84674-2.24901,1.6969-4.49893,2.63824-6.70911
		c0.46106-1.08247,1.32001-1.70198,2.59625-1.82262c1.78021-0.1683,3.53851-0.42442,5.34479-0.31238
		c1.72662,0.10714,3.46588,0.007,5.19958,0.00666c0.93073-0.00018,1.55493-0.37511,1.96533-1.26155
		c0.60938-1.3164,1.28027-2.61138,2.02148-3.8581c1.21051-2.03615,1.92249-4.269,2.73187-6.46858
		c0.28864-0.78437,0.62775-1.55977,1.0329-2.28984c1.30518-2.35212,2.40051-4.79538,3.31555-7.32229
		c0.05707-0.15769,0.10291-0.32335,0.18542-0.46735c1.33789-2.33536,2.05609-4.94588,3.2641-7.33824
		c0.17554-0.34756,0.33643-0.72382,0.59326-1.00546c1.39447-1.52882,2.81537-3.04554,4.67377-4.02284
		c0.62683-0.32964,1.34314-0.52312,2.04114-0.67516c0.97302-0.21193,1.75958,0.29964,2.40283,0.93
		c0.27777,0.27223,0.43384,0.80152,0.41968,1.2061c-0.01904,0.54282-0.20764,1.09716-0.40942,1.61293
		c-0.69092,1.76593-1.53247,3.4778-1.7644,5.39688c-0.03894,0.32249-0.20508,0.6385-0.35303,0.93742
		c-0.89227,1.80264-1.83954,3.57936-2.6853,5.40331c-1.03259,2.22684-2.00006,4.48452-2.96503,6.74194
		c-1.09723,2.56681-2.17523,5.14206-3.23163,7.72589c-0.44263,1.08251-0.86218,2.18066-1.19055,3.30151
		c-0.23169,0.79115,0.09113,1.1236,0.9314,1.17907c0.16687,0.01104,0.33673,0.01311,0.50269-0.00449
		c3.13788-0.33241,6.24701,0.19116,9.36847,0.32923c0.65955,0.02917,1.33124,0.18703,1.96112,0.39531
		c1.19098,0.39388,1.43768,1.05935,0.86066,2.1961c-0.27771,0.5471-0.61725,1.063-0.9325,1.59085
		c-0.88745,1.48605-1.80988,2.95245-2.65314,4.46315c-0.52405,0.93889-1.18903,1.34876-2.3031,1.2554
		c-1.89221-0.15853-3.79608-0.17801-5.69519-0.25277c-0.33423-0.01317-0.66992-0.02806-1.00354-0.01266
		c-1.33728,0.06169-2.67371,0.14358-4.01111,0.20151c-1.20557,0.05221-1.56018-0.01356-2.05579,1.44025
		c-0.9007,2.64196-1.99121,5.21899-2.6189,7.9519c-0.07434,0.32364-0.21942,0.63223-0.34357,0.94305
		c-0.74506,1.86554-1.43256,3.74207-2.00452,5.67799c-1.12421,3.80489-2.19806,7.62083-3.10358,11.48125
		c-0.89734,3.82531-1.31152,7.67956-0.96405,11.64028c0.2124,2.42083,0.66797,4.74709,1.35315,7.05495
		c0.15869,0.53436,0.23547,1.09249,0.3725,1.63396c0.24066,0.95086,0.66351,1.77851,1.57916,2.2334
		c0.13544,0,0.26971,0.04164,0.35217-0.00614c1.92505-1.11564,3.94336-2.0983,5.24359-4.04433
		c0.43024-0.64393,0.9657-1.24873,1.55933-1.7442c0.69989-0.58428,1.20532-1.28531,1.74213-2.00586
		c1.91095-2.56523,3.31122-5.43324,4.96765-8.14791c1.8916-3.10021,3.64355-6.29111,5.65173-9.31264
		c1.0791-1.62363,2.2179-3.21108,3.23572-4.87862c0.43652-0.7152,0.87732-1.42799,1.32831-2.13414
		c1.35364-2.11945,2.66022-4.27166,4.0863-6.34138c1.27936-1.85675,2.11304-3.93504,3.17749-5.89706
		c0.77222-1.4233,1.60449-2.81393,2.37891-4.23607c0.47955-0.8808,0.91058-1.78866,1.34644-2.69255
		c0.8006-1.66024,1.57153-3.33498,2.38708-4.98775c0.73145-1.48214,1.854-2.64573,3.13031-3.67075
		c0.17407-0.13979,0.33575-0.36366,0.52991-0.39809c0.89655-0.15897,1.43347-0.80502,2.0415-1.37967
		c0.91809-0.86759,1.13599-0.88347,2.16583-0.17113c0.55005,0.38054,1.05957,0.8205,1.58026,1.2425
		c0.55493,0.44981,0.646,1.02375,0.38678,1.65963c-0.37921,0.93019-0.72333,1.87991-1.17584,2.77405
		c-1.58844,3.13902-3.14301,6.29909-4.85846,9.36845c-0.98907,1.76974-1.71417,3.62593-2.47162,5.48848
		c-2.31793,5.69973-4.15881,11.56557-6.08502,17.39914c-1.33527,4.04396-2.00903,8.24045-2.29285,12.49423
		c-0.03711,0.55593-0.14343,1.10723-0.21643,1.66085c-0.28101,2.13236-0.09143,4.22734,0.4281,6.31072
		c0.34161,1.36993,1.26013,2.35426,2.14917,3.34338c0.30103,0.33491,0.85858,0.53312,1.32739,0.60316
		c0.89062,0.13306,1.80096,0.04906,2.62579-0.35654c1.69983-0.83586,3.46674-1.54777,4.89642-2.86685
		c0.81775-0.75445,1.73242-1.40517,2.61469-2.08812c1.2442-0.9631,2.1947-2.1961,3.25049-3.34432
		c3.21735-3.49902,5.30109-7.71999,7.79596-11.6804c0.47565-0.7551,0.98279-1.4904,1.45654-2.24669
		c0.32562-0.51987,0.60046-1.0717,0.92987-1.58898c0.71826-1.12785,1.33209-2.35525,2.21686-3.33603
		c1.25873-1.3952,2.13428-3.00153,3.02344-4.61199c1.18842-2.15256,2.26544-4.36875,3.50745-6.48898
		c1.04407-1.78244,2.25342-3.46828,3.39374-5.19415c2.7533-4.16694,6.0368-7.891,9.55841-11.41403
		c0.55194-0.55219,1.15643-1.05148,1.72534-1.58722c1.17822-1.10954,2.33136-2.24632,3.52734-3.33617
		c1.28448-1.17044,2.6347-2.24215,4.34479-2.76817c0.74506-0.22914,1.48425-0.52361,2.16864-0.89451
		c2.01526-1.0921,4.11737-0.89936,6.20935-0.42501c1.57855,0.35795,3.125,0.86587,4.67267,1.34895
		c1.84863,0.57701,3.41895,1.65272,4.85736,2.91157c0.88202,0.77194,1.69421,1.62563,2.51672,2.46317
		c1.8067,1.83967,2.95886,4.0634,3.63306,6.52278c0.27844,1.01559,0.38599,2.0876,0.48126,3.14207
		c0.35101,3.88442,0.00739,7.71153-1.16846,11.43615c-0.75665,2.39658-1.62262,4.75851-2.42047,7.14236
		c-0.11621,0.34737-0.12592,0.73036-0.20819,1.24148c0.39496-0.03352,0.68823,0.01944,0.89899-0.08856
		c1.7395-0.8916,3.47339-1.79543,5.1864-2.73673c0.48315-0.26553,0.91302-0.64286,1.33044-1.01077
		c2.3476-2.06921,4.67993-4.15573,7.02728-6.22523c0.50238-0.44287,1.00677-0.90414,1.5769-1.24551
		c1.55396-0.93041,2.84546-2.15038,4.08899-3.44629c1.12183-1.16909,2.33459-2.25124,3.44928-3.42672
		c2.62885-2.77229,5.05249-5.7274,6.45117-9.31847c0.83264-2.13777,1.91809-3.999,3.63721-5.51781
		c1.21112-1.06998,2.34314-2.22918,3.52325-3.33488c0.1543-0.14452,0.38489-0.20755,0.56549-0.30079
		c0.98456,0.26976,1.71478,0.85524,2.41486,1.50792c0.53992,0.50329,0.73718,1.10019,0.65308,1.8123
		c-0.01959,0.16646-0.03046,0.33753-0.07825,0.4966c-0.77045,2.56249-1.29095,5.20795-2.60242,7.58899
		c-0.72791,1.32142-1.29553,2.7085-1.73413,4.16466c-0.38483,1.27751-0.99304,2.48717-1.49164,3.73116
		c-0.35266,0.8797-0.69788,1.7627-1.02753,2.65124c-0.73798,1.98946-1.46606,3.98259-2.19385,5.97578
		c-0.18994,0.5201-0.36414,1.04591-0.53381,1.53519c0.32135,0.38042,0.5863,0.15505,0.75159-0.0144
		c0.62286-0.63824,1.21466-1.30734,1.8067-1.97497c1.22205-1.37807,2.43719-2.76228,3.65436-4.14465
		c1.07025-1.21551,2.06677-2.50653,3.22339-3.63326c2.87842-2.80402,5.62817-5.75799,8.96667-8.05289
		c0.36725-0.25246,0.73267-0.52179,1.04639-0.83572c2.44818-2.44958,5.39667-4.13377,8.48102-5.62604
		c1.75934-0.85121,3.47632-1.78969,5.23254-2.64766c1.25934-0.61525,2.58533-1.04466,3.98364-1.24475
		c0.88324-0.12634,1.75531-0.32868,2.63611-0.47412c0.4942-0.0816,0.99597-0.11702,1.49438-0.17285
		c0.92419-0.10354,1.62329,0.2567,2.15912,1.00583c0.35754,0.49987,0.75281,0.97295,1.1358,1.45435
		c0.38757,0.48713,0.35999,0.96091,0.16455,1.55725c-0.98114,2.99401-2.59332,5.68206-4.01422,8.46211
		c-0.91565,1.79133-1.91327,3.54121-2.80585,5.34352c-0.39374,0.79517-0.58984,1.68566-0.92444,2.51313
		c-0.85858,2.12283-1.76849,4.22504-2.61322,6.35322c-1.11182,2.80116-2.30933,5.57014-3.19348,8.45867
		c-0.39185,1.28043-0.82452,2.54934-1.27319,3.81123c-0.849,2.38829-1.29541,4.85113-1.46301,7.37431
		c-0.07037,1.05902-0.19769,2.11419-0.29523,3.17147c-0.20892,2.26304,0.1864,4.48505,0.82471,6.61063
		c0.76959,2.56287,1.82947,5.03831,3.40686,7.25379c0.54871,0.77061,1.29333,1.05914,2.15204,1.09945
		c2.22083,0.10416,4.36066-0.24606,6.27386-1.44807c1.08649-0.68259,2.12885-1.44124,3.14917-2.22043
		c0.43481-0.33196,0.77148-0.79632,1.13684-1.21436c0.62927-0.71997,1.28809-1.39693,2.2088-1.74763
		c0.3808-0.14503,0.75507-0.21243,1.11926,0.03961c1.31281,0.9086,2.27747,2.80127,1.00488,4.31209
		c-0.86664,1.02894-1.76385,1.99945-2.80573,2.86031c-1.42004,1.17339-2.75531,2.44904-4.13519,3.67151
		c-0.37274,0.33025-0.75763,0.65273-1.16791,0.9335c-0.92175,0.63081-1.85101,1.25232-2.79852,1.84352
		c-2.21228,1.38034-4.60419,2.37907-7.21405,2.4552c-1.35974,0.03966-2.74335-0.44276-4.10101-0.75525
		c-0.64813-0.14915-1.28638-0.40015-1.88416-0.69592c-1.17902-0.5834-2.11768-1.46199-2.75128-2.6189
		c-0.91187-1.66481-1.92651-3.29367-2.63837-5.04321c-1.3089-3.21729-2.20172-6.54371-2.10144-10.08761
		c0.10321-3.64964,0.54175-7.26086,1.40155-10.78815c0.69965-2.87048,1.69971-5.67598,2.69617-8.46396
		c1.48547-4.15638,3.10797-8.26359,4.62878-12.40765c1.25543-3.42097,2.91583-6.65104,4.53516-9.90253
		c0.44861-0.90075,0.90582-1.79807,1.31879-2.71512c0.12756-0.28321,0.12158-0.62654,0.19867-1.0675
		c-0.41345-0.02034-0.73059-0.0765-1.03619-0.03881c-0.27075,0.03341-0.54309,0.14258-0.79004,0.26725
		c-2.54138,1.28357-5.16199,2.43849-7.58887,3.91185c-1.93384,1.17399-3.9845,2.29626-5.33801,4.25286
		c-0.24799,0.35848-0.64264,0.61767-0.97784,0.91335c-1.04828,0.9249-2.06122,1.87008-2.82599,3.06905
		c-0.35303,0.5535-0.87042,1.01525-1.36279,1.46435c-1.53345,1.39877-3.00488,2.85549-4.05719,4.6608
		c-0.89545,1.53618-2.32825,2.55801-3.53802,3.78199c-1.26971,1.28465-2.28424,2.74355-3.37347,4.15817
		c-0.64539,0.83822-1.29913,1.68246-2.04504,2.42804c-1.23541,1.23484-2.27625,2.5984-3.19238,4.0823
		c-0.79034,1.28011-1.67035,2.50658-2.54449,3.73271c-0.71326,1.00059-1.41852,1.97655-1.84558,3.16602
		c-0.56354,1.56966-1.35352,3.05648-1.96552,4.61064c-0.79645,2.02249-1.47577,4.09129-2.28198,6.1096
		c-0.36945,0.92482-0.90881,1.78373-1.39429,2.6597c-0.48584,0.87673-1.0014,1.73697-1.50201,2.60557
		c-0.08374,0.14526-0.19818,0.28816-0.22961,0.44588c-0.36902,1.85262-1.80109,3.03844-2.81067,4.48613
		c-0.79755,1.14368-1.64386,2.25331-2.46545,3.38031c-0.09827,0.1348-0.16815,0.29037-0.26672,0.42497
		c-0.83124,1.13506-1.67682,1.41103-3.05145,1.00157c-0.58643-0.1747-0.93774-0.58768-0.9693-1.22038
		c-0.01648-0.33136,0.02734-0.67078,0.08325-0.99986c0.28217-1.66133,0.8017-3.24011,1.54919-4.7579
		c1.08551-2.20405,2.05554-4.45627,2.81146-6.80392c0.77032-2.3924,1.67511-4.74114,2.48334-7.1218
		c1.43658-4.23168,3.07343-8.38543,4.7392-12.53082c1.16693-2.90409,2.20227-5.86103,3.30005-8.79302
		c0.6662-1.77939,1.34894-3.55264,2.00452-5.33591c0.25043-0.68137,0.45966-1.37904,0.65698-2.07793
		c0.05139-0.18182-0.01239-0.39613-0.02203-0.57346c-0.15985-0.02519-0.24097-0.06207-0.2666-0.03851
		c-0.73743,0.67686-1.48572,1.34311-2.19849,2.04539c-1.35211,1.33213-2.68427,2.6845-4.02252,4.03059
		c-0.47186,0.47464-0.92078,0.97338-1.41034,1.42864c-0.52948,0.49229-1.05072,1.01376-1.6524,1.40403
		c-1.41882,0.92033-2.63043,2.05301-3.81439,3.2533c-1.13324,1.14888-2.4306,2.13576-3.65448,3.19542
		c-0.3797,0.3288-0.78571,0.63403-1.12659,0.99953c-1.11749,1.1982-2.30914,2.26756-3.92816,2.7624
		c-0.35779,0.1094-0.66931,0.3939-0.98126,0.62589c-1.40961,1.04823-2.9339,1.85004-4.68542,2.13182
		c-1.42798,0.22974-2.40356,0.97791-3.14948,2.23441c-1.62744,2.74134-3.55444,5.26946-5.61145,7.71434
		c-1.26965,1.50914-2.8017,2.71176-4.15692,4.1097c-1.51996,1.56789-3.1333,3.00921-4.89587,4.30964
		c-1.47668,1.08952-2.80829,2.37499-4.21362,3.56242c-0.24921,0.21056-0.53809,0.37804-0.82178,0.54282
		c-0.23962,0.13916-0.5401,0.19764-0.74213,0.37383c-1.92639,1.68048-4.30792,2.5636-6.51721,3.74698
		c-1.27747,0.68428-2.55841,1.36308-3.85272,2.01468c-1.11047,0.55894-2.29584,0.8479-3.54053,0.95235
		c-1.16107,0.09741-2.23425-0.22862-3.24518-0.68123c-0.90967-0.40727-1.74683-0.994-2.5719-1.56526
		c-0.40295-0.27902-0.75696-0.66599-1.04535-1.06721c-1.75592-2.44312-2.86359-5.16711-3.44983-8.1124
		c-0.76477-3.84241-1.25409-7.71979-1.51599-11.6277c-0.02216-0.33044-0.09998-0.65955-0.18079-0.98205
		c-0.02185-0.08714-0.14948-0.14774-0.24176-0.23268c-0.57501,0.07407-0.81665,0.54971-1.04785,0.97623
		c-1.68628,3.11082-4.07239,5.73627-6.01379,8.67268c-0.91278,1.38053-2.17096,2.53925-3.3147,3.75899
		c-1.83673,1.95888-3.73779,3.85954-5.92419,5.43179c-1.22333,0.87964-2.50012,1.69617-3.80939,2.44193
		c-1.44037,0.82047-3.09113,0.87939-4.69434,1.10489c-3.05328,0.42947-5.27411-0.96234-7.13861-3.17204
		c-0.4325-0.5125-0.82538-1.0582-1.25122-1.57655c-0.72839-0.88663-1.16028-1.91682-1.37988-3.02197
		c-0.42523-2.14047-0.71448-4.29855-0.56519-6.49179c0.23901-3.5126,0.40918-7.03606,1.03918-10.50502
		c0.42902-2.36272,1.02545-4.69491,1.53497-7.04333c0.07898-0.36407,0.09332-0.74218,0.17139-1.39812
		c-0.4082,0.3058-0.63708,0.41602-0.77948,0.59505c-0.48535,0.61031-0.94312,1.24273-1.4057,1.87092
		c-0.36407,0.49438-0.76373,0.96935-1.07166,1.49722c-1.46368,2.50913-2.89801,5.03541-4.35205,7.55019
		c-0.22333,0.38618-0.49982,0.74126-0.74347,1.11604c-0.72858,1.12055-1.56116,2.1756-1.9743,3.48483
		c-0.14764,0.46796-0.45789,0.89428-0.73944,1.30866c-1.31689,1.93792-2.61188,3.89257-3.99219,5.78469
		c-0.72095,0.98833-1.65265,1.82095-2.39996,2.79247c-1.49634,1.94523-2.98492,3.85516-5.15118,5.16088
		c-0.83868,0.50551-1.4682,1.35117-2.47589,1.65601c-1.30847,0.39584-2.65912,0.32698-3.98535,0.31989
		c-0.90729-0.00482-1.64148-0.65076-2.30377-1.26817c-1.55157-1.44652-2.59662-3.16087-3.04028-5.27426
		c-0.33203-1.58157-0.93854-3.10476-1.28607-4.68403c-0.28662-1.30268-0.40875-2.64596-0.53784-3.97765
		c-0.12927-1.33451-0.20465-2.67593-0.25488-4.01614c-0.13055-3.48782,0.37244-6.92005,1.09003-10.31302
		c0.53125-2.51212,1.24524-4.98576,1.88568-7.47453c0.41724-1.62169,0.83887-3.24236,1.27612-4.85875
		c0.52472-1.94005,1.07275-3.87385,1.59619-5.81422c0.05316-0.1969,0.00714-0.42057,0.00714-0.63875
		c-0.16016,0-0.31268-0.0435-0.35486,0.00636c-1.26093,1.49052-2.51117,2.9901-3.76245,4.48877
		c-0.17902,0.21445-0.3324,0.45592-0.53564,0.64372c-1.73236,1.60088-3.07867,3.53651-4.62585,5.29736
		c-0.513,0.58385-1.14624,1.06042-1.68103,1.62708c-0.91803,0.97281-1.85999,1.93251-2.68195,2.98373
		c-0.66101,0.84541-1.37384,1.60355-2.21674,2.26312c-0.65735,0.51441-1.34015,1.03325-1.86816,1.66925
		c-1.88788,2.27415-4.1369,4.06999-6.78973,5.35962c-0.73407,0.35685-1.28522,0.87151-1.66107,1.59337
		c-0.70081,1.34576-1.62073,2.52963-2.58875,3.69832c-0.99396,1.20002-1.81897,2.53938-2.72815,3.81048
		c-1.33795,1.87064-2.96002,3.4874-4.58862,5.09696c-0.55652,0.54997-1.1604,1.05566-1.68347,1.63506
		c-1.24756,1.38209-2.72382,2.4601-4.28113,3.46284c-1.40741,0.9062-2.74219,1.92502-4.11139,2.89078
		c-1.59491,1.12503-3.13348,2.3446-4.80225,3.34711c-2.76825,1.66301-5.74469,2.09935-8.84967,0.98793
		c-1.23755-0.44298-2.21832-1.27922-3.13049-2.19812c-2.04938-2.06454-3.37946-4.56815-4.41187-7.25163
		c-0.22076-0.57378-0.40735-1.1617-0.65143-1.72498c-0.0993-0.2292-0.31006-0.41008-0.46344-0.60458
		c-0.18158,0.11489-0.31995,0.15147-0.35944,0.23486c-0.93079,1.96741-1.87109,3.93077-2.76526,5.91489
		c-0.5097,1.13097-1.12207,2.21053-2.02582,3.03575c-1.88245,1.71895-3.03638,3.85432-3.73639,6.24271
		c-1.19574,4.07956-2.75116,8.02797-4.26459,11.99136c-1.71393,4.4884-3.4895,8.95323-5.23163,13.43089
		c-0.52588,1.35173-1.05927,2.70178-1.53607,4.07108c-0.58435,1.67818-1.64581,3.02126-2.84119,4.28839
		c-1.37781,1.46043-2.74963,2.92677-4.10248,4.41025c-0.43237,0.47421-0.92566,0.7915-1.547,0.93672
		c-0.64899,0.15173-1.20953-0.007-1.72821-0.4066c-0.49683-0.38272-0.52747-0.86122-0.552-1.46645
		c-0.03119-0.77112,0.16315-1.36188,0.52887-2.01918c0.81256-1.4604,1.59711-2.94925,2.23145-4.49295
		c0.97675-2.37686,1.82593-4.80649,2.71417-7.21928c0.8302-2.25519,1.65912-4.51117,2.45599-6.77827
		c1.29712-3.69012,2.58264-7.38445,3.84424-11.08679c0.8819-2.58809,1.72455-5.18968,2.5686-7.79048
		c0.91388-2.81599,1.77686-5.64893,2.72375-8.45366c0.62561-1.85309,1.37067-3.66555,2.04352-5.50307
		c1.63312-4.45977,3.26135-8.92139,4.87598-13.38789c0.26562-0.73497,0.46112-1.49606,0.67346-2.24946
		c0.71204-2.52664,1.36353-5.07188,2.14264-7.57755c0.56323-1.81158,1.29803-3.56956,1.94629-5.3551
		c0.93378-2.57191,1.88928-5.13651,2.77954-7.72351c1.25433-3.64513,2.46106-7.30664,3.67773-10.96461
		c0.1582-0.47558,0.29993-0.96515,0.37152-1.45949c0.24139-1.66705,0.75555-3.26121,1.19611-4.87864
		c0.30859-1.13286,0.8916-2.04279,1.72046-2.81741c1.30115-1.21609,2.62573-2.40719,3.94476-3.60414
		c0.24774-0.22488,0.51068-0.434,0.77533-0.63913c0.39716-0.30785,0.79333-0.27708,1.25073-0.07417
		c2.71436,1.20416,3.14386,2.10919,2.35907,4.958c-0.51886,1.88346-0.98077,3.78268-1.50555,5.66444
		c-0.22467,0.80567-0.49677,1.60545-0.82898,2.37254c-1.37964,3.18517-2.42505,6.48756-3.4953,9.78218
		c-0.1203,0.3703-0.29956,0.72102-0.43225,1.08778c-0.68365,1.8897-1.36584,3.78-2.03497,5.67489
		c-0.08673,0.24573-0.09503,0.51919-0.13965,0.7798C554.91119,92.57121,554.98285,92.59692,555.0545,92.6226z M717.25806,106.92529
		c-0.27319-0.11644-0.6048-0.30733-0.96191-0.40182c-2.37952-0.62949-4.77728-1.19222-7.13867-1.88615
		c-1.2807-0.79438-2.38995-1.82926-3.52618-2.82012c-0.51428-0.4485-0.64124-1.04995-0.46991-1.68407
		c0.11523-0.42675,0.27606-0.86173,0.51233-1.23185c1.20441-1.88649,2.53992-3.6696,4.11438-5.27513
		c0.81683-0.83298,1.73236-1.02859,2.74133-0.59334c0.86646,0.37374,1.66156,0.91046,2.49927,1.35432
		c0.63739,0.33769,1.26782,0.71367,1.94495,0.94475c1.74585,0.5958,3.62732,0.84018,5.35504,1.29464
		c1.04614-2.41053,1.63245-4.96629,2.34857-7.48158c1.37469-4.82854,1.24243-9.61629-0.47961-14.32972
		c-1.26514-3.46287-3.89111-5.47924-7.31268-6.57349c-0.42432-0.1357-0.87982-0.18092-1.29474-0.33747
		c-5.25739-0.12378-8.15759,1.24714-9.90198,2.83933c-1.79126,1.66311-3.55872,3.39787-4.70557,5.63303
		c-0.30017,0.58501-0.76929,1.08233-1.15039,1.6272c-0.35181,0.50303-0.72009,0.99815-1.02783,1.52772
		c-0.86914,1.49571-1.69061,3.01925-2.5683,4.50975c-1.31342,2.23038-2.66614,4.43764-3.99249,6.66046
		c-0.70337,1.74293-1.48187,3.45947-2.11548,5.22771c-1.0603,2.95903-1.86279,5.98112-1.69556,9.16984
		c0.07898,1.50539,0.27228,3.00675,0.30414,4.51225c0.06549,3.09755,0.6897,6.10275,1.37854,9.1004
		c0.35358,1.5388,1.03168,2.93188,1.83575,4.29517c0.70923,1.20254,3.94318,1.48558,5.30243,1.36201
		c3.75317-0.3412,7.50641-1.81974,12.10565-5.9708c0.68756-0.65339,1.42468-1.255,2.10461-1.91586
		c0.47534-0.46204,0.96558-0.93703,1.32147-1.48866c1.36249-2.11204,2.6756-4.25597,4.00171-6.3914
		C717.07904,108.132,717.42773,107.67297,717.25806,106.92529z M578.99231,111.98077
		c-0.74402-0.19228-1.32739-0.34171-1.9101-0.49397c-1.72913-0.45183-3.51978-0.74072-5.1073-1.56944
		c-2.34369-1.64011-2.84656-1.97386-1.96063-3.55021c0.70886-1.26132,1.60938-2.41546,2.41614-3.62033
		c0.94073-0.1805,1.3949-0.91455,1.95148-1.53616c0.61298-0.68459,1.40808-0.87344,2.27997-0.78038
		c0.38635,0.04123,0.78308,0.1199,1.14124,0.26506c1.92444,0.77975,4.02979,0.46849,5.98816,0.99933
		c2.05334-5.96673,3.25464-12.11131,4.03491-18.33962c-0.0694-1.25415-0.07111-2.53498-0.22882-3.79205
		c-0.38434-3.06296-0.84674-6.07954-3.0177-8.54301c-0.9408-1.06757-1.99115-1.64177-3.36841-1.44171
		c-2.10297,0.30541-3.95221,1.06301-5.25305,2.92023c-0.95764,1.36732-2.11426,2.59438-3.16638,3.89671
		c-0.91071,1.12733-1.81616,2.2598-2.69025,3.41546c-0.43347,0.57306-0.78015,1.21091-1.18573,1.80605
		c-0.65973,0.96819-1.40381,1.88559-1.99261,2.8943c-2.27087,3.89027-4.49237,7.80933-6.73004,11.71896
		c-0.74603,1.65916-1.48224,3.32273-2.22046,4.9854c-0.43384,1.77282-0.91827,3.5429-1.1958,5.34302
		c-0.24591,1.59468-0.45319,3.24224-0.32343,4.83768c0.23523,2.89197,0.62787,5.78395,1.90558,8.46297
		c0.28699,0.60177,0.38971,1.29248,0.68463,1.88923c0.5918,1.19759,1.16223,2.42434,1.91632,3.51855
		c1.00946,1.46465,2.8017,1.80007,4.4491,1.03186c0.29901-0.13944,0.61963-0.25421,0.94257-0.31717
		c1.87317-0.36512,3.42926-1.43897,4.78589-2.61661c2.06482-1.79241,3.49915-4.33976,5.37469-6.27177
		C577.08606,115.29912,578.6488,114.23455,578.99231,111.98077z"/>
	<path class="st2" d="M541.49005,52.78801c-0.06317,5.15019-0.14069,9.45905-1.03912,13.68177
		c-0.90558,4.25669-1.86218,8.5093-3.00818,12.70589c-0.85059,3.115-1.83276,6.20501-3.24054,9.14477
		c-1.27802,2.66871-2.34674,5.43733-3.61182,8.11269c-0.90607,1.91609-1.92236,3.78722-2.99915,5.61373
		c-1.75854,2.98299-3.55829,5.94434-5.43268,8.85554c-1.38824,2.15605-2.84259,4.25933-4.80005,5.99838
		c-1.36847,1.21581-2.52972,2.67477-3.71857,4.08007c-1.34521,1.5901-2.79507,3.05465-4.54053,4.22129
		c-2.47198,0.80322-4.51199,2.38302-6.72791,3.64583c-0.53333,0.30394-1.05789,0.63655-1.62207,0.87
		c-0.90451,0.37419-1.66925,0.84503-2.12762,1.77658c-0.18152,0.36894-0.58844,0.66582-0.95456,0.89803
		c-1.23175,0.78123-2.54376,1.39578-3.96115,1.77721c-1.07867,0.29027-2.13898,0.65161-3.2225,0.92059
		c-2.54059,0.63071-4.92508,0.09653-7.02325-1.34732c-2.01892-1.38933-3.98227-2.89822-5.6792-4.68034
		c-3.61307-3.79433-6.62616-7.98566-8.31509-13.02396c-0.5347-1.595-1.01993-3.18948-1.19464-4.87079
		c-0.05743-0.55268-0.25082-1.09005-0.33072-1.64185c-0.18372-1.2687-0.34607-2.54076-0.49533-3.814
		c-0.05188-0.44267,0.01389-0.90256-0.06522-1.33804c-0.66473-3.66013,0.04324-7.23965,0.68549-10.80631
		c0.60324-3.34995,1.3606-6.67244,2.07288-10.00218c0.12772-0.59718,0.35535-1.17435,0.5553-1.75442
		c0.41885-1.21505,0.91537-2.40739,1.26425-3.64176c1.60849-5.69077,4.48309-10.79493,7.71213-15.75762
		c0.07529-0.11569,0.14005-0.2397,0.19418-0.36665c0.79828-1.87117,1.87686-3.48587,3.05896-5.07145
		c2.03769-2.73317,4.32034-5.26713,6.41202-7.9479c1.9725-2.52797,4.41025-4.58664,6.47339-7.01028
		c1.48599-1.74563,3.46808-2.93914,5.24304-4.35374c1.56961-1.25095,3.20135-2.41508,4.90024-3.48391
		c3.64093-2.29062,7.65887-4.93891,12.00775-6.27449c3.65088-0.52474,7.24603-0.52996,10.3924,1.60113
		c1.39838,0.94721,2.61914,2.06714,3.81555,3.25c2.83685,2.80471,5.02313,6.07738,6.78857,9.65879
		C540.44702,45.97208,541.74036,49.86288,541.49005,52.78801z M481.95413,78.09798c-0.11356-0.03333-0.22708-0.06665-0.34064-0.1
		c-0.17468,0.31928-0.41586,0.61943-0.51398,0.96071c-1.24988,4.34681-2.53546,8.67398-3.04486,13.2072
		c-0.26846,2.389-0.57346,4.73333-0.40338,7.1547c0.21555,3.06911,0.61041,6.04481,1.33746,9.17139
		c1.15045,3.35915,2.30667,6.5438,4.3848,9.25838c1.12042,1.46355,2.29706,2.88453,3.4639,4.312
		c0.95837,1.17242,2.41208,1.79758,3.35049,3.00336c0.15915,0.20449,0.45032,0.33892,0.70737,0.42882
		c1.00928,0.35295,2.05606,0.65238,3.12225,0.45528c2.7229-0.5033,8.7489-3.42216,9.42761-3.73117
		c0.84027-0.38261,1.48215-0.95835,2.10648-1.60584c1.9407-2.01251,3.93863-3.9855,5.41501-6.37807
		c2.55264-4.13666,4.91495-8.38264,7.2529-12.64637c2.18298-3.98114,4.01495-8.11039,5.7215-12.29823
		c1.64154-4.02826,3.01752-8.17439,3.61182-12.54183c0.04401-0.32308,0.10815-0.64445,0.19733-0.95811
		c1.00336-3.53132,1.91235-7.03775,2.2594-10.66068c0.4375-4.56781,0.80487-9.1139-0.27386-13.67253
		c-0.70325-2.97187-1.60638-5.8332-3.48828-8.25288c-1.33203-1.7128-2.8136-3.32712-4.36572-4.84494
		c-1.0835-1.05951-2.43994-1.76656-4.05951-1.75695c-0.49786,0.00297-1.00195-0.09725-1.49365-0.1972
		c-0.92889-0.18889-1.73132,0.00754-2.54272,0.52113c-1.3822,0.87486-2.62982,1.91404-3.72858,3.0955
		c-2.35779,2.53525-4.6322,5.1482-6.92871,7.73996c-0.21817,0.24622-0.34775,0.5699-0.52512,0.85344
		c-0.62103,0.99264-1.21448,2.00426-1.87366,2.97099c-1.78839,2.62289-3.69986,5.14364-4.90576,8.14699
		c-1.08374,2.69915-2.22339,5.35274-2.8392,8.21571c-0.42862,1.99262-0.59601,7.48334-0.11703,9.47398
		c0.29324,2.71434,3.21295,8.57069,6.16776,11.22906c2.25449,2.02834,5.28162,2.77224,7.28366,5.02803
		c-0.48511,0.71446-2.54291,2.67898-3.66547,3.9147c-1.47137,1.61977-3.38031,2.57038-5.33133,3.4543
		c-1.63672,0.13966-3.25198-0.00553-4.6261-0.92507c-2.5257-1.69019-4.87622-3.55451-6.12247-6.48154
		c-0.58966-1.38492-1.40259-2.6777-1.95218-4.076c-0.67365-1.71394-1.22083-3.48186-1.74237-5.25014
		c-0.50281-1.70474-1.02628-3.4181-0.80225-5.24557C482.11557,78.75607,481.99902,78.42263,481.95413,78.09798z"/>
	<path class="st2" d="M687.10193,43.63955c-0.0354,0.50624,0.01782,0.81569-0.08624,1.05745
		c-0.61823,1.43592-1.24847,2.92808-2.61395,3.78653c-1.1156,0.70144-2.3847,1.1711-3.61346,1.67624
		c-0.9754,0.401-1.9895,0.70984-2.99329,1.03883c-0.31378,0.10286-0.64807,0.14784-0.97583,0.20249
		c-0.71484,0.11917-1.4483,0.16474-2.14435,0.35142c-2.66382,0.71436-5.09247,0.14194-7.3208-1.35052
		c-0.77869-0.52154-1.44946-1.2222-2.10065-1.90656c-0.23779-0.24989-0.43048-0.71432-0.37897-1.03885
		c0.25342-1.59654,0.55963-3.18712,0.9162-4.7642c0.40729-1.80143,1.70648-2.98596,3.07568-4.05915
		c0.96057-0.75291,1.99274-1.39743,3.14996-1.87973c1.84924-0.77069,3.62256-1.72333,5.43066-2.59332
		c0.25061-0.12058,0.50928-0.2395,0.7774-0.30595c0.82355-0.20407,3.68658,0.38517,4.33063,0.94931
		C685.29431,37.20325,686.64575,40.3075,687.10193,43.63955z"/>
</g>
</svg>
