<?xml version="1.0" encoding="utf-8"?>
<!-- Generator: Adobe Illustrator 25.4.1, SVG Export Plug-In . SVG Version: 6.00 Build 0)  -->
<svg version="1.1" id="Layer_1" xmlns="http://www.w3.org/2000/svg" xmlns:xlink="http://www.w3.org/1999/xlink" x="0px" y="0px"
	 viewBox="0 0 1084.36133 188.99892" style="enable-background:new 0 0 1084.36133 188.99892;" xml:space="preserve">
<style type="text/css">
	.st0{fill:#EFEDE6;}
	.st1{fill:#EFEDE5;}
	.st2{fill:#B48039;}
	.st3{fill:#AD8246;}
	.st4{fill:none;stroke:#B48039;stroke-width:0.99892;stroke-miterlimit:10;}
	.st5{fill:#FF00FF;}
	.st6{fill:#00FFFF;}
	.st7{fill:#606060;}
	.st8{fill:#A7834F;}
</style>
<g id="Bittercube-Flavors-19_1_00000149374929527407429100000006696226043697049519_">
	<g>
		<path class="st2" d="M948.84613,111.93481c-0.10693,0.01445-0.15088,0.00887-0.15863,0.02309
			c-0.72333,1.31934-1.93451,2.19801-2.9317,3.27067c-0.43048,0.46301-0.74994,1.02725-1.14825,1.52264
			c-0.43567,0.54181-0.88654,1.07372-1.36157,1.58112c-1.84717,1.97301-3.70074,3.94012-5.56427,5.89769
			c-0.76593,0.80463-1.62036,1.5313-2.33429,2.37794c-1.54333,1.83022-3.61377,3.0545-5.30548,4.71357
			c-0.39392,0.38635-1.01965,0.55016-1.55634,0.77406c-0.87158,0.36363-1.7359,0.7748-2.64319,1.0154
			c-1.19861,0.31781-2.49664,0.34966-3.62415-0.09111c-1.13208-0.44254-2.22675-1.06273-2.96869-2.19405
			c-0.97607-1.4882-1.75482-3.02863-2.13275-4.77165c-0.14685-0.67743-0.42627-1.33093-0.52637-2.0128
			c-0.30365-2.06898-0.61786-4.14088-0.78839-6.22308c-0.08533-1.04266,0.12708-2.11061,0.21466-3.16631
			c0.11072-1.33408,0.23889-2.66676,0.34149-4.00143c0.02032-0.26391-0.04089-0.5341-0.0705-0.8696
			c-0.62903,0.25463-0.79028,0.80222-1.11871,1.1892c-0.23279,0.27433-0.44586,0.56798-0.6438,0.86873
			c-0.25836,0.39251-0.52533,0.78469-0.73212,1.20481c-0.69019,1.40213-1.49933,2.72556-2.43549,3.97876
			c-0.49597,0.66395-0.90143,1.39491-1.35968,2.08772c-0.35229,0.53253-0.71704,1.05714-1.0871,1.57752
			c-1.07355,1.5095-2.15253,3.01511-3.22949,4.52218c-0.04871,0.06819-0.09375,0.13978-0.1485,0.20286
			c-1.14905,1.3237-2.29303,2.65194-3.45239,3.96656c-0.45917,0.5206-0.93207,1.03297-1.43848,1.50652
			c-0.3396,0.31752-0.76788,0.53821-1.12366,0.84084c-0.75098,0.63885-1.66443,1.00441-2.48175,1.52681
			c-1.29755,0.82925-2.70032,0.96941-4.17584,0.79936c-0.40942-0.04718-0.82788-0.16078-1.22797-0.11627
			c-1.14795,0.12767-2.09424-0.29379-2.92065-1.01149c-1.09808-0.95372-2.10962-2.00166-2.78143-3.30901
			c-0.55896-1.08781-1.06757-2.20375-1.54724-3.32906c-0.19354-0.45417-0.271-0.9625-0.3667-1.45294
			c-0.38989-1.99798-0.81049-3.99129-0.73444-6.0486c0.04205-1.13834,0.00061-2.28025,0.05994-3.41725
			c0.0318-0.60865,0.23553-1.20658,0.29535-1.81586c0.13635-1.3892,0.19897-2.78601,0.35107-4.1732
			c0.27948-2.54944,0.65704-5.08521,1.14728-7.60433c0.29285-1.50452,0.50732-3.0246,0.81519-4.52576
			c0.14386-0.70124,0.43256-1.37208,0.6424-2.06071c0.146-0.47915,0.27972-0.96259,0.4007-1.44865
			c0.16864-0.67744,0.32489-1.35811,0.4765-2.03959c0.05206-0.23405,0.0744-0.47472,0.13922-0.90369
			c-0.32898,0.16572-0.53906,0.21883-0.6731,0.34977c-0.29797,0.29118-0.55206,0.62669-0.83478,0.93427
			c-0.39374,0.4284-0.8139,0.83353-1.19269,1.27441c-0.54242,0.63122-1.04559,1.29604-1.58704,1.92808
			c-0.99591,1.16254-1.96344,2.34142-3.14453,3.34447c-0.88745,0.75371-1.66125,1.65849-2.39978,2.5659
			c-0.90771,1.11526-1.99933,2.0208-3.08136,2.94227c-1.05988,0.90252-2.11053,1.81996-3.21851,2.66064
			c-1.02081,0.77455-2.11145,1.45725-3.17316,2.17765c-0.62396,0.42334-1.25128,0.84175-1.87762,1.26152
			c-0.62244,0.41718-1.22131,0.8543-1.96924,1.06838c-0.59473,0.17022-1.08496,0.57693-1.44641,1.09509
			c-0.43121,0.61829-0.83197,1.25789-1.26398,1.87561c-0.69775,0.99766-1.3457,2.04044-2.13568,2.96032
			c-0.7193,0.83767-1.63562,1.50282-2.39984,2.30608c-1.03259,1.08529-2.05383,2.1894-2.98505,3.36088
			c-0.87445,1.10011-1.7699,2.11388-3.06256,2.76068c-0.63245,0.31642-1.11438,0.91967-1.7157,1.31508
			c-1.185,0.77924-2.41681,1.48693-3.60834,2.2566c-1.02802,0.66403-2.01953,1.38432-3.04242,2.05655
			c-0.41815,0.27481-0.85187,0.56511-1.32104,0.7157c-1.37097,0.44002-2.57147,1.21005-3.78424,1.93506
			c-1.04437,0.62433-2.14148,0.92651-3.32391,1.00008c-2.26678,0.14101-4.23578-0.50775-5.83368-2.18587
			c-1.07654-1.13052-2.23981-2.18112-3.27704-3.3452c-0.52783-0.59233-0.97687-1.31241-1.26154-2.05173
			c-0.58899-1.52967-1.06421-3.10472-1.5448-4.67379c-0.20062-0.65498-0.29553-1.34233-0.48193-2.21915
			c-0.28699,0.2929-0.48126,0.41043-0.55579,0.58044c-0.44788,1.02151-0.86102,2.05818-1.30096,3.08326
			c-0.21997,0.51263-0.49786,1.0012-0.70435,1.51868c-0.44427,1.11313-0.81885,2.25573-1.3017,3.35112
			c-0.27643,0.62698-0.66718,1.21687-1.08228,1.7661c-0.53485,0.70761-1.17517,1.33507-1.7171,2.03787
			c-0.87421,1.1337-1.52655,2.39845-1.99872,3.7486c-0.52399,1.49814-1.02563,3.00424-1.52063,4.51224
			c-0.19958,0.60788-0.32111,1.24266-0.53998,1.84267c-0.33276,0.91238-0.74371,1.79623-1.07703,2.70845
			c-0.42957,1.17569-0.80981,2.36934-1.22229,3.55142c-0.20038,0.57411-0.41998,1.14175-0.64093,1.70839
			c-0.39398,1.01041-0.83447,2.00449-1.18573,3.02933c-0.68573,2.00055-1.3111,4.02168-1.98468,6.02647
			c-0.50574,1.50502-1.03809,3.00133-1.57654,4.49503c-0.55688,1.54485-1.14655,3.0779-1.7005,4.62375
			c-0.34778,0.97044-0.65936,1.95393-0.98077,2.93369c-0.13995,0.42674-0.40308,0.70587-0.83075,0.87506
			c-0.33325,0.13182-0.6488,0.32773-0.94196,0.5374c-0.52905,0.37833-1.10016,0.62445-1.72217,0.82918
			c-1.07739,0.35458-2.12585,0.80608-3.16138,1.27261c-0.284,0.12793-0.48541,0.44765-0.71283,0.69049
			c-0.30432,0.32495-0.59546,0.66219-0.89526,0.99138c-0.23303,0.25581-0.51526,0.30948-0.84003,0.20145
			c-0.34332-0.11423-0.50342-0.36966-0.47137-0.70523c0.04474-0.46846,0.09088-0.94696,0.2243-1.39502
			c0.61304-2.05891,1.23438-4.11597,1.89661-6.15948c0.50781-1.56709,1.09692-3.10767,1.62018-4.67
			c0.42456-1.26762,0.7865-2.55618,1.20929-3.82445c0.60919-1.82759,1.25067-3.64441,1.8739-5.46736
			c0.41547-1.21536,0.79718-2.44299,1.24121-3.64772c0.50092-1.35916,1.09814-2.68369,1.57471-4.05072
			c0.60608-1.7383,1.11005-3.51196,1.70148-5.25565c0.45697-1.34729,0.97632-2.6736,1.47626-4.00612
			c0.45898-1.22331,0.92645-2.44348,1.39642-3.66263c0.10034-0.26027,0.21027-0.51971,0.34515-0.76329
			c0.85339-1.54103,1.4989-3.17166,2.12433-4.8139c0.55536-1.45823,1.17273-2.89279,1.7309-4.35
			c0.35895-0.9371,0.64172-1.90313,0.9906-2.84435c1.40601-3.79325,2.81781-7.58441,4.24225-11.37078
			c0.45154-1.20035,0.98737-2.36987,1.41437-3.57835c0.38995-1.10367,0.6922-2.2388,1.0199-3.3639
			c0.46771-1.60571,0.90881-3.21931,1.39062-4.82071c0.23279-0.77373,0.52197-1.53123,0.80414-2.28918
			c0.64099-1.72185,1.28687-3.44195,1.94562-5.15704c0.16956-0.44148,0.42792-0.84967,0.58801-1.29386
			c0.74725-2.07267,1.45813-4.15852,2.21503-6.22757c0.41205-1.1263,0.91785-2.21825,1.33185-3.34389
			c0.664-1.8052,1.2829-3.62695,1.92981-5.4385c0.17712-0.49592,0.40759-0.97314,0.57684-1.47144
			c0.47418-1.39654,0.99908-2.78132,1.37091-4.20551c0.33264-1.27389,0.93878-2.31969,1.95795-3.13022
			c0.65515-0.52102,1.35406-0.98796,1.83325-1.70208c0.104-0.15501,0.27844-0.2854,0.44885-0.36945
			c1.0437-0.51458,1.86774-1.30756,2.69653-2.09523c0.78632-0.74731,1.17297-0.79263,2.01868-0.12514
			c0.65417,0.5163,1.27954,1.07179,1.89069,1.63894c0.42755,0.39669,0.51263,0.91295,0.34332,1.46609
			c-0.27509,0.89899-0.33185,1.87502-0.9375,2.65876c-0.04871,0.06302-0.08026,0.15353-0.08582,0.2336
			c-0.11993,1.74848-1.12628,3.19612-1.65112,4.8081c-0.3067,0.94203-0.89801,1.78767-1.28662,2.7082
			c-0.23584,0.55859-0.30945,1.18342-0.49097,1.76764c-0.29694,0.95599-0.6037,1.90982-0.94061,2.8523
			c-0.42914,1.20049-0.89246,2.3888-1.23926,3.66254c0.14398-0.09975,0.30804-0.17976,0.42871-0.30242
			c0.84479-0.85866,1.61377-1.77177,2.10815-2.89055c0.10938-0.24743,0.31403-0.45283,0.47559-0.67702
			c0.17657-0.24499,0.33746-0.50367,0.53448-0.73097c0.41748-0.48158,0.81586-0.98966,1.2901-1.41014
			c1.2384-1.09805,2.19293-2.44656,3.31116-3.64887c0.54913-0.59039,1.11182-1.17175,1.70673-1.71518
			c1.38068-1.2612,2.74939-2.53953,4.18958-3.73037c1.33026-1.10001,2.7088-2.14249,4.30853-2.86188
			c1.4447-0.64964,2.79901-1.45136,4.09076-2.39644c0.90723-0.66381,2.00476-1.12263,3.08124-1.4812
			c0.74493-0.24815,1.60785-0.28096,2.40216-0.21583c2.36475,0.19389,4.57397,0.91903,6.32513,2.5746
			c2.65356,2.50874,4.65961,5.44235,5.19568,9.15111c0.21393,1.48009,0.46454,2.98438,0.15588,4.49492
			c-0.02771,0.13543-0.02527,0.27852-0.02478,0.41801c0.01196,3.22776-0.547,6.39056-1.06171,9.56071
			c-0.35406,2.18088-0.91901,4.30978-1.513,6.43026c-0.43469,1.55177-0.97424,3.07403-1.46039,4.61155
			c-0.10602,0.33528-0.18365,0.67955-0.30969,1.15203c1.76453-0.64192,3.13257-1.60829,4.42511-2.70006
			c0.2558-0.21609,0.50989-0.43481,0.77435-0.64003c1.32178-1.02573,2.67871-2.00943,3.9566-3.08697
			c0.60797-0.51265,1.06763-1.20122,1.59436-1.81019c0.67572-0.78123,1.29742-1.61877,2.03973-2.33056
			c1.09741-1.05227,1.94745-2.28722,2.81506-3.51182c0.82068-1.15831,1.60645-2.34195,2.38428-3.52972
			c0.48633-0.7426,0.91235-1.5246,1.39655-2.26867c0.54669-0.8401,1.12927-1.6568,1.69397-2.48521
			c0.14136-0.20728,0.28143-0.41607,0.40924-0.63178c0.66669-1.12523,1.33167-2.25153,1.99091-3.38116
			c0.10614-0.18196,0.18036-0.38258,0.33508-0.71636c-0.66467-0.02226-1.20276-0.02699-1.73877-0.06272
			c-0.38281-0.02551-0.76227-0.09813-1.14435-0.1395c-0.30469-0.033-0.61108-0.07129-0.91669-0.07131
			c-1.14563-0.00007-2.29144,0.00496-3.43677,0.02979c-0.33087,0.00717-0.66296,0.07265-0.98962,0.13657
			c-0.83398,0.16319-1.65466,0.15511-2.47992-0.07736c-0.45642-0.12855-0.66083-0.41883-0.64099-0.85204
			c0.01508-0.32788,0.07001-0.67027,0.18896-0.97414c0.44592-1.13841,1.04523-2.22179,1.19568-3.46281
			c0.00964-0.07938,0.06348-0.15347,0.09717-0.2298c0.32538-0.73617,0.64734-1.47388,0.97748-2.20792
			c0.27411-0.60958,0.52655-1.23246,0.85266-1.81348c0.13519-0.24083,0.41888-0.41894,0.66949-0.56746
			c0.18518-0.10975,0.42352-0.16157,0.64264-0.17731c1.83496-0.1319,3.66974-0.32351,5.50684-0.35165
			c2.06116-0.03156,4.12482,0.08477,6.18713,0.14472c0.72137,0.02098,1.21442-0.22797,1.48285-0.9572
			c0.36621-0.99509,0.91052-1.90142,1.4704-2.80831c0.47607-0.77108,0.74988-1.67309,1.06934-2.53348
			c0.57233-1.54158,1.09979-3.09982,1.67413-4.64061c0.12463-0.33437,0.35382-0.63424,0.55939-0.93317
			c0.7724-1.12349,1.14111-2.41272,1.56775-3.68467c0.79089-2.35779,1.73828-4.65063,2.97626-6.81592
			c0.19269-0.33699,0.4007-0.69215,0.47595-1.06429c0.22717-1.12396,0.97607-1.85288,1.80029-2.5348
			c0.60016-0.49653,1.21783-0.97185,1.82489-1.46012c0.43402-0.34907,0.862-0.59628,1.44214-0.2592
			c0.19293,0.11207,0.50372,0.11762,0.73035,0.05761c0.74957-0.19852,1.47638-0.48689,2.22961-0.66662
			c0.50348-0.12013,1.04462-0.1927,1.55493-0.14303c0.5296,0.05153,0.93127,0.6815,0.87531,1.26241
			c-0.03699,0.384-0.17365,0.75851-0.26709,1.13692c-0.37537,1.52031-0.84534,3.01669-1.64526,4.36407
			c-0.64502,1.08648-0.88196,2.28259-1.21967,3.46181c-0.41455,1.4471-0.948,2.84903-1.63141,4.19804
			c-0.28394,0.56045-0.31158,1.2592-0.62897,1.79187c-0.31165,0.52308-0.71021,0.97758-0.87762,1.59423
			c-0.11499,0.42345-0.36005,0.81346-0.56085,1.21141c-0.8042,1.59362-1.64215,3.16733-2.26398,4.85102
			c-0.29407,0.79628-0.81787,1.50488-1.19031,2.27603c-0.25311,0.52396-0.47314,1.07499-0.61725,1.63717
			c-0.13403,0.5227,0.10175,0.80544,0.64661,0.83427c0.69647,0.03685,1.39972,0.06235,2.09357,0.0088
			c2.40613-0.1857,4.79126,0.18381,7.18787,0.23129c0.80969,0.01604,1.62274,0.1064,2.42761,0.05607
			c0.92487-0.05782,1.45856,0.62177,2.13586,1.01306c0.34717,0.20059,0.37872,1.46046,0.14459,1.9117
			c-0.0766,0.14756-0.18073,0.28179-0.28003,0.41644c-1.02496,1.39052-2.07428,2.76387-3.06854,4.176
			c-0.52985,0.75258-1.0451,1.49696-1.74408,2.11511c-0.34381,0.30412-0.68878,0.44356-1.12231,0.45828
			c-1.38739,0.04716-2.77423,0.12349-4.16193,0.14165c-0.86249,0.01128-1.72614-0.06366-2.58929-0.09755
			c-1.03632-0.04069-2.05115,0.08713-3.0769,0.25346c-0.78284,0.12694-1.61182,0.03115-2.41425-0.03685
			c-1.58521-0.13437-1.78143-0.30754-2.43414,1.28214c-0.50793,1.23689-1.11334,2.43147-1.37756,3.75701
			c-0.03735,0.18742-0.11218,0.38167-0.21979,0.53834c-0.49933,0.72704-0.70105,1.57254-0.9942,2.384
			c-0.4624,1.28024-0.96808,2.54487-1.42938,3.82551c-0.56689,1.57372-1.15601,3.13828-1.44519,4.80148
			c-0.13257,0.76241-0.4411,1.49314-0.65216,2.24321c-0.33258,1.18198-0.69366,2.35847-0.96045,3.55563
			c-0.21161,0.9496-0.29974,1.9267-0.44318,2.89153c-0.01642,0.11045-0.0163,0.2281-0.05634,0.32959
			c-0.81036,2.05324-0.62616,4.29575-1.21606,6.39555c-0.16174,0.57583-0.03418,1.22679-0.10419,1.83582
			c-0.14648,1.27402-0.35663,2.54076-0.49988,3.81509c-0.07764,0.69062-0.10284,1.39098-0.09564,2.08637
			c0.01062,1.03307,0.01874,2.0712,0.12842,3.09644c0.0733,0.68561,0.31952,1.35291,0.49078,2.02779
			c0.22644,0.89211,0.38269,1.81079,0.70343,2.66777c0.32062,0.85671,0.75201,1.68537,1.23444,2.4647
			c0.59149,0.95557,1.33331,1.07441,2.3866,0.72605c1.70752-0.5647,2.88605-1.82075,4.22125-2.91467
			c1.45142-1.1891,2.49371-2.70069,3.65045-4.11607c1.12476-1.3763,2.14832-2.84421,2.98389-4.43497
			c0.64777-1.2333,1.40204-2.41063,2.10803-3.6134c0.09875-0.16832,0.20551-0.33375,0.28571-0.51086
			c0.52972-1.16911,1.01501-2.36024,1.591-3.50584c0.43689-0.8689,0.98669-1.681,1.48639-2.51831
			c0.12811-0.21471,0.25781-0.42849,0.38464-0.64397c0.94519-1.60619,1.88214-3.21727,2.83691-4.81774
			c0.85968-1.44114,1.46887-2.99965,2.16333-4.51881c0.32434-0.70948,0.65955-1.41656,1.03711-2.09858
			c0.77173-1.39406,1.45105-2.82212,1.97644-4.33243c0.54816-1.5754,1.13538-3.14044,2.08209-4.54279
			c0.53131-0.78703,0.90717-1.64925,1.22369-2.55858c0.41962-1.20545,1.02277-2.34653,1.53699-3.51967
			c0.36938-0.84281,0.81104-1.66714,1.06519-2.54469c0.64478-2.22619,1.69446-4.23884,2.9837-6.14516
			c0.16876-0.24953,0.323-0.53494,0.38617-0.82504c0.20825-0.95621,0.81226-1.57322,1.64526-1.98693
			c0.53674-0.2666,1.02405-0.56355,1.3374-1.09649c0.08301-0.14112,0.20142-0.28469,0.33948-0.36645
			c1.09241-0.64672,1.91217-1.60677,2.8479-2.43425c0.66547-0.58849,1.38184-1.12023,2.08514-1.66483
			c0.31555-0.24435,0.70337-0.29945,1.01483-0.05756c0.8125,0.63095,1.62543,1.26926,2.37299,1.97379
			c0.80988,0.76324,0.82819,1.17284,0.34137,2.13111c-0.25183,0.49574-0.46393,1.01151-0.70483,1.51299
			c-0.97717,2.03368-1.9397,4.07475-2.9447,6.09464c-0.75604,1.51965-1.5686,3.01118-2.35565,4.51543
			c-0.01294,0.02465-0.01373,0.0615-0.03284,0.0762c-0.7442,0.57295-0.78564,1.49738-1.1344,2.26743
			c-0.3446,0.76071-0.67175,1.52943-1.02386,2.2866c-0.48181,1.03606-1.02893,2.04447-1.46112,3.10033
			c-1.00305,2.45061-1.94202,4.92737-2.93195,7.38346c-0.38519,0.95572-0.83923,1.88361-1.25842,2.82575
			c-0.12488,0.28066-0.25836,0.55997-0.35248,0.85135c-0.40259,1.24615-0.79016,2.49715-1.18793,3.74489
			c-0.06763,0.21221-0.12701,0.43693-0.24402,0.62184c-0.50592,0.79959-0.6449,1.71375-0.87,2.60574
			c-0.24506,0.97139-0.54468,1.92892-0.81158,2.89494c-0.10352,0.3746-0.20941,0.75187-0.26788,1.13499
			c-0.19348,1.26792-0.29529,2.55431-0.5658,3.80474c-0.27966,1.29257-0.46393,2.58031-0.4552,3.90123
			c0.00391,0.5859-0.06342,1.17213-0.06409,1.75826c-0.00031,0.33018,0.05786,0.66229,0.11066,0.99014
			c0.04852,0.30122,0.16492,0.59556,0.18274,0.89698c0.09015,1.52699,0.48242,2.98826,0.85065,4.46426
			c0.24072,0.96486,0.54327,1.85276,1.14178,2.6548c0.33942,0.45487,0.75745,0.63136,1.23328,0.43712
			c1.37695-0.56213,2.89392-0.75375,4.06183-1.86963c1.0838-1.03549,2.35669-1.87278,3.5437-2.8007
			c0.15332-0.11982,0.30444-0.24765,0.43359-0.3923c1.02216-1.14498,2.11401-2.23865,3.03015-3.46349
			c6.07727-8.76554,10.94342-18.23197,11.47644-19.29642c0.46106-0.92072,0.89844-1.85368,1.32855-2.78938
			c0.51312-1.11622,1.07526-2.2163,1.49542-3.36745c0.85822-2.35162,2.13147-4.47284,3.46185-6.56921
			c0.58191-0.91702,1.17633-1.82626,1.74951-2.74866c0.75116-1.20872,1.54822-2.37605,2.51154-3.43538
			c1.23914-1.36262,2.38275-2.81254,3.63171-4.16562c1.17059-1.26825,2.40961-2.47499,3.64691-3.67961
			c1.09338-1.06451,2.21393-2.10201,3.34448-3.12714c1.11316-1.00925,2.15729-2.1386,3.40771-2.9408
			c1.4649-0.93975,2.83057-2.09384,4.55389-2.60839c0.44733-0.13357,0.85437-0.40285,1.27899-0.61164
			c0.85052-0.41824,1.77411-0.49042,2.69226-0.49765c0.94763-0.00747,1.90094,0.03674,2.84241,0.14199
			c0.65997,0.0738,1.33435,0.21187,1.94928,0.45525c1.28876,0.51014,2.55115,1.05887,3.73651,1.82617
			c1.56842,1.01528,2.90045,2.24531,4.06567,3.67589c0.27466,0.33717,0.42102,0.77623,0.64709,1.15609
			c0.37152,0.62414,0.76111,1.23756,1.1413,1.85661c0.92035,1.49867,1.35034,3.18991,1.74377,4.86408
			c0.3363,1.43098,0.49146,2.92046,0.56421,4.3921c0.05188,1.04971-0.16284,2.113-0.26385,3.16974
			c-0.12433,1.30102-0.19794,2.61013-0.39581,3.90002c-0.23688,1.54395-0.5813,3.0714-0.88007,4.60581
			c-0.26685,1.37019-0.56915,2.72285-1.11749,4.02373c-0.32111,0.76175-0.41736,1.61599-0.64441,2.42027
			c-0.28809,1.02047-0.58636,2.03905-0.92047,3.0451c-0.14807,0.44601-0.41046,0.85291-0.58844,1.29079
			c-0.06512,0.16023-0.03619,0.3587-0.05249,0.57011c0.7215,0.12206,1.1377-0.37413,1.6488-0.60523
			c0.52844-0.23897,1.02484-0.57878,1.57495-0.73335c0.89075-0.25026,1.60358-0.7416,2.30634-1.31069
			c0.94977-0.76915,1.94543-1.48229,2.9303-2.20743c1.36212-1.00297,2.7323-1.995,4.09961-2.991
			c0.22577-0.16452,0.43909-0.35475,0.68469-0.48173c0.4649-0.24034,2.20587-1.73272,2.74036-2.2423
			c1.67712-1.59884,3.21747-3.31317,4.51373-5.24955c0.60144-0.89838,1.38794-1.671,2.06195-2.52322
			c0.466-0.58917,0.87756-1.22105,1.32324-1.8267c0.67822-0.92172,1.39764-1.81516,2.0379-2.76226
			c0.52863-0.78194,0.97644-1.6194,1.44464-2.44103c0.56512-0.99167,1.16339-1.96889,1.65631-2.99603
			c0.52368-1.09139,1.22815-2.04839,1.93115-3.01858c0.32153-0.44376,0.61389-0.94153,0.77869-1.45959
			c0.4231-1.32969,1.20129-2.45062,1.96582-3.58326c0.12024-0.17815,0.33264-0.29351,0.5-0.44063
			c0.16675-0.14646,0.39697-0.26501,0.48401-0.45008c0.43115-0.91608,1.21326-1.51988,1.8833-2.2276
			c0.35901-0.37916,0.61682-0.85373,0.97339-1.23566c0.31763-0.34037,0.70837-0.61248,1.12512-0.96371
			c1.02917,0.64754,2.03564,1.28804,3.05029,1.91543c0.38806,0.23993,0.53186,0.58852,0.42725,1.00195
			c-0.2522,0.99664-0.35693,2.02249-0.75647,2.99361c-0.32629,0.79323-0.44128,1.67064-0.69812,2.49574
			c-0.46313,1.48792-0.94189,2.97166-1.45276,4.44376c-0.40173,1.15771-0.86047,2.29572-1.297,3.44126
			c-0.06958,0.18257-0.146,0.36394-0.23584,0.53716c-0.63257,1.21829-1.03467,2.5229-1.4408,3.82614
			c-0.0415,0.13345-0.05957,0.28046-0.12781,0.39848c-0.84436,1.46116-1.3335,3.0676-1.82532,4.66058
			c-0.44519,1.44191-1.10596,2.79338-1.58875,4.21376c-0.22083,0.6495-0.30115,1.34675-0.46362,2.10889
			c0.58972-0.29781,0.91907-0.77036,1.24768-1.22454c0.88245-1.21935,1.70435-2.48415,2.62061-3.67687
			c0.99939-1.3009,2.12695-2.50423,3.11072-3.81606c1.64746-2.197,3.57495-4.13447,5.46594-6.10871
			c0.96228-1.00471,1.9032-2.03097,2.89001-3.01104c1.09106-1.08367,2.34656-1.95996,3.64697-2.77869
			c0.63232-0.39818,1.29443-0.8018,1.79993-1.3379c1.00378-1.06444,2.23401-1.76582,3.50928-2.39565
			c1.17981-0.58266,2.28003-1.27483,3.38074-1.99081c0.92639-0.60258,1.98303-1.00942,2.99536-1.47373
			c0.73352-0.33642,1.48645-0.63151,2.23547-0.9332c0.69495-0.27991,1.39539-0.54611,2.09497-0.81437
			c0.28625-0.10973,0.57849-0.20361,0.86438-0.31387c1.32397-0.51067,2.67847-0.74479,4.1001-0.52454
			c0.32324,0.05008,0.66919,0.0094,0.99731-0.03911c0.85938-0.12706,1.64966-0.08471,2.27673,0.63834
			c0.74548,0.8598,1.6311,1.61005,2.08521,2.72731c-0.04443,0.09069-0.06689,0.22002-0.14368,0.28052
			c-1.01208,0.79776-1.48645,1.89831-1.82349,3.09863c-0.11731,0.41805-0.38794,0.7916-0.57446,1.19206
			c-0.39697,0.85229-0.80298,1.7011-1.17041,2.56614c-0.31433,0.74013-0.5752,1.50288-0.86865,2.2521
			c-0.51929,1.32561-1.03174,2.65414-1.573,3.9708c-0.43469,1.05759-0.93811,2.08751-1.35583,3.15136
			c-0.49988,1.27305-0.89612,2.58776-1.41846,3.85078c-0.75549,1.82635-1.56165,3.6328-2.38904,5.42793
			c-0.57275,1.24245-1.15063,2.47462-1.51245,3.80321c-0.15222,0.55853-0.47168,1.06935-0.68323,1.61423
			c-0.60461,1.55741-1.20923,3.11521-1.77905,4.6855c-0.21277,0.58616-0.64941,1.12166-0.4613,1.83084
			c0.02673,0.10071-0.33838,0.26102-0.39465,0.43499c-0.58154,1.79907-1.12903,3.60912-1.70508,5.41
			c-0.14331,0.44809-0.38647,0.86419-0.53076,1.31203c-0.7395,2.2938-0.93762,4.63552-0.58777,7.02342
			c0.15735,1.07378,0.1864,2.18009,0.47058,3.21775c0.29236,1.06798,0.81079,2.07642,1.26184,3.09695
			c0.10876,0.24596,0.3103,0.47906,0.52625,0.64255c0.29211,0.22105,0.42725,0.48132,0.49011,0.83314
			c0.08972,0.50303,0.37378,0.87345,0.90308,0.98813c0.95239,0.20634,1.8822,0.48976,2.88477,0.46986
			c0.7738-0.01536,1.49512-0.18018,2.20581-0.42563c0.96765-0.33416,1.93457-0.67802,2.87451-1.08149
			c0.55957-0.24021,1.08032-0.58176,1.59473-0.91445c1.21594-0.78635,2.40247-1.61882,3.63098-2.38448
			c0.6709-0.41815,1.19153-0.9426,1.44556-1.67813c0.19824-0.57376,0.61755-0.90556,1.06067-1.25278
			c0.29883-0.23422,0.56616-0.51264,0.82703-0.79057c0.34082-0.36305,0.6864-0.72646,0.9823-1.1251
			c0.22949-0.309,0.40417-0.66357,0.5697-1.01369c0.18469-0.3904,0.38928-0.69215,0.85327-0.84013
			c0.31702-0.1011,0.56921-0.42009,0.8374-0.65649c0.3667-0.32334,0.95483-0.27148,1.01392,0.16148
			c0.09351,0.68456,0.60486,1.04301,0.97253,1.50185c0.37061,0.46263,0.47156,0.9091,0.33643,1.47313
			c-0.24573,1.02592-0.71155,1.91747-1.38281,2.73492c-0.74011,0.90115-1.39929,1.86832-2.10706,2.79664
			c-0.21863,0.28671-0.43262,0.62778-0.73206,0.79185c-0.74695,0.40922-1.15967,1.10225-1.66479,1.72517
			c-0.18835,0.2323-0.43457,0.41666-0.64209,0.63466c-0.4574,0.48067-0.90405,0.97172-1.3606,1.45328
			c-0.67078,0.70747-1.2959,1.46937-2.03357,2.09904c-0.77954,0.66545-1.66736,1.20447-2.50977,1.79601
			c-0.47925,0.33647-0.97461,0.65112-1.44128,1.00403c-1.41711,1.07158-2.73767,2.29147-4.54907,2.71581
			c-0.36768,0.08612-0.69238,0.35298-1.0387,0.533c-1.41309,0.7345-2.95178,0.81148-4.49036,0.78943
			c-0.83191-0.01192-1.66125-0.18105-2.49219-0.27652c-0.19275-0.02216-0.39429-0.07359-0.57861-0.03978
			c-0.27454,0.05035-0.4469-0.04556-0.67529-0.19458c-0.43945-0.28653-0.9519-0.45763-1.41565-0.71053
			c-1.58423-0.86403-2.96997-1.92346-3.95032-3.50584c-1.54468-2.4932-2.44604-5.20427-2.87219-8.07136
			c-0.18372-1.23551-0.12817-2.50867-0.15271-3.76527c-0.03882-1.9818,0.48523-3.85768,1.08105-5.72573
			c0.50037-1.56895,0.88428-3.17548,1.39783-4.73974c0.78271-2.38427,1.62036-4.75084,2.46008-7.11593
			c0.37268-1.04973,0.80872-2.07692,1.21252-3.11569c0.08093-0.20829,0.16248-0.4187,0.21582-0.63503
			c0.52515-2.13195,1.5603-4.06213,2.39319-6.07233c0.55518-1.33976,1.09082-2.68764,1.65015-4.02566
			c0.79529-1.90298,1.60889-3.79836,2.40466-5.70116c0.2041-0.48785,0.35925-0.99596,0.55688-1.48669
			c0.39453-0.97966,0.80151-1.95432,1.20593-2.92997c0.37292-0.89967,0.74084-1.80157,1.12695-2.69557
			c0.276-0.63941,0.57764-1.26784,0.86963-1.90037c0.26489-0.57402,0.31067-1.23942,0.7782-1.73586
			c0.12488-0.13251,0.09302-0.4125,0.16113-0.77351c-0.80566,0.12616-1.52039,0.19418-2.21191,0.35944
			c-0.62,0.14819-1.22644,0.3745-1.81592,0.62135c-0.40625,0.17015-0.76306,0.45442-1.15991,0.65161
			c-0.64709,0.32154-1.29138,0.66192-1.96838,0.90693c-1.03833,0.37571-1.99463,0.86974-2.82776,1.59806
			c-0.63379,0.5541-1.32349,0.99036-2.12268,1.30735c-0.60376,0.2394-1.14185,0.68581-1.65283,1.10816
			c-0.9657,0.79817-1.89221,1.64388-2.83252,2.47267c-0.58301,0.51392-1.18909,1.00568-1.73474,1.55695
			c-0.64661,0.65319-1.24963,1.35073-1.85181,2.0462c-0.39905,0.4609-0.7627,0.95241-1.14319,1.42937
			c-0.34729,0.4353-0.67798,0.88554-1.04883,1.29989c-0.42407,0.47396-0.87329,0.92703-1.3313,1.36882
			c-0.99243,0.9575-1.72278,2.11484-2.51917,3.22498c-0.9093,1.26757-1.84277,2.51888-2.79895,3.75145
			c-0.66406,0.85604-1.43225,1.63404-2.06421,2.51144c-0.50159,0.69617-0.87073,1.48828-1.29236,2.2413
			c-0.59839,1.06863-1.16345,2.15295-2.00671,3.06744c-1.39844,1.51635-2.08765,3.40429-2.74072,5.31491
			c-0.20361,0.59558-0.50195,1.17754-0.85522,1.69903c-0.60883,0.89841-1.29706,1.74287-1.94586,2.61445
			c-0.09894,0.13285-0.18054,0.28348-0.24438,0.43662c-0.37421,0.8978-0.716,1.81005-1.11945,2.69427
			c-0.23047,0.50503-0.52307,0.99076-0.84833,1.44144c-0.54474,0.75491-0.93268,1.58006-1.24139,2.44949
			c-0.23315,0.65665-0.41321,1.33737-0.70447,1.96688c-0.38336,0.82879-0.79675,1.65501-1.30121,2.41319
			c-0.46771,0.70297-0.78235,1.4554-1.06262,2.23554c-0.04712,0.13129-0.07965,0.2738-0.15387,0.38848
			c-0.78662,1.21483-1.37012,2.5459-2.26013,3.70872c-0.70776,0.92477-1.23596,1.9866-1.85034,2.98356
			c-0.19006,0.30836-0.3833,0.61789-0.60663,0.90202c-0.75323,0.95807-1.5351,1.89395-2.27576,2.86147
			c-0.30219,0.3947-0.66785,0.56331-1.14398,0.57207c-0.50262,0.00926-1.00488,0.0383-1.50751,0.05107
			c-0.73376,0.01865-1.18597-0.33794-1.20648-1.06978c-0.01373-0.49031,0.06854-1.0032,0.21295-1.47374
			c0.2677-0.87224,0.60052-1.7254,0.92926-2.57762c0.19989-0.51822,0.44342-1.01958,0.66626-1.52896
			c0.06726-0.15361,0.16681-0.30348,0.19043-0.46407c0.14795-1.00613,0.59637-1.90695,0.95227-2.8426
			c0.36646-0.96317,0.68256-1.94598,1.00403-2.92566c0.59052-1.79963,1.1601-3.60615,1.75586-5.40401
			c0.3067-0.9256,0.65735-1.83653,0.97638-2.75814c0.32849-0.9489,0.63116-1.90684,0.96594-2.85346
			c0.47455-1.34182,0.97162-2.67567,1.45258-4.01525c0.41278-1.14964,0.79462-2.31087,1.22955-3.45195
			c0.58344-1.53052,1.2113-3.04401,1.80688-4.56996c0.26324-0.67437,0.50543-1.35755,0.73688-2.04357
			c0.32886-0.97487,0.61121-1.96624,0.96484-2.93175c0.36365-0.99302,0.83997-1.94642,1.17487-2.94796
			c0.4389-1.31278,1.00787-2.59228,1.16382-3.98819c0.00806-0.07171-0.05145-0.15097-0.0918-0.26
			c-0.43591-0.00894-0.61737,0.35717-0.83984,0.60251c-0.35187,0.38808-0.63019,0.84169-0.9585,1.25253
			c-1.00659,1.25989-1.99652,2.53455-3.04327,3.76044c-0.70093,0.82087-1.48956,1.56664-2.23425,2.35052
			c-0.15332,0.16141-0.27863,0.34924-0.42908,0.51369c-0.41113,0.44922-0.82019,0.90077-1.24567,1.33619
			c-0.69501,0.71132-1.43939,1.37788-2.09631,2.1222c-1.13287,1.28366-2.46075,2.32492-3.867,3.27729
			c-1.06238,0.71948-2.14709,1.40614-3.20355,2.13396c-0.43237,0.29787-0.82123,0.66019-1.22156,1.00291
			c-0.75195,0.64379-1.49347,1.2999-2.25012,1.93803c-0.14526,0.12248-0.33832,0.19006-0.51282,0.27579
			c-1.3269,0.65188-2.65643,1.29842-3.98016,1.95652c-0.1969,0.09786-0.4057,0.2155-0.54468,0.37871
			c-0.79431,0.93253-1.87183,1.27664-3.01569,1.47648c-0.3526,0.0616-0.5918,0.19135-0.80481,0.50647
			c-0.49762,0.73615-1.06024,1.42838-1.59644,2.13845c-0.80267,1.06286-1.58752,2.13986-2.41559,3.18256
			c-0.39612,0.49884-0.89734,0.91309-1.30878,1.40123c-0.46503,0.55183-0.87445,1.13829-1.55804,1.46996
			c-1.38861,0.6737-2.59271,1.64475-3.75726,2.624c-1.19067,1.00113-2.2536,2.16622-3.29401,3.32968
			c-0.72589,0.8118-1.44873,1.60141-2.29034,2.30563c-1.7561,1.4695-3.57733,2.84688-5.44769,4.16339
			c-0.66858,0.47063-1.36951,0.83472-2.20746,0.94252c-1.21313,0.15607-2.41101,0.46321-3.62677,0.55537
			c-0.93555,0.07092-1.90857,0.00897-2.82812-0.17628c-0.89343-0.17998-1.75977-0.54707-2.60168-0.91499
			c-0.8689-0.3797-1.40521-1.16389-1.9884-1.87404c-0.08795-0.10716-0.13123-0.25931-0.2334-0.34535
			c-1.22974-1.03592-1.81085-2.53499-2.70587-3.80774c-1.05487-1.50017-1.61554-3.23843-2.10754-4.99146
			c-0.12823-0.45685-0.24377-0.91726-0.36456-1.37619c-0.41168-1.564-0.69031-3.14305-0.78705-4.76617
			c-0.07611-1.27793-0.33075-2.54537-0.51324-3.81645C948.97919,112.08289,948.90375,112.02027,948.84613,111.93481z
			 M987.17969,99.44234c0.15765-0.32967,0.26709-0.49392,0.3175-0.67466c0.3147-1.12736,0.66516-2.24782,0.91144-3.39048
			c0.45874-2.12831,0.91339-4.26079,1.2569-6.4096c0.26349-1.64841,0.37683-3.32265,0.51221-4.98904
			c0.08563-1.05502,0.09418-2.11655,0.12573-3.17552c0.00751-0.24973,0.00696-0.51102-0.05591-0.74963
			c-0.35913-1.36426-0.41742-2.7738-0.91296-4.13842c-0.47473-1.3074-0.8479-2.6487-1.55115-3.85765
			c-0.40515-0.69665-0.85706-1.37358-1.35388-2.00767c-0.70477-0.89941-1.79431-1.17953-2.78979-1.60703
			c-0.94415-0.40545-1.96411-0.3812-2.94934-0.54359c-0.29901-0.04928-0.64532,0.09184-0.95013,0.20107
			c-0.31201,0.11182-0.59064,0.39441-0.89978,0.42171c-0.85468,0.07548-1.58447,0.50748-2.38483,0.72166
			c-1.11432,0.29823-1.88977,1.01514-2.57684,1.8904c-0.47772,0.60868-0.97113,1.2157-1.52875,1.74896
			c-1.20044,1.14801-2.15173,2.48489-2.99585,3.89343c-0.49652,0.82851-1.22864,1.5073-1.54193,2.4513
			c-0.03992,0.12022-0.19763,0.19616-0.27747,0.30911c-0.56042,0.79278-1.21503,1.52301-1.54633,2.46501
			c-0.18341,0.52125-0.33606,1.09917-0.67517,1.50859c-0.46417,0.56045-0.66321,1.21758-0.96265,1.84033
			c-0.49274,1.02482-0.98389,2.05047-1.47821,3.07453c-0.0235,0.0486-0.08124,0.08032-0.10602,0.12861
			c-0.14996,0.29222-0.30298,0.58329-0.43964,0.88178c-0.19531,0.42656-0.35712,0.86951-0.56976,1.28684
			c-0.35309,0.69313-0.8175,1.34095-1.08569,2.06332c-0.38739,1.04359-0.64862,2.13467-0.94965,3.20943
			c-0.19543,0.69762-0.46527,1.39352-0.52765,2.10544c-0.15045,1.71922-0.41626,3.44231-0.12244,5.17618
			c0.0412,0.24306,0.03241,0.50576-0.00916,0.74982c-0.20923,1.22793-0.08252,2.43604,0.16077,3.64342
			c0.08801,0.43656,0.15485,0.88036,0.18927,1.32412c0.08411,1.08576,0.13873,2.17377,0.21716,3.26002
			c0.01593,0.21997,0.07202,0.43949,0.13043,0.65355c0.30646,1.12358,0.64716,2.23865,0.922,3.36977
			c0.23376,0.96214,0.68115,1.82541,1.17151,2.66019c0.79004,1.34496,1.59125,2.69081,2.50055,3.95513
			c0.4729,0.65752,1.26788,1.10287,2.1073,1.01963c1.1012-0.1092,2.21051-0.32042,3.26709-0.64697
			c1.22754-0.37935,2.32507-1.06972,3.35516-1.84523c1.35797-1.02235,2.73822-2.01759,4.05695-3.08852
			c0.77478-0.62925,1.4505-1.38095,2.16754-2.08088c0.83356-0.81362,1.73431-1.56656,2.33191-2.59403
			c0.06769-0.11639,0.17505-0.22137,0.28687-0.2985c0.59625-0.41129,0.7179-1.1096,1.02148-1.69328
			c0.16583-0.31887,0.00043-0.59633-0.29828-0.77724c-0.64191-0.38881-1.30145-0.75073-1.9256-1.16606
			c-0.89874-0.5981-1.86584-1.10345-2.52954-2.0158c-0.6369-0.87563-1.31812-1.72188-2.02051-2.54635
			c-0.76111-0.89331-1.42419-1.8136-1.83801-2.94364c-0.48724-1.33057-0.69171-2.55513,0.3548-3.70377
			c0.05536-0.06075,0.08777-0.1423,0.13159-0.21369c0.53906-0.87717,1.02692-1.79153,1.63013-2.62209
			c0.78278-1.07784,1.65747-2.089,2.49292-3.1286c0.0174-0.02168,0.04022-0.03886,0.05847-0.05997
			c0.29364-0.34046,0.8562-0.4273,1.27039-0.14649c0.87439,0.81512,1.76971,1.83992,2.41571,2.54912s1.57227,1.6492,2.18115,2.29149
			c0.55219,0.58244,1.09058,1.17802,1.64893,1.75437C986.68298,99.10381,986.89294,99.22513,987.17969,99.44234z
			 M853.47632,113.46649c-0.88214-0.1015-1.67664-0.18626-2.46924-0.28611c-0.69196-0.08717-1.41754-0.08857-2.06348-0.3138
			c-0.82214-0.28669-1.62573-0.55113-2.50043-0.64157c-0.81641-0.08441-1.12555-0.53082-1.24329-1.32522
			c-0.14178-0.95663,0.33966-1.66174,0.84772-2.35973c0.51892-0.71283,1.05762-1.41314,1.62421-2.08822
			c0.18372-0.21888,0.47534-0.46617,0.73083-0.48162c0.57568-0.03484,1.16058,0.05729,1.73981,0.11655
			c0.43793,0.0448,0.88739,0.22147,1.30652,0.16183c1.78729-0.25426,3.58801-0.39996,5.36401-0.77035
			c0.69983-0.14595,0.98621-0.48367,1.21008-1.03802c0.05225-0.12951,0.09973-0.26114,0.14502-0.39327
			c0.50757-1.47839,1.01001-2.95854,1.52216-4.43533c0.94519-2.72519,1.53998-5.53342,1.99945-8.37429
			c0.19495-1.20545,0.4184-2.40705,0.58057-3.61686c0.15186-1.13322,0.26416-2.27322,0.34784-3.41363
			c0.05914-0.80621,0.02161-1.61909,0.06281-2.42717c0.06683-1.30966,0.10706-2.61707-0.13873-3.91333
			c-0.3067-1.61781-0.66345-3.22721-1.41064-4.70787c-0.59045-1.16994-1.36346-2.17985-2.74713-2.49618
			c-0.87836-0.20081-1.76599-0.18748-2.65857-0.13567c-0.86493,0.05021-1.60028,0.37877-2.28088,0.90465
			c-0.77197,0.5965-1.54053,1.2151-2.38287,1.69792c-0.86816,0.49763-1.7702,0.91258-2.41479,1.72076
			c-0.30927,0.38769-0.69037,0.71854-0.9953,1.10917c-0.82269,1.05376-1.61371,2.13216-2.43256,3.189
			c-1.10883,1.4312-2.23486,2.84901-3.34479,4.2794c-0.13446,0.17331-0.21106,0.39085-0.32001,0.58476
			c-0.48987,0.87154-0.94592,1.76485-1.48383,2.60577c-0.46405,0.72544-1.06152,1.36536-1.52734,2.08984
			c-0.46045,0.71624-0.82794,1.49208-1.23969,2.23987c-0.51013,0.92655-1.09894,1.81892-1.51385,2.78608
			c-0.37793,0.881-0.56171,1.84444-0.8443,2.7675c-0.2442,0.79781-0.50372,1.59102-0.76245,2.38428
			c-0.24182,0.74119-0.55261,1.46584-0.72516,2.22237c-0.35864,1.57202-0.62433,3.16328-0.70361,4.77936
			c-0.10791,2.1986-0.5379,4.38518-0.29962,6.5959c0.17023,1.57919,0.25952,3.18733,0.64398,4.71745
			c0.37683,1.49941,0.70074,3.03577,1.43939,4.44128c0.55695,1.05972,1.21851,1.96622,2.3363,2.60357
			c3.37128,1.11419,6.22278,0.39969,11.08923-2.84301c1.36188-1.47819,2.71338-2.96442,3.67151-4.75646
			c0.15619-0.29218,0.37946-0.54832,0.56946-0.82265C852.67755,115.14066,853.23206,114.50276,853.47632,113.46649z"/>
		<path class="st2" d="M742.46924,99.49265c0.13318-1.97618,0.20679-3.9588,0.41949-5.92638
			c0.15253-1.41096,0.49493-2.80112,0.74506-4.2019c0.13239-0.7412,0.20105-1.49711,0.38184-2.22566
			c0.41589-1.6757,0.83728-3.35265,1.34106-5.00325c0.57745-1.89187,1.20709-3.77014,1.88495-5.62846
			c0.98505-2.70054,1.99408-5.394,3.07666-8.0564c0.37354-0.91869,1.02576-1.72035,1.50092-2.60227
			c0.78021-1.4481,1.51422-2.92102,2.27997-4.37706c0.23309-0.44327,0.49896-0.86996,0.76233-1.29652
			c0.96436-1.56189,1.90979-3.13626,2.91132-4.67403c0.53241-0.81741,1.18396-1.55617,1.74896-2.35362
			c0.99915-1.41021,2.03644-2.79966,2.93512-4.27259c0.57111-0.936,1.43256-1.55336,2.12354-2.34973
			c0.74884-0.86299,1.50452-1.72185,2.29425-2.54707c1.07465-1.12296,2.01678-2.36131,3.33185-3.26807
			c1.4436-0.99538,2.75403-2.18218,4.14294-3.25918c0.70416-0.546,1.45697-1.02884,2.1814-1.54915
			c1.15338-0.8285,2.28735-1.68491,3.45612-2.49096c0.9798-0.67572,2.01123-1.27625,2.99536-1.94601
			c1.5144-1.03067,3.06573-2.0118,4.4353-3.24321c0.50995-0.4585,1.11804-0.65599,1.8092-0.78135
			c1.11896-0.20296,2.23151-0.51043,3.30188-0.8979c2.02045-0.73144,4.03864-1.05342,6.16028-0.47871
			c0.96289,0.26083,1.97839,0.27075,2.89508,0.77484c1.09711,0.60331,2.26495,1.07654,3.37695,1.65467
			c1.27881,0.66491,2.36688,1.61887,3.27997,2.69949c1.14886,1.35965,2.20172,2.81632,3.1521,4.322
			c0.59955,0.94994,0.93988,2.06433,1.38904,3.10817c0.41907,0.97409,0.83051,1.95151,1.24139,2.92909
			c0.91357,2.17366,1.50372,4.44559,1.85925,6.76397c0.34357,2.24017,0.40338,4.50491,0.13617,6.76888
			c-0.09149,0.77562-0.13599,1.55729-0.18573,2.33722c-0.1261,1.97581-0.50122,3.92524-0.6908,5.88645
			c-0.29193,3.02052-1.18311,5.90633-1.68152,8.87548c-0.2168,1.29146-0.60675,2.55305-0.84882,3.84122
			c-0.40717,2.16705-0.94348,4.29736-1.60681,6.39948c-0.20917,0.6628-0.32727,1.35442-0.48523,2.03327
			c-0.03162,0.13588-0.03027,0.28479-0.08594,0.40891c-1.02795,2.29078-1.51965,4.78774-2.71002,7.01813
			c-0.26013,0.48742-0.39612,1.03991-0.60626,1.55552c-0.38806,0.95209-0.76715,1.90883-1.19238,2.84435
			c-0.23987,0.52763-0.58899,1.00467-0.84552,1.52586c-0.4895,0.99444-0.92865,2.01379-1.42383,3.00523
			c-0.69708,1.39567-1.42975,2.77351-2.14044,4.16245c-0.63422,1.23957-1.23816,2.49516-1.89581,3.72206
			c-0.43439,0.81032-0.96838,1.56705-1.40668,2.3755c-0.53412,0.9854-1.22833,1.85597-1.84747,2.77934
			c-0.51654,0.77033-1.18988,1.41206-1.67194,2.17814c-0.65167,1.03561-1.37427,2.01615-2.07623,3.01217
			c-1.16632,1.65492-2.51086,3.12453-4.37842,4.0328c-0.80157,0.38983-1.52881,0.96738-2.36078,1.25245
			c-1.64246,0.56275-2.89581,1.63622-4.13159,2.77399c-0.49188,0.4529-1.07703,0.80999-1.53998,1.28794
			c-1.80219,1.86049-4.00696,3.17043-6.17749,4.51259c-1.13068,0.69916-2.38892,1.19197-3.58929,1.77846
			c-0.80121,0.39142-1.65765,0.4716-2.53296,0.46169c-1.0882-0.01233-2.17651-0.01448-3.26477-0.02101
			c-1.41364-0.00848-2.77747-0.22597-4.04053-0.9135c-0.24078-0.13107-0.51794-0.21541-0.7887-0.26765
			c-0.81891-0.15807-1.54071-0.55133-2.1604-1.05881c-0.94165-0.77115-1.7934-1.65128-2.69482-2.47253
			c-0.51251-0.46696-1.02472-0.93965-1.57764-1.35588c-1.26532-0.95255-2.20703-2.18195-3.09583-3.46703
			c-0.21936-0.31714-0.50464-0.58857-0.75824-0.8822c-0.12683-0.14687-0.26855-0.28484-0.37274-0.44665
			c-0.61786-0.9591-1.2901-1.89072-1.81805-2.89766c-0.40924-0.78068-0.96027-1.50059-1.13098-2.41187
			c-0.07391-0.39417-0.31885-0.77382-0.5495-1.11746c-0.50513-0.75242-0.8194-1.56923-1.05096-2.44263
			c-0.2771-1.04519-0.69519-2.05376-0.95813-3.1018c-0.33087-1.3191-0.83313-2.58983-0.83911-4.00023
			c-0.00806-1.92488-0.19739-3.84837-0.27472-5.77383c-0.04034-1.00413-0.00708-2.01122-0.00708-3.01696
			C742.50629,99.4957,742.48779,99.49418,742.46924,99.49265z M758.58612,71.58945
			c-0.06421-0.02624-0.12836-0.05249-0.19257-0.07873c-0.15015,0.25285-0.32874,0.49329-0.44537,0.76076
			c-0.46655,1.07035-0.98395,2.11158-1.29663,3.25529c-0.36676,1.34143-0.92285,2.6302-1.36908,3.95118
			c-0.21338,0.63168-0.39203,1.27854-0.53564,1.92972c-0.42004,1.90403-0.78278,3.82116-1.22913,5.71879
			c-0.36591,1.55564-0.6369,3.11246-0.64905,4.71665c-0.00739,0.97372-0.12543,1.94608-0.16412,2.92022
			c-0.05426,1.36606-0.11176,2.73326-0.10944,4.09987c0.00177,1.05833,0.12732,2.11627,0.13464,3.17482
			c0.0069,0.99076,0.18976,1.93526,0.48334,2.87526c0.42419,1.35806,0.80133,2.73077,1.21198,4.09315
			c0.1676,0.55595,0.32745,1.12081,0.56683,1.64705c0.41461,0.91143,0.87585,1.8025,1.34131,2.68963
			c0.37518,0.71496,0.73694,1.44462,1.19067,2.10898c0.81879,1.19881,1.69977,2.35526,2.55914,3.52616
			c0.37878,0.51611,0.73083,1.05859,1.16064,1.52913c0.97552,1.06785,2.07947,2.00077,3.20178,2.91171
			c1.30365,1.05807,2.78796,1.61308,4.46527,1.66651c0.24927,0.00793,0.49908,0.0528,0.74512,0.09926
			c1.62134,0.30614,3.19812,0.2047,4.79791-0.25977c1.20758-0.3506,2.2359-0.997,3.31317-1.57442
			c1.28461-0.68857,2.42822-1.56818,3.52441-2.53228c0.56641-0.49821,1.29877-0.80859,1.96051-1.1964
			c0.06677-0.03913,0.16364-0.02748,0.2467-0.03812c0.67206-0.086,1.18231-0.43699,1.63263-0.92999
			c1.55634-1.70389,2.77216-3.63032,3.78772-5.69272c0.50488-1.02534,1.01367-2.04893,1.53479-3.06609
			c0.41931-0.81836,0.89349-1.60999,1.28448-2.44118c1.09253-2.32275,2.1759-4.6503,3.22278-6.99388
			c1.14856-2.57132,2.30164-5.14271,3.35681-7.75285c0.61542-1.52246,1.10675-3.10339,1.54108-4.68893
			c0.79462-2.90091,1.56354-5.81145,2.23499-8.74274c0.66071-2.88413,1.18896-5.79866,1.77197-8.70053
			c0.31885-1.58704,0.69775-3.16319,0.77063-4.79196c0.02966-0.66299,0.14209-1.32195,0.2049-1.98386
			c0.13208-1.39061,0.3172-2.77967,0.36951-4.17354c0.07935-2.11497,0.32568-4.23333,0.02783-6.35043
			c-0.13196-0.93798-0.17859-1.90344-0.44238-2.80417c-0.53064-1.81194-1.17908-3.58963-1.78937-5.37786
			c-0.1532-0.44891-0.3269-0.89312-0.52478-1.32405c-0.49933-1.08729-0.97778-2.18728-1.54297-3.24011
			c-0.36682-0.68336-0.922-1.2644-1.30249-1.94199c-0.56842-1.01244-1.35889-1.71797-2.42023-2.18279
			c-0.88641-0.38823-1.73022-0.87337-2.5979-1.30549c-0.17285-0.0861-0.3642-0.15412-0.55426-0.18331
			c-0.99237-0.15242-1.98633-0.29506-2.9812-0.43025c-0.67694-0.09199-1.33533-0.01245-1.97437,0.24117
			c-0.70062,0.2781-1.41028,0.53379-2.10968,0.81495c-0.28259,0.11361-0.55408,0.25875-0.82104,0.4068
			c-1.34656,0.74667-2.4422,1.8052-3.50909,2.88815c-0.76135,0.7728-1.474,1.59449-2.19165,2.40913
			c-0.58954,0.66926-1.28735,1.29044-1.69226,2.06154c-0.39282,0.74814-0.92676,1.35611-1.52338,1.84803
			c-1.11426,0.91874-1.58868,2.19034-2.17853,3.4015c-0.48492,0.99568-0.69513,2.10578-1.41638,3.01408
			c-0.40521,0.51032-0.63348,1.1759-0.87634,1.79698c-0.39532,1.01069-0.74268,2.04036-1.1004,3.06544
			c-0.5506,1.57759-1.23541,3.11455-1.51276,4.77656c-0.11908,0.71379-0.15594,1.44124-0.27332,2.15538
			c-0.18024,1.09604-0.40668,2.18435-0.59705,3.27883c-0.22552,1.2968-0.2514,2.60277-0.21649,3.91846
			c0.03534,1.33408-0.03204,2.67066-0.03436,4.00619c-0.00037,0.21355,0.09222,0.43131,0.16241,0.64021
			c0.35449,1.05509,0.70764,2.11078,1.07672,3.16084c0.5816,1.65483,1.05524,3.35517,1.9837,4.86793
			c0.61078,0.99512,1.18964,2.01444,1.86768,2.96214c0.53192,0.74335,1.16504,1.43048,2.08081,1.74315
			c0.79327,0.27087,1.58893,0.53474,2.38452,0.79883c0.59027,0.1959,1.1828,0.3111,1.81061,0.16015
			c0.65491-0.15746,1.25958,0.05333,1.66162,0.54438c0.39978,0.4883,0.69958,1.07309,0.96851,1.65037
			c0.38831,0.83337,0.31091,1.40505-0.48163,1.8453c-1.13495,0.63048-1.98865,1.7346-3.3432,1.98656
			c-0.07581,0.0141-0.14349,0.08066-0.21124,0.12814c-0.5415,0.37942-1.06964,0.78008-1.62915,1.13067
			c-0.22729,0.14246-0.52893,0.26128-0.78522,0.24151c-0.43726-0.03374-0.75342,0.15089-1.07129,0.38134
			c-0.29315,0.21255-0.56165,0.46645-0.87488,0.64165c-0.22559,0.12621-0.52271,0.24868-0.76062,0.20905
			c-1.76855-0.29453-3.47809-0.80733-5.05927-1.65958c-0.63116-0.34019-1.16565-0.85529-1.76544-1.2592
			c-0.93549-0.63004-1.76483-1.35963-2.38525-2.31301c-0.47034-0.72276-0.92218-1.4613-1.44427-2.14548
			c-0.44629-0.58492-0.98517-1.05501-1.34528-1.75647c-0.83234-1.62138-1.4632-3.31063-2.07959-5.01256
			c-0.19849-0.5481-0.38147-1.10327-0.53961-1.66422c-0.23383-0.82936-0.56311-1.65715-0.62878-2.50291
			c-0.11188-1.44083-0.05377-2.89508-0.06067-4.34374C758.58179,73.86541,758.58612,72.72742,758.58612,71.58945z"/>
		<path class="st2" d="M939.72186,44.32558c-0.04785-1.56905,0.38013-3.02729,1.04523-4.38012
			c0.6778-1.37872,1.61163-2.64799,2.91888-3.48868c1.09277-0.70277,2.2934-1.27383,3.50903-1.73958
			c1.21411-0.46519,2.5058-0.72869,3.76465-1.07626c0.16083-0.04441,0.32825-0.08417,0.49377-0.08952
			c1.50317-0.04854,2.98138-0.27021,4.4538-0.57017c0.42584-0.08675,0.88977-0.04387,1.32922,0.00382
			c1.56738,0.1701,3.13116,0.45594,4.37451,1.48679c0.78461,0.65057,1.39862,1.48533,1.3609,2.64234
			c-0.03088,0.94568-0.26923,1.80551-0.68024,2.64906c-0.29053,0.59613-0.48468,1.23936-0.71936,1.86248
			c-0.34283,0.9103-1.02911,1.49743-1.83289,1.98658c-1.13953,0.69341-2.27545,1.39342-3.39655,2.11594
			c-0.22302,0.14372-0.46954,0.37302-0.53973,0.61155c-0.37195,1.26469-1.30884,1.92927-2.41077,2.49001
			c-1.38617,0.7054-2.74805,1.46102-4.09851,2.23328c-0.69,0.3946-1.30743,0.60178-2.10748,0.19829
			c-0.70801-0.35712-1.49536-0.56811-2.33472-0.55766c-0.42194,0.00526-0.88422-0.16191-1.26282-0.37011
			c-0.80096-0.44051-1.5838-0.92453-2.3269-1.45658c-0.61151-0.4378-0.93402-1.11796-1.08868-1.836
			C939.98016,46.14506,939.86865,45.23153,939.72186,44.32558z"/>
	</g>
</g>
<path class="st2" d="M166.3916,83.47031c-0.2018,0.0488-0.34085,0.03933-0.40115,0.10365
	c-0.61122,0.65213-1.24615,1.28699-1.80411,1.98309c-1.22279,1.52563-2.4408,3.05768-3.59303,4.63652
	c-1.12138,1.53662-2.26175,3.05275-3.55496,4.44947c-0.30357,0.32788-0.59161,0.67499-0.92586,0.96882
	c-1.46919,1.29151-2.95052,2.56925-4.43161,3.84718c-1.18336,1.02104-2.33788,2.07999-3.5699,3.03895
	c-1.09935,0.85569-2.27235,1.62043-3.44016,2.38354c-1.40073,0.91533-2.82202,1.80019-4.2523,2.66879
	c-0.47403,0.28786-0.98393,0.54904-1.51187,0.7084c-0.8707,0.26287-1.48064,0.81279-1.85413,1.58971
	c-0.85408,1.77669-2.07242,3.31314-3.15236,4.94128c-0.18411,0.27756-0.33914,0.57489-0.50026,0.86716
	c-1.00626,1.8257-2.25362,3.43559-3.94095,4.7042c-2.5453,1.9137-5.05382,3.8765-7.57106,5.82728
	c-1.27941,0.99147-2.50278,2.06091-3.82656,2.98786c-1.32087,0.92491-2.73481,1.71703-4.10975,2.56442
	c-0.28478,0.17549-0.62385,0.28958-0.85915,0.51443c-1.5909,1.52061-3.54755,1.75618-5.60897,1.64449
	c-0.44586-0.02414-0.89046-0.10706-1.33537-0.10522c-0.86382,0.00352-1.65662-0.21255-2.39791-0.64758
	c-0.24079-0.14128-0.48015-0.31059-0.74331-0.38371c-1.10567-0.30714-1.95262-1.04829-2.9064-1.62245
	c-1.9684-1.18488-3.35096-2.94377-4.81328-4.62695c-0.43189-0.49711-0.71942-1.13013-1.02268-1.72655
	c-1.04415-2.05361-1.7635-4.22556-2.30669-6.46032c-0.11544-0.47495-0.09303-1.01974-0.59882-1.36292
	c-0.14452,0.04787-0.34427,0.05355-0.44353,0.15631c-0.97078,1.00446-1.92227,2.02748-2.88477,3.04002
	c-0.4228,0.44476-0.85538,0.88036-1.28912,1.31453c-0.23673,0.23695-0.53799,0.42702-0.71918,0.69886
	c-0.81754,1.22658-1.99892,2.08955-3.02615,3.10661c-0.95292,0.94345-1.93788,1.86301-2.80871,2.87881
	c-1.19395,1.39267-2.78593,2.22624-4.26517,3.21651c-0.40129,0.26866-0.93395,0.41205-1.42283,0.46774
	c-3.5985,0.40999-7.23953-0.95178-8.8157-4.62632c-1.88335-4.39076-2.7659-8.95735-2.61982-13.71783
	c0.12342-4.0239,0.39281-8.03752,1.24057-11.98956c0.80848-3.76885,1.5155-7.56232,2.43446-11.30384
	c0.86612-3.5262,1.82973-7.03906,2.97789-10.48194c0.88316-2.64808,1.80302-5.28601,2.68896-7.93529
	c0.70816-2.11726,1.59484-4.17455,2.39259-6.26216c0.89722-2.3478,1.76186-4.7083,2.6834-7.04642
	c0.49129-1.24643,1.07996-2.45418,1.61201-3.68486c0.7984-1.84669,1.532-3.72351,2.39005-5.54182
	c1.33488-2.82881,2.66664-5.66216,4.32481-8.32636c0.46082-0.74034,0.99643-1.46572,1.1487-2.52497
	c-0.36987,0.05021-0.64474,0.03596-0.87722,0.12833c-0.84973,0.33756-1.51811,0.93487-2.13115,1.59484
	c-0.79992,0.86119-1.66149,1.64255-2.58726,2.37652c-0.95726,0.75895-1.79736,1.67375-2.64042,2.56599
	c-0.61738,0.65334-1.23968,1.27557-2.01375,1.75246c-1.29797,0.79971-2.34035,1.85069-3.23519,3.10804
	c-0.80418,1.13006-1.82051,2.11102-2.76098,3.14157c-0.64016,0.7015-1.36478,1.33199-1.95599,2.07079
	c-1.01666,1.2704-2.14114,2.42864-3.29713,3.56952c-1.91227,1.88733-3.6042,3.95193-5.04919,6.23562
	c-0.80139,1.26655-1.85042,2.37901-2.81301,3.54008c-0.64454,0.77737-1.24238,1.57563-1.71126,2.47721
	c-0.33398,0.64225-0.75674,1.23899-1.14931,1.84997c-1.29924,2.02186-2.59905,4.0433-3.90545,6.06047
	c-1.18425,1.82845-2.44453,3.6115-3.55025,5.486c-1.47469,2.49998-2.82948,5.07063-4.24292,7.60692
	c-0.24411,0.4381-0.50301,0.87104-0.79111,1.28103c-1.06623,1.5173-1.8918,3.16116-2.62465,4.85851
	c-0.37573,0.87024-0.74548,1.74831-1.19814,2.57911c-1.73867,3.19103-3.26854,6.48241-4.77493,9.78587
	c-0.85756,1.88057-1.77021,3.73143-2.49451,5.67776c-0.41972,1.12801-1.19523,2.13191-1.865,3.15612
	c-0.57748,0.88317-1.31046,1.66486-1.79716,2.73946c0.22719,0.21417,0.41735,0.51433,0.68632,0.62798
	c2.15868,0.91197,4.18049,2.13289,6.47534,2.74553c1.33377,0.35606,1.85726,1.53944,2.1951,2.74729
	c0.0916,0.32751-0.04903,0.78566-0.22363,1.10764c-0.31785,0.58629-0.73507,1.11975-1.12424,1.66568
	c-0.09488,0.13313-0.22252,0.27701-0.36745,0.33517c-1.72269,0.69125-3.0819,1.99542-4.74966,2.79359
	c-0.71287,0.34123-1.35962,0.48703-2.07999,0.25525c-0.52902-0.17021-1.04268-0.39799-1.54597-0.6364
	c-1.76427-0.83572-3.49089-1.75957-5.28998-2.51057c-1.54134-0.64343-3.16133-1.0992-4.74867-1.63164
	c-1.30743-0.43857-2.54223-0.17877-3.7121,0.45444c-1.03112,0.55815-2.04701,1.14665-3.05028,1.75366
	c-0.97672,0.5909-1.97036,0.76549-3.02832,0.25684c-0.20007-0.09616-0.39588-0.20943-0.57429-0.34103
	c-0.55593-0.41006-0.69931-0.8604-0.35348-1.44633c0.27856-0.47194,0.608-0.95793,1.02981-1.29285
	c1.17745-0.93478,2.36703-1.87002,3.63779-2.66827c2.85594-1.79397,4.99713-4.26468,6.89322-6.98965
	c0.25517-0.36675,0.48543-0.75072,0.73516-1.12141c1.47371-2.18752,2.59258-4.54875,3.54378-7.00545
	c0.86706-2.2394,1.8192-4.44645,2.76188-6.6558c0.8771-2.05573,1.7943-4.09429,2.68835-6.14283
	c1.05029-2.40673,2.04213-4.83453,2.90833-7.31706c0.71791-2.05741,1.56588-4.0696,2.36191-6.09959
	c0.99974-2.5492,2.01321-5.09308,3.00607-7.64497c0.91188-2.34353,1.81293-4.69136,2.70113-7.04398
	c0.39478-1.04552,0.73376-2.11198,1.11985-3.16093c0.7721-2.0979,1.63769-4.16512,2.31934-6.29158
	c0.76744-2.39406,1.32992-4.85312,2.06315-7.25903c0.8875-2.91191,1.13542-5.9228,1.44401-8.91834
	c0.14784-1.43491,0.10438-2.9152-0.06194-4.35067c-0.23747-2.05014-1.27105-3.8038-2.51818-5.40849
	c-0.28954-0.37255-0.77644-0.63046-1.22099-0.83677c-1.52737-0.70888-3.15986-0.6275-4.78145-0.5192
	c-0.31961,0.02135-0.69247,0.13237-0.931,0.33269c-1.26196,1.0597-2.79281,1.6355-4.22347,2.38267
	c-1.05177,0.5493-1.98286,1.25001-2.89739,1.97958c-0.95956,0.76551-1.91326,1.54583-2.7997,2.39275
	c-0.55995,0.53497-1.06816,1.15817-1.46588,1.82191c-0.89746,1.49767-2.1153,2.73325-3.17866,4.0943
	c-0.3405,0.43584-0.63397,0.9114-0.92036,1.386c-1.60328,2.65689-2.46284,5.62061-3.48561,8.51577
	c-0.14772,0.41809-0.20314,0.86904-0.29769,1.30555c-0.22449,1.0367-0.39764,2.08774-0.68518,3.10657
	c-0.24538,0.86953-0.42132,1.73465-0.42681,2.63723c-0.00811,1.34166-0.04207,2.68335-0.03531,4.02487
	c0.00488,0.95934,0.18639,1.88199,0.62373,2.75638c0.32436,0.64842,0.59235,1.32764,0.84719,2.0075
	c0.23477,0.62608,0.45954,1.26142,0.61541,1.9103c0.24816,1.03276-0.11003,1.79678-0.99454,2.4459
	c-1.14361,0.83929-2.45063,1.30574-3.70772,1.89137c-1.0106,0.47083-2.02562,0.93497-3.05728,1.35661
	c-0.45831,0.18728-0.95681,0.31116-1.4481,0.36806c-0.24296,0.02814-0.54221-0.11427-0.76137-0.26109
	c-0.47769-0.32001-0.80016-0.77087-0.92326-1.34957c-0.23559-1.10728-0.7583-2.08822-1.29043-3.07785
	c-1.30325-2.4239-1.73486-5.05272-1.68463-7.77806c0.00102-0.0558,0.01438-0.1117,0.01237-0.1672
	c-0.13944-3.82532,1.01105-7.38269,2.22803-10.93515c0.5801-1.69334,1.22587-3.35438,1.91019-5.00796
	c0.79902-1.93066,1.86492-3.68507,3.09054-5.35867c0.75961-1.0372,1.5517-2.05319,2.2617-3.12346
	c0.93805-1.41408,2.08105-2.62342,3.39082-3.68814c0.21666-0.17612,0.43165-0.3569,0.62856-0.55432
	c2.1874-2.19292,4.67035-3.99137,7.35289-5.52488c0.097-0.05547,0.18541-0.12751,0.28561-0.1757
	c2.46624-1.18576,4.87616-2.48795,7.45124-3.44544c1.72552-0.64158,3.42662-1.35441,5.1133-2.09316
	c1.59799-0.69992,3.25248-1.23504,4.95624-1.52971c2.54834-0.44074,5.02564,0.00551,7.3628,1.07863
	c1.40628,0.64569,2.38083,1.8285,3.29738,3.0373c0.4724,0.62301,0.91859,1.26636,1.3638,1.9094
	c0.70304,1.0155,1.31227,2.07932,1.67411,3.27204c0.16218,0.53472,0.33792,1.0674,0.54512,1.58597
	c0.3788,0.94778,0.61127,1.91545,0.52631,2.9438c-0.00914,0.11084-0.00766,0.22522,0.00852,0.33506
	c0.37183,2.53011-0.12449,5.01176-0.4432,7.49876c-0.32768,2.55663-0.95882,5.0469-1.77214,7.49417
	c-0.3346,1.00673-0.60435,2.03695-0.86145,3.06701c-0.36717,1.47078-0.85731,2.88794-1.54949,4.24239
	c-0.45688,0.89394-0.83466,1.82977-1.21645,2.75974c-0.11921,0.29037-0.25144,0.63179,0.14899,0.99665
	c0.26516-0.24813,0.5624-0.47933,0.80283-0.75931c1.12764-1.31309,2.24421-2.63581,3.35546-3.96284
	c0.57281-0.68404,1.17303-1.35201,1.67849-2.08414c0.92953-1.34651,2.10026-2.46583,3.25817-3.59714
	c0.68546-0.66974,1.27921-1.39327,1.77517-2.21527c0.66445-1.10135,1.46965-2.07019,2.45359-2.93911
	c1.63183-1.44103,3.13187-3.03167,4.68223-4.56454c1.9464-1.92443,3.91496-3.82347,6.05602-5.5357
	c0.43533-0.34814,0.82343-0.75553,1.23128-1.13779c0.40756-0.382,0.78202-0.80681,1.22366-1.14381
	c3.10792-2.37159,6.18666-4.78242,9.49772-6.87632c1.98557-1.25566,3.95134-2.54011,6.13631-3.43377
	c1.67133-0.68357,3.43015-0.98369,5.21687-1.16214c0.60767-0.06069,1.10522,0.11148,1.49345,0.5761
	c0.35758,0.42794,0.75043,0.83755,1.03969,1.30922c0.70967,1.15737,0.96832,2.37489,0.22182,3.62799
	c-0.94112,1.57991-1.717,3.25837-2.96597,4.65305c-0.55159,0.61597-0.94784,1.37421-1.39432,2.08068
	c-2.72694,4.31517-4.86235,8.92717-6.82681,13.62493c-0.38777,0.92724-0.75384,1.8671-1.20351,2.76426
	c-1.33094,2.65554-2.14344,5.51365-3.27022,8.24833c-0.31919,0.77488-0.59731,1.56691-0.8866,2.35387
	c-1.17614,3.19946-2.38755,6.38667-3.5083,9.60544c-0.60529,1.73838-1.05316,3.53156-1.57317,5.29968
	c-0.78824,2.68005-1.60143,5.35312-2.35526,8.0428c-0.33116,1.18132-0.53853,2.39711-0.80861,3.59579
	c-0.4298,1.90778-0.89983,3.80732-1.28571,5.72386c-0.25284,1.25587-0.38863,2.53539-0.57429,3.80468
	c-0.14551,0.99465-0.30875,1.98737-0.42406,2.98557c-0.10864,0.94085-0.17873,1.88686-0.23875,2.83232
	c-0.03187,0.50133,0.02434,1.00848-0.01155,1.50925c-0.23965,3.34328,0.45561,6.56087,1.31906,9.75129
	c0.17279,0.63837,0.44386,1.26832,0.77526,1.84104c0.42587,0.73609,1.04804,0.96437,1.86623,0.72221
	c1.35712-0.40169,2.57828-1.09155,3.60538-2.0582c0.85301-0.80276,1.60082-1.71606,2.42384-2.55222
	c0.52558-0.53397,5.08512-6.55135,6.58894-8.34684c0.52296-0.47841,0.73634-1.09416,0.86694-1.77074
	c0.60444-3.13251,1.38474-6.21457,2.59361-9.17943c0.50616-1.24147,0.94592-2.51148,1.3783-3.78127
	c0.86956-2.55347,2.06811-4.9467,3.43772-7.26304c0.54033-0.91373,1.05271-1.84568,1.53839-2.78963
	c1.30788-2.54223,2.98199-4.8582,4.52558-7.25057c0.93301-1.4461,2.13848-2.71899,3.24821-4.0474
	c0.53606-0.64174,1.15857-1.21097,1.69906-1.84936c1.99834-2.36042,4.32325-4.36229,6.77389-6.22845
	c0.93395-0.71125,1.87975-1.40699,2.8135-2.11856c1.83772-1.4004,3.87878-2.43281,5.99625-3.32745
	c0.25697-0.10855,0.52083-0.22044,0.79263-0.27095c1.70267-0.31636,3.39713-0.65512,5.01704-1.29683
	c0.25122-0.09951,0.54977-0.10374,0.82721-0.1087c1.39771-0.02499,2.79565-0.03732,4.19356-0.05076
	c1.2818-0.01232,2.42615,0.43023,3.42987,1.17898c2.8947,2.15948,5.38341,4.68295,7.10144,7.91558
	c0.82524,1.55271,1.31776,3.20494,1.68413,4.89677c0.15054,0.69514,0.01765,1.44681,0.07469,2.16793
	c0.23685,2.99421-0.20674,5.94565-0.91246,8.81078c-0.96095,3.90144-1.73402,7.86246-3.13739,11.64912
	c-0.32944,0.88889-0.60255,1.80061-0.85522,2.71465c-0.0611,0.22099,0.06175,0.49284,0.10815,0.79415
	c0.75391-0.07502,1.31241-0.39165,1.74817-0.78342c1.01527-0.91275,2.21887-1.50544,3.40031-2.12071
	c1.06529-0.55476,1.96935-1.28546,2.76056-2.15113c0.75186-0.82263,1.45462-1.69907,2.10152-2.60703
	c1.72182-2.41661,3.67619-4.64306,5.58615-6.90454c2.19872-2.60342,4.45096-5.16163,6.67422-7.7444
	c0.21709-0.25219,0.43648-0.51791,0.58264-0.81308c0.77377-1.56254,1.82195-2.93502,2.89641-4.29372
	c0.41473-0.52441,0.89217-1.03999,1.14824-1.64164c0.85463-2.00792,2.25696-3.5955,3.79387-5.06639
	c1.41071-1.3501,2.91673-2.60082,4.3884-3.88656c0.12006-0.1049,0.29901-0.14242,0.54689-0.25496
	c0.33804,0.17678,0.73727,0.35909,1.10869,0.58677c0.4268,0.26163,0.80511,0.61016,1.24773,0.83629
	c0.58569,0.29923,0.82034,0.72541,0.70731,1.35918c-0.21574,1.20963-0.42941,2.41965-0.65089,3.62824
	c-0.35399,1.93203-1.02582,3.75864-1.7177,5.5941c-0.98433,2.6115-1.77832,5.29426-2.68192,7.93689
	c-0.75899,2.21967-1.56046,4.4248-2.33681,6.63857c-0.07249,0.20663-0.12006,0.42751-0.1376,0.64512
	c-0.00694,0.08597,0.07971,0.21536,0.16031,0.26263c0.08369,0.04911,0.25349,0.07233,0.31363,0.02158
	c0.46548-0.39284,0.98993-0.74873,1.34987-1.2263c0.61247-0.81257,1.32867-1.50327,2.08266-2.17229
	c0.33179-0.29443,0.6489-0.62746,0.89183-0.99624c1.21068-1.83768,2.75363-3.35793,4.42952-4.76095
	c0.51372-0.4301,0.98125-0.91489,1.48352-1.35926c1.79565-1.58878,3.68509-3.06603,5.40431-4.74876
	c1.03264-1.01071,2.23207-1.85799,3.39507-2.72717c2.86966-2.14465,5.98611-3.91216,9.01784-5.80717
	c1.32924-0.83086,2.77718-1.45378,4.30367-1.84563c0.7009-0.17991,1.42134-0.32891,2.14102-0.38207
	c2.47308-0.18267,2.57875,0.10933,3.77638,2.01495c0.94522,1.50402,1.09544,3.08364,0.34982,4.79522
	c-0.71164,1.63358-1.20276,3.36316-1.79349,5.0496c-0.11087,0.31648-0.18527,0.6594-0.36014,0.93756
	c-1.02565,1.63174-1.44492,3.50119-2.09758,5.27776c-0.8665,2.35844-1.61078,4.76619-2.57521,7.08298
	c-0.92393,2.21965-1.7812,4.45753-2.56104,6.72925c-0.125,0.36415-0.38412,0.68005-0.54869,1.03342
	c-0.18742,0.40245-0.36584,0.81317-0.4998,1.23564c-0.33707,1.06315-0.64079,2.13683-0.96922,3.20277
	c-0.39423,1.27939-0.7999,2.55524-1.20119,3.83244c-0.21761,0.69256-0.44807,1.38133-0.65233,2.0778
	c-0.52139,1.77799-0.79056,3.61193-0.90395,5.44593c-0.07487,1.21061,0.16322,2.4458,0.3114,3.66388
	c0.27762,2.28226,0.75066,4.52502,1.7175,6.62373c0.46501,1.00945,1.04335,1.96958,1.61111,2.92793
	c0.49876,0.84193,1.28729,1.2446,2.25705,1.19039c1.99718-0.11165,3.86322-0.65747,5.4164-1.96357
	c0.58951-0.49572,1.01257-1.1841,1.56448-1.73122c0.5909-0.58575,1.24463-1.10804,1.87013-1.65899
	c0.2925-0.25767,0.62474-0.48376,0.86697-0.78255c0.85036-1.049,1.92719-1.66715,3.28464-1.84142
	c0.90904,0.36562,1.55951,1.03847,2.06587,1.86749c0.38551,0.6312,0.40143,1.26977-0.02448,1.89069
	c-0.79079,1.15282-1.56985,2.31556-2.69859,3.18401c-0.26515,0.20399-0.53726,0.4124-0.75362,0.66399
	c-1.06934,1.24323-2.43826,2.1045-3.77037,3.01694c-0.69135,0.47354-1.36871,0.96894-2.03464,1.47776
	c-1.23793,0.94592-2.38235,2.022-3.89386,2.56564c-0.35031,0.12599-0.66698,0.41895-0.92964,0.70001
	c-0.564,0.60349-1.25766,0.90285-2.04848,1.05103c-0.43861,0.08218-0.90005,0.14525-1.29652,0.33264
	c-2.11424,0.99931-4.17575,0.34753-6.21967-0.20369c-0.74469-0.20084-1.40196-0.68646-1.88658-1.33638
	c-0.70113-0.94028-1.43561-1.85779-2.09648-2.82555c-1.14056-1.67017-2.08325-3.45168-2.59402-5.41952
	c-0.54736-2.10882-1.03859-4.23266-1.52583-6.3565c-0.3163-1.3788-0.19708-2.77003-0.09427-4.16986
	c0.25221-3.43547,1.29315-6.68823,2.26392-9.95071c0.66846-2.24642,1.23685-4.53522,2.25668-6.66669
	c1.37805-2.88021,2.27415-5.94289,3.38091-8.92603c0.36884-0.99416,0.86069-1.9428,1.22691-2.93779
	c0.75256-2.0447,1.44463-4.11162,2.189-6.15942c0.38139-1.04934,0.78746-2.09263,1.24396-3.11105
	c0.64352-1.4357,1.1142-2.92252,1.46405-4.45119c0.02182-0.0952-0.0405-0.20966-0.06529-0.32265
	c-0.22096-0.27607-0.5265-0.18619-0.76465-0.08861c-0.61572,0.25229-1.24002,0.50873-1.80501,0.85478
	c-1.53127,0.93792-2.87564,2.08633-4.06812,3.45213c-0.68472,0.78431-1.60654,1.37884-2.47562,1.98085
	c-1.25179,0.86707-2.3678,1.85205-3.28381,3.07835c-0.46472,0.62212-0.98203,1.23479-1.58188,1.72047
	c-1.62595,1.31654-2.92715,2.90831-4.15059,4.58226c-0.42715,0.58442-0.88702,1.14917-1.37355,1.68513
	c-1.16747,1.28605-2.18292,2.68495-3.1958,4.09248c-1.1076,1.53921-2.29866,3.01833-3.4523,4.52443
	c-0.23787,0.31053-0.54297,0.59346-0.69421,0.94238c-0.65921,1.52085-1.81721,2.66779-2.8381,3.92078
	c-0.49352,0.60573-0.95279,1.24081-1.40408,1.87922c-1.22388,1.7312-2.41866,3.48317-3.65657,5.20417
	c-1.04604,1.45426-2.01987,2.94641-2.81723,4.55496c-0.76891,1.55113-1.59361,3.07453-2.37091,4.6216
	c-0.35059,0.69777-0.65067,1.42122-0.96469,2.13696c-0.62773,1.43076-1.28101,2.85153-1.86151,4.30133
	c-0.35115,0.87701-0.63858,1.78825-0.85573,2.70749c-0.17603,0.74494-0.48186,1.397-1.07877,1.83925
	c-1.85185,1.37216-3.21796,3.24208-4.93814,4.74623c-0.16721,0.14621-0.30153,0.32996-0.4516,0.4958
	c-0.49059,0.54228-1.08868,0.75748-1.81302,0.60522c-0.32747-0.06885-0.66606-0.09616-0.9852-0.19083
	c-0.45921-0.1362-0.72455-0.52687-0.73616-1.0087c-0.00269-0.11128-0.00945-0.22775,0.01765-0.33368
	c0.3869-1.51414,0.7336-3.04062,1.18388-4.53584c0.40184-1.33439,0.89967-2.64138,1.39131-3.94683
	c0.61031-1.62066,1.24512-3.23241,1.89194-4.83892c1.33517-3.31638,2.73993-6.60596,4.01192-9.94621
	c1.0137-2.6619,1.87172-5.38305,2.80164-8.07693c0.21861-0.6332,0.42621-1.27155,0.67776-1.89175
	c0.60907-1.50151,1.24466-2.99223,1.86015-4.49117c0.10559-0.25713,0.1843-0.52918,0.24216-0.80141
	c0.58357-2.74516,1.54869-5.36586,2.56561-7.97187c0.22198-0.56889,0.3723-1.16944,0.50696-1.76639
	C166.57309,83.87508,166.44348,83.66332,166.3916,83.47031z M128.5396,109.34177c-0.39474-0.2069-0.71323-0.44021-1.06973-0.55016
	c-2.81272-0.86745-4.90434-2.83762-7.10235-4.63706c-0.46839-0.38346-0.82954-0.90363-1.21518-1.38097
	c-0.37298-0.46169-0.47662-1.00318-0.34611-1.58165c0.13621-0.60387,0.33968-1.17103,0.75654-1.65728
	c0.87136-1.01637,1.73084-2.04359,2.57041-3.08633c0.73356-0.91103,1.79274-1.50475,2.41344-2.53232
	c0.11966-0.19807,0.47544-0.25349,0.7388-0.38279c1.35743,0.59247,2.65491,1.21499,3.64152,2.3469
	c0.32878,0.37721,0.69479,0.73826,1.09917,1.02988c0.81235,0.58587,1.64052,1.15716,2.50502,1.66093
	c0.61794,0.36008,1.02,0.1409,1.2803-0.56357c0.01932-0.05219,0.02991-0.10756,0.04797-0.16028
	c0.83304-2.43185,1.47426-4.91834,2.07909-7.41341c0.65868-2.71713,1.12155-5.46646,1.43195-8.24977
	c0.2494-2.23606,0.22842-4.46013,0.09311-6.69189c-0.02676-0.44136-0.11871-0.89165-0.26019-1.31097
	c-0.70314-2.08357-1.66599-4.02048-3.24471-5.60236c-0.35365-0.35437-0.67267-0.74593-0.98499-1.1384
	c-0.68448-0.86012-1.57935-1.22643-2.65535-1.11598c-1.38599,0.14228-2.78528,0.20773-4.11712,0.69675
	c-0.36102,0.13254-0.75818,0.19324-1.14398,0.22739c-1.85607,0.16429-3.42445,0.82403-4.62705,2.3365
	c-0.69013,0.868-1.50713,1.65436-2.35486,2.37397c-1.82666,1.55061-3.82005,2.92812-4.94805,5.1467
	c-0.02474,0.04866-0.06689,0.08957-0.10519,0.13009c-0.81622,0.86397-1.39333,1.87751-1.88897,2.94968
	c-0.35046,0.75813-0.63999,1.58199-1.15119,2.22089c-1.34122,1.6761-2.23914,3.598-3.24437,5.46258
	c-0.18381,0.341-0.2974,0.72147-0.42832,1.08909c-0.86153,2.41908-1.64851,4.86796-2.60618,7.24822
	c-0.50584,1.25726-0.85355,2.52995-1.11063,3.84445c-0.08562,0.43787-0.17017,0.87824-0.29544,1.30566
	c-0.5706,1.9473-0.77251,3.93105-0.75412,5.95926c0.01171,1.2954,0.15476,2.56856,0.40498,3.82414
	c0.40269,2.02048,0.68149,4.08233,1.61253,5.96146c0.44463,0.89736,0.80627,1.85789,1.38236,2.6633
	c1.05394,1.4733,2.51691,2.54986,4.07079,3.43258c0.9063,0.51486,1.96066,0.81902,2.98551,1.06039
	c0.9285,0.21867,1.88884,0.12237,2.76438-0.37295c1.02039-0.57726,2.05553-1.12849,3.07416-1.70877
	c0.23862-0.13594,0.51984-0.29945,0.63889-0.52541c0.5613-1.06531,1.71519-1.59718,2.31218-2.62648
	c0.10372-0.17885,0.32829-0.29259,0.50747-0.42191c1.04083-0.75112,2.08117-1.50294,3.12897-2.24423
	c0.60313-0.42669,1.11485-0.93844,1.46642-1.58704c0.82517-1.52238,1.63916-3.05096,2.43783-4.58735
	C128.44907,109.95285,128.46185,109.66679,128.5396,109.34177z"/>
<path class="st2" d="M250.92395,69.13969c4.40851-0.04652,8.81738-0.07188,13.22516-0.15652
	c0.9368-0.01799,1.76111,0.19843,2.5531,0.64085c0.63913,0.35705,0.85876,0.82681,0.66312,1.53687
	c-0.10223,0.37098-0.27661,0.72986-0.46561,1.06782c-0.95187,1.70221-1.91522,3.39806-2.88461,5.09035
	c-0.19342,0.33772-0.42993,0.65085-0.64807,0.9743c-0.577,0.85545-1.33765,1.19568-2.40845,1.17555
	c-1.83719-0.03454-3.68149,0.21246-5.51573,0.14581c-2.33308-0.08478-4.65718,0.25631-7.00166-0.06189
	c-1.64719-0.22357-3.34807-0.18673-5.0157-0.09587c-3.4057,0.18553-6.80594,0.08181-10.20869,0.00165
	c-0.61369-0.01445-1.23044,0.0136-1.84079-0.03752c-1.73767-0.14555-2.16887-0.84817-1.50304-2.42658
	c0.80174-1.90063,1.44031-3.86641,2.42574-5.69512c0.61183-1.13548,1.45901-1.8145,2.73015-1.92419
	c1.22159-0.10542,2.44655-0.20867,3.67152-0.23035c3.29243-0.05826,6.58562-0.07382,9.87854-0.10307
	c0.78139-0.00694,1.56287-0.00102,2.34431-0.00102C250.92348,69.07375,250.92371,69.10672,250.92395,69.13969z"/>
<g>
	<path class="st2" d="M425.38986,66.83434c-0.68265,1.22192-1.60739,2.03974-2.45972,2.91393
		c-0.50772,0.52075-0.96475,1.06239-1.38303,1.66701c-0.7684,1.11065-1.86472,1.9121-3.01025,2.61044
		c-0.56531,0.34457-1.2142,0.21124-1.77878-0.05678c-1.05786-0.50219-2.09943-1.04181-3.12653-1.60464
		c-0.73355-0.40199-1.42383-0.88207-2.14877-1.30078c-1.08307-0.62551-2.22491-0.69126-3.39215-0.26572
		c-1.32562,0.48326-2.54575,1.16201-3.56845,2.1394c-1.49515,1.42892-3.04822,2.77678-4.71667,4.00846
		c-1.31036,0.96735-2.25876,2.31384-3.16296,3.66257c-0.62164,0.9272-1.15018,1.9194-1.80441,2.82162
		c-1.25366,1.72891-2.18866,3.62805-3.13275,5.52915c-1.65308,3.3287-2.71835,6.8385-3.38474,10.48714
		c-0.46255,2.53226-0.9567,5.05547-0.91171,7.64648c0.00388,0.22256-0.00757,0.45148-0.05521,0.66794
		c-0.50198,2.2827-0.26114,4.55854,0.04324,6.8355c0.07413,0.55408,0.08377,1.1193,0.19266,1.66553
		c0.1524,0.76416,0.34186,1.5239,0.56824,2.2695c0.20987,0.69129,0.54364,1.34722,0.72592,2.04406
		c0.34982,1.3374,1.16989,2.08961,2.51999,2.37211c1.00974,0.21129,1.93979,0.24796,2.93509-0.17874
		c2.21765-0.95068,4.39651-1.93847,6.19214-3.60476c0.15866-0.14722,0.36035-0.32498,0.55579-0.34351
		c1.58591-0.15047,2.61584-1.21947,3.60718-2.25946c1.96826-2.06485,4.01947-4.03369,6.18866-5.88498
		c0.55029-0.46965,1.08249-0.98256,1.52484-1.55186c0.79807-1.02717,1.75919-1.8784,2.75763-2.68432
		c0.6636-0.53565,1.23807-1.11157,1.65762-1.85886c0.77536-1.38092,1.8739-2.49587,2.99658-3.59489
		c0.5553-0.54359,1.0704-1.13951,1.53271-1.76424c0.83029-1.12201,1.56909-2.31255,2.41556-3.42146
		c1.09137-1.42971,1.94983-2.98714,2.76999-4.57842c1.51233-2.9342,3.21967-5.75247,5.14545-8.43686
		c0.52112-0.72638,1.01675-1.47163,1.50653-2.2197c1.50366-2.29653,3.3374-4.33442,5.02701-6.48594
		c1.78403-2.27174,4.13806-3.90397,6.20697-5.85358c0.81195-0.76515,1.64069-1.51254,2.45209-2.27828
		c0.16013-0.15118,0.30655-0.33369,0.4068-0.52872c0.50397-0.98012,1.28766-1.66909,2.21185-2.23589
		c0.42734-0.2621,0.80634-0.60175,1.21689-0.89265c1.14923-0.81426,2.34079-1.51963,3.79645-1.64965
		c0.4389-0.03921,0.87018-0.20126,1.29688-0.33308c0.97845-0.30228,1.97147-0.36011,2.98645-0.25835
		c2.90817,0.29157,5.52094,1.33747,7.87488,3.05209c0.22485,0.16377,0.44223,0.34449,0.63538,0.54411
		c1.16577,1.20491,2.33179,2.40987,3.47754,3.63366c0.26398,0.28188,0.50311,0.61298,0.66183,0.96306
		c0.87949,1.94022,1.5321,3.9365,1.87103,6.06355c0.38574,2.42039,0.11856,4.80273-0.12537,7.18333
		c-0.42203,4.11837-1.12927,8.19122-2.47604,12.1275c-0.06812,0.19923-0.06641,0.42236-0.11316,0.74413
		c0.28079,0.00882,0.50226,0.07067,0.68567,0.01256c1.1192-0.35464,2.23773-0.71475,3.33939-1.11959
		c0.46561-0.17109,0.9183-0.41388,1.32709-0.69619c1.14911-0.79361,2.26514-1.63491,3.40833-2.43729
		c0.73111-0.51315,1.4845-0.99485,2.23282-1.48309c1.45734-0.95086,2.72003-2.10419,3.93436-3.36115
		c2.80139-2.89991,5.31119-6.04559,7.84863-9.16087c1.97159-2.42056,3.71265-5.03373,5.48264-7.61172
		c0.98199-1.43024,1.57083-3.07935,2.24298-4.67434c0.45538-1.08065,0.86432-2.18327,1.36884-3.24037
		c1.0119-2.1204,1.90414-4.28714,2.75089-6.47803c0.70401-1.82151,1.52954-3.59582,2.29181-5.39506
		c0.21783-0.51423,0.39682-1.04481,0.60361-1.56391c0.97137-2.43874,1.7879-4.95587,2.96417-7.29168
		c1.18887-2.36083,1.97342-4.86022,2.9855-7.27782c0.99304-2.37198,2.02026-4.72887,3.26184-6.98137
		c0.71021-1.28838,1.83105-2.24565,2.89423-3.23473c0.1488-0.13845,0.41559-0.24126,0.61304-0.22042
		c0.85632,0.09033,1.54102-0.28724,2.13727-0.79966c0.75531-0.64903,1.62756-0.6695,2.52881-0.63616
		c0.38757,0.01434,0.65228,0.26035,0.67249,0.62321c0.06183,1.11035,0.37469,2.20515,0.17554,3.33422
		c-0.08679,0.49207-0.15497,1.01079-0.09497,1.50067c0.13367,1.09154-0.04266,2.11151-0.46844,3.11108
		c-0.15271,0.35867-0.23779,0.74557-0.36707,1.11493c-0.44208,1.26314-0.84131,2.533-1.51282,3.71613
		c-0.54663,0.96312-0.85559,2.05807-1.32507,3.06896c-0.39868,0.85857-0.87311,1.68219-1.31946,2.51835
		c-0.52545,0.98428-1.12109,1.93677-1.57373,2.95317c-1.43323,3.21838-3.0116,6.36225-4.69434,9.45561
		c-0.21362,0.39274-0.46704,0.77307-0.61688,1.18979c-0.78333,2.17891-2.09265,4.06185-3.29346,6.01135
		c-1.02524,1.66444-2.0127,3.35677-2.92191,5.08667c-0.80466,1.53106-1.44299,3.14865-2.21829,4.69621
		c-1.17596,2.34728-2.42221,4.65929-3.60956,7.001c-0.88385,1.74299-1.73563,3.50267-2.5766,5.26688
		c-1.03156,2.16399-2.03693,4.34049-3.05551,6.51563c0.23251,0.27964,0.40347,0.0461,0.54507-0.09476
		c1.10822-1.1026,2.28192-2.13893,3.19864-3.42842c0.4834-0.6799,1.05936-1.30503,1.65607-1.89121
		c1.67545-1.6458,3.27481-3.35898,4.78793-5.15493c1.19693-1.4207,2.65378-2.55244,4.11713-3.68005
		c0.66022-0.50872,1.30914-1.05244,1.8703-1.66534c1.33398-1.45692,2.80713-2.71152,4.56628-3.63631
		c0.58496-0.30751,1.10754-0.75176,1.61511-1.18455c1.02216-0.87156,2.0329-1.73935,3.26672-2.3259
		c0.64996-0.30902,1.26654-0.7283,1.81976-1.19148c0.82831-0.69345,1.74872-1.19194,2.73499-1.60495
		c1.49316-0.62527,2.96698-1.29735,4.466-1.90766c0.56213-0.22887,1.16364-0.38576,1.7619-0.49491
		c0.86835-0.15842,1.66803,0.06885,2.35437,0.63327c0.56055,0.461,1.13623,0.90918,1.65289,1.41629
		c0.47858,0.46973,0.59778,1.05339,0.29382,1.69302c-0.67133,1.41289-1.26556,2.86728-2.0141,4.23768
		c-1.57953,2.89202-3.32141,5.69762-4.83966,8.62025c-1.41528,2.7244-2.65485,5.54188-3.9212,8.34127
		c-1.45142,3.20853-2.87457,6.4306-4.25159,9.67161c-0.45642,1.0741-0.75928,2.21713-1.08386,3.34263
		c-0.54181,1.87828-1.08667,3.75753-1.5495,5.65607c-0.33044,1.35588-0.63922,2.73483-0.75421,4.12035
		c-0.11011,1.32745-0.0918,2.69748,0.11182,4.01132c0.28046,1.8093,0.57843,3.6341,1.36621,5.33027
		c0.35156,0.75694,0.58691,1.56818,0.86884,2.35699c0.26782,0.74923,0.69537,1.38253,1.32526,1.99451
		c1.53479-0.61681,3.0578-1.1333,4.32202-2.18983c1.15765-0.96745,2.32184-1.92733,3.46667-2.90977
		c0.2934-0.25179,0.53241-0.56964,0.78174-0.86931c0.17853-0.21442,0.31738-0.46229,0.49982-0.67284
		c1.90521-2.1992,3.47821-4.64278,5.15576-7.00894c0.41663-0.58765,0.77899-1.21407,1.15924-1.82706
		c1.00055-1.61314,1.99451-3.23035,2.99683-4.84238c0.4101-0.65959,0.73956-1.36838,1.34808-1.90066
		c0.28436-0.24875,0.46844-0.6205,0.67114-0.95285c0.78516-1.28733,1.57483-2.57239,2.33356-3.87533
		c0.70258-1.20663,1.36926-2.43425,2.04926-3.65398c1.85046-3.31897,3.65741-6.66328,5.56915-9.94656
		c0.81281-1.39592,1.84094-2.66677,2.77649-3.9907c0.70978-1.0044,1.44128-1.99368,2.13873-3.00649
		c0.73279-1.0641,1.58136-2.01611,2.51508-2.91084c1.16925-1.12053,2.28815-2.29539,3.39771-3.47595
		c1.00488-1.0692,2.17865-1.92072,3.38104-2.73827c0.55316-0.37616,1.14636-0.69279,1.71039-1.05358
		c1.60889-1.02907,3.25964-1.92002,5.18542-2.2654c0.80359-0.14411,1.57458-0.56772,2.31274-0.9551
		c0.99457-0.52192,1.99231-0.67139,3.07642-0.36701c0.591,0.16591,1.19806,0.27969,1.80273,0.39061
		c3.54779,0.65083,6.46088,2.40895,8.84875,5.07481c0.99377,1.10945,1.61737,2.39498,1.79822,3.89254
		c0.16742,1.38642,0.38562,2.76034,0.39844,4.16826c0.04596,5.05849-1.1333,9.85463-2.95789,14.52818
		c-0.2627,0.67294-0.45599,1.37804-0.62152,2.08235c-0.15674,0.66681,0.20258,0.97811,0.8327,0.77525
		c1.28979-0.41521,2.46753-1.06866,3.56458-1.83966c1.55072-1.08984,3.17029-2.09343,4.48773-3.49558
		c0.41321-0.43983,0.96729-0.75375,1.47699-1.09524c1.21027-0.81082,2.36023-1.69183,3.39996-2.71737
		c0.55634-0.54875,1.15906-1.05019,1.7301-1.58447c0.48932-0.45782,1.02124-0.88616,1.4339-1.40707
		c1.55884-1.96777,3.07239-3.97135,4.61304-5.95361c0.37714-0.48524,0.80048-0.93421,1.18927-1.41076
		c1.27527-1.56338,2.40857-3.22337,3.30566-5.03307c0.81891-1.65199,1.59308-3.32613,2.40741-4.98045
		c0.34515-0.70128,0.74548-1.37527,1.11517-2.06467c0.23761-0.44298,0.52472-0.87084,0.68671-1.34097
		c0.75122-2.18054,1.89532-4.16898,2.95831-6.19851c0.2851-0.54425,0.55835-1.09948,0.77802-1.6723
		c0.5423-1.41423,1.28265-2.7229,2.00739-4.04756c1.3941-2.54824,2.71283-5.13777,4.0603-7.71146
		c0.07745-0.14799,0.16138-0.30184,0.19379-0.46275c0.31421-1.56017,1.05609-2.95221,1.81903-4.30962
		c1.34052-2.38501,2.70465-4.76655,4.23303-7.03212c0.80023-1.18625,1.95312-2.14024,2.98029-3.16553
		c0.56891-0.56785,1.32654-0.82551,2.0968-0.99411c1.16803-0.25564,2.24597,0.48829,2.44318,1.69556
		c0.22705,1.3898,0.29712,2.7749-0.18311,4.14411c-0.18378,0.52416-0.29468,1.08022-0.38171,1.63075
		c-0.20703,1.31022-0.72589,2.48893-1.63348,3.43341c-0.95911,0.99812-1.573,2.17324-2.01465,3.44281
		c-0.52106,1.49782-1.33197,2.83789-2.18542,4.1444c-1.04205,1.59533-1.98724,3.23569-2.83081,4.94252
		c-0.49445,1.00038-1.08063,1.95501-1.60895,2.93912c-0.55408,1.03205-1.07141,2.084-1.63574,3.11025
		c-0.59192,1.07643-1.14697,2.18417-1.84869,3.18687c-1.38348,1.97692-2.45923,4.1282-3.67706,6.19854
		c-0.39679,0.67456-0.76538,1.36711-1.18951,2.02391c-1.49548,2.3159-2.49609,4.85369-3.42035,7.43302
		c-0.65845,1.83778-1.38275,3.65201-2.08099,5.47552c-0.41962,1.0959-0.84131,2.19102-1.26947,3.28364
		c-1.01923,2.60129-2.08002,5.18711-3.05243,7.80574c-0.71912,1.93661-1.32477,3.91534-1.9826,5.87476
		c-0.23065,0.68703-0.5293,1.35842-0.68549,2.06168c-0.27814,1.25204-0.47675,2.52197-0.69885,3.78613
		c-0.28027,1.59534-0.60382,3.18552-0.81183,4.7905c-0.25836,1.99374-0.47015,3.99091-0.44159,6.01525
		c0.02197,1.55985-0.13147,3.12594-0.27344,4.68321c-0.13037,1.43002,0.18683,2.78413,0.591,4.12112
		c0.22559,0.74624,0.58759,1.44996,1.20795,1.98055c0.37354,0.3195,0.76221,0.42953,1.23407,0.23384
		c1.19702-0.49648,2.29938-1.12565,3.21118-2.07229c0.54102-0.56174,1.12854-1.08065,1.71484-1.59646
		c0.84174-0.74055,1.65973-1.49762,2.28973-2.43816c0.18542-0.27685,0.42377-0.51971,0.6485-0.76856
		c1.34729-1.49213,2.71283-2.96807,4.03931-4.47836c0.5144-0.58569,0.95123-1.24076,1.40839-1.87504
		c0.78308-1.0865,1.49646-2.21725,2.3952-3.22712c0.62469-0.70197,1.08813-1.5528,1.58893-2.35869
		c1.29803-2.08881,2.4953-4.24554,3.88599-6.26995c1.4306-2.08251,2.49371-4.36414,3.79333-6.51521
		c0.86505-1.43166,1.51538-2.99117,2.32825-4.45659c1.21777-2.19538,2.17426-4.52157,3.49371-6.67133
		c0.81201-1.32291,1.31909-2.83144,1.98468-4.24648c0.3078-0.65443,0.61548-1.31931,1.01654-1.91679
		c0.49738-0.74088,1.08496-1.40041,1.1972-2.35599c0.04102-0.3493,0.3678-0.67738,0.59833-0.98997
		c0.92761-1.25749,1.87836-2.498,2.79895-3.76054c0.29474-0.40434,0.59125-0.83131,0.76703-1.29355
		c0.36322-0.95525,1.00348-1.27979,1.97321-1.0688c0.09723,0.02114,0.2135-0.04514,0.41504-0.0934
		c1.19318-1.3697,2.43903-2.79876,3.68317-4.22924c0.18286-0.21026,0.32233-0.48407,0.54681-0.62497
		c0.21533-0.13518,0.56537-0.25789,0.76904-0.17412c0.82391,0.33892,1.63544,0.72207,2.40985,1.16228
		c0.59125,0.33602,0.7735,0.91779,0.66553,1.59407c-0.12622,0.79006-0.4679,1.48468-0.88031,2.15786
		c-1.3111,2.14021-2.65143,4.26404-3.90179,6.43937c-0.6098,1.06089-1.08673,2.20512-1.54968,3.34181
		c-0.67523,1.65783-1.37079,3.29745-2.32758,4.82111c-0.41388,0.659-0.71393,1.38961-1.06299,2.089
		c-0.5484,1.09893-1.1001,2.19627-1.6394,3.29969c-0.26941,0.55122-0.50372,1.11952-0.7724,1.6711
		c-0.68469,1.40585-1.38812,2.80263-2.06628,4.21159c-0.24139,0.50152-0.4245,1.0308-0.64716,1.54176
		c-0.26721,0.61303-0.54724,1.22044-0.82373,1.82942c-0.13837,0.30479-0.32642,0.59502-0.41455,0.91331
		c-0.59943,2.16411-1.59894,4.17365-2.49762,6.21033c-1.66333,3.76946-2.19116,7.71758-2.24817,11.77204
		c-0.01184,0.83826,0.0437,1.67724,0.04883,2.516c0.01105,1.8186,0.49982,3.54145,1.12225,5.21941
		c0.26636,0.71822,0.71375,1.38777,1.17297,2.00999c0.349,0.47285,0.875,0.60256,1.50403,0.43195
		c1.08569-0.29453,2.10394-0.66821,3.05542-1.31005c1.25189-0.84447,2.54681-1.61856,3.61938-2.69934
		c0.03937-0.03963,0.07727-0.08517,0.12494-0.11142c1.81238-0.99783,3.02844-2.60288,4.31146-4.15604
		c0.63568-0.76949,1.4361-1.40104,2.13873-2.11774c0.46637-0.47565,0.90912-0.97739,1.3291-1.49452
		c0.2807-0.34571,0.44928-0.79277,0.75995-1.10222c1.98578-1.97816,3.45264-4.39478,5.42188-6.38309
		c0.55847-0.56392,0.96844-1.21109,1.35132-1.90229c0.784-1.41536,1.6452-2.78772,2.45648-4.18829
		c0.89612-1.54704,9.81775-14.4071,10.24475-15.23318c1.03076-1.99409,2.32275-3.81054,3.57538-5.65975
		c1.76093-2.59972,3.88257-4.90536,5.95233-7.24229c1.17566-1.32736,2.61884-2.43214,4.01355-3.54709
		c1.39508-1.11523,2.86914-2.13356,4.33136-3.16193c0.49902-0.35101,1.04669-0.65178,1.60803-0.89152
		c1.28503-0.54888,2.5827-1.07165,3.89423-1.5535c0.67664-0.24865,1.39117-0.39777,2.09332-0.5727
		c0.789-0.19658,1.55402-0.077,2.29761,0.22585c2.55927,1.04245,4.92926,2.42265,6.98041,4.2671
		c1.41339,1.27092,2.59924,2.77046,3.53552,4.44748c0.35388,0.63396,0.76379,1.23662,1.11957,1.86967
		c0.32697,0.58186,0.65814,1.16772,0.9129,1.78269c0.78711,1.89949,0.57001,1.74714-0.63586,3.26005
		c-0.23901,0.2999-0.59729,0.50192-0.88043,0.7703c-0.323,0.30616-0.68475,0.59627-0.92303,0.96266
		c-0.9801,1.50698-2.54626,2.32916-3.92065,3.35819c-0.89642,0.67116-2.63361,0.38657-3.22003-1.02821
		c-0.96527-2.32885-2.28766-4.4753-3.79541-6.49798c-1.06683-1.43115-2.38843-2.47256-4.21918-2.79652
		c-0.80157-0.14186-1.53888-0.15672-2.29047,0.17282c-0.45929,0.20141-0.94556,0.34532-1.42657,0.49248
		c-2.01727,0.61709-3.74103,1.67886-5.2323,3.18935c-0.69507,0.7041-1.57617,1.23808-2.41772,1.77953
		c-0.57257,0.36842-1.05841,0.77695-1.48608,1.31848c-1.3905,1.76085-2.54901,3.66582-3.65924,5.60619
		c-0.19373,0.33851-0.44366,0.64442-0.64502,0.979c-0.51746,0.85989-1.02759,1.72431-1.53076,2.59261
		c-0.95288,1.64413-1.86829,3.31084-2.85687,4.93306c-0.85376,1.40094-1.42242,2.90341-1.849,4.47462
		c-0.26331,0.96961-0.50385,1.95044-0.84839,2.8919c-0.79553,2.1738-1.29333,4.39151-1.27783,6.71848
		c0.00525,0.78122-0.09308,1.56264-0.12592,2.34473c-0.02582,0.61375-0.05267,1.2298-0.02832,1.84281
		c0.05548,1.39627,0.19824,2.79107,0.20453,4.18689c0.01349,2.98782,1.15613,5.5539,2.87775,7.89819
		c1.17596,1.60132,2.51801,2.04802,4.41638,1.44314c1.54236-0.49144,3.05634-1.08443,4.54932-1.71227
		c0.65826-0.27679,1.25348-0.72317,1.84235-1.14169c1.9585-1.39191,3.90985-2.79436,5.84784-4.21471
		c2.6463-1.93941,4.79846-4.34254,6.55115-7.10694c0.27179-0.42868,0.47974-0.96159,1.03253-1.02158
		c1.74933-0.18987,3.28265,0.43343,3.25726,2.56958c-0.00885,0.74241-0.32855,1.41081-0.7663,2.01057
		c-2.2384,3.06712-4.47644,6.13447-6.71948,9.19819c-1.39954,1.91157-3.14844,3.48167-4.99207,4.93675
		c-1.9256,1.51974-3.90442,2.97372-5.89282,4.411c-0.58069,0.41972-1.26062,0.71262-1.91821,1.01289
		c-0.96448,0.44043-1.9671,0.79897-2.92291,1.25629c-2.76471,1.32285-5.59692,1.41982-8.48236,0.50618
		c-1.95074-0.61768-2.0061-0.59091-3.25946-2.17046c-2.22467-2.80366-3.7522-5.90582-4.099-9.56043
		c-0.37659-3.96757-0.2428-7.92809-0.15454-11.89439c0.00598-0.26785-0.00214-0.53598-0.0033-0.73961
		c-0.36578-0.21223-0.5069-0.02751-0.66534,0.12298c-1.34564,1.27762-2.32758,2.85445-3.48425,4.28559
		c-1.85864,2.2997-3.5918,4.70072-5.37946,7.05785c-0.23639,0.31168-0.43646,0.67043-0.72974,0.9162
		c-1.60284,1.34319-2.74878,3.07428-4.04529,4.67829c-0.24469,0.30275-0.4884,0.66312-0.81732,0.83097
		c-1.27924,0.65294-2.17017,1.74593-3.18536,2.69639c-0.49493,0.46341-1.00299,0.87571-1.64319,1.13253
		c-0.35547,0.14256-0.68878,0.36862-0.99231,0.60762c-1.92645,1.51709-4.13123,2.25153-6.55615,2.11076
		c-1.95074-0.11322-3.60443-0.90395-4.96942-2.42569c-1.44769-1.614-2.19275-3.48807-2.57684-5.54044
		c-0.61914-3.30852-0.9364-6.64227-0.53217-10.00956c0.01996-0.1665,0.0639-0.33381,0.05768-0.49928
		c-0.08612-2.27951,0.59955-4.41453,1.21594-6.56329c0.12048-0.41991,0.34351-0.84121,0.05981-1.28683
		c-0.52625-0.09732-0.65881,0.35819-0.86078,0.64521c-1.28625,1.82793-2.54803,3.67313-3.81726,5.51304
		c-1.14166,1.65497-2.31665,3.28813-3.41669,4.97034c-2.27258,3.47536-5.04865,6.54406-7.73218,9.68844
		c-0.21686,0.25402-0.47406,0.47334-0.70978,0.7115c-0.66602,0.67299-1.34601,1.33303-1.99188,2.02493
		c-0.76617,0.82076-1.52368,1.62871-2.61713,2.04202c-0.46484,0.17572-0.88434,0.47739-1.31421,0.73863
		c-3.01215,1.83072-6.54266,1.06984-8.44702-2.33167c-1.12738-2.01369-1.81757-4.19004-1.78351-6.56177
		c0.04333-3.01724-0.06799-6.03777,0.02087-9.05293c0.07892-2.67973,0.46515-5.34196,0.72314-8.01105
		c0.31616-3.27112,1.45276-6.30915,2.32324-9.42393c0.54108-1.93608,1.15875-3.85493,1.84186-5.74545
		c0.37927-1.04963,0.74341-2.09888,1.03278-3.17493c0.05511-0.20501,0.06653-0.42176,0.0943-0.60735
		c-0.31836-0.20563-0.4884-0.01447-0.59094,0.15622c-0.73224,1.21858-1.79327,2.12406-2.81897,3.07507
		c-0.90021,0.83464-1.71796,1.75783-2.58112,2.63306c-0.27289,0.27676-0.53497,0.606-0.87085,0.77117
		c-1.02606,0.50458-1.80945,1.29039-2.63062,2.0507c-0.69452,0.64304-1.46387,1.20533-2.20111,1.80209
		c-0.78101,0.6322-1.56873,1.25625-2.34314,1.89645c-0.60706,0.50179-1.25189,0.91229-1.99286,1.21317
		c-0.71863,0.29181-1.37067,0.74474-2.06061,1.11059c-1.33911,0.71011-2.74457,1.25457-4.21796,1.61108
		c-0.58502,0.14156-1.01208,0.44759-1.26752,0.99419c-1.30896,2.80157-3.26886,5.19426-4.92676,7.77505
		c-1.41687,2.20564-3.10309,4.23844-4.51575,6.44647c-1.36639,2.13567-3.19507,3.86902-4.7442,5.84155
		c-0.64893,0.82632-1.52362,1.47323-2.27954,2.21812c-2.245,2.21243-4.85321,3.94572-7.52362,5.57088
		c-1.47314,0.89658-3.08539,1.5665-4.64471,2.31825c-0.29596,0.14268-0.63599,0.26036-0.95892,0.2691
		c-1.50427,0.04074-3.0141,0.18437-4.49725-0.25522c-1.23114-0.36494-2.47308-0.66548-3.65704-1.20192
		c-2.10547-0.95398-3.47156-2.57802-4.43823-4.59791c-0.90417-1.88918-1.34753-3.91756-1.5498-5.97968
		c-0.22351-2.27826-0.50049-4.56079-0.35419-6.86214c0.01648-0.25891-0.05786-0.52363-0.08459-0.74079
		c-0.43732-0.16761-0.63531,0.07141-0.79932,0.27798c-1.0769,1.35624-2.14764,2.71766-3.2019,4.09155
		c-1.49652,1.95013-2.97144,3.91685-4.46979,5.86559c-0.27051,0.3518-0.59241,0.66936-0.91943,0.97147
		c-1.14972,1.06191-2.29645,2.12814-3.47736,3.15468c-0.46021,0.39999-0.99738,0.71651-1.51898,1.03954
		c-0.71222,0.44109-1.4585,0.82816-2.16144,1.28293c-0.67407,0.43614-1.39923,0.70786-2.1864,0.79517
		c-0.888,0.0985-1.78485,0.23882-2.67108,0.20107c-1.09052-0.04645-2.08807-0.51057-2.79614-1.34367
		c-0.68207-0.80255-1.37323-1.65857-1.79437-2.60896c-0.88171-1.98982-1.71124-4.02013-2.33939-6.10107
		c-1.02859-3.40751-1.20154-6.897-0.69342-10.44178c0.53333-3.72079,1.43268-7.34692,2.5499-10.92273
		c0.41534-1.32943,0.99207-2.60832,1.49231-3.91137c0.66113-1.72217,1.31836-3.4458,1.97949-5.16797
		c0.14026-0.36533,0.27515-0.73383,0.43781-1.08925c1.5351-3.35326,3.03625-6.72289,4.62915-10.04853
		c0.98926-2.06522,2.13116-4.05688,3.18146-6.09351c0.409-0.79313,0.76239-1.61555,1.12073-2.43356
		c0.05701-0.13007,0.00629-0.30734,0.00494-0.53582c-0.81482-0.08058-1.42139,0.33858-2.0307,0.68832
		c-0.48285,0.27715-0.90417,0.65945-1.37781,0.95506c-0.56415,0.35213-1.15509,0.66125-1.73413,0.98951
		c-1.0705,0.60692-2.07355,1.30042-2.98224,2.14067c-0.61139,0.56536-1.29498,1.05338-1.95325,1.56714
		c-0.57147,0.4461-1.20416,0.82682-1.72009,1.32868c-1.64264,1.59784-3.3725,3.09657-5.06821,4.63448
		c-1.27753,1.15866-2.36374,2.52831-3.53506,3.80407c-0.94284,1.02691-1.92896,2.01779-2.82013,3.08778
		c-2.39554,2.87619-4.81876,5.73358-7.10318,8.69695c-2.48447,3.22292-4.99023,6.43884-7.12671,9.9147
		c-0.76041,1.23705-1.47839,2.50021-2.2424,3.73494c-0.73465,1.18722-1.52393,2.34081-2.25177,3.53203
		c-0.66965,1.09598-1.31964,2.2063-1.92422,3.33917c-0.86755,1.62575-1.65244,3.29604-2.53601,4.91269
		c-0.72202,1.3211-1.54959,2.58403-2.3049,3.88754c-0.36359,0.6274-0.66855,1.28879-0.99994,1.93486
		c-0.28043,0.54689-0.51895,1.12076-0.85019,1.63492c-0.60449,0.93846-1.45877,1.53363-2.60287,1.62767
		c-0.58917,0.0484-0.99454-0.24933-1.04315-0.83479c-0.04102-0.49416-0.06204-1.01929,0.05951-1.49179
		c0.30554-1.18828,0.71295-2.34987,1.0499-3.53059c0.61475-2.15412,1.54578-4.18761,2.35638-6.26708
		c0.04056-0.10404,0.08047-0.20999,0.13593-0.30632c2.31946-4.03058,3.94873-8.39008,5.95084-12.5722
		c1.66241-3.47251,3.49075-6.88367,4.7059-10.56071c0.08734-0.26429,0.1918-0.53206,0.33951-0.76583
		c1.16959-1.85168,1.78387-3.96391,2.78052-5.89604c0.18298-0.35471,0.2731-0.71163-0.04666-1.151
		c-0.21249,0.14733-0.41443,0.23869-0.55093,0.38934c-1.61295,1.77991-3.20511,3.57884-4.82904,5.34859
		c-0.45004,0.49047-0.95795,0.93956-1.48941,1.34138c-1.64929,1.24691-3.33725,2.4428-4.98224,3.69521
		c-1.39026,1.05851-2.88889,1.90587-4.50925,2.55209c-1.24551,0.4967-2.46594,1.05977-3.72479,1.51859
		c-1.67841,0.61179-3.37549,1.17619-5.08121,1.70723c-0.55222,0.17191-1.04474,0.37778-1.43259,0.80764
		c-0.03741,0.04144-0.08179,0.07653-0.11951,0.1177c-2.14993,2.34458-4.35577,4.63038-6.18381,7.26192
		c-2.86954,4.13075-5.84451,8.19808-9.23993,11.91415c-2.07288,2.26863-4.3663,4.34128-7.38208,5.37514
		c-0.4707,0.16138-0.90997,0.4283-1.34399,0.68044c-1.84845,1.0739-3.91403,1.40315-5.97247,1.44016
		c-1.60327,0.02879-3.21176-0.41077-4.72519-1.02089c-0.828-0.33377-1.61411-0.77-2.42899-1.13806
		c-0.88821-0.4012-1.61609-1.00011-2.20654-1.76176c-1.03561-1.33589-1.83884-2.78925-2.3382-4.42107
		c-1.21878-3.98284-1.4328-8.01402-0.69855-12.10403c0.14819-0.82546,0.32141-1.64651,0.46533-2.47266
		c0.04745-0.27258,0.06067-0.55599,0.04715-0.83237c-0.00739-0.15141-0.10315-0.29851-0.15134-0.42692
		c-0.36829-0.13502-0.58121,0.08892-0.75348,0.28881c-0.80148,0.93006-1.58258,1.8777-2.36884,2.8208
		c-0.53519,0.64191-1.00327,1.35609-1.61356,1.91558c-1.23737,1.13447-2.36383,2.35609-3.40933,3.6675
		c-0.37509,0.47049-0.94064,0.78413-1.38712,1.20359c-1.62866,1.53017-3.31564,3.00701-4.84631,4.63061
		c-2.04678,2.17102-4.3504,4.0174-6.74463,5.7674c-0.81192,0.59344-1.66284,1.1333-2.49023,1.70595
		c-0.32104,0.22217-0.6983,0.4128-0.92471,0.71243c-0.60162,0.79619-1.44815,0.99689-2.34964,1.12242
		c-0.82996,0.11557-1.65714,0.25375-2.48932,0.34903c-1.57816,0.18069-3.12918-0.00473-4.63901-0.47063
		c-1.02859-0.31735-1.98013-0.83151-2.68298-1.65489c-0.75858-0.88869-1.44519-1.84279-2.11072-2.80466
		c-0.21262-0.3073-0.34003-0.72516-0.36395-1.10149c-0.06464-1.01901-0.38046-1.96902-0.65131-2.93832
		c-0.63699-2.27925-0.72589-4.63402-0.85074-6.97627c-0.07724-1.44858-0.01682-2.89513,0.15524-4.34969
		c0.20859-1.76284,0.20023-3.55134,0.28159-5.24355c-0.32892-0.27293-0.54541-0.18781-0.66879,0.00237
		c-0.63849,0.98451-1.28177,1.96762-1.87381,2.98019c-1.26834,2.16933-2.39468,4.43085-3.78522,6.51728
		c-1.69974,2.55046-3.31598,5.15992-5.31992,7.5146c-1.49048,1.75131-3.11246,3.36037-4.70215,5.00646
		c-1.73602,1.79759-3.94443,2.70648-6.36942,3.09616c-1.02274,0.16435-1.98041-0.105-2.85422-0.71582
		c-1.56714-1.0955-2.68137-2.45407-3.15222-4.3732c-0.70886-2.88873-1.2417-5.79286-1.28128-8.77131
		c-0.03046-2.2924-0.00165-4.58556-0.02921-6.87804c-0.03632-3.02322,0.15152-6.03226,0.48541-9.03498
		c0.17911-1.61036,0.31598-3.22571,0.51636-4.83326c0.10342-0.82941,0.3111-1.6455,0.45651-2.47027
		c0.04517-0.25603,0.15271-0.54968-0.20462-0.73677c-0.77832,0.72233-1.34488,1.59114-1.74484,2.57387
		c-0.46439,1.14096-1.05457,2.21355-1.65854,3.28766c-1.12247,1.99641-2.13156,4.05619-3.22495,6.06943
		c-0.63892,1.17644-1.36893,2.30312-2.02411,3.47115c-1.39417,2.4856-3.18427,4.73515-4.37064,7.34389
		c-0.04623,0.10178-0.08722,0.20862-0.14993,0.29984c-1.99094,2.89581-3.41547,6.16305-5.79688,8.80533
		c-0.4838,0.53685-0.86157,1.16881-1.29346,1.75304c-0.73816,0.99855-1.57812,1.87987-2.70358,2.46147
		c-0.4447,0.22981-0.86813,0.51489-1.26392,0.82277c-1.47272,1.14565-3.07672,1.2164-4.754,0.58992
		c-1.42728-0.53313-2.72424-1.33192-3.87054-2.31209c-0.9028-0.77199-1.40472-1.88951-1.76901-3.00359
		c-0.87195-2.66653-1.51251-5.38025-1.41406-8.22424c0.0928-2.68108,0.16766-5.36371,0.1875-8.04614
		c0.02869-3.87672,0.6619-7.67211,1.41858-11.45568c0.1832-0.9162,0.34009-1.83769,0.50717-2.74638
		c-0.45856-0.13359-0.60437,0.1318-0.72473,0.36158c-0.36304,0.69292-0.69104,1.4041-1.04672,2.10102
		c-1.54996,3.03722-3.0813,6.08421-4.66568,9.1034c-1.19409,2.27545-2.30389,4.61747-3.72806,6.74453
		c-2.08054,3.10742-3.86972,6.42698-6.32764,9.26714c-1.97046,2.27706-3.90143,4.61221-6.40622,6.36034
		c-0.27402,0.19125-0.55609,0.39297-0.76984,0.64473c-0.97415,1.14774-2.26843,1.76633-3.61368,2.35837
		c-1.85721,0.81729-3.63492,0.50006-5.33521-0.31427c-1.78134-0.85312-3.25858-2.14664-4.50906-3.68257
		c-0.17542-0.21539-0.35074-0.44328-0.4664-0.69301c-1.34186-2.8969-2.57864-5.83494-2.98581-9.03517
		c-0.14774-1.16149-0.1925-2.34038-0.21439-3.51264c-0.03439-1.84488-0.05124-3.69218,0.00739-5.53584
		c0.02991-0.94271,0.21875-1.88316,0.37241-2.8186c0.50711-3.08775,0.98502-6.18141,1.56439-9.2558
		c0.39282-2.08439,0.93134-4.14161,1.4162-6.20828c0.293-1.24891,0.58191-2.49976,0.91873-3.73718
		c0.74869-2.7505,1.52567-5.4933,2.29349-8.23855c0.06018-0.21518,0.12924-0.42891,0.21082-0.63681
		c0.77667-1.97816,1.40259-4.00712,2.08112-6.01905c0.83871-2.48684,1.8952-4.90011,2.85336-7.34682
		c0.59082-1.5088,1.15619-3.02781,1.76831-4.52784c0.2514-0.61596,0.60992-1.18729,0.89523-1.79052
		c0.76431-1.61587,1.48764-3.25163,2.27707-4.85497c1.87589-3.80995,3.77325-7.60946,5.67688-11.40568
		c0.92651-1.84768,1.86276-3.6914,2.84369-5.51048c0.36893-0.68411,0.95871-1.25209,1.30698-1.94388
		c1.5025-2.98452,3.95099-5.07242,6.45663-7.16129c1.70053-1.41771,3.58362-1.99975,5.71283-1.99023
		c1.45282,0.00649,2.90555,0.13295,4.35779,0.12318c1.1123-0.00747,2.25394-0.01204,3.32785-0.2573
		c1.285-0.29354,2.54855-0.29731,3.82751-0.18438c1.89145,0.16701,3.79202,0.29957,5.66403,0.60026
		c2.2038,0.35395,4.38297,0.86373,6.56906,1.32354c0.66367,0.13958,1.26422,0.43308,1.784,0.8855
		c0.48566,0.42271,0.60217,0.77779,0.25769,1.31449c-0.81445,1.26898-1.65292,2.52366-2.51877,3.75814
		c-0.48044,0.68501-1.00363,1.34628-1.56335,1.96807c-1.1019,1.22411-2.36353,1.92315-4.14462,1.59819
		c-2.36136-0.43084-4.75659-0.68449-7.14252-0.97013c-2.00482-0.23998-4.00027-0.21558-6.01474,0.09314
		c-1.42462,0.21828-2.89517,0.15852-4.34586,0.1787c-1.50867,0.02095-3.01816-0.00667-4.52716-0.02211
		c-0.69473-0.00711-1.32556,0.14897-1.86902,0.60801c-0.72577,0.613-1.49814,1.17628-2.17896,1.83488
		c-0.38959,0.37687-0.69876,0.87051-0.93869,1.36294c-1.46857,3.01462-2.83087,6.08365-4.38181,9.05457
		c-1.06039,2.03135-2.1312,4.05635-3.09509,6.1338c-0.86874,1.87241-1.66235,3.77978-2.48193,5.6748
		c-0.28775,0.6652-0.55869,1.3378-0.82956,2.01015c-0.85556,2.12386-1.78928,4.22088-2.53787,6.38195
		c-0.75043,2.1664-1.50723,4.32689-2.3826,6.44564c-0.10675,0.25834-0.23535,0.51125-0.30945,0.77897
		c-0.74496,2.69216-1.48041,5.38691-2.21915,8.0808c-0.13269,0.48394-0.22986,0.9819-0.40909,1.44813
		c-0.96875,2.51998-1.5018,5.14608-1.95453,7.79475c-0.39542,2.31336-0.83929,4.61871-1.2113,6.9357
		c-0.51718,3.22154-0.62683,6.45777,0.00006,9.67489c0.38492,1.97499,0.91785,3.92281,1.72366,5.7743
		c0.80457,1.84846,2.11496,3.2685,3.85934,4.28669c0.69418,0.40518,1.3735,0.42599,2.04803-0.0349
		c0.18448-0.12602,0.37433-0.24651,0.54636-0.38813c1.20395-0.99081,2.33185-2.07838,3.70956-2.84644
		c0.23691-0.13206,0.43222-0.35621,0.61462-0.56581c1.83374-2.10699,3.66272-4.21807,5.48685-6.33339
		c0.21844-0.25334,0.4205-0.526,0.59473-0.8113c1.10654-1.8119,2.16104-3.65509,3.54559-5.28442
		c0.35547-0.41833,0.57001-0.95849,0.83722-1.44926c0.64148-1.17844,1.27451-2.36144,1.91339-3.54125
		c0.95752-1.76849,1.94388-3.52197,2.86963-5.30693c1.38901-2.67844,2.71469-5.38982,4.11325-8.06315
		c0.46448-0.88786,1.03326-1.72852,1.62146-2.5423c0.69153-0.95673,1.26501-1.96924,1.78738-3.02578
		c0.66779-1.35062,1.41891-2.65993,2.12927-3.98968c0.31601-0.59163,0.65433-1.1746,0.92398-1.78728
		c1.57596-3.58064,3.15933-7.1584,4.69061-10.75822c1.02704-2.41447,1.97235-4.8637,2.95316-7.29785
		c0.08365-0.20741,0.17709-0.41321,0.23553-0.62805c0.63315-2.32864,1.62286-4.52358,2.56091-6.73445
		c0.54303-1.27991,1.20895-2.50838,1.83926-3.75003c0.15033-0.2962,0.38083-0.55139,0.57159-0.82743
		c0.36389-0.52645,0.85507-0.70297,1.46103-0.50583c0.79523,0.25871,1.61337,0.47344,2.36813,0.82268
		c0.77878,0.36036,1.02524,0.97033,0.85812,1.80209c-0.09869,0.49184-0.22794,0.98407-0.4064,1.45213
		c-0.49725,1.30446-1.03189,2.5946-1.54233,3.89415c-0.22479,0.57221-0.4809,1.13995-0.62839,1.73318
		c-0.38019,1.52843-1.04239,2.94396-1.63354,4.39186c-0.86575,2.12015-1.66373,4.26795-2.49323,6.40295
		c-0.4649,1.1964-0.95453,2.38354-1.39899,3.58742c-0.79358,2.1495-1.51678,4.32598-2.35321,6.45834
		c-0.75681,1.92933-1.23621,3.94055-1.8876,5.89465c-0.95682,2.87038-1.56775,5.82709-2.4368,8.71671
		c-0.51382,1.70877-0.82547,3.4798-1.19836,5.22916c-0.63037,2.95675-0.91086,5.95497-1.14322,8.9676
		c-0.20242,2.62467-0.33316,5.23951-0.22089,7.87006c0.07962,1.86541,0.58212,3.63324,1.11081,5.4008
		c0.19778,0.66133,0.61636,1.17732,1.05869,1.6902c1.51477,1.75638,2.47644,1.63928,4.40057,0.05554
		c1.7056-2.47858,4.08868-4.44721,5.3573-7.26751c0.42825-0.952,1.15256-1.77842,1.78867-2.62693
		c0.50742-0.67683,0.91727-1.39027,1.25699-2.16634c0.31088-0.71017,0.7179-1.38543,1.14175-2.03761
		c0.88232-1.35751,1.85843-2.65646,2.69736-4.03933c1.47757-2.43562,3.08954-4.80374,4.23648-7.42092
		c0.92523-2.11128,2.21487-4.00836,3.30453-6.02135c0.90372-1.66957,1.79129-3.34794,2.6767-5.02731
		c0.99069-1.87898,2.01163-3.74358,2.94479-5.65092c1.0314-2.10812,1.93759-4.27765,2.97714-6.38147
		c0.61694-1.2485,1.33926-2.45235,2.10056-3.62c0.70694-1.08431,1.28879-2.20778,1.75638-3.41762
		c1.12814-2.9188,2.33731-5.80624,3.50354-8.7104c0.72842-1.81403,1.45471-3.62922,2.15155-5.45549
		c0.67737-1.77531,1.28043-3.57956,1.98337-5.3443c0.51648-1.29673,1.18707-2.53191,1.70706-3.82738
		c0.74936-1.86671,1.39545-3.7748,2.13803-5.64438c1.19662-3.0128,2.39041-6.02829,3.67487-9.00402
		c0.72882-1.68848,1.57126-3.33674,2.48053-4.936c0.90826-1.59742,1.96075-3.11301,2.95676-4.66012
		c0.23282-0.36167,0.59293-0.55923,1.00653-0.43578c0.90698,0.27068,1.82053,0.5424,2.68796,0.91484
		c0.67331,0.28909,0.8139,0.66013,0.6597,1.35271c-0.29135,1.30865-0.57761,2.61679-1.20914,3.82614
		c-0.30829,0.59039-0.52878,1.23505-0.72296,1.87516c-0.73322,2.41619-1.9837,4.62354-2.81296,6.99632
		c-0.84903,2.42924-1.7944,4.81179-2.89944,7.13664c-0.3811,0.80188-0.54565,1.70385-0.88229,2.53033
		c-0.63239,1.55271-1.30396,3.09-1.98459,4.62242c-1.20236,2.70703-2.41049,5.41169-3.6445,8.10437
		c-0.41858,0.91327-0.94632,1.77596-1.38248,2.68184c-0.75095,1.55959-1.46902,3.13498-2.20114,4.70363
		c-1.56332,3.34948-2.59805,6.90059-3.91486,10.34423c-0.85538,2.23705-1.6185,4.51973-2.22238,6.84803
		c-0.68671,2.64768-1.46088,5.27351-2.10287,7.93156c-0.39258,1.62529-0.61273,3.2925-0.90039,4.94259
		c-0.08636,0.49525-0.12164,0.99951-0.21063,1.49418c-0.44574,2.47753-0.59726,4.98706-0.87332,7.48331
		c-0.37674,3.40578-0.15927,6.814-0.31723,10.2181c-0.10034,2.1634,0.18863,4.35211,0.4028,6.51965
		c0.09781,0.99077,0.33768,1.99461,0.68686,2.92753c0.62909,1.68076,1.21295,2.20567,2.97079,0.95473
		c0.31818-0.22646,0.61087-0.48945,0.90942-0.74262c0.89432-0.75845,1.79623-1.50849,2.67392-2.28577
		c0.4595-0.40691,0.931-0.82111,1.29968-1.30611c1.41821-1.86553,3.10782-3.51354,4.31772-5.55046
		c0.68176-1.14771,1.6239-2.14057,2.30789-3.2872c1.83151-3.07022,3.89758-5.99811,5.54184-9.18253
		c0.56348-1.09134,1.28412-2.10008,1.84317-3.19532c1.52826-2.9941,10.21762-15.90875,12.00409-18.67825
		c1.05826-1.64055,2.2681-3.18311,3.40469-4.77338c1.04727-1.4653,2.33563-2.7033,3.66049-3.90786
		c0.28961-0.26328,0.6077-0.50218,0.86176-0.79633c1.54877-1.79333,3.48074-3.15001,5.32071-4.59879
		c0.99921-0.78679,2.17212-1.36864,3.31076-1.95776c0.94104-0.48687,1.94113-0.8626,2.92523-1.26247
		c1.34775-0.54761,2.69244-0.59315,4.0813-0.06348c1.31201,0.50038,2.56866,1.04161,3.68967,1.93099
		c1.04645,0.83023,2.22552,1.49215,3.33691,2.24195C423.67343,65.22041,424.52078,65.94125,425.38986,66.83434z
		 M454.17947,107.53156c-0.68643-0.69604-1.52084-0.87479-2.31189-1.097c-1.20917-0.3397-2.22537-1.00415-3.24808-1.69707
		c-0.98361-0.66647-1.19827-1.55736-0.97144-2.62864c0.0686-0.32401,0.21115-0.63396,0.33459-0.94449
		c0.91022-2.29028,2.1799-4.40192,3.28406-6.59588c0.04996-0.09924,0.11581-0.19104,0.17944-0.28272
		c0.24408-0.35168,0.56009-0.53366,1.00201-0.42673c0.86835,0.21013,1.73157,0.41962,2.53381,0.84499
		c0.8381,0.44437,1.68604,0.88454,2.5683,1.22694c0.7746,0.30066,1.59009,0.55119,2.40976,0.66862
		c1.64722,0.23605,1.9726-0.00066,2.28961-1.62647c0.34186-1.75292,0.66873-3.51371,0.88248-5.28548
		c0.28067-2.32639,0.55365-4.65407,0.52371-7.01219c-0.03122-2.46002-0.67697-4.738-1.69675-6.94253
		c-0.35956-0.77716-0.86038-1.42625-1.53366-1.95792c-0.48071-0.37964-1.01447-0.73843-1.37088-1.22021
		c-0.92764-1.25381-2.10168-1.8599-3.66977-1.99998c-1.03146-0.09211-1.99271-0.0788-2.96231,0.24441
		c-1.60098,0.53369-3.06467,1.33008-4.48956,2.22905c-1.57391,0.99297-2.89276,2.28922-4.25815,3.51685
		c-1.89795,1.70642-3.98837,3.2625-5.17557,5.63293c-0.04852,0.09692-0.15015,0.1657-0.2142,0.25663
		c-1.15802,1.64304-2.33243,3.27496-3.46298,4.93671c-0.59641,0.87669-2.88531,5.60082-3.17969,6.3679
		c-0.87958,2.29184-1.79492,4.58651-2.42816,6.95185c-0.69083,2.58035-1.23969,5.20249-1.60559,7.86817
		c-0.44159,3.2169-0.16806,6.34358,0.59955,9.4556c0.44177,1.79102,1.4393,3.32123,2.80539,4.4828
		c2.15451,1.83202,4.69778,1.95647,7.26123,0.97671c1.45279-0.55524,2.81958-1.33577,4.22363-2.01781
		c0.15039-0.07306,0.29968-0.15425,0.43463-0.25214c1.44989-1.05176,2.87097-2.15053,4.03522-3.51562
		C448.56323,115.81876,453.91489,108.43564,454.17947,107.53156z M582.42279,79.98201
		c-0.00262-0.44673,0.00616-0.89386-0.00989-1.3401c-0.06079-1.6875-0.37585-3.32862-0.95197-4.91522
		c-0.63928-1.76033-2.19214-2.60542-3.63116-3.55235c-0.16949-0.1115-0.43463-0.07509-0.65436-0.11333
		c-0.32904-0.05727-0.66083-0.10465-0.98492-0.18309c-1.12457-0.27221-2.25916-0.19148-3.3017,0.21457
		c-2.33209,0.90831-4.73688,1.69479-6.68835,3.37645c-0.28741,0.24766-0.67352,0.39041-1.02899,0.54756
		c-1.047,0.46277-1.8822,1.17597-2.59821,2.06131c-0.70068,0.86636-1.50751,1.65276-2.1532,2.55617
		c-0.77441,1.08344-1.68457,2.06995-2.2359,3.32346c-0.4245,0.96505-0.98822,1.88442-1.59583,2.74981
		c-0.99945,1.42352-1.83002,2.93848-2.60394,4.48579c-0.84863,1.69666-1.62708,3.42829-2.46552,5.13017
		c-1.11444,2.26206-2.02942,4.59343-2.61078,7.05249c-0.15399,0.65157-0.35675,1.29274-0.56042,1.93127
		c-0.89142,2.79531-1.29291,5.65711-1.16821,8.58865c0.03082,0.72469,0.17291,1.44874,0.15466,2.17031
		c-0.0202,0.80161,0.12518,1.55096,0.38623,2.29588c0.11011,0.31436,0.21704,0.64068,0.25006,0.96918
		c0.10925,1.08682,0.59003,2.02722,1.09912,2.96141c1.20349,2.20834,4.65594,3.90259,7.01434,3.23494
		c1.01801-0.28819,2.01556-0.64818,3.02429-0.96967c1.07593-0.34291,2.08081-0.78987,2.87518-1.64359
		c0.29846-0.32083,0.69299-0.56979,1.07953-0.78819c1.56274-0.88313,4.55334-4.40517,7.00824-7.15224
		c1.89307-2.13445,3.49377-4.49203,5.12817-6.82202c0.24976-0.35604,0.42047-0.78516,0.54626-1.20492
		c0.10303-0.34373-0.04675-0.69231-0.39917-0.82728c-0.51917-0.1988-1.05524-0.36678-1.59717-0.49059
		c-2.53137-0.57837-4.55469-2.06662-6.52014-3.64382c-0.82458-0.6617-1.03082-1.59543-0.73108-2.58238
		c0.40796-1.34298,1.01691-2.59984,1.87097-3.72569c0.33325-0.4393,1.51862-1.91778,2.27112-2.31348
		c0.97614-0.51331,3.36377,0.91687,4.3244,1.48339c1.21515,0.71663,2.52716,0.7426,3.8988,0.53636
		c0.89844-0.13506,1.41101-0.50748,1.60944-1.40654c0.25238-1.14355,0.55591-2.27763,0.88245-3.40269
		C582.17029,85.76552,582.58234,82.90865,582.42279,79.98201z"/>
	<path class="st2" d="M677.73468,36.33687c0.091,2.41522-0.65753,4.45618-1.87781,6.40232
		c-0.91547,1.46-2.1286,2.53925-3.48816,3.55022c-1.74536,1.29788-3.39038,2.73059-5.08002,4.10348
		c-0.30334,0.24644-0.60974,0.48944-0.92139,0.72517c-0.70117,0.53043-1.49078,0.74123-2.36487,0.64057
		c-0.88696-0.10216-1.77679-0.16809-2.61005-0.55112c-0.34967-0.16073-0.73834-0.26509-1.12018-0.32135
		c-0.76746-0.11312-1.33429-0.51077-1.8205-1.09009c-0.97192-1.15818-1.52911-2.48071-1.47327-3.9928
		c0.039-1.05658,0.17651-2.11573,0.35449-3.15934c0.20081-1.1777,0.78711-2.21039,1.48779-3.15784
		c0.6297-0.85146,1.31476-1.66513,2.0152-2.46042c1.18066-1.34062,2.34027-2.70642,3.60516-3.96468
		c1.59125-1.58279,3.34937-2.95416,5.56244-3.61041c0.42352-0.1256,0.82843-0.33611,1.21747-0.5516
		c0.88-0.48744,1.69269-0.3517,2.52692,0.14008c2.6333,1.5524,3.95953,3.84516,3.98438,6.89706
		C677.73364,36.10366,677.73431,36.27121,677.73468,36.33687z"/>
</g>
</svg>
