<?xml version="1.0" encoding="utf-8"?>
<!-- Generator: Adobe Illustrator 25.4.1, SVG Export Plug-In . SVG Version: 6.00 Build 0)  -->
<svg version="1.1" id="Layer_1" xmlns="http://www.w3.org/2000/svg" xmlns:xlink="http://www.w3.org/1999/xlink" x="0px" y="0px"
	 viewBox="0 0 362.98102 188.99892" style="enable-background:new 0 0 362.98102 188.99892;" xml:space="preserve">
<style type="text/css">
	.st0{fill:#EFEDE5;}
	.st1{fill:#B48039;}
	.st2{fill:#AD8246;}
	.st3{fill:none;stroke:#B48039;stroke-width:0.99892;stroke-miterlimit:10;}
</style>
<g id="Bittercube-Flavors-03_1_00000021108855980383184070000008103096659125633962_">
	<g>
		<path class="st1" d="M310.63263,111.8176c-0.24899,0.12923-0.4173,0.17101-0.51971,0.27664
			c-1.22708,1.26572-2.57996,2.44006-3.62384,3.84364c-0.93225,1.25348-2.03369,2.26653-3.17755,3.28625
			c-0.76767,0.68437-1.38013,1.53957-2.10999,2.27042c-0.92841,0.92964-1.92368,1.79246-2.85336,2.72087
			c-0.4469,0.44627-0.78696,0.99779-1.21725,1.46295c-0.35742,0.38642-0.75842,0.73831-1.1709,1.0669
			c-1.22479,0.97577-2.45337,1.94764-3.70392,2.88987c-0.57736,0.435-1.21921,0.78333-1.81448,1.19595
			c-1.18997,0.82494-2.36835,1.66663-3.55087,2.5023c-0.91235,0.64471-1.26053,1.68553-1.7818,2.59491
			c-0.8981,1.56677-1.66974,3.20897-2.61719,4.74374c-1.06473,1.72484-2.22897,3.39211-3.41772,5.0354
			c-1.09311,1.51109-2.26013,2.96997-3.42563,4.42703c-0.72986,0.91245-1.52457,1.77271-2.27661,2.66776
			c-0.89529,1.06548-1.73495,2.18108-2.67789,3.20186c-0.60315,0.65298-1.35709,1.1651-2.02887,1.75691
			c-0.41534,0.36591-0.80139,0.76495-1.20413,1.14536c-0.50534,0.47726-0.97714,1.00012-1.52954,1.41539
			c-1.13708,0.85489-2.29385,1.68881-3.48761,2.46172c-1.28534,0.83218-2.58447,1.65921-3.94766,2.35028
			c-1.29153,0.65474-2.67319,1.13194-4.01718,1.68242c-0.12807,0.05246-0.26843,0.09009-0.40591,0.10197
			c-1.51382,0.13083-2.96338,0.55798-4.43382,0.90567c-1.26501,0.29912-2.55896,0.45409-3.87979,0.42865
			c-1.02582-0.01974-2.05667,0.14713-3.08311,0.25227c-1.79655,0.18402-3.57565-0.02779-5.35558-0.21646
			c-0.69603-0.07376-1.39165-0.16338-2.08105-0.28265c-0.38045-0.06581-0.74289-0.23068-1.12192-0.31085
			c-0.65401-0.13831-1.31079-0.31566-1.97322-0.3517c-1.64592-0.08954-3.17989-0.57048-4.68585-1.18678
			c-0.15515-0.06349-0.31184-0.14154-0.47472-0.1651c-2.21315-0.32018-4.23561-1.25601-6.32544-1.96895
			c-0.78719-0.26852-1.53076-0.66458-2.29535-0.99991c-0.48409-0.2123-0.97269-0.41443-1.45512-0.63039
			c-1.76787-0.79134-3.35847-1.84433-4.7318-3.21695c-0.65155-0.65123-1.2852-1.3223-1.96419-1.9437
			c-0.90796-0.83095-1.7762-1.67218-2.28961-2.8316c-0.18654-0.42123-0.58286-0.7446-0.84457-1.13844
			c-0.87245-1.3129-1.51846-2.7356-1.95268-4.24919c-0.22867-0.79709-0.07399-1.54597,0.39636-2.23389
			c0.12431-0.18182,0.24373-0.38321,0.29935-0.59311c0.31042-1.17169,0.81931-2.26006,1.44826-3.28273
			c0.35966-0.58482,0.83524-1.10268,1.29028-1.623c0.30931-0.35368,0.67052-0.66257,1.01411-0.9855
			c0.28084-0.26396,0.59016-0.41232,0.99179-0.26239c0.36659,0.13686,0.76614,0.20148,1.1098,0.37834
			c0.25273,0.13008,0.51422,0.35121,0.64098,0.59875c0.46936,0.91678,0.78561,1.92578,1.34271,2.78069
			c0.88255,1.35437,1.895,2.6265,2.89732,3.89809c0.1694,0.21492,0.56396,0.25238,0.90678,0.39334
			c0.87808,1.83598,2.28084,3.22681,4.22499,4.09537c0.86638,0.38705,1.66409,0.92731,2.52917,1.31787
			c1.06943,0.4828,2.17784,0.87885,3.26671,1.31905c0.56918,0.2301,1.12915,0.48317,1.69992,0.70912
			c0.33717,0.13347,0.68507,0.24146,1.03198,0.34845c1.33398,0.41139,2.6581,0.86172,4.00806,1.21213
			c1.08055,0.28047,2.19263,0.44038,3.29189,0.64755c0.52113,0.09824,1.05511,0.14366,1.56604,0.2784
			c3.33125,0.87843,6.69341,0.91121,10.08015,0.41698c0.33134-0.04836,0.67038-0.08577,1.00365-0.0726
			c2.07686,0.08202,4.04861-0.48003,6.03395-0.96198c0.16287-0.03954,0.32584-0.13823,0.48389-0.12863
			c1.45679,0.08844,2.6257-0.68431,3.86401-1.25804c0.30093-0.13943,0.625-0.27797,0.94888-0.30945
			c0.85886-0.08348,1.51288-0.52943,2.1095-1.0898c1.1546-1.0844,2.59421-1.74356,3.88019-2.63091
			c0.77783-0.53671,1.53-1.11208,2.27655-1.69212c0.46295-0.35971,0.85666-0.81863,1.34592-1.13252
			c1.56812-1.006,2.35831-2.65466,3.4436-4.05913c0.2551-0.33012,0.45844-0.70273,0.73053-1.01685
			c1.16721-1.34737,1.86362-2.9577,2.68512-4.51472c0.94559-1.79227,1.72372-3.64287,2.40326-5.53336
			c0.87811-2.44307,1.77234-4.87331,2.841-7.24255c0.39774-0.88181,0.5629-1.86792,0.84213-2.80407
			c0.15189-0.50923,0.26254-1.04158,0.49185-1.51501c0.97037-2.00344,1.46933-4.15821,2.07248-6.27986
			c0.05038-0.17728,0.02335-0.37592,0.0383-0.56415c0.01205-0.1516-0.00116-0.31721,0.05621-0.45119
			c0.29272-0.68369,0.67438-1.33717,0.89642-2.04172c0.57123-1.81239,1.04343-3.65207,1.79526-5.4096
			c0.56985-1.33213,1.00839-2.72089,1.49036-4.08976c0.09003-0.25566,0.10889-0.53638,0.18378-0.92636
			c-0.2428,0.09443-0.47421,0.11993-0.49783,0.20387c-0.17764,0.6314-0.73083,0.96162-1.09775,1.43774
			c-2.07602,2.69405-4.15036,5.38937-6.22821,8.08202c-0.56036,0.72614-1.01276,1.6048-1.7243,2.12882
			c-1.0722,0.7896-1.62723,1.96809-2.53433,2.87262c-0.79614,0.79388-1.34485,1.83045-2.05066,2.72197
			c-0.62125,0.78469-1.28937,1.53491-1.97131,2.26824c-1.06,1.13985-2.14722,2.2545-3.22888,3.37403
			c-0.13403,0.13872-0.29813,0.25178-0.4595,0.36006c-0.7204,0.4834-1.32767,1.06367-1.9248,1.70924
			c-0.67657,0.73145-1.65778,1.18389-2.51596,1.74322c-0.32327,0.21069-0.74063,0.31523-0.99857,0.58118
			c-1.02481,1.05664-2.32913,1.51265-3.70248,1.84703c-0.2988,0.07275-0.62799,0.07605-0.89703,0.20653
			c-1.54831,0.75107-3.02942,0.25351-4.47397-0.27895c-0.4599-0.16951-0.80469-0.66661-1.18524-1.03143
			c-0.32178-0.3085-0.60887-0.65308-0.92915-0.96324c-0.96272-0.93233-1.73012-1.92465-1.84134-3.36708
			c-0.10043-1.30216-0.48044-2.58079-0.6266-3.88219c-0.07925-0.70577,0.01778-1.44634,0.13354-2.15517
			c0.14087-0.8626,0.09767-1.7024,0.0159-2.60992c-0.49139,1.0948-1.28703,1.89352-1.40143,2.40224
			c-0.05815,0.2586-0.17549,0.58483-0.3745,0.71587c-0.63931,0.42103-1.05215,1.0422-1.54036,1.59411
			c-0.33044,0.37355-0.64897,0.77469-0.88608,1.21066c-0.84634,1.55625-1.76634,3.04797-3.16356,4.18671
			c-0.17088,0.13927-0.34467,0.31085-0.43631,0.50549c-0.51427,1.09224-1.5508,1.56978-2.48824,2.16942
			c-1.49852,0.95854-3.13588,1.19933-4.8241,0.76247c-0.79152-0.20483-1.58476-0.58818-2.2477-1.06917
			c-1.80702-1.31099-3.63541-2.61118-5.14156-4.28578c-0.42943-0.47745-0.77011-1.03864-1.22122-1.49205
			c-2.25484-2.26627-3.35756-5.13079-4.09312-8.1319c-0.39604-1.61575-0.45972-3.31577-0.63544-4.98176
			c-0.12842-1.21743-0.16519-2.44464-0.29846-3.66139c-0.10745-0.98098-0.0545-1.92612,0.1853-2.88938
			c0.35106-1.41,0.53082-2.86536,0.92691-4.2607c0.42444-1.49516,0.70065-3.04267,1.46584-4.43816
			c0.31636-0.5769,0.39621-1.27847,0.66571-1.88699c1.00502-2.26912,1.47072-4.75659,2.79643-6.89464
			c0.05878-0.09477,0.142-0.19711,0.14684-0.29911c0.0504-1.06264,0.61577-1.87939,1.22945-2.68504
			c0.16399-0.21529,0.32642-0.50417,0.32579-0.75887c-0.00188-0.76308,0.46385-1.27728,0.81163-1.88119
			c0.76497-1.32838,1.39787-2.73294,2.16541-4.05971c1.11789-1.9324,2.31737-3.81744,3.46007-5.73576
			c0.42851-0.71938,0.77744-1.4858,1.19508-2.21213c0.54305-0.94445,1.12131-1.86861,1.67667-2.80608
			c0.07936-0.13397,0.11536-0.29367,0.23378-0.60584c-0.91534,0.21523-1.6436,0.53319-2.3315,0.91333
			c-0.70004,0.38684-1.39658,0.77141-1.99438,1.34964c-0.41898,0.40528-1.0712,0.56075-1.5937,0.87085
			c-0.32977,0.19572-0.60954,0.4746-0.91679,0.70956c-1.01727,0.77797-2.01971,1.57684-3.05986,2.32304
			c-1.32086,0.94759-2.58072,1.95457-3.63879,3.19991c-0.2691,0.31677-0.59727,0.58327-0.89729,0.87389
			c-1.38142,1.33816-2.76851,2.67062-4.1375,4.0214c-0.21402,0.21116-0.33582,0.51315-0.51672,0.76112
			c-0.26234,0.35957-0.51907,0.72651-0.81415,1.05833c-1.44724,1.62757-2.91922,3.2333-4.3558,4.87014
			c-0.69839,0.79572-1.36334,1.62404-1.99727,2.47212c-0.5332,0.71334-1.05727,1.44524-1.4819,2.22527
			c-0.62383,1.14592-1.60823,2.00444-2.31616,3.07114c-0.64568,0.9729-1.15793,2.03361-1.78783,3.01795
			c-0.66153,1.03379-1.32547,2.07993-2.11505,3.01351c-0.64227,0.75942-1.1291,1.56453-1.57027,2.45052
			c-0.70738,1.42065-1.60391,2.74573-2.36655,4.14068c-0.68257,1.24847-1.27399,2.54652-1.94234,3.80317
			c-0.29994,0.56388-0.65604,1.10593-1.04689,1.61134c-0.47043,0.60837-0.78961,1.25613-1.00713,2.00255
			c-0.32744,1.12367-0.79164,2.20755-1.2003,3.30737c-0.03874,0.1043-0.11963,0.19706-0.14082,0.30318
			c-0.36343,1.81878-1.4955,3.28987-2.21606,4.94522c-0.50124,1.15144-1.36476,2.02513-2.05605,3.02924
			c-0.56985,0.82777-1.18112,1.62746-1.78671,2.43005c-0.65607,0.86946-1.3381,1.71947-1.98669,2.59438
			c-0.35109,0.47363-0.81773,0.57195-1.33955,0.47182c-0.49696-0.09538-0.70776-0.47153-0.84828-0.93752
			c-0.36903-1.2238-0.45085-2.39537-0.16524-3.69955c0.35881-1.63835,1.17358-3.07533,1.65126-4.65243
			c0.49263-1.62649,1.30017-3.15871,1.77606-4.78878c0.36476-1.2494,1.06041-2.32504,1.49727-3.52499
			c0.3923-1.07763,0.83592-2.13705,1.21059-3.22053c0.94952-2.7459,1.74835-5.5521,2.85155-8.23376
			c0.71817-1.74577,1.1702-3.55076,1.76208-5.32235c0.16783-0.5023,0.43906-0.96915,0.63699-1.46262
			c0.12933-0.32236,0.21208-0.66339,0.31569-0.99605c-0.05325-0.02648-0.10651-0.05296-0.15976-0.07944
			c-0.2554,0.28016-0.5641,0.528-0.757,0.84606c-0.8403,1.38539-1.65298,2.7877-2.46307,4.19115
			c-0.37651,0.65227-0.69635,1.33866-1.09668,1.97512c-0.2,0.31795-0.58607,0.52063-0.77858,0.84117
			c-0.51671,0.86037-1.06306,1.72092-1.4317,2.64742c-0.40283,1.01255-1.09213,1.81129-1.68224,2.68502
			c-0.43729,0.64745-0.9382,1.25185-1.40901,1.87678c-0.8237,1.09334-1.65999,2.17754-2.46498,3.28452
			c-0.79904,1.09887-1.55591,2.22837-2.35008,3.33089c-0.68452,0.95026-1.40648,1.87356-2.09213,2.82304
			c-0.93169,1.29021-1.82388,2.60939-2.77234,3.88695c-0.71231,0.95953-1.49931,1.86327-2.2283,2.8109
			c-0.42215,0.54877-0.75523,1.16967-1.2045,1.69275c-0.29996,0.34926-0.74184,0.57381-1.10568,0.87189
			c-0.3844,0.31491-0.77281,0.62981-1.12189,0.98196c-0.72908,0.73557-1.42929,1.49963-2.15219,2.24144
			c-0.11246,0.11543-0.27267,0.2012-0.42667,0.25642c-0.79065,0.28354-1.58185,0.56711-2.38165,0.82312
			c-1.0705,0.34265-2.05663,0.12514-3.08517-0.31827c-1.84074-0.79353-2.87361-2.1407-3.21817-4.07422
			c-0.01961-0.11018-0.01788-0.23909-0.07634-0.32518c-0.78984-1.16315-0.45316-2.57534-0.84686-3.83239
			c-0.19666-0.62787-0.22867-1.3309-0.21135-1.99673c0.02678-1.0317,0.16057-2.06057,0.24704-3.0908
			c0.08388-0.99958,0.15298-2.0006,0.25438-2.99837c0.03596-0.35416,0.16129-0.69826,0.22273-1.05096
			c0.23972-1.37665,0.4735-2.75436,0.70276-4.13279c0.12825-0.77129,0.22644-1.54787,0.36749-2.3167
			c0.3611-1.96844,0.72774-3.93604,1.118-5.89884c0.08659-0.43553,0.29002-0.84673,0.42012-1.27509
			c0.0864-0.28449,0.13794-0.57957,0.20509-0.8699c-0.06149-0.03854-0.123-0.07706-0.18451-0.11559
			c-0.19382,0.22878-0.43103,0.43345-0.57381,0.69059c-0.58406,1.05168-1.1098,2.13661-1.71548,3.17519
			c-0.40524,0.69487-0.90654,1.33404-1.36929,1.99503c-1.00632,1.43742-2.01743,2.87148-3.02278,4.30958
			c-0.68736,0.98324-1.37184,1.96854-2.0511,2.95737c-1.12387,1.63602-2.24286,3.27537-3.3631,4.91384
			c-0.28232,0.41291-0.56467,0.82586-0.84155,1.24239c-0.72639,1.09269-1.44678,2.18937-2.17686,3.27956
			c-0.15393,0.22987-0.33234,0.44455-0.51117,0.65635c-0.95338,1.12915-1.89035,2.27312-2.87328,3.37605
			c-0.68384,0.76737-1.42702,1.48248-2.15457,2.21006c-0.41531,0.41534-0.88954,0.77663-1.27335,1.21785
			c-1.72716,1.98563-3.94749,2.62398-6.48088,2.41594c-0.61302-0.05035-1.22115-0.16557-1.82985-0.2617
			c-0.8924-0.14093-1.60812-0.55415-2.18581-1.27515c-0.80148-1.00031-1.69945-1.92363-2.49513-2.92819
			c-0.5703-0.71999-1.1264-1.47709-1.52805-2.29646c-0.31056-0.63365-0.35896-1.39302-0.54871-2.08975
			c-0.11406-0.4188-0.27571-0.82465-0.48307-1.43322c-0.57584,0.77808-1.07661,1.35566-1.46286,2.00171
			c-0.48354,0.80871-0.82111,1.70545-1.31287,2.50834c-1.44147,2.35353-3.49343,3.9142-6.13323,4.78336
			c-2.69803,0.88835-5.23659,0.53647-7.70282-0.70795c-0.69547-0.35091-1.32849-0.8269-1.98375-1.25534
			c-0.1624-0.10622-0.33331-0.2267-0.44367-0.38109c-1.11575-1.56128-2.53043-2.88626-3.37837-4.66888
			c-0.69411-1.45914-1.09746-2.96734-1.42702-4.52441c-0.31395-1.48322-0.57514-2.98039-0.46101-4.48791
			c0.13266-1.75229,0.49635-3.48715,0.62712-5.23948c0.13814-1.85165,0.9942-3.48728,1.41653-5.25262
			c0.33501-1.40029,1.01306-2.72088,1.56439-4.06637c0.54066-1.31948,1.09731-2.63299,1.67731-3.93559
			c0.50922-1.14369,1.04385-2.27689,1.59745-3.39983c0.75198-1.52532,1.52929-3.03821,2.30378-4.55231
			c0.16531-0.32317,0.37228-0.62476,0.54807-0.94291c1.02452-1.85414,2.16656-3.6432,2.97308-5.61744
			c0.24706-0.60474,0.77218-1.09151,1.05522-1.68685c0.58502-1.23053,1.09867-2.49528,1.63131-3.75035
			c0.90479-2.13197,1.83635-4.25375,2.67917-6.4101c0.23389-0.59841,0.25454-1.30301,0.26107-1.96
			c0.00496-0.49975-0.43895-0.75349-1.12093-0.76245c-0.72732-0.00956-1.47168,0.09808-2.17913-0.02077
			c-1.97381-0.33157-3.90151,0.07766-5.84444,0.24355c-1.64397,0.14036-3.28323,0.34026-4.92857,0.45712
			c-0.64366,0.04571-1.05348,0.28571-1.26989,0.88605c-0.54953,1.52423-1.08369,3.05458-1.6684,4.56529
			c-0.27938,0.72182-0.6722,1.39896-0.9904,2.10678c-0.27319,0.60763-0.51543,1.22925-0.76663,1.84661
			c-0.06306,0.15505-0.08779,0.32801-0.16436,0.47489c-0.46028,0.88272-0.95872,1.74665-1.39048,2.64285
			c-0.56893,1.18094-1.08681,2.38645-1.62909,3.58029c-0.44975,0.9901-0.90385,1.97823-1.35444,2.96796
			c-0.17212,0.37806-0.35507,0.75211-0.50686,1.13831c-0.50109,1.27487-0.98436,2.55675-1.48835,3.83045
			c-0.1121,0.28331-0.29391,0.5382-0.42145,0.81636c-1.04751,2.28456-2.07041,4.58064-3.14089,6.85432
			c-0.62896,1.33588-1.33099,2.63734-2.0007,3.95401c-0.01254,0.02469-0.03909,0.04347-0.04745,0.06887
			c-0.51314,1.55237-1.35216,2.94053-2.17051,4.34047c-0.0741,0.12679-0.04615,0.31581-0.05617,0.47652
			c-0.00656,0.1058,0.04931,0.24549-0.00022,0.31419c-1.03989,1.44269-1.72611,3.09052-2.67543,4.5882
			c-0.68195,1.0759-1.49043,2.09819-1.82072,3.37238c-0.03178,0.12273-0.15842,0.22643-0.25441,0.32608
			c-0.90346,0.93772-1.60304,2.0006-2.06554,3.22505c-0.13603,0.36017-0.36236,0.69259-0.58294,1.01323
			c-0.58329,0.84791-1.18517,1.68305-1.78201,2.52158c-0.09705,0.13638-0.23134,0.25134-0.30585,0.39788
			c-1.34846,2.65204-4.24051,4.85243-6.30974,6.01062c-0.77451,0.43347-1.53249,0.89651-2.30847,1.32724
			c-0.18983,0.10538-0.41721,0.17368-0.63361,0.1949c-0.63187,0.06194-0.90112-0.14743-0.9462-0.77444
			c-0.06211-0.86435-0.10068-1.7317-0.10553-2.59804c-0.00143-0.25873,0.09743-0.54558,0.23087-0.77213
			c0.34159-0.58,0.49451-1.16412,0.20701-1.85403c0.1571-0.16582,0.30767-0.36528,0.49692-0.5162
			c0.41333-0.32959,0.55525-0.77566,0.74252-1.25518c0.37154-0.95156,0.91496-1.83312,1.86952-2.35404
			c1.22431-0.66812,2.45976-1.31702,3.66748-2.01399c1.13534-0.65517,1.93402-1.67744,2.72289-2.6894
			c0.90606-1.16229,1.79327-2.34084,2.64579-3.54272c0.51078-0.72008,1.12979-1.38039,1.34914-2.28754
			c0.0688-0.28452,0.28526-0.54309,0.46777-0.78853c0.57051-0.76711,1.00174-1.57027,1.22189-2.53236
			c0.14265-0.62347,0.672-1.15003,0.97386-1.7474c0.50394-0.9973,0.96468-2.01644,1.44302-3.02665
			c0.0479-0.1012,0.06953-0.22424,0.14072-0.30358c0.98405-1.09676,1.30092-2.51307,1.85466-3.81792
			c0.30343-0.71507,0.70132-1.38952,1.02151-2.09816c0.3207-0.70986,0.59789-1.43939,0.89364-2.16052
			c0.562-1.37039,1.13374-2.73691,1.68203-4.11277c0.39211-0.98394,0.74797-1.98228,1.12979-2.9704
			c0.14001-0.36233,0.30086-0.7172,0.46492-1.06955c0.49352-1.05956,1.00199-2.11223,1.48782-3.17526
			c0.37167-0.81317,0.73371-1.63155,1.0703-2.4597c0.27306-0.67184,0.51846-1.35621,0.74582-2.04502
			c0.24495-0.74217,0.43023-1.50441,0.68563-2.24265c0.34661-1.00188,0.74868-1.98448,1.10239-2.98405
			c0.50247-1.41987,0.97539-2.84388,1.66508-4.19695c0.39952-0.78384,0.47541-1.72864,0.84681-2.5317
			c0.63078-1.36405,1.50715-2.62525,2.03561-4.02224c0.36527-0.96558,1.06681-1.66419,1.50127-2.54977
			c0.10479-0.21363,0.30148-0.38381,0.46321-0.56754c0.63037-0.71603,1.38505-0.91618,2.36465-0.92417
			c1.24193-0.01012,2.47495-0.42146,3.72282-0.56103c1.71777-0.19212,3.44605-0.28957,5.16943-0.43252
			c0.49974-0.04145,0.99749-0.10741,1.49723-0.1491c2.49198-0.20784,4.96851,0.11796,7.45158,0.22005
			c0.22329,0.00918,0.44814,0.00552,0.67119-0.00871c0.5561-0.03548,1.03648,0.07864,1.40367,0.55271
			c0.14866,0.19197,0.36613,0.3704,0.59013,0.45696c0.72508,0.28019,0.76668,0.8384,0.75351,1.50006
			c-0.03798,1.9055-0.53548,3.67692-1.32792,5.40235c-0.54601,1.1889-0.98587,2.43192-1.39649,3.67607
			c-0.38957,1.18039-1.0537,2.21239-1.5969,3.31088c-0.91438,1.84904-1.61591,3.81676-2.66319,5.58263
			c-0.91987,1.55108-1.52431,3.25563-2.64783,4.72366c-1.09186,1.42667-1.842,3.1258-2.66393,4.74503
			c-0.80835,1.59251-1.52627,3.23135-2.26567,4.85812c-0.17053,0.37517-0.26514,0.78466-0.39831,1.17712
			c-0.0531,0.15639-0.07863,0.34188-0.1803,0.45892c-0.83343,0.95958-1.1213,2.18114-1.55817,3.31793
			c-0.5868,1.52699-1.08695,3.09078-1.54749,4.6613c-0.23404,0.79817-0.27884,1.64995-0.44619,2.46994
			c-0.35414,1.73556-0.59063,3.46905-0.24802,5.24027c0.31329,1.61987,0.78005,3.18159,1.31685,4.74786
			c0.53855,1.5715,1.47945,2.80003,2.47062,4.03818c1.4309,1.78735,3.9856,2.60921,6.13977,1.88477
			c1.32773-0.4465,2.53669-1.15781,3.49892-2.22705c0.48218-0.53579,1.05886-0.99456,1.49036-1.56557
			c0.41229-0.54557,0.70511-1.1845,1.02605-1.79523c0.37624-0.71604,0.87128-1.30341,1.64375-1.59966
			c0.48624-0.18649,0.77026-0.54065,0.93365-1.01273c0.43802-1.26537,0.90042-2.52325,1.29739-3.80141
			c0.17273-0.55622,0.17725-1.1625,0.31491-1.73233c0.1898-0.78555,0.42952-1.55923,0.65645-2.33547
			c0.06238-0.21344,0.17833-0.41235,0.23059-0.62741c0.36986-1.52203,0.9805-2.95032,1.61311-4.37787
			c0.40492-0.91376,0.64894-1.89762,0.99654-2.83843c0.23087-0.62486,0.51955-1.22824,0.77841-1.8429
			c0.44292-1.05167,0.90973-2.09434,1.31679-3.15979c0.47896-1.25359,0.88292-2.5358,1.36032-3.79002
			c0.44745-1.17551,0.89972-2.35384,1.4398-3.48808c0.5041-1.05864,1.13492-2.05642,1.69257-3.09038
			c0.22324-0.41392,0.37903-0.86421,0.60204-1.27829c0.55595-1.03226,1.13098-2.05429,1.70216-3.07829
			c0.27177-0.48721,0.55795-0.96639,0.82773-1.45466c0.92833-1.67999,1.81885-3.38203,2.79071-5.03633
			c0.56526-0.9622,1.2204-1.87859,1.90242-2.7637c1.1899-1.54421,2.38838-3.08599,3.66484-4.55807
			c1.13254-1.30611,2.35474-2.53746,3.58228-3.75658c0.40848-0.40568,0.92694-0.72913,1.44531-0.99068
			c2.02867-1.02355,4.1245-1.89591,6.36493-2.32638c1.45222-0.27903,2.92775-0.43896,4.39514-0.6348
			c0.27246-0.03636,0.5564,0.00358,0.83435,0.02004c1.03191,0.06108,2.06529,0.10704,3.09453,0.19898
			c0.58229,0.05201,1.18845,0.09739,1.73013,0.29384c1.57635,0.57172,3.1257,1.21796,4.68535,1.83574
			c0.05185,0.02052,0.10393,0.04401,0.14993,0.07498c1.27444,0.85799,2.56516,1.69318,3.8166,2.58352
			c1.03722,0.73793,1.04967,1.42822,0.06786,2.22276c-0.76048,0.61541-1.55994,1.18273-2.34363,1.76935
			c-0.83049,0.62168-1.83073,0.72765-2.79659,0.75223c-0.93935,0.0239-1.88654-0.16579-2.8266-0.28967
			c-1.0737-0.14148-2.11423-0.33221-3.23021-0.09064c-0.99318,0.21497-2.04846,0.19343-3.04561-0.26472
			c-0.96983-0.44561-2.02255-0.36412-3.05954-0.31253c-0.24959,0.01241-0.52034,0.06143-0.74734-0.0118
			c-1.15573-0.37277-2.26782-0.13084-3.38179,0.17712c-0.13445,0.03717-0.27225,0.07648-0.41025,0.0844
			c-2.21294,0.12701-4.15323,1.07191-6.07249,2.05569c-0.32066,0.16439-0.58327,0.50055-0.79358,0.81095
			c-0.66818,0.98622-1.31224,1.98954-1.94072,3.00171c-0.70653,1.13794-1.3951,2.28732-2.07484,3.4415
			c-0.86502,1.46873-1.74414,2.93062-2.55649,4.42838c-0.43376,0.79976-0.73836,1.66941-1.10417,2.50626
			c-0.2215,0.50677-0.42236,1.02489-0.67953,1.51318c-0.34,0.6456-0.61621,1.28938-0.75304,2.02603
			c-0.13509,0.72729-0.44754,1.43616-0.77022,2.11102c-0.65047,1.36046-1.38814,2.67935-2.03404,4.04183
			c-0.29671,0.62589-0.45695,1.31587-0.68816,1.9736c-0.17386,0.49454-0.34268,0.99228-0.54774,1.47414
			c-0.53633,1.26041-1.09288,2.51222-1.63852,3.76871c-0.80553,1.85497-1.03426,3.87968-1.69112,5.77589
			c-0.46532,1.34319-1.02634,2.65318-1.54059,3.97955c-0.07042,0.18168-0.15244,0.36926-0.16971,0.55948
			c-0.10555,1.16402-0.29076,2.33189-0.26308,3.49405c0.03316,1.39031,0.2191,2.78096,0.41264,4.16112
			c0.05922,0.42233,0.3118,0.84451,0.5611,1.20833c0.83861,1.22369,1.65886,2.46807,2.60286,3.60788
			c0.44347,0.53548,1.10391,0.99147,1.75812,1.22082c0.53209,0.18655,1.20941,0.0324,1.80803-0.06155
			c0.89189-0.14001,1.73306-0.42693,2.41988-1.07364c0.60457-0.56921,1.23227-1.11667,1.87793-1.63889
			c1.85315-1.49891,3.19044-3.42725,4.53354-5.35651c0.51056-0.73347,1.11531-1.4026,1.60918-2.14619
			c0.93912-1.41407,2.0013-2.73624,2.82401-4.24249c0.73036-1.33713,1.80466-2.48148,2.64059-3.7672
			c0.84697-1.30265,1.58244-2.67751,2.37732-4.01447c0.43898-0.73843,0.90564-1.4604,1.34825-2.19673
			c0.2578-0.42883,0.48485-0.87603,0.73933-1.30693c1.10704-1.87434,2.23624-3.73588,3.31921-5.62395
			c0.34532-0.60209,0.57338-1.27156,0.85339-1.91094c0.05609-0.12811,0.07162-0.29118,0.1615-0.38461
			c0.82043-0.85288,0.87271-2.02757,1.30608-3.04125c0.35973-0.84146,0.8177-1.64088,1.23103-2.45948
			c0.23874-0.47279,0.59686-0.9241,0.68979-1.42434c0.26506-1.42702,1.18033-2.50007,1.93668-3.633
			c0.47876-0.71713,1.26067-1.27598,2.28787-1.12943c0.55836,0.07967,0.90959-0.16402,1.21844-0.66936
			c1.1189-1.83067,1.49292-1.5369,3.15565-0.54449c0.82199,0.49061,1.05711,1.28632,0.69507,2.18681
			c-0.37759,0.93919-0.6852,1.89032-0.77377,2.90399c-0.00705,0.08092-0.0334,0.17403-0.08304,0.23532
			c-1.04718,1.29306-0.97295,2.99877-1.6349,4.43356c-0.30098,0.6524-0.60612,1.3058-0.85391,1.97916
			c-0.42285,1.14915-0.80492,2.3134-1.1976,3.47351c-0.11627,0.34349-0.19492,0.70009-0.31805,1.04083
			c-0.33965,0.93996-0.69577,1.87395-1.04042,2.81213c-0.07703,0.20959-0.15862,0.42241-0.19571,0.64095
			c-0.18175,1.07172-0.30882,2.15462-0.53822,3.21562c-0.1208,0.55881-0.41718,1.07873-0.62282,1.62054
			c-0.08835,0.23286-0.16757,0.47272-0.21703,0.71628c-0.49399,2.43298-1.01378,4.86143-1.45586,7.30393
			c-0.2178,1.20348-0.28862,2.43359-0.42506,3.65176c-0.01868,0.16673-0.00771,0.3409-0.05223,0.49993
			c-0.27132,0.96961-0.34845,1.93845-0.25105,2.95316c0.1161,1.20923-0.00821,2.43358,0.38895,3.62404
			c0.30757,0.92207,0.38026,1.90972,0.94145,2.7625c0.52724,0.8013,1.29744,1.13121,2.13124,0.65334
			c0.69756-0.39979,1.32921-0.9186,1.97263-1.40762c0.51039-0.38793,1.01837-0.78523,1.48325-1.22511
			c0.44061-0.41696,0.90588-0.84476,1.21626-1.35538c0.83249-1.36951,1.73752-2.65514,2.99068-3.68788
			c1.31602-1.08454,2.11241-2.589,3.04684-3.978c0.13916-0.20684,0.27243-0.42127,0.43698-0.60688
			c1.45079-1.6364,2.8022-3.34592,3.87628-5.25874c0.20457-0.36435,0.35863-0.75672,0.55164-1.12804
			c0.28003-0.53874,0.57362-1.07048,0.8629-1.60439c0.10669-0.19691,0.30594-0.389,0.31161-0.58762
			c0.02815-0.98514,0.75504-1.51725,1.25139-2.24088c1.18001-1.72028,2.16396-3.57689,3.19531-5.39645
			c0.48143-0.84941,0.90073-1.73501,1.32695-2.61451c0.43309-0.89368,0.82997-1.80489,1.26299-2.69862
			c0.19432-0.40114,0.41795-0.7915,0.66261-1.16421c1.07214-1.63325,2.06001-3.33528,3.27193-4.85844
			c0.77368-0.97238,0.94453-2.17495,1.6308-3.15701c0.58585-0.83829,1.05637-1.75981,1.54643-2.66161
			c0.47447-0.87309,0.90755-1.76864,1.36205-2.65266c0.07507-0.14601,0.14519-0.30339,0.25423-0.42175
			c0.89816-0.97501,1.33865-2.17384,1.74838-3.40412c0.19847-0.59599,0.52196-1.1581,0.84245-1.70407
			c0.62076-1.05748,1.30731-2.07172,1.63028-3.2846c0.15694-0.58938,0.44531-1.14587,0.69495-1.70803
			c0.59718-1.34473,1.06168-2.74986,2.1498-3.83966c0.68062-0.68165,1.23795-1.48882,1.82898-2.25631
			c0.23259-0.30203,0.40222-0.65201,0.60881-0.97487c0.08867-0.13858,0.17079-0.31561,0.30328-0.3861
			c0.64029-0.34069,1.28014-0.6947,1.95538-0.95123c0.27916-0.10606,0.71991-0.0938,0.96017,0.06133
			c0.77463,0.50019,1.5034,1.07393,1.83054,2.00639c0.16298,0.46448,0.0638,0.86364-0.14732,1.28546
			c-0.50038,0.99974-1.03734,1.9894-1.43178,3.03149c-0.3474,0.91777-0.58626,1.88974-0.75639,2.85826
			c-0.22975,1.30778-0.74234,2.50112-1.24554,3.7107c-0.52399,1.25953-0.98161,2.54663-1.47096,3.82064
			c-0.24026,0.62553-0.48859,1.24798-0.72966,1.87321c-0.22127,0.57385-0.42142,1.15647-0.66144,1.72227
			c-0.19493,0.45953-0.42964,0.90266-0.65771,1.34743c-0.10143,0.19777-0.2576,0.37021-0.34169,0.57367
			c-0.66238,1.60244-1.31111,3.21053-1.97055,4.81422c-0.08461,0.20579-0.17827,0.41901-0.31587,0.59008
			c-0.938,1.16621-1.20685,2.62662-1.76596,3.9593c-0.48457,1.15495-1.04944,2.28027-1.46387,3.45908
			c-0.26335,0.74908-0.88628,1.37855-0.77916,2.26475c0.02007,0.16596-0.14233,0.35123-0.21095,0.53124
			c-0.16328,0.42841-0.32085,0.85899-0.40468,1.31953c1.36148-1.6235,2.82053-3.1347,3.82109-5.01889
			c0.461-0.86811,1.19868-1.59248,1.83084-2.36573c0.84842-1.03775,1.72475-2.0527,2.57141-3.09184
			c0.35245-0.43259,0.65514-0.90543,0.98836-1.35411c0.21626-0.29121,0.40701-0.61845,0.6776-0.8494
			c1.50066-1.28089,2.6506-2.86871,3.86375-4.39678c1.08301-1.36414,2.39351-2.48598,3.65541-3.6654
			c0.81531-0.76202,1.60803-1.55383,2.35284-2.38432c1.05493-1.17632,2.29024-2.11326,3.59349-2.98885
			c0.54945-0.36915,1.05304-0.84189,1.48181-1.34849c1.11508-1.31742,2.40598-2.37766,3.9659-3.13698
			c0.61844-0.30103,1.20531-0.72066,1.71162-1.18892c1.99838-1.84824,4.52434-2.84269,6.79665-4.24372
			c0.70067-0.43202,1.56505-0.59464,2.34692-0.89992c0.78006-0.30457,1.56641-0.60023,2.32167-0.95935
			c1.09497-0.52066,2.21913-0.77182,3.40204-0.43702c0.38817,0.10986,0.77034,0.34453,1.07773,0.61142
			c0.43538,0.37803,0.47726,0.92528,0.19427,1.444c-0.52596,0.964-1.22647,1.77599-2.10674,2.44007
			c-0.23572,0.17783-0.42947,0.42536-0.60309,0.66898c-0.71347,1.00131-1.51189,1.95946-2.09163,3.03455
			c-0.82558,1.53091-1.79192,2.96123-2.75209,4.40182c-0.49367,0.74068-0.97392,1.4917-1.4263,2.25807
			c-0.32547,0.55142-0.60857,1.12936-0.88664,1.70698c-0.85934,1.7849-2.07222,3.39076-2.66061,5.31638
			c-0.10963,0.35878-0.46239,0.63599-0.63213,0.98525c-0.32791,0.67488-0.5894,1.38181-0.90924,2.06094
			c-0.22366,0.47495-0.49084,0.93021-0.75291,1.38602c-0.20815,0.36208-0.50034,0.68793-0.64648,1.07133
			c-0.43721,1.14697-0.80367,2.32072-1.23097,3.47168c-0.35959,0.96854-0.68428,1.96419-1.17548,2.86552
			c-0.43887,0.80534-0.64618,1.64987-0.84813,2.51558c-0.06969,0.29868-0.13054,0.60878-0.26195,0.88162
			c-0.22404,0.46512-0.23917,0.94154-0.29456,1.44296c-0.08087,0.73219-0.4406,1.42947-0.63046,2.15499
			c-0.15359,0.58688-0.28665,1.18949-0.33041,1.79227c-0.06038,0.83141-0.0598,1.67088-0.02505,2.50439
			c0.02519,0.60499,0.16942,1.20407,0.22148,1.80916c0.05272,0.61253,0.03905,1.23069,0.08878,1.8436
			c0.04047,0.49854,0.12564,0.99387,0.20212,1.4889c0.06396,0.41399,0.14711,0.82502,0.21495,1.23846
			c0.01801,0.10978-0.01497,0.23239,0.01935,0.33434c0.46939,1.39482,0.66005,2.8668,1.37537,4.19921
			c1.00893,1.87931,2.19478,3.61095,3.70082,5.11694c0.75038,0.75037,1.51874,1.48608,2.32045,2.18057
			c0.47198,0.40885,1.1086,0.57584,1.56992,1.05433c0.18385,0.19067,0.74208,0.20568,1.02798,0.076
			c0.70317-0.31895,1.42505-0.68092,1.99429-1.18837c0.63658-0.5675,5.12903-4.60316,6.4749-7.29063
			c0.62436-1.14989,1.2023-2.32529,1.83885-3.46818c0.47534-0.85346,0.97684-1.69727,1.5322-2.50006
			c0.69473-1.00417,1.15729-2.0803,1.38667-3.28121c0.0731-0.38268,0.35825-0.728,0.56128-1.08184
			c0.17987-0.31352,0.42795-0.59555,0.56415-0.92526c0.83411-2.01888,2.03546-3.84638,2.99039-5.80066
			c0.37888-0.77538,0.6355-1.60983,0.99957-2.39333c0.41077-0.88398,0.82941-1.77158,1.3353-2.60241
			c0.77518-1.27311,1.45184-2.58018,1.8562-4.02032c0.05215-0.18574,0.12534-0.38174,0.24261-0.53055
			c1.42712-1.81065,2.48407-3.84477,3.57013-5.86253c0.2507-0.46584,0.56281-0.89869,0.81268-1.36493
			c0.44672-0.83352,0.82141-1.70907,1.31253-2.51442c0.47678-0.78191,1.04416-1.51142,1.60391-2.23923
			c0.78256-1.01754,1.54886-2.05343,2.40396-3.00819c1.89725-2.11839,3.74426-4.27782,5.83435-6.22778
			c1.16766-1.08943,2.4462-2.02182,3.66229-3.03605c0.97964-0.81702,2.09445-1.49503,3.21735-2.11054
			c1.03305-0.56627,2.19977-0.78759,3.3855-0.8442c1.00333-0.0479,2.00665-0.1539,3.00925-0.14554
			c1.78693,0.01492,3.60687-0.09929,5.35156,0.19942c2.26627,0.388,4.54358,0.55326,6.81848,0.79557
			c1.45679,0.15517,2.87793,0.54156,4.18951,1.13289c0.99698,0.44949,1.83853,1.25623,2.71609,1.94622
			c0.15344,0.12066,0.24194,0.47792,0.18649,0.67764c-0.10889,0.39236-0.26904,0.81487-0.53531,1.10998
			c-0.55807,0.61844-1.17264,1.19365-1.81339,1.72727c-0.52817,0.43983-1.12711,0.79472-1.69537,1.18626
			c-0.8497,0.58549-1.70154,1.16797-2.54956,1.75587c-0.57654,0.39968-1.19006,0.43869-1.83945,0.21677
			c-1.26782-0.4333-2.52838-0.89109-3.81009-1.27885c-0.47211-0.14283-0.99463-0.1267-1.49551-0.1654
			c-1.16907-0.09033-2.33801-0.19087-3.50894-0.24562c-0.65125-0.03045-1.27963-0.09136-1.91907-0.26176
			c-0.51828-0.13812-1.09872-0.04042-1.65146-0.05253c-0.75479-0.01654-1.50937-0.04694-2.26425-0.05539
			c-1.28323-0.01438-2.60233-0.20467-3.83975,0.03004c-1.21448,0.23036-2.49332,0.49094-3.53488,1.33267
			c-0.84583,0.68354-1.76694,1.27477-2.66214,1.89614c-0.89981,0.62454-1.42972,1.52848-1.96146,2.45312
			c-0.86053,1.49637-1.767,2.96689-2.67786,4.43355c-0.64529,1.03912-1.39133,2.01987-1.98169,3.08787
			c-0.78293,1.41628-1.45209,2.89514-2.1835,4.34035c-0.17511,0.34598-0.37729,0.68481-0.61163,0.99303
			c-0.68472,0.90057-1.16165,1.8963-1.54288,2.95996c-0.27185,0.75845-0.64413,1.48827-1.03839,2.19353
			c-0.43567,0.77932-0.92825,1.52917-1.43134,2.26782c-0.56595,0.83098-1.15506,1.63193-1.31516,2.67342
			c-0.05673,0.36908-0.34958,0.69545-0.48254,1.06032c-0.60251,1.6534-1.11423,3.34406-1.79755,4.96265
			c-0.66672,1.57921-1.2041,3.19449-1.59564,4.85037c-0.28186,1.192-0.30115,2.44464-0.55881,3.6442
			c-0.33337,1.55231-0.35995,3.09566-0.20944,4.66317c0.05865,0.61053,0.05063,1.23663-0.01016,1.84737
			c-0.0983,0.98769,0.21454,1.88688,0.52884,2.78156c0.10281,0.29267,0.38461,0.52718,0.60236,0.77247
			c0.08954,0.10082,0.25983,0.13563,0.336,0.24166c0.79086,1.10081,1.81747,1.00353,2.99707,0.76055
			c2.55658-0.52663,4.57294-1.95782,6.57413-3.51235c1.39911-1.08683,2.65167-2.28826,3.84155-3.5935
			c0.82031-0.89983,1.88867-1.56931,2.75327-2.43453c0.58426-0.58467,0.97186-1.36038,1.5098-1.99803
			c0.89877-1.0654,1.77625-2.16583,2.79623-3.1068c0.91525-0.84435,1.78204-1.694,2.31863-2.8208
			c0.72256-1.5173,1.78088-2.77396,2.97968-3.91859c0.69653-0.66507,1.24649-1.41275,1.72067-2.25198
			c0.86932-1.53858,1.93317-2.93388,3.30991-4.0747c0.33701-0.27924,0.67075-0.62672,0.8551-1.01456
			c0.74939-1.57664,1.94662-2.84576,2.85657-4.3008c0.59137-0.94559,0.93192-2.08936,1.18085-3.19044
			c0.12564-0.55576,0.3063-0.96953,0.66821-1.37222c0.25003-0.27819,0.45261-0.61029,0.62439-0.94498
			c0.30322-0.59066,0.57022-1.2001,0.84537-1.80488c0.12619-0.27736,0.23096-0.56439,0.35349-0.8435
			c0.62512-1.42382,1.59583-2.46641,3.16138-2.84424c0.16104-0.03886,0.36621-0.12543,0.48648-0.06391
			c0.64255,0.32877,1.07285,0.05714,1.55048-0.37631c0.51822-0.4703,1.29962-0.47052,1.87613-0.06373
			c0.43213,0.3049,0.80981,0.6867,1.21375,1.03192c0.37198,0.31792,0.33627,0.6341,0.08099,1.02924
			c-0.71182,1.1019-1.45383,2.19209-2.06482,3.34975c-1.38031,2.61523-3.04419,5.08189-4.1387,7.84653
			c-0.14349,0.3624-0.22198,0.74995-0.34747,1.12014c-0.60999,1.79979-1.21893,3.60001-1.84418,5.39452
			c-0.15616,0.44819-0.3833,0.87113-0.55655,1.314c-0.25293,0.6465-0.50009,1.29597-0.72388,1.95296
			c-0.15314,0.44954-0.19473,0.94772-0.40298,1.366c-0.84937,1.70599-1.42749,3.50323-1.97556,5.32203
			c-0.6857,2.27541-1.45584,4.52586-2.21854,6.77728c-0.26755,0.78983-0.62903,1.54747-0.93127,2.32614
			c-0.13071,0.33678-0.2117,0.69247-0.32965,1.03462c-0.35861,1.0404-0.71411,2.08208-1.09122,3.11581
			c-0.1998,0.54772-0.47409,1.06937-0.65686,1.62193c-0.2352,0.71091-0.41229,1.44103-0.62964,2.21722
			c0.11368-0.03864,0.25375-0.06731,0.37582-0.13067c1.30026-0.67513,2.43719-1.57547,3.57245-2.49537
			c1.23669-1.00211,2.57385-1.87922,3.84479-2.84052c0.68808-0.52049,1.36884-1.06253,1.98474-1.66457
			c2.31815-2.26601,4.61566-4.55329,6.90344-6.85001c0.53174-0.53381,1.02341-1.11413,1.48254-1.71217
			c0.71313-0.92888,1.46274-1.84464,2.0491-2.85199c0.65295-1.12174,1.41772-2.21292,1.63425-3.54737
			c0.03467-0.21374,0.10815-0.44784,0.23773-0.61523c0.91379-1.18058,1.20996-2.62602,1.73416-3.97317
			c0.10904-0.28025,0.19379-0.57006,0.30533-0.84924c0.23788-0.59534,0.48495-1.18701,0.73029-1.77937
			c0.13904-0.33572,0.27017-0.67542,0.42538-1.00362c0.59616-1.26057,1.19983-2.51758,1.80234-3.77514
			c0.21509-0.44892,0.41342-0.9076,0.65628-1.34115c0.76453-1.36466,1.5726-2.7055,2.31454-4.08211
			c0.74637-1.38477,1.62662-2.66557,2.62997-3.8772c1.40845-1.70081,2.72925-3.47461,4.15027-5.16444
			c1.50519-1.78995,3.07294-3.52614,4.83304-5.08052c0.642-0.56696,1.20053-1.22836,1.79776-1.84609
			c0.07376-0.07629,0.13904-0.19024,0.229-0.21701c1.42526-0.42413,2.52191-1.42459,3.68396-2.2532
			c0.73227-0.52215,1.40909-1.00432,2.26865-1.3054c0.52008-0.18217,0.96359-0.65717,1.37183-1.06957
			c0.97031-0.98014,1.95404-1.92963,3.25522-2.46717c0.18054-0.07458,0.36118-0.15613,0.54953-0.20338
			c1.38239-0.34675,2.76468-0.69439,4.15109-1.02449c1.42545-0.33941,2.77899-0.04055,4.09244,0.51812
			c0.38583,0.16412,0.74362,0.3966,1.13348,0.54847c1.51797,0.59136,2.63022,1.70644,3.60254,2.93226
			c1.25214,1.57863,1.58939,3.47242,1.59171,5.45353c0.00153,1.31389-0.12262,2.61357-0.28012,3.91272
			c-0.026,0.21432-0.13013,0.41924-0.19876,0.62831c-0.22574,0.68792-0.45135,1.37589-0.67786,2.06357
			c-0.15692,0.47636-0.23856,0.99714-0.48639,1.42049c-1.01566,1.73506-2.07455,3.44509-3.13699,5.15224
			c-0.18985,0.30506-0.496,0.53557-0.70624,0.83057c-0.46738,0.65576-0.90808,1.33051-1.35938,1.99773
			c-0.03137,0.04639-0.05368,0.10059-0.09125,0.14085c-1.10251,1.18125-2.19464,2.37253-3.31448,3.53712
			c-0.67712,0.70415-1.388,1.37688-2.10147,2.04475c-0.6701,0.62729-1.35605,1.23829-2.04855,1.8409
			c-1.05115,0.91472-2.09515,1.83936-3.1795,2.71347c-0.57391,0.4626-1.2229,0.83321-1.84564,1.23345
			c-0.25824,0.16598-0.55948,0.27054-0.80188,0.45473c-1.91324,1.4539-3.88663,2.81369-6.00992,3.94801
			c-0.49319,0.26348-0.94373,0.62113-1.45703,0.8289c-0.55942,0.22643-1.16827,0.33178-1.75693,0.48483
			c-0.85846,0.22321-1.71823,0.44133-2.57709,0.66306c-0.13275,0.03426-0.2612,0.09556-0.39554,0.11145
			c-0.80463,0.09518-1.61539,0.14969-2.41425,0.2787c-0.72888,0.11771-1.35992-0.02784-1.80231-0.61231
			c-0.32043-0.42332-0.0206-1.61067,0.47638-2.07259c0.72195-0.67107,1.46475-1.31969,2.19879-1.97774
			c0.02084-0.01867,0.05292-0.03127,0.06329-0.05418c0.70218-1.54987,2.47971-1.53178,3.62189-2.45557
			c0.37344-0.30205,1.00082-0.31105,1.52081-0.4067c1.12491-0.20691,2.25519-0.38494,3.38388-0.5712
			c0.44119-0.0728,0.88287-0.18417,1.32623-0.19413c1.16605-0.02621,2.05829-0.64966,2.9541-1.27724
			c0.5687-0.39842,1.17087-0.76189,1.68582-1.22189c1.68683-1.5068,3.32855-3.06135,4.51224-5.02322
			c0.02881-0.04778,0.06461-0.09148,0.09848-0.13609c0.77032-1.01494,1.57608-2.0053,2.30154-3.05137
			c0.74554-1.07504,1.43857-2.16949,1.92712-3.41785c0.60013-1.53339,0.8703-3.12952,1.15988-4.71477
			c0.17023-0.9318-0.04712-1.93533-0.09909-2.90612c-0.0134-0.2504-0.08179-0.49844-0.08841-0.74853
			c-0.02551-0.95963-0.46539-1.73504-0.94144-2.54743c-0.98196-1.67574-2.6293-2.03783-4.29932-2.39127
			c-0.30792-0.06516-0.6882-0.01463-0.98038,0.11037c-1.46396,0.62632-2.94696,1.22522-4.3497,1.972
			c-1.05276,0.56048-1.93579,1.44913-3.00201,1.97234c-1.00046,0.49094-1.88715,1.08852-2.67944,1.83734
			c-0.62152,0.58737-1.23016,1.17251-1.65082,1.96992c-0.31082,0.58918-0.92877,1.02253-1.43106,1.50318
			c-0.92676,0.88688-1.48346,1.98726-2.0069,3.14194c-0.37033,0.81698-0.98163,1.52355-1.47357,2.28702
			c-0.29889,0.46386-0.59769,0.93031-0.85632,1.41695c-0.34021,0.64012-0.58636,1.33544-0.96948,1.9465
			c-0.92258,1.47152-1.64343,3.02201-2.17081,4.67857c-0.2345,0.73662-0.59485,1.4478-0.99307,2.11372
			c-0.43372,0.72527-0.54477,1.51058-0.68933,2.30968c-0.10349,0.57208-0.29218,1.13232-0.48169,1.6845
			c-0.31558,0.91941-0.66727,1.82639-0.99106,2.74309c-0.0546,0.15462-0.07864,0.33558-0.06015,0.49791
			c0.10361,0.90865-0.2309,1.73705-0.42838,2.59485c-0.14963,0.64988-0.25314,1.31971-0.28485,1.98506
			c-0.04111,0.86229,0.01035,1.72895,0.01996,2.59375c0.00214,0.19302,0.05194,0.40867-0.01535,0.57552
			c-0.42255,1.0479-0.24783,2.0887-0.01904,3.1367c0.10733,0.49155,0.20068,0.98707,0.27649,1.48443
			c0.20325,1.33298,0.52441,2.61375,1.259,3.78054c0.41412,0.65775,0.67734,1.40889,1.03772,2.1028
			c0.17868,0.34409,0.36923,0.71284,0.6478,0.96877c1.00632,0.92452,2.03323,1.82933,3.09341,2.69113
			c0.38177,0.31031,0.86057,0.5292,1.32764,0.70161c1.62518,0.59991,3.26846,1.09142,5.01169,1.30461
			c1.55872,0.19062,2.97534-0.25096,4.44177-0.55326c2.18246-0.44993,4.07755-1.58311,5.87863-2.75969
			c1.39142-0.90897,2.7709-1.94714,3.75986-3.41629c0.77179-1.14658,1.8056-2.12123,2.75644-3.14112
			c0.54544-0.58506,0.98108-1.21098,1.18201-1.99261c0.05441-0.21164,0.12234-0.43809,0.24908-0.60973
			c0.57938-0.78448,1.19278-1.54394,1.76828-2.33115c0.14044-0.1921,0.24722-0.45193,0.25903-0.68617
			c0.02646-0.52623,0.31189-0.88601,0.65756-1.22166c0.31808-0.30888,0.6492-0.60432,0.97366-0.9067
			c0.55704-0.5192,1.19769-0.27224,1.73804-0.06966c1.52203,0.57056,1.93228,2.20663,0.94202,3.50146
			c-1.13821,1.48835-2.20932,3.01437-3.13025,4.65675c-0.45514,0.81167-1.2182,1.44797-1.82364,2.17876
			c-0.69113,0.83425-1.33862,1.70557-2.0473,2.52422c-0.94876,1.09598-1.92896,2.16531-2.91272,3.2303
			c-0.89172,0.96534-1.7959,1.91972-2.71402,2.85995c-0.79779,0.81698-1.59555,1.63757-2.44257,2.40202
			c-1.11111,1.00279-2.1705,2.08093-3.49802,2.81216c-0.92865,0.51151-1.90741,0.9357-2.81686,1.4776
			c-1.95319,1.1638-4.16165,1.40988-6.31912,1.84874c-0.13553,0.02757-0.28403,0.04146-0.41843,0.01709
			c-1.42761-0.25911-2.85413-0.52466-4.27957-0.79567c-0.21918-0.04167-0.42783-0.15143-0.64743-0.17633
			c-2.25769-0.25589-4.04095-1.52565-5.61365-2.96478c-1.79504-1.64258-3.68314-3.27826-4.68192-5.61335
			c-0.28525-0.66689-0.55185-1.34179-0.82269-2.01474c-0.83212-2.06741-1.2934-4.22862-1.49292-6.43574
			c-0.11032-1.22026-0.04062-2.45669-0.05545-3.68578C310.6698,112.33343,310.65015,112.12657,310.63263,111.8176z"/>
		<path class="st1" d="M85.80186,49.6881c-0.21185,3.0233-0.35503,5.72803-0.60453,8.42292
			c-0.20816,2.24861-0.49736,4.49226-0.83518,6.72532c-0.19584,1.29444-0.55633,2.56417-0.84709,3.84402
			c-0.58807,2.58837-1.16819,5.17867-1.7787,7.76175c-0.11472,0.48539-0.3763,0.93414-0.53377,1.41177
			c-0.27888,0.84596-0.49308,1.71465-0.80004,2.54967c-0.6742,1.83401-1.35909,3.66533-2.09721,5.47424
			c-0.63361,1.55276-1.36858,3.06391-2.01888,4.61022c-0.51898,1.234-0.96738,2.49751-1.46788,3.73956
			c-0.27038,0.67095-0.58655,1.32336-0.87794,1.98596c-0.34785,0.79094-0.65526,1.6021-1.04524,2.37152
			c-0.55411,1.09328-1.15602,2.163-1.75909,3.23059c-0.53355,0.94463-1.07227,1.88803-1.65291,2.80397
			c-0.73318,1.15657-1.51055,2.28516-2.26997,3.42508c-0.55602,0.83456-1.10617,1.67322-1.67485,2.49908
			c-0.22047,0.32016-0.49639,0.60158-0.7272,0.91527c-1.28756,1.74974-2.51924,3.54359-3.87085,5.24213
			c-0.84121,1.05716-1.85276,1.98024-2.80217,2.94946c-1.09461,1.1174-2.20512,2.21922-3.3084,3.32812
			c-0.355,0.35679-0.72183,0.70296-1.05869,1.07616c-0.21671,0.24008-0.37997,0.52751-0.58274,0.78131
			c-0.25646,0.32095-0.53146,0.62702-0.79367,0.94347c-0.69522,0.83908-1.46767,1.54453-2.4139,2.14602
			c-0.85745,0.5451-1.76726,1.10653-2.42523,1.98498c-0.65934,0.88023-1.6116,1.45906-2.67209,1.8109
			c-1.79935,0.59694-3.60078,1.18756-5.40135,1.78088c-0.02661,0.00876-0.0578,0.0118-0.07889,0.02794
			c-1.09079,0.83554-2.42056,0.68245-3.66374,0.89586c-1.01828,0.17482-2.03172,0.38075-3.04263,0.59494
			c-0.71402,0.15126-1.38758,0.04961-2.05385-0.21767c-0.28298-0.11351-0.5739-0.23372-0.87204-0.27806
			c-1.07803-0.16037-2.16624-0.257-3.24017-0.4391c-1.36815-0.23198-2.54235-0.97214-3.79995-1.50005
			c-1.13304-0.47562-2.02693-1.26584-3.03061-1.90477c-0.85912-0.54692-1.79325-0.76112-2.75263-0.94478
			c-0.57882-0.11078-0.99271-0.40274-1.38484-0.84904c-0.35508-0.40416-0.83483-0.73885-1.32153-0.97799
			c-0.73905-0.36309-1.42196-0.74366-1.9217-1.43529c-0.32173-0.44527-0.72542-0.84887-1.15301-1.19669
			c-1.17169-0.95322-1.98957-2.18266-2.77252-3.44012c-0.57265-0.91967-1.10648-1.86347-1.65647-2.79721
			c-0.04255-0.07221-0.08578-0.14652-0.11226-0.22539c-0.65846-1.9593-1.32001-3.91759-1.96415-5.8816
			c-0.07596-0.23181-0.07156-0.49549-0.07483-0.74478c-0.02405-1.84007-0.0198-3.68089-0.07723-5.51984
			c-0.01148-0.36831-0.201-0.75705-0.39186-1.08832c-0.38908-0.67525-0.56332-1.37775-0.57676-2.15856
			c-0.02245-1.31411-0.13998-2.62798,0.16324-3.92709c0.17089-0.7324,0.36465-1.46033,0.50738-2.19814
			c0.09482-0.49002,0.12797-0.99306,0.17098-1.49181c0.1104-1.2796,0.21091-2.56006,0.31511-3.84017
			c0.00453-0.05584-0.00356-0.11491,0.01181-0.16734c0.69023-2.36205,0.75197-4.85513,1.59163-7.197
			c0.66845-1.86415,1.25749-3.77979,1.63183-5.72078c0.50534-2.62088,1.60884-4.99788,2.62731-7.41667
			c0.77009-1.8289,1.58422-3.6403,2.42348-5.43863c0.44711-0.95819,0.99858-1.86722,1.48589-2.80728
			c0.61798-1.19224,1.18503-2.41208,1.83435-3.58665c1.1081-2.00457,2.22895-4.00379,3.41075-5.9653
			c0.77625-1.28836,1.63733-2.52941,2.51909-3.74926c0.78612-1.08759,1.66451-2.10803,2.48116-3.17419
			c1.20547-1.57373,2.36726-3.18156,3.59637-4.7364c0.76195-0.96385,1.60146-1.86789,2.42895-2.77806
			c0.99462-1.09399,2.0612-2.12584,3.01088-3.25661c1.53339-1.82572,3.45469-3.16704,5.36938-4.53061
			c1.06639-0.75943,2.09523-1.57137,3.15311-2.34308c0.24374-0.1778,0.5341-0.29374,0.8082-0.4275
			c0.77753-0.37944,1.54743-0.77702,2.33988-1.12261c0.74114-0.32321,1.51501-0.57084,2.26027-0.88536
			c0.6936-0.29272,1.3602-0.64932,2.05353-0.94271c1.05166-0.44502,2.12144-0.84723,3.17327-1.29189
			c0.64272-0.27171,1.25594-0.61416,1.90173-0.87734c0.4889-0.19923,1.00043-0.40506,1.51674-0.45526
			c0.41975-0.04081,0.90901,0.05486,1.28239,0.25152c0.55737,0.29358,1.0971,0.39865,1.69471,0.25781
			c1.19516-0.28166,2.38759-0.1836,3.58776-0.02223c0.77488,0.10419,1.56144,0.11848,2.33901,0.20638
			c0.52559,0.05942,1.06377,0.11757,1.56319,0.27892c1.80311,0.58248,3.70844,0.88381,5.34906,1.92309
			c0.68332,0.43287,1.37773,0.84894,2.07718,1.25528c0.33528,0.19479,0.70049,0.33758,1.03924,0.52698
			c0.16,0.08946,0.30051,0.22248,0.43095,0.35447c0.33269,0.33661,0.6087,0.74963,0.98892,1.01544
			c1.79066,1.25177,3.24359,2.80658,4.38882,4.66266c0.23349,0.37841,0.61553,0.67689,0.79861,1.07259
			c0.70182,1.51691,1.42715,3.03062,1.9957,4.59916c0.49371,1.36218,0.89384,2.77812,1.1446,4.20384
			C85.37418,45.76764,85.57104,47.8851,85.80186,49.6881z M22.72324,58.89112c-0.01393-0.02868-0.02785-0.05736-0.04173-0.08604
			c-0.31178,0.50976-0.62373,1.0194-0.93523,1.52932c-0.23209,0.37992-0.5032,0.74197-0.68765,1.14379
			c-0.47588,1.0365-0.83722,2.13263-1.38538,3.12715c-0.69115,1.25389-0.72285,2.62268-0.93453,3.96746
			c-0.0341,0.2166-0.05414,0.44983-0.15062,0.63988c-0.62053,1.22234-1.33447,2.40291-1.87621,3.65828
			c-0.73749,1.70895-1.3738,3.46333-2.00622,5.21529c-0.61713,1.70956-1.15058,3.44611-1.39224,5.25907
			c-0.03218,0.24167-0.1373,0.4887-0.26422,0.69985c-0.39382,0.65508-0.50134,1.36451-0.42651,2.10385
			c0.19565,1.93279-0.24451,3.77187-0.76264,5.60809c-0.15729,0.55753-0.25018,1.14599-0.27698,1.72472
			c-0.04398,0.94828,0.16397,1.94152-0.04993,2.84071c-0.30875,1.29775-0.09633,2.55962-0.01853,3.81862
			c0.07338,1.18666,0.43985,2.35678,0.6973,3.52982c0.13043,0.5939,0.27267,1.18904,0.46684,1.76427
			c0.34736,1.02875,0.71607,2.0516,1.11725,3.06042c0.34886,0.87721,0.7111,1.75465,1.14837,2.58957
			c0.41241,0.78751,1.00299,1.48542,1.38127,2.28605c0.36516,0.7728,0.8239,1.4296,1.42719,2.02976
			c0.71242,0.7087,1.2824,1.56898,2.03191,2.22999c1.14919,1.0135,2.37018,1.95306,3.61588,2.84712
			c0.87912,0.63099,1.85118,1.13202,2.77859,1.69635c0.35238,0.21445,0.67309,0.49789,1.04801,0.65485
			c0.79501,0.33285,1.61198,0.61549,2.42793,0.89536c0.63344,0.21728,1.26692,0.49406,1.92168,0.57777
			c1.57719,0.20168,3.16477,0.3903,4.752,0.43016c2.72318,0.06834,5.40823-0.26525,8.06969-0.89941
			c1.28975-0.30733,2.40738-0.94244,3.45808-1.62355c0.72933-0.47281,1.41263-0.81124,2.24711-0.97186
			c0.35713-0.06874,0.74678-0.29572,0.98785-0.56887c0.43811-0.49641,0.79768-1.06776,1.14909-1.63325
			c0.27845-0.4481,0.608-0.72659,1.13979-0.89708c0.58731-0.18829,1.25423-0.23199,1.71567-0.78814
			c0.79248-0.95518,1.67657-1.83444,2.46733-2.79095c0.86491-1.0462,1.69149-2.12654,2.48901-3.22522
			c0.53346-0.73492,0.96857-1.54044,1.48103-2.29161c0.64423-0.94423,1.15636-1.96095,1.71992-2.94477
			c0.59797-1.04384,1.1826-2.07063,1.62113-3.19227c0.43671-1.11705,0.94999-2.2039,1.40829-3.31284
			c0.54122-1.30962,1.05946-2.62875,1.58753-3.94381c0.03131-0.07798,0.07-0.15427,0.09064-0.23509
			c0.53617-2.09976,1.69594-3.96475,2.23379-6.07638c0.31348-1.23067,0.98854-2.36509,1.4369-3.5667
			c0.46944-1.2581,0.9332-2.52628,1.27164-3.8234c0.48541-1.86028,0.86502-3.74863,1.27069-5.62913
			c0.29305-1.35828,0.58577-2.71793,0.823-4.0866c0.28555-1.64727,0.53692-3.30148,0.75685-4.95882
			c0.1948-1.46783,0.35385-2.94173,0.47847-4.41719c0.14825-1.75554,0.32876-3.51524,0.33633-5.27383
			c0.00745-1.7243-0.12008-3.45657-0.309-5.17205c-0.16116-1.46349-0.44025-2.92033-0.76925-4.35674
			c-0.21095-0.92092-0.61175-1.79783-0.91849-2.69751c-0.22402-0.6571-0.33813-1.37186-0.66805-1.96872
			c-0.86103-1.55784-1.79404-3.0774-2.74169-4.58497c-0.29092-0.4628-0.71899-0.84023-1.0902-1.25138
			c-0.18684-0.20693-0.4276-0.37599-0.5742-0.60653c-0.64166-1.00927-1.619-1.66457-2.48322-2.44418
			c-0.78233-0.70575-1.64528-1.39015-2.20802-2.25599c-0.93083-1.43232-2.30891-2.07868-3.82249-2.31994
			c-0.96154-0.15326-1.8929-0.30095-2.82107-0.60514c-0.47825-0.15672-1.0411-0.08142-1.56419-0.06429
			c-0.27398,0.00897-0.54277,0.16434-0.81707,0.17542c-1.42814,0.05766-2.7782,0.34489-4.14667,0.82623
			c-1.09532,0.38526-1.93509,1.08311-2.88108,1.64148c-0.59294,0.34999-1.1433,0.68693-1.84241,0.70907
			c-1.02308,0.0324-1.81576,0.5456-2.47361,1.26565c-0.52526,0.57497-0.97638,1.21708-1.4735,1.81858
			c-0.47719,0.57741-0.94936,1.16153-1.46298,1.70565c-0.76306,0.80837-1.6099,1.54185-2.33239,2.38335
			c-1.20096,1.39875-2.34002,2.8512-3.48727,4.29523c-0.41493,0.52227-0.86714,1.04343-1.14839,1.63792
			c-0.77512,1.63838-1.50328,3.30129-2.18503,4.98088c-0.66974,1.64994-1.15005,3.38478-1.91647,4.98515
			c-0.71735,1.49792-0.69534,3.18901-1.51995,4.66366c-0.59331,1.06099-0.64281,2.35396-0.66955,3.59497
			c-0.01799,0.83437-0.08595,1.66888-0.16255,2.50047c-0.10501,1.14018-0.27302,2.27545-0.34806,3.41715
			c-0.04185,0.6371,0.00901,1.28822,0.09033,1.92377c0.15966,1.24777,0.28703,2.50893,0.57942,3.7282
			c0.38973,1.62531,0.78236,3.27662,1.4366,4.80417c0.63289,1.47773,1.52858,2.86106,2.44316,4.19366
			c0.625,0.91066,1.38176,1.79235,2.25393,2.45889c1.71024,1.30707,3.59159,2.3376,5.62289,3.12547
			c2.38305,0.92432,4.78925,1.54824,7.35663,1.32471c0.77312-0.06731,1.54862-0.20228,2.30072-0.39386
			c1.1661-0.29704,2.3249-0.63423,3.46512-1.01865c1.35077-0.4554,2.65618-0.98067,3.70058-2.04832
			c0.48814-0.49903,1.15939-0.91717,1.82458-1.12145c0.97233-0.29858,2.04806,0.52872,2.41092,1.62605
			c0.11932,0.36085,0.06682,0.63824-0.17219,0.92831c-0.31846,0.38653-0.57841,0.82201-0.90392,1.20184
			c-0.47078,0.54938-0.94971,1.09771-1.47685,1.59129c-0.58805,0.55055-1.24542,1.02631-1.85102,1.55917
			c-0.46856,0.41225-0.8217,0.95984-1.44885,1.18256c-0.09608,0.03412-0.16167,0.14986-0.24574,0.22285
			c-0.58665,0.50941-1.11845,1.11082-1.7747,1.50468c-1.04707,0.62844-2.18856,1.09722-3.26914,1.67287
			c-1.20968,0.64442-2.46178,1.13743-3.78973,1.50603c-1.70898,0.47437-3.40353,0.89779-5.19428,0.79459
			c-0.47405-0.02731-0.95303,0.00037-1.42821,0.02845c-1.77678,0.10503-3.38151-0.57078-5.03791-1.04964
			c-0.87746-0.25368-1.61109-0.73822-2.39495-1.14806c-0.94135-0.49221-1.93463-0.91561-2.79485-1.5249
			c-1.08539-0.76884-2.09514-1.65672-3.06974-2.56589c-0.79303-0.7398-1.49755-1.56474-1.9845-2.57103
			c-0.36095-0.74593-0.86834-1.4213-1.31523-2.12514c-0.11999-0.18897-0.29295-0.35146-0.38053-0.55269
			c-0.64476-1.48202-1.38801-2.9344-1.87738-4.46728c-0.5249-1.64413-0.85946-3.35613-1.17522-5.05743
			c-0.20309-1.09444-0.32472-2.22536-0.29931-3.33574c0.03575-1.56055,0.20189-3.12196,0.38622-4.67421
			c0.19091-1.60757,0.40212-3.21881,0.73191-4.80191c0.27254-1.30837,0.73188-2.57774,1.10647-3.86497
			C21.94704,61.57187,22.33463,60.23135,22.72324,58.89112z"/>
		<path class="st1" d="M306.75552,97.87867c-0.04108,0.01546-0.08139,0.03498-0.1239,0.04289
			c-0.00943,0.00175-0.02649-0.03742-0.04001-0.05775c0.04099-0.01526,0.08118-0.03477,0.12354-0.04257
			C306.72473,97.81946,306.74182,97.85836,306.75552,97.87867z"/>
	</g>
</g>
</svg>
