<?xml version="1.0" encoding="utf-8"?>
<!-- Generator: Adobe Illustrator 25.4.1, SVG Export Plug-In . SVG Version: 6.00 Build 0)  -->
<svg version="1.1" id="Layer_1" xmlns="http://www.w3.org/2000/svg" xmlns:xlink="http://www.w3.org/1999/xlink" x="0px" y="0px"
	 viewBox="0 0 452.94284 189.0938" style="enable-background:new 0 0 452.94284 189.0938;" xml:space="preserve">
<style type="text/css">
	.st0{fill:#EFEDE5;}
	.st1{fill:#B48039;}
	.st2{fill:#AD8246;}
	.st3{fill:none;stroke:#B48039;stroke-width:0.99892;stroke-miterlimit:10;}
	.st4{fill:#00FFFF;}
</style>
<path class="st1" d="M193.42874,74.17762c0.94295-0.51868,1.70383-1.22097,2.41335-2.04444
	c1.42484-1.65373,2.89333-3.2823,4.46864-4.79089c2.22958-2.13514,4.70154-3.96265,7.54141-5.24446
	c0.66246-0.29901,1.30507-0.64552,1.94202-0.99697c2.52132-1.39118,5.26547-1.43116,8.00822-1.19991
	c1.21002,0.10203,2.44843,0.17253,3.63683,0.59606c1.98956,0.70909,3.73787,1.78329,5.27953,3.20287
	c1.36307,1.25507,2.63757,2.58856,3.53325,4.24034c0.4805,0.88609,1.01065,1.74514,1.50716,2.62273
	c0.36241,0.64056,0.51436,1.33289,0.63602,2.06573c0.50888,3.06544,0.43668,6.14748,0.28525,9.2225
	c-0.06827,1.38599-0.44543,2.75777-0.6972,4.13329c-0.11052,0.60387-0.21724,1.21339-0.39581,1.79894
	c-0.69945,2.29362-1.05476,4.69395-2.19075,6.8537c-0.65186,1.23927-0.92181,2.61156-1.2916,4.07725
	c0.31929,0,0.53841,0.04443,0.73167-0.00748c0.97392-0.26158,1.93747-0.56186,2.91142-0.82332
	c1.97327-0.52972,3.717-1.55753,5.46622-2.5539c1.26328-0.71957,2.49039-1.51716,3.66499-2.37407
	c1.40027-1.02154,2.75-2.11633,4.08086-3.22819c2.2767-1.90208,4.52342-3.84009,6.77916-5.76721
	c1.02682-0.87724,1.92937-1.86089,2.68127-2.99295c0.5571-0.83876,1.22104-1.60581,1.80232-2.42953
	c0.35193-0.49872,0.7041-1.01658,0.93759-1.57539c0.43619-1.04394,1.03641-1.97238,1.67374-2.90056
	c1.10519-1.60952,2.31369-3.14716,3.27054-4.86396c0.54065-0.97016,1.23398-1.87214,1.95911-2.7187
	c1.13519-1.32536,2.11786-2.74743,3.03232-4.22712c0.29111-0.47108,0.61243-0.96094,1.03082-1.30881
	c1.19891-0.99678,2.27371-2.14684,3.65253-2.92957c0.47574-0.27005,0.85544-0.70923,1.30231-1.09106
	c1.06006,0.13524,1.84943,0.77815,2.58514,1.44743c0.71912,0.65422,0.74634,1.67023,0.2041,2.80326
	c-0.41071,0.8582-0.76758,1.75085-1.26208,2.55859c-1.49539,2.44263-2.50662,5.12525-3.85666,7.63607
	c-1.27194,2.36558-2.63812,4.68046-3.96295,7.01759c-0.13812,0.24368-0.31018,0.47409-0.41031,0.73244
	c-0.97253,2.50941-2.36432,4.81779-3.47272,7.26272c-0.64673,1.4266-1.32599,2.83006-1.8623,4.31052
	c-0.35559,0.98174-1.02045,1.85811-1.59052,2.75386c-0.72864,1.14504-1.19055,2.4041-1.65991,3.66232
	c-0.62576,1.67749-1.2648,3.35052-1.85651,5.04004c-0.35095,1.00217-0.72508,2.01443-0.90596,3.05397
	c-0.32539,1.87037-0.54445,3.76138-0.74356,5.65055c-0.08157,0.77377-0.01512,1.56602,0.02032,2.34822
	c0.02274,0.50256,0.18492,1.00613,0.1579,1.50234c-0.10393,1.90932,0.69341,3.4748,1.77708,4.94887
	c0.62933,0.85598,1.25171,1.71719,1.86694,2.58337c0.60559,0.85262,1.44946,1.16697,2.46475,1.19655
	c1.69678,0.04943,3.36896-0.17308,4.98514-0.62343c0.83795-0.2335,1.61359-0.76381,2.35458-1.2548
	c1.07248-0.71065,2.10846-1.48129,3.11987-2.27731c0.56622-0.44563,1.09961-0.95364,1.56345-1.50454
	c0.97964-1.16357,2.09119-2.18594,3.2713-3.12834c1.67679-1.339,3.13989-2.82158,4.25195-4.70001
	c0.71167-1.20212,1.3923-2.4184,2.08167-3.63235c0.54996-0.96839,1.23154-1.86104,1.8074-2.81583
	c1.47729-2.44933,3.32156-4.63212,4.97919-6.94992c1.00613-1.40685,1.93945-2.87059,2.88403-4.32172
	c1.15634-1.77634,2.1803-3.63625,3.47464-5.33949c1.82623-2.40319,3.41754-4.98539,5.09988-7.49734
	c1.11911-1.67097,2.22159-3.35309,3.33228-5.02968c0.12338-0.18623,0.29782-0.35258,0.37085-0.55606
	c0.63205-1.76115,1.80963-3.21085,2.72186-4.81139c0.47131-0.82701,0.90161-1.67909,1.40579-2.48525
	c0.56256-0.89942,1.11688-1.82041,1.80325-2.62201c0.94196-1.10012,1.76041-2.31469,2.93002-3.22145
	c0.4776-0.37034,0.79364-0.94246,1.24521-1.35485c0.48929-0.44687,1.01358-0.88138,1.58875-1.20298
	c1.20709-0.67495,3.11908,0.52631,3.3154,1.70194c0.04901,0.29365-0.06766,0.6592-0.21616,0.93319
	c-0.42456,0.78348-0.96021,1.50969-1.35086,2.30801c-0.71719,1.46563-1.62097,2.81071-2.49786,4.17821
	c-0.93372,1.45625-1.88608,2.91089-2.68024,4.44398c-1.36298,2.63112-2.59558,5.32946-3.90897,7.98672
	c-1.09338,2.21221-1.9809,4.5092-2.92108,6.7868c-0.83206,2.0158-1.83243,3.96149-2.71915,5.95563
	c-0.54504,1.22583-1.04007,2.47551-1.51489,3.73062c-0.73233,1.93552-1.48901,3.86527-2.12262,5.83376
	c-0.66821,2.076-1.29056,4.17522-1.76663,6.30154c-0.30328,1.35492-0.36377,2.77493-0.42499,4.17051
	c-0.07101,1.61812-0.2565,3.24467,0.0433,4.86136c0.09149,0.49338,0.2406,0.97858,0.29919,1.47509
	c0.19403,1.64385,1.37607,2.4989,2.62003,3.2794c1.07791,0.6763,2.20911,0.78268,3.31351,0.02162
	c0.46045-0.31726,0.92307-0.6389,1.34213-1.007c0.8913-0.78294,1.84549-1.44069,2.9556-1.89292
	c0.77408-0.31535,1.50595-0.7415,2.23715-1.15288c0.69928-0.39342,1.23325-0.98132,1.61987-1.67273
	c0.83545-1.494,2.02371-2.67252,3.28238-3.79462c1.30014-1.15909,2.48209-2.42039,3.50275-3.83978
	c0.52112-0.7247,1.10812-1.41434,1.7406-2.04428c1.74908-1.74211,3.33853-3.62026,4.90872-5.52074
	c1.54031-1.86433,2.76791-3.93766,4.09885-5.94269c0.8353-1.25838,1.66815-2.51843,2.50378-3.7766
	c0.0618-0.09305,0.15167-0.16911,0.2048-0.26605c1.16031-2.11557,2.59653-4.04969,3.95297-6.03687
	c1.13351-1.66058,2.16821-3.38429,3.51581-4.89954c0.66101-0.74323,1.11349-1.66862,1.69568-2.48645
	c0.35086-0.4929,0.7948-0.9191,1.15219-1.40794c0.6611-0.90424,1.27524-1.84276,1.93497-2.74804
	c0.82281-1.12903,1.61496-2.28785,2.52414-3.3445c1.09262-1.26982,1.86691-2.80708,3.23663-3.84583
	c0.21634-0.16404,0.37137-0.41935,0.52728-0.65097c1.41245-2.09865,3.1004-3.95863,4.89825-5.72912
	c0.51691-0.50906,0.97552-1.08163,1.42618-1.65247c0.44977-0.56971,0.84677-1.14838,1.67618-1.24283
	c0.29813-0.03394,0.57553-0.32868,0.8443-0.52872c1.67365-1.24575,3.63199-1.69345,5.63101-2.04951
	c1.08554-0.19337,2.02634,0.25376,2.85825,0.77335c1.17996,0.73696,2.23532,1.67433,3.33511,2.53733
	c0.12485,0.098,0.19281,0.26853,0.27353,0.38564c0.02115,0.58807-0.44327,0.74149-0.79089,1.01173
	c-1.54034,1.19754-3.16351,2.28764-4.51379,3.72803c-0.47495,0.5066-0.65378,1.0105-0.63452,1.64935
	c0.0051,0.16808-0.0054,0.3382,0.01672,0.50397c0.237,1.77303,0.42691,3.55456,0.73645,5.31499
	c0.24164,1.37453,0.63464,2.72238,0.95792,4.08268c0.09045,0.38058,0.17712,0.76224,0.25647,1.14528
	c0.05679,0.27391,0.04788,0.57243,0.15451,0.82333c1.25256,2.948,1.64709,6.15276,2.75748,9.14476
	c0.74707,2.01289,0.94244,4.14034,1.15714,6.26095c0.07275,0.71854,0.23611,1.4315,0.40573,2.13553
	c0.14584,0.60531,0.23428,1.19157,0.1416,1.82346c-0.11325,0.77261-0.13928,1.55957-0.17566,2.3416
	c-0.09607,2.06716-0.15643,4.13623-0.2774,6.20183c-0.03558,0.60754-0.19803,1.21326-0.35095,1.80731
	c-0.55777,2.16644-1.1366,4.32745-1.70309,6.49164c-0.01144,0.04377,0.03009,0.10142,0.06271,0.20062
	c0.46988,0.18715,0.82385-0.09045,1.16168-0.3698c1.25165-1.03493,2.50195-2.07164,3.74103-3.12152
	c2.47604-2.09798,4.91626-4.23547,7.48874-6.22158c1.32312-1.02155,2.45569-2.28764,3.6947-3.42096
	c1.98346-1.81423,4.0079-3.58514,5.76639-5.62969c0.10843-0.12611,0.23236-0.24797,0.37119-0.3376
	c1.57425-1.0167,2.80612-2.38486,4.01559-3.79362c0.65118-0.75851,1.44077-1.39966,2.17908-2.08167
	c1.36487-1.26076,2.59818-2.62252,3.4006-4.32455c0.07147-0.15163,0.11053-0.34595,0.22824-0.44425
	c1.86484-1.55718,2.73846-3.77267,3.87595-5.81144c0.92737-1.66221,1.8392-3.33305,2.75751-5.00031
	c0.43048-0.78157,0.83481-1.57213,0.9201-2.59198c-0.33926-0.11253-0.63458-0.28273-0.93753-0.29739
	c-0.89157-0.04317-1.79025-0.08102-2.67828-0.015c-0.95508,0.07099-1.89581,0.09354-2.84601-0.04769
	c-1.04922-0.15594-2.10483-0.271-3.15918-0.39069c-1.05276-0.11952-2.10437-0.14707-3.12082-0.57755
	c-0.5275-0.2234-1.19644-0.11287-1.92282-0.16129c-0.05334-0.08743-0.12561-0.31992-0.28314-0.44525
	c-0.86078-0.68479-0.81656-1.55834-0.46832-2.43392c0.55774-1.40232,1.19946-2.77098,1.78482-4.16265
	c0.29172-0.69336,0.78699-1.03175,1.53049-1.12136c1.78384-0.21499,3.55786-0.32164,5.36057-0.14856
	c2.22952,0.21404,4.47061,0.35488,6.7095,0.40778c1.61984,0.03828,3.24432-0.11629,4.86661-0.18875
	c0.60504-0.02703,1.08459-0.30271,1.3858-0.82064c0.42218-0.7259,0.81503-1.46932,1.20633-2.21268
	c1.27737-2.42657,2.51266-4.87612,3.83194-7.27959c1.29022-2.35043,2.66757-4.65295,3.99765-6.98166
	c0.30554-0.53491,0.62589-1.07042,0.85104-1.64057c0.9115-2.30759,2.2431-4.38107,3.52661-6.48433
	c0.37698-0.61765,0.66855-1.28678,1.01694-1.92259c0.97214-1.77423,2.53101-2.98969,4.13657-4.10373
	c1.01428-0.7038,2.01825-1.40039,2.93588-2.22654c0.28217-0.25401,0.63519-0.42934,0.96075-0.64401
	c1.03207,0.40304,1.69821,1.16859,2.35669,1.91425c0.18695,0.21168,0.27676,0.65204,0.19739,0.92551
	c-0.15234,0.52505-0.38525,1.05989-0.71152,1.49577c-1.72107,2.29941-2.98538,4.85581-4.25806,7.4095
	c-0.12491,0.25065-0.18283,0.55173-0.35645,0.75835c-1.53403,1.82582-2.09885,4.18361-3.39105,6.1388
	c-1.41867,2.14662-2.2988,4.61438-3.95337,6.62037c-0.10562,0.12807-0.19208,0.27916-0.25711,0.43243
	c-1.07712,2.53896-2.6485,4.80082-4.01413,7.17798c-0.21762,0.37881-0.52536,0.74201-0.33246,1.34547
	c0.19104,0.06484,0.43781,0.19545,0.69662,0.22678c0.5556,0.06726,1.11707,0.09167,1.67682,0.119
	c2.85315,0.13924,5.70544,0.31917,8.56036,0.39282c1.68195,0.04338,3.35471,0.09371,5.02002,0.35206
	c0.43668,0.06775,0.89264,0.00712,1.33969,0.01249c0.89529,0.01075,1.79135,0.00714,2.68558,0.04487
	c1.11606,0.04708,2.22995,0.16467,3.34601,0.18564c0.81964,0.01541,1.38559,0.37168,1.78839,1.04591
	c0.4845,0.81086,0.43826,1.64099-0.23608,2.30599c-0.75626,0.74575-1.55695,1.45303-2.38797,2.11467
	c-1.09381,0.87081-2.21954,1.70421-3.36331,2.50861c-0.74619,0.5248-1.57812,0.74126-2.53088,0.7121
	c-1.84668-0.05654-3.69742,0.01873-5.54651,0.04072c-0.33603,0.00401-0.67374,0.04028-1.00772,0.01776
	c-2.61816-0.17656-5.23343-0.41367-7.854-0.53348c-2.51187-0.11485-5.02921-0.11137-7.40903-0.15729
	c-0.81424,0.56241-1.24493,1.2405-1.52887,1.96161c-0.66199,1.68107-1.65955,3.17419-2.52383,4.74087
	c-1.27216,2.30583-2.62372,4.56853-3.8652,6.89038c-0.73779,1.37979-1.31387,2.84522-1.99033,4.25892
	c-1.11227,2.32476-2.08572,4.71023-2.91397,7.14456c-0.8103,2.38166-1.58466,4.78557-1.94135,7.29357
	c-0.04736,0.33279-0.1037,0.66631-0.1196,1.00121c-0.0845,1.78794-0.32504,3.58927-0.18915,5.36126
	c0.14859,1.938,0.3829,3.90064,1.0914,5.75362c0.19913,0.52094,0.3316,1.06722,0.52625,1.5901
	c0.2522,0.67725,0.52853,1.34594,0.80981,2.01181c0.12976,0.30727,0.32825,0.58754,0.4407,0.89982
	c0.86835,2.41022,2.54858,4.17677,4.58038,5.61198c1.79422,1.2674,3.87216,1.31755,5.97327,1.09116
	c3.32349-0.3581,6.18323-1.86816,8.93161-3.62943c0.40353-0.2586,0.72223-0.69585,0.99179-1.10821
	c0.73889-1.13032,1.54968-2.17725,2.58118-3.07333c1.14261-0.99267,2.12277-2.13638,2.86591-3.48663
	c0.58987-1.07172,1.49063-1.24879,2.56091-0.64221c0.1933,0.10954,0.37027,0.25108,0.54428,0.39098
	c1.10757,0.89087,1.25687,1.57375,0.49567,2.73947c-0.88821,1.36033-1.78912,2.71715-2.77222,4.00876
	c-0.53555,0.70361-1.24246,1.27983-1.89178,1.89262c-0.36456,0.34408-0.84924,0.58556-1.14261,0.97628
	c-1.69205,2.25374-3.88354,4.01926-5.82877,6.02394c-0.42072,0.43358-0.95471,0.7644-1.46152,1.10547
	c-0.65042,0.43771-1.29913,0.89139-1.99643,1.24323c-1.44672,0.72993-2.86871,1.57771-4.40118,2.05518
	c-3.98062,1.24023-7.90689,1.1674-11.75992-0.72897c-1.76923-0.87079-3.10629-2.17952-4.39828-3.5515
	c-1.3429-1.42607-2.46762-3.02879-3.23297-4.87426c-0.87866-2.11849-2.00003-4.14116-2.56772-6.3807
	c-0.51089-2.01589-0.85745-4.05022-0.46732-6.14558c0.10138-0.54454,0.08368-1.11674,0.07425-1.67546
	c-0.03983-2.35901,0.05151-4.68412,0.83194-6.96165c0.7067-2.06236,1.24387-4.18318,1.83505-6.28407
	c0.05206-0.18499-0.04977-0.41328-0.09274-0.70798c-0.29364,0.08137-0.53986,0.08416-0.69324,0.20488
	c-0.39478,0.31076-0.76132,0.66096-1.11649,1.01793c-2.24957,2.26105-4.48596,4.53519-6.74368,6.78807
	c-0.51328,0.51218-1.09567,0.95475-1.64136,1.43495c-0.33496,0.29476-0.66815,0.59234-0.98907,0.90217
	c-1.16684,1.12644-2.33044,2.25619-3.49066,3.38942c-0.84116,0.82153-1.61447,1.72524-2.52368,2.4619
	c-2.52505,2.04591-4.71063,4.4771-7.33569,6.40705c-0.4035,0.29666-0.74826,0.67517-1.10977,1.02661
	c-1.24796,1.21333-2.55411,2.34873-4.0701,3.22769c-0.48218,0.27953-0.95349,0.60258-1.36224,0.97903
	c-1.16324,1.07122-2.58185,1.78035-3.81723,2.7328c-2.27115,1.75095-4.86313,2.96855-7.2287,4.55539
	c-1.03598,0.69495-2.19931,1.09172-3.42462,1.31091c-0.43835,0.07841-0.8862,0.12906-1.31058,0.25618
	c-1.60962,0.48221-3.20047,1.03079-4.82101,1.47121c-0.74637,0.20282-1.55005,0.32205-2.31891,0.28673
	c-1.39685-0.06416-2.78738-0.26979-4.17978-0.42329c-0.16507-0.01819-0.33447-0.0585-0.48654-0.12413
	c-3.29114-1.42044-6.25778-3.24591-8.18906-6.41567c-0.72702-1.19327-1.57828-2.31045-2.31702-3.49707
	c-2.27136-3.64842-3.36304-7.66752-3.66965-11.92471c-0.02011-0.27908-0.03882-0.55935-0.08319-0.83503
	c-0.01593-0.09905-0.10574-0.18621-0.16574-0.28522c-0.3107-0.18009-0.54123,0.01545-0.72772,0.21163
	c-0.61575,0.64767-1.18814,1.33752-1.81693,1.97173c-1.73904,1.75401-3.31039,3.64012-4.78091,5.62786
	c-0.82666,1.1174-1.87451,2.07692-2.86389,3.0664c-0.8353,0.83543-1.61246,1.70775-2.24048,2.71126
	c-0.94296,1.50677-2.20032,2.63911-3.82364,3.41317c-1.41095,0.67278-2.77695,1.42264-3.94415,2.52808
	c-0.77222,0.73135-1.82016,1.09-2.90366,1.21101c-2.61792,0.29242-4.98279-0.39857-7.14169-1.86769
	c-0.23135-0.15744-0.44315-0.34822-0.68674-0.48236c-1.53519-0.84558-2.26419-2.30656-2.80341-3.8463
	c-0.32941-0.94059-0.52002-1.9634-0.57364-2.96001c-0.1142-2.12386-0.1066-4.24976,0.02087-6.38223
	c0.15134-2.53201,0.69894-4.9856,1.32864-7.40848c0.77298-2.97425,1.79675-5.88319,2.70282-8.82323
	c0.09219-0.29921,0.12076-0.61802,0.20068-1.04403c-0.28561,0.07953-0.49435,0.07326-0.55527,0.16504
	c-0.39944,0.60202-0.77252,1.22195-1.14163,1.84348c-0.11319,0.19059-0.15897,0.4238-0.28323,0.60481
	c-1.3299,1.93718-2.69489,3.85082-3.99411,5.8082c-0.55621,0.83797-1.12436,1.65807-1.75482,2.44176
	c-0.27487,0.34162-0.48502,0.76236-0.62363,1.18061c-0.25528,0.77022-0.73306,1.38467-1.24838,1.97546
	c-1.87497,2.14962-3.76242,4.28834-5.64523,6.43114c-0.03699,0.04211-0.07947,0.08037-0.11084,0.1263
	c-1.1788,1.72653-2.70419,3.11999-4.25604,4.49704c-0.87753,0.77868-1.64749,1.67763-2.51254,2.47153
	c-1.85739,1.70454-3.86819,3.22159-5.8945,4.71776c-0.64767,0.47821-1.37308,0.73653-2.1601,0.86955
	c-1.92886,0.32599-3.82501,0.89394-5.81848,0.71204c-2.60127-0.23735-4.89658-1.12415-6.64252-3.14291
	c-0.62035-0.71724-1.16812-1.4978-1.73926-2.2568c-0.37024-0.49202-0.68991-1.02575-1.0909-1.49014
	c-0.60608-0.70197-0.9758-1.5015-1.13005-2.40166c-0.23648-1.38048-0.53214-2.75818-0.64664-4.1499
	c-0.09566-1.16239,0.02505-2.34346,0.06552-3.51572c0.01546-0.44698,0.09848-0.89187,0.10942-1.33872
	c0.0735-2.99902,0.67503-5.87478,1.79933-8.66644c0.75243-1.86838,1.29161-3.82158,1.9886-5.71384
	c0.30737-0.8344,0.7684-1.61236,1.16194-2.41483c0.27118-0.55301,0.56804-1.09451,0.81587-1.65768
	c0.99283-2.25604,1.97092-4.51856,2.95488-6.7785c0.04474-0.10276,0.11449-0.19937,0.13686-0.30633
	c0.11707-0.55906,0.76385-1.24853,0.1543-1.64281c-0.5092-0.32938-0.88617,0.48161-1.29996,0.82098
	c-0.64914,0.53239-1.29634,1.06722-1.94901,1.59524c-1.12953,0.91376-2.31685,1.76437-3.38219,2.74738
	c-1.81412,1.67393-3.74779,3.18836-5.73923,4.63831c-0.58768,0.42788-1.16003,0.88408-1.69543,1.37521
	c-2.23991,2.05473-4.79117,3.69478-7.29037,5.39024c-1.42882,0.96931-3.04544,1.66383-4.58829,2.46117
	c-0.29184,0.15083-0.63629,0.1979-0.95338,0.30212c-1.48932,0.48948-2.97574,0.98789-4.46725,1.47061
	c-0.50308,0.16283-0.86626,0.45399-1.15649,0.90635c-1.00214,1.56176-2.17938,2.97443-3.56183,4.22682
	c-0.6597,0.59766-1.25482,1.29155-1.76974,2.01929c-1.31436,1.85753-3.04427,3.30016-4.79657,4.67558
	c-1.28137,1.00575-2.42984,2.13915-3.66321,3.18497c-1.66788,1.41425-3.04456,3.11555-4.68359,4.56574
	c-2.2303,1.9733-4.69957,3.46037-7.56299,4.20218c-1.85713,0.48111-3.73161,0.44618-5.60643-0.2534
	c-1.57654-0.58827-3.133-1.19347-4.60616-2.0027c-0.43867-0.24097-0.89137-0.48782-1.26093-0.81789
	c-2.01207-1.79704-3.87604-3.73325-5.26926-6.06518c-1.21309-2.03046-2.09789-4.2045-2.68436-6.49773
	c-0.71638-2.80118-0.73116-5.66172-0.67215-8.52112c0.03114-1.50983,0.01117-3.05303,0.317-4.51797
	c0.58243-2.78973,0.89357-5.63315,1.74599-8.37434c0.56369-1.81264,0.88165-3.70094,1.33435-5.54932
	c0.13245-0.54076,0.36472-1.05637,0.52032-1.59248c0.05988-0.20617,0.05367-0.43883,0.03711-0.65633
	c-0.00687-0.09004-0.11992-0.17199-0.25708-0.35335c-0.26369,0.13232-0.58258,0.23071-0.82405,0.42522
	c-0.69661,0.56111-1.39413,1.12804-2.03409,1.7514c-2.60902,2.54134-5.53152,4.70476-8.35068,6.99346
	c-1.30203,1.05705-2.55914,2.16935-3.85915,3.22896c-1.9097,1.55654-3.83488,3.09422-5.76283,4.62818
	c-0.98132,0.78082-2.19971,1.09139-3.31221,1.61082c-1.8261,0.85263-3.66084,1.68687-5.49564,2.52074
	c-0.70045,0.31834-1.14569,0.84386-1.46733,1.53983c-1.01326,2.19259-2.22887,4.26394-3.7473,6.15486
	c-0.59489,0.74081-1.16751,1.51345-1.64175,2.33428c-0.93593,1.62004-2.33885,2.71223-3.93626,3.55821
	c-1.25055,0.66226-2.33969,1.52403-3.43571,2.39169c-0.26321,0.20839-0.52513,0.42346-0.81058,0.59796
	c-2.24545,1.37276-4.49994,2.73075-6.74428,4.1053c-1.09669,0.67168-2.15864,1.40193-3.27154,2.04466
	c-0.96722,0.55856-1.97617,1.04738-2.98132,1.53696c-0.86549,0.42154-1.77416,0.57915-2.75656,0.60199
	c-1.10927,0.0258-2.22001,0.27023-3.31639,0.48842c-1.05309,0.20958-2.07818,0.38029-3.15422,0.08488
	c-0.52793-0.14494-1.11159-0.09999-1.67074-0.11526c-0.97032-0.02649-1.90189-0.22211-2.73071-0.72836
	c-1.04719-0.63962-2.39745-0.67685-3.26688-1.65451c-0.79469-0.89362-1.90335-1.38525-2.78089-2.15573
	c-2.58546-2.27003-4.92408-4.78423-6.21746-8.02714c-0.7231-1.81303-1.08878-3.76527-1.1731-5.73863
	c-0.03824-0.89508,0.00128-1.79325-0.01624-2.6896c-0.00498-0.25478-0.08649-0.50807-0.16844-0.95648
	c-0.96194,0.76673-1.81499,1.35358-2.49349,2.15699c-0.21656,0.25642-0.39114,0.56631-0.65151,0.76402
	c-0.57929,0.43987-1.20345,0.82207-1.30158,1.63656c-0.67532,0.45837-0.92459,1.25433-1.43547,1.82951
	c-1.7448,1.96439-3.34914,4.04869-5.23601,5.89576c-0.98746,0.96661-1.97146,1.96629-2.77206,3.13198
	c-0.39479,0.57481-1.08352,0.95369-1.65716,1.39811c-0.61959,0.48004-1.25287,0.9433-1.89307,1.39563
	c-1.11377,0.78694-2.31673,1.35622-3.6996,1.48288c-0.38716,0.03546-0.79823,0.05096-1.14981,0.19447
	c-2.14557,0.87578-4.14498,0.46535-6.10094-0.59183c-1.23786-0.66904-2.40825-1.39833-3.37465-2.45808
	c-0.71062-0.77927-1.53942-1.45622-2.35093-2.13658c-0.91318-0.76559-1.6156-1.68306-2.24258-2.68972
	c-0.67939-1.09083-1.49822-2.09533-2.16903-3.19087c-1.13835-1.85915-2.20985-3.75927-3.30507-5.64471
	c-0.14047-0.24183-0.2395-0.50804-0.38357-0.74741c-1.48371-2.46532-2.4304-5.15752-3.3374-7.86714
	c-0.15989-0.47765-0.31532-0.95821-0.50584-1.42392c-0.70494-1.72313-1.08114-3.52608-1.37603-5.356
	c-0.36746-2.28027,0.28293-4.33043,1.36927-6.27753c0.68722-1.23176,1.58832-2.2761,2.73051-3.14837
	c1.23888-0.94612,2.59254-1.76871,3.59416-3.00768c0.17189-0.21263,0.42006-0.37238,0.65361-0.52501
	c2.1627-1.41331,4.44543-2.60798,6.92593-3.33076c1.92957-0.56226,3.91243-0.94624,5.88007-1.37012
	c0.49825-0.10733,0.94579-0.25871,1.40398-0.4932c1.6895-0.86463,3.43192-1.62663,5.11388-2.50489
	c0.83582-0.43645,1.65955-0.95754,2.35616-1.58704c1.73867-1.57119,3.56276-3.09505,4.78405-5.13102
	c0.88974-1.48325,2.07348-2.75084,2.92107-4.26063c0.49117-0.87493,1.1745-1.64182,1.66783-2.51577
	c0.95995-1.70061,1.9895-3.38487,2.71634-5.18641c0.52121-1.29185,0.95992-2.61533,1.56088-3.88468
	c0.37843-0.7993,0.58486-1.69225,0.78207-2.56276c0.54501-2.40555,0.98154-4.84253,1.06821-7.30311
	c0.06076-1.72562-0.23948-3.45747-0.77446-5.12365c-0.11926-0.37153-0.313-0.73119-0.36318-1.11077
	c-0.20606-1.55817-1.00851-2.83974-1.86097-4.09226c-0.60135-0.88358-1.44474-1.39144-2.55379-1.36624
	c-3.36857,0.07655-6.5743,0.67733-9.28889,2.87116c-0.82555,0.6672-1.65791,1.32598-2.48437,1.99206
	c-0.30463,0.24552-0.56495,0.58104-0.90838,0.73681c-1.00925,0.45776-1.74905,1.23602-2.41347,2.0546
	c-1.17774,1.45102-2.67693,2.54416-4.02837,3.79951c-0.30086,0.27947-0.7813,0.36562-1.23238,0.56425
	c0.07011,1.21741-0.80743,1.97258-1.56078,2.783c-0.45562,0.49014-1.00361,0.89469-1.45657,1.38695
	c-0.37266,0.40499-0.74409,0.84548-0.9782,1.33603c-0.41758,0.87499-0.97689,1.63866-1.63169,2.32875
	c-1.1989,1.2635-2.19527,2.67153-3.14217,4.12605c-0.70113,1.077-1.50499,2.08748-2.19853,3.16901
	c-0.54079,0.84333-0.96529,1.7603-1.47304,2.62603c-0.42395,0.72285-0.81436,1.48876-1.36205,2.11007
	c-0.79079,0.89709-1.36724,1.90818-1.92474,2.94429c-0.82095,1.52573-1.62778,3.05941-2.47191,4.57224
	c-0.84797,1.51969-1.65231,3.05166-2.10292,4.74862c-0.12831,0.48318-0.31561,0.96687-0.5653,1.39859
	c-0.72731,1.25753-1.5008,2.48832-2.25388,3.73099c-0.14499,0.23925-0.3273,0.46946-0.41124,0.72998
	c-0.65401,2.03003-1.83194,3.82285-2.60677,5.80097c-0.34301,0.87571-0.90926,1.66376-1.37164,2.493
	c-0.43517,0.78043-0.91274,1.54135-1.2901,2.34896c-0.64033,1.37042-1.19988,2.77837-1.8256,4.15591
	c-0.41568,0.91515-0.89744,1.80007-1.32986,2.70794c-0.21429,0.44991-0.43139,0.90774-0.56546,1.38495
	c-0.50237,1.7882-1.1512,3.49828-2.2883,4.99982c-0.2976,0.39297-0.47398,0.88301-0.67554,1.34187
	c-0.17954,0.40874-0.28318,0.85255-0.4792,1.25198c-0.59145,1.20522-1.20117,2.40183-1.82638,3.5899
	c-0.20759,0.39449-0.42096,0.82045-0.73932,1.11613c-1.38944,1.29047-2.09007,3.01836-3.02918,4.59704
	c-0.22508,0.37836-0.55788,0.69463-0.85363,1.02839c-0.29768,0.33595-0.60831,0.65935-0.58701,1.115
	c0.28697,0.48914,0.75109,0.53035,1.17886,0.64064c2.49433,0.64312,4.9754,1.34589,7.48843,1.90508
	c1.40904,0.31352,2.80294,0.81658,4.28584,0.71375c0.55573-0.03854,1.11133-0.08685,1.66456-0.15148
	c1.26311-0.14758,2.47072,0.58218,2.89784,1.76505c0.21456,0.59421,0.05708,1.19695-0.48298,1.64471
	c-0.98725,0.81854-1.99215,1.61578-2.98931,2.42241c-0.08689,0.07028-0.20369,0.12717-0.25123,0.21896
	c-0.63425,1.22479-1.93796,1.61253-2.94758,2.36554c-0.80038,0.59694-1.69675,0.80591-2.69705,0.68259
	c-1.38688-0.17096-2.78723-0.20065-4.115-0.7541c-0.55569-0.23163-1.20954-0.21599-1.80667-0.36218
	c-1.90358-0.46605-3.80617-0.92502-5.65765-1.59325c-1.96655-0.70975-4.05699-0.81282-6.11824-1.00899
	c-0.36087-0.03435-0.76541,0.13266-1.11518,0.28574c-1.23162,0.539-2.45396,1.10025-3.66858,1.67674
	c-0.9312,0.44197-1.90741,0.65814-2.92998,0.62996c-0.85456-0.02356-1.21149-0.52159-1.01468-1.33731
	c0.12045-0.49922,0.33961-0.92995,0.70683-1.30981c1.36074-1.40758,2.68287-2.84582,3.81995-4.45216
	c0.61522-0.86909,1.40917-1.55474,2.42535-2.01466c1.52803-0.69159,3.00791-1.49314,4.48614-2.28901
	c0.43072-0.2319,0.86645-0.54219,1.15903-0.92438c0.57596-0.75237,1.12695-1.54267,1.55643-2.38454
	c0.96561-1.89281,1.85854-3.823,2.76588-5.74513c0.62079-1.31509,1.21648-2.64203,1.82204-3.96429
	c0.06993-0.1527,0.13864-0.30671,0.19534-0.46462c0.92664-2.58122,1.85151-5.16309,2.77539-7.7453
	c0.03767-0.1053,0.04339-0.22515,0.09464-0.32201c0.97466-1.84209,1.52798-3.84451,2.21319-5.79674
	c0.09269-0.26408,0.1603-0.54587,0.30129-0.78268c1.13384-1.90437,1.60553-4.05242,2.27743-6.12673
	c0.138-0.42601,0.23317-0.87006,0.41127-1.27822c0.91745-2.10265,1.60622-4.29924,2.64912-6.35185
	c0.35291-0.69458,0.62741-1.44329,0.83215-2.19598c0.47348-1.74069,1.29327-3.32957,2.05328-4.94672
	c0.21404-0.45542,0.45394-0.9002,0.64228-1.36592c1.28089-3.16722,2.47892-6.37029,3.84626-9.4995
	c1.2352-2.82682,2.1099-5.77707,3.19436-8.65403c0.27337-0.72523,0.31852-1.53335,0.51511-2.29131
	c0.46386-1.78844,0.90473-3.58536,1.44921-5.34975c0.6795-2.20189,0.62032-4.41703,0.29157-6.64731
	c-0.20952-1.42138-1.11497-2.47935-2.18734-3.27345c-1.10912-0.8213-2.36045-1.45305-3.82504-1.58818
	c-1.04354-0.09628-1.99712,0.15352-2.97834,0.36213c-0.70927,0.15079-1.41832,0.3031-2.12994,0.44213
	c-0.32919,0.06431-0.67239,0.06726-0.9954,0.15124c-2.94183,0.76483-5.94309,1.11528-8.96966,1.24426
	c-0.94535,0.04029-1.90753-0.02811-2.84478-0.16484c-0.9236-0.13474-1.16986-0.78378-0.68124-1.60773
	c0.22754-0.38368,0.49015-0.75726,0.79236-1.08412c1.47993-1.60071,2.97766-3.18498,4.47111-4.77319
	c0.44869-0.47717,1.01534-0.68522,1.65998-0.686c0.67245-0.00081,1.34688,0.04873,2.01702,0.0126
	c2.01282-0.10851,4.02404-0.24701,6.03565-0.37745c0.16709-0.01083,0.34435-0.01878,0.4967-0.07908
	c1.52792-0.60468,3.16542-0.70881,4.75483-1.01221c2.97199-0.56734,5.90746-0.47226,8.71544,0.84385
	c0.61568,0.28857,1.1709,0.5924,1.58501,1.18044c0.77184,1.09605,1.66863,2.10511,2.42376,3.21157
	c0.56321,0.82523,0.99237,1.74297,1.46467,2.62835c0.10299,0.19306,0.22132,0.43876,0.187,0.63469
	c-0.28914,1.65038,0.47694,3.30066-0.10739,4.97913c-0.30355,0.87196-0.16016,1.89067-0.67229,2.7435
	c-0.08182,0.13626-0.0977,0.32325-0.1087,0.48914c-0.10435,1.57478-0.66224,3.03582-1.10183,4.52903
	c-0.1558,0.52923-0.14155,1.1062-0.26369,1.64813c-0.27137,1.204-0.62933,2.38142-1.20636,3.48272
	c-0.33899,0.64696-0.60663,1.31638-0.47652,2.0807c0.33038,0.15209,0.51303-0.11039,0.69431-0.28583
	c0.84354-0.81642,1.61862-1.66567,2.22106-2.71028c0.52155-0.90434,1.28217-1.70288,2.05368-2.42336
	c1.11168-1.03813,2.04947-2.2168,3.02486-3.3686c0.18022-0.21281,0.32195-0.47079,0.53475-0.64144
	c1.62679-1.30458,2.91571-2.94123,4.37505-4.40972c0.39223-0.39468,0.82128-0.75759,1.26236-1.09756
	c0.44333-0.34171,0.86048-0.66652,1.16579-1.17458c0.24635-0.40995,0.71273-0.69476,1.10127-1.01077
	c0.8681-0.70603,1.77169-1.37005,2.61846-2.10031c1.23296-1.0633,2.52441-2.03892,3.90092-2.90939
	c0.47019-0.29734,0.86411-0.71255,1.31487-1.04398c0.85493-0.62864,1.71472-1.25197,2.59362-1.84627
	c0.64621-0.43697,1.27925-0.95812,1.99925-1.20968c2.68864-0.93937,5.35384-2.01534,8.25458-2.132
	c0.94982-0.03821,1.90588-0.04261,2.85375,0.01929c1.51509,0.09893,2.7957,0.70705,3.82076,1.86574
	c1.41803,1.60289,2.61573,3.35382,3.63191,5.2307c0.18393,0.33971,0.27861,0.72996,0.39717,1.10239
	c0.28856,0.9064,0.57039,1.81498,0.848,2.72481c0.14661,0.48048,0.39775,0.96568,0.39658,1.44826
	c-0.00486,2.00731,0.50352,4.01005,0.06522,6.02008l0.02801-0.01081c-0.00001,0.12986-0.00003,0.25971-0.00005,0.38958
	l-0.0276-0.01045c-0.21434,1.94978-0.55892,3.87748-1.09257,5.76401c-0.28887,1.02126-0.62265,2.03793-1.03727,3.01371
	c-0.72184,1.69884-1.43739,3.41035-2.31684,5.02895c-0.66273,1.21971-1.5215,2.34726-2.39245,3.43628
	c-1.50171,1.8777-2.69289,3.97019-4.15675,5.86904c-1.33204,1.72785-2.66792,3.45641-4.34551,4.8828
	c-0.55325,0.4704-1.03751,1.02097-1.57325,1.51317c-0.61721,0.56705-1.20274,1.19127-1.89535,1.64968
	c-3.26141,2.15858-6.44595,4.44014-9.97632,6.1731c-0.93909,0.46097-1.74783,1.1818-2.6397,1.74655
	c-0.65714,0.41611-1.32631,0.83099-2.03536,1.14387c-1.79016,0.78996-3.60515,1.51579-5.27244,2.5667
	c-0.45403,0.28619-1.03511,0.38677-1.57008,0.52545c-1.35316,0.35073-2.70938,0.69164-4.07203,1.00301
	c-0.80558,0.18409-1.24635,0.68779-1.47009,1.44485c-0.22557,0.7632-0.30009,1.53349-0.19738,2.32625
	c0.33212,2.56317,0.80005,5.08287,2.02176,7.4088c0.27933,0.53177,0.35904,1.16469,0.57476,1.73434
	c0.45477,1.20099,0.84913,2.43652,1.42922,3.57595c1.23984,2.43533,2.48063,4.88091,3.9105,7.20576
	c1.46066,2.37492,2.99579,4.71328,4.93303,6.76509c1.07992,1.14379,2.4125,1.86061,3.7893,2.4128
	c1.19031,0.47739,2.57063,0.34289,3.78029-0.16431c1.2757-0.53489,2.65591-0.94904,3.56725-2.11919
	c2.47762-1.83227,4.16389-4.33177,5.798-6.87545c0.36332-0.56554,0.69619-1.1546,1.10169-1.68829
	c0.95145-1.25218,1.78257-2.57377,2.55199-3.94586c0.43386-0.77367,1.01277-1.47769,1.59583-2.15311
	c0.77386-0.89646,1.4547-1.82662,1.93721-2.92509c0.67504-1.53676,1.4446-3.02869,2.53664-4.33497
	c0.39066-0.4673,0.76113-1.00388,0.95547-1.57223c0.43342-1.26756,1.23245-2.27731,2.18822-3.12617
	c2.00005-1.77632,3.41267-3.98509,4.79977-6.21626c1.03598-1.66637,2.15984-3.25511,3.44981-4.73833
	c0.73087-0.84035,1.37979-1.76799,1.95539-2.72278c0.55614-0.9225,1.26453-1.66969,2.06777-2.36379
	c0.93084-0.80437,1.76447-1.69553,2.54565-2.6609c1.72449-2.1311,3.75226-3.98032,5.71358-5.89399
	c1.65195-1.61182,3.60303-2.84404,5.2578-4.4376c0.19761-0.19031,0.45215-0.32465,0.6893-0.47026
	c2.0956-1.28678,4.18451-2.58487,6.29643-3.84436c0.5226-0.31166,1.10526-0.54946,1.68907-0.7262
	c1.28632-0.38941,2.58521-0.74156,3.88962-1.06597c1.65503-0.41162,3.31532-0.51186,4.97342,0.03067
	c0.42357,0.13859,0.87268,0.20063,1.31143,0.29115c1.81703,0.37489,3.33852,1.25465,4.57184,2.6432
	c1.57339,1.77139,2.79817,3.77314,3.90012,5.8572c0.15675,0.29646,0.27655,0.61365,0.44656,0.9017
	c0.63905,1.08261,0.92938,2.27446,1.1113,3.49887c0.18907,1.27272,0.32153,2.55488,0.54547,3.82112
	c0.32451,1.83487,0.43321,3.66298,0.14392,5.5137c-0.07655,0.48986-0.06564,1.01064,0.00568,1.50263
	c0.13094,0.903,0.03682,1.77176-0.11105,2.6668c-0.30995,1.87607-0.43289,3.78571-0.79716,5.64941
	c-0.39619,2.02706-0.61455,4.09425-1.25195,6.07259c-0.06841,0.21228-0.10956,0.43476-0.14719,0.65527
	c-0.22235,1.30241,0.2135,1.70062,1.47945,1.19728c1.29774-0.51596,2.53923-1.17364,3.80383-1.77245
	c0.15158-0.07178,0.28442-0.19945,0.44174-0.24031c2.21967-0.57632,4.0513-1.88803,5.86801-3.18472
	c1.8634-1.32996,3.75435-2.63754,5.40314-4.24699c0.28015-0.27346,0.56841-0.54756,0.88892-0.76931
	c2.13287-1.47562,3.81555-3.45572,5.75528-5.1484c0.78746-0.68715,1.33321-1.64946,1.99869-2.47875
	c0.55962-0.69737,1.1555-1.36661,1.69598-2.07818c0.97934-1.2893,2.09579-2.47144,2.78865-3.98033
	c0.3429-0.74668,0.94095-1.38596,1.47157-2.03454c0.96672-1.18162,1.74039-2.44616,2.21864-3.91833
	c0.86916-2.67553,2.25645-5.12057,3.59602-7.57808c1.09851-2.01526,2.30415-3.9721,3.40372-5.98682
	c0.9912-1.81618,1.8723-3.69229,2.85725-5.51205c1.25574-2.32009,2.24814-4.75634,3.285-7.17439
	c0.13217-0.30822,0.28618-0.60901,0.45294-0.90012c0.88905-1.55187,1.80727-3.07576,2.51256-4.73927
	c0.6062-1.42986,1.54478-2.71976,2.34651-4.0655c0.74358-1.24813,1.50912-2.48319,2.24876-3.73361
	c0.54071-0.91413,1.03992-1.8529,1.58441-2.7647c1.03914-1.74011,2.342-3.26905,3.80467-4.66585
	c0.04047-0.03867,0.07536-0.08325,0.11644-0.12121c0.97014-0.89673,1.59879-2.09521,2.89609-2.72686
	c1.13731-0.55376,2.05928-1.52875,3.25632-2.05277c0.34808-0.15238,0.62485-0.46609,0.93733-0.70186
	c0.2679-0.20214,0.52371-0.42743,0.81348-0.59216c0.8941-0.50829,1.37416-0.43181,2.07677,0.32976
	c0.30301,0.3284,0.5555,0.70286,0.85013,1.03961c0.29321,0.3351,0.61047,0.64913,0.95564,1.01295
	c-0.04126,0.32441-0.04315,0.6613-0.13043,0.97438c-0.70819,2.54021-1.54271,5.05346-2.72394,7.39985
	c-0.87518,1.73853-1.49588,3.59576-2.64288,5.22783c-0.92079,1.31015-1.48093,2.88009-2.15317,4.35659
	c-0.55875,1.22712-1.22212,2.36876-2.03232,3.45808c-1.09921,1.47794-2.07301,3.05307-3.04218,4.6226
	c-0.82312,1.33302-1.51031,2.75119-2.35423,4.06985c-0.96364,1.50567-1.96951,2.99377-3.07385,4.39762
	c-1.52629,1.94028-2.9045,3.97072-4.17969,6.08015c-0.4328,0.71588-0.99397,1.35291-1.45082,2.05568
	c-1.31332,2.02019-2.72623,3.9614-4.27301,5.813c-1.8046,2.16021-2.73718,4.72704-3.24384,7.46545
	c-0.00014-0.00011-0.06224,0.02723-0.06224,0.02723L193.42874,74.17762z M127.9188,101.14301
	c0.04768-0.67381,0.23064-1.3186,0.66582-1.85527c1.51591-1.86939,3.03279-3.73843,4.5808-5.58115
	c0.62579-0.74493,1.2187-0.82163,2.08633-0.36047c0.2915,0.15495,0.53392,0.40044,0.8053,0.59544
	c1.27191,0.91392,2.52205,1.86118,3.82919,2.72179c0.69702,0.45892,1.48604,0.78317,2.24831,1.1363
	c0.57816,0.26781,0.95184,0.07695,1.15186-0.54577c0.06825-0.21249,0.09137-0.43911,0.15268-0.65427
	c0.64618-2.26807,0.98512-4.59283,1.30202-6.92327c0.17378-1.27817,0.34392-2.55025,0.26221-3.84789
	c-0.07387-1.17271-0.17427-2.3543-0.10435-3.52249c0.06793-1.13548-0.0139-2.24622-0.23282-3.34187
	c-0.38382-1.92105-0.82001-3.8326-1.27861-5.73746c-0.45441-1.88745-1.47919-3.49543-2.61455-5.035
	c-0.58163-0.7887-1.34187-1.39504-2.29604-1.61451c-1.41508-0.32545-2.83458-0.65997-4.30592-0.67085
	c-0.69858-0.00516-1.35167,0.12444-1.91153,0.52166c-1.09505,0.77694-2.22438,1.52441-3.2211,2.4164
	c-1.33324,1.19315-2.55908,2.50697-3.82146,3.77848c-1.22107,1.22991-2.38516,2.51676-3.7354,3.61526
	c-0.34181,0.27808-0.67625,0.60358-0.906,0.97429c-0.88877,1.43401-1.94871,2.73188-3.03381,4.01598
	c-0.46757,0.5533-0.84459,1.1823-1.30054,1.74636c-1.76525,2.18377-3.30814,4.50893-4.59811,7.006
	c-0.43452,0.84113-0.98301,1.6226-1.44639,2.44983c-0.5741,1.02487-1.1462,2.05328-1.65888,3.10943
	c-0.46286,0.95348-0.85087,1.94373-1.25889,2.92319c-0.1715,0.41167-0.26864,0.85827-0.47086,1.25242
	c-0.49236,0.9596-0.81958,1.97277-0.95844,3.03159c-0.23287,1.77574-0.35605,3.5667-0.61828,5.3375
	c-0.19946,1.34701-0.14614,2.66402,0.02825,4.00425c0.3576,2.74812,1.45237,5.15328,3.25623,7.23446
	c1.10118,1.27046,2.34763,2.38013,3.69338,3.40562c1.71807,1.30918,3.47426,2.35395,5.69571,2.60811
	c1.36118,0.15573,2.66346,0.15556,3.99367-0.11116c0.93141-0.18675,1.87414-0.37083,2.81928-0.42434
	c2.11701-0.11987,3.87254-0.99216,5.42256-2.37715c0.54178-0.48411,1.12631-0.9208,1.66211-1.41107
	c1.31238-1.20084,2.81874-2.14622,3.93034-3.62166c1.80995-2.4024,3.00716-5.0988,4.26118-7.78275
	c0.04698-0.10056,0.0719-0.2123,0.09996-0.32067c0.21199-0.81865-0.01292-1.31268-0.79927-1.57944
	c-0.52789-0.17909-1.08142-0.30226-1.63321-0.38723c-1.23555-0.19025-2.35675-0.58544-3.37018-1.3672
	c-0.79314-0.61182-1.7272-1.03728-2.56705-1.59328c-0.79086-0.52357-1.50862-1.16216-2.31813-1.65155
	C128.75488,102.31589,128.25735,101.83569,127.9188,101.14301z M185.56952,105.61729c0,0.4469-0.03209,0.89664,0.00711,1.34007
	c0.06847,0.77509,0.13377,1.55585,0.28844,2.31634c0.144,0.70783,0.38303,1.39899,0.61522,2.08566
	c0.4119,1.21804,0.82637,2.4362,1.28328,3.63777c0.66519,1.74943,1.75572,3.27139,2.95148,4.6585
	c1.41957,1.64671,3.25887,2.69418,5.5461,2.73523c0.36247,0.00651,0.79156,0.13889,1.06709,0.36359
	c0.59976,0.48912,1.22382,0.47375,1.90239,0.31317c0.76915-0.18201,1.51021-0.41954,2.1385-0.9297
	c0.86755-0.70442,1.74481-1.39685,2.61497-2.09805c0.26086-0.21022,0.48659-0.57304,0.77208-0.6247
	c1.17377-0.21241,1.96173-1.07775,2.85529-1.69932c1.36996-0.95299,2.66705-2.05943,3.81305-3.27265
	c1.26512-1.33936,2.13846-3.00005,3.07635-4.5853c0.73288-1.23876,0.59995-1.40234-0.79951-1.8307
	c-2.45703-0.75209-4.99545-1.33408-6.98193-3.13878c-0.08156-0.07409-0.18312-0.13387-0.28534-0.17632
	c-1.02632-0.42638-1.70274-1.23937-2.35725-2.08914c-0.93922-1.21944-0.98131-1.5584-0.21936-2.84398
	c0.19955-0.33672,0.41074-0.67441,0.6658-0.96904c1.39229-1.60825,2.78023-3.22111,4.21088-4.79494
	c0.68155-0.74976,1.07675-0.83154,1.91687-0.29977c0.89252,0.56494,1.78688,1.1885,2.50667,1.95058
	c1.11479,1.18023,2.57312,1.76834,3.91135,2.5651c0.27199,0.16193,0.64015,0.18866,0.96967,0.22297
	c1.48694,0.15479,1.50168,0.13752,1.99748-1.33608c0.0714-0.21229,0.16049-0.41867,0.23085-0.63127
	c1.30943-3.95502,2.2142-7.98299,2.19551-12.17779c-0.00124-0.27959-0.01413-0.56629,0.03923-0.83772
	c0.23091-1.17419,0.18559-2.33771-0.04796-3.50584c-0.13162-0.65837-0.26744-1.32287-0.31113-1.99051
	c-0.11298-1.72717-0.73488-3.26688-1.64034-4.70862c-1.87096-2.9791-4.4068-4.86913-8.07378-4.88699
	c-0.16765-0.00081-0.3364-0.0146-0.50266-0.03699c-1.74908-0.23557-3.4641,0.04507-5.16908,0.37532
	c-0.48294,0.09353-0.97923,0.27626-1.39389,0.53782c-2.18665,1.37933-4.28647,2.8672-5.6955,5.11567
	c-0.27473,0.43841-0.61348,0.79031-1.10443,0.99101c-0.53618,0.21922-0.92831,0.5847-1.19987,1.11723
	c-0.17406,0.34129-0.46245,0.62887-0.72095,0.92164c-0.96846,1.09675-1.81218,2.27424-2.43199,3.60701
	c-0.18829,0.40481-0.38596,0.81628-0.64987,1.17242c-0.43761,0.59047-0.75615,1.22565-1.05196,1.89926
	c-0.7265,1.6544-1.69705,3.17081-3.1423,4.29456c-1.36348,1.06017-2.10454,2.4174-2.34167,4.11021
	c-0.1552,1.10776-0.37271,2.20941-0.61705,3.30154C185.68225,99.02672,185.39355,102.30128,185.56952,105.61729z
	 M354.90826,67.09063c-0.26047,0.0712-0.46646,0.0649-0.56647,0.16476c-0.78867,0.78741-1.58896,1.56726-2.32086,2.40602
	c-0.50998,0.5845-0.91656,1.25909-1.37173,1.89169c-0.16281,0.22626-0.44327,0.43133-0.47864,0.67399
	c-0.10849,0.74269-0.65231,1.13431-1.10956,1.61758c-0.34406,0.36373-0.65002,0.77129-0.92624,1.19016
	c-1.14273,1.73304-2.39349,3.37662-3.83231,4.87888c-0.33929,0.3543-0.61929,0.79321-0.82886,1.2391
	c-0.76703,1.63199-1.65848,3.1763-2.90482,4.49622c-0.15323,0.16233-0.29913,0.33624-0.42114,0.52265
	c-1.06961,1.63358-2.15158,3.25954-3.18851,4.91373c-0.38086,0.60758-0.77206,1.25196-0.40042,2.04111
	c0.27002,0.57342,0.08295,1.0953-0.28979,1.56045c-0.38455,0.47992-0.78607,0.94624-1.17337,1.424
	c-0.35175,0.43388-0.78391,0.8312-1.02451,1.32128c-0.76813,1.56454-1.3537,3.23481-1.44931,4.96043
	c-0.1203,2.17173-0.03101,4.36472,0.12167,6.53772c0.07315,1.04101,0.42923,2.08253,0.78473,3.07826
	c0.4697,1.31558,1.03085,2.60203,1.61697,3.87132c0.42123,0.91213,0.90683,1.80112,1.43802,2.65414
	c0.59042,0.94821,1.30014,1.82192,1.89523,2.7675c0.94974,1.50903,2.16638,2.66289,3.81583,3.40971
	c1.43423,0.64937,2.91101,0.76509,4.42847,0.65735c0.36935-0.02622,0.76215-0.20972,1.0762-0.42162
	c0.57635-0.38884,1.18411-0.5799,1.87381-0.64447c2.12595-0.19905,3.79941-1.22643,5.09747-2.89813
	c0.17148-0.22077,0.33237-0.45065,0.51541-0.66129c0.46777-0.53811,1.0426-0.83782,1.77698-0.75491
	c0.2226,0.02512,0.44507,0.05111,0.66772,0.07547c0.42517,0.04652,0.75665-0.10624,1.0253-0.44209
	c1.02933-1.28688,1.69043-2.77029,2.06491-4.34396c0.23206-0.97526,0.40872-1.96172,0.68204-2.93421
	c0.27063-0.96301,0.37323-1.97527,0.51959-2.97034c0.07315-0.49702,0.04895-1.00829,0.12109-1.50552
	c0.42932-2.95956,0.35455-5.94144,0.03949-8.88263c-0.28497-2.66-0.83585-5.30608-1.62259-7.88406
	c-0.42419-1.38999-0.81183-2.79142-1.25421-4.17547c-0.27222-0.85173-0.61954-1.67934-0.92783-2.51974
	c-0.30807-0.83971-0.67169-1.66527-0.90094-2.52632c-0.47504-1.78414-0.88007-3.58701-1.30692-5.38384
	c-0.09042-0.38072-0.18213-0.76546-0.2204-1.15354c-0.241-2.44814-0.78967-4.86483-0.73938-7.3446
	C355.21643,67.70322,355.0181,67.40488,354.90826,67.09063z M76.11461,124.08602c0.06636-0.06448,0.13272-0.12897,0.19909-0.19346
	c-0.0405-0.03178-0.1057-0.09811-0.11746-0.0897c-0.07388,0.05283-0.13586,0.12228-0.20177,0.18624
	C76.03433,124.02122,76.0742,124.05335,76.11461,124.08602z"/>
<path class="st1" d="M103.26646,44.25768c0.00001,0.12261,0.00002,0.24524,0.00021,0.36808
	c0.00016,0.00024,0.02776,0.01069,0.02785,0.01065c0.00005-0.12987,0-0.2597-0.00005-0.38953L103.26646,44.25768z"/>
</svg>
