<?xml version="1.0" encoding="utf-8"?>
<!-- Generator: Adobe Illustrator 25.4.1, SVG Export Plug-In . SVG Version: 6.00 Build 0)  -->
<svg version="1.1" id="Layer_1" xmlns="http://www.w3.org/2000/svg" xmlns:xlink="http://www.w3.org/1999/xlink" x="0px" y="0px"
	 viewBox="0 0 594.99548 188.99892" style="enable-background:new 0 0 594.99548 188.99892;" xml:space="preserve">
<style type="text/css">
	.st0{fill:#EFEDE5;}
	.st1{fill:#B48039;}
	.st2{fill:#AD8246;}
	.st3{fill:none;stroke:#B48039;stroke-width:0.99892;stroke-miterlimit:10;}
</style>
<g id="Bittercube-Flavors-06_1_00000027575839947930855690000002101949108803964847_">
	<g>
		<path class="st1" d="M560.48621,106.85146c-1.2868,0.85543-2.21112,1.8791-2.7373,3.21693
			c-0.45386,1.15401-1.06006,2.22307-1.90991,3.14276c-0.18835,0.2038-0.37006,0.42944-0.49243,0.67596
			c-1.03357,2.08223-2.5813,3.77611-4.07153,5.52442c-1.38007,1.61908-2.65765,3.32556-3.97888,4.99472
			c-0.13904,0.17567-0.24841,0.37893-0.40479,0.53625c-1.57794,1.58738-3.07587,3.26997-4.77441,4.71664
			c-1.26758,1.07957-2.76508,1.90738-4.21991,2.74332c-1.15991,0.66652-2.40295,0.39159-3.37622-0.56114
			c-0.03992-0.03905-0.06976-0.08876-0.11108-0.12601c-3.2099-2.89619-4.07581-6.73916-4.13275-10.79684
			c-0.05188-3.70772,0.60858-7.35577,1.47473-10.9658c0.52197-2.17577,0.89783-4.38677,1.32611-6.58453
			c0.02765-0.14185-0.05902-0.30598-0.11176-0.54817c-0.6864,0.24487-1.00128,0.7926-1.32159,1.29164
			c-0.33099,0.51572-0.54553,1.10498-0.85968,1.63312c-0.31097,0.5228-0.59351,1.11631-1.04413,1.49234
			c-1.46735,1.22453-2.2959,2.8838-3.19202,4.49106c-0.38641,0.69307-0.75391,1.3279-1.40533,1.83155
			c-0.51508,0.39825-0.96857,0.9528-1.27313,1.53079c-0.63556,1.20621-1.47736,2.24458-2.37244,3.24688
			c-2.05127,2.29708-4.1228,4.57615-6.18506,6.86346c-1.00934,1.1195-1.99487,2.26134-3.02881,3.35764
			c-2.38947,2.53354-5.36124,4.00726-8.75171,4.65445c-0.65027,0.1241-1.34903,0.13106-2.0054,0.043
			c-0.53275-0.07153-1.10895-0.26576-1.53958-0.5791c-2.51343-1.8289-4.11844-4.21214-4.45538-7.38695
			c-0.14862-1.3997-0.26059-2.78112-0.09052-4.18581c0.18158-1.499,0.24167-3.01427,0.46381-4.5062
			c0.13889-0.93278,0.396-1.86877,0.74551-2.74529c0.87631-2.19751,1.38959-4.49239,1.95352-6.77533
			c0.06021-0.24378,0.03394-0.5089,0.06403-1.06271c-1.21552,1.01137-2.06174,1.95648-2.76797,3.02443
			c-0.37,0.55952-0.64499,1.18122-1.00522,1.74796c-0.50919,0.80109-0.9888,1.63646-1.60458,2.35062
			c-0.99789,1.15726-1.87537,2.35802-2.39459,3.8159c-0.16232,0.45584-0.49844,0.87684-0.83536,1.23904
			c-2.05798,2.21246-4.13916,4.40327-6.21219,6.60171c-0.15372,0.16302-0.32172,0.31635-0.45343,0.49589
			c-1.74097,2.37293-4.02826,4.19958-6.19052,6.14497c-0.78488,0.70616-1.66629,1.34903-2.5994,1.83792
			c-2.57712,1.35022-6.32938,0.64987-7.92468-1.87291c-1.33365-2.10904-2.28784-4.28837-2.76492-6.78099
			c-0.66348-3.46594-0.53571-6.90782-0.366-10.37488c0.05472-1.11868,0.13907-2.23594,0.19321-3.35466
			c0.00699-0.1444-0.08691-0.29362-0.13367-0.43945c-0.14377,0.03947-0.30728,0.03754-0.33667,0.09937
			c-0.53809,1.13053-1.38171,2.02897-2.18948,2.96009c-0.69696,0.80347-1.22861,1.72421-1.80771,2.61498
			c-0.78656,1.20987-1.78375,2.29542-2.77463,3.3558c-0.84564,0.90495-1.70673,1.77206-2.20383,2.93585
			c-0.12888,0.30167-0.36084,0.56662-0.57578,0.82298c-1.54642,1.84458-3.08246,3.69838-4.65765,5.5182
			c-1.51428,1.74945-3.32489,3.17241-5.26031,4.41422c-1.61453,1.0359-4.07913,0.66185-5.58643-0.83612
			c-1.65131-1.64117-2.86356-3.52539-3.34106-5.89543c-0.45587-2.26256-0.78107-4.52502-0.81656-6.82413
			c-0.01636-1.05905,0.06329-2.1294,0.21103-3.17893c0.23398-1.66248,0.48779-3.32883,0.86594-4.96281
			c0.68097-2.94248,1.44571-5.866,2.20499-8.78977c0.33762-1.30007,0.79269-2.57021,1.11432-3.87373
			c0.73907-2.99576,1.72861-5.91103,2.7251-8.82594c0.09988-0.29221,0.0947-0.62038,0.17941-1.22598
			c-0.44623,0.33598-0.71274,0.44757-0.8407,0.64771c-0.72241,1.12964-1.46841,2.25049-2.0946,3.43346
			c-0.52768,0.99683-1.07132,1.95979-1.84714,2.7881c-0.88892,0.94904-1.60541,2.01666-2.04294,3.25177
			c-0.53183,1.5015-1.36365,2.80798-2.43787,3.98477c-1.21384,1.3297-2.20599,2.79889-2.92712,4.47746
			c-0.38858,0.90448-1.07605,1.69424-1.69733,2.48162c-0.76825,0.97376-1.43442,1.99332-1.95288,3.12476
			c-0.27582,0.60185-0.61917,1.22032-1.08197,1.6805c-1.76099,1.75105-2.96353,3.94234-4.6181,5.76501
			c-1.73581,1.91218-3.14978,4.07066-4.79089,6.04301c-1.14154,1.37193-2.26968,2.76738-3.45715,4.09323
			c-1.23047,1.37387-2.89688,2.20917-4.72714,2.74181c-1.91049,0.55597-5.07144-1.3708-5.56366-3.38968
			c-0.38287-1.57037-0.97177-3.11317-0.74777-4.78522c0.04398-0.32794,0.01715-0.67734-0.04218-1.00505
			c-0.27655-1.52753-0.00888-3.00481,0.32169-4.49146c0.76657-3.4473,1.61243-6.87016,2.91211-10.16299
			c0.96503-2.44487,2.04306-4.85038,2.88882-7.33535c0.63223-1.85773,1.39716-3.64101,2.2012-5.4233
			c1.17432-2.60297,2.24786-5.2514,3.36676-7.87942c0.24109-0.56628,0.50006-1.12501,0.73813-1.69252
			c1.25479-2.99048,2.50641-5.9811,3.93756-8.89486c0.68936-1.4036,1.30789-2.84628,1.87781-4.30285
			c0.41199-1.05296,0.51428-2.18231,0.38831-3.31187c-0.09601-0.86101-0.51208-1.32124-1.3822-1.44267
			c-1.04303-0.14555-2.07257-0.34756-3.15329,0.00779c-0.66364,0.21821-1.44052,0.19006-2.15536,0.13277
			c-1.2572-0.10081-2.12817,0.27163-2.71069,1.47487c-0.77933,1.6097-1.70102,3.15068-2.56595,4.7187
			c-0.16232,0.29422-0.31238,0.60406-0.52383,0.86081c-1.61328,1.95878-2.73557,4.22742-4.05133,6.37399
			c-0.79333,1.29427-1.50116,2.62077-1.90741,4.10019c-0.12961,0.47202-0.41617,0.90798-0.66959,1.33771
			c-0.73843,1.25214-1.49911,2.49105-2.24597,3.73824c-1.12115,1.87223-2.23837,3.74685-3.35626,5.62103
			c-0.22845,0.38301-0.45462,0.76737-0.67822,1.15318c-0.39151,0.67544-0.70779,1.40926-1.18414,2.01798
			c-1.28119,1.63735-2.30869,3.4215-3.32803,5.22482c-0.48801,0.86332-1.2742,1.55354-1.88232,2.35487
			c-0.50372,0.66383-1.00449,1.34285-1.40109,2.07248c-1.01935,1.87527-2.0535,3.71665-3.64734,5.2022
			c-0.81122,0.7561-1.5358,1.62329-2.01114,2.67004c-0.17825,0.39254-0.52258,0.71606-0.81732,1.04784
			c-0.44571,0.50169-0.98297,0.93543-1.36133,1.48125c-1.70499,2.45959-3.96732,4.38448-6.06747,6.46918
			c-1.07019,1.06232-2.08478,2.18987-3.03702,3.35921c-0.97766,1.20056-2.19614,2.13335-3.51202,2.81944
			c-1.79578,0.93633-3.71884,1.0746-5.60406-0.03696c-2.31244-1.36345-3.26074-3.38565-3.26071-6.00986
			c0.00006-2.70774,0.49802-5.34824,0.97244-7.98716c0.20541-1.14266,0.7684-2.21764,1.12506-3.33736
			c0.42474-1.33357,0.7782-2.68998,1.2074-4.02204c0.41214-1.27901,0.88513-2.53832,1.32327-3.80911
			c0.10538-0.30577,0.17865-0.62265,0.26215-0.91832c-0.43286-0.26518-0.57568,0.04145-0.71667,0.24284
			c-1.38037,1.97199-2.74274,3.9566-4.12369,5.92822c-1.02747,1.46698-2.06741,2.92536-3.11472,4.37825
			c-2.25589,3.12963-4.49008,6.27565-6.79456,9.36922c-1.0351,1.38948-2.21158,2.67422-3.33493,3.99715
			c-0.96893,1.14111-2.26526,1.83304-3.59048,2.42995c-2.25958,1.01779-4.41357,0.45735-6.40213-0.7596
			c-0.9426-0.57681-1.7543-1.38359-2.56836-2.1469c-0.35617-0.33397-0.68015-0.78439-0.82843-1.24342
			c-0.56653-1.75362-1.08755-3.52077-0.93924-5.41026c0.12692-1.61742,0.15833-3.24246,0.29266-4.85909
			c0.05984-0.71983,0.27829-1.42554,0.40845-2.14063c0.51224-2.81499,1.18439-5.58582,2.17828-8.27553
			c0.24561-0.66474,0.48822-1.35343,0.41864-2.24031c-0.37201,0.2338-0.68192,0.3479-0.87839,0.5648
			c-1.61594,1.78381-3.19223,3.60373-4.81717,5.37912c-1.6618,1.81565-3.37094,3.58789-5.04694,5.39068
			c-0.57098,0.61418-1.07364,1.29372-1.66266,1.88884c-0.70743,0.7148-1.47348,1.37164-2.21509,2.05253
			c-0.04099,0.03762-0.10016,0.05788-0.1348,0.09958c-1.40863,1.69511-3.33511,2.77409-4.98398,4.18336
			c-0.46616,0.39842-0.99048,0.72803-1.47769,1.10275c-0.57462,0.44196-1.14005,0.896-1.70532,1.34998
			c-0.30505,0.24503-0.57199,0.55258-0.90662,0.74335c-2.09204,1.19272-4.1991,2.35808-6.56683,2.938
			c-0.38052,0.0932-0.77023,0.17052-1.13214,0.3145c-2.64969,1.05417-5.36771,1.01424-8.10416,0.4874
			c-0.72922-0.14038-1.43085-0.16809-2.16348-0.07889c-1.11011,0.13516-2.22778,0.2812-3.3429,0.28653
			c-2.44177,0.01167-4.55438-0.87827-6.51187-2.34389c-1.56805-1.17403-2.68793-2.67171-3.74191-4.26105
			c-0.33371-0.50327-0.58551-1.08792-1.24478-1.3269c-0.61526,0.33456-0.80994,0.94525-1.05124,1.48625
			c-0.68652,1.53904-1.49048,2.99505-2.47354,4.37492c-1.04062,1.46065-1.78156,3.1057-2.39136,4.79514
			c-1.1218,3.10791-2.21912,6.22464-3.32489,9.33832c-0.14999,0.42235-0.3179,0.84102-0.42999,1.27371
			c-0.66068,2.55099-1.54459,5.02554-2.50058,7.47797c-0.26349,0.67589-0.43195,1.3884-0.65482,2.08061
			c-0.63388,1.96881-1.21585,3.95694-1.92752,5.89737c-0.65479,1.78525-1.45306,3.51778-2.185,5.27486
			c-0.30136,0.7234-0.78757,1.43347-0.8522,2.17886c-0.14532,1.67545-1.29709,2.57466-2.4472,3.4113
			c-2.12625,1.54672-4.35078,2.95863-6.53935,4.4192c-0.32509,0.21696-0.65852,0.45093-1.02309,0.56984
			c-0.29285,0.09552-0.72603,0.15002-0.93556-0.00107c-0.19824-0.14294-0.30531-0.60385-0.24406-0.87845
			c0.16957-0.76039,0.4339-1.50134,0.68855-2.24039c0.14539-0.422,0.39928-0.81111,0.51132-1.23936
			c0.69914-2.67244,1.99132-5.1088,3.01349-7.65216c0.43855-1.09119,0.89513-2.17516,1.33813-3.26459
			c0.08412-0.20685,0.18779-0.42014,0.2065-0.63699c0.22144-2.5672,1.39122-4.82367,2.30293-7.16891
			c0.66904-1.72092,1.23024-3.48341,1.8662-5.21761c0.32574-0.88829,0.74774-1.74191,1.06027-2.63431
			c0.74017-2.11314,1.41531-4.24916,2.16492-6.35884c0.71164-2.00294,1.48337-3.98456,2.23096-5.9747
			c0.25592-0.6813,0.52731-1.3569,0.77704-2.04045c0.65198-1.78476,1.23923-3.59586,1.96237-5.35108
			c0.51196-1.24274,1.09128-2.45003,1.41559-3.76589c0.57797-2.34534,1.47324-4.58144,2.38477-6.81405
			c0.74048-1.81361,1.40253-3.65965,2.07907-5.49876c0.24493-0.66582,0.42416-1.35426,0.38885-2.24762
			c-0.62115,0.43375-0.83374,0.95592-1.07272,1.43555c-0.65793,1.32053-1.52469,2.47637-2.61725,3.46381
			c-0.7999,0.72295-1.42673,1.55317-1.86612,2.55496c-0.4502,1.02637-1.08176,1.94072-1.90042,2.74442
			c-1.11679,1.09645-2.2449,2.1979-3.05063,3.56762c-0.08432,0.14335-0.18234,0.28966-0.30655,0.3969
			c-2.21213,1.91052-4.12604,4.09296-5.91418,6.39724c-0.37172,0.479-0.86412,0.87381-1.338,1.26215
			c-0.90822,0.74429-1.8351,1.46649-2.76842,2.17929c-2.38297,1.82007-5.0293,2.71146-8.01454,1.98254
			c-1.50555-0.36763-2.65042-1.4075-3.68001-2.53847c-0.18712-0.20558-0.3277-0.45393-0.48669-0.68462
			c-2.19588-3.18575-2.6073-4.67576-2.31018-8.49245c0.03455-0.4437,0.15576-0.8821,0.25343-1.31922
			c0.68303-3.05659,1.37257-6.11171,2.04913-9.16972c0.02956-0.13361-0.04726-0.29073-0.11406-0.64885
			c-0.29276,0.40073-0.51376,0.63329-0.65396,0.90722c-0.64197,1.25433-1.47635,2.35536-2.40704,3.417
			c-2.06454,2.35498-4.0737,4.76008-6.05655,7.18471c-2.23996,2.739-4.78011,5.18844-7.27899,7.67802
			c-0.47139,0.46964-1.03404,0.86212-1.59895,1.22023c-1.04373,0.66162-2.03294,1.36906-2.90993,2.25737
			c-1.28323,1.29982-2.98506,1.41267-4.68565,1.43925c-0.16063,0.0025-0.3542-0.04091-0.47906-0.1344
			c-1.16341-0.87099-2.53629-1.40607-3.62695-2.41252c-1.81148-1.67163-2.73061-3.79236-3.32361-6.10205
			c-0.09532-0.37127-0.1015-0.78494-0.05873-1.16899c0.34067-3.05967,0.78084-6.09509,1.45154-9.11259
			c0.52396-2.35726,1.15141-4.65937,1.92036-6.94234c0.36661-1.08847,0.74922-2.22102,0.62329-3.61557
			c-0.30063,0.22755-0.52025,0.34638-0.67877,0.52077c-2.8623,3.14912-5.72704,6.29612-8.56902,9.46353
			c-1.15872,1.2914-2.2583,2.6357-3.39833,3.94415c-0.36694,0.42116-0.73082,0.86765-1.17548,1.1946
			c-2.26936,1.6686-4.20837,3.68272-6.12711,5.72402c-0.41959,0.44633-0.86192,0.92194-1.38953,1.20652
			c-1.55692,0.83972-2.72514,2.09094-3.95905,3.31665c-1.35034,1.34145-2.98178,2.37337-4.73676,3.14169
			c-1.02281,0.44777-2.08958,0.82701-3.17123,1.09947c-1.08415,0.27312-2.22588,0.45561-3.22267-0.32925
			c-0.50272-0.3958-1.04657-0.31047-1.60452-0.21892c-1.39806,0.22942-2.78075,0.25336-4.15698-0.18352
			c-2.22102-0.705-4.20074-1.77374-5.90305-3.40878c-2.78523-2.6752-4.36392-5.91383-4.86266-9.7151
			c-0.07074-0.53909-0.00806-1.23399-0.70421-1.36794c-0.58441-0.11242-0.8322,0.4976-1.11478,0.88436
			c-1.38718,1.89883-2.81779,3.75088-4.61462,5.29737c-0.45752,0.39378-0.78381,0.94253-1.15903,1.42883
			c-0.51299,0.6649-0.99626,1.3537-1.5296,2.00151c-0.28217,0.34277-0.60045,0.69344-0.97647,0.91464
			c-1.44576,0.85049-2.90437,1.68289-4.39241,2.45622c-0.87099,0.45265-1.81712,0.46465-2.78621,0.23093
			c-2.4449-0.58965-3.97017-2.19508-4.91411-4.41931c-0.43668-1.02896-0.77888-2.10106-1.11476-3.16905
			c-0.51364-1.63317-0.62686-3.26316-0.13892-4.95737c0.37-1.28468,0.54483-2.63083,0.7399-3.9594
			c0.31961-2.17688,1.07605-4.22963,1.72023-6.31406c1.15921-3.75096,2.84624-7.2867,4.41965-10.8719
			c1.25847-2.86752,2.80441-5.6025,3.80272-8.59405c0.61844-1.85323,1.4789-3.62788,2.26778-5.42151
			c1.08359-2.46365,1.87865-5.02569,2.68037-7.58777c0.1833-0.58569,0.50299-1.12863,0.68663-1.71424
			c0.36784-1.1729,0.78069-2.34428,0.99939-3.54819c0.2823-1.55418-0.18535-2.16206-1.68646-2.5732
			c-0.16199-0.04437-0.32561-0.09259-0.49158-0.11106c-2.52248-0.28053-5.03336-0.19494-7.5291,0.26617
			c-0.73802,0.13634-1.14732,0.66922-1.42624,1.30698c-0.85292,1.95024-1.7213,3.89465-2.52437,5.8655
			c-0.61217,1.50233-1.10039,3.05512-1.71144,4.55795c-0.27089,0.66613-0.65369,1.30504-1.08202,1.88518
			c-1.00827,1.3655-1.82838,2.80809-2.31023,4.45025c-0.18633,0.63501-0.485,1.27148-0.8714,1.80709
			c-1.32707,1.83965-2.13022,3.93019-3.01324,5.98717c-0.24138,0.56228-0.48233,1.14621-0.84233,1.63216
			c-1.17395,1.58464-2.07031,3.32385-2.99387,5.05461c-0.71074,1.33193-1.45104,2.65806-2.30125,3.90271
			c-0.79666,1.16627-1.42976,2.39887-2.02619,3.6692c-0.35241,0.75061-0.7959,1.47849-1.30851,2.12999
			c-1.38913,1.76538-2.73977,3.54694-3.60793,5.6422c-0.0428,0.10329-0.08427,0.21156-0.14956,0.30048
			c-1.19267,1.62355-2.26826,3.35316-3.61009,4.84283c-2.58225,2.86674-5.30559,5.60709-7.99063,8.38027
			c-1.35343,1.3979-2.98005,2.14328-4.97974,1.96104c-1.7014-0.15506-3.17419-0.90527-4.30164-2.07109
			c-2.11542-2.18742-3.142-4.90701-2.89438-7.96161c0.21743-2.6823,0.81259-5.30843,1.70288-7.86208
			c0.25665-0.73612,0.41891-1.51218,0.55409-2.28226c0.34011-1.93742,0.86446-3.81277,1.60209-5.64088
			c0.50188-1.24386,0.87808-2.5398,1.27837-3.82248c0.12963-0.41541,0.15733-0.86262,0.22942-1.28239
			c-0.44197-0.22018-0.5389,0.11405-0.68402,0.30683c-0.60526,0.80422-1.22767,1.5983-1.78331,2.43622
			c-0.46165,0.69614-0.90879,1.41813-1.23815,2.18223c-0.6059,1.40565-1.40592,2.65823-2.41457,3.81235
			c-0.61902,0.70829-1.08279,1.55547-1.59193,2.35576c-0.5691,0.89459-1.07236,1.83304-1.67242,2.70554
			c-1.17371,1.70663-2.38212,3.38988-3.60056,5.06508c-0.85397,1.1741-1.76549,2.30637-2.6181,3.48141
			c-0.49287,0.67925-0.94272,1.39271-1.37215,2.11444c-1.14418,1.92291-2.75208,3.38756-4.59549,4.59453
			c-0.84251,0.55164-1.80096,0.91899-2.84222,0.90141c-0.78143-0.01318-1.56183-0.11496-2.34287-0.11734
			c-1.28324-0.00392-2.08512-0.69707-2.64335-1.7579c-0.83379-1.5845-1.65762-3.17429-2.47569-4.76698
			c-0.52438-1.0209-0.71584-2.1096-0.66254-3.25599c0.04422-0.95071,0.07233-1.90497,0.04409-2.85574
			c-0.06882-2.31655,0.30132-4.58739,0.7924-6.82738c0.45501-2.07548,1.1166-4.10508,1.66248-6.16143
			c0.4883-1.83955,0.97187-3.68136,1.39898-5.53567c0.18993-0.82444,0.41567-1.61012,0.80222-2.37263
			c0.60712-1.19772,1.15224-2.43037,1.66068-3.67397c1.63241-3.99286,3.30959-7.96236,5.46175-11.71339
			c0.36105-0.6293,0.73399-1.28696,0.91121-1.98014c0.60268-2.35712,2.02032-4.20951,3.52056-6.03295
			c1.31625-1.5998,2.5843-3.23918,3.89048-4.84741c1.09235-1.34497,2.19465-2.6826,3.32643-3.99424
			c0.24543-0.28444,0.62679-0.4586,0.96054-0.65852c1.10568-0.6624,2.28205-1.22704,3.31288-1.98931
			c1.47053-1.08745,3.13289-1.494,4.8773-1.5895c1.33486-0.07308,2.69051-0.02043,4.02071,0.12463
			c3.58532,0.39097,7.04922,1.32065,10.37428,2.7025c0.85336,0.35463,1.57964,1.03048,2.33501,1.59772
			c0.29889,0.22446,0.30455,0.59919,0.12426,0.91901c-0.13501,0.23947-0.30087,0.48782-0.51443,0.65257
			c-1.99394,1.53826-3.90759,3.18246-6.12039,4.42684c-1.27075,0.71456-2.56111,0.83411-3.87832,0.32494
			c-3.3401-1.29121-6.87492-1.50159-10.36879-1.93012c-1.60158-0.19643-2.9634,0.27508-3.99029,1.63426
			c-0.81361,1.07687-1.57848,2.15369-2.11814,3.40987c-0.4833,1.125-1.09538,2.20892-1.76369,3.23751
			c-1.84311,2.83691-3.08046,5.9612-4.44102,9.03165c-0.58826,1.32756-1.33143,2.58569-1.9563,3.89817
			c-0.33394,0.70135-0.60192,1.43983-0.83694,2.18143c-0.60884,1.92122-1.20752,3.84639-1.76412,5.78324
			c-0.5722,1.99117-1.11355,3.99199-1.62566,5.99948c-0.76634,3.00413-1.04725,6.08159-0.99196,9.16199
			c0.04013,2.23653,1.09947,4.19748,2.33567,6.03121c0.29033,0.43067,0.72865,0.54581,1.18334,0.34526
			c0.55664-0.24554,1.16899-0.4715,1.5983-0.87502c0.72725-0.68359,1.36501-1.47269,1.97628-2.2668
			c0.81889-1.06381,1.57996-2.17233,2.3595-3.26619c0.42152-0.59153,0.91285-1.15193,1.22797-1.79705
			c0.84126-1.72225,1.95726-3.26116,3.02744-4.83571c0.50119-0.73741,0.92864-1.5285,1.34752-2.31754
			c0.73262-1.37998,1.30047-2.86095,2.50898-3.9376c0.08173-0.0728,0.14021-0.17487,0.199-0.26983
			c1.2347-1.99536,2.46095-3.996,3.70359-5.9864c1.00792-1.61447,2.04969-3.20793,3.04643-4.82917
			c0.37817-0.6151,0.70648-1.26678,0.99785-1.9281c0.65307-1.4822,1.24589-2.9911,1.90598-4.47006
			c0.6722-1.50606,1.83863-2.66764,2.90335-3.88144c0.5901-0.67271,1.39108-1.16457,2.39229-0.93659
			c0.48042,0.1094,0.87959-0.00953,1.24541-0.31938c0.70216-0.5947,1.44001-0.51735,2.18207-0.08861
			c0.72621,0.41958,1.46225,0.83189,1.99405,1.71758c-0.22451,0.65881-0.412,1.42091-0.73647,2.11938
			c-0.80486,1.73257-1.41499,3.52605-1.95705,5.35558c-0.38045,1.28412-0.97465,2.50336-1.40314,3.77523
			c-0.39232,1.16445-0.68037,2.36366-1.03321,3.54189c-0.27252,0.91006-0.54325,1.82267-0.86946,2.71416
			c-0.65364,1.78635-1.37651,3.5478-2.00778,5.34169c-0.35168,0.9994-0.56998,2.04529-0.86017,3.06689
			c-0.45889,1.6156-0.88001,3.2441-1.4058,4.8379c-0.51357,1.55674-0.79446,3.13531-0.91814,4.76785
			c-0.16965,2.23938,0.46096,4.20388,1.79478,5.96622c0.65995,0.87197,1.33436,1.09797,2.3499,0.73014
			c0.51488-0.18646,1.05324-0.45831,1.43179-0.83965c0.78515-0.79093,1.58264-1.60962,2.17586-2.54346
			c1.70897-2.69025,3.36735-5.41563,4.95238-8.18066c1.25172-2.18359,2.3535-4.45274,3.54758-6.67004
			c0.36932-0.6858,0.81956-1.32834,1.23888-1.98679c0.7508-1.17895,1.43232-2.36398,1.86991-3.72978
			c0.45385-1.41661,1.1129-2.80175,2.02475-4.01494c0.74798-0.99513,1.33725-2.04611,1.70972-3.24793
			c0.56443-1.82114,1.26321-3.58682,2.43082-5.1411c0.35664-0.47478,0.54137-1.10007,0.71982-1.68249
			c0.29613-0.96657,0.58385-1.92429,1.14009-2.78798c0.23849-0.37031,0.35938-0.81567,0.53939-1.22443
			c0.47245-1.07268,0.94645-2.14471,1.4234-3.2154c0.13641-0.30625,0.32968-0.59436,0.4203-0.91261
			c0.40121-1.40839,1.05507-2.70464,1.64749-4.03552c0.56403-1.26712,0.93605-2.63882,1.23489-3.99915
			c0.26302-1.19717,0.80142-2.16566,1.59312-3.08271c1.16518-1.34965,2.26711-2.75925,3.31927-4.19935
			c0.75909-1.03894,1.69067-1.59997,2.98103-1.5437c0.16782,0.0073,0.34903-0.03946,0.5024,0.00829
			c2.24712,0.69966,4.44684,0.03642,6.64998-0.25377c2.3622-0.3111,4.67416-0.11166,6.98709,0.38019
			c1.38931,0.29543,2.67915,0.79797,3.86104,1.58051c0.27846,0.18438,0.58063,0.3498,0.81456,0.58173
			c1.05582,1.04687,1.66019,2.23989,1.18227,3.78156c-0.28117,0.90709-0.45163,1.85229-0.78108,2.73983
			c-0.75931,2.04546-1.58807,4.06508-2.38347,6.09721c-0.83583,2.13541-1.6115,4.2963-2.51202,6.40395
			c-1.07768,2.52235-2.25925,5.00032-3.39706,7.49694c-0.2784,0.61086-0.56586,1.21758-0.84149,1.82966
			c-0.27605,0.613-0.47008,1.27612-0.8253,1.8381c-1.92995,3.05325-3.00993,6.49832-4.54292,9.73338
			c-0.07193,0.15177-0.15453,0.30408-0.19261,0.46547c-0.77007,3.26286-2.27873,6.30007-2.71861,9.68497
			c-0.26497,2.03892-0.30379,3.99875,0.04907,5.99967c0.19096,1.08282,0.67776,2.0174,1.34854,2.85704
			c0.5755,0.72037,1.07549,0.85075,1.92941,0.52058c1.95551-0.75615,3.80638-1.67268,4.98448-3.53164
			c2.33403-2.13367,4.00166-4.80329,5.86397-7.31461c0.73195-0.98705,1.41582-2.01196,2.08102-3.04572
			c1.08978-1.6936,2.17204-3.39317,3.20717-5.12035c0.60226-1.00485,1.16745-2.04157,1.63972-3.11228
			c0.61354-1.39091,1.30736-2.71814,2.23296-3.93073c0.40352-0.52865,0.80882-1.10623,1.0126-1.72743
			c0.57242-1.7449,1.62585-3.20092,2.72601-4.60385c0.8745-1.11517,1.63199-2.27003,2.19551-3.56071
			c0.65479-1.4997,1.46281-2.88731,2.67999-4.02193c0.40109-0.37389,0.70584-0.8708,0.98538-1.35172
			c0.84399-1.45201,1.67169-2.90827,2.80482-4.16924c0.33212-0.36956,0.53822-0.8504,0.81625-1.2709
			c0.67874-1.0266,1.37166-2.04385,2.04755-3.07233c0.52156-0.79366,1.02049-1.60218,1.5401-2.39716
			c0.27493-0.42063,0.53833-0.85607,0.86555-1.23408c1.90622-2.20214,3.75798-4.45792,5.76888-6.56104
			c1.81508-1.89835,3.79309-3.64336,5.73547-5.41632c0.75389-0.68816,1.66914-1.11058,2.71324-1.23569
			c0.77591-0.09295,1.54001-0.28056,2.31436-0.39129c1.37732-0.19698,2.35487,0.52024,3.18338,1.48952
			c0.30276,0.35424,0.24417,0.88317-0.07991,1.23856c-0.22398,0.24557-0.50777,0.43601-0.76039,0.65619
			c-0.80165,0.69873-1.61865,1.38115-2.39719,2.10487c-0.93405,0.86831-1.42018,2.02675-1.75795,3.20489
			c-0.6947,2.42325-1.28093,4.88023-1.43738,7.40925c-0.04453,0.7199,0.03682,1.45051,0.09618,2.17325
			c0.13747,1.67365,0.27037,3.34839,0.45399,5.01729c0.22652,2.05848,0.49117,4.11301,0.76051,6.1665
			c0.30576,2.33125,0.71751,4.65171,0.93633,6.9906c0.42438,4.53596,0.3577,9.0688-0.78636,13.509
			c-0.50157,1.94666-1.25038,3.82938-1.8801,5.74335c-0.19067,0.57956-0.35835,1.16669-0.52724,1.71976
			c0.3492,0.33517,0.58708,0.09036,0.79262-0.05325c1.34094-0.93696,2.58189-2.02193,3.51767-3.34555
			c1.2142-1.7174,2.7753-3.07455,4.26817-4.50165c0.77664-0.74243,1.44908-1.54597,2.1042-2.38608
			c1.41107-1.80968,2.84869-3.59914,4.30116-5.37588c0.9614-1.17603,1.87682-2.371,2.37794-3.83018
			c0.07187-0.20927,0.14214-0.45927,0.29709-0.59347c1.30652-1.1312,1.82413-2.80126,2.82759-4.14738
			c0.78386-1.05148,1.19037-2.3985,1.69029-3.64402c0.75032-1.86929,1.33682-3.80688,2.3911-5.5451
			c0.14381-0.23713,0.23473-0.51202,0.40396-0.7271c1.03807-1.31915,2.12083-2.60411,3.12973-3.94482
			c0.67088-0.89145,1.23689-1.86131,1.86366-2.78671c0.24745-0.36532,0.51587-0.71948,0.80327-1.0542
			c1.31308-1.52921,2.63321-3.05241,3.95853-4.57101c0.25578-0.29308,0.52571-0.5806,0.82433-0.82821
			c0.98941-0.82046,2.01234-1.60101,2.99109-2.43371c3.36037-2.85895,7.17616-3.99415,11.55049-3.15892
			c1.43748,0.27447,2.83681,0.60125,4.11639,1.36201c0.57143,0.33976,1.20778,0.60942,1.84914,0.78487
			c1.70474,0.46636,3.16907,1.39837,4.65686,2.28924c0.52788,0.31606,1.04762,0.65523,1.52925,1.03663
			c0.56564,0.44795,1.13058,0.91261,1.61414,1.44432c0.5791,0.63673,0.53336,0.99018-0.09253,1.56332
			c-1.15433,1.05704-2.33237,2.08827-3.48253,3.14975c-0.53371,0.49256-1.04033,1.01692-1.53275,1.55126
			c-1.12965,1.22572-2.32628,1.54473-3.76268,0.81311c-0.66354-0.33801-1.32938-0.50974-2.03561-0.68781
			c-0.79555-0.2006-1.59152-0.56038-2.27335-1.02003c-1.7816-1.20109-3.66074-2.16825-5.73317-2.73857
			c-0.47577-0.13092-0.97476-0.18605-1.46666-0.24727c-0.55428-0.06902-1.13786-0.01866-1.6646-0.17188
			c-1.81548-0.52811-3.15323,0.32835-4.40326,1.44106c-0.37236,0.33144-0.71487,0.72936-0.96614,1.15829
			c-1.15649,1.97425-2.53972,3.82137-3.38025,5.97491c-0.10089,0.25851-0.20067,0.53682-0.37434,0.74464
			c-1.67506,2.00435-2.67372,4.39237-3.82016,6.69595c-0.17365,0.3489-0.28194,0.72987-0.429,1.0925
			c-0.46225,1.1398-0.81496,2.34248-1.41728,3.4031c-1.21342,2.13661-1.71581,4.48894-2.17931,6.83302
			c-0.44829,2.26731-1.0293,4.48571-2.02501,6.55042c-1.35988,2.81981-1.90811,5.84299-2.48929,8.85981
			c-0.33795,1.75419-0.48323,3.54573-0.70798,5.32139c-0.15121,1.19463,0.07722,2.33672,0.45879,3.46761
			c0.64082,1.89918,2.24713,2.67664,3.90479,3.37254c0.25276,0.10612,0.69449-0.00111,0.94565-0.16644
			c1.5827-1.04192,3.36172-1.82161,4.56816-3.37949c0.2368-0.30581,0.56615-0.53979,0.85228-0.8075
			c1.06473-0.9962,2.06093-2.03915,2.88361-3.26408c0.68295-1.01688,1.49857-1.95667,2.33888-2.85226
			c0.77272-0.82353,1.48112-1.67573,2.03076-2.6631c0.79306-1.42462,1.69412-2.76067,2.91428-3.8775
			c0.48378-0.44282,0.85437-1.03458,1.19019-1.60899c0.99239-1.69744,2.04938-3.34261,3.39932-4.78542
			c0.26596-0.28423,0.505-0.60327,0.70682-0.93636c1.38988-2.29404,3.01006-4.44908,4.09032-6.93143
			c0.35458-0.81477,0.86324-1.56942,1.35497-2.31628c1.55434-2.36074,2.56158-4.97674,3.54955-7.59683
			c0.54285-1.43967,1.29022-2.72611,2.35332-3.83206c0.15466-0.16087,0.30917-0.32654,0.48595-0.46078
			c1.57845-1.19857,2.64555-1.21585,4.28003-0.06879c0.22861,0.16042,0.43274,0.35558,0.64948,0.53313
			c1.16183,0.95182,1.21286,1.11526,0.69669,2.57943c-0.14828,0.42075-0.33533,0.82994-0.53094,1.23158
			c-1.76512,3.62392-3.54221,7.24203-5.29971,10.86963c-0.31683,0.654-0.5914,1.33268-0.83173,2.01877
			c-0.64648,1.84551-1.17709,3.73148-2.13092,5.46091c-1.06444,1.92999-1.52672,4.08327-2.17889,6.16282
			c-0.66841,2.13127-1.27521,4.28188-1.90831,6.42422c-0.46725,1.58101-0.5481,3.20556-0.43031,4.83037
			c0.12134,1.67332,0.86938,3.11975,1.91328,4.40282c0.73405,0.90227,1.63229,1.21629,2.83556,0.87063
			c1.52962-0.43942,2.98567-0.9314,4.13853-2.09913c0.34929-0.35378,0.79138-0.62872,1.2234-0.88512
			c0.68988-0.40942,1.24997-0.93726,1.69427-1.60146c0.18649-0.27887,0.37686-0.56588,0.61569-0.79733
			c2.18564-2.11787,3.78677-4.68534,5.54221-7.13661c0.71503-0.99841,1.54184-1.91605,2.28934-2.89225
			c0.33868-0.44225,0.65558-0.91425,0.90073-1.41291c1.18988-2.42056,2.52737-4.74285,4.29169-6.80123
			c0.25101-0.29282,0.49591-0.63462,0.60757-0.9958c0.62048-2.00699,1.75665-3.74554,2.79587-5.53745
			c0.30759-0.53043,0.57852-1.08653,0.81738-1.65152c0.56775-1.34298,1.18634-2.64458,2.02118-3.85907
			c0.5282-0.76842,0.9205-1.67928,1.16333-2.58282c0.32587-1.21218,0.86108-2.29605,1.48535-3.36375
			c0.36432-0.62309,0.63934-1.29815,0.95963-1.9473c0.3956-0.80175,0.76923-1.61588,1.19995-2.39846
			c1.62201-2.94703,3.09512-5.95775,4.29846-9.10714c0.67679-1.77135,1.54834-3.47009,2.37247-5.18214
			c0.2146-0.44571,0.53546-0.8628,0.88431-1.2175c1.68652-1.71471,3.38165-3.42184,5.10968-5.09449
			c0.93246-0.90255,1.47485-0.93498,2.54538-0.2949c0.4321,0.25835,0.85342,0.54121,1.25049,0.8504
			c1.11795,0.87053,1.45569,1.94395,0.97375,3.26686c-0.3447,0.94611-0.69934,1.90312-1.18427,2.78079
			c-1.28333,2.32249-1.98126,4.87397-2.97647,7.30801c-0.88821,2.17236-1.62173,4.3979-2.58441,6.55143
			c-1.46054,3.26728-2.61298,6.67546-3.418,10.18125c-0.06232,0.27132-0.09653,0.5518-0.11145,0.82977
			c-0.00494,0.09248,0.09146,0.19038,0.19135,0.38084c0.22894-0.12509,0.49872-0.20663,0.67484-0.38216
			c0.3952-0.39398,0.76593-0.81756,1.10782-1.25914c1.78146-2.30112,3.50961-4.64481,5.33456-6.9107
			c2.38861-2.96569,4.84491-5.87702,7.28714-8.79922c0.32043-0.38344,0.73526-0.68687,1.09653-1.03749
			c0.7196-0.69833,1.42416-1.41236,2.15036-2.10367c0.68872-0.65564,1.41318-1.27422,2.09274-1.93891
			c0.75897-0.74234,1.48773-1.51572,2.22397-2.28101c0.23245-0.24161,0.41495-0.54095,0.67429-0.74546
			c2.06543-1.62891,4.11676-3.27871,6.40143-4.60373c1.20465-0.69867,2.43903-1.1201,3.83554-0.56803
			c1.96854,0.77821,3.56055,2.01186,4.91315,3.65287c1.61142,1.95505,2.32724,4.17008,2.40256,6.65199
			c0.01349,0.44481,0.0907,0.8891,0.15829,1.33058c0.1713,1.11823,0.22403,2.22076-0.19644,3.3102
			c-0.13834,0.3585-0.19846,0.76149-0.22037,1.14832c-0.15594,2.7524-0.75763,5.43612-1.26312,8.13229
			c-0.2056,1.09647-0.57846,2.16245-0.89053,3.23787c-0.38986,1.34318-0.74118,2.70107-1.20819,4.01746
			c-0.58014,1.63516-1.21936,3.25264-1.90906,4.84487c-1.06735,2.46416-2.15176,4.92333-3.32016,7.34049
			c-0.77667,1.60679-1.5665,3.20811-2.67935,4.64458c-1.23233,1.59071-2.27216,3.32892-3.45688,4.95851
			c-1.24927,1.71837-2.53244,3.41557-3.87863,5.05825c-0.56027,0.68365-1.33038,1.19299-1.98917,1.79892
			c-0.48096,0.44237-1.03302,0.84829-1.12485,1.55233c0.10306,0.07515,0.16061,0.14594,0.19189,0.13578
			c1.53391-0.49828,3.10327-0.92419,4.29926-2.11402c0.23746-0.23626,0.49164-0.46146,0.76337-0.65659
			c1.68076-1.20702,3.38535-2.38162,5.04691-3.61428c0.76147-0.56493,1.40475-1.28984,2.16922-1.84997
			c1.46439-1.07297,2.60828-2.44416,3.76685-3.81153c0.32422-0.38267,0.70786-0.71635,1.07581-1.06013
			c0.24536-0.22925,0.53363-0.41528,0.76419-0.65735c1.38727-1.4566,2.76428-2.92297,4.14224-4.38841
			c0.19183-0.20401,0.34518-0.45087,0.55832-0.62714c1.69904-1.40506,2.86981-3.28313,4.36639-4.87072
			c0.64725-0.68661,1.13919-1.51981,1.69992-2.2877c0.69278-0.94876,1.40128-1.88676,2.06772-2.85369
			c0.31586-0.45824,0.59863-0.95248,0.81302-1.46526c1.36368-3.26133,3.17728-6.29163,4.79126-9.42456
			c1.67847-3.25822,3.95709-6.09707,6.14047-9.00584c0.67191-0.89513,1.30139-1.8233,1.99875-2.69766
			c0.52158-0.65394,1.04288-1.35114,1.70364-1.84113c1.04614-0.77573,1.94754-1.67583,2.81061-2.63352
			c0.71811-0.79681,1.55377-1.43491,2.50089-1.95802c0.73062-0.40354,1.43073-0.89579,2.05518-1.44928
			c0.73022-0.64722,1.5376-1.11353,2.44174-1.44046c0.3689-0.1334,0.75681-0.22768,1.10547-0.40124
			c1.96408-0.97791,4.0119-1.14979,6.19992-1.06784c2.6062,0.09764,4.96097,0.82613,7.20831,2.00442
			c1.59628,0.83689,2.98874,1.97293,4.11111,3.40709c0.17239,0.22021,0.34558,0.44368,0.48544,0.68478
			c0.50354,0.86813,0.45816,1.39233-0.19925,2.13084c-0.25995,0.29204-0.55219,0.55816-0.84854,0.81434
			c-1.60928,1.39123-3.21387,2.78821-4.84186,4.15729c-0.86884,0.73071-1.87891,0.66325-2.72369-0.09556
			c-0.7486-0.67236-1.49658-1.34687-2.27209-1.98744c-1.38129-1.14101-2.99509-1.63998-4.76556-1.88208
			c-2.47461-0.33836-4.78482,0.04111-7.04147,1.05106c-2.09476,0.93749-3.84998,2.30059-5.18787,4.14662
			c-1.24695,1.72066-2.47482,3.46768-3.54532,5.29996c-0.89993,1.54035-1.57309,3.21474-2.3176,4.84303
			c-0.13428,0.29366-0.18375,0.65282-0.17639,0.97958c0.02396,1.06573-0.38605,1.96852-0.99457,2.79524
			c-0.80051,1.08761-1.4548,2.24475-1.98157,3.49448c-1.30383,3.09342-2.77252,6.12154-3.96805,9.25487
			c-0.73389,1.92335-1.35037,3.90586-1.9725,5.874c-0.53745,1.70021-0.85309,3.47775-1.16837,5.23871
			c-0.25525,1.42581-0.41653,2.87391-0.52484,4.31921c-0.1358,1.81173,0.38599,3.547,0.85443,5.26684
			c0.13678,0.50208,0.57959,0.95647,0.96765,1.34793c1.27899,1.29011,2.3717,1.31089,3.87061,0.23991
			c2.2645-1.61803,4.01999-3.71456,5.66162-5.91818c1.13763-1.52705,2.24432-3.07819,3.32764-4.64429
			c1.01822-1.47197,1.9664-2.99245,2.98523-4.464c0.82831-1.1964,1.76013-2.32241,2.56448-3.5338
			c0.83548-1.25825,1.5766-2.57938,2.35257-3.87684c1.2926-2.16132,2.57419-4.32925,3.87201-6.48742
			c0.77817-1.29401,1.5845-2.5711,2.36383-3.86445c0.17194-0.28536,0.35208-0.5947,0.41058-0.91454
			c0.26828-1.4675,0.99979-2.74459,1.76605-3.96323c0.88837-1.41275,2.17072-2.525,3.39139-3.66031
			c0.21677-0.20161,0.62683-0.29,0.94037-0.27529c0.94769,0.04442,1.58835-0.4518,2.16855-1.09241
			c0.30078-0.33213,0.57501-0.68854,0.87949-1.01704c0.34232-0.36936,0.68167-0.7475,1.06458-1.07193
			c0.61765-0.52332,1.30563-0.60774,2.02109-0.17984c0.19214,0.11492,0.37955,0.23916,0.56097,0.37037
			c1.71225,1.23811,1.98734,2.13775,1.04163,4.00598c-0.6806,1.34449-1.50668,2.61504-2.25858,3.92389
			c-0.41812,0.72789-0.87369,1.44144-1.21539,2.20488c-1.66928,3.7297-3.32251,7.46683-4.94772,11.21593
			c-0.95639,2.20623-1.99792,4.39206-2.73193,6.67369c-0.80609,2.50573-1.7551,4.95942-2.55038,7.46074
			c-0.60632,1.90708-0.84872,3.93589-1.17624,5.92317c-0.18259,1.1076-0.14182,2.23854,0.18393,3.3335
			c0.40457,1.36002,1.49576,1.81216,2.74472,1.08577c0.52505-0.30535,1.03113-0.69337,1.43906-1.14109
			c1.65939-1.8212,3.31659-3.64744,4.89221-5.54041c0.67349-0.80913,1.12918-1.79681,1.71378-2.68362
			c0.43018-0.65261,0.90408-1.27679,1.36731-1.90718c0.76059-1.03503,1.57159-2.03602,2.28265-3.10378
			c0.99255-1.49048,1.92261-3.02312,2.85959-4.54989c0.43817-0.714,0.81601-1.46484,1.2464-2.18391
			c0.48761-0.81464,0.94989-1.65285,1.52029-2.40739c0.74857-0.99024,1.37476-2.02571,1.87619-3.16742
			c0.69543-1.58344,1.40283-3.16811,2.57635-4.49893c0.39059-0.44291,0.61017-1.06731,0.80881-1.64295
			c0.58783-1.70326,1.35007-3.30901,2.31232-4.83836c0.65314-1.03807,1.10675-2.19972,1.72311-3.26349
			c0.55963-0.96583,1.22427-1.87037,1.83105-2.80946c0.24182-0.37427,0.53397-0.74374,0.66122-1.15893
			c0.31689-1.0336,0.85745-1.93925,1.40881-2.85244c0.34567-0.57253,0.59854-1.2008,0.89697-1.80215
			c0.39746-0.80087,0.83041-1.58593,1.18982-2.4034c0.40454-0.92014,0.77249-1.85889,1.1037-2.80793
			c0.2948-0.84483,0.50989-1.71724,0.77643-2.57236c0.09952-0.31918,0.18253-0.67268,0.38049-0.92696
			c0.92679-1.1905,1.84515-2.39362,2.85934-3.50779c0.59576-0.6545,1.36407-1.15219,2.05667-1.71816
			c0.63702-0.52055,1.37265-0.84669,2.18079-0.63689c1.60776,0.41742,3.23605,0.23746,4.85165,0.23707
			c1.73297-0.00041,3.46677-0.24656,5.19867-0.22966c1.3324,0.01297,2.67191,0.21264,3.98877,0.44143
			c0.51865,0.09012,1.01233,0.44352,1.46732,0.75109c0.60193,0.40681,1.16321,0.87593,1.72678,1.33683
			c1.02615,0.83919,1.51385,1.87813,1.33069,3.24722c-0.18756,1.40192-0.49442,2.75377-1.13297,4.02176
			c-0.7807,1.55027-1.63336,3.07014-2.31577,4.66273c-0.90427,2.11056-1.98734,4.12852-2.9751,6.19496
			c-1.13425,2.37294-2.12354,4.81468-3.2157,7.20831c-1.02246,2.24085-2.1459,4.43652-3.13596,6.69112
			c-1.14722,2.61241-2.24954,5.24736-3.27487,7.90971c-1.00525,2.61034-1.90921,5.26054-2.81638,7.90741
			c-0.34424,1.00446-0.6265,2.0373-0.84406,3.07665c-0.45023,2.15108-0.51263,4.3303-0.2644,6.51228
			c0.05649,0.49639,0.20657,0.98866,0.3652,1.46564c0.43103,1.29597,0.93512,1.55872,2.11206,0.92908
			c0.62103-0.33225,1.13406-0.89039,1.64636-1.39667c0.83389-0.82412,1.6412-1.6766,2.43195-2.54247
			c0.41104-0.45009,0.76822-0.95016,1.1398-1.43531c0.67926-0.88681,1.35806-1.77407,2.02393-2.67092
			c0.59885-0.8066,1.29666-1.56739,1.7439-2.45289c0.84497-1.67292,1.92783-3.15402,3.20654-4.49869
			c0.66898-0.70349,1.1893-1.47334,1.53925-2.37866c0.15903-0.4115,0.40952-0.79238,0.65012-1.16681
			c1.0596-1.64886,2.16403-3.27,3.18433-4.94257c0.55118-0.90346,0.94272-1.90273,1.44928-2.83541
			c0.40039-0.73719,0.78915-1.50259,1.3187-2.14343c1.26062-1.52563,2.16959-3.25687,3.12405-4.96809
			c0.35336-0.63351,0.78745-1.22167,1.17465-1.83678c0.4176-0.6633,0.84933-1.3196,1.22916-2.00434
			c0.86841-1.56554,1.71051-3.14576,2.55975-4.72192c0.21234-0.39414,0.43695-0.7846,0.61191-1.19545
			c0.68347-1.60513,1.5477-3.1,2.60861-4.4871c0.3024-0.39538,0.59613-0.83421,0.74869-1.30061
			c0.47507-1.45267,1.28522-2.7226,2.03354-4.03337c0.97186-1.70216,1.92743-3.41664,2.80072-5.17029
			c0.3111-0.62468,0.67142-1.12907,1.20828-1.56156c0.87054-0.70133,1.72025-1.43207,2.53915-2.193
			c1.21408-1.12808,1.4093-1.16932,2.92514-0.36936c0.14456,0.07637,0.3071,0.11872,0.4267,0.16376
			c0.66769-0.07111,0.96091-0.6039,1.38428-0.952c1.06778-0.87791,1.7598-0.82209,2.79156,0.13649
			c0.88007,0.8176,1.21524,1.72121,0.64966,2.84929c-0.40091,0.79968-0.73538,1.64291-1.22107,2.38739
			c-0.68127,1.0443-1.25504,2.13398-1.58536,3.32463c-0.63361,2.28413-1.75974,4.35306-2.70749,6.5018
			c-0.63123,1.43104-1.1637,2.90544-1.75122,4.35603c-0.41992,1.03696-0.86914,2.06212-1.28421,3.101
			c-0.33057,0.82733-0.62668,1.6683-0.94266,2.50153c-0.29758,0.78474-0.59488,1.56961-0.90326,2.35012
			c-0.61609,1.55938-1.24725,3.11284-1.85455,4.67561c-0.14117,0.36337-0.22882,0.75054-0.31125,1.13321
			c-0.28366,1.31701-0.6994,2.58059-1.22406,3.82923c-0.56186,1.33723-0.92816,2.75724-1.3685,4.14473
			c-0.27066,0.85274-0.46399,1.73429-0.79123,2.56378c-0.60153,1.52484-0.93854,3.09954-1.13132,4.7197
			c-0.07242,0.60852-0.1936,1.22971-0.41394,1.79807c-0.37244,0.96081-0.50748,1.95769-0.54276,2.96166
			c-0.1069,3.04179,0.07761,6.05472,1.23584,8.92087c0.2283,0.56495,0.5267,1.11889,0.88638,1.60925
			c0.51236,0.69862,0.95096,0.80589,1.75552,0.40469c1.87842-0.93674,3.54422-2.12854,4.65942-3.98363
			c0.42798-0.71189,0.98288-1.34879,1.49301-2.00972c1.64148-2.12662,3.34357-4.21294,4.33151-6.75932
			c0.10052-0.25916,0.2493-0.50247,0.39624-0.74039c1.79514-2.90572,3.68857-5.75616,5.35767-8.73242
			c1.04034-1.85516,2.18378-3.64108,3.23865-5.48058c0.63678-1.11044,1.14062-2.29905,1.88107-3.3581
			c0.18979-0.27144,0.31985-0.59139,0.44067-0.90328c1.49557-3.86176,2.89621-7.76334,4.50116-11.57893
			c1.4534-3.45531,2.95111-6.89689,4.8829-10.13668c1.17285-1.96701,2.08463-4.08799,3.16037-6.11502
			c1.36426-2.5708,2.80328-5.10205,4.16083-7.67633c2.08908-3.96154,4.15088-7.93766,6.19461-11.92281
			c0.94452-1.84172,1.84006-3.70942,2.71957-5.5833c0.99902-2.12849,1.96341-4.2734,2.92291-6.42011
			c0.18127-0.40549,0.29456-0.84688,0.3956-1.2818c0.60172-2.58938,1.95312-4.74334,3.80093-6.61553
			c0.31409-0.31823,0.66208-0.62062,0.90393-0.9896c1.11703-1.70428,2.78375-2.7315,4.49023-3.71233
			c0.28772-0.16537,0.60492-0.33993,0.92441-0.3785c1.06418-0.12838,2.09787-0.31386,3.05338-0.84587
			c0.22287-0.12411,0.54535-0.10855,0.81866-0.09411c0.44666,0.02361,0.71451,0.30379,0.80087,0.73141
			c0.12805,0.63467-0.00543,1.22757-0.3653,1.76252c-0.92963,1.38209-1.33292,2.93176-1.59387,4.55892
			c-0.15762,0.9829-0.48792,1.95134-0.84476,2.88654c-0.95856,2.51219-2.14444,4.91836-3.46259,7.26424
			c-0.43518,0.77444-0.71994,1.63849-1.02701,2.47859c-0.51675,1.4138-0.99496,2.8417-1.49356,4.26217
			c-0.05548,0.15792-0.12613,0.31328-0.21021,0.45792c-1.57578,2.7114-2.80219,5.61721-4.57535,8.2193
			c-0.22003,0.32291-0.43216,0.66245-0.57861,1.02243c-0.82697,2.03241-1.95917,3.89563-3.09897,5.76044
			c-1.16724,1.90964-2.25293,3.86895-3.40714,5.7868c-0.92249,1.53291-1.8696,3.0524-2.85208,4.54742
			c-0.74326,1.13101-1.32684,2.32545-1.82187,3.58376c-0.30222,0.76813-0.74673,1.49732-1.22537,2.17474
			c-0.64539,0.91345-1.43967,1.72311-2.06808,2.64668c-0.56351,0.82816-1.16107,1.70098-1.43069,2.64361
			c-0.31674,1.10743-0.7998,2.08649-1.4379,3.00555c-1.4451,2.08155-2.52322,4.36703-3.5144,6.67223
			c-0.79062,1.83891-1.38052,3.79136-1.82068,5.74715c-0.603,2.67927-1.2467,5.34208-2.05862,7.96411
			c-0.35129,1.13447-0.53571,2.28787-0.52451,3.47592c0.00363,0.39127,0.01746,0.79653-0.07132,1.17223
			c-0.47031,1.99067-0.16995,4.02597-0.37543,6.02302c-0.21805,2.11956,0.39026,4.11227,0.70346,6.14336
			c0.25989,1.68564,1.27463,3.08981,2.27341,4.45016c0.28601,0.3896,0.71552,0.51228,1.19559,0.47073
			c0.67746-0.05867,1.32401-0.19408,1.90735-0.57853c1.68628-1.11131,3.34952-2.21985,4.56003-3.91549
			c0.64365-0.90154,1.56168-1.60245,2.30591-2.43839c0.51593-0.57954,0.97198-1.21778,1.40741-1.86186
			c0.34344-0.50797,0.55756-1.10844,0.9277-1.59243c1.60226-2.09526,2.91586-4.37492,4.29422-6.61337
			c0.35193-0.57145,0.73318-1.14045,0.97806-1.75922c0.74875-1.89176,1.82501-3.57,3.10059-5.14286
			c0.73904-0.91131,1.33685-1.89978,1.82022-2.99873c0.78751-1.79033,1.80637-3.49119,3.14117-4.93892
			c1.73419-1.88083,2.93756-4.07879,4.09344-6.32413c0.35529-0.69021,0.84213-1.31166,1.24774-1.97744
			c0.26135-0.42906,0.5361-0.86153,0.71564-1.32688c0.78751-2.04132,1.71005-4.01233,2.75464-5.93848
			c1.06805-1.96937,1.91068-4.04414,2.61465-6.18305c0.41681-1.26632,1.09027-2.45047,1.67493-3.65868
			c1.46204-3.02148,3.14453-5.9261,4.45844-9.03146c1.6355-3.86568,3.52502-7.62383,5.30188-11.42978
			c0.35565-0.76162,0.67896-1.53885,1.05084-2.29224c0.59448-1.20437,1.2312-2.38793,1.82446-3.59288
			c0.76685-1.55726,1.45502-3.1555,2.27246-4.68513c1.55707-2.91363,3.13654-5.81742,4.79285-8.67534
			c1.32733-2.29024,3.14587-4.21759,4.91656-6.1673c0.33264-0.36628,0.79669-0.61183,1.19354-0.92147
			c1.23517-0.96367,2.46777-1.93069,3.69977-2.89837c0.17566-0.13796,0.33124-0.304,0.51562-0.42795
			c1.26898-0.85322,2.80225-0.60648,3.74084,0.60086c0.40479,0.52059,0.5387,1.07388,0.28406,1.72638
			c-0.87366,2.23863-1.72498,4.48597-2.57574,6.73341c-0.13843,0.36579-0.26831,0.74216-0.33832,1.12531
			c-0.32898,1.80204-1.14642,3.38925-2.13861,4.89592c-0.77173,1.17201-1.45837,2.38068-2.00641,3.67845
			c-0.32404,0.76749-0.71375,1.54535-1.23932,2.18205c-1.30273,1.57826-2.12195,3.42037-3.05981,5.2024
			c-0.44214,0.8401-0.8761,1.69014-1.39319,2.48396c-1.1983,1.83963-2.24677,3.73164-2.85938,5.86739
			c-0.25684,0.8954-0.80731,1.71317-1.26752,2.54217c-0.73303,1.32051-1.50562,2.61904-2.25543,3.93033
			c-0.72156,1.26194-1.3399,2.59624-2.17841,3.77433c-0.91882,1.29091-1.67004,2.65384-2.27368,4.09925
			c-0.99774,2.38927-2.33051,4.59564-3.62231,6.82491c-0.92578,1.59764-1.78247,3.25169-2.86676,4.73698
			c-1.34204,1.83832-2.25629,3.85507-3.05096,5.95326c-0.07892,0.20823-0.1665,0.42277-0.29645,0.60046
			c-1.24677,1.70478-1.83362,3.69471-2.52319,5.65128c-0.52014,1.4759-1.21664,2.8888-1.80338,4.34238
			c-0.35486,0.87914-0.66357,1.77776-0.9689,2.67585c-0.54065,1.59044-1.064,3.18677-1.59244,4.78134
			c-0.28055,0.84655-0.6441,1.67729-0.81567,2.54572c-0.31863,1.61287-0.89334,3.12343-1.62979,4.57433
			c-0.54303,1.06979-0.81384,2.18916-0.94775,3.37254c-0.21405,1.89152-0.53094,3.77309-0.44876,5.68666
			c0.07794,1.81491,0.37076,3.55125,1.54459,5.04931c0.81567,1.04105,1.73026,1.40623,3.07227,1.12247
			c2.22894-0.47135,4.08765-1.48603,5.59369-3.17905c0.70697-0.79473,1.43237-1.57314,2.13312-2.37325
			c0.99762-1.13908,1.92615-2.32333,2.68854-3.64537c0.52875-0.91695,1.21814-1.74078,1.82764-2.61187
			c0.41565-0.59402,0.82178-1.19485,1.22296-1.79877c0.15472-0.23286,0.24396-0.52052,0.43115-0.71879
			c1.71887-1.82055,2.57159-4.1855,3.93866-6.22535c0.46661-0.69629,0.90668-1.42697,1.47272-2.03606
			c0.74274-0.79922,1.32275-1.69607,1.66693-2.69714c0.70386-2.04706,1.89655-3.78564,3.19342-5.47366
			c0.16998-0.22126,0.33289-0.46975,0.55524-0.6252c0.82874-0.57939,1.13757-1.42565,1.51733-2.32734
			c0.44409-1.0546,1.211-2.00174,1.96094-2.89178c0.89868-1.0666,1.90045-2.05204,2.91241-3.01495
			c0.43695-0.41571,0.97913-0.75918,1.53131-1.00609c0.77295-0.34559,1.27509-0.87658,1.56622-1.65246
			c0.13745-0.36623,0.34906-0.70598,0.47223-1.07597c0.80652-2.42221,2.10175-4.55244,3.73938-6.50251
			c1.9436-2.31441,3.84912-4.66129,5.7431-7.01666c0.67603-0.84072,1.42151-1.56483,2.36053-2.11395
			c0.67346-0.39379,1.32367-0.85336,1.90717-1.37048c3.26263-2.89137,7.03491-3.74084,11.26263-2.9408
			c3.11127,0.58878,6.04218,1.68953,8.82904,3.14803c1.12915,0.59099,2.14539,1.41918,3.15167,2.2168
			c0.75958,0.60203,0.73444,1.33967,0.0625,2.02331c-0.07825,0.07962-0.16376,0.15371-0.25354,0.22012
			c-1.48456,1.09846-2.96942,2.19659-4.45642,3.2918c-0.49585,0.36523-1.00861,0.70834-1.49506,1.08559
			c-1.19733,0.92854-1.77509,0.95428-3.05481,0.30793c-1.64655-0.83159-3.30371-1.65193-5.0022-2.36833
			c-2.0946-0.88351-4.36011-1.20306-6.58484-1.12616c-2.7392,0.09464-4.89801,1.48864-6.21277,3.96287
			c-0.76129,1.43283-1.38184,2.93993-2.12262,4.38445c-0.66327,1.29356-1.45514,2.52211-2.0993,3.82433
			c-0.966,1.95294-1.85339,3.94479-2.77228,5.92097c-0.30658,0.65931-0.63165,1.31133-0.90625,1.98385
			c-1.18433,2.90022-2.39417,5.79118-3.50671,8.71896c-0.43408,1.14241-0.64294,2.37119-0.94281,3.56356
			c-0.4505,1.7916-0.88214,3.58796-1.33771,5.37827c-0.56915,2.23727-0.75995,4.53957-0.92151,6.81774
			c-0.1792,2.52641,0.36041,5.01364,1.35443,7.37064c0.08582,0.20347,0.21527,0.39408,0.35162,0.56962
			c0.37695,0.48554,0.79425,0.61906,1.32208,0.31813c0.67957-0.38747,1.34015-0.81943,1.96222-1.29343
			c0.57764-0.44014,1.14148-0.91796,1.6261-1.45604c0.71387-0.79252,1.46069-1.52826,2.3075-2.18529
			c0.47009-0.3648,0.79584-0.92705,1.15161-1.42541c0.68274-0.9563,1.29248-1.96836,2.0191-2.8889
			c1.28613-1.62932,2.49054-3.30735,3.586-5.07296c0.73651-1.18696,1.56201-2.3281,2.43884-3.41636
			c1.34387-1.668,2.42206-3.49293,3.47101-5.34946c0.65851-1.16544,1.44904-2.25626,2.18146-3.37984
			c0.3056-0.46884,0.63885-0.92155,0.91693-1.40609c1.14014-1.98656,2.5498-3.81225,3.48071-5.9253
			c0.47681-1.08231,1.19647-1.99769,2.05853-2.82835c0.72003-0.69386,1.29968-1.53199,1.96039-2.28973
			c0.29077-0.33352,0.57434-0.75979,0.95441-0.9137c1.47089-0.59563,2.38324-1.81052,3.41803-2.89635
			c0.15436-0.16196,0.29883-0.33399,0.43939-0.50823c0.5448-0.6752,1.24109-0.97838,2.08313-0.72661
			c0.9986,0.29854,1.88458,0.80505,2.18494,1.88954c0.0946,0.34163,0.03168,0.80463-0.13062,1.12524
			c-0.50439,0.99607-1.08093,1.95642-1.64838,2.91954c-0.73767,1.25198-1.50989,2.48376-2.23596,3.74232
			c-0.53125,0.92083-1.06903,1.84557-1.49817,2.81536c-0.38269,0.86489-0.61346,1.79634-0.92432,2.69395
			c-0.21857,0.63118-0.37781,1.30128-0.70526,1.87283c-0.8421,1.47002-1.4151,3.04516-1.98071,4.62815
			c-0.20709,0.57946-0.45398,1.14689-0.62372,1.73679c-0.16785,0.58318-0.27185,1.18581-0.38434,1.78361
			c-0.12378,0.65784-0.17322,1.33379-0.34534,1.97768c-0.76648,2.86708-1.53339,5.73476-2.3606,8.58469
			c-0.96265,3.31664-0.26849,6.39837,1.10028,9.44609c0.5036,1.12126,1.29065,1.47649,2.39386,1.37961
			c1.30646-0.11469,2.58289-0.49511,3.62177-1.24579c2.12921-1.53854,4.22778-3.13979,6.19-4.88287
			c1.55957-1.38545,2.60052-3.21179,3.3819-5.16051c0.12396-0.30922,0.19849-0.71394,0.43384-0.88972
			c1.02826-0.76788,1.48712-1.94616,2.24005-2.90681c0.47375-0.60442,1.12396-1.07063,1.69525-1.59858
			c1.0755-0.99395,3.53418,0.52732,3.33478,1.82475c-0.21222,1.3812-0.38556,2.78146-0.77155,4.11682
			c-0.1676,0.57968-0.74713,1.12711-1.27332,1.50072c-1.89325,1.34417-3.45636,2.99303-4.89856,4.79847
			c-0.97656,1.22244-2.10901,2.32037-3.17163,3.47403c-0.49347,0.53574-1.03888,1.033-1.4693,1.61533
			c-0.91602,1.23916-2.12054,2.14319-3.32306,3.06406c-1.19849,0.91782-2.41119,1.82419-3.54156,2.82185
			c-1.18842,1.04884-2.40247,1.99945-3.9834,2.37834c-0.4881,0.11697-0.99365,0.25124-1.42633,0.4935
			c-1.90637,1.06752-3.80969,0.53773-5.70221,0.02028c-0.83423-0.22815-1.52307-0.78004-1.94324-1.52757
			c-1.18335-2.10547-2.099-4.32825-2.73468-6.6642c-0.45404-1.6683-0.35992-3.36366-0.01776-5.0004
			c0.84796-4.05672,1.82526-8.0865,2.76453-12.12392C560.11536,107.87881,560.31964,107.36953,560.48621,106.85146z
			 M299.9404,121.49153c1.28555-0.6936,2.46799-1.87449,3.67337-3.05677c1.34265-1.31689,2.13806-2.99297,3.22662-4.47263
			c0.66199-0.89978,1.30435-1.83326,1.80777-2.8265c1.11249-2.19492,2.1749-4.41789,3.17566-6.66595
			c0.86411-1.94099,1.62408-3.92878,2.41348-5.90253c1.35214-3.38075,2.50439-6.82523,3.31879-10.37967
			c0.75137-3.27955,1.46924-6.56094,1.31726-9.95825c-0.06006-1.34284-0.11383-2.68633-0.2012-4.02751
			c-0.12253-1.88043-0.99142-3.4181-2.27679-4.74188c-0.54175-0.55795-1.22958-0.92315-1.96533-0.51913
			c-1.12091,0.6155-2.25092,1.26032-3.23737,2.06417c-1.51547,1.23494-2.99826,2.52604-4.22665,4.07162
			c-0.20679,0.26022-0.49225,0.45625-0.72476,0.69791c-1.47049,1.52805-2.94196,3.05522-4.39761,4.59732
			c-0.22693,0.24043-0.39673,0.54368-0.55536,0.83813c-0.99597,1.84851-2.5899,3.22198-3.91727,4.79543
			c-1.01144,1.19894-2.05081,2.35703-2.87122,3.69714c-0.67245,1.09844-1.29507,2.23013-2.01541,3.29593
			c-1.69299,2.50489-3.40009,4.99643-4.69952,7.74136c-0.28534,0.60278-0.6709,1.16384-1.05463,1.71313
			c-0.81268,1.16322-1.24615,2.37871-0.67743,3.78365c0.24683,0.60975,0.18304,1.20626-0.09842,1.78881
			c-0.24277,0.50246-0.48993,1.00288-0.72809,1.50754c-1.00125,2.12177-1.4903,4.31409-1.11285,6.68211
			c0.22018,1.38131,0.91226,2.55273,1.62024,3.65926c1.02502,1.60213,2.28281,3.1068,4.29272,3.54424
			c1.03107,0.22443,2.10715,0.23694,3.16034,0.36593c2.00116,0.24509,3.73581-0.48842,5.40918-1.45088
			C298.9841,122.11025,299.35605,121.8588,299.9404,121.49153z M186.16826,75.13521
			c-0.90759,0.81945-1.37112,1.58257-1.75511,2.3864c-0.27512,0.5759-0.64548,1.02228-1.17038,1.38777
			c-0.83968,0.58466-1.46288,1.36046-1.94078,2.27865c-0.59459,1.1424-1.2513,2.25372-1.91351,3.35907
			c-0.28577,0.47702-0.62495,0.92921-0.98758,1.35178c-1.28224,1.49413-2.42368,3.07037-3.23648,4.88214
			c-0.29333,0.65383-0.78801,1.21592-1.17758,1.82829c-0.71957,1.1311-1.44647,2.25813-2.13721,3.40678
			c-0.45972,0.76443-0.78569,1.61862-1.30507,2.33595c-1.22084,1.686-2.25211,3.46996-3.13713,5.35069
			c-0.35561,0.75563-0.77428,1.49655-1.26717,2.16871c-0.57361,0.78228-1.10069,1.51842-0.99469,2.57628
			c0.04196,0.41862-0.22639,0.86056-0.30411,1.3006c-0.15506,0.87812-0.38513,1.76232-0.38466,2.64391
			c0.00066,1.22733,0.16426,2.45676,0.29964,3.68073c0.05493,0.49657,0.13928,1.01844,0.34805,1.46427
			c0.71129,1.51906,1.42371,3.04351,2.24983,4.50119c0.85121,1.50188,2.23326,2.4939,3.70082,3.34179
			c0.37491,0.21662,0.83202,0.36057,1.26355,0.39812c2.63174,0.22914,5.14589-0.07397,7.33041-1.7523
			c0.30905-0.23744,0.6571-0.43201,1.00659-0.60761c1.71899-0.86368,2.81456-2.11202,2.94559-4.15088
			c0.09561-1.48816,0.81172-2.73696,1.83029-3.86651c1.03807-1.15115,1.86044-2.45335,2.40961-3.95801
			c0.5451-1.49348,0.94345-2.98327,1.02676-4.56365c0.15373-2.91624,0.15121-5.82184-0.52682-8.68884
			c-0.08969-0.3793-0.09657-0.77776-0.1489-1.16639c-0.22398-1.66384-0.40096-3.33586-0.68549-4.98934
			c-0.91324-5.30698-1.75349-10.61476-1.14964-16.0301C186.37888,75.80934,186.27365,75.59985,186.16826,75.13521z"/>
		<path class="st1" d="M85.67161,43.22263c0.83374,1.32653,1.66545,2.65437,2.50194,3.97918
			c0.56882,0.90088,0.55493,1.22481-0.24499,1.84524c-1.14909,0.89129-2.32991,1.74195-3.50404,2.60059
			c-0.76772,0.5615-1.55625,1.09468-2.32032,1.66096c-1.56615,1.16083-2.92866,0.994-4.0049-0.6417
			c-0.89072-1.35374-1.68025-2.77865-2.44626-4.20865c-0.77164-1.44052-1.51266-2.8721-2.98555-3.76196
			c-0.36812-0.22241-0.65805-0.60882-0.9193-0.967c-0.84286-1.15556-1.93434-2.02093-3.15456-2.72477
			c-1.06033-0.61164-2.00551-1.43588-3.24944-1.72524c-0.29093-0.06767-0.5724-0.34944-0.77277-0.60081
			c-0.65736-0.82467-1.52899-1.28016-2.49953-1.61747c-0.73838-0.2566-1.47554-0.53429-2.17526-0.87968
			c-0.71288-0.35186-1.44098-0.56741-2.22633-0.69724c-3.47532-0.57464-6.66506,0.17181-9.61985,2.01598
			c-0.51549,0.32176-1.01492,0.72284-1.40263,1.18684c-2.18896,2.61934-4.54764,5.10884-6.35891,8.02331
			c-0.46734,0.75201-0.82418,1.58178-1.15781,2.40578c-0.56683,1.39981-1.03184,2.8418-1.62382,4.23017
			c-0.3569,0.83698-0.64322,1.6551-0.6392,2.57854c0.00998,2.29543-0.01651,4.59103-0.02365,6.88655
			c-0.00069,0.22337,0.00918,0.45121,0.05198,0.66959c0.49432,2.52271,0.83399,5.07434,1.5747,7.55035
			c0.4354,1.45543,0.91539,2.86771,1.70318,4.17957c0.4004,0.66676,0.63552,1.43166,0.95808,2.14647
			c0.89762,1.98922,1.69925,4.03087,2.73326,5.94683c0.97835,1.81283,2.20257,3.4931,3.32122,5.22999
			c0.12092,0.18776,0.29077,0.34957,0.38411,0.54865c0.96187,2.05185,2.53576,3.68407,3.7737,5.54456
			c1.08311,1.62778,2.02361,3.34977,3.06921,5.00348c0.87587,1.38526,1.57135,2.84138,1.95995,4.43439
			c0.5787,2.37226,0.65999,4.74339,0.07995,7.1409c-0.5364,2.21706-1.60558,4.16512-2.83936,6.04317
			c-0.98272,1.49593-1.83426,3.08019-3.05242,4.41749c-0.82861,0.90961-1.59621,1.87452-2.41351,2.79479
			c-1.37529,1.54863-2.76601,3.0836-4.15611,4.61899c-0.26242,0.28984-0.51379,0.61462-0.83566,0.82156
			c-1.83458,1.17973-3.60271,2.47957-5.67031,3.25421c-0.0524,0.01962-0.10093,0.0554-0.15459,0.06499
			c-2.03314,0.36308-4.03878,0.91629-6.12132,0.94244c-0.89442,0.01123-1.78966-0.0471-2.6846-0.07085
			c-1.18116-0.03134-2.33966-0.17278-3.46738-0.5621c-0.57958-0.20009-1.20215-0.27286-1.78884-0.45586
			c-0.74297-0.23174-1.46907-0.51749-2.20271-0.77924c-0.89148-0.31808-1.77586-0.65846-2.67723-0.9455
			c-0.69256-0.22057-1.41873-0.33679-2.10878-0.56372c-1.61085-0.52982-3.12107-1.24626-4.29051-2.53223
			c-0.11297-0.12422-0.22268-0.25735-0.35632-0.35598c-1.91872-1.41613-3.25265-3.37835-4.79319-5.1457
			c-0.36283-0.41625-0.64096-0.91309-0.91727-1.39619c-0.33345-0.58301-0.59516-1.20762-0.93719-1.78502
			c-1.4056-2.37289-1.79305-4.88589-1.25405-7.59647c0.29302-1.47362,0.79866-2.9123,0.77088-4.45454
			c-0.00849-0.46999,0.23241-0.97524,0.45828-1.41321c0.83315-1.61544,2.22265-2.7943,3.36886-4.1634
			c0.43177-0.51569,1.11179-0.57305,1.71791-0.37621c1.99271,0.64712,3.39872,2.46854,2.87142,4.49271
			c-0.50423,1.93565,0.07777,3.65097,0.80262,5.36343c0.32663,0.77167,0.74119,1.50613,1.11658,2.25712
			c0.47883,0.95795,1.07249,1.8276,1.82435,2.60229c0.66125,0.68133,1.21632,1.466,1.8796,2.14511
			c1.53238,1.56895,3.11573,3.03116,5.4508,3.37009c0.97774,0.1419,1.93321,0.55375,2.85418,0.94726
			c2.28187,0.97504,4.6876,1.49776,7.08631,2.05614c0.95869,0.22316,1.89519,0.02208,2.8306-0.15306
			c1.20991-0.22655,2.41687-0.46893,3.62459-0.70705c0.94811-0.18693,1.81097-0.56895,2.5943-1.1352
			c0.72379-0.52319,1.43006-1.07505,2.18414-1.55072c0.79848-0.50369,1.36543-1.16709,1.6158-2.06673
			c0.69894-2.51156,1.01523-5.05758,0.3646-7.62459c-0.49731-1.96213-1.23856-3.85115-2.32288-5.56218
			c-1.04705-1.65222-2.23129-3.21727-3.34676-4.82648c-0.44641-0.644-0.88388-1.29504-1.30176-1.95779
			c-1.82093-2.88798-3.71041-5.7367-5.42067-8.68906c-1.09085-1.88309-1.96944-3.89755-2.83761-5.89894
			c-0.91232-2.10318-1.75826-4.24004-2.51731-6.40289c-0.44191-1.25919-0.6599-2.59735-0.97064-3.90189
			c-0.07772-0.32628-0.10185-0.66603-0.18902-0.98919c-0.72108-2.67259-0.81001-5.40122-0.92012-8.15255
			c-0.12859-3.21391,0.7189-6.15023,1.68429-9.15517c1.44313-4.49184,4.07989-8.18682,7.06082-11.70697
			c1.12147-1.32435,2.32023-2.58344,3.43566-3.91268c1.95354-2.328,4.18458-4.36714,6.51165-6.30173
			c1.63416-1.35849,3.35991-2.60644,5.00279-3.95489c2.03139-1.6673,4.45599-2.29979,6.95576-2.72235
			c1.26457-0.2138,2.55437-0.41082,3.82993-0.39452c1.68102,0.02153,3.34152,0.33082,4.89226,1.06271
			c0.40376,0.19055,0.83127,0.33651,1.25755,0.47266c2.92101,0.93307,5.50056,2.4804,7.89809,4.36086
			c0.30807,0.24163,0.6131,0.50955,0.96288,0.67198c2.24709,1.04346,3.86302,2.85811,5.53632,4.57911
			c0.73129,0.75213,1.25491,1.71085,1.84461,2.59457c0.5284,0.79183,1.0181,1.60954,1.52487,2.41584
			C85.70317,43.20269,85.68739,43.21267,85.67161,43.22263z"/>
		<path class="st1" d="M473.46716,44.18613c0.00168-0.00081-0.29175,0.1664-0.60339,0.28607
			c-2.01205,0.77265-3.68866,2.07156-5.37436,3.36729c-0.97241,0.74746-1.98065,1.45345-3.01349,2.11447
			c-0.4104,0.26265-0.92017,0.4002-1.4039,0.511c-0.70682,0.1619-1.42923,0.25969-2.14792,0.36485
			c-2.4007,0.35124-4.08847-0.82665-4.79776-3.13931c-0.603-1.96593-0.46997-3.98154-0.63245-5.977
			c-0.0296-0.36361,0.11832-0.78081,0.29568-1.11398c0.36618-0.68795,0.72443-1.4091,1.23346-1.98662
			c1.51202-1.71556,3.00446-3.45732,4.78604-4.91324c0.17285-0.14125,0.35791-0.27626,0.49948-0.44574
			c1.12421-1.34544,2.71613-1.73354,4.3158-2.00181c0.62277-0.10446,1.3653,0.03366,1.95383,0.28985
			c1.42984,0.62252,2.80356,1.37484,4.1958,2.08291c0.80011,0.407,1.27551,1.02466,1.39133,1.95434
			c0.05212,0.4182,0.29535,0.82842,0.5126,1.20746c0.90475,1.57876,1.14389,3.23574,0.71841,5.00895
			C475.15973,42.78186,474.63275,43.51962,473.46716,44.18613z"/>
	</g>
</g>
</svg>
