<?xml version="1.0" encoding="utf-8"?>
<!-- Generator: Adobe Illustrator 25.4.1, SVG Export Plug-In . SVG Version: 6.00 Build 0)  -->
<svg version="1.1" id="Layer_1" xmlns="http://www.w3.org/2000/svg" xmlns:xlink="http://www.w3.org/1999/xlink" x="0px" y="0px"
	 viewBox="0 0 354 188.99892" style="enable-background:new 0 0 354 188.99892;" xml:space="preserve">
<style type="text/css">
	.st0{fill:#EFEDE5;}
	.st1{fill:#B48039;}
	.st2{fill:#AD8246;}
	.st3{fill:none;stroke:#B48039;stroke-width:0.99892;stroke-miterlimit:10;}
</style>
<g>
	<path class="st1" d="M282.37311,116.99803c-0.04984-1.20654,0.20709-2.53668,0.29138-3.87311
		c0.10205-1.61846,0.55344-3.13411,0.9007-4.68584c0.0416-0.18581,0.06726-0.38052,0.05994-0.56953
		c-0.00327-0.08393-0.09659-0.17715-0.17215-0.23695c-0.0202-0.01598-0.15036,0.06013-0.18781,0.12028
		c-0.31973,0.51315-0.63031,1.03198-0.94229,1.54992c-0.12741,0.21159-0.22479,0.44773-0.38174,0.634
		c-0.77744,0.92264-1.59534,1.8121-2.35147,2.7515c-1.01483,1.26083-2.22974,2.33599-3.21439,3.63228
		c-0.8577,1.12919-1.74445,2.25195-2.80276,3.22412c-0.58188,0.53454-1.0538,1.18779-1.58609,1.77776
		c-0.36801,0.40789-0.75165,0.8019-1.13333,1.1972c-1.06818,1.10632-2.13608,2.21294-3.20996,3.31368
		c-0.51682,0.52975-1.0477,1.04577-1.57089,1.56934c-0.75504,0.7556-1.57895,1.44615-2.18875,2.33904
		c-0.09042,0.13235-0.22028,0.24347-0.34818,0.3436c-0.90546,0.70865-1.80951,1.41924-2.7261,2.11328
		c-0.39243,0.29715-0.81284,0.5575-1.22241,0.8318c-0.11353,0.07602-0.24533,0.12816-0.34906,0.2148
		c-1.46701,1.22578-3.15887,1.72913-5.05577,1.59943c-0.85652-0.05855-1.59137-0.41501-2.25586-0.91995
		c-0.76347-0.58015-1.50116-1.19423-2.24995-1.79372c-0.04286-0.03432-0.08972-0.06544-0.12614-0.10582
		c-0.66119-0.73293-1.32529-1.46333-1.97997-2.20207c-0.58275-0.65764-1.15405-1.32539-1.73169-1.98757
		c-0.909-1.04194-1.66315-2.17927-2.18806-3.46578c-0.14433-0.35378-0.3513-0.68224-0.53369-1.02008
		c-0.06512-0.1206-0.1582-0.22781-0.21194-0.35258c-0.59657-1.38503-1.1808-2.77543-1.78287-4.15806
		c-0.5498-1.26264-0.70496-2.58788-0.68849-3.94858c0.00734-0.60435-0.02692-1.20912-0.03528-1.8138
		c-0.00266-0.19069-0.00908-0.38754,0.03146-0.57159c0.23584-1.0704,0.46289-2.13731,0.8889-3.16228
		c0.62564-1.50536,1.43471-2.90629,2.31586-4.26337c0.53558-0.82482,1.21164-1.54025,2.02187-2.14177
		c1.1209-0.83219,2.15781-1.7766,3.26294-2.63126c0.93239-0.72108,1.91486-1.3771,2.86751-2.0724
		c0.8192-0.5979,1.62355-1.21619,2.4431-1.81361c0.26288-0.19165,0.55283-0.34626,0.8315-0.516
		c0.04672-0.02844,0.10744-0.03785,0.14777-0.07233c0.52357-0.44776,1.10506-0.79379,1.73604-1.07449
		c0.49847-0.22174,0.98965-0.4763,1.44406-0.77677c0.59103-0.39085,1.15771-0.82298,1.70648-1.27204
		c0.4873-0.39875,0.94241-0.83788,1.40009-1.27147c1.05557-0.99995,2.14706-1.96307,3.05829-3.10793
		c0.37244-0.4679,0.7926-0.9009,1.21756-1.3231c0.52094-0.51755,0.85278-1.13905,1.10629-1.81509
		c0.06696-0.17856,0.12494-0.37619,0.24399-0.51686c0.59525-0.70325,0.95526-1.54114,1.33832-2.3584
		c0.28943-0.61754,0.4895-1.27976,0.6958-1.93271c0.19852-0.6284,0.39191-1.26311,0.51645-1.90876
		c0.103-0.53342,0.10986-1.08636,0.14566-1.63155c0.06161-0.9371-0.04382-1.87115-0.26355-2.77113
		c-0.15958-0.65374-0.46155-1.29133-0.80197-1.87685c-0.31482-0.54149-0.75079-1.01655-1.16309-1.49528
		c-0.15402-0.17879-0.37369-0.35165-0.595-0.41266c-0.79736-0.21976-1.60837-0.38078-2.44254-0.18925
		c-0.16037,0.03681-0.32785,0.08404-0.48825,0.07272c-1.21985-0.08598-2.29123,0.52042-3.4465,0.73319
		c-0.1492,0.02747-0.27182,0.17913-0.41708,0.25292c-0.19073,0.09689-0.38736,0.2326-0.58914,0.24755
		c-0.53232,0.03939-0.92758,0.30836-1.3028,0.64577c-0.57196,0.51428-1.1398,1.03391-1.72791,1.52923
		c-0.90794,0.76463-1.69649,1.64101-2.45697,2.54636c-0.38696,0.46069-0.76111,0.92078-1.25536,1.29369
		c-0.4308,0.32507-0.75179,0.79623-1.11797,1.20582c-0.07297,0.08159-0.11191,0.20763-0.19864,0.26074
		c-0.82974,0.50814-1.11856,1.40315-1.55667,2.18454c-0.2305,0.41111-0.4471,0.81653-0.81099,1.12946
		c-0.12158,0.10452-0.24504,0.23827-0.29869,0.38405c-0.12065,0.32783-0.40201,0.50684-0.60246,0.75726
		c-0.79855,0.99741-1.84042,1.82621-2.23938,3.11207c-0.02403,0.07742-0.06416,0.15478-0.11432,0.21835
		c-0.64799,0.82154-1.19168,1.7085-1.68483,2.62994c-0.19374,0.36199-0.4386,0.69624-0.64706,1.05083
		c-0.54085,0.92018-1.08151,1.8406-1.6071,2.76952c-0.18825,0.33277-0.33261,0.69035-0.49763,1.03631
		c-0.29379,0.61584-0.5818,1.23458-0.88547,1.84554c-0.10953,0.22037-0.24069,0.43438-0.39008,0.62981
		c-0.88777,1.16138-1.58655,2.42535-2.12935,3.7824c-0.11871,0.29683-0.30478,0.59422-0.53397,0.81409
		c-0.63092,0.60535-1.04626,1.35198-1.38651,2.12687c-0.37755,0.8599-0.77998,1.68903-1.33527,2.45367
		c-0.61272,0.84371-1.17245,1.72723-1.72604,2.6117c-0.1716,0.27416-0.25005,0.60719-0.36725,0.91476
		c-0.30302,0.79508-0.55829,1.61221-0.91624,2.38165c-0.54277,1.16673-1.15742,2.29995-1.73825,3.44907
		c-0.07422,0.1468-0.14951,0.29849-0.18864,0.45673c-0.29366,1.18732-0.85083,2.25259-1.44994,3.30945
		c-0.43269,0.76325-0.79803,1.5699-1.13243,2.38229c-0.40021,0.97232-0.93727,1.85656-1.51353,2.72958
		c-0.36078,0.54665-0.62434,1.15705-0.93843,1.73511c-0.13087,0.24089-0.27216,0.47696-0.42169,0.70676
		c-0.46492,0.71447-0.93445,1.42594-1.40622,2.13593c-0.09088,0.1368-0.1823,0.2814-0.30334,0.38864
		c-0.67116,0.59445-1.10847,1.36012-1.58255,2.1021c-0.17444,0.27303-0.40506,0.51024-0.61131,0.76277
		c-0.1028,0.12585-0.22449,0.2393-0.30995,0.37572c-0.36336,0.58009-0.72606,1.161-1.07097,1.75212
		c-0.55489,0.95096-1.48836,1.07924-2.43555,1.06267c-0.63551-0.01111-1.27075-0.74438-1.28638-1.3967
		c-0.01776-0.74043,0.02335-1.48318,0.2923-2.19127c0.0777-0.20451,0.18752-0.41516,0.19278-0.62526
		c0.01317-0.52522,0.21983-0.88857,0.59984-1.27342c0.3223-0.32643,0.43185-0.87195,0.60904-1.33073
		c0.35625-0.92242,0.70461-1.84817,1.03595-2.77975c0.17448-0.49061,0.27657-1.00786,0.46387-1.4928
		c0.32581-0.84355,0.68854-1.67299,1.04257-2.50547c0.51555-1.21224,0.9969-2.44129,1.56792-3.62702
		c0.52675-1.09381,0.9615-2.21434,1.30385-3.37525c0.03873-0.13132,0.08902-0.26148,0.15135-0.38326
		c0.82953-1.62046,1.36589-3.35805,1.95158-5.06934c0.33876-0.98975,0.7117-1.95238,1.1563-2.89588
		c0.17371-0.36866,0.27194-0.78109,0.3512-1.18407c0.11299-0.57455,0.34058-1.09565,0.58107-1.62476
		c0.35115-0.77266,0.6362-1.57567,0.9415-2.3688c0.52306-1.35883,1.03978-2.72012,1.55983-4.08012
		c0.03928-0.10278,0.0981-0.20003,0.12395-0.30569c0.43869-1.79297,1.41039-3.38832,1.91005-5.15816
		c0.09711-0.34396,0.18797-0.68999,0.2706-1.0377c0.21008-0.88416,0.44562-1.75314,0.88016-2.56658
		c0.28294-0.52963,0.46375-1.11405,0.68414-1.67634c0.01323-0.03381-0.02841-0.08913-0.04453-0.13444
		c-0.0493,0.02086-0.11227,0.02898-0.1456,0.06473c-0.16867,0.18101-0.32822,0.37042-0.49353,0.55461
		c-0.99039,1.10358-1.98413,2.20417-2.97133,3.31061c-0.60416,0.67707-1.19885,1.36259-1.7973,2.04477
		c-0.09058,0.10326-0.20251,0.19659-0.26357,0.31557c-0.58168,1.13395-1.6237,1.85046-2.49565,2.71224
		c-0.79909,0.78979-1.72679,1.44759-2.56099,2.20416c-0.87151,0.79038-1.7551,1.56598-2.63565,2.34565
		c-0.77928,0.69-1.47928,1.46922-2.22043,2.20285c-0.15488,0.15331-0.33586,0.28041-0.5062,0.41788
		c-0.2558,0.20644-0.51761,0.40574-0.76851,0.61794c-1.25763,1.06373-2.47054,2.18607-3.78136,3.17932
		c-1.0907,0.82643-2.28389,1.5213-3.45616,2.23418c-0.36812,0.22386-0.81026,0.33446-1.22833,0.46559
		c-0.48749,0.15292-0.86932,0.40418-1.18962,0.82489c-0.69942,0.91862-1.32849,1.87651-1.90152,2.87795
		c-0.27129,0.4741-0.62674,0.90078-0.95207,1.34303c-0.56885,0.77329-1.14273,1.54288-1.71716,2.31203
		c-0.13158,0.17615-0.25648,0.36252-0.41431,0.51288c-0.66386,0.63247-1.15562,1.38499-1.59309,2.18304
		c-0.38757,0.70704-0.98415,1.24561-1.53265,1.82164c-0.45457,0.47741-0.91568,0.94936-1.35233,1.44283
		c-0.52188,0.5898-1.22015,0.93124-1.85724,1.35632c-0.63713,0.42513-1.33418,0.75542-1.91743,1.26912
		c-0.21338,0.18794-0.38634,0.36916-0.48796,0.63977c-0.29861,0.79518-0.79518,1.42275-1.53088,1.88233
		c-0.62732,0.39187-1.1908,0.88492-1.81091,1.2897c-0.70985,0.46333-1.45755,0.86826-2.17726,1.31709
		c-1.30367,0.81297-2.70358,1.47559-3.88474,2.48105c-0.12498,0.1064-0.25677,0.21962-0.40549,0.2809
		c-0.84596,0.34857-1.58864,0.86661-2.35728,1.35101c-0.45161,0.28465-1.01169,0.40559-1.5327,0.5692
		c-0.41805,0.13127-0.84917,0.22275-1.27721,0.31989c-1.06458,0.24155-2.11235,0.62932-3.23663,0.35211
		c-0.21094-0.052-0.43817-0.03644-0.65746-0.05637c-0.89232-0.08115-1.72475-0.32417-2.45636-0.86906
		c-0.992-0.73882-2.01337-1.43988-2.98103-2.20886c-0.37856-0.30084-0.6418-0.74529-0.9646-1.11819
		c-0.44888-0.51854-0.89742-1.0377-1.35867-1.54515c-0.74821-0.82312-1.17931-1.85143-1.8017-2.75591
		c-0.42035-0.61086-0.83142-1.22516-1.06677-1.94515c-0.09071-0.2775-0.39018-0.49166-0.46312-0.76921
		c-0.2738-1.04185-0.89877-1.93219-1.22134-2.94889c-0.28252-0.89036-0.55942-1.7825-0.841-2.67315
		c-0.05791-0.18314-0.10933-0.37112-0.19296-0.54261c-0.10098-0.20707-0.30209-0.24828-0.47461-0.08793
		c-0.24075,0.22379-0.46442,0.46738-0.68234,0.71402c-0.3058,0.34615-0.55643,0.72503-0.96979,0.99023
		c-0.30507,0.19572-0.49689,0.57238-0.72937,0.87592c-0.51671,0.67462-1.02707,1.35413-1.54045,2.03131
		c-0.39464,0.52055-0.68114,1.12759-1.27806,1.48454c-0.17552,0.10494-0.30212,0.31637-0.41183,0.50222
		c-0.42343,0.71737-0.93369,1.34595-1.62556,1.83063c-0.26395,0.18492-0.49365,0.4453-0.67744,0.71346
		c-0.7739,1.12919-1.81845,1.96703-2.88573,2.79253c-0.60614,0.46881-1.15807,1.00742-1.73854,1.50983
		c-0.97731,0.84586-2.00487,1.61499-3.17558,2.18539c-0.66461,0.32382-1.26747,0.7975-1.95503,1.04659
		c-1.74321,0.63155-3.51981,0.99664-5.41661,0.70776c-0.96751-0.14737-1.87564-0.399-2.76833-0.75388
		c-0.32883-0.13072-0.62834-0.3345-0.94307-0.50151c-1.28802-0.6835-2.60567-1.32281-3.75302-2.23524
		c-0.62219-0.49478-1.19923-1.04889-1.7719-1.60188c-0.17093-0.16504-0.31892-0.40282-0.37167-0.63165
		c-0.13269-0.57558-0.40793-1.0733-0.69621-1.57707c-0.35824-0.62601-0.54929-1.30754-0.64601-2.02969
		c-0.17925-1.33817-0.18449-2.67757-0.14181-4.02118c0.02612-0.82198,0.0449-1.64418,0.07032-2.46619
		c0.00338-0.10955-0.00069-0.23154,0.04462-0.32565c0.35716-0.74181,0.34783-1.5457,0.42297-2.33765
		c0.05711-0.60202,0.14346-1.19899,0.38937-1.76514c0.09661-0.22243,0.11604-0.47928,0.16326-0.72189
		c0.02607-0.13388-0.00646-0.29982,0.06169-0.4015c0.45157-0.6736,0.46973-1.43895,0.50948-2.20385
		c0.00537-0.10327,0.04588-0.20983,0.0908-0.30513c0.34991-0.74226,0.71497-1.47753,1.05561-2.22397
		c0.39919-0.87476,0.76163-1.76653,1.17151-2.63609c0.34964-0.74174,0.73392-1.46783,1.12361-2.18965
		c0.14238-0.26378,0.33572-0.50213,0.52098-0.74029c0.54601-0.70188,0.94748-1.47218,1.17345-2.33612
		c0.05414-0.20694,0.1604-0.40611,0.27203-0.59114c0.45158-0.74841,1.03194-1.43204,1.13327-2.35155
		c0.01115-0.10114,0.09293-0.19718,0.15082-0.29006c0.75824-1.21654,1.35017-2.51671,1.95918-3.81079
		c0.25397-0.53965,0.6432-1.01601,0.9756-1.51807c0.07544-0.11392,0.19441-0.20345,0.25221-0.32393
		c0.41023-0.85505,0.97253-1.64323,1.13792-2.60793c0.02565-0.14964,0.14464-0.28385,0.22299-0.42378
		c0.22729-0.40592,0.5137-0.78986,0.67218-1.22092c0.35414-0.96337,0.85956-1.83147,1.42812-2.67969
		c0.27075-0.40393,0.41191-0.8955,0.60524-1.35015c0.06396-0.15039,0.06915-0.34077,0.16624-0.45979
		c1.09113-1.33755,1.64862-2.96958,2.47453-4.45271c0.05324-0.0956,0.10689-0.1977,0.12819-0.30327
		c0.14781-0.73246,0.4059-1.42834,0.73827-2.09175c0.4552-0.90867,0.57504-1.88203,0.60634-2.87244
		c0.02693-0.85242,0.02286-1.7061,0.01817-2.55914c-0.00462-0.84276-0.50439-1.46431-1.07617-1.96477
		c-0.44029-0.38538-1.06252-0.41277-1.64694-0.2063c-1.01909,0.35999-1.9621,0.84836-2.76743,1.58669
		c-0.24052,0.22051-0.54092,0.37434-0.79324,0.58363c-0.76033,0.6307-1.53606,1.24628-2.25691,1.92007
		c-0.63266,0.59134-1.16049,1.28005-1.81244,1.86952c-1.11348,1.00675-2.08899,2.15857-2.95656,3.40182
		c-0.54713,0.78409-1.28764,1.43327-1.83447,2.21752c-0.72955,1.04631-1.80737,1.76644-2.51408,2.82678
		c-0.16199,0.24303-0.44383,0.40583-0.66917,0.60704c-0.69537,0.62093-1.45117,1.18204-2.00636,1.9442
		c-0.24143,0.33141-0.45516,0.68615-0.65126,1.04673c-0.30546,0.56172-0.68381,1.04867-1.17024,1.47425
		c-0.36767,0.32163-0.6693,0.72581-0.96664,1.11874c-0.28072,0.37096-0.4992,0.78886-0.77793,1.16154
		c-0.39794,0.53203-0.73279,1.0822-0.93833,1.72655c-0.2324,0.72855-0.83079,1.21011-1.34997,1.7376
		c-0.57398,0.58318-1.16232,1.15482-1.69754,1.77212c-0.18471,0.21304-0.29278,0.54154-0.32228,0.82896
		c-0.04758,0.46338-0.23275,0.85319-0.50139,1.20098c-0.62004,0.80272-1.28832,1.56871-1.89605,2.38029
		c-0.52296,0.69846-1.15698,1.3245-1.45811,2.17889c-0.08942,0.2537-0.28825,0.46695-0.41923,0.70834
		c-0.2084,0.38409-0.403,0.77572-0.60127,1.16525c-0.09928,0.19505-0.14844,0.44089-0.29787,0.581
		c-0.90408,0.8479-1.53225,1.92603-2.38245,2.81847c-0.20027,0.21021-0.31892,0.50091-0.46329,0.76115
		c-0.48852,0.8806-0.80363,1.85528-1.55296,2.59405c-0.27348,0.26962-0.35287,0.72503-0.57985,1.05509
		c-0.52428,0.76244-0.77341,1.62738-1.03319,2.49632c-0.2837,0.94907-0.64403,1.86794-1.23541,2.67852
		c-0.08022,0.10995-0.13764,0.23821-0.19492,0.36291c-0.42365,0.92229-0.82034,1.85801-1.2755,2.76439
		c-0.26888,0.53542-0.60502,1.04208-0.95344,1.53139c-0.57321,0.80498-1.19527,1.57516-1.76863,2.38004
		c-0.33234,0.46655-0.60097,0.97799-0.91583,1.45769c-0.13998,0.21328-0.25415,0.40458-0.19949,0.68245
		c0.08022,0.40766-0.07363,0.78189-0.36143,1.05043c-0.53925,0.50317-1.11792,0.9641-1.68024,1.44254
		c-0.27145,0.23094-0.6048,0.41815-0.80385,0.70016c-0.84451,1.19652-2.0144,2.10106-2.88207,3.27516
		c-0.46383,0.62762-1.0733,0.84494-1.88183,0.71806c-0.96068-0.15074-1.78371-0.51508-2.50784-1.14374
		c-0.60103-0.52179-0.80785-1.16844-0.83015-1.96809c-0.02214-0.79329,0.24544-1.48773,0.42232-2.22383
		c0.24598-1.02368,0.59306-2.0038,1.03891-2.95249c0.1049-0.22318,0.23904-0.43248,0.35596-0.65018
		c0.31133-0.57967,0.64153-1.15038,0.92628-1.7429c0.57024-1.18671,1.13783-2.37574,1.66227-3.58304
		c0.32491-0.74793,0.56711-1.53171,0.84953-2.29826c0.06557-0.17796,0.13028-0.35835,0.21831-0.52557
		c0.48434-0.92001,1.00571-1.81813,1.35188-2.80945c0.14138-0.40492,0.46906-0.7409,0.67461-1.12808
		c0.50226-0.94613,0.9827-1.90382,1.47193-2.85687c0.43907-0.85535,0.87804-1.71073,1.31747-2.56589
		c0.02515-0.04894,0.05854-0.09401,0.08031-0.14426c0.49127-1.13369,0.97638-2.2701,1.47376-3.4011
		c0.2983-0.67831,0.61524-1.34843,0.92453-2.0219c0.03445-0.07501,0.07977-0.14547,0.1096-0.22211
		c0.41677-1.07059,0.82346-2.1452,1.24982-3.21195c0.32558-0.81463,0.67608-1.61929,1.01436-2.42884
		c0.10598-0.25362,0.26895-0.50135,0.30106-0.76457c0.10213-0.8364,0.52189-1.55413,0.81454-2.31702
		c0.38287-0.99809,0.81635-1.97678,1.22923-2.96333c0.06342-0.15154,0.1311-0.30135,0.2002-0.45041
		c0.28841-0.62223,0.597-1.2359,0.86304-1.86753c0.4366-1.03659,0.85712-2.08034,1.26282-3.12942
		c0.27621-0.71432,0.48942-1.45353,0.77779-2.16249c0.38387-0.94368,0.79215-1.87431,0.92522-2.89823
		c0.02795-0.21497,0.12527-0.42097,0.1912-0.63093c0.28835-0.91837,0.5758-1.83702,0.86612-2.75477
		c0.0825-0.2608,0.17496-0.51842,0.26012-0.77841c0.04261-0.13007,0.11352-0.26237,0.11282-0.39334
		c-0.0062-1.14851-0.05237-2.29701-0.43476-3.39381c-0.27692-0.79424-1.18297-1.40284-2.04446-1.41814
		c-0.46626-0.00828-0.94056-0.04487-1.35122,0.25829c-0.06342,0.04682-0.1517,0.06901-0.23189,0.08271
		c-1.35699,0.23182-2.16219,1.18626-2.9226,2.21002c-0.50782,0.68372-1.02348,1.36301-1.56758,2.01771
		c-0.22377,0.26924-0.52509,0.47668-0.80219,0.69843c-0.88385,0.70731-1.73232,1.47147-2.36399,2.40091
		c-0.63425,0.93326-1.31507,1.81627-2.04975,2.6683c-0.77063,0.89374-1.50127,1.82195-2.24972,2.73481
		c-0.36479,0.44492-0.69687,0.92281-1.10245,1.32686c-0.89895,0.89555-1.66498,1.88541-2.3642,2.94308
		c-0.6637,1.00392-1.42809,1.9407-2.1144,2.93045c-0.51363,0.74074-0.95345,1.53255-1.46418,2.27548
		c-0.37045,0.5389-0.77753,1.0581-1.215,1.544c-0.48061,0.5338-0.8999,1.09767-1.25806,1.72265
		c-0.64101,1.11855-1.23707,2.25677-1.80984,3.41214c-0.3205,0.64651-0.62217,1.35891-1.28115,1.78824
		c-0.06523,0.0425-0.11721,0.12108-0.15058,0.19421c-0.28306,0.62014-0.54179,1.25211-0.8447,1.86223
		c-0.29078,0.58568-0.61572,1.1552-0.94347,1.7215c-0.41217,0.7122-0.85086,1.40022-1.17065,2.17264
		c-0.25742,0.62177-0.7486,1.14658-1.13467,1.71534c-0.10718,0.15791-0.2249,0.31123-0.31147,0.48015
		c-0.6628,1.2934-1.20804,2.64611-2.00607,3.87208c-0.22179,0.34074-0.38348,0.73912-0.48895,1.13346
		c-0.27905,1.0434-0.8718,1.89493-1.57238,2.67934c-0.36121,0.40443-0.55526,0.85754-0.69924,1.37469
		c-0.26521,0.95255-0.64284,1.86291-1.18269,2.70617c-0.44312,0.69217-0.88496,1.39754-1.2147,2.14665
		c-0.37956,0.86237-0.91024,1.62434-1.38338,2.42555c-0.15266,0.25851-0.26378,0.54292-0.42883,0.79238
		c-0.14842,0.22435-0.32174,0.44346-0.52381,0.61919c-0.91917,0.79935-1.68582,1.72776-2.37867,2.72355
		c-0.10883,0.15642-0.25707,0.28496-0.38195,0.4308c-0.17885,0.20885-0.41737,0.39528-0.51716,0.63786
		c-0.31432,0.76408-0.96105,1.26358-1.44667,1.88664c-0.62003,0.79553-1.46984,1.22008-2.51411,1.18027
		c-0.93232-0.03555-1.86561-0.04764-2.7976-0.08948c-0.7083-0.03178-1.01959-0.45796-0.88503-1.15891
		c0.1241-0.64636,0.22258-1.29842,0.37146-1.93887c0.07361-0.31667,0.24779-0.60857,0.35489-0.91913
		c0.3496-1.01361,0.76894-1.99351,1.25335-2.95273c0.35789-0.7087,0.60028-1.47606,0.88915-2.21922
		c0.43685-1.12386,0.81484-2.27444,1.31736-3.36794c0.6441-1.4016,1.23558-2.81722,1.72343-4.2811
		c0.18073-0.5423,0.50209-1.03709,0.75061-1.5577c0.12912-0.27052,0.24407-0.54815,0.35693-0.82602
		c0.19633-0.48341,0.4134-0.96065,0.57361-1.45605c0.5437-1.68129,1.46758-3.19284,2.12683-4.82336
		c0.56581-1.39939,1.27192-2.74396,1.79988-4.15618c0.45133-1.20724,1.08741-2.34923,1.33972-3.6301
		c0.01572-0.07979,0.04684-0.16073,0.08849-0.2306c0.47971-0.80459,0.85307-1.65377,1.13103-2.54976
		c0.18643-0.601,0.4092-1.1917,0.63799-1.77831c0.20944-0.53703,0.44923-1.06223,0.67484-1.59299
		c0.47284-1.1124,0.94891-2.22344,1.4165-3.33804c0.39237-0.93528,0.77802-1.87344,1.15831-2.81368
		c0.07108-0.17577,0.16383-0.37545,0.14092-0.55026c-0.06314-0.48187,0.21307-0.82064,0.38941-1.22003
		c0.58665-1.32864,1.22903-2.63459,1.64298-4.03715c0.43536-1.47514,0.86995-2.94876,1.5452-4.34621
		c0.45123-0.93382,0.7592-1.93682,1.13169-2.9087c0.1963-0.51212,0.39096-1.02489,0.59076-1.53565
		c0.40039-1.0235,0.82727-2.03737,1.19905-3.07112c0.34171-0.95017,0.63809-1.9174,0.93039-2.88438
		c0.20519-0.67876,0.55901-1.28481,1.07498-1.73235c0.97043-0.84177,1.96117-1.67932,3.03618-2.37548
		c0.92335-0.59796,1.79528-1.24191,2.62183-1.95881c0.12412-0.10764,0.25695-0.20971,0.39884-0.29165
		c0.85524-0.4938,1.44876-0.39518,2.12132,0.34663c0.24017,0.26491,0.48877,0.52364,0.71082,0.80324
		c0.51585,0.64952,0.85495,1.33668,0.46392,2.19091c-0.11257,0.24596-0.1391,0.53051-0.21301,0.79515
		c-0.15394,0.55126-0.21025,1.13337-0.59703,1.60709c-0.13212,0.16182-0.18209,0.3992-0.24221,0.60987
		c-0.27254,0.95488-0.66482,1.85763-1.09792,2.75071c-0.28646,0.59067-0.46109,1.23551-0.68666,1.85579
		c-0.05642,0.15514-0.08181,0.33657-0.17986,0.45922c-0.84014,1.05105-1.02169,2.35404-1.39411,3.58408
		c-0.03976,0.13128-0.06692,0.26895-0.12527,0.39159c-0.74284,1.56088-1.19045,3.23584-1.85683,4.82235
		c-0.37883,0.90192-0.68735,1.83786-1.15166,2.70439c-0.15572,0.2906-0.3121,0.58086-0.4681,0.87132
		c-0.48917,0.91084-0.6245,1.9283-0.86844,2.91232c-0.02028,0.08179,0.03396,0.24575,0.09271,0.26794
		c0.08031,0.03033,0.2271-0.00823,0.29385-0.07157c0.13594-0.12904,0.25246-0.28527,0.35032-0.44648
		c0.36823-0.60657,0.65661-1.26701,1.22403-1.73535c0.07869-0.06495,0.11086-0.18615,0.16488-0.28113
		c0.33981-0.5975,0.71162-1.15255,1.26951-1.59518c0.37723-0.2993,0.64389-0.74354,0.94051-1.13762
		c0.59412-0.78931,1.12975-1.62766,1.77363-2.37312c0.66103-0.76533,1.32359-1.52988,2.08488-2.21726
		c0.61782-0.55782,1.03234-1.34416,1.52-2.04106c0.18807-0.26874,0.35519-0.52448,0.63663-0.73257
		c0.3443-0.25455,0.58895-0.64133,0.88737-0.96098c0.89719-0.961,1.79216-1.92426,2.70377-2.87148
		c0.33918-0.35243,0.70282-0.68749,1.08852-0.98784c1.23666-0.96304,2.26474-2.15665,3.47359-3.14381
		c1.18867-0.9707,2.44804-1.85473,3.67371-2.78033c0.21839-0.16493,0.4334-0.33675,0.63341-0.52315
		c0.72117-0.67209,1.63573-0.99883,2.49793-1.42123c1.40977-0.69067,2.90808-1.1138,4.46352-0.97177
		c1.68719,0.15405,3.28041,0.6553,4.45969,2.03061c0.66628,0.77703,1.28741,1.57682,1.71793,2.50694
		c0.56862,1.22843,0.96851,2.46509,0.87663,3.88304c-0.07866,1.21369-0.47695,2.28783-0.86662,3.39603
		c-0.26225,0.7458-0.68844,1.43601-0.72944,2.2649c-0.01546,0.31285-0.30171,0.61404-0.31092,0.92511
		c-0.01814,0.61308-0.43297,1.05118-0.58259,1.58661c-0.2826,1.01131-0.73743,1.94104-1.16575,2.8886
		c-0.46228,1.02267-0.89861,2.0579-1.31631,3.09966c-0.2858,0.71276-0.54595,1.43822-0.77137,2.17219
		c-0.29165,0.94971-0.64532,1.86568-1.17219,2.71271c-0.34943,0.56179-0.37003,1.19518-0.33722,1.83199
		c0.00195,0.0377,0.05982,0.09358,0.10023,0.1026c0.04456,0.00994,0.1207-0.00835,0.14576-0.04205
		c0.21131-0.28429,0.49206-0.54774,0.60404-0.86901c0.28015-0.80366,0.82489-1.39458,1.3643-2.0182
		c0.50891-0.58834,1.12704-1.04063,1.68345-1.56724c0.07999-0.07569,0.17934-0.14069,0.23383-0.23204
		c0.63879-1.07068,1.61022-1.8652,2.3543-2.84919c1.14337-1.51203,2.30659-3.00905,3.46284-4.51132
		c0.11713-0.15218,0.23853-0.30183,0.3674-0.44408c0.82975-0.91594,1.64607-1.84476,2.49754-2.74015
		c1.18952-1.2509,2.32656-2.55864,3.7268-3.59214c0.1322-0.09758,0.27757-0.19065,0.37712-0.3171
		c0.77576-0.98527,1.7491-1.73798,2.79137-2.4142c0.16016-0.10391,0.30145-0.23946,0.44212-0.37042
		c0.74692-0.6953,1.53806-1.32723,2.4711-1.76166c0.09891-0.04605,0.1992-0.10051,0.28008-0.17225
		c1.54495-1.3708,3.26373-2.50834,5.02858-3.55583c1.27097-0.75435,2.62877-1.39493,4.01181-1.91675
		c0.96413-0.36378,2.02927-0.49959,3.0629-0.62689c0.83772-0.10318,1.62189,0.23365,2.35638,0.63078
		c0.57756,0.31226,1.14017,0.6522,1.71855,0.96285c0.25819,0.13869,0.42644,0.32327,0.52333,0.60209
		c0.07881,0.22677,0.2173,0.43203,0.31564,0.65291c0.43494,0.97678,1.16544,1.80046,1.48276,2.83547
		c0.14377,0.46892,0.28758,0.94716,0.34415,1.43136c0.0947,0.81049,0.32091,1.62442,0.0654,2.44742
		c-0.02394,0.07713-0.02657,0.16421-0.02324,0.24602c0.05455,1.34338-0.36609,2.60032-0.70256,3.87238
		c-0.12027,0.45471-0.30348,0.86177-0.63126,1.22828c-0.24605,0.27514-0.36066,0.66793-0.53317,1.00865
		c-0.1964,0.38786-0.35718,0.79932-0.59654,1.15848c-0.33293,0.49953-0.75439,0.94065-1.08014,1.44419
		c-0.20459,0.31625-0.28915,0.70779-0.45352,1.05318c-0.15231,0.32009-0.33516,0.62605-0.51184,0.93405
		c-0.19086,0.33275-0.38344,0.66489-0.58766,0.98949c-0.20264,0.32207-0.43668,0.62514-0.62816,0.95335
		c-0.26205,0.44912-0.50241,0.91125-0.74216,1.37295c-0.34019,0.65512-0.6772,1.31206-1.00356,1.97413
		c-0.13278,0.26934-0.28841,0.54446-0.34033,0.83369c-0.23131,1.28822-0.89848,2.34524-1.67249,3.36233
		c-0.29578,0.38866-0.57596,0.81416-0.74699,1.26681c-0.2477,0.65549-0.60092,1.23634-1.01663,1.78397
		c-0.32024,0.4219-0.54315,0.87727-0.71912,1.37737c-0.24561,0.6979-0.52092,1.39257-0.86176,2.04793
		c-0.45488,0.87463-0.98001,1.71306-1.48564,2.56068c-0.13954,0.23391-0.31772,0.4447-0.4769,0.667
		c-0.89412,1.24869-1.75058,2.50712-2.27837,3.97969c-0.22356,0.62379-0.48036,1.26054-0.86264,1.84531
		c-0.28308,0.43302-0.31374,1.04127-0.4142,1.57941c-0.05582,0.29904-0.05171,0.59993-0.30736,0.82376
		c-0.0786,0.06881-0.13319,0.17722-0.17166,0.27786c-0.42171,1.10324-0.88403,2.1917-1.08582,3.36842
		c-0.12494,0.72866-0.21759,1.47005-0.55267,2.14715c-0.03575,0.0722-0.08925,0.18343-0.06017,0.23251
		c0.30309,0.51171-0.06482,0.99576-0.05696,1.49603c0.00771,0.49086-0.10713,0.98275-0.15027,1.47576
		c-0.0164,0.18742-0.02368,0.39297,0.03499,0.56657c0.24051,0.71165,0.2872,1.4222,0.23314,2.17678
		c-0.0356,0.49672,0.11206,1.05592,0.33517,1.5097c0.29889,0.60793,0.71249,1.16098,1.3662,1.49373
		c0.46016,0.23424,0.87785,0.55525,1.30276,0.85421c0.2993,0.21059,2.62224,1.19247,2.972,1.17857
		c0.54819-0.02179,1.10928-0.03523,1.63823-0.16281c1.3667-0.32964,2.67169-0.83003,3.90581-1.52137
		c0.70001-0.39214,1.34032-0.84364,1.94904-1.36703c0.74791-0.6431,1.55649-1.21594,2.34288-1.81387
		c0.41457-0.31522,0.73268-0.64243,0.55457-1.24477c-0.10692-0.36159,0.23436-0.61295,0.43176-0.84765
		c0.27197-0.32339,0.53706-0.61394,0.53003-1.06599c-0.00117-0.07558,0.04199-0.16706,0.09355-0.2259
		c0.51614-0.5892,0.89938-1.31635,1.69804-1.61285c0.38596-0.14327,0.74495-0.2973,0.86748-0.78408
		c0.05032-0.19994,0.31425-0.37183,0.51602-0.50235c0.36497-0.2361,0.54927-0.56226,0.72957-0.95422
		c0.39899-0.86729,0.8588-1.71163,1.35809-2.52592c0.31441-0.51276,0.50443-1.02719,0.4984-1.62477
		c-0.00414-0.41271,0.01843-0.81457,0.2749-1.18265c0.11774-0.16895,0.10114-0.42568,0.18002-0.6292
		c0.07628-0.19672,0.16147-0.41126,0.30493-0.55656c0.38989-0.39485,0.58331-0.85303,0.60168-1.40287
		c0.02406-0.72056,0.1523-1.41935,0.43994-2.08871c0.09624-0.22397,0.13728-0.47679,0.17267-0.72089
		c0.14647-1.01095,0.45226-1.97324,0.77391-2.9419c0.51857-1.56177,0.90337-3.1675,1.40047-4.73698
		c0.49786-1.57182,1.05817-3.12405,1.60233-4.68096c0.43494-1.2444,1.04398-2.41239,1.60428-3.60191
		c0.19873-0.42191,0.30595-0.89078,0.53194-1.29518c0.53508-0.95755,1.09764-1.9011,1.68361-2.8285
		c0.70467-1.1153,1.44647-2.20713,2.1685-3.31151c0.10501-0.16061,0.24785-0.32612,0.27368-0.50381
		c0.12631-0.86956,0.73947-1.45178,1.2001-2.12555c0.29416-0.43027,0.56926-0.87359,0.86417-1.30332
		c0.18613-0.27126,0.3671-0.55367,0.59547-0.78693c0.69118-0.70586,1.39369-1.39458,1.97086-2.20765
		c0.3152-0.44405,0.73053-0.82252,1.12907-1.20068c0.73691-0.69923,1.48152-1.39156,2.24715-2.05898
		c0.89076-0.7765,1.79929-1.53332,2.71671-2.2782c0.40331-0.32746,0.85294-0.59721,1.27229-0.90571
		c0.75122-0.55264,1.48602-1.12798,2.24588-1.66825c0.49301-0.35053,0.96556-0.70711,1.37309-1.16614
		c0.28621-0.32237,0.65698-0.60279,1.04277-0.79731c1.08173-0.54543,2.0444-1.28687,3.11115-1.84882
		c1.55757-0.82054,3.14259-1.59303,4.80768-2.17271c0.5634-0.19614,1.17599-0.25066,1.76587-0.3711
		c0.69868-0.14266,1.40167-0.26809,2.09351-0.43865c0.30019-0.07401,0.5731-0.129,0.88519-0.04896
		c1.38708,0.35574,2.76324,0.70752,4.01685,1.46042c0.821,0.49309,1.72951,0.84063,2.59959,1.2517
		c0.32896,0.15542,0.58003,0.39331,0.82896,0.66008c0.56239,0.60264,1.17252,1.16044,1.75139,1.74812
		c0.22951,0.23303,0.46297,0.47522,0.6328,0.75127c0.36023,0.58563,0.7581,1.13318,1.26988,1.59652
		c0.09621,0.0871,0.15923,0.21406,0.22691,0.3289c0.37622,0.63831,0.703,1.31172,1.13332,1.91093
		c0.77588,1.08034,1.32664,2.27665,1.91963,3.45393c0.49876,0.99023,0.74597,2.04778,0.98778,3.12568
		c0.17947,0.80008,0.31241,1.59097,0.4057,2.40334c0.16997,1.48063,0.16016,2.9604,0.07135,4.43856
		c-0.06076,1.01155-0.21539,2.01878-0.35924,3.02348c-0.0737,0.51446-0.20233,1.0225-0.32965,1.52751
		c-0.34248,1.35807-0.51799,2.75533-0.98871,4.08452c-0.14496,0.40932-0.20944,0.85298-0.26543,1.28678
		c-0.11653,0.90298-0.27946,1.78859-0.61328,2.6437c-0.29884,0.76555-0.63409,1.53538-0.78531,2.33508
		c-0.16463,0.8707-0.53879,1.65759-0.76538,2.49681c-0.08237,0.30498-0.05977,0.63829-0.08505,0.95868
		c0.38715,0.06342,0.71774-0.10153,0.96428-0.35202c0.61382-0.62366,1.41238-0.96038,2.14655-1.37419
		c0.7571-0.42672,1.36398-1.0156,2.03003-1.5387c1.01433-0.79661,2.0218-1.60744,2.97363-2.47636
		c0.72723-0.66389,1.40257-1.3949,2.03325-2.15244c1.59814-1.91965,3.15665-3.87225,4.7343-5.80902
		c0.53699-0.65923,1.08287-1.31123,1.62663-1.9649c0.123-0.14783,0.23068-0.32475,0.38591-0.42645
		c0.52969-0.34702,0.85078-0.86695,1.12869-1.39761c0.2784-0.53156,0.49622-1.09338,0.84103-1.59262
		c0.23291-0.33721,0.39087-0.7346,0.65858-1.03777c0.79257-0.89758,1.29799-1.95122,1.79713-3.02143
		c0.22871-0.49043,0.52702-0.98125,0.90474-1.36181c0.60756-0.61216,0.92365-1.36189,1.19427-2.13517
		c0.34653-0.99014,0.71312-1.96427,1.31752-2.83015c0.21924-0.31408,0.46152-0.61196,0.68602-0.9225
		c0.85326-1.18,1.65157-2.39572,2.36691-3.66488c0.05405-0.09592,0.1227-0.1884,0.15382-0.29173
		c0.42409-1.40737,1.33961-2.55936,1.99127-3.84803c0.22369-0.44227,0.47725-0.8481,0.86082-1.18053
		c0.72198-0.6257,0.9012-1.55012,1.24025-2.38328c0.38217-0.93921,0.68866-1.91594,1.14871-2.81458
		c0.36261-0.70826,0.68752-1.43056,1.00381-2.15628c0.40584-0.93121,0.76523-1.88319,1.12772-2.83268
		c0.7946-2.08133,1.73164-4.09859,2.6938-6.10619c0.67581-1.41019,1.31004-2.84035,1.96159-4.26214
		c0.14832-0.32373,0.24818-0.67953,0.44647-0.96831c0.35184-0.51238,0.5507-1.08234,0.69519-1.66684
		c0.33839-1.36909,1.09644-2.57495,1.48572-3.92181c0.51662-0.70859,0.56761-1.59377,0.89903-2.37387
		c0.40831-0.96124,0.72038-1.96855,1.19023-2.89716c0.54858-1.08427,0.93927-2.22381,1.3866-3.34452
		c0.07043-0.17644,0.19025-0.33307,0.28607-0.49951c0.41107-0.71389,0.81808-1.42,1.06696-2.22293
		c0.21725-0.70096,0.58957-1.35424,0.8978-2.02655c0.23868-0.52053,0.54861-1.00934,0.55661-1.61856
		c0.00201-0.15228,0.16049-0.35499,0.30344-0.44284c0.38684-0.23781,0.6658-0.56388,0.93448-0.91751
		c0.14575-0.19184,0.32916-0.38549,0.53934-0.49167c0.43472-0.2196,0.7532-0.54821,1.03357-0.92651
		c0.51822-0.69919,1.17328-1.20398,1.97101-1.57035c0.77155-0.3543,1.49387-0.81489,2.24341-1.21838
		c0.21619-0.11636,0.448-0.2673,0.6792-0.27959c0.56348-0.03,0.9787-0.32863,1.39972-0.63966
		c0.13269-0.09803,0.2529-0.22311,0.39966-0.29037c0.85416-0.39146,1.67065,0.08043,2.50421,0.14281
		c0.53763,0.04023,0.86673,0.51312,1.08966,0.93316c0.16357,0.30819,0.14746,0.74861,0.10977,1.11977
		c-0.11084,1.09155-0.23785,2.18095-0.56372,3.24048c-0.22537,0.73265-0.28815,1.52222-0.56677,2.23
		c-0.47961,1.21833-1.01901,2.41047-1.75864,3.51424c-1.14719,1.71201-2.07681,3.55102-2.92181,5.43187
		c-0.1908,0.42463-0.45667,0.81487-0.67056,1.22991c-0.4906,0.95194-0.97559,1.90689-1.45319,2.86543
		c-0.40323,0.80917-0.79288,1.62514-1.18857,2.43807c-0.07205,0.14803-0.15973,0.29057-0.21368,0.4449
		c-0.25378,0.726-0.56952,1.40303-1.00107,2.05961c-0.64438,0.98053-1.1207,2.07128-1.67209,3.11327
		c-0.32056,0.60592-0.66858,1.19825-0.96628,1.81503c-0.27383,0.56723-0.51462,1.15226-0.73724,1.7418
		c-0.22375,0.59244-0.50565,1.14689-0.81482,1.7017c-0.73645,1.32144-1.32993,2.71378-1.7984,4.15647
		c-0.08398,0.25867-0.18762,0.51638-0.32123,0.75243c-0.28601,0.50515-0.49289,1.0321-0.66934,1.58842
		c-0.16083,0.50701-0.47296,0.97503-0.76749,1.42833c-0.36143,0.55621-0.60283,1.1311-0.78467,1.78241
		c-0.25563,0.91579-0.69633,1.79432-1.16031,2.63206c-0.26991,0.48725-0.43959,1.00101-0.64714,1.50402
		c-0.17639,0.42757-0.272,0.88781-0.4166,1.32927c-0.50298,1.53564-1.00908,3.07027-1.52095,4.60299
		c-0.07742,0.23182-0.17761,0.45879-0.29166,0.67515c-0.39658,0.75231-0.82054,1.49066-1.19911,2.25172
		c-0.15657,0.3147-0.22676,0.6728-0.33232,1.01237c-0.21883,0.70406-0.51405,1.37756-0.78667,2.06116
		c-0.33395,0.83742-0.73068,1.65126-0.94604,2.54256c-0.1183,0.48953-0.45576,0.9278-0.70509,1.38334
		c-0.14487,0.26472-0.338,0.50605-0.45793,0.78039c-0.08116,0.18555-0.17157,0.51569-0.08502,0.59679
		c0.21951,0.20576,0.37325-0.08984,0.52206-0.21934c0.39133-0.34044,0.77057-0.68264,1.09892-1.10201
		c0.36557-0.4669,0.88873-0.80901,1.33499-1.2146c0.38503-0.34996,0.75404-0.71755,1.13791-1.06886
		c0.74722-0.68375,1.47772-1.3866,2.33278-1.94346c0.22746-0.14814,0.44839-0.33366,0.61194-0.54807
		c0.90569-1.18756,2.15349-1.93861,3.3871-2.71353c0.50946-0.32002,1.06403-0.60536,1.4852-1.02088
		c0.83856-0.82742,1.84622-1.37948,2.85608-1.9313c0.76999-0.42073,1.55978-0.81794,2.3746-1.13979
		c0.63483-0.25077,1.32172-0.36977,1.98569-0.5465c0.133-0.0354,0.27222-0.05343,0.39975-0.10242
		c1.75272-0.67342,3.58194-0.5643,5.38535-0.41982c0.91409,0.07324,1.83353,0.3909,2.69131,0.74258
		c0.5387,0.22087,1.02652,0.65487,1.4325,1.09076c0.72702,0.78062,1.48801,1.53163,2.07629,2.444
		c0.59604,0.92433,1.24893,1.81142,1.68097,2.82948c0.22498,0.53009,0.40955,1.07738,0.6087,1.61826
		c0.02823,0.07662,0.05194,0.16147,0.04971,0.24174c-0.04016,1.45264,0.31253,2.90771-0.02481,4.3586
		c-0.01239,0.05331-0.0011,0.11495-0.02264,0.16293c-0.54889,1.22321-0.7262,2.57247-1.4577,3.75153
		c-0.63068,1.01651-1.19589,2.09079-1.72064,3.18159c-0.42197,0.87716-0.95349,1.73422-1.69302,2.4218
		c-0.92682,0.86169-1.81335,1.75343-2.50397,2.83532c-0.28644,0.4487-0.68063,0.84851-1.17267,1.14162
		c-0.3688,0.21969-0.673,0.55486-0.98669,0.85852c-0.76807,0.74343-1.52316,1.50026-2.28934,2.24562
		c-0.07425,0.07221-0.19598,0.09283-0.28531,0.15282c-0.56827,0.38164-1.13477,0.76594-1.69904,1.1535
		c-0.11292,0.07758-0.20596,0.18501-0.32114,0.25832c-1.13458,0.72227-2.27939,1.42876-3.40475,2.16508
		c-0.44937,0.29401-0.85562,0.65358-1.28494,0.97877c-0.38901,0.29465-0.85153,0.46832-1.16675,0.89503
		c-0.1748,0.23664-0.56998,0.3061-0.85855,0.46416c-0.3584,0.1963-0.7099,0.40525-1.06302,0.61103
		c-0.09464,0.05515-0.17691,0.14082-0.27759,0.17487c-1.00015,0.33801-1.88544,0.86552-2.66685,1.57462
		c-0.11998,0.1089-0.27214,0.18711-0.41869,0.26117c-1.03362,0.52235-1.79379,1.33593-2.43829,2.2744
		c-0.06218,0.09055-0.13956,0.17381-0.18549,0.27187c-0.48863,1.04331-1.00877,2.07399-1.44566,3.13875
		c-0.34265,0.83512-0.58145,1.70852-0.53929,2.63799c0.02988,0.65891,0.01396,1.32085-0.00497,1.98077
		c-0.02504,0.87198,0.20746,1.65527,0.57779,2.45135c0.44911,0.9654,0.96407,1.91832,1.16798,2.98843
		c0.04457,0.23402,0.17822,0.45782,0.30048,0.66917c0.63196,1.09234,1.26703,2.18304,1.91702,3.26468
		c0.13956,0.23225,0.34338,0.42639,0.52115,0.63507c0.44376,0.52086,0.88214,1.04658,1.33611,1.55841
		c0.88943,1.00271,1.67831,2.10003,2.80609,2.87668c0.4498,0.30973,0.8862,0.41997,1.38956,0.19845
		c0.45047-0.19825,0.89908-0.40088,1.34796-0.60274c0.65283-0.29358,1.26788-0.64874,1.82886-1.09729
		c0.72845-0.58245,1.49127-1.12548,2.18613-1.74509c0.4234-0.37758,0.73279-0.88015,1.11966-1.3025
		c0.2764-0.30173,0.59875-0.56106,0.89651-0.84358c0.47839-0.4538,0.98349-0.88396,1.42426-1.37202
		c1.41626-1.56833,2.81122-3.15593,4.20621-4.74332c0.19836-0.22576,0.4007-0.47046,0.51669-0.74243
		c0.56378-1.32213,1.47418-2.44402,2.11597-3.71994c0.33298-0.66196,0.69736-1.30824,1.02484-1.97279
		c0.08084-0.16405,0.09924-0.37144,0.10144-0.55944c0.008-0.69036,0.2695-1.27516,0.89056-1.55888
		c0.68469-0.31277,0.97812-0.93009,1.38974-1.46568c0.1814-0.23598,0.37427-0.46316,0.55499-0.69966
		c0.14752-0.19314,0.33154-0.37594,0.41708-0.59539c0.19363-0.49712,0.54745-0.85156,1.00656-1.03876
		c0.8158-0.33262,1.33569-0.94455,1.76901-1.65992c0.21317-0.35201,0.43982-0.7071,0.5791-1.09035
		c0.33725-0.92801,0.9567-1.65939,1.56845-2.4013c0.08707-0.10558,0.20721-0.20024,0.25146-0.32199
		c0.23077-0.63446,0.70724-1.10324,1.07703-1.64353c0.07748-0.11326,0.17096-0.22215,0.21954-0.3476
		c0.43079-1.11255,1.12759-2.0718,1.76157-3.06657c0.16086-0.25241,0.34943-0.49167,0.55255-0.71181
		c0.54922-0.5953,0.96426-1.2646,1.20087-2.0419c0.03186-0.10479,0.04901-0.24337,0.12354-0.30128
		c0.60098-0.46712,0.63663-1.2602,1.07455-1.82492c0.43555-0.56171,0.82651-1.15973,1.21234-1.75774
		c0.28036-0.43456,0.56976-0.87442,0.76791-1.3484c0.36871-0.88204,1.03378-1.54498,1.5741-2.30098
		c0.38272-0.53546,0.74615-1.08856,1.07117-1.66051c0.44492-0.78308,0.84338-1.5925,1.26657-2.38808
		c0.06381-0.12,0.14783-0.23076,0.23239-0.33797c0.42667-0.541,0.75525-1.13475,1.08401-1.74196
		c0.35864-0.66242,0.71567-1.34919,1.28284-1.89618c0.30765-0.2967,0.55893-0.68835,0.72992-1.08297
		c0.40808-0.94199,0.9462-1.79768,1.54007-2.62759c0.41553-0.5806,0.82889-1.16164,1.10062-1.83562
		c0.13046-0.3236,0.39102-0.57242,0.65915-0.82364c0.53723-0.50335,1.06091-1.0469,1.47058-1.6545
		c0.57086-0.84672,1.354-1.42763,2.1442-2.02293c0.32605-0.24562,0.63031-0.52287,0.92712-0.80408
		c0.67654-0.64096,1.27994-1.35159,2.10803-1.83497c0.5755-0.33592,1.06204-0.25624,1.52087,0.10524
		c0.42938,0.33826,0.80109,0.75029,1.19366,1.13447c0.21487,0.21025,0.41159,0.43962,0.63211,0.64341
		c0.37164,0.34336,0.41068,0.50634,0.20142,0.92554c-0.20792,0.41655-0.40305,0.83954-0.61334,1.25486
		c-0.07397,0.14609-0.15125,0.30614-0.26996,0.41128c-0.59338,0.52534-0.89133,1.24519-1.29541,1.89708
		c-0.41626,0.67147-0.88663,1.30959-1.29916,1.9832c-0.37207,0.60757-0.68002,1.2543-1.04849,1.86429
		c-0.58185,0.96325-1.16833,1.92509-1.79358,2.86034c-0.80811,1.20869-1.65482,2.39159-2.48871,3.58295
		c-0.11008,0.15723-0.24789,0.29477-0.36331,0.4486c-0.18118,0.24144-0.40439,0.46711-0.5224,0.73759
		c-0.6709,1.53736-1.74542,2.85355-2.42358,4.37505c-0.4606,1.03345-1.15656,1.92876-1.57568,2.97742
		c-0.12122,0.30327-0.30042,0.59224-0.49673,0.85513c-0.88007,1.17861-1.3768,2.56425-2.09866,3.82567
		c-0.51144,0.89365-0.78677,1.86603-1.15878,2.80702c-0.05914,0.14963-0.11014,0.33782-0.22699,0.42281
		c-0.39587,0.28799-0.44522,0.72183-0.5918,1.13565c-0.242,0.6835-0.43591,1.381-0.83591,2.01775
		c-0.32797,0.5221-0.47333,1.16346-0.67108,1.7614c-0.164,0.49595-0.27505,1.0092-0.43024,1.50833
		c-0.15442,0.49641-0.3399,0.98304-0.50241,1.47704c-0.28928,0.87937-0.68939,1.72785-0.70892,2.68223
		c-0.00433,0.21105-0.07001,0.44176-0.17355,0.62631c-0.49997,0.8909-0.61182,1.86857-0.68246,2.85824
		c-0.01373,0.19205,0.03806,0.40727-0.03146,0.57377c-0.35773,0.85645-0.35229,1.76651-0.41998,2.66303
		c-0.09476,1.25433-0.35129,2.50603-0.08539,3.77155c0.04352,0.20728,0.02051,0.43507-0.00565,0.64925
		c-0.07785,0.63689-0.03845,1.26267,0.12378,1.88282c0.23648,0.90395,0.51025,1.80065,0.69327,2.71542
		c0.22498,1.12466,0.72412,2.14449,1.23956,3.13314c0.4104,0.7872,1.07535,1.4462,1.65549,2.13849
		c0.28384,0.33875,0.70978,0.26227,1.08713,0.20767c0.59631-0.08628,1.18951-0.20003,1.77856-0.32748
		c0.29361-0.06354,0.5899-0.15285,0.85901-0.28387c0.56699-0.27608,1.13062-0.5644,1.67056-0.88935
		c0.89398-0.53802,1.76947-1.10686,2.64923-1.6682c0.1369-0.08736,0.28415-0.18277,0.37738-0.31041
		c0.6983-0.95602,1.6944-1.55219,2.63498-2.21808c0.24365-0.17248,0.48453-0.36244,0.68234-0.58396
		c1.06094-1.18793,2.1586-2.3334,3.47574-3.24734c0.15479-0.1074,0.28754-0.25431,0.40891-0.40082
		c0.71869-0.86759,1.42535-1.7452,2.14688-2.61041c0.96793-1.16071,1.96918-2.29446,2.91171-3.47523
		c0.73553-0.92145,1.40298-1.89721,2.10178-2.84802c0.08075-0.10984,0.1644-0.2181,0.25385-0.32087
		c0.46585-0.53516,0.93622-1.06641,1.39896-1.60426c0.0701-0.08152,0.1163-0.18706,0.15988-0.28743
		c0.77292-1.78072,2.0054-3.259,3.13232-4.81033c0.70425-0.96951,1.5014-1.8818,1.96152-3.01832
		c0.20477-0.50576,0.50699-0.9715,0.75391-1.46101c0.11096-0.22003,0.20694-0.4495,0.2886-0.68211
		c0.30832-0.87823,0.57751-1.77168,0.92242-2.63503c0.20145-0.50421,0.52875-0.95692,0.78165-1.44209
		c0.46881-0.89941,1.0369-1.76855,1.35095-2.72046c0.26208-0.79446,0.89514-1.37078,1.06955-2.18804
		c0.06146-0.28795,0.18292-0.56849,0.31189-0.83559c0.30963-0.64143,0.61871-1.28484,0.96808-1.9049
		c0.31055-0.55115,0.60721-1.09265,0.79944-1.70832c0.20297-0.65011,0.5592-1.2524,0.84872-1.87546
		c0.49747-1.0707,0.98306-2.14714,1.49628-3.21026c0.4512-0.93467,0.86041-1.90238,1.42725-2.76399
		c0.37845-0.57523,0.67981-1.18626,1.04572-1.76127c0.7818-1.22864,1.59183-2.43989,2.41702-3.63992
		c0.19751-0.2872,0.49356-0.50913,0.75528-0.74909c0.36414-0.3338,0.772-0.62595,1.10251-0.98928
		c1.01938-1.12068,2.14624-2.12,3.3244-3.06667c0.21317-0.17125,0.39713-0.37831,0.60315-0.5591
		c0.61905-0.54325,1.23755-1.08733,1.86755-1.61771c0.14435-0.12152,0.33237-0.19237,0.50299-0.2813
		c0.48593-0.25324,0.92807-0.20468,1.39127,0.1094c0.92465,0.62706,1.64615,1.45386,2.35263,2.29645
		c0.27542,0.32852,0.37234,0.73749,0.28174,1.16537c-0.21039,0.9935-0.39877,1.98949-1.06601,2.81998
		c-0.76349,0.95035-1.23096,2.06654-1.71747,3.1741c-0.20697,0.47114-0.48172,0.94588-0.83664,1.31113
		c-0.59958,0.61702-0.88226,1.39001-1.17514,2.14568c-0.30347,0.78316-0.67355,1.49068-1.26343,2.0942
		c-0.40161,0.4109-0.73636,0.87352-0.98959,1.40606c-0.67236,1.41358-1.40509,2.79742-2.30978,4.08022
		c-0.30072,0.42638-0.63419,0.82983-0.95657,1.24073c-0.38876,0.49553-0.78247,0.98721-1.17178,1.48236
		c-0.05066,0.06441-0.10172,0.13432-0.12943,0.21017c-0.38986,1.06716-1.0672,1.97455-1.63123,2.94482
		c-0.05527,0.09509-0.08755,0.22147-0.16882,0.28068c-0.70956,0.51676-1.01865,1.3559-1.60272,1.97211
		c-0.09427,0.09944-0.20706,0.19962-0.25525,0.32159c-0.43607,1.10417-1.36664,1.90459-1.80991,3.02123
		c-0.18988,0.47839-0.62247,0.88648-0.86526,1.37848c-0.1687,0.34187-0.39401,0.66908-0.49094,1.03049
		c-0.24689,0.92059-0.80905,1.68344-1.18906,2.53535c-0.10019,0.22465-0.1958,0.4528-0.27219,0.68632
		c-0.32355,0.98904-0.59186,1.99905-0.96826,2.96718c-0.60645,1.55953-0.88248,3.21961-1.50943,4.7698
		c-0.10873,1.09984-0.42331,2.1551-0.69247,3.22064c-0.26151,1.03552-0.5166,2.07279-0.76138,3.11238
		c-0.21268,0.90331-0.31125,1.84663-0.63202,2.7083c-0.48322,1.29782-0.47641,2.69677-0.96451,3.98862
		c-0.2597,0.68733-0.39728,1.41379-0.49484,2.15835c-0.11639,0.88788-0.46216,1.74433-0.68906,2.61945
		c-0.24228,0.9345-0.70651,1.77766-1.06039,2.66603c-0.10107,0.25379-0.17029,0.52007-0.26404,0.777
		c-0.26251,0.7197-0.59088,1.42175-0.78296,2.15948c-0.36804,1.41348-1.0831,2.69638-1.47305,4.09828
		c-0.03598,0.12938-0.1095,0.25197-0.1828,0.36673c-0.52115,0.81583-0.9754,1.66028-1.16037,2.62459
		c-0.01028,0.05353-0.02805,0.1076-0.05289,0.15605c-0.59897,1.16917-1.20142,2.33659-1.7984,3.50679
		c-0.18643,0.36546-0.35013,0.74258-0.53983,1.10626c-0.24078,0.46161-0.4942,0.91675-0.74802,1.37144
		c-0.42819,0.76727-0.82718,1.5537-1.30109,2.29189c-0.51257,0.79848-0.87097,1.7047-1.6163,2.34911
		c-0.22556,0.19507-0.41632,0.44264-0.5809,0.69377c-0.66083,1.00832-1.44672,1.92224-2.15866,2.89174
		c-0.2272,0.30945-0.48996,0.59254-0.72629,0.89563c-0.63879,0.81935-1.24921,1.66203-1.91336,2.46008
		c-0.82373,0.98972-1.68436,1.9491-2.54025,2.91159c-0.58264,0.65517-1.18204,1.29555-1.77914,1.9377
		c-0.22464,0.24162-0.46619,0.46744-0.69617,0.70421c-0.47729,0.49135-0.95737,0.96854-1.34122,1.55429
		c-0.48709,0.74341-1.27011,1.2065-1.95557,1.7576c-0.38425,0.30896-0.74963,0.64145-1.12155,0.96558
		c-0.14502,0.12639-0.27386,0.27371-0.42853,0.38609c-0.53088,0.3858-1.06516,0.76736-1.60703,1.13759
		c-0.86105,0.58835-1.69461,1.22868-2.60303,1.73322c-1.19965,0.66632-2.45316,1.23811-3.69751,1.82063
		c-0.7438,0.34821-1.5015,0.67612-2.27597,0.94733c-1.1915,0.41725-2.38678,0.8418-3.60928,1.14828
		c-2.05005,0.51395-4.09119,1.07976-6.19363,1.36566c-0.51559,0.07011-1.01779,0.23599-1.53278,0.31387
		c-0.3468,0.05244-0.70575,0.01981-1.05841,0.04034c-0.21756,0.01266-0.43466,0.04668-0.64987,0.08334
		c-0.73126,0.1246-1.46176,0.2534-2.19217,0.38306c-0.5405,0.09595-1.08026,0.19591-1.62045,0.29362
		c-0.10812,0.01956-0.216,0.0468-0.32507,0.05397c-2.33572,0.15359-4.67334,0.1752-7.01196,0.08817
		c-0.51929-0.01933-1.03702-0.07776-1.55627-0.09863c-0.92859-0.03732-1.75214-0.44829-2.61612-0.71538
		c-0.07828-0.02419-0.14807-0.08899-0.22617-0.09836c-1.27069-0.15233-2.39078-0.8132-3.62775-1.07217
		c-0.62325-0.13048-1.19795-0.33575-1.76808-0.64029c-1.04169-0.55641-2.13776-1.01138-3.21429-1.50174
		c-0.17404-0.07927-0.36047-0.14186-0.54774-0.17989c-1.68437-0.34203-3.26978-0.98776-4.81667-1.69658
		c-1.18916-0.54489-2.47836-0.94278-3.45378-1.89371c-0.0961-0.09364-0.22597-0.15944-0.35019-0.21632
		c-1.05847-0.48483-1.93349-1.25508-2.90773-1.87086c-0.25032-0.15822-0.45351-0.39391-0.66928-0.60335
		c-0.90096-0.87459-1.98683-1.55251-2.68599-2.64558c-0.32138-0.50244-0.756-0.94173-1.18324-1.3653
		c-0.93651-0.92845-1.53831-2.05594-2.05905-3.24608c-0.27509-0.62872-0.59843-1.2377-0.9257-1.84167
		c-0.1761-0.32503-0.25537-0.65753-0.28105-1.02177c-0.02303-0.32652-0.11584-0.64749-0.15454-0.97368
		c-0.06474-0.54584-0.14998-1.10411,0.43486-1.46265c0.06674-0.04092,0.16148-0.11935,0.15919-0.17703
		c-0.02774-0.69278,0.65462-1.13286,0.63795-1.8188c-0.00575-0.23639,0.1096-0.40953,0.28969-0.56413
		c0.14215-0.12209,0.2269-0.31146,0.3699-0.43214c0.65633-0.55382,0.89131-1.42657,1.53223-1.99646
		c0.17322-0.15402,0.25453-0.41586,0.36554-0.63455c0.32193-0.63419,0.81569-0.97026,1.53865-0.83745
		c0.77924,0.14314,1.59293,0.23169,2.11972,0.94919c0.03227,0.04395,0.06863,0.0992,0.11514,0.11618
		c0.63712,0.23265,0.85605,0.89084,1.32001,1.30066c0.13289,0.11739,0.23218,0.3141,0.26962,0.49083
		c0.13585,0.64072,0.48656,1.16452,0.86787,1.66995c0.28546,0.3783,0.49883,0.77615,0.62555,1.23915
		c0.2366,0.86464,0.7598,1.58521,1.31181,2.26645c0.44702,0.5517,0.97075,1.04346,1.47948,1.54243
		c0.64714,0.63478,1.28734,1.28078,1.97752,1.86658c1.09189,0.92674,2.31598,1.66771,3.55862,2.37434
		c0.45403,0.25816,0.91541,0.50363,1.377,0.74814c1.48697,0.78763,3.07024,1.31444,4.6722,1.81853
		c1.22665,0.386,2.39627,0.95386,3.58954,1.44501c0.48236,0.19856,0.94608,0.45514,1.44263,0.60408
		c1.47516,0.44247,2.96207,0.84589,4.44562,1.26019c0.13116,0.03664,0.27121,0.04228,0.40735,0.06059
		c1.94122,0.26115,3.89371,0.21083,5.84433,0.20799c0.16452-0.00024,0.32928-0.02243,0.49347-0.03882
		c1.61304-0.16104,3.22748-0.30994,4.8382-0.49176c0.56955-0.0643,1.12814-0.22072,1.69501-0.31548
		c0.91891-0.15364,1.8428-0.27844,2.76025-0.44005c0.5675-0.09998,1.1214-0.29916,1.69131-0.3584
		c0.91006-0.09457,1.76633-0.37263,2.64304-0.59882c1.09149-0.28159,2.15216-0.65517,3.23169-0.95518
		c0.7226-0.20084,1.38919-0.48506,2.07004-0.76672c0.50604-0.20934,1.0358-0.3613,1.54233-0.56953
		c0.40106-0.16486,0.79984-0.34842,1.1702-0.57242c1.05304-0.6369,2.27167-0.96497,3.22519-1.79607
		c0.49207-0.42894,1.07874-0.74832,1.61505-1.12799c0.33432-0.23666,0.67499-0.47095,0.97626-0.74629
		c0.52777-0.48235,1.10303-0.89606,1.68878-1.30205c0.95721-0.6635,1.68732-1.56276,2.45847-2.4192
		c0.3295-0.36592,0.68552-0.70801,1.03168-1.05876c0.8093-0.82005,1.73578-1.55554,2.39935-2.47997
		c0.75705-1.05467,1.79678-1.92162,2.17807-3.25951c0.2063-0.72394,0.66907-1.37387,1.00751-2.06143
		c0.15753-0.32002,0.30872-0.64461,0.43863-0.97658c0.84152-2.1506,1.68698-4.29979,2.50766-6.45836
		c0.29254-0.76942,0.51337-1.56587,0.77866-2.34598c0.21158-0.62224,0.19193-1.29955,0.50977-1.90044
		c0.59683-1.12817,0.80368-2.38246,1.10501-3.6053c0.1972-0.80023,0.51913-1.58859,0.58316-2.39825
		c0.09177-1.16055,0.55487-2.2282,0.64703-3.39492c0.08984-1.13705,0.48706-2.25117,0.76465-3.37157
		c0.18497-0.7464,0.40591-1.48386,0.59158-2.23009c0.06549-0.26318,0.06555-0.54193,0.11047-0.81107
		c0.11307-0.67712,0.23694-1.35242,0.35126-2.02934c0.02719-0.16114,0.04022-0.32549,0.04642-0.48888
		c0.00186-0.04806-0.03598-0.13452-0.06616-0.1395c-0.07089-0.0117-0.1644-0.00774-0.21936,0.03131
		c-0.11105,0.07889-0.21719,0.1741-0.29959,0.2822c-0.41394,0.54285-0.83768,1.07975-1.22119,1.64375
		c-0.2178,0.3203-0.43924,0.60694-0.74844,0.85845c-0.90417,0.7356-1.59232,1.67663-2.22507,2.64089
		c-0.41397,0.6309-0.94489,1.12323-1.48636,1.62065c-0.10126,0.09304-0.24167,0.16136-0.30569,0.27419
		c-0.53198,0.93691-1.45477,1.55043-2.02017,2.45767c-0.04364,0.07005-0.07822,0.15307-0.13885,0.20412
		c-0.73697,0.62071-1.319,1.39226-2.00659,2.05834c-0.5509,0.5337-1.19128,0.97475-1.74612,1.50488
		c-0.43521,0.41584-0.81448,0.8937-1.19269,1.36485c-0.36453,0.45412-0.7485,0.85041-1.29462,1.11233
		c-0.56836,0.27258-1.00052,0.72043-1.40677,1.23395c-0.75366,0.95264-1.7157,1.69316-2.81726,2.23946
		c-0.34146,0.16933-0.68198,0.36604-0.97092,0.61143c-1.07651,0.91435-2.36954,1.37015-3.67722,1.8055
		c-0.3894,0.12964-0.76752,0.2941-1.15894,0.41658c-0.28595,0.08951-0.58487,0.19043-0.87866,0.19252
		c-1.01733,0.00719-2.035-0.02274-3.05234-0.04881c-0.16168-0.00414-0.33878-0.02792-0.48026-0.09918
		c-0.80811-0.40714-1.64191-0.76793-2.25839-1.48245c-0.39352-0.45601-0.88446-0.82837-1.27411-1.28717
		c-1.00223-1.18008-1.72263-2.51947-2.3107-3.95798c-0.64935-1.58839-1.11151-3.21767-1.45129-4.89028
		c-0.03275-0.1612-0.05008-0.32655-0.06158-0.49088c-0.07291-1.0408-0.17395-2.08102-0.2016-3.12314
		C282.24142,118.57199,282.3266,117.85708,282.37311,116.99803z M205.65512,83.81357
		c0.1508-2.53348-0.17912-5.00472-0.84035-7.43371c-0.20726-0.76133-0.33818-1.5601-0.86601-2.20376
		c-0.09895-0.12065-0.11705-0.30575-0.1804-0.45777c-0.25438-0.61022-0.56111-1.18043-1.04945-1.65042
		c-0.23032-0.22166-0.37764-0.5295-0.56268-0.7982c-0.3259-0.47321-0.64467-0.95157-0.9807-1.41749
		c-0.19211-0.2664-0.41071-0.51386-0.62032-0.76744c-0.77422-0.93666-1.64125-1.74371-2.78835-2.22932
		c-0.85574-0.36227-1.74113-0.64674-2.56485-1.10609c-0.472-0.26322-1.05379-0.47943-1.66272-0.25944
		c-0.46326,0.16737-0.94925,0.27174-1.4127,0.43868c-0.28004,0.10088-0.55479,0.24088-0.79999,0.4097
		c-0.94138,0.64819-1.95959,1.19823-2.71402,2.0915c-0.08617,0.10203-0.2254,0.15726-0.33002,0.24601
		c-1.00066,0.84905-2.10669,1.5863-2.86154,2.69717c-0.06047,0.089-0.15138,0.1603-0.23705,0.22872
		c-0.73546,0.58762-1.36093,1.27164-1.84494,2.08221c-0.0703,0.11773-0.14603,0.2355-0.23734,0.33694
		c-1.28259,1.42491-2.02534,3.19865-3.08318,4.76892c-0.5813,0.86291-1.13237,1.74637-1.689,2.62565
		c-0.35051,0.55368-0.72745,1.09608-1.02,1.67989c-0.64005,1.2773-1.23987,2.57497-1.84384,3.87005
		c-0.26675,0.57199-0.57747,1.13857-0.73578,1.74233c-0.2101,0.80132-0.4735,1.56871-0.81606,2.32278
		c-0.27017,0.59476-0.4361,1.23778-0.63623,1.86322c-0.23438,0.73248-0.45381,1.4697-0.6832,2.20377
		c-0.26218,0.83903-0.65179,1.66055-0.76494,2.51884c-0.19427,1.47373-0.83159,2.85888-0.81929,4.36632
		c0.00108,0.13354-0.06477,0.26659-0.09042,0.40159c-0.11279,0.59368-0.33629,1.19323-0.30928,1.78101
		c0.05713,1.24472-0.14565,2.46376-0.20804,3.69504c-0.00691,0.13631-0.02896,0.28263,0.00853,0.40869
		c0.25616,0.86138,0.20503,1.74133,0.17953,2.62033c-0.01778,0.61278,0.10423,1.19975,0.28632,1.783
		c0.30281,0.96998,0.5782,1.94849,0.86983,2.92202c0.08643,0.28845,0.1963,0.56992,0.28195,0.85859
		c0.29793,1.00377,0.74452,1.94703,1.18954,2.88885c0.45641,0.96591,0.85867,1.96535,1.63356,2.74876
		c0.18776,0.18982,0.28291,0.46802,0.44035,0.6917c0.33011,0.46898,0.60345,1.0103,1.02739,1.37328
		c0.64578,0.55295,1.27721,1.10927,1.8427,1.74466c0.12016,0.13504,0.31436,0.21583,0.48799,0.28988
		c1.45856,0.62208,2.93199,0.63663,4.42395,0.11207c0.30779-0.10822,0.63858-0.15218,0.95979-0.22084
		c0.53586-0.11453,0.96025-0.38319,1.24248-0.86447c0.10966-0.18698,0.21786-0.38227,0.36395-0.53909
		c0.48259-0.518,0.95317-1.05309,1.48271-1.51993c0.63477-0.5596,1.35844-1.01976,1.98135-1.59092
		c0.49396-0.4529,1.05652-0.69129,1.68466-0.80377c0.49187-0.08809,0.8678-0.32915,1.16898-0.70831
		c0.37424-0.47115,0.7476-0.94312,1.11264-1.42139c0.69786-0.91436,1.47189-1.78382,2.06198-2.76367
		c0.66434-1.10303,1.25688-2.24723,2.00142-3.30541c0.2802-0.3982,0.44734-0.87876,0.64574-1.33068
		c0.13428-0.30587,0.00432-0.5381-0.33015-0.61598c-0.15894-0.03702-0.32765-0.03034-0.49117-0.04993
		c-0.4075-0.0488-0.83299-0.04285-1.21803-0.16424c-0.86003-0.27116-1.71742-0.56603-2.54373-0.92523
		c-1.25986-0.54764-2.41917-1.30391-3.53011-2.08933c-1.09091-0.77126-2.13551-1.63496-3.06717-2.61767
		c-0.56326-0.5941-1.15977-1.16209-1.74171-1.73676c-0.63327-0.62537-1.08418-1.44012-1.58713-2.1907
		c-0.25818-0.3853-0.47995-0.79993-0.67383-1.22171c-0.13452-0.29264-0.28481-0.62498-0.26854-0.93111
		c0.04652-0.87589,0.35991-1.65348,1.07639-2.22464c0.19122-0.15242,0.36842-0.32698,0.53078-0.51021
		c0.70685-0.7976,1.33464-1.66216,2.20944-2.30975c0.43382-0.32112,0.76591-0.77896,1.1474-1.17168
		c0.32417-0.3337,0.64729-0.66881,0.98138-0.99242c0.62454-0.60498,0.9881-0.59692,1.8644-0.17901
		c0.56216,0.26811,0.94678,0.72002,1.37019,1.15565c0.61229,0.63002,1.33429,1.15908,1.51268,2.09507
		c0.7338,1.23581,1.59572,2.36679,2.7079,3.2906c0.58986,0.48996,1.19899,0.9575,1.77629,1.46165
		c1.23167,1.07556,2.62801,1.75664,4.26973,1.93971c0.3575,0.03986,0.52077-0.06618,0.61862-0.35796
		c0.13945-0.41584,0.21976-0.85646,0.39935-1.25298c0.61884-1.36622,0.80145-2.85215,1.21097-4.27509
		c0.12866-0.44707,0.18657-0.91428,0.28166-1.37128c0.20131-0.96731,0.43529-1.92894,0.60068-2.90228
		c0.16553-0.97417,0.20482-1.97199,0.40538-2.93745C205.59035,86.71007,205.67958,85.2634,205.65512,83.81357z"/>
	<path class="st1" d="M39.45622,57.76119c0.0236,1.34679,0.12344,2.46037,0.35412,3.56894
		c0.18399,0.88412,0.25869,1.79099,0.38192,2.68776c0.01497,0.10902,0.00404,0.23032,0.049,0.32512
		c0.42538,0.89687,0.62046,1.8638,0.87591,2.81297c0.13572,0.5043,0.36443,0.99264,0.43315,1.50404
		c0.15252,1.135,0.62174,2.16348,0.97773,3.23056c0.18179,0.5449,0.35427,1.09356,0.55717,1.63062
		c0.33809,0.89491,0.67181,1.79304,1.05632,2.6683c0.26356,0.59995,0.5675,1.19172,0.92917,1.73685
		c0.60985,0.91919,1.0391,1.93027,1.57253,2.88686c0.52068,0.93369,1.08946,1.84057,1.63747,2.759
		c0.05599,0.09383,0.13282,0.17963,0.16894,0.28029c0.38412,1.07066,1.10383,1.9571,1.6152,2.955
		c0.65099,1.27038,1.58068,2.38736,2.05036,3.75496c0.0178,0.05181,0.03639,0.10682,0.06876,0.14966
		c1.07058,1.41736,1.56537,3.14052,2.47185,4.6525c0.55747,0.92984,0.86277,2.01782,1.22931,3.05321
		c0.37438,1.05751,0.69009,2.13599,1.02263,3.20805c0.41607,1.34138,0.77996,2.69108,0.75042,4.11703
		c-0.01073,0.51746-0.00989,1.04705,0.08591,1.5521c0.15491,0.81664-0.01007,1.58447-0.19481,2.3636
		c-0.11374,0.47969-0.15276,0.98033-0.30031,1.44791c-0.16304,0.51669-0.3941,1.01472-0.62706,1.50594
		c-0.41063,0.86588-0.84534,1.72033-1.26954,2.57978c-0.06057,0.12273-0.08757,0.28364-0.18301,0.36412
		c-0.72553,0.61179-0.95764,1.5294-1.43959,2.29072c-0.35163,0.55544-0.63371,1.15757-1.01255,1.69231
		c-0.31187,0.4402-0.69805,0.83542-1.09092,1.20889c-0.69341,0.65919-1.41632,1.2874-2.12887,1.92635
		c-0.08074,0.0724-0.1685,0.14081-0.26273,0.19377c-1.2408,0.69734-2.23259,1.69129-3.18623,2.71963
		c-1.34422,1.4495-2.77593,2.80925-4.19891,4.17818c-0.45298,0.43578-0.90388,0.89659-1.42992,1.22832
		c-0.83738,0.52806-1.63982,1.09584-2.43307,1.68573c-0.36662,0.27266-0.82121,0.44312-1.25658,0.60397
		c-1.00344,0.37077-2.00722,0.75098-3.03532,1.04053c-0.56951,0.16042-1.18784,0.15025-1.78494,0.20915
		c-0.55219,0.05444-1.06108,0.21164-1.571,0.44923c-0.43695,0.2036-0.94666,0.30286-1.43216,0.33797
		c-0.6836,0.04942-1.37504-0.02252-2.06221-0.00533c-0.49084,0.01227-0.99167,0.03503-1.46755,0.14322
		c-0.79865,0.18159-1.57784,0.1524-2.36933-0.01323c-0.45429-0.09508-0.91914-0.13846-1.37718-0.2171
		c-1.21688-0.20894-2.45232-0.33643-3.5876-0.88646c-1.06367-0.51535-2.14262-0.99915-3.20634-1.51439
		c-0.81468-0.39461-1.62175-0.80595-2.42058-1.23166c-0.31318-0.1669-0.59255-0.3965-0.89097-0.59196
		c-1.26368-0.82771-2.51916-1.65781-3.40674-2.93051c-0.45467-0.65196-0.99464-1.24438-1.45043-1.89565
		c-0.24833-0.35483-0.40182-0.77615-0.59699-1.16802c-0.07305-0.14668-0.12344-0.30892-0.21747-0.4402
		c-0.69892-0.97573-1.10627-2.08052-1.45703-3.21402c-0.12946-0.41834-0.30139-0.82339-0.44736-1.23682
		c-0.28707-0.81306-0.32416-1.66454-0.40575-2.51302c-0.10251-1.06596-0.29422-2.12357-0.38945-3.18995
		c-0.08046-0.90094-0.11178-1.80972-0.10005-2.71417c0.00707-0.54518,0.11267-1.09373,0.21852-1.63201
		c0.22252-1.13158,0.42887-2.26955,0.72631-3.38232c0.33389-1.24918,0.75249-2.47922,1.57085-3.51745
		c0.45723-0.58009,0.699-1.31195,1.28475-1.80209c0.07749-0.06483,0.11503-0.18701,0.15153-0.28959
		c0.17032-0.47872,0.48755-0.85246,0.82403-1.22136c0.55553-0.60907,1.0315-1.27061,1.47195-1.9767
		c0.5628-0.90224,1.20163-1.77665,2.05916-2.44839c0.3765-0.29493,0.74248-0.43568,1.19239-0.09639
		c0.20691,0.15604,0.4943,0.21936,0.75496,0.28722c0.5521,0.14375,1.01405,0.40734,1.35562,0.87614
		c0.1413,0.19394,0.21907,0.40204,0.12284,0.61597c-0.21262,0.47272-0.37979,0.9942-0.70159,1.38322
		c-0.56105,0.67826-0.89204,1.44691-1.12334,2.26686c-0.22336,0.79179-0.37837,1.60262-0.58148,2.40048
		c-0.0737,0.28951-0.21061,0.56231-0.29978,0.84861c-0.28435,0.91297-0.16426,1.84496-0.11519,2.77293
		c0.02323,0.43932,0.0805,0.87923,0.06884,1.31745c-0.01989,0.74767,0.05091,1.47672,0.22645,2.20583
		c0.11473,0.47653,0.13628,0.97533,0.20265,1.46375c0.0296,0.21784,0.05966,0.43606,0.10184,0.65169
		c0.13158,0.67252,0.26758,1.34419,0.40572,2.0154c0.02207,0.10722,0.05179,0.21615,0.09856,0.31451
		c0.45811,0.96338,0.81456,1.96597,1.34336,2.90732c0.57912,1.03092,1.27237,1.98306,1.86996,2.99817
		c0.19945,0.33881,0.53294,0.64124,0.87381,0.84604c0.9147,0.54956,1.77345,1.20316,2.79707,1.56384
		c0.25585,0.09016,0.49479,0.24371,0.72208,0.39692c1.13136,0.76258,2.38583,1.23251,3.6931,1.58231
		c0.15922,0.0426,0.33115,0.07191,0.46884,0.1546c0.51012,0.30633,1.08301,0.38812,1.65042,0.47612
		c0.97442,0.15114,1.95113,0.36943,2.9302,0.3884c1.28568,0.0249,2.57824-0.07764,3.86066-0.20041
		c0.73092-0.06996,1.44703-0.29181,2.17095-0.43963c0.18801-0.03839,0.37994-0.07541,0.57075-0.07928
		c1.20396-0.02444,2.33032-0.37164,3.43083-0.81993c1.05451-0.42957,1.96714-1.036,2.74002-1.90717
		c0.47342-0.53362,0.90952-1.09711,1.38877-1.62054c0.37493-0.40948,0.30793-1.07575,0.88343-1.3513
		c0.50145-0.24008,0.68881-0.75822,0.94592-1.20506c0.12569-0.21844,0.29365-0.31364,0.543-0.27764
		c0.13588,0.01962,0.27358,0.03154,0.41082,0.03613c0.82715,0.02766,1.03066-0.09125,1.24601-0.87333
		c0.24765-0.89938,0.46196-1.80882,0.66236-2.72014c0.33727-1.53367,0.15731-3.06052-0.14215-4.5737
		c-0.18662-0.94297-0.45093-1.87032-0.66558-2.80807c-0.28207-1.23235-0.62283-2.44255-1.03732-3.64111
		c-0.25838-0.74715-0.45645-1.51752-0.78066-2.24448c-0.02224-0.04987-0.01999-0.11451-0.05088-0.15612
		c-0.75182-1.01251-0.87463-2.29866-1.47445-3.37866c-0.45332-0.81622-0.88123-1.64677-1.30945-2.47662
		c-0.15063-0.2919-0.27423-0.59834-0.40031-0.90223c-0.2516-0.6065-0.49605-1.21595-0.74437-1.82381
		c-0.03121-0.07639-0.05191-0.16498-0.1046-0.22349c-0.64967-0.72165-0.93934-1.66464-1.50394-2.43865
		c-0.12866-0.17638-0.25671-0.36541-0.32916-0.56853c-0.35159-0.98576-0.91991-1.86626-1.34706-2.81482
		c-0.06668-0.14811-0.15851-0.2885-0.25793-0.41765c-0.51738-0.67201-1.04169-1.33868-1.56155-2.00879
		c-0.0673-0.08674-0.1371-0.17622-0.18158-0.27527c-0.41492-0.92402-0.98604-1.76731-1.42798-2.66994
		c-0.47935-0.97905-0.76392-2.05272-1.1461-3.08042c-0.16214-0.43602-0.29005-0.90678-0.55146-1.27889
		c-0.42027-0.59824-0.58484-1.25678-0.56476-1.94292c0.02867-0.97997-0.34381-1.82113-0.72153-2.67996
		c-0.30861-0.70168-0.61757-1.40934-0.84054-2.14053c-0.16556-0.54294-0.27921-1.13095-0.25862-1.69312
		c0.02043-0.55809-0.15547-1.02705-0.35993-1.50152c-0.39582-0.91858-0.58977-1.88469-0.71717-2.86678
		c-0.03121-0.24058-0.03375-0.50578,0.03443-0.73465c0.25727-0.86352,0.1923-1.74523,0.2041-2.62411
		c0.00368-0.27397-0.00901-0.55618,0.05072-0.81991c0.21583-0.95306,0.18412-1.90938,0.09812-2.87057
		c-0.01699-0.18995-0.05614-0.39962,0.00148-0.57111c0.45331-1.34931,0.56391-2.80215,1.27449-4.07791
		c0.20703-0.37169,0.29852-0.83155,0.34628-1.26173c0.05251-0.47307,0.16528-0.9138,0.34182-1.35117
		c0.21619-0.53557,0.32253-1.13177,0.6172-1.61607c0.64853-1.0659,0.96648-2.27624,1.55704-3.35827
		c0.72318-1.32504,1.48876-2.62523,2.40113-3.839c0.43916-0.58425,0.87558-1.16366,1.34127-1.72927
		c1.04776-1.27254,2.02713-2.59948,3.26046-3.70995c0.26305-0.23684,0.45049-0.55545,0.69542-0.81502
		c0.93928-0.9954,1.91492-1.95797,2.82345-2.98038c0.62739-0.70602,1.33738-1.29279,2.09557-1.8437
		c0.4768-0.34645,0.97182-0.62841,1.54647-0.74029c0.40324-0.07851,0.71469-0.28004,0.9668-0.58441
		c0.44443-0.53655,0.97297-0.95379,1.59855-1.26945c0.33944-0.17129,0.64263-0.42258,0.94268-0.6622
		c0.86653-0.69204,1.77722-1.28447,2.86696-1.58709c0.49754-0.13817,0.95027-0.43,1.43656-0.61786
		c1.45944-0.5638,2.87803-1.24221,4.42844-1.55263c0.64209-0.12856,1.21857-0.4748,1.89503-0.52874
		c1.99894-0.15935,4.0037-0.30762,5.99073,0.00195c1.29749,0.20214,2.59447,0.47533,3.83031,0.96649
		c0.86776,0.34489,1.74306,0.6755,2.63055,0.96476c0.97704,0.31847,1.862,0.81951,2.73959,1.32735
		c1.49818,0.86695,2.94152,1.82318,4.29822,2.90163c1.44033,1.14493,2.77895,2.38656,3.97611,3.7999
		c1.29845,1.53289,2.45352,3.16644,3.6089,4.79924c0.72671,1.02697,1.30238,2.16012,1.9595,3.23727
		c0.45697,0.74913,0.95676,1.47252,1.40263,2.22795c0.74548,1.26311,0.62254,1.68779-0.56293,2.51414
		c-1.12265,0.78254-2.216,1.60711-3.32178,2.41383c-0.13329,0.09723-0.24986,0.24924-0.3977,0.28944
		c-0.94077,0.25591-1.58691,0.96583-2.34554,1.4985c-0.71346,0.50096-1.41711,0.69115-2.20434,0.15673
		c-0.22185-0.1506-0.50384-0.21307-0.75904-0.31395c-0.74193-0.29329-1.01507-0.67552-1.01244-1.48001
		c0.00122-0.37294-0.10014-0.69722-0.29305-1.01251c-0.21461-0.35077-0.38409-0.72907-0.59698-1.08101
		c-0.48249-0.79762-0.88246-1.67414-1.49728-2.35485c-0.65309-0.72308-1.06979-1.57544-1.63496-2.3373
		c-0.58704-0.79133-1.21093-1.5626-1.88463-2.2808c-1.31982-1.40702-2.80482-2.63332-4.39205-3.72711
		c-0.74333-0.51222-1.5124-1.00135-2.31698-1.40747c-1.66641-0.84117-3.37776-1.59532-5.16081-2.15443
		c-1.09863-0.34449-2.21915-0.6653-3.38795-0.65465c-1.07121,0.00976-2.14273,0.05557-3.2124,0.11584
		c-0.26572,0.01497-0.54128,0.11344-0.78397,0.2317c-0.79585,0.38785-1.59681,0.73735-2.5066,0.73485
		c-0.13441-0.00038-0.28098,0.02424-0.40158,0.08071c-1.01619,0.47594-2.04486,0.92945-3.03589,1.45378
		c-1.06516,0.56353-1.92775,1.35434-2.42853,2.48821c-0.17612,0.39877-0.35378,0.80352-0.59004,1.16698
		c-0.19011,0.29247-0.45412,0.54366-0.71362,0.7824c-0.28115,0.25864-0.5909,0.48714-0.89581,0.71875
		c-0.34793,0.26429-0.72426,0.4945-1.05305,0.78004c-0.80526,0.69932-1.62574,1.3812-2.05391,2.41585
		c-0.54542,1.318-1.17445,2.6022-1.69595,3.92907c-0.39012,0.9926-0.67649,2.02676-0.99157,3.04782
		c-0.25815,0.83658-0.53038,1.67215-0.72228,2.52485c-0.16815,0.74717-0.25309,1.51531-0.3391,2.2782
		c-0.1168,1.03604-0.2019,2.07571-0.29605,3.11422C39.51743,56.93797,39.48038,57.45901,39.45622,57.76119z"/>
</g>
</svg>
