<?xml version="1.0" encoding="utf-8"?>
<!-- Generator: Adobe Illustrator 25.4.1, SVG Export Plug-In . SVG Version: 6.00 Build 0)  -->
<svg version="1.1" id="Layer_1" xmlns="http://www.w3.org/2000/svg" xmlns:xlink="http://www.w3.org/1999/xlink" x="0px" y="0px"
	 viewBox="0 0 303.78168 189.0938" style="enable-background:new 0 0 303.78168 189.0938;" xml:space="preserve">
<style type="text/css">
	.st0{fill:#EFEDE5;}
	.st1{fill:#B48039;}
	.st2{fill:#AD8246;}
	.st3{fill:none;stroke:#B48039;stroke-width:0.99892;stroke-miterlimit:10;}
	.st4{fill:#00FFFF;}
</style>
<path class="st1" d="M298.23477,55.59907c-0.40118-0.45542-0.77826-0.93188-1.18884-1.42597
	c-0.22549-0.05945-0.50812-0.18015-0.79709-0.19811c-0.34814-0.02156-0.72433-0.02061-1.04666,0.09084
	c-0.30453,0.10539-0.56818,0.35072-0.82581,0.56337c-0.34167,0.28177-0.61301,0.71854-0.99863,0.86123
	c-0.68005,0.25175-1.08755,0.78868-1.53598,1.256c-1.11868,1.16584-2.17239,2.39506-3.23053,3.61744
	c-0.6207,0.71684-1.2034,1.46669-1.79739,2.20628c-0.75174,0.93582-1.48343,1.88815-2.24939,2.81224
	c-1.33664,1.61271-2.19769,3.49606-3.11008,5.3535c-0.40634,0.82744-0.87543,1.62434-1.27405,2.45537
	c-0.40942,0.85361-0.76901,1.73118-1.14728,2.59968c-0.26691,0.61256-0.51532,1.23376-0.79828,1.8387
	c-0.15347,0.32822-0.39023,0.61787-0.54062,0.94711c-0.74301,1.62502-1.43845,3.27246-2.21176,4.88251
	c-0.62717,1.30621-1.2937,2.60011-2.37787,3.61668c-0.15344,0.14405-0.29785,0.37416-0.31323,0.57467
	c-0.04227,0.54934-0.36887,0.92042-0.68503,1.31382c-0.40256,0.50093-0.8063,1.00195-1.1832,1.5222
	c-0.52386,0.72359-0.99158,1.4897-1.54007,2.19344c-1.00992,1.29561-2.22101,2.43843-2.95749,3.93985
	c-0.03629,0.07407-0.09854,0.13567-0.15005,0.20222c-1.33411,1.72211-2.69437,3.42472-3.99442,5.17198
	c-1.10022,1.47832-2.27524,2.91087-3.07486,4.59509c-0.12814,0.2698-0.36954,0.48724-0.56543,0.72316
	c-0.78577,0.94728-1.56744,1.89807-2.36401,2.8362c-0.61418,0.72334-1.24821,1.42973-1.87317,2.14375
	c-0.92009,1.05104-1.86002,2.07839-3.10411,2.76854c-0.11412,0.06329-0.17108,0.22189-0.27391,0.31461
	c-0.76474,0.68929-1.44376,1.46883-2.41328,1.92433c-0.65114,0.30607-1.2583,0.73309-1.82579,1.18107
	c-0.39998,0.31573-0.76987,0.63326-1.2773,0.76568c-0.45918,0.11984-0.92212,0.2496-1.35634,0.43745
	c-0.99107,0.4289-1.78694,0.01514-2.41893-0.64986c-1.32228-1.39132-2.16093-3.04235-2.36504-4.98618
	c-0.03986-0.37886-0.18477-0.74815-0.29494-1.11777c-0.28896-0.96952-0.54935-1.93237-0.27408-2.96313
	c0.10658-0.39896,0.19008-0.85131,0.10966-1.2436c-0.19743-0.96156-0.03729-1.89576,0.05731-2.84048
	c0.02789-0.27835,0.05748-0.55918,0.05048-0.83796c-0.02618-1.04787,0.07852-2.06342,0.59229-3.00762
	c0.11736-0.21582,0.16902-0.47398,0.21796-0.71923c0.16389-0.82119,0.30862-1.64615,0.46877-2.46819
	c0.13275-0.68074,0.22069-1.37696,0.42804-2.03503c0.35995-1.14231,0.79092-2.26247,1.20255-3.38819
	c0.77483-2.11928,1.55394-4.23428,2.564-6.26066c0.72095-1.44624,1.35463-2.93697,1.99962-4.41991
	c0.52316-1.20339,0.99706-2.42817,1.50894-3.63652c0.30504-0.72034,0.60408-1.44727,0.97174-2.13605
	c0.67081-1.25668,1.45744-2.45271,1.90552-3.82197c0.07698-0.23499,0.20102-0.47689,0.36714-0.65644
	c1.01485-1.0957,1.58148-2.43168,2.04271-3.81479c0.31685-0.95019,0.81743-1.77352,1.4614-2.52612
	c0.14302-0.16706,0.27133-0.35413,0.36987-0.55037c0.27408-0.54575,0.5271-1.10194,0.79143-1.65257
	c0.44548-0.92786,0.93034-1.83896,1.32896-2.7865c0.336-0.79895,0.21539-1.13136-0.47391-1.66129
	c-0.59708-0.45927-1.20697-0.90596-1.84169-1.3104c-0.1757-0.11189-0.54164-0.16047-0.68091-0.05474
	c-0.68433,0.52018-1.3223,1.10134-1.97412,1.66386c-0.04037,0.03482-0.06056,0.09367-0.08725,0.14294
	c-0.63077,1.16079-1.78079,1.82853-2.63945,2.77384c-0.57739,0.63565-1.33769,1.14377-1.78011,1.85556
	c-0.9726,1.56446-1.80252,3.21831-2.67522,4.84393c-0.25079,0.46757-0.45764,0.95985-0.6691,1.44753
	c-0.35362,0.81554-0.7868,1.61176-1.01434,2.4623c-0.20889,0.78014-0.50093,1.46754-1.01076,2.0878
	c-1.4015,1.70569-2.66101,3.51035-3.75679,5.43005c-0.38596,0.67638-0.83966,1.31383-1.25249,1.9754
	c-0.10162,0.16287-0.19229,0.34302-0.23935,0.52762c-0.23369,0.91837-0.72281,1.71587-1.31767,2.41337
	c-1.02563,1.20279-1.68994,2.62312-2.53868,3.93069c-0.92641,1.42683-1.82954,2.87101-2.81328,4.25755
	c-0.62837,0.8856-1.39363,1.67301-2.08018,2.51867c-0.40495,0.49862-0.75635,1.04104-1.16832,1.53333
	c-0.31975,0.38219-0.69664,0.71658-1.04701,1.07346c-0.37177,0.37868-0.76303,0.74078-1.10742,1.143
	c-0.39725,0.4638-0.72076,0.99296-1.1358,1.43863c-0.35843,0.38493-0.82907,0.66396-1.1998,1.03957
	c-1.41263,1.43111-2.80917,2.87803-4.20247,4.32787c-0.69733,0.72556-1.37003,1.47464-2.06273,2.20482
	c-0.5182,0.54626-1.04497,1.08449-1.57806,1.61621c-0.41179,0.41077-0.8212,0.82701-1.26395,1.2028
	c-0.57484,0.48766-1.22975,0.88885-1.76387,1.41493c-0.8347,0.82204-1.58455,1.72964-2.39702,2.57513
	c-0.26604,0.27681-0.6123,0.478-0.92795,0.70537c-0.33687,0.2426-0.70178,0.45055-1.01674,0.71803
	c-0.46706,0.39683-0.84789,0.92008-1.36063,1.23341c-0.97978,0.59853-1.93031,1.2158-2.80045,1.97283
	c-0.3165,0.27544-0.80681,0.35294-1.22032,0.5147c-0.20615,0.08067-0.42787,0.12737-0.62531,0.22437
	c-0.76593,0.37638-1.49184,0.86773-2.2937,1.13052c-1.56471,0.5129-3.16125,0.95344-4.82809,0.99561
	c-0.35774,0.00899-0.72624-0.12326-1.0744-0.07655c-1.24445,0.16697-2.25333-0.33293-3.09299-1.14403
	c-1.57875-1.52477-2.60045-3.41164-3.29248-5.47958c-0.37125-1.10973-0.70879-2.23074-1.05916-3.3474
	c-0.12558-0.40016-0.28828-0.79519-0.35791-1.20544c-0.35706-2.10345-0.52539-4.22042-0.34422-6.35364
	c0.0876-1.03077,0.13841-2.06838,0.30179-3.08752c0.16322-1.01794,0.42908-2.02108,0.68434-3.02191
	c0.12334-0.48331,0.31837-0.94907,0.49323-1.41818c0.26158-0.70161,0.54164-1.39646,0.79758-2.10012
	c0.08521-0.2343,0.077-0.50871,0.18614-0.72736c0.46124-0.92367,0.79793-1.90285,1.21263-2.83594
	c0.6881-1.54761,1.1873-3.19316,2.17256-4.61229c0.45901-0.66097,0.7632-1.42785,1.15601-2.13647
	c0.62172-1.12179,1.24359-2.24409,1.89662-3.34773c0.2816-0.47578,0.61435-0.92812,0.97209-1.35036
	c0.42856-0.50606,0.98662-0.89133,1.31184-1.4997c0.6248-1.16917,1.459-2.17411,2.41312-3.09915
	c0.65935-0.63916,1.23795-1.36626,1.81569-2.08395c1.18971-1.47841,2.32878-2.99821,3.54054-4.45797
	c0.60393-0.72753,1.28055-1.40861,1.99962-2.02245c0.74368-0.6348,1.69028-0.82128,2.65108-0.92881
	c0.66449-0.07442,1.34932-0.13609,1.9731-0.35294c0.50571-0.17596,0.98645-0.24183,1.47472-0.12412
	c0.75858,0.1828,1.50108,0.43343,2.24854,0.66149c0.10556,0.03216,0.20769,0.08827,0.29922,0.15106
	c1.70757,1.16969,3.42575,2.32466,5.11261,3.52361c0.58614,0.41659,1.09219,0.94523,1.6376,1.41964
	c0.40033,0.34815,0.86824,0.64036,1.19518,1.04685c0.79485,0.98868,1.92365,1.38422,3.01105,1.89233
	c0.9868,0.46107,1.63434-0.02173,2.28104-0.6342c0.06004-0.05697,0.0929-0.14302,0.15414-0.1982
	c0.3709-0.33524,0.71272-0.71709,1.12674-0.9874c1.17603-0.7673,2.60268-1.17499,3.43431-2.42987
	c0.70691-0.27579,0.90843-1.01691,1.37344-1.51614c0.43729-0.46979,0.37158-0.86747-0.08418-1.3205
	c-0.1769-0.17587-0.38373-0.32198-0.57825-0.47988c-0.84344-0.68424-1.692-1.36233-2.52997-2.05307
	c-1.33615-1.10126-2.5262-2.37796-4.00999-3.30223c-0.87885-0.54729-1.72775-1.143-2.61191-1.68139
	c-1.00305-0.61094-2.00815-1.22598-3.05466-1.75547c-0.7177-0.36312-1.49748-0.61538-2.26822-0.8572
	c-0.61093-0.1917-1.24803-0.30547-1.87865-0.42634c-0.24054-0.0461-0.51102-0.07211-0.74164-0.01018
	c-1.2388,0.33292-2.55716,0.27373-3.76312,0.77825c-0.1851,0.0775-0.44618,0.03507-0.65541-0.01796
	c-0.55089-0.1396-1.04549-0.02857-1.53957,0.22292c-0.92197,0.46928-1.86514,0.89716-2.78111,1.3773
	c-1.20253,0.63044-2.45485,1.14907-3.46098,2.14331c-1.03078,1.01854-2.22168,1.87343-3.31934,2.82662
	c-0.69408,0.60264-1.38696,1.21613-2.00543,1.8931c-0.75343,0.82462-1.44753,1.70621-2.13304,2.58967
	c-1.19997,1.54659-2.43672,3.07246-3.3385,4.82332c-0.55328,1.07423-1.19534,2.08369-1.97275,3.00677
	c-0.30435,0.3615-0.63574,0.70058-0.92999,1.06978c-0.29529,0.37082-0.54884,0.77466-0.84001,1.14899
	c-0.3432,0.44122-0.73122,0.84891-1.05746,1.30151c-1.06139,1.47173-2.14606,2.92944-3.13901,4.44676
	c-0.76234,1.16507-1.41844,2.40165-2.08652,3.62566c-0.56201,1.02974-1.07474,2.08643-1.60612,3.13285
	c-0.36594,0.72077-0.75789,1.43076-1.07936,2.1712c-0.24362,0.56132-0.36508,1.17448-0.59245,1.74409
	c-0.39262,0.98363-1.01161,1.87805-1.15514,2.96014c-0.01062,0.07981-0.045,0.17844-0.10283,0.22652
	c-0.66414,0.55132-1.04378,1.2737-1.29936,2.08096c-0.03883,0.1225-0.18427,0.20795-0.26689,0.32053
	c-0.11531,0.15739-0.26364,0.30991-0.31856,0.48886c-0.46431,1.51109-1.45061,2.7049-2.37581,3.93361
	c-0.43404,0.57655-0.90211,1.12794-1.36848,1.67925c-0.32181,0.38049-0.80136,0.68749-0.97466,1.12153
	c-0.39914,0.99911-1.21059,1.59158-1.94708,2.26546c-0.5367,0.491-1.12144,0.92983-1.47148,1.59243
	c-0.05081,0.09632-0.12831,0.19118-0.21693,0.2532c-1.43178,1.00143-2.31303,2.57829-3.75696,3.5763
	c-0.39931,0.27596-0.65695,0.75208-0.99622,1.12093c-0.26431,0.28759-0.53702,0.57262-0.83659,0.82188
	c-0.93668,0.77962-1.96967,1.44838-2.74397,2.4138c-0.06741,0.08418-0.16766,0.15081-0.26553,0.20034
	c-1.21622,0.61538-2.35529,1.39407-3.67946,1.78114c-0.82272,0.24054-1.72621,0.25645-2.25435-0.44139
	c-0.61041-0.80631-1.4417-1.48038-1.69096-2.56264c-0.16014-0.69511-0.55807-1.33205-0.7709-2.01945
	c-0.23952-0.7732-0.39041-1.57378-0.58047-2.3623c-0.15706-0.65148-0.33772-1.29826-0.4662-1.9553
	c-0.15569-0.7957-0.2171-1.61262-0.41093-2.39771c-0.26587-1.07705-0.37297-2.14066-0.10402-3.22763
	c0.0325-0.13123,0.03198-0.27357,0.02788-0.41009c-0.01711-0.57706-0.10898-1.16087-0.04977-1.72929
	c0.14507-1.38799,0.29973-2.78,0.55841-4.14994c0.39896-2.11252,0.80391-4.23103,1.36899-6.30266
	c0.38016-1.39415,0.55003-2.84202,1.18132-4.18467c0.73378-1.56061,1.02274-3.31061,1.95889-4.79919
	c0.19077-0.3035,0.28281-0.66756,0.43951-0.9945c0.72266-1.50758,1.33667-3.07793,2.49335-4.33693
	c0.09306-0.10145,0.16818-0.22506,0.22925-0.34935c1.17911-2.40105,2.28224-4.84444,3.93198-6.981
	c0.06348-0.0822,0.07185-0.20581,0.1107-0.30829c0.43317-1.14077,0.7442-2.34956,1.33101-3.40496
	c0.79143-1.42306,1.23932-2.97631,1.937-4.42905c0.38458-0.80049,0.49271-1.71938,1.04993-2.45332
	c0.33823-0.44567,0.65251-0.91178,0.94984-1.38594c0.44943-0.71666,0.45149-1.05386-0.15533-1.62785
	c-0.58253-0.55122-1.25027-1.014-1.89114-1.50176c-0.90451-0.6886-1.40732-0.60007-2.08737,0.3254
	c-0.60957,0.82957-1.20886,1.66865-1.85625,2.46837c-0.62701,0.77457-1.44153,1.42623-1.94041,2.26992
	c-1.07524,1.81894-2.54723,3.42335-3.10445,5.53339c-0.02104,0.07955-0.05885,0.16193-0.11069,0.22506
	c-0.90315,1.10049-1.25728,2.48497-1.90739,3.71676c-0.42737,0.80981-0.67493,1.71253-1.04378,2.55579
	c-0.69441,1.58781-1.44736,3.15047-2.11987,4.74727c-0.4426,1.05079-1.04907,2.02518-1.35565,3.14329
	c-0.21283,0.77663-0.56662,1.51878-0.89955,2.25717c-0.35654,0.79049-0.6922,1.60561-1.16953,2.32141
	c-0.37706,0.56551-0.88312,1.05276-1.31476,1.59397c-1.33992,1.68011-2.23039,3.61454-3.25996,5.46453
	c-0.68091,1.22392-1.53221,2.27043-2.54416,3.19787c-0.37964,0.34815-0.86705,0.60298-1.34351,0.81452
	c-0.44962,0.19965-0.79947,0.45679-1.11563,0.84138c-0.45747,0.55636-0.99382,1.05062-1.51938,1.54727
	c-0.32266,0.30486-0.7478,0.51675-1.01999,0.85609c-0.42549,0.53053-0.98116,0.81426-1.57465,1.06772
	c-0.20479,0.08734-0.4236,0.15038-0.61299,0.26279c-1.25009,0.74232-2.47777,1.52417-3.74446,2.23655
	c-1.43315,0.80605-2.84202,1.67387-4.45224,2.11269c-0.51205,0.13943-1.05558,0.22549-1.5199,0.46295
	c-0.68124,0.34866-1.39739,0.39759-2.12073,0.42086c-0.81572,0.02634-0.97774-0.26312-0.54147-0.95515
	c0.58595-0.92982,1.03111-1.9168,1.39038-2.95381c0.31941-0.92188,0.7141-1.81732,1.0501-2.73363
	c0.23045-0.62821,0.42257-1.2708,0.62103-1.91022c0.06604-0.21291,0.07664-0.44387,0.15055-0.65319
	c0.38271-1.0815,0.7502-2.16941,1.17465-3.23457c0.69596-1.74683,1.19586-3.54002,1.53529-5.39114
	c0.18494-1.00819,0.10009-2.08164,0.64892-3.01814c0.07664-0.13079,0.03302-0.32993,0.05235-0.49657
	c0.05799-0.50024,0.10555-1.00237,0.18237-1.4997c0.31565-2.04204,0.7069-4.06747,0.87713-6.1374
	c0.14337-1.74178,0.18358-3.47408,0.04517-5.20158c-0.20016-2.49797-0.66808-4.93811-2.26649-6.9964
	c-0.63198-0.81393-1.25027-1.63897-1.90244-2.43638c-0.42394-0.5183-0.83796-1.07337-1.36095-1.47627
	c-1.30347-1.00391-2.6581-1.94247-4.00845-2.88401c-1.06909-0.74524-2.21996-1.1862-3.55115-0.77988
	c-0.10453,0.03199-0.2236,0.01317-0.3343,0.02925c-1.27336,0.18579-2.5782,0.25662-3.81171,0.59049
	c-1.56078,0.42232-3.0586,1.0655-4.44676,1.93109c-0.71204,0.44404-1.45985,0.82992-2.17924,1.26258
	c-0.64378,0.38708-1.31271,0.74977-1.89627,1.21597c-1.15514,0.92248-2.2316,1.94341-3.39119,2.85955
	c-1.23179,0.97303-2.42235,1.97925-3.42062,3.19684c-0.49511,0.60358-0.91837,1.28757-1.4968,1.79568
	c-0.7028,0.61735-1.26635,1.3347-1.85744,2.04101c-0.50315,0.60127-1.03026,1.1832-1.56146,1.76009
	c-0.13123,0.14243-0.31941,0.23215-0.59434,0.42548c0.01899-0.30231,0.00735-0.44122,0.03918-0.56919
	c0.31548-1.27354,0.57722-2.56469,0.97466-3.81248c0.45764-1.43709,1.02871-2.83868,1.56676-4.24942
	c0.34062-0.89305,0.81863-1.71921,1.03487-2.6776c0.30727-1.36053,0.79776-2.67881,1.15926-4.02864
	c0.09666-0.36073,0.09033-0.79288-0.00838-1.15412c-0.3201-1.17157-1.19586-1.96889-2.01415-2.79659
	c-0.31906-0.32275-0.65267-0.39948-1.04103-0.10119c-0.42035,0.32283-0.85045,0.63369-1.28654,0.93496
	c-1.12537,0.77723-2.2523,1.55231-3.38708,2.31577c-0.46294,0.31145-0.98508,0.54464-1.41416,0.89459
	c-0.78989,0.64421-1.4506,1.4104-1.6879,2.44049c-0.13789,0.59879-0.16064,1.2276-0.33344,1.8139
	c-0.48211,1.63494-0.9856,3.26501-1.53751,4.87746c-0.44293,1.29406-1.04104,2.53766-1.44034,3.84344
	c-0.52112,1.70364-1.25916,3.3237-1.5779,5.11485c-0.32574,1.83074-1.05574,3.59016-1.61826,5.37779
	c-0.17587,0.55824-0.40102,1.10117-0.5697,1.6612c-0.16903,0.5609-0.25423,1.1495-0.45183,1.69876
	c-0.24448,0.67963-0.56337,1.32417-0.6987,2.05067c-0.0893,0.47997-0.3709,0.9229-0.55499,1.38688
	c-0.07134,0.18015-0.11035,0.37296-0.16595,0.55943c-0.4224,1.4181-0.81965,2.84458-1.27678,4.25147
	c-0.33669,1.03599-0.76508,2.04178-1.12812,3.06964c-0.37261,1.05506-0.71085,2.12228-1.07234,3.18127
	c-0.73274,2.14579-1.48106,4.28637-2.20148,6.43627c-0.25713,0.76679-0.41658,1.56686-0.6833,2.3298
	c-0.60957,1.74401-1.26105,3.4734-1.88806,5.21133c-0.14165,0.39314-0.23952,0.80203-0.38032,1.19552
	c-0.49921,1.39458-1.01811,2.78214-1.5098,4.17928c-0.28777,0.8176-0.49854,1.66377-0.81298,2.47017
	c-0.74027,1.89867-1.56489,3.76517-2.27283,5.67531c-0.51427,1.38799-0.88467,2.82858-1.33974,4.23906
	c-1.20168,3.72557-2.41534,7.4472-3.62283,11.17097c-0.63848,1.96916-1.27695,3.93831-1.90996,5.90918
	c-0.59879,1.8642-1.18885,3.73129-1.78576,5.59608c-0.51119,1.5974-1.02512,3.19394-1.54265,4.78928
	c-0.05149,0.15894-0.12506,0.31317-0.20581,0.46004c-0.65114,1.18381-0.99091,2.4848-1.40646,3.75594
	c-0.21676,0.66345-0.28947,1.38457-0.57398,2.01329c-0.84069,1.85675-1.12144,3.86594-1.68139,5.79788
	c0.08041,0.59477-3.65662,8.79732-1.33136,9.42859c0.08803,0.02391,5.38058-1.19643,5.87723-2.05304
	c0.181-0.31206,2.07316-2.85478,2.24202-3.17163c0.40102-0.75233,3.52288-8.41714,3.45821-8.43144
	c0.04414-0.13275,0.04568-0.24583,0.0982-0.27945c0.60683-0.38818,0.60255-1.00623,0.68946-1.62537
	c0.08007-0.57074,0.27527-1.13136,0.47202-1.67763c0.14011-0.38887,0.40392-0.73309,0.54609-1.12154
	c0.19093-0.52188,0.28639-1.07858,0.47749-1.60039c0.70982-1.93793,1.45933-3.86131,2.15871-5.80293
	c0.38733-1.07474,0.9803-2.06256,1.22888-3.20026c0.18905-0.86551,0.53566-1.69731,0.82205-2.54074
	c0.43934-1.29381,0.90588-2.57872,1.3252-3.87894c0.26517-0.82222,0.43523-1.67542,0.70264-2.49686
	c0.35465-1.08954,0.77586-2.15726,1.14487-3.24243c0.45953-1.35121,0.88792-2.71303,1.34419-4.06543
	c0.23969-0.71033,0.53412-1.40286,0.76149-2.11688c0.44019-1.38269,0.63061-2.84013,1.29338-4.15866
	c0.24926-0.49605,0.47287-1.03033,0.57124-1.57207c0.30161-1.66266,0.85677-3.24004,1.46514-4.80595
	c0.35345-0.91033,0.6354-1.85111,1.033-2.74074c0.20307-0.45439,0.33686-1.00407,0.872-1.31348
	c0.1355,0.1804,0.27116,0.32214,0.3615,0.48843c0.37331,0.68621,0.7093,1.39338,1.10211,2.06796
	c0.79742,1.37011,1.59859,2.74194,2.70549,3.8969c0.32831,0.34233,0.74164,0.61385,1.02341,0.98766
	c0.74831,0.99228,1.72861,1.74556,2.57803,2.62962c0.58219,0.60597,1.26173,1.01614,1.98575,1.37524
	c0.73993,0.36705,1.42888,0.91734,2.34007,0.78595c1.02153-0.14748,2.05042-0.25714,3.06322-0.45123
	c1.3134-0.25166,2.48172-0.80777,3.48922-1.72673c0.42138-0.38417,0.98372-0.61838,1.49423-0.89861
	c0.36338-0.19966,0.78047-0.31531,1.11511-0.55148c0.68279-0.48212,1.27593-1.10844,1.99584-1.51715
	c1.56472-0.88826,2.92242-2.05727,4.38432-3.08231c1.50723-1.0566,2.83089-2.36127,4.44454-3.284
	c0.42634-0.24371,0.88963-0.5934,1.09766-1.01272c0.45473-0.91649,1.1856-1.54984,1.92023-2.18489
	c0.86533-0.74763,1.62391-1.53674,3.06561-1.15121c1.26669,0.33858,2.66734,0.21488,4.00914,0.22036
	c0.92076,0.00385,1.82561-0.14551,2.67247-0.59366c0.48724-0.2579,1.03745-0.48528,1.57738-0.53634
	c1.02563-0.09701,1.86446-0.52437,2.64647-1.14146c0.23969-0.18922,0.4881-0.41778,0.76901-0.4946
	c0.77928-0.21274,1.38987-0.69852,2.04922-1.11716c0.94248-0.59862,1.87197-1.23615,2.874-1.71766
	c1.05472-0.50674,1.88943-1.29697,2.79359-1.98164c1.26875-0.9608,2.46872-2.00294,3.87381-2.77872
	c0.50778-0.2804,0.94592-0.69083,1.40186-1.05943c0.43233-0.3496,0.84891-0.71914,1.26755-1.0856
	c0.41658-0.3644,0.86276-0.70392,1.23024-1.11323c0.3692-0.41111,0.64207-0.90708,0.98869-1.34077
	c0.13583-0.17005,0.35722-0.27193,0.63574-0.47509c0,0.27638,0.01642,0.38733-0.0024,0.49186
	c-0.23952,1.32127-0.5242,2.63586-0.71581,3.9638c-0.19572,1.35685-0.37981,2.72397-0.42703,4.09143
	c-0.06363,1.84648-0.01727,3.69828,0.03423,5.5463c0.02327,0.83659,0.13721,1.67558,0.27441,2.50276
	c0.16458,0.99099,0.35995,1.98045,0.61127,2.95262c0.33516,1.29739,0.5307,2.69018,1.15771,3.83925
	c0.96953,1.77609,2.10706,3.47818,3.69897,4.83144c1.20168,1.02136,2.58572,1.3862,4.07706,1.53
	c1.00887,0.09734,2.0126,0.09605,2.92259-0.46724c0.06757-0.0419,0.1615-0.04344,0.24396-0.05884
	c0.70401-0.13071,1.32623-0.40085,1.84906-0.92009c0.207-0.20546,0.52437-0.31256,0.80682-0.42685
	c0.83812-0.33891,1.58815-0.78389,2.23279-1.4429c0.58237-0.59537,1.26617-1.09091,1.89867-1.63803
	c0.37741-0.32651,0.76422-0.6466,1.10828-1.00647c0.78441-0.82059,1.27797-1.9198,2.36845-2.45067
	c0.11308-0.05508,0.181-0.20795,0.26364-0.31992c0.73154-0.98911,1.41467-2.01817,2.55972-2.61208
	c0.26193-0.13584,0.53635-0.37279,0.65747-0.63215c0.38441-0.82205,1.14265-1.29338,1.70192-1.94708
	c0.77876-0.90981,1.56404-1.81527,2.30789-2.75323c0.41368-0.52163,0.72472-1.12401,1.12659-1.65633
	c0.47098-0.6236,0.98389-1.21597,1.49217-1.81039c0.18887-0.22078,0.41608-0.4088,0.73035-0.71298
	c0.21591,0.66055,0.17587,1.18705,0.19983,1.7038c0.05029,1.08586,0.06313,2.17496,0.15944,3.25672
	c0.16306,1.83109,0.84978,3.52959,1.42169,5.25495c0.18443,0.55602,0.45422,1.0939,0.56133,1.66326
	c0.18135,0.96473,0.67424,1.77771,1.16866,2.57787c0.61334,0.99227,1.32623,1.92339,2.00697,2.87315
	c0.15979,0.2231,0.33823,0.44601,0.55037,0.61667c1.55479,1.25137,3.24252,2.28745,5.07909,3.07512
	c1.11938,0.48006,2.24733,0.85916,3.46236,0.31145c0.12352-0.05568,0.27493-0.04799,0.41231-0.0751
	c1.39705-0.27553,2.82097-0.45833,4.18381-0.85207c1.68533-0.48708,3.35783-1.05772,4.86984-1.99319
	c0.14218-0.08794,0.27956-0.19435,0.43439-0.24884c0.92128-0.3243,1.66394-0.87277,2.24066-1.66676
	c0.15791-0.21762,0.39023-0.45071,0.63437-0.52429c0.94951-0.28596,1.54846-0.95224,2.09644-1.71971
	c0.28845-0.40392,0.59126-0.88808,1.00716-1.09219c0.9644-0.47321,1.79945-1.04976,2.42441-1.93237
	c0.15791-0.22275,0.39195-0.40273,0.61812-0.56422c1.15652-0.82556,2.30858-1.65129,3.14517-2.83398
	c0.15894-0.22463,0.36971-0.41454,0.56783-0.60905c0.95634-0.93906,1.91577-1.87497,2.87572-2.81028
	c0.2207-0.21496,0.41539-0.4857,0.67834-0.62291c0.80664-0.42094,1.27592-1.15155,1.81706-1.82673
	c0.52077-0.64994,1.00749-1.30706,1.74196-1.7896c0.70895-0.46586,1.26994-1.15934,1.88481-1.7642
	c0.11581-0.11403,0.17348-0.28529,0.26773-0.42343c0.15723-0.23045,0.28264-0.50392,0.49084-0.67484
	c1.21091-0.99398,1.97017-2.41619,3.28888-3.32771c0.8838-0.61085,1.61467-1.44684,2.39412-2.20251
	c0.17142-0.16595,0.284-0.40752,0.38066-0.63275c0.21675-0.50443,0.54352-0.88877,1.00459-1.20074
	c0.48039-0.32506,0.9211-0.71495,1.34932-1.10904c0.33208-0.30564,0.61795-0.66123,0.95703-1.03
	c0.26791,0.4165,0.14952,0.76251,0.06535,1.11083c-0.32796,1.35565-0.68312,2.70575-0.96866,4.07039
	c-0.33139,1.58473-0.60085,3.18246-0.89493,4.77489c-0.02037,0.10983-0.02635,0.22275-0.032,0.33464
	c-0.05748,1.11853-0.14062,2.23655-0.16304,3.35577c-0.02789,1.39637-0.05081,2.79582,0.01094,4.19014
	c0.04073,0.9182,0.15894,1.84837,0.37912,2.73936c0.25337,1.02563,0.65337,2.01552,0.99707,3.0184
	c0.41214,1.20322,1.04445,2.28266,1.86771,3.2497c0.95428,1.12102,2.1481,1.93655,3.37784,2.72636
	c0.94078,0.60426,1.91441,0.66901,2.97717,0.58382c1.29407-0.10376,2.41414-0.71881,3.52873-1.23735
	c1.13632-0.52873,2.35101-1.05028,3.19069-2.08669c0.08315-0.10265,0.23164-0.15449,0.35396-0.22275
	c1.11272-0.62051,2.1002-1.37875,2.79053-2.47795c0.10127-0.16133,0.25577-0.3011,0.41196-0.41419
	c1.09184-0.78971,2.06291-1.70628,2.98488-2.6889c1.17635-1.25386,2.27931-2.56657,3.3679-3.8952
	c0.63608-0.7762,1.33258-1.50295,2.00201-2.25178c0.61212-0.68459,1.25351-1.34565,1.82938-2.05949
	c0.64551-0.80049,1.16061-1.71629,1.8631-2.45819c0.81467-0.86063,1.49353-1.7855,2.09369-2.80378
	c0.67902-1.15198,1.50006-2.2114,2.40918-3.20744c0.70554-0.77261,1.48874-1.49894,1.84219-2.5552
	c0.16922-0.50529,0.55893-0.92051,1.11719-1.14223c-0.13943,0.96131-0.35141,1.87908-0.57449,2.79411
	c-0.31787,1.30484-0.6821,2.59976-0.9574,3.91333c-0.35516,1.69542-0.63779,3.40607-0.95959,5.10868
	c-0.27441,1.453-0.57364,2.90137-0.83401,4.35677c-0.1131,0.63232-0.1355,1.28046-0.23575,1.9156
	c-0.20444,1.29594-0.32849,2.59754-0.67679,3.87971c-0.34149,1.25616-0.40292,2.58616-0.62549,3.87723
	c-0.39417,2.28616-0.78235,4.57439-1.24188,6.84781c-0.26535,1.3129-0.63251,2.60849-1.01624,3.89314
	c-0.26331,0.88185-0.66602,1.72127-0.95001,2.59789c-0.54935,1.69577-1.01761,3.41873-1.59998,5.10252
	c-0.36456,1.05438-0.85284,2.06906-1.33459,3.07828c-0.16306,0.34183-0.42102,0.69664-0.73138,0.89922
	c-0.87045,0.56824-1.29782,1.42699-1.70261,2.31798c-0.24173,0.53258-0.48433,1.06473-0.72214,1.59894
	c-0.19315,0.43378-0.35516,0.88321-0.57431,1.30313c-0.41283,0.79083-0.78818,1.61417-1.30194,2.33681
	c-1.14095,1.60527-2.55237,2.96468-4.10683,4.17261c-0.70503,0.54781-1.46086,1.03856-2.11406,1.64162
	c-0.51941,0.47937-1.04224,0.92461-1.66873,1.25061c-0.69168,0.35979-1.38405,0.71948-2.06256,1.10297
	c-0.43489,0.24585-0.84174,0.54062-1.2684,0.80186c-0.28606,0.17519-0.56799,0.37775-0.88039,0.4857
	c-1.44873,0.50041-2.82013,1.16061-4.20709,1.81038c-1.7375,0.81401-3.41461,1.81296-5.32698,2.22467
	c-1.69267,0.36449-3.37852,0.76208-5.076,1.10323c-1.20305,0.24173-2.46066,0.08673-3.649,0.49579
	c-0.47253,0.1627-0.97568,0.26091-1.47284,0.32283c-1.21965,0.15175-2.44374,0.26775-3.66646,0.39247
	c-0.33276,0.03387-0.66911,0.0804-1.00101,0.065c-1.76077-0.08168-3.52104-0.26158-5.28079-0.25362
	c-2.05469,0.00932-4.08527-0.11882-6.07564-0.61513c-1.19312-0.29761-2.36349-0.69289-3.53078-1.08406
	c-0.92538-0.31009-1.82408-0.69948-2.74655-1.01906c-0.87201-0.30196-1.74094-0.58894-2.50499-1.13734
	c-0.38391-0.27553-0.82941-0.46416-1.24326-0.6987c-0.46106-0.26141-0.92982-0.51189-1.37413-0.79964
	c-1.10211-0.71393-2.16914-1.48441-3.29265-2.16214c-1.53648-0.92709-2.95851-2.00012-4.25806-3.22678
	c-1.19963-1.13248-2.35785-2.31047-3.50427-3.49744c-1.16951-1.21083-2.20354-2.5262-2.99805-4.02487
	c-0.36389-0.68639-0.7762-1.3571-1.24649-1.97403c-0.42001-0.55115-0.69905-1.11673-0.80614-1.80688
	c-0.12781-0.82291-0.49426-1.52348-1.22736-2.01927c-0.48279-0.32643-0.90176-0.74986-1.33734-1.14301
	c-0.7673-0.69254-1.86856-0.63197-2.51268,0.16013c-0.1757,0.21608-0.31223,0.46364-0.47389,0.6917
	c-0.161,0.22719-0.31976,0.45764-0.49974,0.66943c-0.45012,0.52985-0.97551,1.00803-1.35497,1.58311
	c-0.70674,1.07071-1.64154,1.96497-2.27745,3.09334c-0.35191,0.62462-0.73018,1.24846-0.6525,1.95152
	c0.08109,0.73412,0.27065,1.49158,0.58681,2.15598c0.4537,0.95285,1.06105,1.83298,1.6104,2.73962
	c0.41881,0.69118,0.77534,1.43761,1.29099,2.04871c0.89424,1.05986,1.73853,2.17206,2.79086,3.0918
	c0.25183,0.22018,0.51393,0.43069,0.74864,0.66808c1.05884,1.07166,2.05779,2.20935,3.17802,3.21173
	c1.11888,1.00116,2.3452,1.88429,3.54517,2.79196c1.02084,0.77226,2.07573,1.49945,3.10684,2.25819
	c1.23624,0.90965,2.4653,1.8287,3.83737,2.5322c0.42291,0.21675,0.84105,0.44275,1.26498,0.65704
	c1.14505,0.57867,2.23039,1.28148,3.49265,1.6132c0.67354,0.17708,1.3418,0.384,1.99619,0.62206
	c0.99416,0.36168,1.98369,0.73993,2.95851,1.1507c2.34724,0.98903,4.85188,1.00803,7.32487,1.18929
	c0.91409,0.06706,1.84564-0.11932,2.7628-0.06998c1.02701,0.05518,2.04341,0.31351,3.07025,0.36252
	c1.41757,0.06767,2.83841,0.23396,4.25943-0.13438c0.68929-0.1787,1.43709-0.12592,2.15683-0.19469
	c0.47081-0.04491,0.94949-0.07733,1.40561-0.19127c0.69835-0.17442,1.37395-0.44002,2.07214-0.61555
	c0.34558-0.08673,0.71974-0.0645,1.08141-0.08101c0.30402-0.01385,0.61983,0.0379,0.91136-0.02591
	c1.76675-0.38605,3.5443-0.73796,5.28574-1.2188c1.32846-0.36671,2.61157-0.89664,3.82643-1.57481
	c0.33412-0.18648,0.74387-0.23224,1.09612-0.39279c1.21811-0.55534,2.42714-1.13069,3.63754-1.70244
	c0.78253-0.36972,1.57756-0.71718,2.33733-1.12915c0.63626-0.34489,1.20015-0.82941,1.84906-1.14282
	c0.84206-0.40666,1.58063-0.93701,2.28908-1.53238c0.6691-0.56235,1.38969-1.01726,2.27881-1.19313
	c0.88945-0.1757,1.57721-0.78004,2.30089-1.27628c0.50212-0.34439,0.91614-0.81435,1.39226-1.19997
	c0.87013-0.70485,1.73837-1.39586,2.42628-2.30559c0.49991-0.66132,1.0614-1.30698,1.96573-1.48567
	c0.23473-0.04637,0.44312-0.23164,0.6609-0.35765c1.41125-0.81657,2.14006-2.32561,3.37321-3.33028
	c0.42395-0.34541,0.74985-0.82153,1.08365-1.26567c0.87457-1.16319,1.72501-2.34433,2.59308-3.51231
	c0.31564-0.42479,0.70041-0.80486,0.97159-1.25481c0.46054-0.76465,0.85318-1.5701,1.28036-2.35519
	c0.2662-0.48895,0.57483-0.95738,0.8075-1.46138c0.31479-0.68245,0.65594-1.34462,1.01605-2.0061
	c0.87988-1.61647,1.646-3.29727,2.03076-5.12408c0.10248-0.48604,0.29819-0.96216,0.51392-1.4127
	c0.51788-1.08116,0.94952-2.19037,1.30042-3.33739c0.28571-0.93402,0.62854-1.85162,0.97397-2.76605
	c0.19623-0.51924,0.50571-1.00032,0.6636-1.52863c0.31909-1.06755,0.56921-2.15572,0.84891-3.23508
	c0.02808-0.10786,0.04553-0.22437,0.09958-0.3188c0.67953-1.19133,0.92078-2.51225,1.14761-3.83823
	c0.16016-0.93556,0.32901-1.86958,0.48538-2.80575c0.16525-0.98988,0.31531-1.98232,0.4816-2.97212
	c0.15704-0.93607,0.31409-1.87257,0.4939-2.80446c0.22275-1.15361,0.53839-2.2937,0.68826-3.45569
	c0.21814-1.69217,0.36441-3.39067,0.94711-5.01236c0.05508-0.15347,0.04123-0.33079,0.06808-0.49563
	c0.22018-1.35223,0.43369-2.70566,0.66791-4.05558c0.10983-0.63318,0.25558-1.26028,0.39435-1.88815
	c0.24106-1.09074,0.46585-2.18583,0.74216-3.26767c0.20685-0.81042,0.49631-1.59927,0.72708-2.40396
	c0.56287-1.96256,1.10965-3.92984,1.66962-5.89326c0.30621-1.07311,0.6217-2.14358,0.94196-3.21249
	c0.15228-0.50829,0.23645-1.06584,0.50864-1.5033c0.54062-0.86918,0.78799-1.83485,1.10263-2.78102
	c0.28192-0.84763,0.46774-1.73366,0.81741-2.55074c0.41608-0.97243,0.96353-1.88849,1.45026-2.83099
	c0.16306-0.31556,0.3237-0.63291,0.46844-0.95695c0.26123-0.58484,0.46243-1.20202,0.77414-1.75769
	c0.58768-1.04823,1.22256-2.07087,1.86325-3.0882c0.62427-0.99142,1.28568-1.95932,1.92004-2.9445
	c0.46722-0.72521,1.05182-1.37302,1.3454-2.21337c0.17264-0.49417,0.48312-0.93855,0.68912-1.4234
	c0.16013-0.37715,0.24448-0.78587,0.38254-1.17345c0.06195-0.17407,0.13104-0.39229,0.26825-0.4851
	c0.7829-0.52933,1.21094-1.41879,2.0015-1.93871c0.12848-0.08451,0.20068-0.26723,0.27768-0.41556
	c0.83691-1.60826,1.67233-3.21728,2.50104-4.82964c0.16595-0.32266,0.26346-0.6857,0.45953-0.98646
	C298.95847,56.59631,298.94989,56.41094,298.23477,55.59907z M117.78276,86.49665c-0.22874,1.14993-0.32608,2.32535-0.53292,3.48032
	c-0.2609,1.4565-0.57261,2.90395-0.86328,4.35506c-0.02754,0.13737-0.0787,0.27219-0.08896,0.41042
	c-0.11411,1.52297-0.70435,2.9291-1.06225,4.39202c-0.61419,2.5102-1.69799,4.84778-2.59087,7.25558
	c-0.05406,0.14594-0.15962,0.27296-0.27853,0.47099c-0.93941-0.52129-1.65932-1.20904-2.19361-2.06958
	c-0.6188-0.99707-1.18953-2.02476-1.75547-3.05313c-0.17331-0.31505-0.32574-0.66705-0.37861-1.01845
	c-0.19469-1.29218-1.16558-1.92896-2.12655-2.55597c-0.41402-0.27014-0.92332-0.38972-1.37276-0.61136
	c-0.43626-0.21514-0.77414-0.12626-1.15155,0.16501c-0.54284,0.41924-1.00476,0.89048-1.31767,1.50073
	c-0.3266,0.63659-0.84121,1.09219-1.35873,1.57481c-0.6236,0.5815-1.13479,1.28773-1.66599,1.96265
	c-0.51975,0.66046-0.92778,1.3814-1.23316,2.17805c-0.15466,0.40392-0.21214,0.76405-0.06142,1.12589
	c0.38579,0.92624,0.80254,1.84033,1.23333,2.74673c0.21522,0.45303,0.52984,0.86089,0.72761,1.32015
	c0.56389,1.31032,1.49509,2.33193,2.43467,3.37656c0.97739,1.08655,2.19019,1.80544,3.39547,2.5623
	c0.59844,0.37569,0.6152,0.4875,0.1863,1.03214c-0.31017,0.39391-0.63129,0.78185-0.97773,1.14368
	c-0.33105,0.34592-0.61196,0.69665-0.80186,1.156c-0.13857,0.33549-0.45644,0.62762-0.75584,0.85977
	c-0.77107,0.59785-1.56677,1.16567-2.37171,1.71767c-0.45884,0.3147-0.93069,0.63343-1.44034,0.84643
	c-0.83163,0.34747-1.55634,0.8549-2.28223,1.36404c-1.23795,0.86842-2.667,0.96884-4.09348,0.97936
	c-0.43831,0.00317-0.91563-0.25936-1.31152-0.50349c-1.21229-0.74754-2.11748-1.80312-2.8906-2.99163
	c-0.50058-0.7691-1.07063-1.49286-1.61005-2.23672c-0.03268-0.04508-0.07733-0.08331-0.10249-0.1319
	c-1.16404-2.23758-2.40336-4.46969-2.73423-7.0041c-0.21899-1.67738-0.68638-3.33952-0.478-5.07036
	c0.27339-2.27077,0.41779-4.55908,0.75499-6.81933c0.13224-0.88672,0.17519-1.77754,0.31701-2.65485
	c0.10471-0.64729,0.36595-1.2785,0.62154-1.89011c0.46346-1.10947,0.92812-2.22321,1.48396-3.28734
	c0.31924-0.61111,0.82684-1.12213,1.23419-1.68926c0.45559-0.6342,0.98594-1.23727,1.31613-1.93331
	c0.40855-0.86149,1.09458-1.4726,1.65009-2.20004c0.21813-0.28579,0.45457-0.57689,0.5892-0.90399
	c0.67834-1.64855,1.76831-3.03226,2.80473-4.45207c0.87269-1.19578,1.7216-2.40986,2.62354-3.58323
	c0.62923-0.81879,1.32605-1.58601,1.99977-2.37025c0.6922-0.80579,1.39381-1.60355,2.08977-2.40627
	c0.69939-0.80682,1.45574-1.53324,2.3984-2.07386c0.65114-0.37364,1.21742-0.89288,1.83948-1.32118
	c0.27082-0.18656,0.57072-0.37834,0.88398-0.44712c1.28363-0.28211,2.57444-0.53548,3.87005-0.75636
	c0.28057-0.0479,0.63642,0.00479,0.8809,0.145c1.04035,0.59639,2.15221,1.12717,3.04732,1.90226
	c1.00082,0.86678,1.79601,1.97147,2.67897,2.97417c0.03609,0.04089,0.06501,0.09461,0.07938,0.1473
	c0.34473,1.26028,0.97192,2.4398,0.99844,3.79306c0.01694,0.86362,0.15859,1.72417,0.21847,2.58788
	C118.40977,82.17889,118.21098,84.34315,117.78276,86.49665z"/>
<path class="st1" d="M40.92107,56.66579c-0.05032,1.81136,0.27931,3.58174,0.47123,5.36109
	c0.02385,0.22105,0.08571,0.44065,0.15222,0.65399c0.4166,1.33629,0.81681,2.67831,1.26652,4.00347
	c0.48357,1.42496,0.94191,2.86589,1.54652,4.24036c0.64074,1.45657,1.44261,2.84212,2.16988,4.26085
	c0.28051,0.5472,0.5426,1.10387,0.82515,1.64998c0.39827,0.76973,0.78106,1.54923,1.21771,2.29698
	c1.08413,1.85654,2.21017,3.68867,3.2888,5.54835c0.5336,0.91998,0.99329,1.88258,1.49812,2.81956
	c0.5036,0.93474,1.08347,1.83371,1.51964,2.79822c0.71303,1.57674,1.40982,3.16858,1.97589,4.80173
	c0.49228,1.42024,0.84362,2.89562,1.16705,4.36647c0.3602,1.63804,0.65105,3.2935,0.9049,4.95167
	c0.10032,0.65532,0.04177,1.33923,0.01618,2.00861c-0.04247,1.11086-0.23719,2.20921-0.33179,3.31354
	c-0.09777,1.1414-0.51243,2.17587-0.88203,3.22256c-0.33283,0.94255-0.79921,1.83999-1.23564,2.74332
	c-0.41258,0.85399-0.84363,1.70046-1.30502,2.52882c-0.215,0.38603-0.49928,0.74008-0.78948,1.07643
	c-1.0652,1.23462-2.2472,2.34033-3.66645,3.16441c-0.38448,0.22324-0.80951,0.37736-1.19064,0.60545
	c-0.57107,0.34177-1.20183,0.63931-1.661,1.10105c-0.96432,0.9697-1.79224,2.07476-2.75325,3.04813
	c-0.97786,0.99046-2.02168,1.92133-3.0902,2.81419c-0.48708,0.407-1.08617,0.69464-1.66454,0.97418
	c-0.81756,0.39519-1.53719,0.92894-2.1645,1.56009c-0.49968,0.50275-1.11821,0.72501-1.72548,0.99666
	c-0.66047,0.29546-1.32805,0.57588-1.99934,0.84592c-0.38727,0.15579-0.77874,0.34821-1.18448,0.40184
	c-1.05142,0.13898-2.11261,0.20235-3.16838,0.31068c-1.02507,0.10519-2.04596,0.26089-3.07298,0.33398
	c-0.80221,0.05708-1.61115,0.03337-2.41682,0.02318c-0.53122-0.00671-1.06217-0.08102-1.59282-0.07642
	c-1.4676,0.01274-2.87536-0.25003-4.21023-0.86356c-1.09156-0.50171-2.17308-1.02524-3.26339-1.52972
	c-0.43008-0.19899-0.90311-0.32208-1.3018-0.56841c-0.78827-0.487-1.47638-1.09091-1.91837-1.93881
	c-0.09805-0.18808-0.30102-0.32664-0.46947-0.47203c-1.43191-1.23587-2.51786-2.75308-3.6503-4.2547
	c-0.97509-1.29298-1.42846-2.78524-2.03181-4.21282c-0.41579-0.98378-0.56681-2.11198-0.65633-3.19056
	c-0.06823-0.82209-0.21387-1.61271-0.46144-2.3789c-0.47267-1.46284-0.59919-2.94707-0.50879-4.47126
	c0.09624-1.62275,0.2185-3.24806,0.59612-4.825c0.29089-1.21478,0.76137-2.38942,1.19482-3.56613
	c0.27048-0.73429,0.56785-1.46869,0.94841-2.14982c0.46149-0.82597,1.01865-1.59897,1.54317-2.38908
	c0.5383-0.81087,1.07076-1.62642,1.63562-2.41865c0.67846-0.95155,1.14001-2.03564,1.97539-2.89961
	c0.99168-1.02564,1.44993-0.7962,2.5752-0.15407c0.57188,0.32635,1.03959,0.83836,1.54476,1.27751
	c0.40433,0.3515,0.44814,0.5437,0.15354,1.01308c-1.19328,1.90126-1.7606,4.02805-2.23552,6.18474
	c-0.11322,0.51418-0.09413,1.05651-0.15147,1.5842c-0.08755,0.80582-0.19478,1.6095-0.28244,2.41532
	c-0.11154,1.02532-0.23084,2.04956,0.0408,3.07328c0.36568,1.37814,0.68744,2.7684,1.07588,4.13992
	c0.4675,1.65064,1.26998,3.13805,2.236,4.55769c1.31601,1.93396,3.0204,3.42451,4.97299,4.6699
	c0.49182,0.31369,0.93378,0.70461,1.41442,1.03724c0.20398,0.14117,0.43797,0.27682,0.6764,0.32442
	c2.0807,0.41534,4.07845,1.16998,6.23268,1.31048c2.05751,0.13418,4.08992,0.04863,6.08673-0.36803
	c0.85158-0.1777,1.68879-0.51431,2.55125-0.72706c0.32969-0.08131,0.62841-0.35912,0.89923-0.59551
	c1.05915-0.92446,2.19504-1.71442,3.47721-2.31535c1.01687-0.47658,1.67105-1.39959,2.30286-2.2819
	c0.76479-1.06803,1.43018-2.20724,2.13855-3.31566c0.04518-0.07069,0.12442-0.13885,0.13015-0.21268
	c0.13565-1.74809,0.78001-3.41119,0.4999-5.24683c-0.33368-2.18681-0.70089-4.36256-1.21832-6.50783
	c-0.30077-1.247-0.81805-2.44011-1.1839-3.67348c-0.52238-1.76112-1.40568-3.34837-2.26331-4.95351
	c-0.64546-1.20804-1.24031-2.44303-1.86658-3.66146c-0.25529-0.49669-0.52899-0.98417-0.80307-1.47089
	c-0.82168-1.45916-1.65258-2.91312-2.47076-4.37424c-1.0079-1.79993-2.03271-3.59117-2.99934-5.41315
	c-0.56297-1.06113-1.03881-2.16952-1.53072-3.26701c-0.41082-0.91656-0.84556-1.82867-1.16761-2.7774
	c-0.5928-1.74633-1.17711-3.50099-1.63709-5.28513c-0.32657-1.26672-0.52518-2.58067-0.63499-3.88582
	c-0.18083-2.14919-0.19179-4.30391-0.00133-6.4627c0.19515-2.21202,0.64801-4.36935,1.15702-6.5208
	c0.28313-1.1967,0.51058-2.41138,0.87691-3.58236c0.43296-1.38396,0.93658-2.75198,1.5109-4.0832
	c0.33989-0.78784,0.87371-1.49237,1.32396-2.23215c0.26139-0.4295,0.51401-0.8656,0.79868-1.27938
	c0.56916-0.8273,1.15674-1.64196,1.73835-2.46066c1.34434-1.89238,2.67208-3.79697,4.04651-5.66723
	c0.35765-0.4867,0.85775-0.87012,1.30028-1.29275c0.80783-0.7715,1.62865-1.52953,2.43021-2.30744
	c0.50097-0.48619,0.97962-0.99558,1.46298-1.49965c1.18127-1.23184,2.50441-2.21152,4.22692-2.57309
	c0.38924-0.0817,0.75472-0.35484,1.09155-0.59531c2.19172-1.56475,4.44283-3.02131,6.97023-4.00128
	c1.11193-0.43114,2.28116-0.52375,3.4509-0.65387c1.69738-0.18879,3.38729-0.3405,5.09459-0.10189
	c1.49551,0.20901,3.01278,0.29745,4.40813,0.96236c0.15005,0.0715,0.31674,0.11526,0.48036,0.14992
	c1.33333,0.28251,2.46326,0.99845,3.63183,1.65055c2.21158,1.23413,4.1793,2.80968,6.13026,4.39314
	c1.38377,1.12313,2.63083,2.41848,3.90655,3.66993c1.3379,1.31244,2.56253,2.75124,3.98003,3.96776
	c0.91959,0.78921,1.46052,1.81957,2.18826,2.71954c0.94272,1.16582,1.66869,2.50852,2.4705,3.78604
	c0.43101,0.68671,0.35901,0.83221-0.29639,1.36155c-1.08936,0.87982-2.26313,1.6209-3.45463,2.35416
	c-1.20506,0.74159-2.30624,1.65289-3.44659,2.49838c-0.85239,0.63197-2.2133,0.37264-2.75465-0.53737
	c-0.04292-0.07215-0.08408-0.14598-0.1187-0.22237c-1.0523-2.32187-2.5456-4.32428-4.38132-6.08344
	c-1.45306-1.39246-2.91395-2.77783-4.33048-4.20687c-0.73266-0.73913-1.4365-1.51859-2.36999-1.98472
	c-1.06534-0.53198-1.73968-1.54004-2.76586-2.11124c-0.99622-0.55454-1.9308-1.22548-2.94711-1.73665
	c-1.04332-0.52476-2.15279-0.918-3.23331-1.3688c-0.0775-0.03234-0.15237-0.08207-0.23293-0.0943
	c-1.54456-0.23459-3.04574-0.84067-4.61684-0.76108c-1.10064,0.05575-2.23771,0.01387-3.30941,0.41178
	c-0.17091,0.06347-0.38656-0.00562-0.57609,0.02279c-0.24181,0.03623-0.49614,0.0711-0.71331,0.17376
	c-0.60457,0.28582-1.17971,0.63585-1.79082,0.90533c-0.68922,0.30391-1.27276,0.73374-1.6287,1.38587
	c-0.43787,0.80226-1.18868,1.23743-1.87836,1.74036c-1.12962,0.82374-2.21224,1.6895-3.03717,2.8347
	c-0.83096,1.15355-1.69405,2.28643-2.47137,3.47524c-0.48623,0.74362-0.9411,1.53856-1.23255,2.37249
	c-0.6535,1.86993-1.47044,3.69296-1.69641,5.7002c-0.077,0.68397-0.41949,1.33385-0.55635,2.01621
	c-0.23612,1.17727-0.45922,2.36193-0.59081,3.55418C41.1071,53.59801,41.03478,55.13419,40.92107,56.66579z"/>
<path class="st1" d="M169.88652,52.81618c-0.9646-0.14527-1.93105-0.27935-2.89316-0.43954
	c-0.69516-0.11575-1.20265-0.56405-1.70236-1.02153c-1.01662-0.9307-1.94495-1.90239-2.33086-3.29891
	c-0.21327-0.77178-0.55449-1.51788-0.91479-2.23709c-0.57803-1.15379-0.33348-2.3041-0.01787-3.42943
	c0.35422-1.26303,0.86346-2.4578,1.66623-3.54119c0.50174-0.67715,1.04465-1.28212,1.63593-1.87396
	c0.90714-0.90799,1.77437-1.86227,2.59003-2.85331c0.70763-0.85976,1.61427-1.45967,2.4745-2.12535
	c0.3313-0.25638,0.68553-0.48338,1.03166-0.72033c0.64079-0.4387,1.32988-0.53113,2.08156-0.33344
	c0.50925,0.13393,1.03729,0.19468,1.55075,0.31467c0.45982,0.10745,0.95946,0.1667,1.35745,0.39426
	c1.32733,0.75892,2.76543,1.37126,3.78773,2.57695c1.66618,1.9651,2.79427,4.11531,2.25594,6.81055
	c-0.14775,0.73964-0.34091,1.47038-0.48183,2.21119c-0.22658,1.19133-1.04132,1.84093-2.03961,2.38109
	c-0.65927,0.35672-1.29761,0.77683-1.8763,1.25251c-1.16435,0.95707-2.27831,1.97528-3.4196,2.96066
	c-0.57027,0.4924-1.15619,0.96666-1.73271,1.45187c-0.25656,0.21592-0.55934,0.40115-0.75043,0.66581
	c-0.44542,0.61699-1.02809,0.81808-1.75172,0.73732c-0.16591-0.01851-0.33565-0.00272-0.50363-0.00272
	C169.89778,52.73623,169.89217,52.77621,169.88652,52.81618z"/>
</svg>
