<?xml version="1.0" encoding="utf-8"?>
<!-- Generator: Adobe Illustrator 25.4.1, SVG Export Plug-In . SVG Version: 6.00 Build 0)  -->
<svg version="1.1" id="Layer_1" xmlns="http://www.w3.org/2000/svg" xmlns:xlink="http://www.w3.org/1999/xlink" x="0px" y="0px"
	 viewBox="0 0 805.95288 188.99892" style="enable-background:new 0 0 805.95288 188.99892;" xml:space="preserve">
<style type="text/css">
	.st0{fill:#EFEDE6;}
	.st1{fill:#EFEDE5;}
	.st2{fill:#B48039;}
	.st3{fill:#AD8246;}
	.st4{fill:none;stroke:#B48039;stroke-width:0.99892;stroke-miterlimit:10;}
	.st5{fill:#FF00FF;}
	.st6{fill:#00FFFF;}
	.st7{fill:#606060;}
	.st8{fill:#A7834F;}
</style>
<g>
	<path class="st2" d="M224.30682,111.50146c-0.2701,0.25945-0.57501,0.49181-0.80269,0.78429
		c-0.40933,0.52581-0.70131,1.16022-1.16989,1.61894c-0.88768,0.869-1.38304,2.01082-2.20175,2.92847
		c-0.77455,0.86817-1.40994,1.85984-2.11679,2.78939c-0.40233,0.5291-0.82089,1.04607-1.24014,1.56203
		c-0.33142,0.4079-0.67491,0.80598-1.01324,1.20827c-0.66281,0.78812-1.30554,1.59428-1.99324,2.36006
		c-1.11276,1.23914-2.22414,2.48246-3.397,3.66354c-0.66452,0.66917-1.41199,1.27386-2.19069,1.80753
		c-1.14542,0.78502-2.3445,1.49321-3.53455,2.2112c-1.69177,1.02074-3.49146,1.06653-5.32997,0.49603
		c-0.30048-0.09322-0.57425-0.32263-0.81796-0.53728c-0.39716-0.34975-0.81436-0.69843-1.12645-1.11925
		c-1.12654-1.51891-2.28082-3.02475-3.28822-4.6216c-0.58894-0.93357-0.9189-2.0305-1.36559-3.05386
		c-0.64915-1.48723-1.09633-3.03883-1.4137-4.62492c-0.25221-1.26054-0.38039-2.53557-0.21928-3.82576
		c0.03055-0.24461-0.02637-0.49911-0.02943-0.7492c-0.00516-0.41708-0.04082-0.83934,0.00923-1.25053
		c0.16856-1.38493,0.34785-2.76933,0.56552-4.14722c0.13496-0.8543,0.31538-1.70455,0.5311-2.54228
		c0.38205-1.48373,0.7813-2.96409,1.22081-4.43165c0.39198-1.30892,0.85394-2.59675,1.27446-3.8973
		c0.54088-1.67284,1.11485-3.33663,1.59694-5.02647c0.98692-3.45931,1.91299-6.93595,2.88533-10.39951
		c0.22575-0.80413,0.50508-1.59707,0.8176-2.37183c0.28226-0.69982,0.54016-1.39475,0.67926-2.14323
		c0.21906-1.17846,0.51407-2.34259,0.75833-3.51665c0.1633-0.78491,0.04262-1.55424-0.1741-2.3179
		c-0.18498-0.65179-0.60672-0.98001-1.26949-1.01925c-0.30692-0.01817-0.61494-0.01933-0.92152-0.04138
		c-1.69662-0.12206-3.3929-0.24931-5.08949-0.3717c-0.25034-0.01806-0.50203-0.01665-0.75284-0.02948
		c-0.64603-0.03304-1.05141,0.177-1.35449,0.83762c-0.46246,1.00792-1.1207,1.9245-1.66896,2.89503
		c-0.49309,0.8729-0.9579,1.76212-1.4211,2.65148c-0.69623,1.33678-1.38374,2.67816-2.06693,4.02168
		c-0.17661,0.34732-0.35262,0.69999-0.47665,1.06783c-0.18117,0.53738-0.39665,1.04124-0.81888,1.44093
		c-0.11755,0.11131-0.19766,0.26989-0.27155,0.41842c-0.83269,1.67428-1.63683,3.36336-2.50235,5.02039
		c-0.3317,0.63503-0.80136,1.1979-1.20686,1.79452c-0.07809,0.11493-0.1947,0.22575-0.21808,0.3524
		c-0.24052,1.30327-1.15814,2.27679-1.66676,3.44921c-0.34283,0.79025-0.78438,1.53997-1.09441,2.34161
		c-0.41969,1.08524-1.09978,1.98736-1.7663,2.91967c-0.54454,0.76168-0.93932,1.63168-1.38776,2.46053
		c-0.64757,1.1969-1.14719,2.47012-2.0854,3.50765c-0.83911,0.92794-1.61884,1.91801-1.95653,3.17223
		c-0.04741,0.17603-0.21585,0.31729-0.31708,0.48154c-0.13057,0.21191-0.2757,0.42018-0.36928,0.64858
		c-0.306,0.74686-0.61488,1.49403-0.87862,2.25635c-0.29312,0.8473-0.80133,1.53723-1.47879,2.09427
		c-1.01239,0.83244-1.69707,1.90763-2.38762,2.99507c-0.3837,0.60426-0.83832,1.18317-1.35091,1.68088
		c-0.64383,0.62511-1.26808,1.24453-1.75955,2.00751c-0.36014,0.55916-0.82375,1.05483-1.26521,1.55777
		c-0.77136,0.87875-1.68965,1.65905-2.31171,2.63082c-0.8362,1.3063-2.1302,2.21764-2.87704,3.57783
		c-0.07692,0.14006-0.21744,0.2617-0.35558,0.34895c-0.83409,0.52681-1.46596,1.26173-2.09679,1.99979
		c-0.07199,0.08421-0.15631,0.16054-0.24464,0.22775c-0.79929,0.60817-1.58698,1.23297-2.40672,1.81236
		c-0.49353,0.34883-0.96794,0.76685-1.65152,0.7368c-0.17014-0.00748-0.34122,0.16943-0.52283,0.22685
		c-0.39395,0.12456-0.79207,0.30841-1.1937,0.32285c-1.28438,0.04617-2.57115,0.03134-3.85698,0.02985
		c-0.90057-0.00107-1.66638-0.33533-2.38969-0.87625c-1.42308-1.0643-2.48204-2.42259-3.21724-4.0074
		c-0.44165-0.95204-0.68542-1.99684-1.00377-3.00449c-0.09201-0.29121-0.09274-0.61497-0.20613-0.89514
		c-0.7899-1.95177-0.87422-4.02548-1.06638-6.07908c-0.08025-0.85703-0.14749-1.72022-0.13525-2.57941
		c0.0098-0.68828,0.15018-1.37455,0.22987-2.06203c0.28279-2.43846,0.50499-4.88613,1.13876-7.27005
		c0.0715-0.26891,0.13661-0.54932,0.13925-0.82504c0.01009-1.04904,0.38135-2.00881,0.68697-2.98752
		c0.15807-0.50615,0.28027-1.0235,0.41811-1.53593c0.26785-0.99566,0.53787-1.99074,0.80104-2.98764
		c0.06024-0.22834,0.0965-0.46301,0.14378-0.69476c-0.05798-0.03419-0.11598-0.06837-0.17397-0.10257
		c-0.28951,0.31497-0.56691,0.64217-0.87079,0.94258c-0.8485,0.83871-1.70419,1.67024-2.56453,2.4968
		c-0.48088,0.46202-0.978,0.9071-1.46443,1.36343c-0.0809,0.07587-0.13243,0.18523-0.21786,0.25377
		c-1.06186,0.85184-2.11192,1.7196-3.1976,2.54016c-0.73184,0.55315-1.58031,0.96465-2.26218,1.56867
		c-1.42358,1.26111-3.17126,1.82698-4.8979,2.43356c-1.25782,0.44186-2.5538,0.77836-3.84139,1.1302
		c-0.37593,0.10272-0.66666,0.26657-0.86871,0.59436c-0.50978,0.82684-1.02078,1.65292-1.53156,2.47916
		c-0.02925,0.04734-0.05608,0.09735-0.09213,0.13913c-1.27305,1.4754-2.55526,2.94302-3.81705,4.42798
		c-0.52277,0.6152-0.963,1.30374-1.51198,1.89252c-0.56856,0.60973-1.21818,1.14482-1.84222,1.70148
		c-0.47894,0.42722-0.97581,0.83423-1.46011,1.25552c-1.05118,0.91447-2.07401,1.86413-3.16158,2.73286
		c-0.42477,0.33928-0.96965,0.60445-1.49972,0.71954c-1.05125,0.22824-1.84505,0.91288-2.75696,1.38232
		c-1.28696,0.66252-2.55014,1.37137-3.82239,2.06239c-0.22097,0.12001-0.43873,0.24637-0.65446,0.37563
		c-2.04408,1.22478-4.19463,2.19077-6.52827,2.72542c-0.46139,0.10571-0.90572,0.28436-1.36096,0.4191
		c-0.21255,0.06293-0.43099,0.1367-0.64912,0.14534c-2.11024,0.08354-4.12432-0.34085-5.97957-1.33745
		c-2.12127-1.13951-3.74866-2.79697-4.75725-5.00604c-0.50978-1.11657-0.9542-2.26288-1.43564-3.39256
		c-0.08119-0.19059-0.20006-0.36513-0.43347-0.7838c-0.11117,0.26185-0.15523,0.36588-0.19945,0.46986
		c-0.58707,1.38013-1.27631,2.71806-1.65951,4.18122c-0.25763,0.98372-0.6844,1.85483-1.45477,2.58951
		c-0.39242,0.37425-0.58622,1.00517-0.7562,1.55518c-0.51023,1.65088-0.93859,3.32706-1.44695,4.97855
		c-0.71494,2.32262-1.44428,4.64163-2.22049,6.94432c-0.83747,2.48465-1.7249,4.95273-2.61116,7.42062
		c-0.83025,2.31201-1.72606,4.60115-2.52013,6.92528c-0.588,1.72099-1.32698,3.37091-2.03701,5.03964
		c-0.42344,0.99525-0.72261,2.04349-1.25352,3.00279c-0.32066,0.57935-0.54668,1.21049-0.83013,1.81134
		c-0.08116,0.1721-0.22823,0.31203-0.32064,0.48013c-0.22601,0.41116-0.45191,0.82344-0.65218,1.24744
		c-0.38913,0.82393-0.84117,1.51889-1.81565,1.81328c-1.6563,0.50032-3.27672,1.11882-4.91707,1.67329
		c-0.286,0.09666-0.61081,0.21228-0.89188,0.16515c-0.91873-0.15416-1.67453,0.19698-2.29541,0.77165
		c-0.43108,0.39896-0.89259,0.43321-1.38343,0.42093c-0.59532-0.01488-0.80438-0.38437-0.58303-0.95532
		c0.66503-1.71532,1.18657-3.48482,2.09983-5.10553c0.36307-0.64433,0.50016-1.41414,0.75836-2.12016
		c0.16161-0.44185,0.36108-0.86967,0.53627-1.30673c0.15516-0.38699,0.30138-0.77759,0.44952-1.16736
		c0.99192-2.61002,1.99115-5.21729,2.97202-7.83145c0.6169-1.64407,1.21446-3.29553,1.80544-4.94914
		c0.7603-2.12724,1.5167-4.25603,2.25219-6.39194c0.39064-1.13448,0.72916-2.28682,1.09905-3.42857
		c0.50746-1.5665,1.03542-3.1265,1.52895-4.69734c0.27505-0.87543,0.48186-1.77213,0.7491-2.65021
		c0.27578-0.90613,0.60572-1.79581,0.88005-2.70233c0.75266-2.48712,1.48697-4.97977,2.23179-7.46927
		c0.44021-1.47134,0.90334-2.93602,1.32639-4.41224c0.7066-2.46586,1.38354-4.9402,2.0845-7.4077
		c0.37364-1.31522,0.78883-2.61877,1.15426-3.93619c0.57448-2.07118,1.11538-4.15165,1.68504-6.22417
		c0.32508-1.18263,0.67847-2.35749,1.02004-3.53558c0.65984-2.27586,1.41862-4.52864,1.95522-6.83318
		c0.64705-2.77875,1.46865-5.49846,2.34957-8.20575c0.47494-1.45956,0.90259-2.93565,1.41724-4.3809
		c0.98488-2.7658,1.73518-5.59763,2.44423-8.44109c0.37772-1.51471,0.67351-3.04968,1.03615-4.56838
		c0.15955-0.66825,0.50596-1.25832,1.12984-1.59309c1.27604-0.68471,2.56527-1.34587,3.86188-1.99096
		c0.94619-0.47076,1.93076-0.86618,2.86591-1.35679c1.17228-0.61502,1.61996-0.2577,2.25403,0.50198
		c0.43193,0.51751,0.64334,1.22486,0.92659,1.85926c0.40726,0.91207,0.27579,1.88584,0.11622,2.80024
		c-0.24895,1.4267-0.61553,2.83952-1.03003,4.22906c-0.58199,1.95112-1.24711,3.87766-1.88911,5.81057
		c-0.41271,1.24248-0.86812,2.47108-1.26373,3.7188c-0.18092,0.5707-0.26389,1.17246-0.41674,1.87755
		c0.70885-0.41655,1.0613-0.98922,1.4732-1.50132c0.10334-0.12852,0.14729-0.32043,0.2708-0.41478
		c1.44159-1.10128,2.33991-2.69547,3.60371-3.95238c0.88802-0.88316,1.85612-1.6859,2.79066-2.52209
		c0.16615-0.14867,0.35348-0.27452,0.51337-0.42917c1.7878-1.72933,3.79608-3.1907,5.77657-4.67835
		c1.62544-1.22097,3.30669-2.37791,5.03248-3.45187c1.4155-0.88085,2.93442-1.59515,4.40491-2.38804
		c2.25957-1.21836,4.71713-1.52366,7.22329-1.47755c2.12553,0.03911,3.98061,0.78399,5.65535,2.1709
		c2.3558,1.95094,3.68758,4.5048,4.73157,7.27179c0.285,0.75534,0.5848,1.52118,0.72948,2.30943
		c0.19066,1.03884,0.2912,2.10242,0.33125,3.15913c0.1058,2.79166,0.17009,5.58415-0.37454,8.35065
		c-0.25874,1.31425-0.42133,2.64819-0.70343,3.95686c-0.30498,1.41471-0.65144,2.82437-1.06518,4.21076
		c-0.54228,1.81721-1.18579,3.60398-1.74913,5.41525c-0.21893,0.70385-0.51453,1.40747-0.45895,2.24763
		c1.40318-0.30728,2.72563-0.61756,3.93208-1.26891c1.2262-0.66199,2.45758-1.32294,3.63051-2.0723
		c0.9799-0.62606,1.8938-1.35986,2.80937-2.08097c1.09552-0.86285,2.28149-1.65368,3.21185-2.67319
		c1.30704-1.43227,2.82343-2.70349,3.75063-4.46594c0.95918-1.8232,1.94945-3.63013,2.93637-5.43859
		c0.42725-0.78293,0.86559-1.56062,1.32474-2.32516c0.77821-1.29582,1.36852-2.67007,1.86617-4.09627
		c0.41237-1.18178,0.9225-2.32946,1.38953-3.49216c0.01039-0.02589,0.024-0.05051,0.03471-0.0763
		c0.53387-1.28561,0.97559-2.62037,1.62756-3.84298c0.63664-1.19385,0.93968-2.59084,2.01811-3.53517
		c0.37645-0.32964,0.75186-0.66143,1.11154-1.00903c0.69791-0.67441,1.38383-1.3612,2.07635-2.04121
		c0.05888-0.05782,0.12395-0.11469,0.1963-0.15263c0.72412-0.37971,1.32759-0.90343,1.90326-1.48198
		c0.61989-0.62299,0.78961-0.58878,1.55121-0.07876c0.34224,0.22918,0.7132,0.42789,1.09427,0.58394
		c0.67007,0.2744,0.96268,0.89785,1.38913,1.4012c0.3372,0.39801,0.34094,0.80548,0.08868,1.23818
		c-0.47728,0.81873-0.88396,1.69099-1.45197,2.44104c-0.58887,0.77761-0.92894,1.65073-1.28596,2.52583
		c-0.56961,1.39613-1.1073,2.80527-1.66113,4.20786c-0.41902,1.06113-0.84418,2.11983-1.26181,3.1815
		c-0.08156,0.20737-0.16252,0.41898-0.20753,0.63614c-0.43396,2.09426-1.48904,3.95737-2.2287,5.93718
		c-0.61121,1.636-1.48982,3.17128-2.1181,4.80197c-0.57144,1.4832-1.05589,2.9988-1.77229,4.42398
		c-0.07491,0.14902-0.16678,0.31112-0.17235,0.46991c-0.03867,1.10037-0.68707,1.99385-0.99286,3.00127
		c-0.3887,1.28057-0.74393,2.57135-1.11055,3.85858c-0.42731,1.50024-0.85049,3.00163-1.27754,4.50194
		c-0.07646,0.26859-0.2135,0.53001-0.23671,0.80206c-0.16306,1.91191-0.81044,3.7623-0.66071,5.72057
		c0.04715,0.6166-0.27687,1.25401-0.28778,1.88437c-0.01776,1.02897,0.09094,2.05962,0.13002,3.09019
		c0.05635,1.48655,0.39041,2.90925,0.75122,4.3525c0.31491,1.25962,0.96265,2.37425,1.25717,3.62483
		c0.14439,0.61312,0.61646,0.92197,1.23148,0.96597c0.58493,0.04185,1.17322,0.05936,1.75945,0.04996
		c0.24368-0.00392,0.50874-0.0602,0.72496-0.16982c1.62117-0.82191,3.1783-1.73747,4.3557-3.17107
		c0.07088-0.08627,0.12273-0.20914,0.21365-0.25476c1.0708-0.53733,1.7227-1.49428,2.3726-2.42822
		c0.88879-1.27723,2.20558-2.19517,2.93364-3.60724c0.42082-0.81617,0.91837-1.59475,1.41158-2.37106
		c0.58284-0.91736,1.21207-1.80524,1.79567-2.72212c0.59763-0.93888,1.2522-1.85644,1.71994-2.85886
		c0.46472-0.9959,1.00005-1.92789,1.69586-2.76406c0.60292-0.72456,0.97057-1.56285,1.30975-2.42106
		c0.39955-1.01093,0.81078-2.00101,1.40984-2.93062c0.53711-0.83349,0.82469-1.82424,1.26488-2.72484
		c0.38779-0.79333,0.71031-1.61748,1.32477-2.2983c0.52156-0.57787,0.86607-1.2658,1.03915-2.06794
		c0.30547-1.41566,1.22163-2.55488,1.91014-3.79618c0.18706-0.33725,0.36301-0.69197,0.47025-1.06015
		c0.41022-1.4084,1.18781-2.64374,1.80659-3.95415c0.46324-0.98095,0.85144-1.99714,1.30658-2.98215
		c0.23262-0.50342,0.50041-1.0001,0.82054-1.45143c0.54005-0.76145,0.95212-1.5727,1.22864-2.46356
		c0.10632-0.34262,0.28601-0.66492,0.45285-0.98579c0.30797-0.59232,0.66505-1.16133,0.94063-1.7678
		c0.51822-1.14037,0.93356-2.33081,1.50166-3.44431c0.63737-1.24931,1.19405-2.54855,2.26437-3.55171
		c0.87115-0.81651,1.68277-1.71996,2.39215-2.67991c0.94267-1.27564,2.21992-1.60691,3.67078-1.55659
		c2.00687,0.06961,4.01215,0.1846,6.0182,0.2783c0.52838,0.02468,1.05099,0.07338,1.56374-0.16634
		c0.21001-0.09818,0.48944-0.04378,0.7364-0.06794c0.46953-0.04596,0.93863-0.09674,1.40752-0.14906
		c0.22076-0.02463,0.44324-0.09486,0.66043-0.07971c0.69582,0.04854,1.39044,0.11922,2.08383,0.19658
		c0.75865,0.08466,1.45238,0.29805,2.04533,0.83819c0.32043,0.29189,0.8096,0.39522,1.14134,0.67876
		c0.65257,0.55776,1.30807,1.13203,1.8564,1.78805c1.57639,1.88593,1.53371,4.05313,0.9455,6.27872
		c-0.37746,1.4281-0.78215,2.84908-1.18364,4.27069c-0.07501,0.26562-0.17166,0.52971-0.29456,0.77645
		c-0.46315,0.92999-0.78412,1.90166-1.02766,2.91397c-0.17473,0.72623-0.51245,1.41298-0.77319,2.11893
		c-0.10609,0.28728-0.26122,0.57269-0.291,0.86929c-0.19992,1.99017-0.96478,3.82343-1.55199,5.70564
		c-0.24094,0.77232-0.51524,1.53417-0.7614,2.30492c-0.30344,0.9501-0.52545,1.92404-1.04651,2.80026
		c-0.23798,0.40019-0.39066,0.87121-0.48987,1.33002c-0.28365,1.31178-1.174,2.40119-1.33037,3.76379
		c-0.04573,0.39844-0.34352,0.76123-0.45264,1.16034c-0.36057,1.31882-0.83299,2.62984-0.99001,3.97564
		c-0.18617,1.59566-0.66617,3.16478-0.52107,4.80093c0.03387,0.38185-0.09752,0.77546-0.11266,1.16521
		c-0.0215,0.55379-0.05576,1.11446,0.00363,1.66264c0.16582,1.53059,0.47215,3.04023,1.03349,4.47539
		c0.51685,1.32143,1.04337,2.65139,1.71922,3.89405c0.47258,0.8689,1.20108,1.59928,1.82106,2.38696
		c0.22182,0.28181,0.48082,0.32059,0.812,0.14563c0.78847-0.41656,1.64217-0.72957,2.37773-1.22162
		c1.10774-0.74102,2.14989-1.58313,3.19463-2.41409c0.54361-0.43238,1.04703-0.91866,1.54315-1.40649
		c0.55603-0.54672,1.08594-1.12019,1.62093-1.68795c0.11365-0.12063,0.1725-0.30876,0.3033-0.39494
		c1.42488-0.93885,2.17921-2.4376,3.1324-3.76289c0.77708-1.08041,1.5278-2.18822,2.18701-3.34282
		c0.8138-1.4254,1.5069-2.91918,2.27829-4.36951c0.61491-1.15608,1.29832-2.27631,1.89554-3.44105
		c0.40649-0.7928,0.71597-1.63528,1.07019-2.45496c0.59589-1.3789,1.18721-2.75982,1.79346-4.13416
		c0.14572-0.33034,0.33553-0.64219,0.51689-0.95569c0.78516-1.35699,1.39371-2.79212,1.97319-4.24722
		c0.3791-0.95194,0.90881-1.84366,1.36485-2.76543c0.086-0.17381,0.16776-0.35666,0.20877-0.54465
		c0.24615-1.1284,0.79008-2.14029,1.25124-3.18152c1.06975-2.41544,2.19926-4.80465,3.24989-7.2282
		c0.49849-1.14988,0.87155-2.35413,1.30194-3.53357c0.37279-1.02153,0.64218-2.09821,1.14822-3.04887
		c0.52393-0.98427,1.0865-1.96381,2.12219-2.61407c0.8131-0.51051,1.46527-1.28109,2.17577-1.95011
		c0.62854-0.59185,1.21564-1.22956,1.86441-1.7975c0.55893-0.48928,0.65022-0.44561,1.2222-0.02913
		c0.28993,0.2111,0.61491,0.37998,0.93904,0.53704c0.80431,0.38974,1.41425,0.97414,1.86601,1.7427
		c0.20724,0.35258,0.17686,0.67183,0.02586,1.03368c-0.49329,1.18211-0.95645,2.37678-1.44659,3.56023
		c-0.19225,0.46415-0.4496,0.90175-0.63498,1.36826c-0.46323,1.16564-0.89178,2.34503-1.35381,3.51116
		c-0.47166,1.19045-0.99042,2.36263-1.44577,3.55908c-0.65405,1.71852-1.2636,3.45392-1.90388,5.17775
		c-0.27063,0.72865-0.49971,1.48619-0.87614,2.15868c-0.47063,0.84074-0.70476,1.74718-1.01805,2.63928
		c-0.6824,1.94308-1.03204,3.99368-1.95535,5.86106c-0.35603,0.72012-0.55165,1.52023-0.81218,2.28667
		c-0.23329,0.68627-0.43439,1.38413-0.68599,2.06342c-1.08147,2.91957-1.51721,5.99374-2.22348,9.0045
		c-0.35287,1.50426-0.39648,3.04256-0.74983,4.52302c-0.36743,1.53945-0.32149,3.06084-0.10158,4.57285
		c0.15327,1.05405,0.51147,2.09724,0.91351,3.0905c0.35323,0.87272,0.86899,1.68498,1.36339,2.49309
		c0.25841,0.42236,0.62126,0.78181,0.94554,1.16234c0.10789,0.12659,0.26996,0.21202,0.36076,0.34743
		c1.09122,1.62714,2.69064,1.77114,4.42491,1.53215c0.22086-0.03044,0.44228-0.08769,0.66278-0.08467
		c1.32784,0.01818,2.44415-0.58447,3.4693-1.30296c1.27855-0.8961,2.48491-1.89845,3.69171-2.89223
		c0.53499-0.44054,1.03685-0.93751,1.47981-1.47034c0.99606-1.19816,1.94655-2.43425,2.91405-3.65613
		c0.15601-0.19702,0.29985-0.40368,0.45668-0.6c0.61081-0.76463,1.1275-1.57986,1.5854-2.4525
		c0.72472-1.3811,1.59386-2.68564,2.34911-4.05177c0.40167-0.72659,0.69269-1.51439,1.03244-2.27509
		c0.02261-0.05069,0.0278-0.10966,0.0531-0.15859c0.79242-1.53344,1.60013-3.05919,2.37384-4.60199
		c0.3493-0.69656,0.63226-1.42647,0.94382-2.14191c0.38959-0.89465,0.76538-1.79553,1.16953-2.68354
		c0.46164-1.01438,0.92487-2.02932,1.43152-3.0215c0.34085-0.6675,0.82214-1.26701,1.12973-1.94709
		c1.02142-2.25858,1.99231-4.54,2.9838-6.81213c0.08932-0.20468,0.15631-0.42858,0.2865-0.60442
		c0.87924-1.18745,1.26022-2.60589,1.85507-3.92558c0.36548-0.81082,0.81943-1.5814,1.19885-2.38645
		c0.21045-0.44654,0.36304-0.92233,0.51718-1.39297c0.21558-0.65829,0.41107-1.32323,0.60907-1.98715
		c0.06131-0.20557,0.10281-0.41706,0.16327-0.66665c-0.21793-0.04988-0.37427-0.11429-0.53174-0.11722
		c-1.36511-0.02541-2.73245,0.00082-4.09518-0.06743c-1.80499-0.09041-3.62146,0.00534-5.41339-0.35194
		c-0.50879-0.10145-1.05237-0.0162-1.57812-0.04783c-0.71906-0.04324-1.47046-0.00158-2.14651-0.20286
		c-1.08563-0.3232-1.25552-1.05273-0.66135-2.01851c0.37851-0.61526,0.77338-1.24596,1.00003-1.92355
		c0.40533-1.21161,1.16306-2.21614,1.76276-3.31241c0.17349-0.31715,0.42575-0.59049,0.60825-0.90353
		c0.49057-0.84146,1.24417-1.25989,2.18292-1.33748c1.25095-0.10339,2.50314-0.22935,3.75742,0.02782
		c0.34912,0.07159,0.72479,0.00773,1.08792,0.01825c1.58954,0.04607,3.17908,0.13538,4.76837,0.13066
		c0.91623-0.00272,1.83124-0.16459,2.74826-0.23593c0.55484-0.04317,1.11551-0.09554,1.66803-0.05939
		c0.45938,0.03006,0.73663-0.10493,0.93591-0.51642c0.31546-0.65138,0.68384-1.27713,0.99915-1.92858
		c1.11823-2.31043,2.30469-4.58599,3.40402-6.90788c1.27588-2.69478,2.87564-5.23584,4.32266-7.85036
		c0.2001-0.36153,0.32022-0.7664,0.495-1.14301c0.65649-1.41453,1.30737-2.83194,1.98804-4.23485
		c0.2543-0.52415,0.59747-1.0044,0.87753-1.51703c0.73517-1.34576,1.457-2.69881,2.186-4.04796
		c0.30432-0.56324,0.57013-1.1536,0.93033-1.67889c0.53531-0.78061,1.13962-1.51383,1.71313-2.26832
		c0.28699-0.37755,0.60916-0.73518,0.84616-1.14217c0.28607-0.49133,0.73306-0.75609,1.19781-1.01078
		c0.40665-0.22284,0.82806-0.15949,1.20172,0.06528c0.4744,0.28537,0.96716,0.37547,1.51669,0.3772
		c0.85651,0.0027,1.19357,0.56995,0.86481,1.3487c-0.27139,0.64289-0.62198,1.26858-0.78143,1.93901
		c-0.30807,1.29522-0.50909,2.61607-0.74579,3.92787c-0.02933,0.16259-0.05023,0.34964,0.00027,0.50005
		c0.39426,1.17348-0.08759,2.23087-0.53284,3.23199c-0.79187,1.78054-1.72214,3.49939-2.58878,5.24689
		c-0.39606,0.79863-0.78812,1.59952-1.16507,2.40728c-0.93143,1.99595-1.82773,4.00878-2.79031,5.98948
		c-0.42435,0.8732-1.00916,1.66723-1.45865,2.52975c-0.3989,0.76536-0.65607,1.60652-1.07498,2.35901
		c-0.62531,1.12318-0.79254,2.44536-1.57147,3.49445c-0.16022,0.21579-0.30225,0.44509-0.48746,0.71981
		c0.6882,0.32248,1.33563,0.33588,1.95886,0.33871c1.73047,0.00787,3.46121-0.06457,5.19186-0.06407
		c1.92422,0.00055,3.84842,0.06267,5.77267,0.0643c0.69598,0.00059,1.39197-0.09732,2.0881-0.14826
		c0.44586-0.03262,0.89801-0.02567,1.33673-0.09946c0.96219-0.16185,1.67102,0.40488,2.38281,0.85667
		c0.72516,0.46029,0.6835,0.98549,0.13898,1.67496c-0.75745,0.95908-1.45273,1.967-2.18893,2.94321
		c-0.452,0.5993-0.93573,1.17455-1.39615,1.76764c-0.52954,0.68208-1.06998,1.3573-1.56409,2.06455
		c-0.24667,0.35304-0.56464,0.45094-0.93726,0.42017c-0.75958-0.06274-1.49524-0.04336-2.22501,0.23855
		c-0.29996,0.11588-0.66223,0.08427-0.99689,0.09341c-0.63535,0.01737-1.27682-0.03498-1.90543,0.03473
		c-0.80896,0.08971-1.60562,0.15893-2.41422,0.00558c-0.27036-0.05126-0.56152-0.0444-0.83652-0.01031
		c-1.00607,0.12474-1.99615,0.13712-2.99637-0.10867c-0.35104-0.08626-0.75839,0.07391-1.14151,0.09729
		c-0.82135,0.05011-1.61053,0.37112-2.46771,0.17824c-0.53198-0.11971-1.10571-0.05746-1.66086-0.06944
		c-0.43991-0.0095-0.72885,0.18119-0.88965,0.61275c-0.26263,0.70483-0.47302,1.45216-0.8671,2.08012
		c-0.80826,1.28793-1.04684,2.79134-1.71432,4.13574c-0.80319,1.61768-1.41769,3.3297-2.09531,5.00838
		c-0.12332,0.30551-0.13065,0.65614-0.23758,0.97025c-0.40408,1.18703-0.84442,2.36189-1.23639,3.55276
		c-0.22598,0.68657-0.37201,1.39907-0.57916,2.09237c-0.14197,0.47516-0.35635,0.92942-0.48727,1.40701
		c-0.30212,1.10213-0.66699,2.19878-0.8349,3.32327c-0.25473,1.7056-0.36386,3.43294-0.53485,5.15105
		c-0.00552,0.05565-0.01477,0.11124-0.01578,0.16698c-0.04214,2.33891-0.11288,4.67782-0.11417,7.01676
		c-0.00076,1.42362,0.07892,2.84912,0.17606,4.27013c0.04532,0.66291,0.20877,1.31885,0.33475,1.97487
		c0.17892,0.93171,0.28668,1.88879,0.58054,2.78394c0.4238,1.29105,0.95554,2.55327,1.85046,3.6145
		c0.37787,0.44807,0.73206,0.9239,1.1593,1.31985c0.29269,0.27123,0.66916,0.51593,1.04953,0.61717
		c1.3399,0.35666,2.7059,0.24076,4.07373,0.1466c1.62387-0.11179,3.03714-0.88367,4.54782-1.34849
		c0.0777-0.02391,0.14774-0.07815,0.21634-0.12551c0.96252-0.66451,1.92557-1.32823,2.88477-1.99752
		c0.18164-0.12674,0.37842-0.25149,0.51456-0.4204c0.72363-0.89783,1.61795-1.6013,2.50018-2.3306
		c0.41382-0.34208,0.72354-0.85851,0.96408-1.35258c0.70758-1.45324,1.35666-2.93497,2.02957-4.40511
		c0.04639-0.10137,0.07574-0.22936,0.15472-0.29416c1.02261-0.83926,1.51306-2.13792,2.63712-2.92424
		c0.58313-0.40794,0.91434-1.17743,1.35464-1.78698c0.09781-0.13543,0.17041-0.2888,0.26398-0.42761
		c0.55618-0.82523,1.15598-1.02274,1.99341-0.49329c0.72266,0.45689,1.40234,1.00854,2.01401,1.6072
		c0.71356,0.69838,0.6871,0.8957,0.22208,1.76305c-1.17355,2.18886-2.40948,4.33817-3.76797,6.4213
		c-0.56491,0.86628-1.21231,1.67397-1.76065,2.53405c-1.14972,1.80331-2.84799,3.03162-4.31964,4.49625
		c-0.96741,0.96278-1.96072,1.90003-2.95734,2.8328c-0.91272,0.85428-1.9104,1.62822-2.74716,2.54968
		c-0.58575,0.64501-1.32126,0.98936-2.00644,1.45014c-0.66711,0.44862-1.30713,0.94386-1.92105,1.46353
		c-0.711,0.6019-1.44754,1.10512-2.37622,1.34193c-0.80664,0.20573-1.58762,0.52451-2.36349,0.8345
		c-0.633,0.2529-1.26447,0.42757-1.95419,0.36066c-0.21689-0.02103-0.44415,0.01344-0.66113,0.05299
		c-1.77576,0.32372-3.54727,0.36134-5.29468-0.14423c-1.5954-0.46161-2.84647-1.50017-4.06189-2.56731
		c-0.56107-0.49261-1.05997-1.04243-1.44034-1.71918c-0.36359-0.64695-0.92542-1.17937-1.35532-1.79348
		c-0.23547-0.3364-0.37811-0.73773-0.56299-1.1096c-0.55182-1.10999-0.85458-2.29047-0.99582-3.51672
		c-0.00317-0.02774-0.00635-0.05615-0.01492-0.08249c-0.82065-2.51405-0.65305-5.14008-0.85663-7.72243
		c-0.05869-0.74429,0.0459-1.50096,0.06552-2.25223c0.0058-0.22198-0.02667-0.44473-0.03513-0.66737
		c-0.02426-0.63689-0.04092-1.2741-0.06854-1.91084c-0.0361-0.83248-0.0798-1.66463-0.12036-2.49693
		c-0.01587-0.32563-0.03207-0.65126-0.05685-1.15443c-0.25986,0.20578-0.49042,0.29556-0.55029,0.45106
		c-0.35193,0.91378-1.0809,1.55132-1.67001,2.28009c-0.49414,0.61124-0.79715,1.27324-0.97623,2.01067
		c-0.15591,0.64203-0.45013,1.17458-0.9303,1.64849c-0.65341,0.64488-1.26215,1.33474-1.44647,2.30161
		c-0.10522,0.5521-0.43988,0.97529-0.84567,1.40041c-0.82651,0.86595-1.55371,1.82984-2.2879,2.77963
		c-0.44043,0.56978-0.85562,1.1435-1.37828,1.65706c-0.73256,0.71983-1.39761,1.52571-1.99147,2.36555
		c-1.09265,1.5453-2.17,3.09374-3.51843,4.43731c-0.43063,0.42908-0.7417,0.97649-1.16103,1.41901
		c-0.57388,0.60565-1.16554,1.20366-1.81044,1.73042c-0.79736,0.65131-1.67844,1.19954-2.48312,1.84264
		c-0.63104,0.50433-1.26698,0.97423-1.96175,1.40146c-1.19649,0.73579-2.51469,0.87515-3.82542,1.09984
		c-0.71294,0.12222-1.44182,0.15131-2.16348,0.22255c-0.05562,0.00549-0.11748,0.03166-0.16568,0.01573
		c-1.31622-0.43535-2.78441-0.28496-4.01573-1.05598c-0.5168-0.32361-1.04198-0.64369-1.59383-0.89966
		c-1.99489-0.92535-3.29094-2.53703-4.37703-4.36674c-0.18533-0.31219-0.38463-0.61625-0.58243-0.92084
		c-0.63846-0.98312-1.20911-1.98283-1.43738-3.16696c-0.24782-1.28552-0.62746-2.54514-0.90424-3.82586
		c-0.09239-0.42753-0.08891-0.88877-0.05406-1.32863c0.17839-2.25054,0.30069-4.50755,0.71663-6.7336
		c0.04727-0.2531,0.01291-0.52144,0.0164-0.78271C224.41182,111.55452,224.35931,111.52799,224.30682,111.50146z
		 M108.37578,112.59603c-0.46066-0.18432-0.8049-0.34668-1.16438-0.46128c-1.08365-0.34546-2.18752-0.63311-3.25488-1.02184
		c-0.59451-0.21651-1.11538-0.62708-1.69842-0.8845c-1.87211-0.82655-3.60764-1.8755-5.24163-3.10208
		c-0.74485-0.55914-1.30933-1.17661-1.24852-2.21822c0.04393-0.75193,0.40792-1.3392,0.80037-1.89954
		c1.31152-1.87251,2.66626-3.7149,4.01372-5.56207c0.36356-0.49834,0.62755-0.53708,1.22396-0.31642
		c0.41586,0.15383,0.85208,0.25178,1.27341,0.3921c0.31557,0.10508,0.64955,0.19334,0.92759,0.36603
		c1.18305,0.73481,2.31676,1.5542,3.52797,2.23721c1.52608,0.86057,3.0633,1.73206,4.88627,1.84708
		c0.3697,0.02334,0.59667-0.04754,0.7152-0.39452c0.15327-0.44875,0.30109-0.89938,0.45329-1.3485
		c0.65289-1.92612,1.39046-3.82843,1.93887-5.78383c0.70773-2.52339,1.38103-5.06,1.74121-7.66998
		c0.24936-1.80676,0.39999-3.61757,0.29041-5.43011c-0.11573-1.91429-0.37203-3.82023-0.57655-5.72877
		c-0.02039-0.18996-0.0966-0.37706-0.16629-0.55802c-0.19032-0.49429-0.42659-0.9739-0.57845-1.47923
		c-0.18288-0.60867-0.49313-1.14008-0.95058-1.54987c-0.70334-0.63007-1.45639-1.2058-2.20355-1.78497
		c-0.16969-0.13153-0.39627-0.24141-0.60586-0.26057c-0.7985-0.073-1.59939-0.26956-2.3976,0.06343
		c-0.33109,0.13812-0.69986,0.19701-1.05721,0.25893c-0.90042,0.15599-1.71942,0.46123-2.37511,1.13499
		c-0.1504,0.15453-0.37904,0.23-0.56093,0.35725c-1.11954,0.78325-2.29617,1.4996-3.33678,2.37698
		c-1.0606,0.89424-2.00494,1.93067-2.96523,2.93819c-0.71038,0.74533-1.38913,1.52429-2.03795,2.32397
		c-0.84234,1.03823-1.65245,2.1033-2.45496,3.17294c-0.66857,0.89112-1.36645,1.7688-1.94392,2.71781
		c-0.95509,1.5696-1.83233,3.18702-2.72454,4.7942c-0.36383,0.65535-0.64892,1.30532-0.55004,2.1315
		c0.06849,0.57233-0.09914,1.24339-0.36081,1.77142c-0.75805,1.52964-1.30903,3.13504-1.80687,4.75267
		c-0.41576,1.35088-1.05162,2.65737-1.04811,4.11971c0.00027,0.10761-0.05727,0.21494-0.08539,0.32307
		c-0.79955,3.07284-1.01464,6.22047-1.16205,9.37265c-0.03086,0.65937,0.15469,1.32588,0.18551,1.99164
		c0.13515,2.91908,1.10808,5.63028,2.03802,8.35352c0.44568,1.30526,1.36598,2.1581,2.62043,2.63941
		c1.97534,0.75789,3.9847,0.76205,5.9936,0.12258c0.25885-0.08241,0.54092-0.21706,0.71687-0.41309
		c0.76143-0.84829,1.75896-1.34118,2.70547-1.924c0.68124-0.41948,1.38569-0.82553,1.89417-1.48914
		c0.64407-0.84056,1.3316-1.64776,1.99636-2.47261c0.33226-0.41228,0.66892-0.82206,0.98019-1.25
		c0.65702-0.90331,1.32636-1.79962,1.93843-2.73303C107.25854,114.53748,107.76971,113.61198,108.37578,112.59603z"/>
	<path class="st2" d="M30.13384,133.49167c-1.09721,0.71678-2.3522,1.002-3.57157,1.39807
		c-0.68489,0.22249-1.31721,0.62047-2.00913,0.80399c-0.74082,0.19649-1.52816,0.34024-2.28708,0.30899
		c-0.67509-0.02779-1.33965-0.32417-2.00764-0.50647c-0.29641-0.0809-0.58451-0.21474-0.88544-0.25252
		c-1.31151-0.16463-2.4261-0.78172-3.51676-1.46864c-0.49326-0.31067-0.97855-0.6467-1.50532-0.88889
		c-1.22372-0.56262-2.10438-1.5524-3.10152-2.39745c-0.70039-0.59355-1.44179-1.15182-2.06782-1.81717
		c-1.12497-1.19553-2.29995-2.37141-3.01334-3.8832c-0.48573-1.02935-0.94769-2.07565-1.33157-3.14618
		c-0.86348-2.40797-1.41066-4.87268-1.3034-7.46409c0.03773-0.91193-0.1682-1.82606,0.1342-2.73589
		c0.2979-0.89621,0.50207-1.82375,0.80366-2.71855c0.22192-0.65854,0.56209-1.27644,0.80091-1.93023
		c0.45829-1.25468,1.31863-2.1834,2.33218-2.99972c0.28243-0.22748,0.58877-0.43329,0.83566-0.6948
		c0.31737-0.33614,0.60159-0.6394,1.14003-0.5425c0.1851,0.03331,0.44303-0.09943,0.60689-0.23167
		c0.47406-0.38249,0.91192-0.80945,1.37384-1.20751c0.56549-0.48729,1.25475-0.6825,1.95234-0.50495
		c0.58111,0.14791,1.13694,0.45451,1.6503,0.77641c0.17521,0.10986,0.25699,0.47842,0.26211,0.73121
		c0.02525,1.23999-0.26238,2.42234-0.78662,3.54186c-0.5584,1.19235-0.46866,2.45045-0.42121,3.70728
		c0.02947,0.78053,0.00519,1.56824,0.10572,2.33959c0.11838,0.90845,0.34239,1.80337,0.52671,2.7029
		c0.13462,0.65719,0.24934,1.32066,0.42979,1.96541c0.11812,0.42216,0.32904,0.81994,0.51442,1.22121
		c0.17519,0.37921,0.38309,0.74339,0.55593,1.12359c0.38316,0.84285,0.8071,1.63192,1.54776,2.25258
		c0.80608,0.67544,1.47309,1.51771,2.28416,2.18601c0.70377,0.57986,1.52102,1.02307,2.29448,1.51667
		c0.25823,0.16479,0.56312,0.2646,0.80062,0.45235c1.31886,1.04276,2.91153,1.39367,4.48645,1.75896
		c6.37441-0.28311,10.04356-1.90326,13.76873-4.75502c1.28051-1.07377,2.27024-2.31954,2.91782-3.81138
		c0.67041-1.54444,1.01966-3.18866,0.93338-4.89666c-0.07746-1.53308-0.17062-3.05793-0.6363-4.54333
		c-0.40707-1.2984-0.68589-2.63721-1.09852-3.93359c-0.21697-0.68166-0.58059-1.32036-0.91184-1.96095
		c-0.35771-0.69168-0.75046-1.36549-1.13587-2.04256c-0.68896-1.21037-1.40115-2.40789-2.07132-3.62851
		c-0.63017-1.14777-1.19458-2.33188-1.83235-3.47522c-0.62453-1.11957-1.35958-2.17973-1.94694-3.3172
		c-0.69955-1.35476-1.40245-2.71352-1.83541-4.19348c-0.19383-0.66244-0.5196-1.28607-0.78205-1.92872
		c-0.09493-0.23248-0.17783-0.46983-0.26967-0.70361c-0.34563-0.87955-0.69309-1.75838-1.03899-2.63783
		c-0.0711-0.18079-0.1527-0.35901-0.2055-0.5452c-0.36549-1.28932-0.80947-2.56394-1.06462-3.87512
		c-0.33004-1.69598-0.59064-3.41503-0.72766-5.13636c-0.13698-1.72044-0.16736-3.4596-0.09132-5.18381
		c0.07108-1.61195,0.25364-3.23166,0.54861-4.81794c0.39801-2.14037,1.15137-4.19362,1.83412-6.25838
		c0.30608-0.92563,0.81292-1.78852,1.08086-2.7223c0.52393-1.82582,1.63059-3.34267,2.46423-5.00409
		c0.73219-1.45916,1.65121-2.76886,2.71523-3.98761c0.47615-0.54541,0.95604-1.10127,1.50867-1.56329
		c1.06112-0.88706,1.85167-2.00733,2.76168-3.02452c0.25784-0.28817,0.5299-0.57887,0.84428-0.7985
		c1.20937-0.84482,2.43569-1.6656,3.66124-2.48705c1.06512-0.71392,2.13335-1.4234,3.20838-2.12225
		c0.91216-0.59295,1.82293-1.19006,2.75866-1.74416c0.83778-0.4961,1.69698-0.95972,2.56779-1.39558
		c1.59323-0.79749,3.1938-1.58171,4.80998-2.33113c0.41766-0.19365,0.90009-0.26466,1.36102-0.34402
		c0.76804-0.13222,1.54183-0.23289,2.31488-0.3339c1.39165-0.18185,2.78313-0.17282,4.17189,0.03559
		c1.78408,0.26774,3.46124,0.89495,5.11879,1.56828c1.10836,0.45022,1.9244,1.31996,2.79773,2.10258
		c2.36773,2.12177,4.33889,4.58056,6.02728,7.25587c1.18731,1.88134,2.2398,3.84784,3.34873,5.77848
		c0.23409,0.40761,0.50777,0.8051,0.66077,1.24303c0.1441,0.41253,0.18471,0.87032,0.21211,1.31184
		c0.02541,0.40845-0.14887,0.74086-0.50143,1.00035c-0.60445,0.44489-1.15163,0.91301-1.9754,1.00132
		c-0.55075,0.05904-1.09634,0.38248-1.59326,0.67437c-0.65503,0.38477-1.32127,0.6644-2.07526,0.80958
		c-0.44598,0.08586-0.8838,0.35638-1.2597,0.63298c-0.69186,0.50908-1.48132,0.47231-2.25053,0.46207
		c-0.60764-0.00809-1.08591-0.50088-1.18153-1.11458c-0.18036-1.15728-0.77604-2.13171-1.32503-3.12685
		c-0.39014-0.70723-0.77045-1.42501-1.22487-2.09046c-0.69028-1.01074-1.46677-1.96251-2.15981-2.97151
		c-0.92272-1.34332-2.10612-2.44492-3.235-3.59728c-1.00955-1.03057-2.14251-1.86123-3.60709-2.14945
		c-0.43417-0.08544-0.83656-0.33237-1.2707-0.4182c-1.436-0.28389-2.87206-0.41573-4.2842,0.16026
		c-0.30648,0.12502-0.6464,0.21881-0.97425,0.23007c-0.68336,0.02348-1.2346,0.28782-1.72723,0.74042
		c-0.59471,0.54639-1.21445,1.06554-1.80898,1.61213c-0.84537,0.77726-1.817,1.36146-2.79734,1.94836
		c-1.12973,0.67633-2.06057,1.597-2.94939,2.5725c-0.94379,1.03585-1.36242,2.35954-2.08482,3.51305
		c-0.11789,0.18824-0.18719,0.41843-0.33683,0.57327c-0.74051,0.76619-1.09254,1.7388-1.48702,2.69283
		c-0.19141,0.46284-0.42223,0.90936-0.6149,1.37171c-0.30051,0.7211-0.57298,1.45395-0.87645,2.17377
		c-0.78071,1.85191-1.44752,3.74212-1.88693,5.70485c-0.12742,0.56913-0.18338,1.15693-0.23668,1.73943
		c-0.11706,1.27905-0.29654,2.5601-0.2974,3.84043c-0.00169,2.59953,0.17415,5.19328,0.72545,7.74373
		c0.14715,0.68079,0.35131,1.35439,0.58955,2.00939c0.69576,1.91289,1.11793,3.91768,2.00469,5.76878
		c0.42931,0.8962,0.66869,1.88242,1.08453,2.78627c0.66453,1.44454,1.37222,2.87163,2.12104,4.27438
		c0.8413,1.57592,1.73736,3.1231,2.63087,4.67049c0.65528,1.13488,1.36251,2.23984,2.01399,3.37682
		c0.59487,1.03823,1.18614,2.08212,1.70594,3.1588c0.6296,1.30414,1.23542,2.62516,1.75019,3.97744
		c0.35518,0.93307,0.58968,1.92129,0.78725,2.90314c0.34795,1.72945,0.52518,3.47774,0.38516,5.24975
		c-0.13415,1.69758-0.60994,3.28656-1.40628,4.7866c-0.16945,0.31918-0.34186,0.64174-0.46321,0.98055
		c-0.31769,0.88719-0.93073,1.56799-1.50589,2.28416c-0.62679,0.78046-1.20261,1.60162-1.80978,2.39806
		c-1.04251,1.36754-2.29932,2.48756-3.7602,3.40755c-0.74411,0.46862-1.38464,1.10251-2.06808,1.66644
		c-0.92795,0.76572-1.89716,1.44654-3.07086,1.80883c-0.58153,0.1795-1.15953,0.4216-1.68128,0.73247
		c-0.93446,0.55679-1.85131,1.15164-2.72582,1.79785c-0.6802,0.50264-1.47095,0.68329-2.24115,0.88525
		C34.0644,131.72411,30.55972,133.21346,30.13384,133.49167z"/>
	<path class="st2" d="M254.17085,34.15863c-0.05801,0.01255-0.00119,0.00791,0.04974-0.01188
		c1.54286-0.59932,3.00261,0.19377,4.50334,0.29065c0.35687,0.02304,0.69199,0.33325,1.04388,0.49677
		c0.40161,0.18661,0.80048,0.47495,1.21866,0.51142c1.11118,0.0969,1.87845,0.70161,2.43393,1.56305
		c0.5704,0.88452,1.04153,1.83664,1.50983,2.78208c0.29382,0.59314,0.2695,1.24043,0.14563,1.88838
		c-0.38123,1.99421-1.27988,3.73263-2.57587,5.27776c-0.26773,0.31922-0.52219,0.65816-0.83298,0.93074
		c-0.50687,0.44451-1.09479,0.71387-1.77325,0.87417c-0.77808,0.18384-1.52408,0.52122-2.26675,0.83305
		c-1.23135,0.51704-2.4382,1.09349-3.6758,1.59448c-0.95261,0.38562-1.94083,0.68244-2.90428,1.04261
		c-0.33638,0.12575-0.67792,0.28097-0.96114,0.49633c-0.52951,0.40262-1.11423,0.48336-1.73814,0.41117
		c-1.00877-0.11671-1.84387-0.5047-2.48238-1.36255c-1.05309-1.41484-1.48686-3.03935-1.76274-4.72746
		c-0.05228-0.31992,0.0278-0.66434,0.06612-0.99522c0.02881-0.24874,0.12486-0.49334,0.12871-0.74074
		c0.02956-1.90209,0.9129-3.36876,2.16975-4.74121c1.16016-1.2669,2.45305-2.34289,3.84183-3.32416
		c0.93036-0.65738,1.89568-1.26658,2.80902-1.94616C253.4801,35.03245,253.74394,34.63091,254.17085,34.15863z"/>
	<path class="st2" d="M176.51131,41.51569c0.20251,1.22417-0.2794,2.28593-0.60666,3.37208
		c-0.16106,0.53461-0.41563,1.01282-0.95509,1.31771c-0.30232,0.17086-0.58337,0.46572-0.75128,0.772
		c-0.52487,0.95749-1.48979,1.09713-2.3835,1.29889c-1.19771,0.27039-2.41508,0.44732-3.53339,0.99318
		c-0.05009,0.02445-0.10367,0.0625-0.15474,0.06113c-1.02461-0.02746-1.94521,0.59453-2.91214,0.59728
		c-1.23907,0.00353-2.43184,0.09359-3.62482,0.40931c-0.30896,0.08177-0.68831,0.05585-0.99553-0.04359
		c-0.94008-0.30427-1.8918-0.50409-2.73474-1.15303c-1.51349-1.1652-2.14638-2.64737-2.32982-4.49603
		c-0.11967-1.20612,0.25456-2.2045,0.79709-3.17622c0.55473-0.99361,1.17007-1.96165,1.84879-2.87398
		c0.29953-0.40261,0.79185-0.69446,1.24864-0.93976c0.68301-0.36679,1.46136-0.56987,2.11183-0.98081
		c1.75661-1.10982,3.81889-1.55798,5.57645-2.65662c0.90009-0.56265,1.95326-0.36261,2.93773-0.49662
		c0.15404-0.02097,0.39977,0.11419,0.4917,0.25165c0.27283,0.40799,0.67599,0.5219,1.10544,0.66796
		c1.33215,0.45304,2.60332,1.03054,3.50298,2.18041c0.25452,0.32531,0.52811,0.66391,0.67201,1.0424
		C176.29723,38.91242,176.87074,40.15475,176.51131,41.51569z"/>
</g>
<path class="st2" d="M518.51282,112.17113c-0.15448,0.02165-0.2356,0.01051-0.25299,0.03873
	c-0.55505,0.8976-1.11426,1.79288-1.65149,2.70117c-0.93848,1.58694-1.86273,3.18235-2.7937,4.77375
	c-0.05646,0.09637-0.11182,0.19509-0.18109,0.282c-1.46075,1.83235-2.8389,3.74012-4.41336,5.4691
	c-1.19257,1.30965-2.56006,2.47966-4.03543,3.49456c-0.27612,0.18993-0.59445,0.34612-0.81058,0.59091
	c-0.95193,1.07835-2.25677,1.62694-3.45163,2.33287c-1.44855,0.85579-3.06577,0.98915-4.7063,0.94026
	c-0.1637-0.00488-0.33151-0.05389-0.48737-0.11021c-0.89325-0.32271-1.78894-0.63985-2.67307-0.98631
	c-0.73669-0.2887-1.39792-0.69112-1.88812-1.3437c-1.6481-2.19408-3.12405-4.48247-4.30478-6.97533
	c-1.08112-2.28266-2.08017-4.59069-2.67023-7.04227c-0.54742-2.27434-1.01392-4.57697-0.93433-6.94209
	c0.01685-0.50061,0.0444-1.00813,0.14166-1.49763c0.80917-4.07206,1.9801-8.02428,3.80618-11.77372
	c0.90479-1.85773,1.67645-3.77998,2.52835-5.66399c0.32172-0.71148,0.68835-1.40358,1.05438-2.09396
	c1.38614-2.61437,2.823-5.20213,4.02454-7.91117c0.4754-1.07186,0.98181-2.13154,1.51532-3.17569
	c0.79361-1.55305,1.32632-3.19997,1.79346-4.86871c0.16437-0.58719,0.25354-1.20667,0.28821-1.8165
	c0.06946-1.22165-0.5224-2.022-1.69785-2.37014c-0.65051-0.19263-1.31946-0.29384-1.98392-0.0859
	c-0.87082,0.2725-1.76501,0.23679-2.65814,0.28036c-1.00192,0.04883-1.99893,0.19538-3.00079,0.24941
	c-0.77304,0.04168-1.23523,0.44033-1.52631,1.11137c-0.06665,0.15366-0.15625,0.29752-0.22089,0.45194
	c-1.14789,2.74294-2.74185,5.23151-4.35223,7.71536c-1.24512,1.92043-2.4184,3.88734-3.63068,5.82922
	c-0.70947,1.13652-1.38132,2.29497-2.31088,3.28439c-0.53354,0.56792-1.0668,1.1779-1.42505,1.86082
	c-1.03,1.96338-2.68552,3.42146-4.00946,5.14445c-0.78256,1.01851-1.60339,2.00942-2.44281,2.98186
	c-0.61975,0.71799-1.23965,1.45423-1.95999,2.06351c-2.09546,1.77242-4.00769,3.73365-5.918,5.69215
	c-0.94318,0.96697-1.99191,1.79342-3.02289,2.64231c-1.42065,1.16977-2.8967,2.26283-4.58789,3.05546
	c-1.00354,0.47034-1.89526,1.17401-2.86255,1.72861c-0.72668,0.41666-1.48862,0.7642-2.33807,0.89014
	c-0.38327,0.05684-0.76007,0.19155-1.12549,0.32903c-2.17297,0.81753-1.98801,0.57057-3.15616,2.27407
	c-0.59988,0.87479-1.22382,1.73576-1.88168,2.56753c-1.53131,1.93618-3.26614,3.6781-5.25885,5.13628
	c-1.30508,0.95501-2.5141,2.03769-3.93808,2.83933c-2.23428,1.2578-4.41571,2.60231-6.52036,4.07629
	c-0.76221,0.53381-1.67075,0.90561-2.56412,1.18832c-0.56976,0.18033-0.98355,0.48126-1.40097,0.85413
	c-0.85254,0.76146-1.85202,1.2411-2.9675,1.48306c-0.16382,0.03554-0.32791,0.11578-0.48932,0.10951
	c-2.45609-0.09544-4.93445-0.09186-7.0578-1.63846c-0.90244-0.6573-1.82947-1.28075-2.74139-1.92514
	c-0.27377-0.19345-0.51553-0.43832-0.80392-0.60396c-2.29507-1.31805-3.49142-3.53277-4.75192-5.71586
	c-1.45905-2.52703-2.09061-5.2388-2.34097-8.13533c-0.17831-2.06248-0.26428-4.12679-0.37485-6.18893
	c-0.05923-1.10474,0.048-2.24757,0.27396-3.33283c0.61493-2.95356,1.33264-5.88573,2.01147-8.82594
	c0.03769-0.16322,0.07684-0.32901,0.14117-0.4828c1.27133-3.04005,2.23709-6.20831,3.82358-9.11627
	c0.1337-0.24505,0.28757-0.48793,0.36893-0.75131c0.88947-2.88023,2.87503-5.15988,4.25333-7.77169
	c0.15338-0.29069,0.42117-0.51959,0.62625-0.78464c0.92261-1.19234,1.8941-2.34478,2.61557-3.68728
	c0.28284-0.52628,0.7261-0.98495,1.16223-1.40616c0.76511-0.73888,1.56729-1.43626,2.091-2.38538
	c0.08002-0.14495,0.18576-0.28552,0.3089-0.39525c1.207-1.0754,2.34769-2.24331,3.64825-3.19142
	c2.07416-1.51202,4.22946-2.91843,6.40121-4.28905c1.51053-0.95327,3.09146-1.79948,4.67148-2.63592
	c0.58356-0.30891,1.24106-0.51059,1.88818-0.66023c1.36096-0.31475,2.73517-0.57455,4.10873-0.83113
	c0.43576-0.08139,0.89743-0.16142,1.32901-0.10419c1.93555,0.25668,3.89349,0.40428,5.73343,1.15998
	c1.9512,0.80139,3.62527,1.98761,4.91336,3.64584c0.85385,1.09923,1.55234,2.31834,2.33401,3.47459
	c1.65247,2.44431,2.22134,5.21117,2.43674,8.08757c0.07086,0.94649,0.19958,1.89015,0.23389,2.83756
	c0.09088,2.51118,0.22726,5.02374-0.33386,7.51191c-0.23282,1.03248-0.34531,2.09171-0.52277,3.13704
	c-0.66711,3.92983-1.96994,7.67715-3.31592,11.40873c-0.35718,0.99026-0.84555,1.9332-1.3197,3.00155
	c0.28802,0.0858,0.48026,0.19183,0.67093,0.18907c0.3327-0.00481,0.66415-0.07906,0.99667-0.11987
	c0.91351-0.11214,1.72821-0.4416,2.40564-1.08009c1.02933-0.97023,2.2236-1.67563,3.51898-2.23178
	c0.40475-0.1738,0.81525-0.39007,1.14285-0.67815c1.50943-1.32744,2.99097-2.68659,4.4808-4.03625
	c0.12408-0.11241,0.2489-0.22842,0.35086-0.36018c1.98059-2.55981,4.09631-5.01734,5.66843-7.87772
	c1.04797-1.90675,2.22192-3.74391,3.30957-5.62946c0.44464-0.77075,0.79807-1.59355,1.21497-2.38103
	c0.5488-1.03664,1.09433-2.07636,1.68549-3.08895c1.33371-2.28446,1.95367-4.86581,3.05197-7.24709
	c0.02316-0.05016,0.03793-0.10618,0.04605-0.16103c0.28281-1.90777,1.24493-3.42041,2.61768-4.7456
	c1.2041-1.16235,2.31638-2.42003,3.46457-3.63998c0.48242-0.51259,1.05719-0.81065,1.76935-0.83506
	c1.11713-0.03835,2.23383-0.11325,3.35101-0.12083c1.62149-0.011,3.2435,0.01364,4.86496,0.04309
	c1.233,0.02241,2.4494-0.01737,3.65961-0.32651c1.10773-0.283,2.22833-0.15396,3.30569,0.21791
	c2.32761,0.80338,4.27518,2.15516,5.76074,4.12898c0.26099,0.34675,0.48132,0.77345,0.56641,1.19437
	c0.3143,1.55519,0.259,3.09727-0.24911,4.62469c-1.09845,3.30225-2.55344,6.44441-4.23187,9.4836
	c-0.64594,1.16959-1.43323,2.26038-2.10025,3.41923c-0.75238,1.30708-1.47778,2.63262-2.14682,3.98383
	c-0.49417,0.99809-0.84207,2.06794-1.32126,3.0743c-0.79272,1.66481-1.6994,3.27728-2.44839,4.96057
	c-1.18375,2.66037-2.12906,5.42232-2.72806,8.26687c-0.48792,2.31674-0.27939,4.68076,0.20132,6.99983
	c0.23788,1.1475,0.47726,2.30224,0.83603,3.41496c0.34134,1.05859,0.77954,2.09684,1.2814,3.09036
	c0.83008,1.6433,1.74911,3.24154,2.62296,4.86295c0.28949,0.53711,0.44922,1.22019,1.09045,1.42371
	c0.85864,0.27248,1.76443,0.36182,2.6265-0.01942c0.55984-0.24759,1.10748-0.5359,1.62595-0.86114
	c0.94553-0.59322,1.87714-1.21056,2.79126-1.85107c0.50143-0.35138,0.96323-0.76141,1.42868-1.16151
	c0.54956-0.47245,1.11609-0.89228,1.76227-1.25146c1.08514-0.60323,1.8649-1.58306,2.50391-2.64134
	c0.37451-0.62021,0.65271-1.2981,0.98511-1.94441c0.20404-0.39679,0.37653-0.82555,0.65411-1.16573
	c0.7569-0.92744,1.26044-1.97043,1.61261-3.10437c0.45251-1.45702,1.33875-2.70058,2.02625-4.04214
	c0.61127-1.19273,1.2016-2.39638,1.82788-3.58112c0.5473-1.03535,1.09985-2.0705,1.70911-3.06974
	c0.55475-0.90972,1.11218-1.80976,1.44171-2.8316c0.34656-1.07473,0.86432-2.06018,1.56171-2.9502
	c0.62927-0.80322,1.02777-1.70897,1.33405-2.68436c0.24841-0.79107,0.62537-1.55117,1.02051-2.28452
	c0.58392-1.0837,1.20825-2.14338,1.56561-3.33255c0.06415-0.21326,0.14441-0.42568,0.24768-0.6225
	c1.74207-3.31919,3.18823-6.77332,4.69043-10.20305c0.7619-1.73946,1.6377-3.42881,2.44794-5.14747
	c0.2373-0.5034,0.46216-1.01822,0.63-1.54768c0.37457-1.18221,1.09613-2.06852,2.1861-2.63789
	c0.90546-0.47294,1.69531-1.06988,2.34357-1.86486c0.20587-0.25245,0.47998-0.45747,0.74768-0.64956
	c0.5874-0.42139,1.19019-0.82143,1.7876-1.22876c0.32184-0.21943,0.62671-0.47496,0.97345-0.6438
	c0.42505-0.20695,0.86536-0.19452,1.25055,0.14612c0.58575,0.51808,1.20886,0.99878,1.7558,1.55468
	c0.70349,0.71495,0.81702,1.55973,0.34155,2.46294c-0.07806,0.14829-0.1319,0.3125-0.22711,0.44819
	c-2.22565,3.172-3.74133,6.73016-5.51129,10.14916c-0.48743,0.94145-0.87952,1.93192-1.32513,2.89539
	c-0.35199,0.76106-0.64551,1.56227-1.09467,2.26248c-0.88501,1.37979-1.43927,2.90094-2.04846,4.40076
	c-0.25275,0.62209-0.56842,1.19558-0.91486,1.77428c-0.9455,1.57957-1.85565,3.18382-2.50928,4.92136
	c-0.70776,1.8818-1.51099,3.72773-2.21619,5.61043c-0.54749,1.46185-1.11713,2.92095-1.27686,4.50293
	c-0.05511,0.54579-0.30908,1.06889-0.44031,1.6101c-0.44763,1.84505-0.96667,3.67886-1.28748,5.54634
	c-0.18842,1.0967-0.4425,2.19151-0.56079,3.291c-0.28882,2.6845-0.25922,5.36352,0.84308,7.91247
	c0.3761,0.86964,0.74542,1.74243,1.13965,2.60378c0.13849,0.30257,0.34192,0.57553,0.51648,0.86147
	c0.36505,0.59784,0.86871,0.82359,1.56604,0.63651c0.86847-0.23301,1.71948-0.49397,2.45831-1.03236
	c1.30682-0.95226,2.76709-1.7003,3.86884-2.92656c0.14594-0.16241,0.33997-0.30109,0.53833-0.39363
	c1.25818-0.58674,2.09314-1.64307,3.0072-2.62543c0.7204-0.77417,1.50873-1.4873,2.29144-2.20058
	c0.53906-0.49125,1.02264-1.00982,1.44348-1.61618c0.76392-1.10064,1.61908-2.13775,2.43079-3.20545
	c0.23657-0.31123,0.48541-0.61916,0.67639-0.95806c0.79596-1.41257,1.72021-2.75166,2.52838-4.14633
	c1.00543-1.73504,1.90729-3.53675,2.93896-5.26366c0.14093-0.23586,0.18353-0.52818,0.30054-0.78098
	c0.39801-0.85946,0.80273-1.71595,1.21649-2.56794c0.43823-0.90218,0.91705-1.78559,1.32874-2.69947
	c0.57312-1.27241,1.09546-2.56622,1.91199-3.71436c0.35455-0.4985,0.61688-1.03385,0.81268-1.63503
	c0.27386-0.84072,0.6825-1.65536,1.14484-2.41324c1.04926-1.71999,2.0769-3.43403,2.68805-5.38088
	c0.24579-0.78291,0.75604-1.48399,1.15662-2.21645c0.13348-0.24409,0.36639-0.45061,0.44153-0.70716
	c0.64819-2.21474,1.89941-4.16585,2.729-6.29972c0.36456-0.93789,0.70978-1.88345,1.08563-2.81676
	c0.22858-0.56767,0.51373-1.11243,0.74585-1.67883c0.21039-0.51329,0.39319-1.0386,0.57074-1.56451
	c0.37482-1.11039,0.68121-1.31317,1.84302-1.18341c0.2204,0.0246,0.43945,0.06134,0.703,0.09871
	c1.1037-0.83187,2.21307-1.67519,3.33044-2.50782c0.85931-0.64034,1.43915-0.61201,2.2345,0.08949
	c0.08344,0.07361,0.15466,0.16134,0.22955,0.24434c1.62512,1.8028,1.68213,2.0442,1.0918,4.20095
	c-0.54633,1.99607-1.19012,3.94409-2.21912,5.77089c-0.65289,1.15918-1.03333,2.47071-1.5509,3.70768
	c-0.34509,0.82477-0.68231,1.65563-1.08282,2.45381c-1.00403,2.00094-1.78693,4.08353-2.54053,6.19073
	c-0.78796,2.20306-1.37769,4.495-2.59387,6.53387c-0.19818,0.33229-0.323,0.71365-0.44684,1.08395
	c-0.33734,1.00822-0.74359,1.97999-1.22906,2.93107c-0.40314,0.7899-0.646,1.66341-0.93964,2.50694
	c-0.29303,0.84168-0.52264,1.70708-0.84717,2.53584c-0.91968,2.34902-1.42609,4.81702-2.1264,7.22893
	c-0.23328,0.8035-0.43762,1.61569-0.64185,2.42728c-0.14984,0.59558-0.30304,1.19218-0.41052,1.79618
	c-0.23474,1.31924-0.49072,2.63768-0.64716,3.96715c-0.20422,1.7359-0.05078,3.46674,0.41901,5.14874
	c0.20862,0.74699,0.52338,1.47764,0.88416,2.16636c1.11884,2.13584,2.42383,2.43298,4.11279,2.05698
	c1.95319-0.43484,3.9068-0.98608,5.44751-2.42692c0.77509-0.72481,1.61566-1.37916,2.41852-2.07468
	c0.84735-0.73401,1.55853-1.58688,2.27112-2.45418c1.32104-1.60777,2.36823-3.38104,3.40253-5.16871
	c0.22266-0.38486,0.39795-0.79778,0.58472-1.20258c0.16376-0.355,0.27576-0.73892,0.47455-1.0719
	c1.80402-3.0215,3.32837-6.19838,5.26306-9.15329c1.15527-1.76445,1.96088-3.75755,3.1485-5.52254
	c0.12201-0.18125,0.20813-0.40524,0.24664-0.6209c0.23096-1.2936,0.86914-2.40987,1.52271-3.51582
	c0.42963-0.72701,0.74725-1.48549,0.98584-2.29945c0.48785-1.66432,1.04974-3.30584,2.14801-4.69848
	c0.17157-0.21762,0.27258-0.48971,0.43427-0.71659c0.57336-0.80451,0.76318-1.68644,0.78021-2.67836
	c0.03857-2.24421,0.45972-4.44482,1.11572-6.58691c0.58911-1.92356,1.26813-3.8198,1.91711-5.72478
	c0.40741-1.19576,1.20746-2.14626,2.08496-2.99833c1.31885-1.28058,2.72461-2.47167,4.04742-3.65959
	c1.31018,0,2.53101-0.00584,3.75171,0.00328c0.40845,0.00305,0.76849,0.46884,0.58533,0.82429
	c-0.57739,1.12043-0.63098,2.36217-0.9054,3.55281c-0.1001,0.43435-0.20758,0.87726-0.3905,1.28052
	c-0.91083,2.0076-1.29321,4.16132-1.73193,6.29353c-0.23553,1.14489-0.35095,2.32203-0.42499,3.49067
	c-0.08911,1.40562,0.29095,2.77035,0.5351,4.14254c0.10736,0.60355,0.3175,1.18849,0.43176,1.79121
	c0.22388,1.18115,0.77234,2.20187,1.43463,3.18656c0.67389,1.00184,1.62634,1.53561,2.78027,1.67599
	c0.71167,0.08658,1.4433,0.01646,2.16571,0.00227c0.22083-0.00434,0.44067-0.08215,0.66107-0.08289
	c1.74194-0.00587,3.23706-0.5862,4.52386-1.78412c0.98065-0.91292,1.99048-1.80959,3.07532-2.59143
	c1.25751-0.90626,2.19458-2.05528,2.97052-3.36056c0.37091-0.62398,0.69916-1.27435,1.02704-1.92277
	c0.93555-1.85017,2.07367-3.56975,3.30298-5.2355c0.99359-1.34631,1.91718-2.74507,2.93311-4.0737
	c0.84705-1.10779,1.78174-2.14864,2.67993-3.21716c1.18048-1.40436,2.73987-2.28813,4.34277-3.09108
	c0.80249-0.40197,1.68597-0.5946,2.59485-0.60107c0.50317-0.00359,1.01379-0.04242,1.50854,0.02562
	c2.21655,0.30484,4.45673,0.33747,6.68103,0.48836c2.63605,0.17881,5.16357,0.96472,7.79181,1.11131
	c0.42584,0.02374,0.86975,0.21756,1.25146,0.42972c0.68225,0.37921,1.3324,0.81899,1.97913,1.25833
	c0.62244,0.42284,0.72632,0.85619,0.29565,1.40329c-1.48639,1.88808-2.98218,3.7691-4.50024,5.63181
	c-0.88708,1.08854-2.04089,1.50369-3.44061,1.23463c-0.76672-0.14738-1.54718-0.22213-2.31573-0.3611
	c-0.49207-0.08896-0.98279-0.20753-1.45825-0.36168c-1.07178-0.34748-2.15631-0.54241-3.29077-0.55898
	c-1.17029-0.01708-2.33783-0.17306-3.50854-0.22553c-1.2832-0.05753-2.5686-0.08469-3.85315-0.08807
	c-0.61688-0.00164-1.18799,0.21019-1.77307,0.43375c-1.97498,0.75469-3.42889,2.00475-4.32397,3.95234
	c-0.36804,0.801-0.97699,1.49011-1.46338,2.23858c-0.1814,0.27914-0.39691,0.56511-0.47302,0.87811
	c-0.21387,0.87908-0.67749,1.64619-1.00116,2.4695c-0.35712,0.90843-0.84521,1.68861-1.45551,2.42313
	c-0.90094,1.0843-1.49353,2.35484-2.13196,3.59576c-0.35718,0.69423-0.63477,1.43475-1.04156,2.09708
	c-1.09204,1.7781-1.7865,3.71294-2.40063,5.68978c-0.23126,0.74441-0.58258,1.45119-0.82172,2.19364
	c-0.27325,0.84856-0.51685,1.71003-0.7124,2.57961c-0.40436,1.7979-0.90204,3.55656-1.53845,5.29506
	c-0.53326,1.45691-0.84412,3.02865-0.7879,4.60732c0.06549,1.83872,0.08588,3.68466,0.43311,5.50497
	c0.12549,0.65751,0.21356,1.32716,0.25287,1.99512c0.10535,1.79168,0.79193,3.36417,1.81348,4.79353
	c0.52747,0.738,1.26923,1.24612,2.18451,1.4893c1.36731-0.40517,2.51685-1.13518,3.54254-2.13551
	c2.24774-2.19217,4.3042-4.53345,5.98737-7.19251c0.38837-0.61349,0.82855-1.19395,1.23169-1.79837
	c0.4964-0.74429,0.99054-1.47871,1.71307-2.04322c0.53046-0.4144,0.87982-0.96894,1.1579-1.6094
	c0.32935-0.75861,0.75873-1.50674,1.29004-2.13695c0.76685-0.90956,1.40656-1.88251,1.89032-2.95596
	c0.32562-0.72256,0.75525-1.35917,1.24176-1.97958c0.86035-1.09709,1.77399-2.16345,2.26434-3.50813
	c0.1106-0.30333,0.35724-0.56083,0.55774-0.82694c1.11487-1.47919,2.11334-3.02435,2.78503-4.76373
	c0.14032-0.36342,0.29181-0.73869,0.51886-1.0496c0.86456-1.18404,1.44781-2.51333,2.07758-3.82314
	c0.3374-0.70171,0.78351-1.35028,1.15735-2.03548c0.74811-1.37119,1.46887-2.75744,2.22382-4.12485
	c0.37506-0.67934,0.80072-1.33067,1.19684-1.98367c0.30981-0.01606,0.53113-0.05442,0.74664-0.03324
	c0.48206,0.04739,0.86786-0.10272,1.20667-0.44863c0.2323-0.23714,0.48932-0.4641,0.77307-0.63161
	c0.17627-0.10411,0.45013-0.17232,0.63385-0.11306c1.06622,0.34389,2.09839,0.75208,2.90405,1.59478
	c0.48077,0.50274,0.63544,1.05511,0.39606,1.68584c-0.77289,2.03673-1.56342,4.06686-2.35767,6.09538
	c-0.34601,0.88371-0.81476,1.73139-1.05756,2.64089c-0.4942,1.85079-1.54541,3.45023-2.21552,5.22083
	c-0.6712,1.77332-1.52277,3.47744-2.23755,5.2354c-1.2229,3.00768-2.37787,6.06297-2.65167,9.31645
	c-0.1817,2.15939-0.72803,4.29763-0.46198,6.49902c0.11469,0.94882,0.26746,1.86236,0.58118,2.77374
	c0.38275,1.11193,0.77661,2.20112,1.42102,3.19398c0.57849,0.89117,1.07599,1.14574,2.11072,0.83208
	c1.28174-0.38855,2.50952-0.89428,3.69855-1.54984c1.8869-1.04032,3.48468-2.43581,5.02484-3.88322
	c1.25592-1.18021,2.32385-2.56132,3.28131-4.01421c1.97229-2.99309,3.62738-6.16302,5.26367-9.34441
	c0.05115-0.09944,0.11432-0.19352,0.15753-0.29613c1.75726-4.17443,4.1629-8.03659,5.88818-12.22572
	c0.27618-0.67074,0.50964-1.36053,0.73389-2.0509c0.45007-1.38516,0.9306-2.75391,1.71954-3.99388
	c0.17902-0.28138,0.32819-0.5879,0.44904-0.89915c0.46454-1.19643,0.93182-2.3925,1.36145-3.60172
	c0.65448-1.8421,1.24725-3.70655,1.9245-5.54001c0.63837-1.7281,1.22894-3.49107,2.06213-5.12578
	c1.16528-2.28628,2.53436-4.4688,3.82025-6.69341c0.32971-0.57045,0.81738-0.91906,1.48926-0.94325
	c1.51251-0.05444,2.99298-0.31914,4.4856-0.54901c1.25391-0.19307,2.565-0.0563,3.84808-0.00184
	c0.77905,0.03306,1.565,0.13254,2.32654,0.29919c1.276,0.27919,2.55322,0.25103,3.83929,0.1751
	c0.83624-0.04936,1.6731-0.11429,2.51001-0.12046c2.30383-0.01694,4.26959,0.82565,5.81665,2.5172
	c0.77606,0.84856,1.16034,1.91328,0.98938,3.1003c-0.27081,1.88022-0.48792,3.77219-0.85956,5.63285
	c-0.48285,2.41768-1.31097,4.73098-2.31171,6.99229c-0.90411,2.04328-1.68542,4.14191-2.48981,6.2281
	c-0.68335,1.77216-1.29803,3.57084-1.98712,5.34066c-0.87048,2.23575-1.75037,4.46919-2.69379,6.67471
	c-0.64435,1.50642-0.94318,3.10277-1.31049,4.67323c-0.40607,1.7363-0.63251,3.51828-0.86469,5.28986
	c-0.10779,0.82241-0.11102,1.6729-0.04102,2.50047c0.08453,0.99952,0.25958,1.99605,0.46411,2.97958
	c0.24176,1.16248,0.74017,2.22088,1.46948,3.16975c0.91815,1.19451,1.81757,2.39867,2.65833,3.65506
	c1.2254,1.83122,1.56049,1.63421,3.18945,1.00286c0.88-0.34108,1.74805-0.77266,2.52747-1.30193
	c1.84924-1.25578,3.56897-2.68739,5.27106-4.13638c0.16956-0.14438,0.32916-0.30476,0.47211-0.47556
	c1.07538-1.28531,2.14282-2.57719,3.21814-3.8625c0.50201-0.60001,1.01526-1.19062,1.52515-1.784
	c0.14575-0.16959,0.32324-0.3175,0.4425-0.50338c0.87537-1.36427,1.86676-2.64218,2.84479-3.93243
	c0.3255-0.42946,0.4754-1.00503,0.65289-1.53157c0.87415-2.59325,1.73657-5.19046,2.59155-7.79012
	c0.90918-2.76467,2.16974-5.38756,3.23938-8.08728c1.052-2.65562,2.26331-5.22517,3.82422-7.62735
	c0.39154-0.60274,0.58813-1.32916,0.95123-1.95404c1.09271-1.88032,2.22327-3.7386,3.33929-5.60539
	c0.02863-0.04797,0.06714-0.09151,0.08795-0.14249c0.94543-2.3151,2.65674-4.13156,4.11755-6.08881
	c1.12164-1.50288,2.52405-2.86571,4.02313-3.99748c1.45013-1.09484,3.065-2.04431,4.93146-2.41323
	c1.09387-0.21621,2.1593-0.57343,3.24219-0.84885c1.2785-0.32516,2.54657-0.24255,3.80841,0.12195
	c0.75146,0.21707,1.51373,0.39658,2.27008,0.59718c0.3222,0.08547,0.66693,0.13252,0.95758,0.28217
	c0.9101,0.46866,1.88263,0.68513,2.8808,0.85365c0.48792,0.08234,0.97467,0.23843,1.42975,0.43533
	c1.58289,0.68479,3.15155,1.40208,4.80634,2.14311c0.23273-0.27725,0.5097-0.48803,0.62451-0.76583
	c0.38416-0.92912,0.76733-1.86558,1.04871-2.82905c1.13123-3.87225,2.68738-7.58302,4.18561-11.31917
	c1.08099-2.69585,2.03748-5.44149,3.05731-8.162c0.19592-0.52285,0.40015-1.04601,0.6485-1.54521
	c0.70111-1.40968,1.18951-2.89039,1.59357-4.40822c0.17096-0.64219,0.44379-1.26016,0.70398-1.87486
	c0.26147-0.61736,0.61127-1.2,0.84039-1.82776c0.56342-1.54326,1.41644-2.91177,2.41388-4.20028
	c1.05914-1.3682,2.11298-2.74085,3.19379-4.09191c0.38287-0.47853,0.79327-0.95542,1.26941-1.33486
	c1.10687-0.88211,2.35248-1.26581,3.75055-0.75221c0.50922,0.18709,0.80963,0.55837,0.88959,1.11672
	c0.16241,1.13401,0.14417,2.22119-0.53033,3.22608c-0.24493,0.36491-0.40967,0.79478-0.55359,1.21469
	c-0.88739,2.58953-1.73792,5.19181-2.64435,7.77454c-0.40619,1.15754-0.89154,2.28915-1.38135,3.41499
	c-0.50958,1.17147-0.92938,2.37505-1.60846,3.48346c-0.54822,0.89494-0.88794,1.92791-1.2467,2.92603
	c-0.45648,1.27009-1.01898,2.47458-1.75677,3.60832c-0.36145,0.55546-0.62415,1.17999-0.89185,1.79065
	c-0.89703,2.04592-1.77588,4.09979-2.66254,6.15024c-0.08875,0.20521-0.19635,0.40313-0.27313,0.61253
	c-0.63513,1.73156-1.30664,3.45138-1.88153,5.20283c-0.36517,1.11244-0.57892,2.27415-0.87079,3.41116
	c-0.24994,0.97388-0.51697,1.94339-0.77216,2.91597c-0.35431,1.35022-0.68347,2.70744-1.06213,4.05076
	c-0.409,1.45106-0.73944,2.94189-1.32581,4.32113c-0.86096,2.02505-1.37653,4.13404-1.82599,6.26169
	c-0.39203,1.85609-0.66846,3.73883-0.9364,5.61827c-0.32318,2.26604-0.63287,4.53619-0.85742,6.81352
	c-0.23004,2.33398-0.34985,4.67889-0.51904,7.01892c-0.03625,0.50172-0.09186,1.00251-0.11212,1.5048
	c-0.04291,1.0601-0.07489,2.12074-0.09766,3.18147c-0.00964,0.44676,0.03839,0.8952,0.02081,1.34133
	c-0.11963,3.03104,0.22693,6.02444,0.69653,9.00974c0.0954,0.60634,0.14203,1.22038,0.21173,1.8308
	c0.2077,1.81898,1.82788,2.99555,3.57605,2.58807c2.04199-0.47599,3.88794-1.3798,5.57684-2.60867
	c0.3136-0.22813,0.61566-0.49437,0.85657-0.79611c0.81165-1.01656,1.79285-1.84227,2.85437-2.57211
	c0.60846-0.41833,1.11566-0.9119,1.55884-1.50122c1.07483-1.42909,2.18298-2.83302,3.2738-4.25015
	c0.17035-0.22121,0.37024-0.43836,0.47083-0.69146c0.64368-1.61872,1.72705-3.00198,2.44391-4.57507
	c0.60895-1.33617,1.46844-2.50225,2.28796-3.69945c0.08905-0.13019,0.24847-0.21226,0.35345-0.29871
	c0.73419,0.15565,1.43542,0.29877,2.13403,0.4537c0.89709,0.19897,1.18347,0.62117,1.07574,1.57673
	c-0.20648,1.83279-1.03253,3.42641-2.06647,4.8898c-1.1958,1.69244-2.31073,3.42303-3.28296,5.25295
	c-0.76038,1.43098-1.58746,2.82652-2.3866,4.23684c-0.08258,0.14573-0.15503,0.30568-0.26874,0.42392
	c-1.32886,1.38168-2.19659,3.0912-3.31641,4.61536c-0.94318,1.28363-1.87018,2.63239-3.29175,3.52893
	c-0.64337,0.40572-1.15222,1.05779-1.64532,1.66081c-0.75409,0.92216-1.62653,1.68513-2.64899,2.28675
	c-0.24066,0.14156-0.47705,0.29311-0.7016,0.45872c-1.84528,1.36105-3.96228,2.03214-6.18665,2.40384
	c-1.36377,0.22791-2.66772-0.17256-3.94891-0.55721c-0.74457-0.22354-1.48773-0.52748-2.15179-0.92767
	c-1.53864-0.92719-2.67786-2.2224-2.99579-4.0435c-0.34583-1.98052-0.61829-3.97534-0.86804-5.97079
	c-0.52966-4.23279-0.42047-8.47774-0.17047-12.72298c0.16742-2.84309,0.31287-5.68769,0.50757-8.5289
	c0.09924-1.44936,0.29205-2.89211,0.42664-4.33933c0.02966-0.31889-0.00818-0.64407-0.01404-0.92337
	c-0.43854-0.19751-0.65997,0.02249-0.76611,0.26469c-1.01025,2.30418-2.5838,4.30861-3.49689,6.66943
	c-0.46191,1.19418-1.09338,2.32309-1.65619,3.4776c-0.12201,0.25021-0.24658,0.5106-0.42432,0.72034
	c-1.38739,1.63781-2.37341,3.51131-3.24445,5.45493c-0.06805,0.15188-0.13293,0.32282-0.24878,0.43295
	c-1.24438,1.18346-1.89172,2.7513-2.73322,4.19555c-0.36346,0.62404-0.78009,1.21727-1.17499,1.82289
	c-0.12195,0.18697-0.27533,0.35689-0.37476,0.55452c-1.0072,2.00039-2.30652,3.82072-3.5022,5.7049
	c-0.05975,0.09422-0.09442,0.20812-0.16669,0.29005c-1.87872,2.13234-3.46881,4.52126-5.77081,6.27582
	c-2.39087,1.82228-2.68774,2.00267-5.57996,2.9026c-1.44525,0.44971-2.87506,0.36446-4.29938-0.0134
	c-0.35663-0.0946-0.71832-0.32938-0.97986-0.59579c-1.21576-1.23869-2.32159-2.57364-3.27789-4.02473
	c-0.18127-0.27509-0.29742-0.59933-0.40863-0.91328c-0.69043-1.94883-1.40723-3.8896-2.03851-5.85765
	c-0.28809-0.89807-0.40021-1.85249-0.59448-2.78085c-0.06824-0.32619-0.133-0.6539-0.22266-0.97439
	c-0.02722-0.09713-0.13263-0.17232-0.27362-0.34486c-0.20306,0.12353-0.47101,0.21072-0.62677,0.39346
	c-1.12195,1.31597-2.21936,2.65284-3.32941,3.97901c-0.17889,0.21367-0.35217,0.45225-0.57916,0.60163
	c-0.67419,0.4436-1.1543,1.03593-1.53589,1.7377c-0.15692,0.28854-0.37036,0.58725-0.63507,0.76944
	c-1.4361,0.98842-2.33826,2.56992-3.86469,3.45267c-0.09485,0.05486-0.18555,0.13373-0.24982,0.22208
	c-1.31653,1.81061-3.34985,2.59067-5.24573,3.49818c-2.02081,0.96725-4.20355,1.0351-6.40002,0.51904
	c-0.82233-0.19319-1.3559-0.73042-1.89117-1.3094c-1.867-2.01956-3.4035-4.2826-4.91376-6.56995
	c-0.50006-0.75732-0.9151-1.54937-1.16779-2.4033c-0.53961-1.82361-0.90356-3.68837-1.05219-5.5887
	c-0.01721-0.21873,0.02881-0.44394,0.05792-0.66453c0.25641-1.9378,0.50018-3.8775,0.77802-5.81226
	c0.36591-2.54803,0.97229-5.04235,1.77643-7.48676c0.48859-1.48495,0.97034-2.97406,1.52344-4.43543
	c1.22772-3.24413,2.33954-6.52417,3.30847-9.85555c0.29529-1.01536,0.7644-1.97946,1.13934-2.97253
	c0.71045-1.88152,1.43628-3.75797,2.10004-5.65598c0.21887-0.62576,0.28717-1.30835,0.38763-1.97053
	c0.20972-1.3817,0.41461-2.76469,0.58258-4.15186c0.09583-0.79102-0.27441-1.29513-1.04272-1.46388
	c-0.37708-0.08285-0.77618-0.10505-1.16376-0.0946c-2.3562,0.06339-4.69391-0.17154-7.01959-0.48891
	c-1.36224-0.18592-2.67499,0.01868-3.99976,0.22369c-0.48328,0.07476-0.79102,0.38716-0.98688,0.82085
	c-1.33423,2.95419-2.67731,5.90447-3.99042,8.86799c-0.15051,0.3397-0.19257,0.75518-0.18243,1.13275
	c0.02332,0.86469-0.20819,1.6395-0.5907,2.40722c-0.57257,1.14916-1.0799,2.33076-1.61823,3.49709
	c-0.32672,0.70783-0.63989,1.42287-0.99396,2.1169c-0.58356,1.14357-1.18481,2.2785-1.79858,3.40617
	c-0.48047,0.88263-0.96631,1.76417-1.49493,2.61826c-0.62134,1.00388-1.09314,2.07118-1.51904,3.16713
	c-0.26245,0.6752-0.56873,1.33504-0.88586,1.98693c-0.65942,1.35561-1.33643,2.70267-2.01263,4.05003
	c-0.14966,0.29828-0.30322,0.59919-0.49408,0.87146c-0.90106,1.28504-1.71985,2.61288-2.30316,4.0788
	c-0.14307,0.35951-0.33563,0.71761-0.57947,1.01575c-1.42078,1.73696-2.41821,3.74883-3.66882,5.59544
	c-1.12756,1.66491-2.18573,3.38297-3.40765,4.97547c-0.74561,0.97166-1.57776,1.87336-2.21259,2.9334
	c-0.16547,0.27631-0.43701,0.53205-0.72021,0.68659c-0.75751,0.41335-1.32269,1.00919-1.8429,1.67814
	c-0.58704,0.75496-1.31476,1.35712-2.1217,1.87686c-1.03345,0.66557-2.03693,1.37749-3.05884,2.06113
	c-0.23077,0.15437-0.46973,0.32368-0.73016,0.40198c-1.23083,0.36998-2.45795,0.76596-3.70959,1.05034
	c-2.57196,0.58438-4.56854-0.42845-6.23474-2.33995c-1.6004-1.83594-2.26605-4.08307-2.867-6.35723
	c-0.74213-2.80869-0.61432-5.65009-0.23053-8.49455c0.17938-1.32961,0.35431-2.65984,0.52173-3.99099
	c0.02686-0.21361,0.00372-0.43351,0.00372-0.5988c-0.3327-0.22586-0.50232-0.05635-0.60565,0.12746
	c-0.90143,1.6033-2.09833,3.02853-2.96399,4.63697c-1.38641,2.57603-3.25903,4.79053-4.93842,7.14961
	c-0.29108,0.40891-0.56689,0.8294-0.8349,1.25389c-0.29834,0.47253-0.52399,1.00223-0.87775,1.4266
	c-1.89526,2.27338-3.77191,4.56055-6.19977,6.32458c-1.1554,0.83952-2.41174,1.42226-3.76141,1.78596
	c-1.47809,0.39836-2.84814,0.04222-4.16016-0.7583c-1.67139-1.01985-2.95056-2.43439-3.89606-4.07347
	c-0.74048-1.28365-1.40436-2.66967-1.55841-4.21574c-0.07727-0.7756-0.27795-1.5381-0.3927-2.311
	c-0.29492-1.98634-0.63788-3.96861-0.84088-5.96478c-0.2348-2.30873,0.23846-4.5648,0.77545-6.79802
	c0.5094-2.11843,1.07593-4.22342,1.56262-6.34689c0.43884-1.91459,1.09204-3.75574,1.76392-5.59371
	c0.20734-0.56705,0.47058-1.12457,0.3396-1.72784c-0.57025-0.2523-0.95361,0.05651-1.30341,0.27901
	c-1.03101,0.65588-2.15387,0.86274-3.35083,0.88793c-1.45142,0.03056-2.90216,0.18225-4.35211,0.1683
	c-1.05487-0.01014-2.11694-0.15334-3.1582-0.33685c-0.5343-0.09416-1.06317-0.35114-1.53564-0.63303
	c-0.76562-0.45679-1.263-1.13761-1.13245-2.0807c0.09479-0.68528-0.12335-1.19853-0.61615-1.63847
	c-0.76587-0.6836-1.21783-1.59316-1.75317-2.44322c-0.53015-0.84172-0.87927-0.84471-1.44885,0.00502
	c-0.21655,0.3231-0.39874,0.67332-0.56158,1.02725c-0.21008,0.45682-0.40942,0.92156-0.57062,1.39737
	c-0.47137,1.39127-1.17334,2.6583-2.04755,3.82954c-0.50903,0.68202-0.84247,1.43652-1.13953,2.22811
	c-0.27271,0.72653-0.65063,1.41476-0.99994,2.11094c-0.22546,0.44928-0.52496,0.86472-0.71918,1.32574
	c-1.07373,2.54939-2.69855,4.76694-4.30011,6.98019c-1.63629,2.26125-3.19305,4.58567-5.00757,6.71861
	c-0.46179,0.54282-0.7019,1.27062-1.14594,1.8328c-1.4173,1.79426-2.6593,3.72614-4.2309,5.39973
	c-0.18964,0.20198-0.3573,0.43572-0.48834,0.67989c-0.83795,1.56107-2.14178,2.73802-3.44788,3.84507
	c-1.48059,1.25504-2.91718,2.62721-4.66577,3.51149c-2.94598,1.48984-6.03754,1.97838-9.25763,0.93434
	c-0.25989-0.08427-0.50226-0.23969-0.73389-0.39101c-2.16779-1.4162-3.7049-3.31975-4.67285-5.74185
	c-1.12946-2.82618-1.43848-5.75622-1.16376-8.72901c0.25659-2.77712,0.73102-5.53551,1.46533-8.23885
	c0.17285-0.63638,0.36426-1.2822,0.27789-1.91235c-0.30994-0.2124-0.49664-0.06909-0.63055,0.09815
	c-0.55774,0.6965-1.16333,1.36668-1.63019,2.12142c-0.82855,1.33942-1.79041,2.5603-2.88507,3.68576
	c-0.27191,0.27956-0.54388,0.56996-0.75671,0.89422c-1.078,1.64265-2.39856,3.08751-3.67639,4.56794
	c-0.32874,0.38089-0.6933,0.74094-0.96191,1.16135c-0.45923,0.71873-1.01929,1.32167-1.70721,1.82104
	c-0.22339,0.16219-0.40814,0.38175-0.59552,0.58865c-0.89886,0.99219-1.7807,2.00014-2.69427,2.97846
	c-0.34082,0.36504-0.75201,0.66427-1.13031,0.99446c-0.41956,0.36625-0.83844,0.73325-1.25684,1.10089
	c-0.04187,0.03678-0.0752,0.08324-0.11707,0.11998c-1.42419,1.24843-3.03461,2.26958-4.39221,3.59924
	c-1.52887,0.68295-3.03516,1.45724-4.7608,1.48903c-2.23633,0.04121-4.03394-0.83534-5.24768-2.73466
	c-2.95099-4.61772-4.46185-9.59863-3.74579-15.13405c0.10712-0.82823,0.09619-1.67303,0.11279-2.51067
	C518.67419,112.54119,518.56543,112.34841,518.51282,112.17113z M445.45175,83.82745
	c-0.15881-1.74184-0.40793-3.79572-0.5184-5.85699c-0.13855-2.58529-0.93094-4.87198-2.43176-7.0077
	c-1.31299-1.8684-2.93811-3.01163-5.20053-3.25649c-0.88794-0.09611-1.77261-0.22584-2.6619-0.30529
	c-1.26801-0.11329-2.38809,0.22979-3.47089,0.94379c-2.18826,1.44294-3.79129,3.47764-5.43597,5.4224
	c-1.93533,2.28844-4.03473,4.47538-5.38245,7.23704c-0.57928,1.18706-1.55432,2.17404-1.91299,3.50488
	c-0.08405,0.3119-0.33853,0.5751-0.49692,0.87022c-0.79123,1.47424-1.75351,2.85817-2.34689,4.43697
	c-0.39297,1.04552-0.7735,2.09589-1.18192,3.13535c-0.34723,0.88365-0.82831,1.72739-1.07248,2.63651
	c-0.76801,2.85938-1.33392,5.7656-1.77374,8.69414c-0.06589,0.43873-0.04633,0.89225-0.04428,1.33881
	c0.0033,0.72563,0.05356,1.45197,0.03229,2.17652c-0.03796,1.29262,0.10922,2.56116,0.33279,3.83223
	c0.1637,0.93057,0.19724,1.88327,0.32526,2.82114c0.09021,0.66084,0.12833,1.36212,0.3862,1.9607
	c0.90378,2.09805,1.83591,4.16017,3.51483,5.83656c1.3627,1.36066,2.97894,2.1375,4.73209,2.7091
	c0.61826,0.20157,1.32224,0.15329,1.98871,0.18616c0.21436,0.01057,0.45056-0.04758,0.64798-0.13748
	c0.70526-0.3211,1.39276-0.68122,2.09756-1.00339c0.51776-0.23667,0.97086-0.50108,1.23218-1.06088
	c0.25418-0.54443,0.76685-0.90766,1.3551-0.79639c1.01068,0.1912,1.7211-0.22121,2.39832-0.87136
	c0.27914-0.26797,0.64322-0.44537,0.93991-0.69774c0.33759-0.2872,0.7215-0.56342,0.94879-0.9292
	c0.97241-1.56486,1.89771-3.15912,2.83081-4.74815c0.11157-0.18997,0.17712-0.40995,0.24469-0.62215
	c0.14496-0.45537-0.00366-0.79115-0.41254-0.95567c-0.10349-0.04164-0.21008-0.07882-0.31845-0.10458
	c-2.31882-0.55178-4.35834-1.64054-6.27426-3.05357c-1.64844-1.21575-2.86182-2.80236-4.12476-4.3567
	c-0.63071-0.77625-0.58902-1.66047-0.16165-2.52417c0.17218-0.34797,0.40149-0.67204,0.63495-0.9845
	c0.63452-0.84926,1.2717-1.69727,1.93314-2.52556c0.69724-0.87312,1.40463-1.73967,2.14252-2.57836
	c0.86642-0.98477,1.11469-1.04069,2.30954-0.42683c1.10062,0.56544,2.10114,1.28386,2.78796,2.34798
	c0.73892,1.14494,1.76175,2.01776,2.76306,2.90704c0.86377,0.76717,1.94101,1.08563,3.05295,1.27892
	c0.55502,0.09647,1.0072-0.13088,1.24597-0.63927c0.35583-0.75773,0.69904-1.52508,0.98605-2.31082
	c1.73633-4.75369,2.57751-9.7091,3.2652-14.69662C445.42624,85.15794,445.41211,84.65049,445.45175,83.82745z M771.89392,73.56026
	c-1.93268,0.98611-3.48212,0.61476-5.01288-0.04166c-0.25671-0.11008-0.51074-0.22734-0.76074-0.35193
	c-1.7525-0.87362-3.5376-1.66071-5.43597-2.17433c-0.64557-0.17465-1.28394-0.39535-1.89966-0.65627
	c-0.70453-0.29859-1.39502-0.33108-2.12671-0.13412c-1.18671,0.31944-2.3833,0.60177-3.57178,0.91472
	c-0.2674,0.07038-0.53143,0.17867-0.7749,0.31047c-0.88428,0.47897-1.77753,0.94585-2.63116,1.47559
	c-0.56451,0.35029-1.12354,0.74487-1.58685,1.21612c-1.33612,1.35909-2.4505,2.90289-3.40839,4.54383
	c-0.78754,1.34903-1.40533,2.79765-2.20154,4.14095c-1.19751,2.02029-2.35724,4.04613-3.26855,6.2231
	c-0.38708,0.92484-0.78491,1.83764-1.10938,2.78992c-0.48572,1.42531-0.95813,2.86847-1.60986,4.22025
	c-0.68164,1.41386-1.21039,2.88644-1.70056,4.35493c-0.92725,2.77788-1.03583,5.69254-0.97913,8.60536
	c0.00427,0.22299,0.04297,0.44514,0.05896,0.66815c0.11224,1.56628,0.42578,3.09628,0.82013,4.61267
	c0.53326,2.05055,0.93225,4.1536,2.34436,5.85274c0.06927,0.08332,0.08655,0.20786,0.14801,0.29978
	c1.36389,2.03857,2.1001,2.14213,4.16321,1.08278c0.04968-0.02552,0.10077-0.0509,0.14465-0.08469
	c1.5899-1.22235,3.34406-2.25368,4.52686-3.94751c0.25458-0.36448,0.54346-0.7252,0.88391-1.00587
	c1.09503-0.90278,1.89966-2.04343,2.69501-3.19158c0.53967-0.77899,1.03925-1.58577,1.55292-2.38264
	c0.48444-0.7516,0.96362-1.50654,1.4455-2.25982c0.48102-0.75187,0.97137-1.49794,1.44153-2.25652
	c0.58801-0.94887,1.15564-1.91033,1.73938-2.86185c0.52551-0.85649,1.11548-1.67849,1.57806-2.5672
	c0.54541-1.04794,1.14948-2.03681,1.92902-2.93085c0.8089-0.92758,1.4621-1.94984,1.90894-3.1243
	c0.3548-0.93232,0.90009-1.79454,1.38678-2.67348c0.35168-0.63513,0.79987-1.22103,1.11108-1.87373
	c0.8197-1.71915,1.83746-3.31603,2.80963-4.94823c1.22412-2.05505,2.19324-4.26697,3.19543-6.44658
	c0.34802-0.75689,0.62341-1.54488,1.03577-2.27924C771.22058,75.81433,771.56604,74.88595,771.89392,73.56026z"/>
<path class="st2" d="M397.99689,36.99007c-0.65408-0.36963-1.32526-0.41813-1.99332-0.41372
	c-1.61853,0.01067-3.21878-0.34841-4.8476-0.19452c-0.54666,0.05162-1.11517-0.06395-1.6673-0.14614
	c-1.76831-0.2633-3.52982-0.57519-5.30145-0.81211c-1.10349-0.14758-2.22031-0.19714-3.33167-0.28423
	c-1.11276-0.08723-2.22372-0.09362-3.34189-0.04568c-1.03375,0.04435-1.96738,0.32717-2.8912,0.7576
	c-0.60028,0.27969-1.23441,0.51585-1.87781,0.66853c-1.96765,0.4669-3.86407,1.07133-5.57248,2.20939
	c-0.75549,0.50329-1.42981,1.07621-2.02496,1.7426c-0.64978,0.72753-1.38293,1.28949-2.34628,1.52888
	c-0.72186,0.17939-1.3335,0.57578-1.87,1.07805c-1.46768,1.3741-2.98215,2.70064-4.12186,4.3898
	c-0.4357,0.64568-0.9527,1.24609-1.49164,1.81083c-1.9483,2.04154-3.28156,4.49889-4.75858,6.86637
	c-1.39606,2.23774-2.24734,4.74521-3.59833,6.99979c-0.05719,0.09545-0.0976,0.2011-0.14438,0.30267
	c-0.81799,1.77615-1.8848,6.25862-1.97293,8.27073c-0.02692,0.61428-0.01245,1.23676-0.11014,1.8404
	c-0.2811,1.73695-0.099,3.45905,0.12512,5.17638c0.10052,0.7703,0.25424,1.55298,0.52429,2.27769
	c0.50696,1.3604,1.08719,2.69603,1.69559,4.01491c0.27817,0.60307,0.67737,1.15437,1.05475,1.70654
	c0.38849,0.56843,0.88782,1.00601,1.60638,1.11362c0.64771,0.09702,1.11969,0.4645,1.5155,0.96497
	c0.27682,0.34998,0.60037,0.66404,0.86536,1.02205c0.26364,0.35625,0.52994,0.73057,0.39749,1.33388
	c-0.96103,0.85923-2.16943,1.41842-3.50339,1.64359c-1.47906,0.24968-2.92487,0.68763-4.44022,0.75135
	c-0.48819,0.02055-0.98282,0.20751-1.44772,0.38749c-0.6821,0.26406-1.28674,0.14877-1.93384-0.14436
	c-1.10229-0.49934-1.98221-1.23152-2.68143-2.21058c-1.14087-1.59752-2.13635-3.27996-2.897-5.08829
	c-0.64877-1.54248-1.32858-3.0687-1.68497-4.72952c-0.45126-2.10309-0.50259-4.19431-0.34857-6.33128
	c0.17398-2.41334,0.71875-4.74732,1.22787-7.0938c0.10623-0.48957,0.24118-0.98225,0.43781-1.44143
	c1.36377-3.18474,2.6073-6.42583,4.31955-9.45044c0.71609-1.26493,1.42902-2.53457,2.2153-3.75575
	c0.54236-0.84232,1.19653-1.61442,1.82156-2.40135c0.97266-1.22458,1.96054-2.43712,2.94632-3.65121
	c2.05017-2.52496,4.27744-4.86944,6.91693-6.79572c0.90237-0.65851,1.8031-1.32029,2.68454-2.00629
	c1.77158-1.37881,3.70758-2.50434,5.6619-3.58341c2.63962-1.45749,5.29697-2.89697,8.02597-4.1748
	c3.39719-1.5907,6.91251-2.88025,10.68289-3.32191c0.71762-0.08406,1.43362-0.25459,2.12634-0.4646
	c1.9379-0.58752,3.8884-0.96755,5.93515-0.81718c0.99774,0.07329,2.01013-0.08171,3.0145-0.06194
	c0.89087,0.01755,1.78394,0.10131,2.66867,0.21375c1.49469,0.18995,2.9783,0.48265,4.47678,0.62213
	c0.99512,0.09262,2.00989,0.02814,3.01263-0.02608c2.52585-0.13658,5.02008,0.20878,7.52075,0.45186
	c2.16891,0.21082,4.33075,0.5071,6.50296,0.66738c1.95279,0.14407,3.90842,0.07071,5.83478-0.37057
	c0.43201-0.09897,0.88269-0.11681,1.32492-0.1708c0.60703-0.07413,1.21292-0.16099,1.82162-0.21709
	c0.71994-0.06634,1.4454-0.17455,2.16306-0.14278c1.62701,0.07202,3.23907,0.0865,4.82336-0.37272
	c0.48297-0.14002,0.99356-0.27162,1.46625,0.01874c0.74304,0.45641,1.49704,0.34245,2.26245,0.09903
	c0.1597-0.0508,0.31192-0.12773,0.47354-0.16959c0.72498-0.18772,1.32199,0.35916,1.22119,1.12647
	c-0.08975,0.68294-0.36642,1.30837-0.80975,1.81642c-0.91782,1.05193-1.88306,2.06929-3.20541,2.62855
	c-0.47763,0.202-0.84799,0.50182-1.19614,0.88236c-1.59506,1.74344-3.6723,2.73645-5.84445,3.48315
	c-1.08881,0.37428-2.28296,0.4892-3.46927,0.44357c-1.16699-0.04486-2.33652-0.02048-3.50473-0.03945
	c-0.38895-0.00631-0.77719-0.05328-1.16583-0.08078c-0.61243-0.04332-1.22504-0.08432-1.83734-0.12928
	c-0.83331-0.06122-1.66647-0.12492-2.49963-0.18819c-0.16714-0.0127-0.33395-0.03926-0.50113-0.04092
	c-2.51395-0.02497-5.02789-0.05621-7.54193-0.06385c-0.79572-0.00241-0.82666,0.06456-1.11777,0.93166
	c-0.1416,0.42179-0.30051,0.84179-0.49634,1.24062c-0.86197,1.75558-1.78534,3.48246-2.60184,5.25861
	c-1.14297,2.48631-2.20862,5.00814-3.31235,7.51257c-0.24759,0.56181-0.5271,1.10961-0.77267,1.67226
	c-0.983,2.25222-1.9603,4.50697-2.9353,6.76267c-0.24313,0.56248-0.45367,1.13538-0.41418,1.75982
	c0.49692,0.52752,1.14426,0.64407,1.72391,0.56566c1.52887-0.20679,3.00565,0.17648,4.50671,0.25331
	c1.11548,0.05713,2.22961,0.14055,3.34424,0.2141c1.67255,0.1104,3.34512,0.22051,5.0174,0.33511
	c0.39597,0.02712,0.75333,0.12273,1.0524,0.43357c0.77582,0.80637,0.858,1.26096,0.20856,2.19073
	c-1.22058,1.74741-2.19223,3.63577-3.19986,5.5049c-0.15903,0.29501-0.32062,0.58926-0.49496,0.87536
	c-0.55179,0.90534-1.33997,1.29631-2.40735,1.13473c-0.66275-0.10029-1.33319-0.15131-2.0011-0.21487
	c-0.38882-0.03699-0.78967-0.12461-1.16745-0.06921c-1.34433,0.19704-2.67142,0.08836-4.00275-0.10336
	c-0.88562-0.12754-1.77338-0.14175-2.67212-0.09026c-0.71698,0.04108-1.44379-0.0752-2.16525-0.13371
	c-0.2775-0.02248-0.55109-0.09866-0.82855-0.11515c-0.73099-0.04348-1.03564,0.14375-1.31955,0.77823
	c-0.04562,0.10192-0.09045,0.20507-0.12436,0.31125c-1.2594,3.94501-2.92783,7.73392-4.47406,11.56697
	c-0.92105,2.28327-1.71088,4.60165-2.45941,6.94144c-0.25424,0.79478-0.6709,1.53669-0.94122,2.32739
	c-1.37573,4.02423-3.21597,7.86138-4.73685,11.82687c-0.8399,2.18992-1.68607,4.37799-2.57462,6.54834
	c-0.29425,0.71869-0.72919,1.37981-1.10101,2.06659c-0.21179,0.3912-0.47122,0.76344-0.63141,1.17452
	c-0.66284,1.70102-1.73685,3.10865-3.01337,4.38675c-0.55237,0.55302-1.08441,1.12956-1.58722,1.72779
	c-0.35492,0.42231-0.24893,0.89262,0.24521,1.09343c0.56659,0.23022,1.15015,0.4697,1.74838,0.56158
	c1.82004,0.27953,3.65054,0.49123,5.47733,0.72658c0.66867,0.08614,1.3295,0.16859,1.94632-0.25093
	c0.16513-0.1123,0.45499-0.16886,0.63721-0.10567c0.68033,0.23595,1.39874,0.412,1.93805,0.94505
	c1.05099,1.03876,1.09552,2.29104-0.09698,3.16361c-0.94061,0.68832-1.54108,1.59866-2.21292,2.4803
	c-0.40701,0.53409-0.81424,1.04616-1.38458,1.43481c-0.35733,0.2435-0.63672,0.61583-0.91336,0.96059
	c-0.73669,0.91797-1.62231,1.44028-2.85208,1.51436c-1.52234,0.09167-3.00934-0.02861-4.50055-0.28146
	c-0.49167-0.08336-1.02094-0.24033-1.48279-0.13766c-0.76212,0.1694-1.39651-0.03046-2.10611-0.24599
	c-1.86929-0.56789-3.77258-1.02492-5.66559-1.51338c-1.0712-0.27643-2.12735-0.06369-3.13885,0.25607
	c-1.35175,0.42726-2.64896,0.22241-3.95572-0.13315c-0.21454-0.05836-0.43155-0.127-0.62802-0.22844
	c-0.39828-0.2056-0.65845-0.68489-0.54401-1.1282c0.12427-0.48129,0.27069-0.98065,0.52551-1.40044
	c1.24554-2.05191,2.3316-4.20012,3.81012-6.11379c0.51395-0.66521,1.03851-1.10013,1.87915-1.23682
	c1.15628-0.18803,2.29831-0.46702,3.44275-0.72356c0.6553-0.1469,1.28455-0.3507,1.85684-0.73822
	c0.6203-0.42004,1.13669-0.91212,1.41376-1.61225c0.4931-1.24599,1.06226-2.47261,1.42761-3.7563
	c0.87433-3.07197,2.05246-6.02471,3.2865-8.96131c0.45407-1.08052,0.87003-2.17723,1.29547-3.26964
	c0.79092-2.03089,1.57889-4.06293,2.36121-6.09715c0.16022-0.41661,0.31174-0.83887,0.43054-1.26868
	c0.79062-2.86061,1.87741-5.61479,2.93018-8.38502c1.25052-3.29061,2.38608-6.62492,3.57416-9.93932
	c0.20703-0.5776,0.41928-1.15363,0.64407-1.72447c0.20468-0.51978,0.45782-1.02178,0.6405-1.54867
	c0.53918-1.55496,0.29367-1.81216-1.1445-2.00605c-1.10922-0.14954-2.207-0.33429-3.33145-0.31973
	c-0.44458,0.00578-0.90546-0.00375-1.33243-0.11137c-1.32138-0.33302-2.66183-0.34216-4.00259-0.28088
	c-2.07611,0.09492-4.12851-0.13879-6.18063-0.37958c-1.35178-0.15859-2.17056-0.62502-1.35144-2.37827
	c0.47287-1.01216,0.87955-2.0551,1.32803-3.07891c0.64813-1.47952,1.70352-2.46735,3.34506-2.74277
	c0.27429-0.04602,0.582-0.07003,0.80536-0.21234c1.09467-0.69753,2.34616-0.67569,3.55835-0.81397
	c1.38766-0.15826,2.78012-0.27944,4.17291-0.38529c0.49524-0.03763,0.99802,0.00598,1.49643,0.03111
	c2.1199,0.1069,4.23941,0.22215,6.35922,0.33122c0.57394,0.02952,0.94174-0.25834,1.17856-0.76516
	c0.40234-0.8611,0.84094-1.70583,1.22467-2.57496c0.94797-2.1469,1.86078-4.30935,2.81094-6.45528
	c1.46988-3.31968,2.97952-6.61792,4.65457-9.84461c0.95016-1.83035,2.0777-3.41888,3.79285-4.58205
	C397.65704,37.97464,398.03918,37.67382,397.99689,36.99007z"/>
</svg>
