<?xml version="1.0" encoding="utf-8"?>
<!-- Generator: Adobe Illustrator 25.4.1, SVG Export Plug-In . SVG Version: 6.00 Build 0)  -->
<svg version="1.1" id="Layer_1" xmlns="http://www.w3.org/2000/svg" xmlns:xlink="http://www.w3.org/1999/xlink" x="0px" y="0px"
	 viewBox="0 0 449.85141 188.99892" style="enable-background:new 0 0 449.85141 188.99892;" xml:space="preserve">
<style type="text/css">
	.st0{fill:#EFEDE6;}
	.st1{fill:#EFEDE5;}
	.st2{fill:#B48039;}
	.st3{fill:#AD8246;}
	.st4{fill:none;stroke:#B48039;stroke-width:0.99892;stroke-miterlimit:10;}
	.st5{fill:#FF00FF;}
	.st6{fill:#00FFFF;}
	.st7{fill:#606060;}
	.st8{fill:#A7834F;}
</style>
<g>
	<path class="st2" d="M254.24557,93.12436c-0.24063,0.13328-0.55484,0.20908-0.71065,0.4086
		c-1.83443,2.34918-4.1252,4.24054-6.257,6.2912c-0.24084,0.23171-0.46222,0.48685-0.67035,0.74879
		c-0.70123,0.88255-1.53635,1.59747-2.46179,2.24997c-0.95369,0.67239-1.81924,1.47923-2.6731,2.28078
		c-0.65872,0.61839-1.34216,1.16876-2.16602,1.55531c-0.60565,0.2842-1.19304,0.61675-1.75868,0.97495
		c-1.4781,0.93597-3.08313,1.55935-4.76219,2.01468c-0.26974,0.07314-0.53395,0.16637-0.80238,0.24458
		c-0.56233,0.16385-1.00526,0.47259-1.27373,1.00957c-1.28621,2.57243-3.25977,4.65678-4.97859,6.91653
		c-1.00748,1.32453-2.24091,2.47724-3.37378,3.70624c-0.07568,0.08208-0.17212,0.14692-0.23901,0.23491
		c-1.32986,1.7495-3.08379,3.06145-4.68471,4.53019c-0.32614,0.29921-0.70348,0.55641-1.09111,0.77209
		c-0.92645,0.51546-1.89761,0.95412-2.80351,1.50185c-0.66394,0.40146-1.27277,0.90318-1.87016,1.40321
		c-0.68489,0.57326-1.32301,1.20203-1.99606,1.78995c-0.24974,0.21817-0.52216,0.42603-0.81642,0.57495
		c-1.34619,0.68134-2.67726,1.40295-4.06456,1.98997c-1.49597,0.633-3.08823,0.52821-4.61856,0.14023
		c-1.52403-0.3864-2.92912-1.08179-4.13596-2.13197c-1.26776-1.10323-2.57869-2.18187-3.39165-3.68106
		c-1.09036-2.01071-2.22704-4.00304-2.9586-6.19061c-0.3008-0.89946-0.68066-1.77331-1.04794-2.64902
		c-0.08104-0.19326-0.26094-0.34508-0.36365-0.47568c-0.41937-0.04201-0.57574,0.20116-0.69511,0.45155
		c-0.72247,1.51513-1.40285,3.04551-1.84877,4.67291c-0.5464,1.99388-1.01085,4.01421-1.81439,5.92963
		c-0.25902,0.61732-0.52989,1.22964-0.79094,1.84612c-0.43379,1.02441-0.82555,2.06097-1.19411,3.11374
		c-0.67902,1.93959-1.42526,3.85533-2.0313,5.82356c-0.57417,1.86452-1.65071,3.54794-1.99797,5.50192
		c-0.07689,0.43259-0.28604,0.84627-0.46506,1.25519c-0.40404,0.9229-0.79733,1.84456-0.98648,2.84514
		c-0.07147,0.37791-0.26256,0.73285-0.3956,1.09955c-0.41856,1.15378-0.80888,2.31876-1.26312,3.45825
		c-0.26738,0.67068-0.59546,1.32532-0.96834,1.9437c-0.43752,0.7256-0.77869,1.47501-0.9971,2.29541
		c-0.30164,1.13319-0.83487,2.17146-1.31653,3.23924c-0.89493,1.98393-2.18913,3.77003-2.85358,5.86093
		c-0.22885,0.72017-0.66432,1.28519-1.31136,1.68163c-1.618,0.99132-3.20317,2.0432-4.86835,2.94768
		c-0.87144,0.47334-1.84671,0.7587-2.68324,1.32805c-0.17195,0.11703-0.42424,0.12833-0.64357,0.16086
		c-0.44569,0.0661-0.77992-0.21588-0.77522-0.65288c0.01289-1.194,0.30969-2.30228,0.85222-3.37917
		c0.9287-1.8434,1.77655-3.72758,2.65332-5.59702c0.0946-0.20171,0.18921-0.41327,0.22705-0.63016
		c0.22525-1.29123,0.90044-2.39796,1.41457-3.57394c0.58057-1.32799,1.10545-2.68298,1.59486-4.04764
		c0.94232-2.62764,1.83846-5.27182,2.76288-7.90593c0.27748-0.79066,0.59767-1.5663,0.87686-2.35637
		c0.80051-2.26535,1.59714-4.53214,2.37964-6.80376c0.23631-0.68607,0.41812-1.39079,0.63101-2.08508
		c0.29454-0.96049,0.54503-1.93826,0.90295-2.87479c0.77876-2.03745,1.4462-4.10251,2.00786-6.21349
		c0.51616-1.94019,1.19827-3.84043,1.8864-5.72944c0.66908-1.83666,1.47029-3.62484,2.15742-5.45536
		c1.37479-3.66275,2.70984-7.3404,4.06412-11.01086c0.6189-1.67728,1.24901-3.35043,1.86586-5.02848
		c0.92558-2.51768,1.8446-5.03775,2.76515-7.55728c0.4593-1.25719,1.15227-2.42697,1.40448-3.76183
		c0.04967-0.26285,0.11388-0.52294,0.22046-1.00751c-0.35686,0.20158-0.55711,0.26447-0.68649,0.39668
		c-0.50713,0.51812-1.05524,1.01273-1.47401,1.59776c-1.89064,2.64108-4.06911,5.04318-6.16405,7.51443
		c-0.93863,1.1072-1.90967,2.18706-2.87291,3.27319c-0.25914,0.29224-0.52162,0.58837-0.82022,0.83762
		c-1.50046,1.25248-2.99617,2.51189-4.53221,3.71968c-0.47461,0.37321-1.04457,0.67174-1.61823,0.86094
		c-0.76349,0.25182-1.41647,0.64992-2.03589,1.13464c-1.25963,0.98569-2.69011,1.56475-4.26262,1.83439
		c-0.49062,0.08413-0.96683,0.26118-1.44386,0.41382c-1.32925,0.42535-2.64937,0.88066-3.98651,1.2792
		c-0.41438,0.12351-0.87172,0.10305-1.3734,0.15516c-0.20059,0.29716-0.41689,0.61769-0.63326,0.93816
		c-0.68573,1.01554-1.34911,2.02837-2.28568,2.86812c-0.64891,0.58182-1.06483,1.41991-1.60439,2.12863
		c-0.33563,0.44085-0.66344,0.90323-1.07188,1.27007c-1.11911,1.00518-2.28201,1.96146-3.42204,2.94354
		c-1.48073,1.27554-2.95599,2.55744-4.43417,3.83596c-0.08453,0.07312-0.18793,0.12864-0.25926,0.21223
		c-1.4299,1.67592-3.43921,2.65395-5.01151,4.15887c-0.15759,0.15086-0.35736,0.28447-0.56204,0.35501
		c-1.35335,0.46645-2.38379,1.43724-3.51273,2.24796c-0.37465,0.26906-0.71547,0.4698-1.19377,0.51347
		c-1.22139,0.11153-2.43285,0.35173-3.65526,0.42706c-1.51347,0.09328-3.01368-0.08687-4.47442-0.53101
		c-0.53487-0.16264-1.07053-0.33722-1.61826-0.44014c-1.42276-0.2673-2.60427-0.98734-3.68114-1.90468
		c-3.16396-2.69524-5.26076-6.05152-6.16341-10.11914c-0.25381-1.14375-0.37205-2.31698-0.5937-3.46875
		c-0.10376-0.53918-0.27718-1.07051-0.47622-1.58321c-0.08685-0.22369-0.3756-0.2635-0.57904-0.13454
		c-0.23053,0.14612-0.45229,0.33334-0.61862,0.54849c-0.54652,0.70702-1.06565,1.4352-1.59659,2.1543
		c-0.16488,0.22331-0.29704,0.49022-0.5078,0.65656c-0.63248,0.49918-1.02646,1.17348-1.44871,1.83195
		c-0.60353,0.94114-1.20061,1.88788-2.08495,2.60513c-0.08629,0.06998-0.17155,0.14893-0.23372,0.23983
		c-0.91822,1.3428-2.00816,2.52271-3.22461,3.60651c-0.49711,0.44289-0.91386,0.96259-1.51281,1.3003
		c-0.33212,0.18726-0.59285,0.49942-0.89085,0.74918c-0.68327,0.57268-1.33258,1.18271-2.19901,1.50482
		c-0.41125,0.15289-0.75142,0.48903-1.15633,0.6689c-0.60732,0.26979-1.22755,0.60324-1.87021,0.68207
		c-1.49971,0.18396-3.01138,0.13467-4.50484-0.16273c-0.90354-0.17992-1.68904-0.59959-2.35204-1.22002
		c-0.44651-0.41783-0.89051-0.86469-1.22376-1.37202c-0.8279-1.26038-1.62962-2.54165-2.36472-3.8576
		c-0.34906-0.62486-0.58974-1.33147-0.76134-2.03008c-0.42664-1.73676-0.92336-3.47365-1.13516-5.24126
		c-0.24394-2.0356-0.61771-4.08211-0.15118-6.16666c0.29108-1.30061,0.33314-2.65639,0.50045-3.9857
		c0.04166-0.33088,0.08167-0.6793,0.21499-0.97841c0.63586-1.42652,1.01981-2.94846,1.71456-4.35541
		c0.59271-1.20031,1.05944-2.4621,1.61777-3.68025c1.34966-2.94464,2.55852-5.95249,4.1149-8.80454
		c0.96259-1.76395,1.763-3.61599,2.64993-5.42175c0.83672-1.70359,1.70486-3.39185,2.53167-5.10016
		c0.34039-0.70326,0.62982-1.43342,0.90597-2.16511c0.69009-1.82844,1.37444-3.6594,2.02728-5.50134
		c0.18514-0.52239,0.29253-1.08071,0.368-1.63182c0.15091-1.10201-0.32363-1.85653-1.41696-2.12757
		c-0.91853-0.22771-1.86469-0.42194-2.80595-0.46293c-1.67296-0.07288-3.35146-0.0166-5.02765-0.01842
		c-0.6703-0.00072-1.34058-0.01674-2.01089-0.01755c-0.72581-0.00088-1.28848,0.27708-1.66297,0.93077
		c-0.7494,1.30811-1.52762,2.59332-2.18111,3.96146c-0.98488,2.06188-2.0266,4.10185-3.24744,6.04302
		c-0.7744,1.23132-1.39474,2.54156-1.98349,3.87589c-0.60703,1.37576-1.35818,2.69138-2.09685,4.00485
		c-1.28732,2.28908-2.63988,4.5417-3.91128,6.8394c-0.56717,1.025-0.9856,2.13116-1.50414,3.18446
		c-0.69021,1.402-1.41876,2.78507-2.11805,4.18267c-0.39988,0.79917-0.81746,1.5937-1.1504,2.42117
		c-0.52375,1.30175-1.13097,2.55214-1.89519,3.73122c-0.39444,0.60855-0.75986,1.24277-1.07013,1.89773
		c-0.90903,1.91894-1.76695,3.86212-2.67885,5.77965c-0.47957,1.00844-1.03169,1.98228-1.54816,2.97325
		c-0.82613,1.58514-1.69281,3.15115-2.45857,4.76499c-0.4618,0.97325-1.08917,1.81522-1.7039,2.6805
		c-0.51548,0.72559-1.04829,1.4565-1.43515,2.25228c-0.88548,1.82142-2.09474,3.43446-3.16865,5.13387
		c-0.69571,1.10094-1.77965,1.47368-3.02796,1.4557c-0.61381-0.00883-4.07954-0.40115-4.10472-1.03014
		c-0.01723-0.43039,0.02423-0.92175,0.21847-1.29192c0.88141-1.67967,1.68621-3.40077,2.81609-4.94752
		c0.72205-0.98846,1.32078-2.07006,1.93861-3.13097c1.26527-2.1727,2.5588-4.33157,3.74016-6.54968
		c0.9158-1.71952,1.80493-3.45667,2.45943-5.31061c0.34838-0.98682,0.90784-1.91744,1.48285-2.80133
		c0.73539-1.13041,1.32455-2.31141,1.84295-3.55713c0.57713-1.38688,1.27759-2.73798,2.06791-4.01588
		c0.68502-1.10764,1.24609-2.24832,1.60389-3.48795c0.23534-0.81538,0.60897-1.54585,1.03193-2.27861
		c0.97695-1.69257,1.85939-3.43941,2.81514-5.14465c0.68288-1.21838,1.36799-2.44224,2.15504-3.59328
		c0.57607-0.8425,1.0327-1.7272,1.38325-2.66954c0.64772-1.74114,1.55341-3.33875,2.58043-4.87784
		c0.27705-0.4152,0.54521-0.85597,0.70889-1.32307c0.33678-0.96099,0.80436-1.8417,1.39429-2.66477
		c0.09756-0.13611,0.22012-0.27219,0.26268-0.42708c0.51128-1.8607,1.77189-3.34189,2.55858-5.07021
		c1.06678-2.34366,2.57635-4.4379,4.27127-6.38158c0.78146-0.89616,1.68082-1.61607,2.93827-1.7638
		c1.32752-0.15596,5.39233-0.94622,6.4229-1.68191c1.38013-0.98522,2.88152-1.4393,4.53055-1.50074
		c1.28735-0.04797,2.56605,0.04437,3.83633,0.30331c1.03849,0.2117,2.09178,0.35528,3.1422,0.50291
		c1.98878,0.2795,3.50998,1.36895,4.85571,2.76766c0.23213,0.24131,0.41716,0.52933,0.65712,0.76147
		c0.98365,0.95153,1.20138,2.14895,0.95264,3.40255c-0.21618,1.08948-0.52936,2.18051-0.96184,3.20219
		c-1.08851,2.5715-2.25724,5.10943-3.42104,7.64833c-0.25259,0.55102-0.61844,1.05024-0.93406,1.57215
		c-0.0867,0.14334-0.19202,0.27639-0.26919,0.42439c-0.92941,1.78288-1.85517,3.56765-2.78179,5.35197
		c-0.15456,0.29761-0.30028,0.60016-0.46426,0.89246c-0.92917,1.65617-1.90166,3.2895-2.7822,4.97102
		c-0.69614,1.32939-1.24899,2.73321-1.92548,4.07369c-0.5528,1.09534-1.19021,2.14826-1.7979,3.21555
		c-0.35994,0.63219-0.70653,1.25867-0.85406,1.99158c-0.0979,0.48631-0.32619,0.94814-0.5119,1.41464
		c-0.41477,1.042-0.77345,2.09698-0.8503,3.22805c-0.01511,0.22231-0.01657,0.45705-0.0907,0.66204
		c-0.79083,2.187-0.59723,4.39293-0.17556,6.6129c0.16663,0.87712,0.30286,1.76389,0.3838,2.65255
		c0.13956,1.5323,0.64816,2.93493,1.36581,4.27703c0.10499,0.19633,0.24317,0.39197,0.2825,0.60345
		c0.19903,1.06974,1.05824,1.66922,1.70003,2.41873c0.32154,0.37551,0.79731,0.38606,1.2487,0.32009
		c1.11954-0.16363,2.1916-0.50548,3.11408-1.16332c1.44859-1.03301,3.08443-1.81519,4.2884-3.18307
		c0.21761-0.2472,0.50441-0.44508,0.78704-0.62114c0.68063-0.42397,1.1431-1.03916,1.63683-1.65479
		c1.39722-1.74212,2.60709-3.62471,4.06569-5.32108c0.8708-1.01274,1.65704-2.09808,2.48589-3.14716
		c0.13644-0.17271,0.26971-0.42104,0.45062-0.47269c0.71114-0.20298,0.88319-0.77708,1.08967-1.36964
		c1.08527-3.11458,2.39365-6.13486,3.86597-9.08572c1.2467-2.49867,2.44118-5.02435,3.73615-7.49757
		c0.56699-1.08289,1.32999-2.06275,1.99751-3.09357c0.33347-0.51495,0.64281-1.04565,0.98038-1.5578
		c0.39886-0.60514,0.79421-1.21477,1.23112-1.79214c0.63985-0.84552,1.34898-1.63987,1.96844-2.49936
		c1.21246-1.68227,2.58168-3.22496,4.02492-4.70764c0.5453-0.5602,1.0936-1.11961,1.60501-1.71014
		c0.80727-0.93217,1.66023-1.80521,2.63222-2.57493c0.78653-0.62285,1.4727-1.37067,2.22781-2.03532
		c1.38376-1.21796,2.74301-2.46961,4.19098-3.60727c1.66821-1.31069,3.35481-2.62182,5.15895-3.72805
		c1.42673-0.87479,3.07919-1.29129,4.79971-1.2661c0.49632,0.00726,1.03606,0.08135,1.48297-0.07875
		c2.2811-0.8172,4.39793-0.22229,6.50636,0.62574c1.323,0.53212,2.36884,1.46526,3.46027,2.33615
		c1.53281,1.22308,2.98312,2.52243,4.18137,4.09459c0.72964,0.95738,1.25259,1.98279,1.42581,3.1721
		c0.10457,0.71806,0.27408,1.44949,0.22699,2.16253c-0.14343,2.17252-0.37511,4.33929-0.58101,6.50748
		c-0.02092,0.22047-0.13773,0.43402-0.14581,0.65316c-0.06224,1.68497-0.51755,3.30527-0.78134,4.95675
		c-0.33528,2.09897-0.78116,4.1706-1.44551,6.18304c-0.75214,2.27853-1.42322,4.58665-2.49866,6.75514
		c-0.49219,0.99239-0.74947,2.10243-1.09468,3.16515c-0.0457,0.14073,0.01892,0.31731,0.03043,0.45339
		c0.40385,0.34435,0.78133,0.10903,1.13692,0.00558c1.01509-0.29526,2.00203-0.64862,3.06519-0.81395
		c1.15915-0.18026,2.22725-0.72633,3.19002-1.42667c0.82019-0.5966,1.68452-1.09047,2.68472-1.33516
		c0.31509-0.07707,0.63043-0.24361,0.88954-0.44235c0.88615-0.67959,1.74782-1.39111,2.61797-2.09151
		c1.35631-1.09171,2.54401-2.3478,3.60735-3.72264c1.29869-1.67918,2.59421-3.36086,3.88068-5.0494
		c0.2356-0.30927,0.45847-0.63904,0.6235-0.98934c0.59732-1.26761,1.32701-2.44844,2.12366-3.6021
		c0.56804-0.82265,0.96375-1.76263,1.46411-2.63432c0.35988-0.62702,0.69576-1.28819,1.16382-1.82896
		c1.41006-1.62916,2.43874-3.46631,3.19211-5.47043c0.41602-1.10673,0.99162-2.11524,1.70168-3.06557
		c0.35951-0.48119,0.60817-1.06467,0.81662-1.63494c0.35321-0.96625,0.86497-1.78753,1.63918-2.4871
		c0.82578-0.74614,1.53465-1.62017,2.34166-2.38891c0.84717-0.807,1.73218-1.57717,2.63434-2.32262
		c0.75923-0.62733,1.36278-0.63531,2.1012,0.02889c0.53465,0.48091,0.98904,1.06202,1.42293,1.64064
		c0.36386,0.48531,0.26596,1.06905,0.14804,1.62117c-0.22177,1.03831-0.45976,2.07319-0.69473,3.10865
		c-0.2715,1.1964-0.50223,2.39552-0.90732,3.56718c-0.47258,1.36694-0.7191,2.81026-1.12743,4.20174
		c-0.34538,1.1771-0.77995,2.3281-1.17821,3.48957c-0.27094,0.7902-0.54593,1.57903-0.8217,2.36757
		c-0.51627,1.47608-1.05595,2.94445-1.54373,4.42988c-0.29555,0.89998-0.51907,1.82412-0.75615,2.74226
		c-0.03537,0.13697,0.03262,0.30065,0.07391,0.61027c0.34207-0.28173,0.61807-0.45857,0.82919-0.69366
		c0.41039-0.45695,0.77353-0.95593,1.17516-1.42118c2.51991-2.91911,5.02396-5.85236,7.57994-8.7396
		c0.88634-1.0012,1.89914-1.89144,2.86569-2.82039c2.33881-2.24783,4.78397-4.35788,7.49324-6.16655
		c1.53021-1.02157,2.93156-2.23622,4.39111-3.3637c0.0885-0.06837,0.173-0.14393,0.26833-0.20115
		c1.81572-1.09006,3.67996-2.09485,5.45543-3.25887c0.6736-0.44164,1.55174-0.64853,2.3663-0.78336
		c2.36115-0.39079,4.26987,0.60962,5.8689,2.22306c0.74101,0.74768,1.35364,1.64182,1.92183,2.53487
		c0.3835,0.60275,0.71654,1.2952,0.84811,1.98996c0.41576,2.19562,0.76724,4.4077,0.54094,6.66089
		c-0.03349,0.33331-0.06464,0.67007-0.05467,1.00399c0.08731,2.92169-0.19756,5.81843-0.82933,8.65903
		c-0.52196,2.34679-0.87338,4.71922-1.32098,7.0763c-0.45984,2.42161-1.07115,4.80135-1.85384,7.13812
		c-0.10609,0.31679-0.20305,0.63865-0.27359,0.96481c-0.07959,0.36784,0.24312,0.67384,0.5983,0.58587
		c0.16194-0.04011,0.32782-0.07946,0.47815-0.14896c1.82468-0.84354,3.67262-1.62744,5.22334-2.97636
		c0.92255-0.80247,1.98363-1.4439,2.96248-2.18416c0.48897-0.3698,0.99471-0.74706,1.38528-1.21145
		c0.94539-1.12406,2.12369-1.97724,3.22426-2.92165c0.25447-0.21835,0.55801-0.38929,0.77821-0.63623
		c1.93025-2.16448,4.07625-4.13443,5.74004-6.54046c1.11526-1.61286,2.13467-3.26786,3.05301-5.0031
		c1.14734-2.16794,2.48746-4.23323,3.659-6.38921c0.66388-1.22176,1.39413-2.42751,1.75378-3.79716
		c0.20462-0.77942,0.61346-1.44915,1.2269-1.96252c1.45239-1.21558,2.66266-2.71318,4.33365-3.67837
		c0.37634-0.21737,0.65823-0.59673,0.98782-0.89691c0.81082-0.73845,1.42126-0.79712,2.21317-0.10531
		c0.58685,0.51263,1.15817,1.06813,1.62228,1.68972c0.55911,0.74871,0.71024,1.53572,0.19843,2.48388
		c-1.56555,2.90019-3.03076,5.85449-4.54114,8.78457c-0.25558,0.49583-0.50412,1.00189-0.82028,1.4587
		c-1.12299,1.62267-1.84293,3.44374-2.6084,5.23994c-1.11639,2.61962-2.04938,5.3188-3.41965,7.82768
		c-0.08014,0.14668-0.1391,0.30528-0.20316,0.46033c-1.17398,2.84089-2.3472,5.68208-3.52063,8.52321
		c-0.41446,2.26691-1.68097,4.26361-2.07425,6.5375c-0.01895,0.10954-0.04544,0.22157-0.09119,0.32207
		c-0.77396,1.7007-1.05084,3.52051-1.36038,5.34409c-0.33401,1.96785-0.14944,3.89265,0.20511,5.82224
		c0.08069,0.43901,0.24216,0.86605,0.29337,1.30709c0.21457,1.8467,1.09613,3.3821,2.19354,4.8225
		c0.13528,0.17757,0.28064,0.34752,0.42245,0.52007c0.81427,0.99041,1.78464,1.13937,3.00174,0.76244
		c2.44962-0.75863,4.54041-2.05219,6.49448-3.69882c1.29626-1.09225,2.36823-2.36501,3.50275-3.58993
		c1.86264-2.01105,3.57266-4.15018,5.02866-6.4791c1.03635-1.65778,5.67957-7.82503,6.75-9.60432
		c1.07043-1.7793,3.01196-5.00724,3.18152-5.28557c0.66748-1.09548,1.36124-2.18161,1.93051-3.32817
		c0.45053-0.9074,0.95746-1.75728,1.56555-2.56573c2.11591-2.8131,4.08862-5.72632,6.02618-8.66492
		c0.6749-1.02364,1.52261-1.93264,2.2085-2.94991c1.31586-1.95168,2.89893-3.6853,4.37939-5.50214
		c1.27084-1.55959,2.56729-3.098,4.09695-4.42311c1.01797-0.88182,2.12991-1.61575,3.25778-2.34798
		c2.75247-1.78695,5.88449-2.3457,9.00992-2.95583c0.10944-0.02136,0.2225-0.04307,0.33276-0.03835
		c2.07767,0.08914,4.11285,0.30898,5.93213,1.4808c2.35818,1.51896,4.47269,3.34953,6.6232,5.13064
		c0.58618,0.48549,1.01218,1.18088,1.45251,1.82065c0.34558,0.50208,0.3367,1.06506-0.05676,1.56304
		c-0.99982,1.26551-1.92197,2.59605-3.31213,3.5063c-0.79202,0.51863-1.53381,1.12152-2.2572,1.73492
		c-0.53418,0.45294-1.08163,0.75447-1.80759,0.73776c-0.31451-0.00723-0.63275,0.14756-0.98715,0.23846
		c-0.77493-1.16356-1.91568-2.07056-2.99487-3.01867c-1.04398-0.91717-2.20703-1.70144-3.33688-2.51759
		c-1.73132-1.25061-3.56934-1.46816-5.51382-0.50896c-0.80164,0.39545-1.62161,0.75464-2.41479,1.1659
		c-0.34012,0.17635-0.66873,0.40739-0.94119,0.67588c-0.87473,0.86205-1.72305,1.75099-2.57654,2.63442
		c-0.27176,0.28127-0.55954,0.555-0.7858,0.87096c-1.2023,1.67902-2.63867,3.17717-3.75662,4.92353
		c-0.47986,0.74957-1.06088,1.43663-1.62048,2.13235c-0.7355,0.91436-1.50522,1.79983-2.02866,2.86653
		c-0.14594,0.29739-0.38516,0.54784-0.57037,0.82726c-0.95554,1.44154-1.97253,2.84768-2.84024,4.34048
		c-0.69931,1.20319-1.31799,2.47514-1.79453,3.7815c-1.10944,3.04142-2.26883,6.07393-2.82361,9.28743
		c-0.42081,2.43741-0.6398,4.87383-0.13959,7.33086c0.09906,0.48656,0.12939,0.99806,0.11191,1.49527
		c-0.04526,1.28804-0.12048,2.57275,0.35855,3.8101c0.03964,0.10232,0.0545,0.21867,0.05911,0.32942
		c0.06448,1.544,0.69,2.92815,1.27029,4.31615c0.23227,0.55556,0.58823,1.07372,0.95972,1.5533
		c0.50275,0.64911,1.19449,0.96163,2.03552,1.00177c2.14478,0.10236,6.1973,0.17738,8.91278-1.41218
		c3.80386-2.64027,12.84537-9.41647,13.32144-9.82544c1.90784-1.63898,3.85272-3.23678,5.71619-4.92453
		c0.69473-0.62924,1.22034-1.45081,1.79443-2.20643c0.92081-1.21192,2.02695-2.23521,3.20648-3.18021
		c0.48755-0.39056,0.89944-0.82468,1.2355-1.34998c1.08975-1.70358,2.42783-3.20731,3.82812-4.65543
		c0.78476-0.81154,1.40857-1.72337,1.96194-2.705c0.76761-1.36162,1.61243-2.67946,2.4079-4.0257
		c0.28247-0.47811,0.53604-0.97575,0.7695-1.47991c0.4024-0.86904,0.90866-1.66169,1.54691-2.37928
		c0.40543-0.4558,0.80106-0.9325,1.12225-1.44885c1.41656-2.27735,2.87363-4.53394,4.18091-6.87356
		c1.03848-1.85862,2.20996-3.62958,3.4281-5.35714c1.3465-1.90961,2.52927-3.96111,4.26797-5.57865
		c0.24237-0.22549,0.44412-0.50491,0.62457-0.78518c1.60303-2.49032,4.07605-3.5728,6.8266-4.12411
		c1.53702-0.30809,3.08325-0.26061,4.65411,0.09496c1.73724,0.39323,3.53296,0.52677,5.30212,0.78104
		c0.88409,0.12706,1.76883,0.25432,2.64694,0.41615c0.32434,0.05977,0.65393,0.17769,0.94016,0.34097
		c0.72787,0.4153,1.4534,0.84113,2.14127,1.31837c0.85748,0.59493,1.09747,1.13988,0.26749,2.04846
		c-1.05273,1.15241-2.05185,2.35402-3.06812,3.53947c-0.39984,0.46641-0.77603,0.95311-1.17667,1.41878
		c-0.77548,0.90128-1.73547,1.40207-2.95129,1.26362c-0.66556-0.0758-1.32584-0.19852-1.98785-0.30414
		c-1.59567-0.25455-3.1618-0.66766-4.79752-0.70947c-0.88467-0.02261-1.76291-0.28616-2.64444-0.43893
		c-2.91901-0.50589-5.77359,0.91853-7.09833,3.59171c-0.5011,1.01129-1.13638,1.92374-1.82843,2.80032
		c-0.63034,0.79836-1.16199,1.64156-1.45898,2.62084c-0.03241,0.10697-0.05954,0.21812-0.10989,0.31671
		c-0.96353,1.88684-1.85709,3.81477-2.92346,5.64177c-0.64905,1.11205-1.28439,2.19107-1.69055,3.42998
		c-0.32623,0.99504-0.79449,1.95776-1.43015,2.83263c-0.38452,0.52924-0.60236,1.18357-0.86942,1.79295
		c-0.24655,0.56249-0.38943,1.18115-0.69885,1.70345c-1.10037,1.85726-1.39053,3.99714-2.15317,5.96986
		c-0.04016,0.10387-0.05093,0.21941-0.0939,0.32178c-1.116,2.65903-1.50708,5.49345-1.93359,8.30817
		c-0.17392,1.14778-0.0488,2.33995-0.07269,3.51166c-0.02768,1.35712,0.1955,2.67857,0.61545,3.9593
		c0.4379,1.33539,1.04077,2.58025,2.09833,3.57059c0.68555,0.64198,1.41492,0.87821,2.29111,0.50249
		c0.61362-0.26311,1.2355-0.51868,1.8165-0.84399c2.02582-1.13417,3.6377-2.77808,5.25137-4.4028
		c1.65121-1.66257,3.25275-3.37559,4.84375-5.09633c0.64203-0.69434,1.20529-1.46239,1.79193-2.20674
		c0.51862-0.65808,0.99438-1.35141,1.53513-1.99013c0.6893-0.8141,1.26865-1.68898,1.8168-2.60604
		c0.85641-1.43267,1.71899-2.89454,2.80576-4.14727c1.07913-1.24389,1.90012-2.60902,2.70648-4.01601
		c1.19446-2.08424,2.48712-4.11256,3.66483-6.20586c0.95801-1.70289,1.81421-3.46336,2.70364-5.20439
		c0.30469-0.59648,0.53781-1.23147,0.86642-1.81339c0.55234-0.97805,1.06277-1.97639,1.35916-3.05785
		c0.32147-1.17323,1.21365-1.99683,1.74683-3.03831c0.43152-0.84283,0.93741-1.64809,1.42209-2.46297
		c0.22726-0.38204,0.4613-0.76357,0.73065-1.11601c0.2851-0.37299,0.6752-0.63246,1.16339-0.49809
		c0.81146,0.22335,1.37149-0.10188,1.93671-0.65493c0.63147-0.61785,0.85797-0.57753,1.61838-0.12956
		c0.68082,0.40109,1.30112,0.87207,1.78973,1.49481c0.40265,0.51318,0.55362,1.08167,0.31378,1.72736
		c-0.33084,0.89079-0.63004,1.79333-0.9621,2.68363c-0.31192,0.83617-0.65839,1.6594-0.97293,2.49464
		c-0.78702,2.08979-1.5647,4.18312-2.34531,6.27532c-0.03906,0.10464-0.04453,0.23232-0.10919,0.31533
		c-1.41132,1.81123-1.72043,4.10268-2.6666,6.11695c-0.66461,1.41483-1.20743,2.88828-1.9014,4.28753
		c-1.16995,2.35888-1.94827,4.86253-2.83875,7.32552c-0.11334,0.31361-0.17456,0.64693-0.24826,0.97374
		c-0.04913,0.21785-0.05865,0.44561-0.11807,0.66c-0.62778,2.26514-0.78818,4.61917-1.3172,6.90289
		c-0.06299,0.27211-0.15372,0.54774-0.15601,0.82237c-0.01779,2.11608-0.20093,4.23871,0.22656,6.33945
		c0.23248,1.14257,0.69135,1.52903,1.83881,1.51109c1.51306-0.02365,2.83377-0.63635,4.05798-1.44004
		c2.28983-1.50317,4.36853-3.2465,6.27045-5.24263c1.1514-1.20845,2.32309-2.412,3.51407-3.58953
		c0.75955-0.75099,1.41919-1.57978,1.88257-2.55154c0.07208-0.15113,0.12735-0.31703,0.22818-0.44673
		c1.47299-1.89522,2.95163-3.78601,4.43063-5.67655c0.41257-0.52736,0.82181-1.05775,1.24786-1.5741
		c0.88824-1.07649,1.80798-2.12778,2.67224-3.22295c0.44577-0.56491,0.81985-1.19006,1.19254-1.80832
		c0.9519-1.57892,1.87573-3.17482,2.82822-4.75341c0.80582-1.33553,1.58109-2.69451,2.46994-3.97358
		c1.02087-1.46915,1.46091-3.13277,1.78665-4.83179c0.138-0.7198,0.33316-1.40574,0.56503-2.0931
		c0.39291-1.16512,0.72385-2.35229,1.14807-3.50546c1.0997-2.9892,2.23001-5.9672,3.36075-8.94488
		c0.41638-1.09659,0.88132-2.1747,1.3006-3.27023c0.99884-2.60966,1.93732-5.24344,2.98544-7.83302
		c1.46793-3.62721,3.03021-7.21615,4.51855-10.83526c0.74496-1.81145,1.55566-3.5878,2.48401-5.31189
		c0.18518-0.34389,0.35788-0.69991,0.48734-1.06757c0.96799-2.74932,2.39844-5.29283,3.53372-7.96803
		c0.94186-2.21947,2.24155-4.24899,3.50223-6.29517c0.20285-0.32928,0.46536-0.63563,0.75073-0.89757
		c0.74091-0.68002,1.5098-1.32963,2.26794-1.99083c0.3493-0.3047,0.71701-0.54185,1.21228-0.35117
		c0.50021,0.19261,0.98013,0.03583,1.47922-0.04873c0.59961-0.10159,1.22098-0.13525,1.82922-0.10993
		c0.6842,0.0285,1.07858,0.38445,1.11218,1.02529c0.05804,1.10999,0.19046,2.23667-0.29901,3.30342
		c-0.09268,0.20202-0.17374,0.41826-0.20935,0.63624c-0.45602,2.78815-1.73123,5.30102-2.66064,7.9294
		c-0.67142,1.89894-1.50681,3.72092-2.46606,5.49921c-0.60452,1.12067-0.9491,2.38088-1.41953,3.57486
		c-0.49106,1.24648-0.94031,2.51306-1.50232,3.7271c-0.93759,2.02535-1.80725,4.08598-2.96848,6.00382
		c-0.22635,0.37389-0.33282,0.82876-0.45084,1.25829c-0.40195,1.46283-0.98685,2.83767-1.73282,4.16494
		c-0.59885,1.06542-1.09766,2.19883-1.52618,3.34494c-0.45383,1.21382-0.99518,2.37291-1.71167,3.44497
		c-0.7496,1.12153-1.34033,2.30364-1.82462,3.57034c-0.45569,1.19201-1.1424,2.29744-1.74738,3.43031
		c-1.13275,2.12125-2.18085,4.26756-2.8194,6.60948c-0.48434,1.77648-1.1449,3.50522-1.73581,5.25221
		c-0.51883,1.53386-1.08438,3.04581-1.33145,4.66645c-0.16766,1.09933-0.58624,2.15804-0.81219,3.25152
		c-0.21429,1.03754-0.34879,2.0938-0.4736,3.14713c-0.16431,1.38667-0.28729,2.7783-0.42307,4.16828
		c-0.03802,0.38946-0.06189,0.78043-0.08627,1.17108c-0.09381,1.50481-0.20157,3.00902-0.27008,4.51501
		c-0.03036,0.66758,0.00668,1.33952,0.03922,2.0082c0.02164,0.44587,0.14319,0.89142,0.12723,1.33378
		c-0.05942,1.65302,0.55054,3.18331,0.84747,4.76904c0.19464,1.03963,0.50366,2.0621,0.82297,3.07284
		c0.2684,0.84948,0.5867,1.68851,0.95374,2.50014c0.43356,0.95884,1.24356,1.42275,2.28491,1.4136
		c0.55383-0.00486,1.12036-0.05642,1.65768-0.18501c1.64114-0.3928,3.13708-1.17232,4.67377-1.84026
		c0.20251-0.08802,0.39725-0.21535,0.56418-0.36054c1.3898-1.20853,2.79132-2.40479,4.14841-3.64934
		c0.61862-0.56734,1.19562-1.16824,1.93246-1.5951c0.63187-0.36606,1.16095-0.85208,1.61993-1.43613
		c0.62091-0.79009,1.31879-1.51914,1.96777-2.28777c1.27396-1.5087,2.03772-3.32942,3.03271-5.00858
		c0.37006-0.62442,0.66104-1.29562,1.02951-1.92107c0.42789-0.72645,0.7583-1.48128,1.02145-2.28657
		c0.34641-1.06007,0.78497-2.0908,1.71204-2.82539c0.25092-0.19883,0.43546-0.50567,0.59259-0.79443
		c0.75308-1.38373,2.01031-2.18935,3.3075-3.03434c0.5293,0.39947,1.03064,0.73978,1.48788,1.13155
		c0.75076,0.64328,0.84006,0.99883,0.49518,1.90935c-0.21759,0.57441-0.45425,1.14614-0.73807,1.69001
		c-0.59457,1.139-1.27484,2.23531-1.83078,3.39198c-0.87576,1.82172-1.95883,3.49447-3.17484,5.10919
		c-1.03833,1.37891-1.83777,2.93573-2.84534,4.34037c-1.00778,1.40497-2.14166,2.7196-3.2226,4.07203
		c-0.31406,0.3929-0.66629,0.75876-0.94913,1.1725c-1.58847,2.32353-3.51904,4.32732-5.6236,6.18484
		c-0.83304,0.73519-1.47049,1.70925-2.35132,2.36819c-0.8931,0.66809-1.8446,1.24316-2.60245,2.08529
		c-0.68198,0.75777-1.53137,1.28264-2.48102,1.66267c-0.51648,0.20671-1.01819,0.46387-1.49768,0.74718
		c-1.93332,1.14223-4.02344,1.61809-6.25598,1.55035c-1.25223-0.03799-2.44196-0.35017-3.55237-0.89093
		c-1.31339-0.6396-2.16776-1.7971-2.76013-3.06041c-1.71591-3.659-3.0202-7.46571-3.52646-11.49653
		c-0.18729-1.49103-0.33545-2.99496-0.21384-4.51188c0.10263-1.28062,0.1091-2.56866,0.18643-3.85171
		c0.07718-1.28216,0.19781-2.56166,0.28217-3.84347c0.03244-0.49281,0.01752-0.98872,0.02353-1.43141
		c-0.31052-0.20406-0.49405-0.10139-0.65994,0.06451c-0.11853,0.11855-0.23871,0.23774-0.34106,0.36986
		c-1.09323,1.41125-2.18634,2.82265-3.27289,4.23907c-0.91815,1.19703-1.84363,2.38897-2.73718,3.60424
		c-1.32147,1.79726-2.72192,3.53022-4.14883,5.24368c-0.28348,0.34046-0.52921,0.72662-0.72208,1.12569
		c-0.57315,1.18624-1.44775,2.10944-2.44208,2.94181c-0.29807,0.24951-0.5806,0.52032-0.85028,0.80061
		c-1.6235,1.6875-3.23599,3.38564-4.86298,5.06976c-0.8519,0.88182-1.86752,1.60264-2.58029,2.62186
		c-1.53122,0.90819-2.71024,2.35402-4.46707,2.9207c-0.26422,0.08522-0.52856,0.19792-0.76212,0.34624
		c-1.70673,1.08386-3.60379,1.02592-5.5116,0.9644c-1.25964-0.04062-2.24094-0.65785-3.11899-1.45949
		c-0.74646-0.6815-1.30511-1.4884-1.65042-2.48027c-0.50388-1.44711-0.85461-2.89153-0.68997-4.43148
		c0.02969-0.27768,0.06564-0.55975,0.04831-0.83664c-0.25839-4.12863,0.7243-8.1103,1.43634-12.12291
		c0.10675-0.60201,0.31848-1.18478,0.46408-1.78073c0.11874-0.48583,0.2113-0.97808,0.31549-1.46747
		c0.05774-0.08953,0.12201-0.17574,0.17044-0.27006c0.02243-0.04364,0.01385-0.10316,0.01932-0.15547
		c-0.05786,0.04279-0.15225,0.0765-0.16565,0.13037c-0.02478,0.09956-0.00198,0.21095,0.00101,0.31741
		c-0.2547,0.09468-0.5527,0.13533-0.75388,0.29673c-0.30103,0.24149-0.57135,0.5424-0.78952,0.86251
		c-1.03439,1.51786-2.07483,3.03305-3.05273,4.58718c-0.38708,0.61521-0.75082,1.228-1.23682,1.77968
		c-0.58862,0.6682-1.10571,1.40183-1.62653,2.12674c-0.68204,0.94932-1.21939,2.01063-2.1846,2.73576
		c-0.13007,0.09774-0.22629,0.24788-0.31961,0.38628c-1.66095,2.46432-3.86234,4.44821-5.86691,6.60705
		c-0.26562,0.28607-0.53198,0.57201-0.78485,0.86916c-0.65701,0.77194-1.38446,1.45401-2.29129,1.93321
		c-0.34387,0.1817-0.68857,0.38545-0.97913,0.64041c-1.35843,1.19185-2.96689,1.73531-4.73392,1.89946
		c-0.27747,0.02577-0.55603,0.06729-0.827,0.13133c-1.39267,0.32913-2.64658-0.01881-3.84732-0.72832
		c-2.80951-1.6602-4.51099-4.11597-5.17508-7.28c-0.34372-1.63756-0.60004-3.29639-0.82083-4.95559
		c-0.10968-0.82428-0.16537-1.68796-0.04568-2.50451c0.35605-2.42825,0.63147-4.87661,1.42953-7.22145
		c0.30576-0.8982,0.54776-1.81841,0.80487-2.73252c0.04153-0.14761,0.00983-0.31582,0.01291-0.54509
		c-0.62744,0.02069-0.96719,0.44565-1.20517,0.82121c-0.6431,1.01474-1.57693,1.7273-2.42023,2.53583
		c-0.2009,0.19259-0.40463,0.39351-0.63971,0.53718c-1.2171,0.74386-2.09912,1.83566-2.95605,2.92736
		c-1.03854,1.32303-2.1785,2.52837-3.41766,3.66615c-2.01199,1.8474-3.94656,3.77907-5.91327,5.67574
		c-0.20087,0.1937-0.38095,0.41298-0.59918,0.58394c-1.70926,1.33891-3.28497,2.8485-5.14597,3.99515
		c-0.37387,0.23041-0.72415,0.53989-0.99884,0.88228c-0.63931,0.79692-1.43826,1.38675-2.25076,1.98726
		c-1.30505,0.96452-2.71976,1.51428-4.35233,1.49371c-0.96429-0.01216-1.883,0.21651-2.76324,0.60634
		c-1.2923,0.57236-2.64566,0.87263-4.05759,0.93785c-1.00345,0.04637-2.00458,0.16277-3.00809,0.18404
		c-1.55865,0.03302-2.92706-0.43916-4.17719-1.43533c-1.96286-1.56412-3.5481-3.38501-4.4985-5.72575
		c-0.06302-0.1552-0.16455-0.29897-0.2038-0.45894c-0.57144-2.32828-1.29785-4.62386-1.40366-7.04799
		c-0.0437-1.0015-0.17279-1.99924-0.2623-2.99875c-0.11453-1.27837-0.23315-2.5564-0.34018-3.83541
		c-0.04584-0.54811-0.06683-1.0983-0.09531-1.58201c-0.31461-0.2447-0.51312-0.10862-0.65479,0.05677
		c-0.94046,1.09796-1.96902,2.10471-2.7663,3.34451c-1.11469,1.73338-2.47836,3.30447-3.64908,5.00453
		c-1.46017,2.12046-3.22037,4.00069-4.73141,6.07743c-0.09851,0.13535-0.18918,0.28294-0.31195,0.39304
		c-1.11993,1.00402-2.24261,2.00506-3.37375,2.99641c-0.2085,0.18275-0.48294,0.29181-0.68542,0.47961
		c-1.43826,1.33432-3.26733,1.90834-5.03958,2.57741c-1.10931,0.41881-2.29434,0.48137-3.47058,0.45422
		c-1.51147-0.03488-2.86533-0.55281-3.94724-1.6084c-2.43657-2.37726-4.3933-5.05983-5.13181-8.47377
		c-0.29507-1.36417-0.6125-2.72355-0.90025-4.08921c-0.22037-1.04618-0.25151-2.10352-0.1438-3.16938
		c0.34979-3.46254,1.14864-6.81812,2.32578-10.09121c0.45337-1.26054,0.81137-2.5551,1.24872-3.82177
		c0.63779-1.84714,1.31076-3.6821,1.9633-5.52417c0.37332-1.05381,0.72702-2.11359,0.78954-3.24359L254.24557,93.12436z
		 M149.79512,112.95836c0.2379-0.37217,0.40634-0.79369,0.56825-1.20791c0.12881-0.32958-0.07137-0.67958-0.40987-0.80076
		c-0.10475-0.03751-0.21007-0.08618-0.31865-0.09841c-2.21674-0.24974-4.12436-1.36492-6.10779-2.24017
		c-0.74269-0.32775-1.36906-0.94595-2.00197-1.4862c-0.42165-0.35992-0.72578-0.85663-1.14418-1.22141
		c-1.06267-0.92655-1.09892-1.99592-0.53525-3.17918c0.11996-0.25185,0.21895-0.52384,0.38637-0.74129
		c0.91888-1.1933,1.84869-2.37844,2.7937-3.55112c0.16887-0.20956,0.40178-0.42611,0.6479-0.50362
		c0.68431-0.21557,1.3837-0.40842,2.09143-0.51645c0.56143-0.08568,1.10835,0.10304,1.58467,0.43009
		c0.5974,0.41018,1.17451,0.85111,1.7832,1.2434c1.48186,0.95504,3.12978,1.46571,4.864,1.67768
		c0.98297,0.12015,1.3423-0.07619,1.68994-0.99212c0.67329-1.7739,1.37508-3.54787,1.87781-5.37339
		c1.09926-3.99151,1.75331-8.07736,2.27394-12.18079c0.18257-1.43884,0.26932-2.89166,0.3515-4.34085
		c0.07678-1.35336-0.22363-2.66807-0.55998-3.96754c-0.09621-0.37172-0.24316-0.76159-0.47256-1.06255
		c-1.64346-2.15618-3.67978-3.72586-6.42705-4.21445c-0.74066-0.13171-1.41235-0.05738-2.1124,0.26194
		c-0.85815,0.39143-1.75513,0.75986-2.67421,0.94096c-1.38756,0.27345-2.6777,0.70262-3.91266,1.40812
		c-2.49989,1.42814-4.75616,3.11104-6.43355,5.49566c-0.51239,0.72845-1.05609,1.44202-1.6514,2.10304
		c-0.63939,0.70994-1.21654,1.43926-1.65099,2.30164c-0.32294,0.64098-0.80704,1.19942-1.20355,1.80499
		c-0.45715,0.69821-1.01599,1.36099-1.31592,2.12361c-0.43253,1.09985-0.9549,2.1328-1.5699,3.1356
		c-0.37813,0.61659-0.66264,1.29056-0.98907,1.93884c-0.27519,0.54652-0.52658,1.10661-0.8298,1.63708
		c-0.83062,1.45307-1.74242,2.86427-2.14083,4.52317c-0.0643,0.26773-0.15572,0.55312-0.31682,0.76899
		c-0.52011,0.69694-0.68903,1.50934-0.89217,2.32579c-0.17473,0.70215-0.41553,1.3931-0.6863,2.06514
		c-0.93169,2.31239-1.40965,4.69664-1.28132,7.19873c0.04021,0.78413,0.08281,1.54893,0.35509,2.30334
		c0.36121,1.00078,0.55693,2.03965,0.5811,3.11706c0.01224,0.5455,0.1628,1.09501,0.30235,1.62924
		c0.45775,1.75227,1.41512,3.26933,2.31944,4.80797c0.88461,1.50506,2.07926,2.60295,3.87081,2.92818
		c0.71278,0.12939,1.40549,0.37047,2.11868,0.49637c1.58543,0.27988,3.11453,0.11263,4.54637-0.68315
		c0.73216-0.40693,1.46477-0.8149,2.21353-1.18974C140.44817,121.53766,145.99075,117.49879,149.79512,112.95836z
		 M221.02568,111.07869c-0.22887-0.13189-0.31912-0.22157-0.42049-0.23664c-1.4427-0.21451-2.85222-0.51813-4.12529-1.28917
		c-0.27892-0.16896-0.62723-0.23171-0.95035-0.31799c-1.22087-0.32594-2.23895-0.99158-3.1443-1.85059
		c-1.08342-1.02794-1.33305-2.2154-0.52588-3.458c1.02979-1.58534,2.028-3.19993,3.51241-4.45313
		c1.13747-0.9603,2.34792-1.23792,3.7281-0.79046c1.32616,0.42992,2.62886,0.93211,3.95412,1.36497
		c0.57823,0.18887,1.18201,0.31496,1.78334,0.4136c0.68639,0.1126,1.21451-0.1729,1.48799-0.81783
		c0.28299-0.6673,0.58957-1.33722,0.76151-2.03656c0.47958-1.95111,0.92139-3.91254,1.32735-5.88038
		c0.34984-1.69588,0.53529-3.43007,0.95926-5.10535c1.06937-4.2253,1.11488-8.52138,0.97427-12.8248
		c-0.03957-1.20985-0.34314-2.43962-0.70804-3.60302c-0.45018-1.43541-1.82924-2.00309-3.24088-1.4628
		c-0.51764,0.19812-1.06073,0.41477-1.48543,0.75591c-1.82858,1.46871-3.83064,2.69576-5.64977,4.18349
		c-2.12433,1.73733-4.18053,3.52757-5.98392,5.60196c-0.73248,0.84258-1.46599,1.69645-2.29147,2.44293
		c-1.05273,0.95197-1.8667,2.06947-2.59387,3.26431c-0.84077,1.38147-1.70482,2.7471-2.51425,4.15025
		c-1.11203,1.92775-2.3575,3.79462-3.70834,5.56345c-1.10501,1.44691-2.02251,2.9351-2.43472,4.7139
		c-0.02522,0.10871-0.05086,0.2197-0.0955,0.32115c-1.23669,2.80848-1.67047,5.76994-1.7494,8.81335
		c-0.05003,1.92931,0.33655,3.78271,0.86681,5.60567c0.37328,1.28329,0.85411,2.54334,1.38831,3.76962
		c0.60103,1.37978,1.27768,2.73055,1.99107,4.05647c0.86424,1.60643,2.30478,2.54472,3.97131,3.16566
		c0.589,0.21946,1.22209,0.27696,1.8152,0.08303c1.97192-0.64478,3.88541-1.42567,5.43559-2.86581
		c0.4888-0.45409,0.886-1.0051,1.35242-1.48522c2.23656-2.30216,3.96925-4.97125,5.61221-7.70351
		C220.69383,112.55385,221.04128,111.90953,221.02568,111.07869z"/>
	<path class="st2" d="M64.59037,36.36576c0.0614,0.29754,0.07206,0.51985,0.1533,0.71239
		c0.30438,0.72144,0.18355,1.39334-0.08451,2.10795c-1.07864,2.87562-2.26603,5.70818-3.23269,8.62952
		c-0.61152,1.84808-1.47725,3.61574-2.2835,5.39475c-0.99135,2.18742-2.04918,4.34462-3.05725,6.5246
		c-0.30423,0.65791-0.59766,1.33131-0.79545,2.02625c-1.37879,4.84449-3.46085,9.4413-4.98473,14.23496
		c-0.91345,2.87344-1.86933,5.73491-2.88092,8.57512c-0.7291,2.04707-1.46746,4.1053-2.41042,6.05775
		c-0.97821,2.02544-1.70604,4.13121-2.46808,6.23212c-0.12753,1.82322-1.14742,3.37554-1.55618,5.1142
		c-0.06313,0.26852-0.19637,0.52065-0.29838,0.77988c-0.36787,0.93483-0.79037,1.85241-1.09179,2.80817
		c-0.45691,1.44875-1.10196,2.80645-1.81118,4.13943c-1.54785,2.90918-3.09222,5.82027-4.65732,8.72017
		c-0.61065,1.13145-1.25351,2.2477-2.22211,3.13102c-0.20533,0.18726-0.39188,0.39998-0.56112,0.62086
		c-0.31358,0.40929-0.1523,0.93546,0.35106,1.05242c0.70654,0.16417,1.42219,0.30283,2.14126,0.3957
		c0.83114,0.10733,1.66898,0.18452,2.50619,0.21802c1.1932,0.04775,2.33336-0.21482,3.40897-0.73558
		c0.29879-0.14466,0.58244-0.3206,0.8865-0.48969c0.70079,0.24563,1.38276,0.47955,2.06102,0.72378
		c0.71587,0.25778,1.08646,0.80914,1.09076,1.53458c0.00324,0.5483-0.10991,1.10691-0.23989,1.64433
		c-0.25568,1.05715-0.97938,1.87364-1.52274,2.78105c-0.1071,0.17885-0.31482,0.37099-0.50747,0.41287
		c-1.06703,0.23198-1.8187,1.05957-2.81297,1.44266c-0.55136,0.21242-1.02826,0.66032-1.48618,1.06198
		c-0.52185,0.45773-1.08708,0.78946-1.7753,0.8743c-1.05229,0.12971-2.10786,0.3396-3.16088,0.33301
		c-1.83933-0.01152-3.67366-0.08385-5.49365-0.51134c-2.06287-0.48456-4.16577-0.80136-6.2897-0.93643
		c-0.62672-0.03984-1.21729,0.02209-1.80513,0.25499c-1.03878,0.41153-2.10326,0.75981-3.13348,1.19075
		c-0.65538,0.27414-1.29149,0.33533-1.95789,0.12012c-0.68835-0.22229-1.40257-0.39331-2.05162-0.70055
		c-0.68727-0.32532-0.82142-0.80362-0.63146-1.53421c0.21733-0.83582,0.69139-1.51692,1.24512-2.15863
		c1.34919-1.5636,2.71104-3.11701,4.02576-4.70923c0.5233-0.63375,1.10636-1.04476,1.92443-1.22278
		c0.86946-0.1892,1.72247-0.48457,2.5545-0.8064c0.80145-0.30998,1.58327-0.45815,2.4521-0.33194
		c0.984,0.14293,1.18257,0.00738,1.5736-0.85544c0.85317-1.88251,1.6755-3.77897,2.51659-5.66698
		c0.20444-0.45892,0.4287-0.90919,0.6513-1.35976c0.19792-0.40062,0.44308-0.78188,0.60332-1.19645
		c0.62408-1.61455,1.26586-3.22431,1.82108-4.86295c0.93237-2.75175,1.79445-5.52721,2.70524-8.28638
		c0.35013-1.06068,0.73966-2.10895,1.13388-3.15433c0.86731-2.29994,1.74488-4.59605,2.62591-6.89077
		c1.10201-2.87031,2.03931-5.7938,2.91412-8.74078c0.36428-1.22715,0.89499-2.40427,1.3332-3.61025
		c0.66819-1.83887,1.32522-3.68182,1.98051-5.52535c0.58051-1.63311,1.19611-3.25546,1.71906-4.90699
		c1.26893-4.00742,2.90501-7.86175,4.7039-11.65453c0.55019-1.16004,1.0205-2.35962,1.49134-3.55528
		c0.88061-2.23627,1.72679-4.48608,2.60299-6.72409c0.54988-1.40451,1.1256-2.79898,1.69492-4.19582
		c0.48373-1.18687,1.35727-2.03519,2.40815-2.71818c0.60931-0.396,1.24353-0.75387,1.8498-1.15426
		c0.22761-0.15032,0.4169-0.36385,0.60669-0.56459c0.14092-0.14907,0.01357-0.52156-0.18708-0.54188
		c-0.32979-0.03341-0.66927-0.08668-0.99313-0.04399c-1.67598,0.22093-3.34077,0.17085-5.01247-0.06744
		c-0.82757-0.11796-1.67138-0.12613-2.50849-0.172c-0.89247-0.04891-1.78569-0.08391-2.67861-0.12453
		c-0.33427-0.01521-0.67833-0.08744-1.00119-0.03349c-1.33964,0.22383-2.68045,0.02179-4.01777,0.06217
		c-1.66556,0.0503-3.33555,0.01135-4.99556,0.28246c-1.56828,0.25613-2.98576,0.87577-4.41586,1.51903
		c-1.75591,0.78979-3.2226,1.99232-4.74202,3.12613c-0.1783,0.13306-0.34742,0.28391-0.49844,0.44718
		c-1.51774,1.64095-3.00417,3.31188-4.55399,4.92181c-1.1428,1.1871-1.92214,2.59307-2.68719,4.02204
		c-0.55363,1.03408-1.08499,2.08527-1.71498,3.07221c-1.33699,2.09451-2.26698,4.35792-2.96564,6.72838
		c-0.12649,0.42916-0.23938,0.86284-0.38071,1.28705c-1.07745,3.234-1.24954,6.57917-1.18754,9.94528
		c0.03226,1.75134,0.51493,3.43739,1.1366,5.05011c0.64057,1.66176,1.33592,3.32002,2.38472,4.78857
		c0.19433,0.2721,0.40398,0.53518,0.62599,0.78516c0.35349,0.39801,0.79805,0.62692,1.33936,0.5505
		c1.25516-0.17719,2.0917,0.61708,2.92778,1.31527c0.44854,0.37455,0.88742,0.86211,0.93243,1.61713
		c-0.79945,0.88219-1.78493,1.60657-2.80735,2.27114c-0.6178,0.40158-1.17976,0.82146-1.59328,1.4482
		c-0.24331,0.36876-0.56384,0.70287-0.90503,0.98575c-0.29025,0.24065-0.64975,0.40783-0.99764,0.56554
		c-0.24772,0.11228-0.61614,0.07151-0.7767,0.24313c-0.6695,0.71557-1.56361,0.50111-2.36384,0.63493
		c-0.68026,0.11375-1.32256-0.15135-1.94823-0.40433c-0.95-0.38412-1.74552-0.99657-2.47183-1.70219
		c-1.12822-1.09607-2.10183-2.3176-2.90132-3.67393c-1.74874-2.96671-3.00359-6.10913-3.44998-9.55032
		c-0.25377-1.95631-0.1572-3.90444,0.01976-5.85593c0.17686-1.95042,0.47409-3.88386,0.96849-5.77721
		c0.32399-1.24078,0.70721-2.47272,1.16298-3.67094c0.73438-1.93069,1.48374-3.8507,2.60575-5.61762
		c0.80441-1.26676,1.58804-2.56633,2.11626-3.99431c0.15265-0.41267,0.38939-0.81612,0.66973-1.15606
		c1.59934-1.93933,3.0094-4.03787,4.83996-5.78343c0.04045-0.03859,0.08734-0.07407,0.11654-0.12027
		c1.37906-2.18175,3.55898-3.51834,5.4577-5.1473c1.48122-1.27076,2.98665-2.51852,4.54331-3.69446
		c1.15626-0.87346,2.3788-1.67205,3.63091-2.40273c1.93055-1.12658,3.90417-2.18045,5.87361-3.23895
		c1.68069-0.90332,3.44597-1.59581,5.31232-2.0225c0.5988-0.13691,1.19218-0.30596,1.77629-0.49633
		c0.69887-0.22779,1.41639-0.27306,2.14025-0.35457c3.2346-0.36426,6.47443-0.21588,9.7131-0.16929
		c3.07363,0.04421,6.14754,0.09726,9.21978,0.1952c1.16899,0.03726,2.32935,0.24994,3.50797,0.08031
		c0.31925-0.04596,0.66602,0.05431,0.9938,0.11941c3.42922,0.68112,23.18132,0.78671,26.65007,0.55888
		c1.27814-0.08395,2.5789-0.0389,3.8081-0.50763c0.05184-0.01976,0.11052-0.04432,0.16232-0.03773
		c0.27008,0.03443,0.54704,0.0498,0.80684,0.12372c1.06016,0.30168,2.25972,0.0849,3.19344,0.85445
		c0.17213,0.14186,0.35001,0.27825,0.51037,0.4326c0.62205,0.59875,0.68793,1.03875,0.18671,1.77846
		c-0.79224,1.16919-1.83563,2.10499-2.9595,2.9372c-1.16379,0.86176-2.3722,1.66397-3.57208,2.47602
		c-0.70602,0.47781-1.47771,0.75079-2.35006,0.79314c-2.56545,0.12456-21.41934,0.2337-23.98539,0.33965
		c-1.05614,0.04361-2.11942-0.05646-3.17815-0.11471c-0.72497-0.03987-1.44684-0.142-2.1719-0.1709
		C65.17213,36.15672,64.91557,36.28347,64.59037,36.36576z"/>
	<path class="st2" d="M278.56503,52.01981c-1.24915,0.15858-2.3812-0.15179-3.46344-0.62263
		c-0.55447-0.24123-1.10922-0.55775-1.55182-0.96271c-0.69769-0.63831-1.30466-1.37649-1.94269-2.07902
		c-0.34616-0.38114-0.61752-0.82271-0.59756-1.34758c0.04846-1.27798,0.06967-2.56478,0.72672-3.73086
		c0.41092-0.72926,0.80069-1.47107,1.1799-2.21743c0.64926-1.27779,1.70465-2.20078,2.73956-3.13425
		c1.82904-1.64988,3.85886-3.03873,5.93661-4.34527c1.80542-1.13528,3.79507-1.16105,5.81073-0.65177
		c0.3764,0.09511,0.74042,0.25322,1.09625,0.4132c1.11475,0.50121,2.21109,1.02382,3.37543,1.4316
		c1.34433,0.47083,2.12872,1.58564,2.3187,3.03198c0.06491,0.49398,0.10403,1.01223,0.02969,1.50029
		c-0.50644,3.32428-2.05316,5.93565-5.06876,7.64262c-1.78986,1.01314-3.51804,2.1594-5.1691,3.38678
		C282.33417,51.56221,280.561,52.17055,278.56503,52.01981z"/>
</g>
</svg>
