<?xml version="1.0" encoding="utf-8"?>
<!-- Generator: Adobe Illustrator 25.4.1, SVG Export Plug-In . SVG Version: 6.00 Build 0)  -->
<svg version="1.1" id="Layer_1" xmlns="http://www.w3.org/2000/svg" xmlns:xlink="http://www.w3.org/1999/xlink" x="0px" y="0px"
	 viewBox="0 0 366.9642 188.99892" style="enable-background:new 0 0 366.9642 188.99892;" xml:space="preserve">
<style type="text/css">
	.st0{fill:#EFEDE5;}
	.st1{fill:#B48039;}
	.st2{fill:#AD8246;}
	.st3{fill:none;stroke:#B48039;stroke-width:0.99892;stroke-miterlimit:10;}
</style>
<g id="Bittercube-Flavors-03_00000178189673947627941770000006088215758676897673_">
	<g>
		<path class="st1" d="M363.2897,109.95534c0.05048,0.40033,0.08533,0.6458,0.11133,0.89219
			c0.02307,0.21902,0.10049,0.45781,0.04279,0.6554c-0.24704,0.8455-0.52505,1.66929-0.99194,2.44337
			c-0.41324,0.68507-0.93085,1.2673-1.3923,1.90004c-0.80734,1.10706-1.67145,2.15809-2.55142,3.20361
			c-0.5018,0.5962-0.9227,1.26008-1.38806,1.88755c-0.16562,0.22333-0.33899,0.44524-0.53647,0.63973
			c-0.47885,0.4716-0.98886,0.91217-1.45718,1.39359c-0.30893,0.31754-0.56824,0.68349-0.84747,1.02959
			c-0.05252,0.06508-0.07892,0.1621-0.14352,0.20481c-0.61133,0.40416-0.92654,1.08665-1.50763,1.5388
			c-0.85248,0.66333-1.57126,1.49928-2.42786,2.15626c-0.74725,0.57309-1.43768,1.23863-2.33798,1.61441
			c-0.39755,0.16594-0.77545,0.4568-1.06973,0.77621c-0.62546,0.67886-1.37537,1.11241-2.22153,1.45857
			c-1.80319,0.7377-3.61603,0.58064-5.44302,0.17311c-0.70557-0.15738-1.40158-0.31689-2.06094-0.66573
			c-0.73315-0.38788-1.33838-0.91107-1.91364-1.47829c-0.61728-0.60864-1.2048-1.24429-1.46021-2.1167
			c-0.07639-0.26083-0.2728-0.48636-0.41315-0.72867c-0.37848-0.65341-0.75916-1.30303-0.93033-2.05411
			c-0.05453-0.23931-0.20425-0.45588-0.30063-0.68696c-0.2139-0.51302-0.5188-1.01183-0.61111-1.54675
			c-0.17905-1.03722-0.30545-2.07156-0.23532-3.15649c0.06241-0.96517,0.4924-1.76106,0.70929-2.64395
			c0.24628-1.00257,0.56973-1.98647,0.86902-2.97563c0.2836-0.93718,0.58578-1.86876,0.86685-2.80669
			c0.12817-0.42774,0.28586-0.85979,0.32224-1.29884c0.05493-0.66325,0.32993-1.23841,0.5686-1.83482
			c0.2482-0.62014,0.4931-1.24208,0.716-1.87154c0.06924-0.19547,0.06195-0.41802,0.11533-0.82261
			c-0.25632,0.22859-0.39215,0.30846-0.46933,0.42664c-0.19724,0.30202-0.36661,0.62211-0.55023,0.93315
			c-0.43878,0.74319-0.8522,1.50317-1.3259,2.22346c-0.60858,0.92537-1.27252,1.81414-1.89981,2.72745
			c-0.31503,0.45866-0.64679,0.91479-0.8895,1.41184c-0.27628,0.56586-0.82684,1.00078-0.83002,1.70245
			c-0.00027,0.06214-0.0936,0.14396-0.16272,0.18264c-0.77692,0.43486-1.05078,1.27934-1.57227,1.92132
			c-0.35114,0.43224-0.69073,0.87384-1.04156,1.30634c-0.08743,0.10782-0.21298,0.18558-0.2962,0.29589
			c-0.58655,0.77754-1.14368,1.57861-1.75668,2.33444c-0.42038,0.5183-0.9201,0.97173-1.37527,1.4626
			c-0.18542,0.19999-0.34641,0.4226-0.51917,0.63439c-0.13971,0.1713-0.28696,0.33689-0.41907,0.51381
			c-0.19742,0.26443-0.38528,0.53606-0.57574,0.80567c-0.14362,0.20332-0.27087,0.41999-0.42969,0.61044
			c-0.62631,0.75095-1.2793,1.48029-1.88846,2.24468c-0.39792,0.49931-0.67664,1.10439-1.11713,1.55644
			c-0.67569,0.69337-1.38449,1.353-2.05801,2.05276c-0.61932,0.64348-1.49005,0.96054-2.43152,0.98386
			c-0.3884,0.00961-0.78571,0.06517-1.15967,0.16917c-0.83878,0.23326-1.52951-0.18636-2.2576-0.45235
			c-0.07605-0.02779-0.15985-0.07809-0.20407-0.14261c-0.57245-0.83485-1.52081-1.22108-2.23712-1.88321
			c-1.00177-0.92596-2.06003-1.7916-2.94583-2.84013c-0.4826-0.57129-0.6864-1.27705-0.98721-1.93332
			c-0.1962-0.42805-0.25665-0.91616-0.42328-1.36033c-0.66211-1.76482-0.67728-3.61671-0.76691-5.45994
			c-0.02036-0.41872-0.07373-0.83677-0.07523-1.25526c-0.00226-0.64113,0.02408-1.28247,0.04404-1.92355
			c0.03561-1.14378,0.05115-2.28896,0.12177-3.43066c0.05164-0.83465,0.17847-1.66463,0.27075-2.49679
			c0.01123-0.1012,0.01611-0.20309,0.03647-0.46748c-0.29294,0.3068-0.49551,0.49015-0.66434,0.70058
			c-0.85806,1.06937-1.7121,2.14206-2.55688,3.22194c-0.2583,0.33019-0.46686,0.69933-0.72586,1.0289
			c-0.56967,0.72488-1.16623,1.42867-1.73352,2.15536c-0.32626,0.41796-0.58081,0.89573-0.93106,1.2903
			c-0.66284,0.7468-1.18857,1.60381-1.97809,2.2553c-0.50198,0.41423-0.86935,0.99779-1.27097,1.52529
			c-0.26944,0.35391-0.4534,0.77818-0.74731,1.10685c-0.36969,0.41337-0.80292,0.77261-1.22672,1.13408
			c-0.38107,0.325-0.73593,0.66074-1.06284,1.04997c-0.47943,0.57086-1.0932,1.02641-1.61404,1.56557
			c-0.75693,0.78351-1.47165,1.60768-2.22424,2.39548c-0.53909,0.56429-1.11102,1.09715-1.66766,1.6447
			c-0.09933,0.09772-0.23914,0.1815-0.28601,0.30089c-0.271,0.68999-0.89114,0.95779-1.47031,1.30002
			c-0.64719,0.38239-1.29767,0.77841-1.8743,1.25594c-0.67975,0.5629-1.51196,0.71611-2.29276,0.99777
			c-0.7605,0.27431-1.56494,0.39764-2.38452,0.32301c-0.13824-0.01257-0.2876,0.00816-0.41354-0.03722
			c-0.97025-0.34958-1.94885-0.68144-2.89706-1.08424c-0.39951-0.16972-0.76077-0.46526-1.08896-0.75981
			c-0.72739-0.65292-1.42648-1.33762-2.13022-2.01653c-0.63101-0.60875-1.12631-1.31099-1.43024-2.14049
			c-0.03815-0.10406-0.07925-0.21754-0.15161-0.29691c-0.66275-0.72672-0.77399-1.65782-0.95071-2.56128
			c-0.10739-0.54902-0.22623-1.10292-0.25284-1.65879c-0.03183-0.66424,0.00903-1.33434,0.05487-1.99937
			c0.07294-1.05789,0.17026-2.11426,0.26907-3.17017c0.04166-0.44492,0.11169-0.88721,0.17212-1.33028
			c0.02649-0.19425,0.09528-0.38908,0.08591-0.58074c-0.0329-0.67194-0.01932-1.32682,0.16949-1.98885
			c0.15912-0.55785,0.14163-1.16477,0.28745-1.72795c0.41333-1.59647,0.87381-3.18067,1.30865-4.77164
			c0.23557-0.86189,0.43851-1.73304,0.68939-2.59029c0.25818-0.88203,0.56274-1.75038,0.83392-2.62876
			c0.07849-0.25416,0.11194-0.5222,0.19635-0.93036c-0.28802,0.13326-0.45486,0.16574-0.55539,0.26525
			c-0.31735,0.3141-0.62225,0.64315-0.90518,0.98837c-0.0983,0.11995-0.16168,0.30288-0.16574,0.45901
			c-0.01093,0.41668-0.2453,0.67172-0.55969,0.88155c-0.88599,0.59138-1.49414,1.44719-2.01761,2.32947
			c-0.57291,0.96568-1.1618,1.89963-1.89755,2.75397c-0.65463,0.76012-1.21579,1.60066-1.82007,2.40431
			c-0.38318,0.50957-0.77121,1.01547-1.15399,1.52534c-0.13242,0.17639-0.25458,0.36045-0.38303,0.53985
			c-0.16241,0.22686-0.28198,0.51676-0.49826,0.66656c-0.61639,0.42699-1.01959,1.01573-1.44516,1.61108
			c-0.60013,0.83955-1.29062,1.61391-1.91083,2.43989c-0.55362,0.73729-1.05356,1.51464-1.59683,2.25999
			c-0.5589,0.76678-1.11308,1.54008-1.72171,2.26664c-0.62642,0.74783-1.3094,1.44897-1.97945,2.15937
			c-1.24464,1.31961-2.4958,2.63309-3.75029,3.94333c-0.15172,0.15845-0.33946,0.28281-0.513,0.41982
			c-0.17493,0.13814-0.42296,0.23532-0.51775,0.41457c-0.45241,0.8555-1.341,1.22755-2.00429,1.84462
			c-0.44276,0.41193-1.03078,0.66493-1.54103,1.00809c-0.36937,0.24841-0.73581,0.50735-1.07034,0.79961
			c-0.3237,0.28279-0.65855,0.50581-1.08678,0.59872c-0.62846,0.13637-1.24712,0.31822-1.87579,0.45346
			c-0.72249,0.15541-1.44383,0.16339-2.1552-0.09114c-0.23557-0.08429-0.49126-0.11104-0.73019-0.18762
			c-0.20943-0.06712-0.44611-0.12312-0.60567-0.25993c-0.99585-0.85384-2.13432-1.53761-2.98901-2.56139
			c-0.90317-1.08182-1.72255-2.21942-2.18456-3.55614c-0.23524-0.68069-0.347-1.41484-0.43086-2.13457
			c-0.12907-1.10803-0.21176-2.22318-0.26695-3.33765c-0.06352-1.28281-0.15669-2.57244-0.08858-3.85122
			c0.07549-1.41696,0.33272-2.8235,0.48239-4.23759c0.06467-0.61073,0.03325-1.23123,0.08847-1.84343
			c0.16064-1.78126,0.34267-3.56057,0.51797-5.34048c0.00818-0.08315,0.04681-0.16464,0.04726-0.24703
			c0.01086-2.04476,0.77312-3.94749,1.12079-5.92854c0.14948-0.85176,0.34669-1.69511,0.4987-2.54647
			c0.04623-0.2589,0.01382-0.53184,0.01926-0.9321c-0.21977,0.14919-0.36475,0.19579-0.42021,0.29329
			c-0.57855,1.01685-1.13383,2.04697-1.71696,3.06112c-0.14964,0.2602-0.36986,0.48112-0.56624,0.71281
			c-0.21523,0.25394-0.51071,0.46565-0.64949,0.7543c-0.74261,1.5444-1.77403,2.90678-2.66521,4.35699
			c-0.59982,0.97607-1.19064,1.94927-1.87631,2.87109c-0.47928,0.64436-0.86823,1.36421-1.23265,2.08321
			c-0.32701,0.6452-0.87201,1.08618-1.32849,1.61037c-0.34723,0.39874-0.73602,0.76308-1.06432,1.17611
			c-0.59068,0.74317-1.13596,1.52241-1.72614,2.26599c-0.5731,0.72206-1.18808,1.41074-1.76813,2.12746
			c-1.07356,1.32652-2.13438,2.66336-3.20186,3.99481c-0.73151,0.91238-1.46779,1.82088-2.19713,2.73496
			c-0.45287,0.5676-0.92778,1.12105-1.33858,1.71815c-1.03894,1.51013-2.27856,2.8221-3.7355,3.93137
			c-0.02225,0.01694-0.04559,0.03394-0.06323,0.05522c-0.83894,1.01303-2.05028,1.53445-3.08011,2.29225
			c-0.76875,0.56566-1.72868,0.79863-2.69974,0.81854c-0.58679,0.01205-1.17758-0.0264-1.76215-0.08562
			c-0.69597-0.07048-1.31834-0.29422-1.94707-0.66818c-0.76416-0.45453-1.31894-1.03833-1.89279-1.69034
			c-0.70984-0.80653-1.33684-1.66739-1.8475-2.58575c-0.46916-0.84366-0.75566-1.79998-1.04103-2.73167
			c-0.29454-0.9615-0.49066-1.95315-0.72968-2.93165c-0.00665-0.02719-0.00568-0.05796-0.01836-0.0817
			c-0.54466-1.02136-0.61667-2.13891-0.62944-3.25853c-0.01173-1.02962,0.03308-2.05986,0.05148-3.08985
			c0.00546-0.3063,0.04982-0.61993,0.00081-0.91776c-0.2039-1.23934,0.00269-2.45036,0.20647-3.6634
			c0.07878-0.46899,0.1702-0.93587,0.24881-1.40488c0.14764-0.88076,0.2238-1.77985,0.45016-2.63959
			c0.3479-1.3212,0.79745-2.61562,1.20412-3.92134c0.03325-0.10674,0.0872-0.21068,0.09982-0.3196
			c0.11565-0.99772,0.58804-1.85547,1.02779-2.73306c0.23587-0.4707,0.38113-0.98781,0.55548-1.48809
			c0.25697-0.73736,0.51076-1.47601,0.75134-2.21882c0.12836-0.39628,0.22429-0.803,0.33823-1.20403
			c0.07535-0.2652,0.16637-0.52636,0.23102-0.79401c0.02815-0.1166,0.00775-0.24493,0.01118-0.49859
			c-0.20638,0.16091-0.32788,0.22292-0.40445,0.32027c-1.08949,1.38529-2.0732,2.83498-2.89775,4.40122
			c-0.41185,0.78226-0.99963,1.47498-1.53363,2.18889c-0.46635,0.62346-1.04651,1.16836-1.27855,1.94549
			c-0.0153,0.0513-0.05171,0.10121-0.09018,0.13997c-0.91153,0.91838-1.5049,2.06057-2.21326,3.12291
			c-0.37103,0.55646-0.80515,1.07049-1.2016,1.6104c-0.513,0.69863-0.95245,1.4343-1.32866,2.22335
			c-0.45468,0.95379-0.98427,1.88231-1.74892,2.64318c-0.07823,0.07785-0.1586,0.16647-0.20044,0.26591
			c-0.37392,0.88887-1.04353,1.58643-1.53783,2.39633c-0.37796,0.61937-0.72301,1.25877-1.09064,1.88457
			c-0.14122,0.24045-0.29533,0.47462-0.45964,0.69994c-0.34583,0.47427-0.711,0.93264-0.86732,1.51865
			c-0.04942,0.18513-0.14684,0.3707-0.26572,0.52189c-0.75906,0.96505-1.52907,1.92151-2.29794,2.8788
			c-0.36632,0.4561-0.72037,0.92384-1.112,1.35734c-0.46663,0.51646-0.92659,1.05251-1.46404,1.48803
			c-0.69002,0.55917-1.13835,1.29958-1.6898,1.96419c-0.58742,0.70792-1.157,1.4523-1.85022,2.04532
			c-0.88715,0.75888-1.84731,1.45572-2.85519,2.04358c-1.00632,0.58693-2.15419,0.58189-3.27003,0.28691
			c-0.64151-0.16957-1.28564-0.33345-1.87012-0.70476c-0.33585-0.21338-0.64989-0.41429-0.9019-0.72411
			c-0.13811-0.16982-0.3071-0.33275-0.49556-0.44023c-0.87544-0.4993-1.56085-1.17079-1.99397-2.08899
			c-0.04747-0.10059-0.1024-0.20425-0.1776-0.28415c-0.60127-0.6387-0.6548-1.40288-0.48305-2.2014
			c0.10638-0.49472,0.03688-0.91862-0.22318-1.3618c-0.26671-0.45443-0.40561-0.9823-0.65582-1.4483
			c-0.47672-0.88797-0.81747-1.81767-1.12033-2.77888c-0.12831-0.40713-0.38463-0.78392-0.40556-1.24019
			c-0.00372-0.08119-0.0334-0.16811-0.0737-0.23968c-0.62941-1.11845-0.66953-2.3431-0.64604-3.57803
			c0.0239-1.25784,0.02983-2.51685,0.09348-3.77282c0.03806-0.75176,0.09697-1.5175,0.27962-2.24348
			c0.28975-1.15176,0.25774-2.3311,0.43213-3.48954c0.062-0.41188,0.15205-0.81961,0.23282-1.22854
			c0.03247-0.16424,0.10931-0.32721,0.10652-0.48974c-0.02667-1.55616,0.67203-2.91521,1.16672-4.32848
			c0.22083-0.63081,0.58023-1.232,0.69043-1.8784c0.18176-1.0662,0.63452-2.02686,0.97612-3.03008
			c0.52249-1.53448,1.05322-3.06679,1.61856-4.58583c0.54572-1.46622,1.20151-2.89401,1.69272-4.37718
			c0.38506-1.16267,1.12798-2.11864,1.61508-3.21346c0.29451-0.66183,0.54916-1.34144,0.81865-2.01429
			c0.03082-0.07687,0.02583-0.17045,0.06467-0.24139c0.3078-0.56229,0.57831-1.15167,0.94386-1.67426
			c0.74515-1.06516,1.22084-2.24704,1.68182-3.44869c0.27855-0.72607,0.65306-1.41934,1.02814-2.1034
			c0.51486-0.939,0.95248-1.89993,1.15797-2.95939c0.04671-0.24086,0.17641-0.46635,0.27348-0.69658
			c0.34369-0.81506,0.68979-1.62911,1.05469-2.49007c-0.55626-0.18285-0.9639,0.0012-1.34901,0.20216
			c-0.3963,0.20679-0.76472,0.46677-1.14697,0.70078c-0.21448,0.1313-0.43597,0.25137-0.64781,0.38667
			c-0.42126,0.26906-0.83888,0.54386-1.25652,0.81859c-1.0284,0.67654-2.05791,1.35148-3.08267,2.03355
			c-0.30135,0.20056-0.59793,0.41084-0.8797,0.63776c-0.50078,0.40324-0.97952,0.83406-1.48412,1.23227
			c-0.63364,0.50006-1.2439,1.03056-1.86449,1.53996c-1.49968,1.23104-2.81581,2.63206-4.15109,4.02352
			c-0.40497,0.422-0.9014,0.7547-1.32632,1.15938c-1.07249,1.02139-2.13007,2.05847-3.18845,3.09452
			c-0.15932,0.15594-0.30911,0.32806-0.43236,0.51326c-0.70065,1.05276-1.65857,1.87777-2.47659,2.82568
			c-0.58333,0.67599-1.11954,1.39393-1.65608,2.10869c-0.83772,1.1161-1.6761,2.23259-2.47853,3.37399
			c-0.44888,0.6385-0.90994,1.29113-1.21733,2.00152c-0.59851,1.38323-1.61977,2.47879-2.39346,3.73972
			c-0.22882,0.37291-0.54422,0.69468-0.83324,1.02836c-1.14392,1.32063-1.89383,2.87551-2.66824,4.42004
			c-0.38771,0.77322-0.86496,1.50111-1.26656,2.26791c-0.33655,0.64259-0.58585,1.31883-0.79958,2.02071
			c-0.25786,0.8467-0.63168,1.67323-1.06386,2.44794c-0.55293,0.9912-0.85646,2.0605-1.20209,3.12289
			c-0.15486,0.47598-0.31694,0.95844-0.55144,1.39751c-0.33243,0.62243-0.58798,1.26195-0.76724,1.94432
			c-0.12712,0.48383-0.3569,0.93967-0.51289,1.41714c-0.33012,1.01035-0.63878,2.02769-0.96269,3.0401
			c-0.13585,0.42461-0.29378,0.84211-0.43143,1.26616c-0.19788,0.60948-0.37444,1.22613-0.58371,1.83154
			c-0.10852,0.31392-0.23535,0.63075-0.41135,0.91006c-0.312,0.49516-0.68008,0.95468-1.00041,1.44499
			c-0.181,0.27707-0.31381,0.58567-0.46764,0.88042c-0.06427,0.12323-0.11226,0.25777-0.19232,0.36948
			c-0.56679,0.79057-1.2014,1.53999-1.69702,2.37241c-0.78692,1.32169-1.92869,2.39137-2.59703,3.79546
			c-0.41786,0.87788-1.39444,1.16406-2.24907,0.69005c-0.98456-0.54605-1.47438-1.44995-1.18632-2.76248
			c0.17892-0.81516,0.29004-1.64983,0.36562-2.48172c0.0752-0.82751,0.42713-1.54401,0.75941-2.27601
			c0.11382-0.25076,0.22676-0.5024,0.32602-0.75908c0.04993-0.1291,0.05167-0.27718,0.10373-0.40504
			c0.49509-1.21545,1.00076-2.42658,1.49181-3.64365c0.09352-0.23178,0.13329-0.48492,0.20325-0.72663
			c0.03892-0.1344,0.06587-0.27985,0.13763-0.39597c0.76994-1.24597,0.96791-2.72914,1.66619-4.00488
			c0.12027-0.21976,0.1891-0.46712,0.29028-0.69795c0.35758-0.8159,0.75126-1.6177,1.07087-2.44808
			c0.43105-1.1199,1.05366-2.1644,1.29129-3.36321c0.07251-0.36582,0.286-0.70371,0.47348-1.14516
			c-0.57832,0.17555-0.79726,0.54084-1.03177,0.92179c-0.64285,1.04431-1.31589,2.07006-1.97803,3.10248
			c-0.03005,0.04684-0.08208,0.08179-0.10431,0.1311c-0.45927,1.01904-1.34235,1.79488-1.66114,2.89476
			c-0.02304,0.07954-0.06068,0.15878-0.10783,0.22686c-0.52406,0.75601-1.06014,1.50385-1.57552,2.26569
			c-0.57928,0.85625-1.15282,1.7169-1.70644,2.58985c-0.5221,0.82328-0.98366,1.68658-1.53416,2.48956
			c-0.27284,0.39797-0.52968,0.77663-0.65667,1.24885c-0.0449,0.16696-0.21815,0.30785-0.35247,0.44078
			c-0.45412,0.4495-0.92677,0.88051-1.37454,1.33612c-1.0189,1.03677-2.02473,2.08639-3.04109,3.12569
			c-0.39171,0.40056-0.80363,0.7813-1.19575,1.18149c-0.79622,0.81256-1.69952,1.43382-2.81671,1.73833
			c-0.48128,0.13118-0.93838,0.36012-1.39565,0.56839c-1.04033,0.47383-2.10007,0.74359-3.25612,0.49377
			c-0.54486-0.11775-1.11446-0.11819-1.66236-0.2254c-1.4194-0.27773-2.72803-0.84637-3.90696-1.67508
			c-0.54346-0.38202-1.00919-0.87506-1.50596-1.32243c-0.05972-0.05376-0.10424-0.13185-0.13713-0.20685
			c-0.68795-1.56906-1.07214-3.17001-0.59226-4.88735c0.1637-0.58575,0.21015-1.20383,0.36665-1.7921
			c0.40044-1.5052,0.54997-3.06178,1.13718-4.53602c0.50346-1.26407,0.74308-2.63238,1.11767-3.94937
			c0.07339-0.258,0.27525-0.48106,0.33957-0.73969c0.12672-0.50965,0.36681-0.98817,0.32101-1.54999
			c-0.02855-0.35011,0.06129-0.73304,0.18666-1.06805c0.34286-0.91611,0.7289-1.81622,1.10561-2.71941
			c0.19089-0.45771,0.40232-0.90784,0.22932-1.56388c-0.27169,0.35555-0.49201,0.59656-0.65838,0.87035
			c-0.51974,0.8553-0.99598,1.73763-1.53197,2.58226c-0.68832,1.08459-1.42589,2.13779-2.12754,3.21412
			c-0.44189,0.67788-0.85295,1.3758-1.28541,2.05996c-0.26674,0.42202-0.53204,0.84641-0.82523,1.24994
			c-0.73905,1.01699-1.4965,2.0206-2.24073,3.03388c-0.42991,0.58534-0.79189,1.23212-1.28465,1.75722
			c-0.84442,0.89978-1.50245,1.92875-2.23302,2.90928c-0.39766,0.53373-0.91178,0.98187-1.38189,1.46024
			c-1.39165,1.41602-2.78656,2.82887-4.18342,4.23975c-0.13544,0.13676-0.28242,0.26811-0.44298,0.37292
			c-0.60682,0.3961-1.2448,0.74867-1.826,1.17853c-0.49451,0.36574-1.0183,0.57387-1.62373,0.60439
			c-0.27971,0.0141-0.5625,0.01161-0.83822,0.05383c-1.51001,0.23111-2.8942-0.1586-4.18282-0.89894
			c-0.82354-0.47311-1.59777-1.03316-2.38583-1.56644c-0.37311-0.2525-0.71763-0.53799-0.82838-1.01483
			c-0.02442-0.1051-0.07638-0.22902-0.15669-0.29182c-0.53101-0.41542-0.63611-1.10324-1.03832-1.60303
			c-0.13049-0.16211-0.15279-0.41462-0.21344-0.62894c-0.20563-0.72657-0.36348-1.46999-0.61912-2.17827
			c-0.36029-0.99825-0.38321-2.0366-0.40765-3.06395c-0.03251-1.36512,0.01272-2.73523,0.09537-4.0989
			c0.06083-1.00356,0.23746-1.99994,0.35755-3.00011c0.04001-0.33309,0.06649-0.66786,0.09594-1.00216
			c0.12731-1.44524,0.17702-2.89602,0.61057-4.30464c0.24511-0.7963,0.35187-1.63503,0.52525-2.45372
			c0.04623-0.21828,0.11516-0.43174,0.1619-0.64993c0.12258-0.57207,0.21618-1.15134,0.36263-1.71706
			c0.21696-0.83794,0.47366-1.66553,0.70596-2.49962c0.35233-1.26493,0.8187-2.51406,1.00684-3.80345
			c0.13747-0.94193,0.58514-1.70714,0.9068-2.54694c0.00987-0.02582,0.03214-0.047,0.04138-0.07294
			c0.45747-1.28448,0.91475-2.569,1.36995-3.85429c0.04645-0.13118,0.06588-0.27303,0.12093-0.39993
			c0.82405-1.90004,1.65414-3.79745,2.47821-5.69747c0.53276-1.22839,1.0563-2.46076,1.58859-3.68935
			c0.07728-0.17831,0.16208-0.35855,0.2746-0.51553c0.6244-0.87126,1.02815-1.85318,1.45465-2.82607
			c0.19024-0.43391,0.4209-0.85168,0.65484-1.26452c0.74465-1.31422,1.45804-2.64877,2.26239-3.92577
			c0.7581-1.20354,1.61878-2.34231,2.42913-3.51316c0.39771-0.57463,0.75616-1.17855,1.18163-1.73132
			c0.56051-0.72816,1.09579-1.50274,1.77782-2.10291c0.71088-0.62556,1.24107-1.36749,1.76685-2.12001
			c0.42821-0.61285,0.94029-1.09707,1.57558-1.48022c1.05417-0.63579,2.15742-1.21485,3.11984-1.97081
			c0.89326-0.70158,1.81329-1.04364,2.93049-0.98953c0.47059,0.02279,0.94951-0.05299,1.41972-0.11915
			c0.3863-0.05437,0.80692-0.08303,1.13873-0.26061c0.65418-0.35009,1.33641-0.40208,2.03875-0.36135
			c1.10077,0.06386,2.17477-0.12406,3.25785-0.26664c1.02318-0.1347,2.06235-0.31507,3.0836-0.26279
			c2.20268,0.11275,4.41631,0.22984,6.51048,1.07554c0.85247,0.34428,1.78445,0.50303,2.6153,0.88679
			c1.06242,0.49073,2.21119,0.78713,3.19817,1.45324c0.69923,0.4719,0.88493,0.95889,0.44046,1.69132
			c-0.35987,0.59304-0.79651,1.14167-1.22253,1.69184c-0.52698,0.68047-1.04926,1.36842-1.62655,2.00509
			c-0.67384,0.74319-1.40562,1.43375-2.1109,2.14851c-0.82372,0.83482-1.80964,0.80811-2.81142,0.47105
			c-1.37846-0.46378-2.72634-1.01937-4.10826-1.47177c-2.54077-0.83179-5.12342-1.09212-7.77277-0.52247
			c-0.84152,0.18093-1.72153,0.26337-2.58257,0.25471c-1.41928-0.01427-2.77715,0.26379-4.13336,0.62025
			c-0.37458,0.09846-0.76434,0.16129-1.15076,0.18793c-0.71013,0.04896-1.37656,0.20603-1.9949,0.57544
			c-0.64476,0.38515-1.31363,0.72982-1.95976,1.11279c-0.74049,0.43887-1.22799,1.12634-1.73101,1.80108
			c-0.417,0.5593-0.84374,1.11571-1.31316,1.63054c-0.69975,0.76742-1.35157,1.5541-1.8224,2.49466
			c-0.2466,0.49262-0.65089,0.90451-0.96683,1.36463c-0.44167,0.64321-0.91477,1.25871-1.19162,2.01278
			c-0.3455,0.94118-0.76401,1.85789-1.19268,2.7655c-0.38034,0.80536-0.85338,1.5677-1.21908,2.37899
			c-0.31978,0.70945-0.62308,1.443-0.79749,2.1974c-0.2616,1.1312-0.82773,2.13033-1.22573,3.20017
			c-0.37991,1.02122-0.75254,2.03834-0.94548,3.1229c-0.11094,0.62357-0.38408,1.22536-0.63489,1.8154
			c-0.40664,0.95676-0.72814,1.92502-0.91086,2.95847c-0.16869,0.95414-0.50203,1.88107-0.78925,2.81184
			c-0.31351,1.01601-0.54176,2.04281-0.64439,3.10506c-0.07767,0.80389-0.31767,1.59445-0.36578,2.3981
			c-0.04532,0.75681-0.11777,1.50449-0.33341,2.22305c-0.25037,0.83421,0.00589,1.66472-0.07497,2.49297
			c-0.03527,0.36096-0.05105,0.72414-0.09548,1.08386c-0.14484,1.17271-0.18349,2.33585,0.13748,3.49402
			c0.14866,0.53639,0.1965,1.1002,0.33524,1.63995c0.2662,1.03553,0.63046,2.04459,1.38335,2.82935
			c0.49682,0.51788,1.06224,0.98463,1.65342,1.39241c0.43166,0.29774,0.93977,0.50898,1.44151,0.67524
			c0.83231,0.27582,1.69993,0.2112,2.42015-0.26031c0.90482-0.59236,1.8024-1.20016,2.57219-1.99857
			c1.16161-1.20473,2.43222-2.30376,3.63734-3.46754c0.39866-0.38498,0.73547-0.8336,1.10548-1.24877
			c0.62978-0.70666,1.27911-1.39658,1.89142-2.11797c0.68647-0.8088,1.35178-1.63625,2.00677-2.47092
			c0.89454-1.13981,1.77438-2.29121,2.65347-3.44305c0.82951-1.08685,1.66627-2.16884,2.46631-3.27718
			c0.32578-0.45135,0.56832-0.96368,0.83918-1.45358c0.29654-0.5362,0.54273-1.10492,0.88283-1.61108
			c0.37188-0.55344,0.80349-1.07185,1.24959-1.56918c0.73447-0.81876,1.33262-1.71423,1.82439-2.70166
			c0.49841-1.00068,1.05894-1.97552,1.66129-2.91756c0.41832-0.65424,0.98692-1.21097,1.42583-1.85396
			c0.35924-0.52615,0.62929-1.11361,0.93295-1.67709c0.29077-0.53963,0.54815-1.09898,0.86528-1.62234
			c0.85406-1.40948,1.78996-2.77293,2.57691-4.21808c0.40565-0.74487,0.56435-1.62448,0.83096-2.4444
			c0.02519-0.07742-0.00686-0.19522,0.0398-0.24062c0.6481-0.63013,0.59268-1.62101,1.18044-2.28487
			c0.14328-0.16183,0.26-0.3852,0.297-0.5964c0.15687-0.89551,0.7243-1.56085,1.20536-2.2802
			c0.32462-0.48538,0.5814-1.01707,0.91687-1.49404c0.64167-0.91236,1.06689-1.00658,2.06281-0.53645
			c0.17659,0.08337,0.35896,0.15605,0.54268,0.22255c0.99718,0.36105,1.36356,1.0541,1.10369,2.09895
			c-0.03378,0.13582-0.06071,0.27621-0.11637,0.40327c-0.42603,0.97235-0.84756,1.94689-1.2912,2.91121
			c-0.72207,1.56943-1.56104,3.08509-2.09386,4.74032c-0.4264,1.3246-0.90025,2.63389-1.34452,3.95286
			c-0.05221,0.155-0.02481,0.33751-0.08046,0.49049c-0.06218,0.17096-0.13854,0.38329-0.2765,0.47086
			c-0.33418,0.21214-0.46427,0.53568-0.63625,0.85938c-0.31342,0.58997-0.65809,1.16583-1.02635,1.7234
			c-0.28053,0.42471-0.57323,0.82769-0.58382,1.3666c-0.00258,0.13137-0.03749,0.32001-0.12714,0.38258
			c-0.70069,0.48903-0.66818,1.31661-0.95674,1.99444c-0.2066,0.48534-0.3922,0.98506-0.65267,1.44094
			c-0.69871,1.22289-1.22636,2.50861-1.56945,3.87395c-0.0803,0.3194-0.20823,0.62722-0.32136,0.93777
			c-0.04771,0.13091-0.14355,0.24992-0.16668,0.38317c-0.11182,0.6442-0.40234,1.20508-0.70859,1.77605
			c-0.21868,0.40765-0.34288,0.89204-0.39798,1.35543c-0.08815,0.74151-0.49086,1.35402-0.71407,2.03681
			c-0.3471,1.06186-0.68019,2.12829-1.02097,3.19222c-0.07684,0.23994-0.14673,0.48353-0.24399,0.71531
			c-0.60882,1.45124-0.9966,2.96054-1.27167,4.50861c-0.14507,0.81659-0.40966,1.61177-0.61433,2.41813
			c-0.02632,0.10365-0.05807,0.23644-0.01701,0.32196c0.42078,0.87593,0.50037,1.91317,1.23586,2.63924
			c0.15775,0.15575,0.32616,0.30265,0.50162,0.43821c0.86493,0.66826,1.87877,0.97729,2.93546,1.12669
			c0.51615,0.07299,1.0592,0.06075,1.57688-0.00971c0.57924-0.07886,1.13727-0.30752,1.7159-0.39823
			c0.76773-0.12033,1.31913-0.5538,1.8541-1.06635c0.38033-0.36438,0.78824-0.71496,1.23244-0.99452
			c0.92029-0.57922,1.53127-1.46348,2.28664-2.20445c0.41792-0.40995,0.85984-0.79652,1.26256-1.22057
			c0.49964-0.52607,1.02592-1.04046,1.44195-1.62962c1.07853-1.5274,2.0577-3.12281,3.14545-4.64607
			c0.67991-0.95212,1.19089-2.03748,1.94371-2.92168c0.94717-1.11246,1.48254-2.43427,2.11208-3.69724
			c0.50198-1.00713,1.13471-1.90805,1.73579-2.84044c0.15169-0.23531,0.30806-0.46832,0.44609-0.71159
			c0.64909-1.14385,1.34175-2.26646,1.92638-3.44262c0.86028-1.73063,2.06717-3.24891,2.94807-4.96243
			c0.15224-0.29616,0.24252-0.6235,0.38264-0.92665c0.56281-1.21787,1.15593-2.42236,1.69061-3.65234
			c0.19745-0.45424,0.31256-0.95848,0.38124-1.45161c0.15623-1.12157,0.78229-2.01562,1.33415-2.95036
			c0.14114-0.23911,0.25337-0.49547,0.39746-0.73261c0.20093-0.33076,0.41867-0.65133,0.63049-0.97543
			c0.13661-0.20905,0.30597-0.40272,0.40836-0.62713c0.5798-1.271,1.12363-2.55879,1.72221-3.82072
			c0.2739-0.57748,0.63211-1.117,0.97498-1.65925c0.43997-0.6958,0.65388-1.46207,0.86879-2.25011
			c0.18697-0.68559,0.58911-1.31253,0.8967-1.96516c0.12856-0.27275,0.27942-0.53712,0.38335-0.81889
			c0.25139-0.68163,0.50899-1.3631,0.71278-2.05965c0.27411-0.93679,0.48482-1.89201,0.75177-2.83106
			c0.19093-0.67159,0.40215-1.34058,0.66109-1.98801c0.09671-0.24186,0.32578-0.45885,0.54489-0.61774
			c0.43236-0.3136,0.67587-0.70105,0.80016-1.22768c0.12605-0.53412,0.35408-1.04862,0.57712-1.55422
			c0.25587-0.58,0.86961-0.75769,1.33794-1.09613c0.15669-0.11323,0.3755-0.14793,0.51685-0.27369
			c0.54245-0.48257,1.14227-0.36669,1.74654-0.19839c0.42847,0.11933,0.84485,0.2825,1.27406,0.39861
			c1.20015,0.32464,1.61244,0.96385,1.5132,2.22681c-0.13765,1.75172-0.68837,3.3906-1.27654,5.02397
			c-0.30215,0.83903-0.58661,1.68461-0.90106,2.51894c-0.08685,0.23035-0.25945,0.4272-0.38129,0.64579
			c-0.47508,0.85242-0.97179,1.69421-1.41057,2.56508c-0.45305,0.89926-0.84267,1.83031-1.27048,2.74254
			c-0.35428,0.75549-0.73009,1.50087-1.08458,2.25623c-0.32034,0.68265-0.60965,1.38016-0.94028,2.05761
			c-0.34248,0.70174-0.718,1.38738-1.07961,2.07977c-0.14192,0.27168-0.3439,0.52757-0.41788,0.81643
			c-0.30215,1.17987-0.98973,2.17147-1.51413,3.24339c-0.55104,1.12631-1.04578,2.28011-1.57176,3.41882
			c-0.10448,0.22618-0.23843,0.43879-0.3598,0.6571c-0.18771,0.33766-0.39098,0.67233-0.22282,1.07459
			c0.09145,0.00723,0.17667,0.03516,0.19379,0.01222c0.48044-0.64333,0.95255-1.29291,1.42935-1.93897
			c0.21399-0.28996,0.40877-0.6004,0.65872-0.8561c0.4503-0.46054,0.90012-0.89909,1.18529-1.5049
			c0.18477-0.39254,0.52417-0.72012,0.8253-1.04838c0.60371-0.65809,1.22858-1.29678,1.84508-1.94309
			c0.03857-0.04043,0.09131-0.07112,0.11929-0.11734c0.81441-1.34544,2.03952-2.36606,2.90466-3.67202
			c0.12172-0.18375,0.28375-0.34599,0.44768-0.4957c1.00853-0.92115,1.99585-1.85316,2.88432-2.90379
			c0.97131-1.14859,2.0663-2.19181,3.29988-3.08212c0.70082-0.50581,1.3615-1.07808,1.9825-1.68003
			c0.45795-0.44389,0.78406-1.02278,1.23706-1.47296c0.77222-0.76742,1.56689-1.51907,2.41016-2.20615
			c0.79922-0.65119,1.68323-1.19712,2.51109-1.81463c0.89563-0.66804,1.76854-1.36652,2.6535-2.04893
			c0.1758-0.13555,0.34698-0.2887,0.54463-0.38235c1.32214-0.6264,2.52019-1.43011,3.66679-2.34215
			c0.69228-0.55064,1.5096-0.95781,2.30566-1.36034c0.76765-0.38816,1.57687-0.69566,2.37395-1.02377
			c0.89655-0.36908,1.80411-0.6065,2.76721-0.20981c0.16835,0.06934,0.3862,0.06911,0.5712,0.03918
			c1.09377-0.17698,1.8019,0.439,2.43362,1.18502c0.10417,0.12305,0.14827,0.38326,0.09543,0.53728
			c-0.18019,0.52519-0.41895,1.03008-0.63005,1.54491c-0.30695,0.74869-0.65033,1.48559-0.90552,2.25173
			c-0.63919,1.91904-1.50845,3.72466-2.53551,5.46264c-0.20908,0.35387-0.28821,0.78211-0.47398,1.15263
			c-0.62651,1.24943-1.27621,2.4872-1.91269,3.73164c-0.27997,0.54735-0.54591,1.10184-0.82495,1.64967
			c-0.19038,0.37377-0.39706,0.73924-0.58826,1.11263c-0.28058,0.54797-0.56299,1.09534-0.82759,1.65108
			c-0.2516,0.52837-0.43199,1.08877-0.8255,1.54734c-0.15918,0.18549-0.25896,0.43444-0.34285,0.6698
			c-0.31834,0.89342-0.60439,1.79852-0.93188,2.68844c-0.20204,0.54907-0.45204,1.08086-0.6899,1.61626
			c-0.26112,0.58784-0.54222,1.16695-0.79564,1.75799c-0.09746,0.22727-0.175,0.47285-0.2056,0.71712
			c-0.08847,0.70587-0.30717,1.36581-0.65179,1.98271c-0.46889,0.83929-0.78207,1.71838-0.94386,2.67653
			c-0.10989,0.65108-0.37645,1.28911-0.65463,1.89551c-0.54166,1.18064-0.8774,2.41403-1.11253,3.68402
			c-0.10162,0.54874-0.25647,1.08748-0.36398,1.63529c-0.08043,0.40969-0.13036,0.82585-0.18156,1.24065
			c-0.04105,0.33279-0.01068,0.68343-0.10345,0.99929c-0.4449,1.51466-0.52451,3.0842-0.70763,4.63516
			c-0.19449,1.64732-0.10663,3.28491,0.27899,4.91689c0.36162,1.53056,0.83517,3.0045,1.47195,4.44644
			c0.38834,0.87934,0.7558,1.73525,1.44136,2.42371c0.72501,0.7281,1.39778,1.5062,2.25198,2.10264
			c0.74689,0.5215,1.49098,0.60697,2.27705,0.1475c0.94576-0.55282,1.86366-1.1339,2.45221-2.11515
			c0.16731-0.27898,0.46828-0.47567,0.6965-0.72078c0.30251-0.32496,0.64919-0.62179,0.73485-1.09613
			c0.01389-0.07677,0.06252-0.16129,0.12068-0.21391c0.61513-0.5564,1.1851-1.18208,1.86732-1.63995
			c0.81676-0.54814,1.40126-1.28422,1.95361-2.04964c0.46828-0.64888,1.01471-1.25444,1.25063-2.06529
			c0.09532-0.32756,0.42194-0.58372,0.62413-0.88526c0.27921-0.41645,0.53964-0.84546,0.80925-1.26838
			c0.29904-0.46909,0.59377-0.94107,0.90053-1.40509c0.38481-0.58205,0.77989-1.15731,1.17058-1.7355
			c0.51155-0.75706,1.02202-1.51488,1.53499-2.27099c0.59428-0.876,1.18033-1.75789,1.79099-2.62237
			c0.28735-0.40684,0.6301-0.77411,0.93549-1.16879c0.15146-0.19573,0.29515-0.40268,0.40771-0.62229
			c0.35519-0.69275,0.69463-1.39359,1.03889-2.0919c0.22284-0.4519,0.43761-0.90789,0.66667-1.35659
			c0.29022-0.56854,0.5239-1.15777,1.00385-1.62919c0.32645-0.32066,0.50769-0.78709,0.76396-1.18179
			c0.33185-0.51109,0.69025-1.00566,1.006-1.52628c0.24434-0.40281,0.43582-0.83737,0.66074-1.25242
			c0.09177-0.16933,0.20282-0.32955,0.31708-0.48509c0.52834-0.71917,1.10779-1.40613,1.57642-2.16199
			c0.34877-0.56253,0.6021-1.1972,0.81567-1.82761c0.34637-1.02225,1.01697-1.84425,1.5827-2.73074
			c0.20918-0.32778,0.54176-0.58059,0.73036-0.9168c0.25415-0.45303,0.48552-0.93756,0.61493-1.43749
			c0.20151-0.77851,0.65823-1.41614,1.00928-2.11285c0.15778-0.31309,0.27458-0.64682,0.45529-1.07966
			c0.87167-0.35015,1.30977-1.23053,1.60919-2.15681c0.22563-0.69798,0.56189-1.33371,0.95988-1.91325
			c0.60445-0.88018,1.2002-1.74831,1.56129-2.763c0.11108-0.31213,0.29933-0.59682,0.45264-0.89388
			c0.07657-0.14835,0.18788-0.28817,0.22556-0.44569c0.23904-0.99999,0.73616-1.91145,0.90636-2.94749
			c0.10376-0.63184,0.54805-1.20747,0.83751-1.80926c0.08321-0.17303,0.16467-0.34722,0.23849-0.52438
			c0.23456-0.5628,0.37372-1.19423,0.72359-1.67176c0.33339-0.45508,0.85039-0.81112,1.35176-1.09636
			c0.39366-0.22397,0.77089-0.41132,1.01172-0.81593c0.08046-0.13517,0.24731-0.21891,0.40501-0.35172
			c-0.03679-0.20186-0.07506-0.41183-0.1304-0.71543c0.30969-0.07859,0.5929-0.20232,0.87981-0.21168
			c0.48859-0.01593,0.92595-0.13604,1.36903-0.34233c0.28755-0.13389,0.66922-0.23057,0.96112-0.15644
			c0.642,0.16301,1.29138,0.37676,1.86867,0.6951c0.76552,0.42213,0.92029,0.93619,0.61592,1.77081
			c-0.20992,0.57561-0.51109,1.11772-0.76714,1.67679c-0.35818,0.78205-0.6884,1.57804-1.07559,2.34536
			c-0.32674,0.64756-0.73651,1.25279-1.07529,1.89484c-0.44241,0.83846-0.85141,1.69458-1.27425,2.54338
			c-0.33661,0.6757-0.68874,1.34434-1.00357,2.03007c-0.26768,0.58298-0.49153,1.18609-0.73584,1.77985
			c-0.04242,0.10309-0.06699,0.22572-0.13901,0.30254c-0.66942,0.7139-0.86082,1.64223-1.02858,2.53767
			c-0.1497,0.79899-0.56543,1.45524-0.88399,2.16097c-0.23869,0.52882-0.65414,0.97518-0.92683,1.49204
			c-0.25974,0.49236-0.46632,1.01845-0.64439,1.54718c-0.67932,2.01701-1.4449,3.99598-2.42256,5.89091
			c-0.18935,0.367-0.27443,0.7875-0.41074,1.18224c-0.31834,0.92197-0.63443,1.84475-0.95914,2.76449
			c-0.38106,1.07938-0.76985,2.15604-1.15663,3.23339c-0.03766,0.10491-0.07468,0.21204-0.12872,0.30881
			c-0.65886,1.17982-1.05991,2.45856-1.448,3.74319c-0.36395,1.2047-0.7661,2.39875-1.09587,3.61258
			c-0.20377,0.74998-0.30775,1.52746-0.44743,2.29425c-0.04503,0.2472-0.04701,0.5023-0.09279,0.74933
			c-0.15268,0.82354-0.34933,1.64051-0.46397,2.469c-0.07588,0.54819-0.10228,1.11875-0.04103,1.66703
			c0.1133,1.01389-0.01897,2.0103-0.11742,3.00849c-0.0502,0.5088-0.05563,0.99652,0.05609,1.49816
			c0.26712,1.19939,0.4968,2.4071,0.75887,3.60766c0.17874,0.81869,0.37772,1.63334,0.58856,2.44436
			c0.04697,0.18057,0.18164,0.33836,0.27603,0.50658c0.25844,0.46063,0.54047,0.9098,0.77037,1.38424
			c0.45314,0.93513,2.02031,2.45365,3.26196,2.30041c0.83324-0.10283,1.55066-0.46714,2.23535-0.89337
			c0.51923-0.3232,0.97604-0.74669,1.46024-1.12604c0.76936-0.60277,1.54395-1.19906,2.30444-1.8128
			c0.25827-0.20844,0.50702-0.44007,0.71492-0.69761c0.89415-1.10772,1.76422-2.2349,2.65862-3.34245
			c0.3511-0.43477,0.70552-0.87968,1.12437-1.2442c0.77451-0.67406,1.32588-1.50294,1.83286-2.37514
			c0.09772-0.1681,0.20462-0.33681,0.33627-0.47827c0.76012-0.81669,1.53802-1.61699,2.28918-2.44173
			c0.2229-0.24473,0.39571-0.54071,0.56218-0.83006c0.39064-0.679,0.74306-1.38074,1.15144-2.0485
			c0.24574-0.40177,0.61052-0.73199,0.84689-1.13799c0.63126-1.08418,1.35292-2.11344,1.8414-3.28623
			c0.24146-0.5798,0.71588-1.0601,1.06625-1.59757c0.60834-0.93317,1.2144-1.86827,1.79764-2.81718
			c0.36472-0.5934,0.67964-1.21716,1.02797-1.82091c0.67068-1.1625,1.37503-2.30637,2.01785-3.48393
			c0.77507-1.41984,1.50117-2.86643,2.24683-4.30231c0.06412-0.12347,0.15991-0.2513,0.16603-0.38066
			c0.03772-0.79781,0.5858-1.24036,1.1429-1.67305c0.37759-0.29327,0.68401-0.63196,0.97945-1.01584
			c0.41888-0.54426,0.95445-1.01106,1.49062-1.44922c0.54198-0.44289,1.10236-0.84589,1.31261-1.55978
			c0.33241-1.12862,0.86322-2.17765,1.29965-3.26438c0.41623-1.03639,0.70639-2.12314,1.05872-3.18551
			c0.61702-1.8605,1.33162-3.68213,2.14363-5.46726c0.38138-0.83841,0.68423-1.71225,1.05415-2.55624
			c0.22369-0.51039,0.53928-0.98087,0.75809-1.49298c0.43889-1.02713,0.79787-2.08998,1.26804-3.10175
			c0.47028-1.01193,1.03705-1.97895,1.55905-2.96696c0.10397-0.1968,0.21288-0.39341,0.29123-0.6008
			c0.12935-0.34238,0.2524-0.67484,0.5748-0.9012c0.13023-0.09143,0.22276-0.25142,0.30339-0.39637
			c1.03232-1.85623,2.03477-3.72647,2.76172-5.73104c0.12308-0.33939,0.33662-0.64487,0.48898-0.97496
			c0.46619-1.01012,0.90213-2.0331,1.38344-3.03773c0.42918-0.89581,0.97687-1.73269,1.27036-2.71878
			c0.29839-1.0025,0.91721-1.90741,1.3725-2.86608c0.43018-0.9058,0.96783-1.76311,1.25165-2.73625
			c0.02322-0.07971,0.05798-0.16069,0.1059-0.22789c0.61523-0.86315,0.93945-1.8922,1.62149-2.72651
			c0.6181-0.75607,1.09128-1.60875,1.46729-2.53065c0.68518-1.67985,1.43402-3.33636,2.22427-4.96973
			c0.48422-1.00086,1.09866-1.9384,1.64767-2.90831c0.496-0.87621,0.9816-1.7583,1.47351-2.6368
			c0.44995-0.80354,0.91898-1.59695,1.34741-2.41175c0.2728-0.51875,0.47769-1.07273,0.72955-1.60307
			c0.34668-0.73002,0.70093-1.4411,1.24762-2.0698c0.65503-0.75324,1.16122-1.6337,1.77518-2.42548
			c0.50952-0.65706,1.00882-1.33492,1.73682-1.78882c0.13693-0.08539,0.23645-0.23414,0.34525-0.36051
			c0.1084-0.1259,0.18231-0.29646,0.31342-0.38548c1.03906-0.70552,2.09464-1.38681,3.13107-2.09609
			c0.42349-0.28982,1.70898,0.04294,1.96396,0.3822c0.10779,0.14346,0.16284,0.36137,0.16245,0.54527
			c-0.00159,0.75527-0.02423,1.51087-0.05676,2.2656c-0.05981,1.38871-0.45132,2.74891-0.35696,4.15201
			c0.02939,0.43687-0.11298,0.82519-0.38019,1.17241c-0.51871,0.67403-0.81628,1.4455-1.09155,2.24746
			c-0.21426,0.62429-0.60471,1.19333-0.95316,1.7648c-0.31952,0.52405-0.68741,1.0186-1.0343,1.52593
			c-0.60974,0.89182-0.93085,1.90359-1.22263,2.92853c-0.36929,1.29716-0.86041,2.54361-1.59433,3.68191
			c-0.30063,0.46625-0.71442,0.87742-0.93076,1.37689c-0.74237,1.714-1.69803,3.31694-2.51913,4.98894
			c-0.08499,0.17308-0.21954,0.32195-0.33228,0.48124c-0.48459,0.68485-0.91266,1.39083-1.263,2.16591
			c-0.52786,1.16784-1.1727,2.28665-1.82166,3.39478c-0.59418,1.01461-1.12268,2.0546-1.63693,3.11205
			c-0.45023,0.92589-0.73587,1.93142-1.30997,2.7952c-0.24591,0.36999-0.52759,0.71604-0.78882,1.07603
			c-0.42419,0.58453-0.8457,1.171-1.26605,1.75829c-0.04843,0.0677-0.06631,0.16386-0.12546,0.21632
			c-0.66336,0.58852-1.04996,1.37154-1.453,2.13071c-0.42996,0.80989-0.98328,1.56062-1.20651,2.47872
			c-0.06976,0.28692-0.26984,0.54466-0.42307,0.80832c-0.53281,0.91676-1.06534,1.83379-1.61099,2.74292
			c-0.1722,0.28688-0.38232,0.55136-0.58018,0.8224c-0.46004,0.63018-0.97867,1.22278-1.19624,2.00114
			c-0.0432,0.15452-0.15092,0.29947-0.25552,0.42699c-0.83754,1.02117-1.54076,2.11691-2.0752,3.33427
			c-0.27759,0.63231-0.70563,1.20313-1.09901,1.77898c-0.61458,0.89963-1.27299,1.76028-1.76215,2.75094
			c-0.61682,1.24924-1.35849,2.43707-2.05193,3.64818c-0.61362,1.07164-0.92876,2.24948-1.28416,3.41993
			c-0.23203,0.76404-0.44521,1.55088-0.92691,2.22482c-0.11917,0.16675-0.0961,0.42926-0.1662,0.63842
			c-0.09564,0.28539-0.15282,0.62357-0.34525,0.82646c-0.23906,0.25202-0.30992,0.50254-0.32555,0.82123
			c-0.04132,0.84377-0.28009,1.64124-0.61324,2.41281c-0.02216,0.05133-0.06863,0.09963-0.07111,0.15091
			c-0.05731,1.19101-0.83716,2.09836-1.2354,3.15503c-0.20645,0.54771-0.41986,1.09284-0.62747,1.64014
			c-0.01945,0.05129-0.03859,0.11451-0.02617,0.16429c0.17813,0.71396-0.17435,1.3697-0.23961,2.05762
			c-0.05975,0.62996-0.21265,1.28215-0.47635,1.8546c-0.42427,0.92103-0.41664,1.90428-0.59387,2.86072
			c-0.08101,0.43723-0.16628,0.87374-0.24057,1.31212c-0.13553,0.79972-0.23586,1.60656-0.40222,2.39966
			c-0.29106,1.38747-0.06813,2.78287-0.11299,4.17342c-0.01796,0.55717-0.03915,1.09335-0.22192,1.64693
			c-0.28696,0.86911-0.42924,1.78651-0.62117,2.68592c-0.028,0.13119-0.03172,0.29396,0.02112,0.41167
			c0.31961,0.71184,0.17644,1.48845,0.32979,2.22207c0.0166,0.07948,0.02193,0.18244-0.01451,0.24866
			c-0.4259,0.77419-0.09491,1.59118-0.13736,2.38569c-0.04219,0.78949,0.11473,1.55567,0.34923,2.31181
			c0.16425,0.52964,0.19122,1.112,0.41273,1.61177c0.57256,1.29176,1.41116,2.4146,2.47194,3.34954
			c1.0341,0.91145,2.18581,1.04856,3.41559,0.38716c0.83717-0.45025,1.68744-0.87713,2.51312-1.34734
			c0.31172-0.17752,0.58604-0.43121,0.85088-0.67859c0.65353-0.61045,1.31731-1.18747,2.17729-1.51332
			c0.63083-0.23902,0.92834-0.87099,1.37003-1.33231c0.1906-0.19906,0.36729-0.41434,0.57516-0.59337
			c0.6169-0.53132,1.17757-1.09834,1.64583-1.77972c0.43958-0.63971,0.99457-1.20528,1.53409-1.76974
			c0.57436-0.6009,1.16156-1.18509,1.81296-1.71632c0.43057-0.35117,0.69571-0.93925,0.9512-1.46216
			c0.29626-0.60625,0.76761-1.04604,1.28079-1.41389c0.6192-0.44387,1.00223-1.03952,1.3844-1.66075
			c0.23285-0.37849,0.46667-0.76536,0.75919-1.09615c0.47659-0.53892,0.8562-1.16338,1.43631-1.61488
			c0.14313-0.11139,0.19943-0.32995,0.30774-0.49112c0.54492-0.81082,1.08936-1.62199,1.64273-2.427
			c0.44232-0.64342,0.95593-1.24564,1.3324-1.92464c0.53537-0.96562,1.31216-1.73662,1.94244-2.62241
			c0.22458-0.31559,0.42664-0.64758,0.63138-0.97681c0.17657-0.28393,0.33334-0.58041,0.51456-0.86121
			c0.62079-0.96191,1.23651-1.92744,1.87677-2.87634c0.71478-1.05939,1.46487-2.09493,2.17999-3.1541
			c0.71808-1.06357,1.40552-2.14781,2.11993-3.21392c0.26349-0.39322,0.59763-0.74104,0.84329-1.14388
			c0.49112-0.80537,0.91794-1.65038,1.41794-2.44986c0.71484-1.14299,1.17801-2.40211,1.75266-3.61012
			c0.64911-1.36446,1.34552-2.70638,2.01999-4.05878c0.07452-0.14941,0.15741-0.29784,0.20706-0.45592
			c0.25256-0.80392,0.59467-1.55403,1.03854-2.28165c0.49246-0.80726,0.82211-1.71267,1.24313-2.56522
			c0.18445-0.37352,0.44791-0.70863,0.62576-1.08468c0.33298-0.70398,0.61996-1.42953,0.94376-2.13804
			c0.48792-1.06776,0.99484-2.12681,1.48654-3.19286c0.55014-1.19283,1.06845-2.40105,1.64761-3.57947
			c0.30499-0.62058,0.71597-1.18851,1.06769-1.78691c0.16876-0.28712,0.3183-0.58627,0.46414-0.886
			c0.74579-1.53265,1.48083-3.07057,2.23325-4.59996c0.43118-0.87643,0.88901-1.73974,1.33331-2.60973
			c0.22852-0.44749,0.45367-0.8967,0.68045-1.3451c0.80582-1.59341,1.62292-3.18124,2.41333-4.78227
			c0.49411-1.00092,0.93375-2.02866,1.42337-3.03189c0.64749-1.32669,1.3287-2.63692,1.9772-3.96313
			c0.24344-0.49786,0.41708-1.02965,0.65668-1.52963c0.25247-0.52686,0.57336-1.02159,0.81522-1.55272
			c0.47455-1.04204,0.89212-2.11034,1.37854-3.14651c0.27087-0.57702,0.5672-1.16529,0.96823-1.65298
			c0.72656-0.88356,1.11652-1.93582,1.62405-2.92846c0.55942-1.09418,1.05005-2.2238,1.6192-3.3126
			c0.20337-0.38901,0.52438-0.72714,0.83322-1.04857c1.4342-1.49256,2.8811-2.97293,4.32706-4.45416
			c1.42426-1.45902,2.86093-2.90606,4.27344-4.37635c0.3219-0.3351,0.66913-0.44546,1.11874-0.44481
			c1.39792,0.002,2.45639,0.7193,3.38547,1.63655c0.50073,0.49433,0.37241,1.19236,0.25162,1.8296
			c-0.0722,0.38095-0.24451,0.75554-0.24759,1.13399c-0.00446,0.54456-0.17828,0.98125-0.5416,1.36314
			c-0.76498,0.80402-1.17203,1.83605-1.71854,2.77414c-0.30099,0.51669-0.37183,1.16419-0.57037,1.74453
			c-0.38873,1.13623-0.80463,2.25522-1.44305,3.29086c-0.3143,0.50987-0.47839,1.12214-0.65289,1.70531
			c-0.138,0.46116-0.28677,0.89193-0.59979,1.27555c-0.91028,1.11555-1.62915,2.33223-1.93417,3.76775
			c-0.06747,0.31748-0.25208,0.61993-0.42523,0.90336c-0.74323,1.21679-1.5191,2.4139-2.24777,3.63919
			c-0.31287,0.52608-0.57907,1.08832-0.79742,1.66047c-0.46414,1.21608-1.15912,2.30004-1.91351,3.33884
			c-0.50037,0.689-0.84457,1.44756-1.20575,2.19878c-0.57047,1.18645-1.29477,2.2727-1.98431,3.38725
			c-0.49414,0.79866-1.24844,1.44647-1.47806,2.40628c-0.88016,1.25419-1.42004,2.72405-2.53317,3.83976
			c-0.44196,0.44302-0.71512,1.06351-1.02835,1.62376c-0.4357,0.77924-0.83374,1.57944-1.25504,2.36685
			c-0.09174,0.17142-0.20758,0.33114-0.32269,0.48865c-0.79037,1.08142-1.63055,2.13013-2.36115,3.25039
			c-0.60779,0.93199-1.09894,1.94141-1.62152,2.92728c-0.54938,1.03647-1.17752,2.01085-1.92014,2.92649
			c-0.94907,1.17024-1.91489,2.34374-2.45575,3.78467c-0.13956,0.37177-0.34277,0.68121-0.64655,0.95931
			c-0.3252,0.29767-0.56982,0.68657-0.83389,1.04715c-0.72662,0.99222-1.48187,1.96626-2.15588,2.99339
			c-0.62341,0.94998-1.15509,1.96008-1.73044,2.94181c-0.09894,0.16885-0.18991,0.35275-0.32626,0.4875
			c-0.53229,0.52609-0.80557,1.20161-1.12952,1.85281c-0.22275,0.44783-0.50793,0.86419-0.74323,1.30631
			c-0.27423,0.51535-0.56931,1.02643-0.776,1.56953c-0.44717,1.17508-0.87057,2.35671-1.19162,3.5797
			c-0.20917,0.79682-0.53693,1.57008-1.02594,2.28214c-0.36752,0.53516-0.53894,1.21682-0.74054,1.8514
			c-0.32104,1.01069-0.55228,2.05106-0.89804,3.05246c-0.51978,1.50546-1.17847,2.96443-1.43033,4.55478
			c-0.03439,0.2173-0.12488,0.43114-0.21921,0.63262c-0.53751,1.14774-0.66711,2.41349-1.03967,3.60981
			c-0.1532,0.49182-0.11264,1.04991-0.12402,1.57864c-0.01901,0.88439-0.34543,1.69529-0.55573,2.53484
			c-0.08746,0.34917-0.21808,0.72641-0.16473,1.06497c0.19131,1.21362-0.10565,2.39115-0.17737,3.58415
			c-0.01511,0.25091-0.05093,0.50286-0.03949,0.75261c0.03842,0.83758,0.10773,1.67389,0.13721,2.51167
			c0.01529,0.43552,0.08051,0.82729,0.41104,1.14954c0.13571,0.13234,0.26651,0.30764,0.31418,0.48619
			c0.29846,1.11787,1.11032,1.86187,1.89206,2.62186c0.37946,0.36893,0.81433,0.68063,1.22183,1.02097
			c1.25375,1.0471,2.65012,0.91176,4.05002,0.42924c0.65579-0.22604,1.25677-0.60806,1.88956-0.90459
			c0.70114-0.32857,1.26517-0.82561,1.74805-1.4149c0.59433-0.72525,1.36563-1.23805,2.10913-1.77901
			c0.52618-0.38285,0.97226-0.81102,1.36752-1.33622c0.50055-0.6651,1.08615-1.2751,1.68991-1.85145
			c0.80759-0.77094,1.66891-1.48558,2.50403-2.22788c0.10284-0.09142,0.21503-0.19005,0.2749-0.3094
			c0.66672-1.32871,1.76624-2.30139,2.81046-3.2951c0.96127-0.91477,1.79309-1.91847,2.53677-3.00069
			c0.94904-1.38102,1.84988-2.79508,2.78851-4.1834c0.2337-0.34566,0.50375-0.67799,0.80719-0.96317
			c0.95959-0.90197,1.57126-2.07812,2.44119-3.05109c0.233-0.26064,0.39066-0.61674,0.49637-0.95599
			c0.13065-0.4192,0.25586-0.79345,0.72717-0.94366c0.11984-0.03821,0.24127-0.15205,0.30814-0.26346
			c0.57138-0.95242,1.25323-1.84825,1.53497-2.95232c0.03415-0.13381,0.09695-0.26265,0.16141-0.386
			c0.28119-0.53812,0.5679-1.07336,0.87244-1.64697c0.33463-0.55795,0.62335-1.13017,0.87271-1.67741
			c0.51984-1.14084,1.00748-2.29918,1.58771-3.40881c0.52588-1.00564,1.16635-1.95078,1.73892-2.93273
			c0.42105-0.72216,0.81146-1.46213,1.22079-2.19121c0.16364-0.29141,0.34647-0.572,0.51166-0.86256
			c0.43936-0.77276,0.83908-1.57076,1.32083-2.3159c0.42212-0.65293,0.95139-1.23553,1.40234-1.87117
			c0.61334-0.86452,1.15201-1.78533,1.80389-2.61847c1.08295-1.38403,2.18634-2.75214,3.47409-3.96462
			c1.17944-1.11049,2.29117-2.29261,3.44482-3.43095c0.41489-0.40938,0.87537-0.7723,1.29514-1.17706
			c0.25903-0.24977,0.4801-0.53886,0.71906-0.80956c0.12875-0.14584,0.24551-0.30602,0.39142-0.4323
			c0.59195-0.51228,1.18942-1.01839,1.79251-1.51754c0.27966-0.23147,0.56665-0.45701,0.86823-0.65843
			c0.5816-0.38846,1.16226-0.78195,1.76987-1.12648c0.38525-0.21843,0.80481-0.43732,1.23303-0.50597
			c0.84866-0.13604,1.59998-0.51175,2.35718-0.85642c1.01755-0.4632,2.09973-0.61191,3.17651-0.71397
			c1.70435-0.16154,3.40961,0.0531,5.08926,0.32753c0.87369,0.14274,1.71136,0.51735,2.55859,0.80682
			c0.60663,0.20726,1.23395,0.38748,1.79486,0.68689c0.76315,0.40738,1.52246,0.85432,2.1925,1.39662
			c1.12836,0.9132,2.20749,1.89135,3.25974,2.89222c0.35199,0.33482,0.63477,0.79224,0.81552,1.24677
			c0.36136,0.90874-0.01089,1.68725-0.63147,2.35476c-0.64651,0.69543-1.30801,1.37787-1.98383,2.04484
			c-0.55618,0.54888-1.14566,1.06385-1.715,1.59956c-0.36676,0.3451-0.73273,0.69192-1.08246,1.05397
			c-0.29959,0.31015-0.63367,0.4263-1.06189,0.33067c-0.6434-0.14368-1.20691-0.39601-1.65948-0.90515
			c-0.31326-0.3524-0.69931-0.63969-1.04941-0.9598c-1.26361-1.15534-2.56952-2.2499-4.18369-2.89784
			c-0.31082-0.12476-0.62891-0.23186-0.94577-0.34097c-0.15738-0.05418-0.3634-0.04752-0.47198-0.14906
			c-0.46954-0.43896-1.03802-0.47797-1.63522-0.52645c-0.72165-0.05859-1.43893-0.19044-2.15268-0.32024
			c-0.5058-0.09198-0.99393-0.08878-1.49695,0.03007c-1.17194,0.27691-2.35306,0.51819-3.37653,1.20733
			c-0.04568,0.03075-0.09872,0.06004-0.15186,0.0689c-1.56772,0.26157-2.72345,1.26635-3.9043,2.20293
			c-0.74292,0.5892-1.43945,1.2322-2.052,1.97555c-0.76132,0.92388-1.60156,1.785-2.43793,2.64381
			c-0.40802,0.41898-0.89566,0.75922-1.32657,1.15749c-0.34726,0.32098-0.67194,0.66783-0.99121,1.0173
			c-0.35812,0.39207-0.72232,0.7823-1.0419,1.20506c-0.50427,0.66708-1.00076,1.3433-1.44916,2.04833
			c-0.37405,0.58817-0.67136,1.22488-1.00818,1.83704c-0.29501,0.5362-0.69534,1.03723-0.87637,1.60856
			c-0.3577,1.12888-1.02957,2.10532-1.43207,3.20628c-0.04767,0.13039-0.09601,0.27951-0.19125,0.3706
			c-1.15665,1.1061-1.52499,2.63952-2.20062,4.00751c-0.33188,0.67196-0.4827,1.43152-0.98212,2.02362
			c-0.08759,0.10384-0.17566,0.24514-0.18231,0.37337c-0.05698,1.09492-0.71518,1.95705-1.10284,2.92339
			c-0.0817,0.2036-0.07388,0.44154-0.14127,0.65283c-0.09122,0.28606-0.15427,0.61339-0.33844,0.83049
			c-0.33179,0.39108-0.40836,0.84703-0.50626,1.31104c-0.10953,0.51894-0.23154,1.03528-0.33749,1.55491
			c-0.13342,0.6541-0.25204,1.31122-0.38528,1.96534c-0.05566,0.27316-0.13199,0.54211-0.19998,0.81271
			c-0.0271,0.10789-0.09702,0.22208-0.07965,0.32155c0.28409,1.62498-0.18408,3.225-0.15253,4.84126
			c0.02185,1.11783,0.01743,2.23615,0.02808,3.35423c0.00131,0.13859-0.00095,0.28448,0.03931,0.41433
			c0.43814,1.41321,0.82266,2.84737,1.34756,4.22801c0.43805,1.15212,1.14737,2.16612,2.11075,2.97206
			c0.45029,0.37672,0.89337,0.76303,1.35733,1.12226c0.43268,0.33502,0.927,0.38307,1.43329,0.18795
			c0.33829-0.13038,0.70419-0.23824,0.98932-0.44882c1.0108-0.74657,2.01096-1.51033,2.97821-2.31216
			c0.64539-0.53502,1.25735-1.11848,1.82837-1.73227c0.37549-0.40361,0.68533-0.88003,0.96463-1.35883
			c0.5293-0.90742,1.22012-1.68017,2.02069-2.33078c0.71597-0.58184,1.23547-1.29849,1.66428-2.07699
			c0.59979-1.08893,1.36734-2.03829,2.20157-2.9433c0.41727-0.4527,0.90738-0.84928,1.26431-1.34361
			c0.38873-0.53834,0.69135-1.14623,0.97809-1.74921c0.54504-1.14616,1.2565-2.17946,2.04419-3.16539
			c0.31445-0.39357,0.65341-0.76788,0.95984-1.16735c0.13199-0.17204,0.24783-0.37504,0.30563-0.58223
			c0.29633-1.06199,0.73526-2.05445,1.42535-2.91782c0.41696-0.52169,0.84494-1.04336,1.32895-1.50046
			c0.58731-0.55462,1.00763-1.20323,1.27353-1.94735c0.37158-1.03997,1.05219-1.90177,1.58749-2.84634
			c0.16016-0.28262,0.44687-0.49523,0.68256-0.73302c0.67496-0.68102,0.98862-1.54002,1.22687-2.44112
			c0.06296-0.23814,0.11234-0.52653,0.27365-0.6825c0.35788-0.34599,0.45901-0.75787,0.47693-1.21452
			c0.01511-0.38565,0.14679-0.67392,0.46967-0.92832c0.46707-0.36802,0.66891-0.93703,0.86926-1.47677
			c0.27032-0.72829,0.35828-1.56557,0.77701-2.18552c0.39417-0.58354,0.83423-1.39584,1.83591-1.17913
			c0.30658,0.06632,0.5242-0.10947,0.71796-0.33905c0.70056-0.83006,0.83481-0.8522,1.95001-0.36544
			c0.22937,0.1001,0.44849,0.22953,0.65848,0.36663c0.3035,0.19815,0.47308,0.49902,0.44675,0.85446
			c-0.04944,0.66767-0.08817,1.33587-0.39053,1.96359c-0.36319,0.75402-0.75351,1.50906-0.99179,2.30563
			c-0.30527,1.02032-0.82974,1.94212-1.15576,2.95828c-0.49957,1.55709-1.19754,3.05503-1.8757,4.54883
			c-0.50085,1.1032-0.87094,2.23544-1.11755,3.41696c-0.05542,0.2655-0.13394,0.57339-0.31049,0.75767
			c-0.56555,0.59035-0.81744,1.33745-1.09839,2.0629c-0.30203,0.77994-0.51126,1.59529-0.78201,2.38799
			c-0.36996,1.08324-0.69727,2.18729-1.15833,3.23142c-0.47952,1.08588-0.81064,2.20054-1.04065,3.35606
			c-0.0372,0.18697-0.10266,0.3791-0.20081,0.54111c-0.28168,0.46487-0.37988,0.96046-0.45358,1.49972
			c-0.09726,0.71156-0.35684,1.40261-0.56573,2.09676c-0.2128,0.70718-0.33957,1.41121-0.11649,2.14223
			c0.05661,0.18543,0.07883,0.38525,0.09006,0.58c0.05884,1.01986,0.29242,1.98333,0.79123,2.88886
			c0.49863,0.90516,0.95102,1.83612,1.41187,2.76167c0.51379,1.03199,1.40414,1.57494,2.45859,1.88596
			c0.69705,0.2056,1.40466,0.38543,2.11774,0.52447c1.07965,0.21051,2.11871,0.04588,3.09833-0.46211
			c0.44727-0.23194,0.89474-0.46375,1.33768-0.7038c0.61453-0.33303,1.18048-0.71731,1.70346-1.2008
			c0.71381-0.65993,1.53113-1.20739,2.29788-1.81094c0.17465-0.13749,0.35538-0.28555,0.47937-0.46583
			c0.49411-0.71857,1.12662-1.30308,1.74313-1.91003c0.82129-0.80854,1.53198-1.68993,1.84811-2.85208
			c0.13419-0.49339,0.48239-0.9288,0.73587-1.38916c0.02652-0.04816,0.09003-0.08151,0.10321-0.13063
			c0.28149-1.04754,1.29025-1.32244,2.0155-1.8966c0.10745-0.08505,0.2402-0.16434,0.37173-0.18795
			c0.41083-0.07372,0.84866-0.22497,1.23404-0.14461C362.73111,109.42633,363.02032,109.76543,363.2897,109.95534z"/>
		<path class="st1" d="M21.82257,27.48882c1.03561,0.01403,2.07381,0.07965,3.10605,0.02739
			c1.00438-0.05084,2.00696-0.04694,3.0072-0.00953c0.51871,0.0194,1.03416,0.19413,1.54506,0.32263
			c0.24238,0.06096,0.46638,0.24233,0.70605,0.25806c0.83997,0.05514,1.52259,0.50269,2.24686,0.84273
			c0.78175,0.36705,1.31242,1.03681,1.884,1.64987c0.32418,0.34766,0.62776,0.71549,0.92551,1.08633
			c0.11983,0.14925,0.23271,0.32002,0.2912,0.49972c0.2165,0.66519,0.4113,1.33751,0.60925,2.00864
			c0.05534,0.18765,0.11841,0.37825,0.13493,0.57118c0.05491,0.64083,0.19659,1.25842,0.34217,1.88537
			c0.1604,0.69067,0.14246,1.43872,0.10187,2.1561c-0.05365,0.94733-0.19444,1.89048-0.31719,2.83291
			c-0.11473,0.88062-0.25344,1.75813-0.38539,2.63645c-0.01648,0.10997-0.02781,0.23713-0.08938,0.32132
			c-0.5099,0.69739-0.47709,1.52974-0.60918,2.32465c-0.10518,0.63287-0.27855,1.25413-0.39426,1.88557
			c-0.2823,1.53968-0.54015,3.08387-0.82752,4.62258c-0.07141,0.38253-0.22343,0.7495-0.32769,1.12659
			c-0.07305,0.26424-0.13157,0.53273-0.18903,0.80095c-0.0231,0.10784-0.00351,0.22845-0.04137,0.32893
			c-0.42241,1.12124-0.8715,2.23281-1.27549,3.36055c-0.5747,1.60397-1.1123,3.22117-1.67653,4.82895
			c-0.28701,0.81784-0.61394,1.62189-0.89122,2.44285c-0.15975,0.47309-0.25362,0.96822-0.38362,1.45171
			c-0.03571,0.13294-0.07305,0.27338-0.14586,0.3872c-0.76356,1.19318-1.09387,2.5612-1.57276,3.86918
			c-0.07657,0.20905-0.12075,0.43977-0.23903,0.62209c-0.61901,0.95393-0.96911,2.00134-1.19739,3.10842
			c-0.09448,0.4585-0.31267,0.89394-0.49464,1.33154c-0.74049,1.78075-1.51822,3.54662-2.22612,5.34013
			c-0.76908,1.94839-1.60782,3.86347-2.50288,5.75655c-0.38136,0.80647-0.67538,1.65379-1.02909,2.47394
			c-0.15403,0.35722-0.35607,0.69403-0.54115,1.03745c-0.05264,0.09768-0.15008,0.17784-0.18045,0.27988
			c-0.37582,1.26116-1.14558,2.34782-1.58214,3.58006c-0.21356,0.60278-0.38075,1.22183-0.57932,1.83012
			c-0.26003,0.7965-0.52534,1.59137-0.79752,2.38381c-0.37163,1.08173-0.75564,2.1592-1.12546,3.24152
			c-0.08118,0.23759-0.14172,0.48505-0.18371,0.73271c-0.15984,0.9433-0.5049,1.81905-0.8912,2.68994
			c-0.189,0.42618-0.24717,0.91329-0.34283,1.3773c-0.16935,0.8213-0.27214,1.65977-0.49323,2.46625
			c-0.36305,1.32407-0.3414,2.65622-0.23123,4.00003c0.00687,0.0835,0.04019,0.16653,0.03707,0.24889
			c-0.05094,1.35959,0.50328,2.56327,0.97301,3.78836c0.1604,0.41837,0.34575,0.82774,0.49196,1.25083
			c0.18595,0.53821,0.41336,1.0162,0.92264,1.35513c0.26093,0.17361,0.4472,0.50043,0.59569,0.79418
			c0.42557,0.84206,1.08471,1.48364,1.73988,2.13278c0.5159,0.51116,1.14012,0.7784,1.85419,0.90548
			c0.84065,0.1496,1.65736,0.19137,2.48617-0.08186c0.55684-0.18356,1.13329-0.33793,1.71299-0.41512
			c1.03266-0.13747,1.89028-0.65257,2.76594-1.14729c0.92568-0.52293,1.8666-1.01954,2.78333-1.5575
			c0.53008-0.311,1.02763-0.67249,1.38814-1.19699c0.11684-0.16996,0.30692-0.30918,0.49228-0.40909
			c0.87932-0.474,1.59245-1.1507,2.19687-1.91864c0.74641-0.94836,1.4907-1.87908,2.45975-2.6217
			c0.59647-0.45708,1.06547-1.04121,1.51722-1.66117c0.5539-0.76019,1.27993-1.40118,1.96796-2.05539
			c0.4884-0.46438,0.98509-0.90832,1.26309-1.53973c0.02243-0.05096,0.04557-0.10562,0.08244-0.14559
			c0.48986-0.53128,0.95061-1.09453,1.48026-1.58296c1.31596-1.21357,2.66543-2.38732,3.67435-3.89346
			c0.65179-0.97302,1.33879-1.9232,2.0327-2.86695c0.39757-0.54073,0.7979-1.09107,1.27197-1.56151
			c0.97266-0.96511,1.40475-2.27361,2.2112-3.3409c0.30114-0.39848,0.55204-0.83508,0.82321-1.25599
			c0.62022-0.96277,1.23645-1.92811,1.85875-2.88953c0.63808-0.98586,1.30058-1.95646,1.91757-2.95526
			c0.71968-1.16509,1.39959-2.35471,2.10118-3.53108c0.21458-0.35984,0.42785-0.72222,0.66906-1.06416
			c0.61155-0.86691,1.27164-1.7014,1.84919-2.5899c0.4857-0.74721,0.87777-1.55489,1.32056-2.33051
			c0.24868-0.43564,0.49619-0.87416,0.77876-1.28779c0.9024-1.3209,1.66978-2.7084,2.27523-4.19387
			c0.31544-0.77386,0.81361-1.47318,1.12978-2.24681c0.36703-0.89791,1.02899-1.63308,1.26616-2.61313
			c0.1804-0.74542,0.62684-1.42368,0.92438-2.14443c0.23373-0.56615,0.40909-1.15613,0.63093-1.72755
			c0.5155-1.32785,1.04058-2.65202,1.56761-3.97533c0.21711-0.54506,0.46397-1.07856,0.6713-1.62714
			c0.32541-0.86116,0.61436-1.73623,0.9462-2.59481c0.25175-0.65132,0.55421-1.28288,0.81638-1.93043
			c0.07175-0.17722,0.10026-0.37906,0.11224-0.57188c0.02454-0.39431,0.1068-0.75165,0.29462-1.11721
			c0.18608-0.36219,0.19219-0.81195,0.32576-1.2069c0.47787-1.41336,0.77818-2.85771,0.86471-4.34929
			c0.01907-0.32811,0.13142-0.65102,0.20386-0.97564c0.01205-0.05395,0.05089-0.10279,0.0587-0.1567
			c0.15586-1.07675,0.35983-2.14986,0.44617-3.23232c0.06686-0.83796,0.16592-1.66039,0.30398-2.49124
			c0.22871-1.37668,0.33965-2.77729,0.24467-4.18306c-0.0773-1.14406-0.11419-2.29097-0.19968-3.43431
			c-0.03507-0.46908-0.09473-0.95123-0.24519-1.39267c-0.15642-0.45887-0.2827-0.90896-0.2571-1.39067
			c0.06803-1.28053-0.29282-2.49784-0.55617-3.72632c-0.19921-0.92927-0.45528-1.84763-0.71812-2.76162
			c-0.24567-0.85416-0.50239-1.70794-0.81575-2.53869c-0.16474-0.43675-0.41934-0.8563-0.70667-1.22673
			c-0.65421-0.84334-1.37885-1.62203-2.38586-2.06589c-0.74197-0.32704-1.06721-0.92814-0.94528-1.74755
			c0.02051-0.13777,0.09631-0.28439,0.06842-0.40951c-0.18499-0.83023,0.25211-1.37772,0.83176-1.85027
			c0.21057-0.1717,0.28402-0.34451,0.33323-0.6194c0.08608-0.48073,0.30483-0.93892,0.73154-1.24702
			c0.11119-0.08031,0.27976-0.13932,0.3222-0.24731c0.29406-0.74867,0.85994-1.27014,1.45045-1.76563
			c0.42473-0.35644,0.8493-0.73677,1.33408-0.9924c0.73493-0.38754,1.49362-0.11516,2.18404,0.18128
			c0.61397,0.26361,1.16288,0.66078,1.60185,1.19593c0.53053,0.64673,1.11364,1.25084,1.63347,1.90557
			c0.2019,0.25431,0.2946,0.59582,0.43447,0.8988c0.1517,0.32856,0.3219,0.65061,0.44636,0.98934
			c0.38425,1.04554,0.84288,2.07599,1.09603,3.15379c0.22264,0.94785,0.35921,1.91775,0.59115,2.87175
			c0.26315,1.08231,0.37484,2.20145,0.55223,3.3046c0.05755,0.35791,0.11481,0.71586,0.17181,1.07386
			c0.03957,0.24856,0.10098,0.49606,0.11389,0.74603c0.06068,1.17298,0.03876,2.3552,0.18237,3.51731
			c0.11053,0.89468,0.01376,1.76335-0.04879,2.63994c-0.04954,0.69456-0.17414,1.38385-0.26835,2.07508
			c-0.03396,0.24917-0.11102,0.49743-0.10917,0.74566c0.00855,1.15939-0.27003,2.27323-0.47418,3.40272
			c-0.15849,0.87693-0.17367,1.77883-0.28039,2.66628c-0.10638,0.88505-0.21057,1.76702-0.55932,2.6099
			c-0.2336,0.5647-0.34502,1.17998-0.5108,1.77271c-0.11304,0.4041-0.21921,0.81023-0.33963,1.21212
			c-0.29566,0.98704-0.55608,1.98743-0.91043,2.95319c-0.28527,0.77742-0.69231,1.50971-1.0356,2.26643
			c-0.21953,0.48394-0.42488,0.97443-0.63051,1.46453c-0.49699,1.18451-0.9953,2.36851-1.48299,3.55684
			c-0.22266,0.5425-0.47221,1.08141-0.62077,1.64533c-0.30119,1.14329-0.82316,2.18877-1.28521,3.26622
			c-0.42642,0.99432-0.67416,2.06404-1.0311,3.08993c-0.15351,0.44121-0.37207,0.86163-0.58237,1.28082
			c-0.32433,0.64665-0.7002,1.26944-0.9922,1.92976c-0.27014,0.61092-0.43403,1.26813-0.69021,1.8861
			c-0.27808,0.67075-0.5852,1.33202-0.92228,1.97509c-0.41396,0.78973-0.89292,1.54543-1.30594,2.33562
			c-0.55701,1.06563-1.06538,2.15664-1.61791,3.22472c-0.55241,1.06783-1.01396,2.21214-1.73453,3.15552
			c-0.77444,1.01402-1.28697,2.14937-1.93583,3.21861c-0.66579,1.09715-1.43182,2.13294-2.12277,3.21549
			c-0.4506,0.70592-0.83895,1.45126-1.26704,2.17191c-0.51344,0.86429-1.03386,1.72458-1.56157,2.58024
			c-0.71955,1.1668-1.44386,2.33076-2.17531,3.49015c-0.77559,1.22936-1.59392,2.43295-2.33515,3.68247
			c-0.87064,1.46759-1.78161,2.90314-2.80515,4.27023c-0.36639,0.48943-0.61144,1.06783-0.95094,1.57972
			c-0.44423,0.66975-0.92157,1.31789-1.39472,1.96802c-0.73825,1.01434-1.50727,2.00704-2.22321,3.03674
			c-1.31092,1.88551-2.69349,3.71074-4.29441,5.36259c-0.0972,0.10028-0.21173,0.18605-0.29721,0.29504
			c-0.35865,0.4573-0.68384,0.91492-1.1833,1.27483c-0.50674,0.36517-0.86567,0.94324-1.266,1.4466
			c-0.64294,0.80849-1.27858,1.61053-2.04113,2.32595c-0.68441,0.64219-1.3583,1.33159-1.81581,2.18546
			c-0.12956,0.24191-0.33045,0.44834-0.51267,0.65889c-0.6035,0.69726-1.21167,1.39048-1.82131,2.08238
			c-0.82841,0.94022-1.63631,1.90019-2.50039,2.80658c-0.40072,0.42039-0.93,0.715-1.37123,1.10075
			c-0.77173,0.67471-1.47125,1.40747-2.49974,1.76167c-0.61491,0.21176-1.13218,0.71053-1.68748,1.08885
			c-0.11279,0.07686-0.24459,0.17453-0.29044,0.29259c-0.20644,0.53171-0.62377,0.66606-1.13777,0.68976
			c-0.24804,0.01144-0.4995,0.07503-0.73787,0.15109c-1.46875,0.46861-2.96761,0.81155-4.48282,1.08536
			c-1.05674,0.19096-2.12492,0.27454-3.16026-0.06841c-1.25224-0.41476-2.49951-0.91203-3.46721-1.82033
			c-0.66127-0.62064-1.13515-1.44215-1.68489-2.17978c-0.25076-0.33646-0.47157-0.6953-0.72465-1.02986
			c-0.7336-0.9696-1.0974-2.13166-1.66718-3.18661c-0.31804-0.58871-0.6061-1.20181-0.82713-1.83215
			c-0.18344-0.52308-0.29907-1.08233-0.35608-1.63472c-0.10889-1.0534-0.29769-2.09304-0.24278-3.17283
			c0.0478-0.94028,0.3729-1.79943,0.52839-2.70359c0.31267-1.81807,0.71736-3.6218,1.13253-5.42024
			c0.23871-1.03433,0.58059-2.04452,0.85912-3.07018c0.10876-0.40077,0.17205-0.81397,0.25438-1.22184
			c0.02178-0.10783,0.01202-0.22964,0.05932-0.32358c0.94817-1.88275,1.39514-3.93742,2.04226-5.92334
			c0.09488-0.29108,0.23206-0.56815,0.33348-0.85735c0.11936-0.34041,0.22561-0.68566,0.32817-1.03158
			c0.03941-0.13307,0.0352-0.28011,0.08122-0.41001c0.43812-1.235,0.90043-2.46173,1.31725-3.7038
			c0.17938-0.53439,0.41253-1.0284,0.73513-1.48544c0.04826-0.06841,0.09779-0.13933,0.12827-0.21641
			c0.34818-0.88105,0.68528-1.76659,1.04224-2.64404c0.13598-0.33421,0.33934-0.64137,0.47042-0.9771
			c0.29355-0.75215,0.55055-1.51857,0.84418-2.27071c0.12002-0.30749,0.29383-0.59431,0.44791-0.88805
			c0.11611-0.22144,0.28552-0.42632,0.3502-0.66091c0.1285-0.46639,0.30062-0.89567,0.61341-1.2739
			c0.11845-0.14328,0.16648-0.34861,0.23246-0.53079c0.27458-0.75796,0.44025-1.57718,0.83483-2.26565
			c1.07682-1.87888,1.77098-3.90941,2.53068-5.91708c0.03964-0.10471,0.08435-0.20801,0.1342-0.30827
			c0.71191-1.43214,1.17553-2.95834,1.70337-4.46098c0.28619-0.8148,0.64024-1.60567,0.92966-2.41945
			c0.51529-1.44893,1.08468-2.8859,1.47689-4.36874c0.26482-1.00108,0.61499-1.96579,0.95181-2.93582
			c0.34267-0.98708,0.4984-2.00266,0.66502-3.02232c0.07221-0.44164,0.17808-0.87764,0.25885-1.318
			c0.19137-1.04327,0.36333-2.09032,0.56907-3.13068c0.1629-0.82374,0.34551-1.64464,0.55277-2.45829
			c0.40157-1.57655,0.67579-3.17414,0.8142-4.79321c0.08366-0.97783,0.1042-1.95457-0.30183-2.89032
			c-0.0971-0.22391-0.1306-0.49067-0.13147-0.73796c-0.00187-0.50998-0.14477-0.96561-0.29818-1.45126
			c-0.16592-0.52541-0.35255-1.04369-0.54687-1.55847c-0.08818-0.23364-0.19179-0.47989-0.35281-0.66407
			c-0.42243-0.48317-0.83002-1.00108-1.33407-1.38678c-1.20006-0.91819-2.57139-1.31835-4.09663-1.1375
			c-1.08003,0.12806-2.15953,0.20215-3.25447,0.13389c-0.97196-0.06059-1.95214,0.02124-2.9287,0.02146
			c-2.20372,0.00051-4.30199,0.61692-6.42884,1.07315c-0.43529,0.09338-0.89569,0.18805-1.33005,0.14293
			c-0.88491-0.09192-1.7231,0.11555-2.5802,0.23732c-0.5769,0.08195-1.17314,0.13102-1.75084,0.08103
			c-0.95028-0.08223-1.2995-0.59351-1.04091-1.49846c0.21394-0.74883,0.3182-1.53824,0.73539-2.22277
			C4.3889,34.98492,4.441,34.84534,4.4627,34.70978c0.26419-1.65149,1.31535-3.00597,1.73089-4.6014
			c0.13187-0.50627,0.47902-0.78781,1.02652-0.84523c1.58424-0.16614,3.16582-0.35734,4.74879-0.53551
			c0.19436-0.02187,0.4042,0.01643,0.58437-0.04224c1.20188-0.3915,2.46313-0.51101,3.67956-0.81081
			c1.29602-0.31941,2.59057-0.43582,3.90958-0.43397c0.56009,0.00079,1.12014,0.01404,1.68023,0.02163
			C21.8226,27.47111,21.82256,27.47997,21.82257,27.48882z"/>
		<path class="st1" d="M215.4946,41.31191c0.02005-1.23678,0.14391-2.50988,0.63751-3.72169
			c0.06265-0.15382,0.13983-0.30832,0.2408-0.43888c0.78542-1.01547,1.57832-2.02514,2.36877-3.03669
			c0.03444-0.04406,0.09033-0.0853,0.09824-0.13403c0.12061-0.74287,0.74771-0.97095,1.28413-1.31184
			c0.29666-0.18851,0.54475-0.46246,0.78983-0.72145c0.74405-0.78636,1.51334-1.55322,2.20306-2.38545
			c0.84895-1.02435,2.00746-1.65653,2.9913-2.50669c2.02652-0.85241,4.03273-1.19892,5.96902,0.2364
			c0.15729,0.11658,0.31685,0.23094,0.48193,0.33599c0.43687,0.27798,0.68221,0.64795,0.61946,1.18889
			c-0.06688,0.57669,0.15929,1.03916,0.58949,1.41002c0.52655,0.45389,0.86047,1.01417,1.005,1.69879
			c0.14966,0.70895,0.41124,1.40392,0.47769,2.1186c0.10579,1.13773-0.30254,2.20088-0.74182,3.22757
			c-0.25101,0.58665-0.59773,1.13382-0.9207,1.68749c-0.12366,0.212-0.27489,0.42325-0.4593,0.58153
			c-0.48428,0.41558-0.99861,0.79589-1.49129,1.202c-0.2999,0.24721-0.57085,0.5299-0.87413,0.77252
			c-0.60045,0.48038-1.24023,0.91465-1.81519,1.42294c-0.56334,0.49803-1.06575,1.06494-1.59616,1.60035
			c-0.13782,0.13913-0.274,0.28098-0.422,0.40876c-0.50539,0.43634-1.01009,0.8738-1.52675,1.29656
			c-0.21532,0.1762-0.43973,0.37867-0.69499,0.462c-0.95312,0.31117-1.89435,0.63703-2.92403,0.69628
			c-0.98784,0.05684-1.84953-0.13965-2.69974-0.63194c-0.56329-0.32616-1.08504-0.67842-1.5497-1.13171
			c-0.89888-0.87684-1.53667-1.91592-1.90959-3.10603C215.51123,42.1676,215.53806,41.75882,215.4946,41.31191z"/>
	</g>
</g>
</svg>
