<?xml version="1.0" encoding="utf-8"?>
<!-- Generator: Adobe Illustrator 25.4.1, SVG Export Plug-In . SVG Version: 6.00 Build 0)  -->
<svg version="1.1" id="Layer_1" xmlns="http://www.w3.org/2000/svg" xmlns:xlink="http://www.w3.org/1999/xlink" x="0px" y="0px"
	 viewBox="0 0 480.33618 189.14323" style="enable-background:new 0 0 480.33618 189.14323;" xml:space="preserve">
<style type="text/css">
	.st0{fill:#EFEDE5;}
	.st1{fill:#B48039;}
	.st2{fill:#AD8246;}
	.st3{fill:none;stroke:#B48039;stroke-width:0.99892;stroke-miterlimit:10;}
	.st4{fill:#00FFFF;}
</style>
<g id="Bittercube-Flavors-10_00000059294723793164306030000000088802889634595471_">
	<g>
		<path class="st1" d="M396.00116,58.92325c-0.19684,0.51758-0.30728,1.02984-0.78439,1.37719
			c-0.19992,0.14555-0.26685,0.47375-0.42383,0.77592c-0.65604,0.1678-1.19257,0.59245-1.65741,1.13979
			c-0.2142,0.2522-0.48557,0.47578-0.77145,0.64348c-0.95386,0.55964-1.72522,1.3391-2.51968,2.08284
			c-0.52142,0.48814-1.08139,0.54602-1.70505,0.38573c-0.37799-0.09715-0.73599-0.26953-1.10938-0.38798
			c-0.39954-0.12674-0.60889-0.0398-0.69418,0.35989c-0.24933,1.1694-0.63638,2.30923-0.59537,3.53855
			c0.03629,1.08717,0.06537,2.1677,0.31848,3.23056c0.0257,0.10797,0.05893,0.22079,0.05167,0.3289
			c-0.04834,0.72336-0.12045,1.44533-0.15872,2.16914c-0.05325,1.00721-0.07779,2.01487,0.12997,3.01247
			c0.04553,0.21862,0.09027,0.44398,0.08597,0.66528c-0.02188,1.1324,0.2485,2.21661,0.50153,3.30706
			c0.24655,1.06303,0.45917,2.13393,0.6875,3.20123c0.01755,0.08216,0.03049,0.16761,0.06339,0.24386
			c0.7182,1.66621,0.9343,3.44496,1.19525,5.21692c0.10928,0.74219,0.34775,1.46551,0.45404,2.20793
			c0.20166,1.40921,0.40967,2.81642,0.26785,4.25665c-0.07071,0.71799-0.00409,1.45771,0.07428,2.17958
			c0.06143,0.56678-0.00223,1.11533-0.06769,1.66766c-0.11847,0.99966-0.25397,1.99741-0.39359,2.99438
			c-0.03046,0.21779-0.08392,0.43919-0.16855,0.64144c-0.42926,1.02527-0.91595,2.02823-1.1221,3.13464
			c-0.02921,0.15678-0.13669,0.30022-0.21414,0.44654c-0.35306,0.66674-0.71167,1.33059-1.06213,1.99867
			c-0.58508,1.11535-1.2084,2.20388-2.11444,3.10002c-0.03979,0.03938-0.08365,0.0775-0.11273,0.12424
			c-0.4411,0.70853-0.91528,1.3996-1.30713,2.13456c-0.2616,0.49074-0.41864,1.03585-0.78378,1.4757
			c-0.06296,0.0759-0.06476,0.20259-0.104,0.33726c0.50815,0.09135,0.91199-0.13489,1.32028-0.27724
			c0.97391-0.33954,1.95679-0.63535,2.81232-1.2789c0.64224-0.4831,1.41507-0.7897,2.11639-1.19781
			c0.91891-0.53471,1.85699-1.04561,2.72791-1.65141c1.07739-0.74938,2.16025-1.48467,3.2695-2.18748
			c1.12885-0.71526,2.28494-1.42288,3.06604-2.56596c0.06149-0.08997,0.14185-0.19071,0.23676-0.23032
			c0.61792-0.25785,1.01257-0.78078,1.48163-1.21615c0.18378-0.17059,0.36606-0.35136,0.577-0.48249
			c0.70288-0.43688,1.20154-1.08978,1.76114-1.67111c0.42093-0.43734,0.73813-0.97449,1.10223-1.46664
			c0.63376-0.85658,1.35013-1.62999,2.14627-2.34543c0.46991-0.42229,0.8624-0.96185,1.18399-1.51066
			c0.46289-0.78984,0.9549-1.5661,1.23853-2.46035c0.23526-0.74162,0.59982-1.44351,0.92508-2.15481
			c0.20837-0.45576,0.44983-0.89637,0.67523-1.34444c0.02496-0.0497,0.05692-0.10311,0.05917-0.15596
			c0.05966-1.37359,0.91687-2.45323,1.39819-3.6656c0.5415-1.36411,1.24884-2.66767,1.87082-4.00436
			c0.38754-0.83283,0.92551-1.59493,1.38306-2.39616c0.34512-0.60438,0.72922-1.19631,0.98923-1.83711
			c0.36411-0.89748,1.03119-1.5924,1.49655-2.4216c0.29471-0.52499,0.70035-0.99837,1.01395-1.52814
			c0.6087-1.02825,1.22977-2.05103,1.89294-3.04454c0.4809-0.7205,1.06488-1.3718,1.55289-2.08803
			c0.45486-0.66748,0.99023-1.26907,1.46194-1.91988c0.24313-0.33559,0.37857-0.74857,0.61765-1.08787
			c0.33685-0.47793,0.68744-0.95722,1.09946-1.36849c0.60165-0.60056,1.03876-1.31332,1.53021-1.99242
			c0.89905-1.24243,1.76816-2.50434,2.86685-3.59699c0.67236-0.6687,1.28418-1.39537,2.0256-1.99866
			c0.39056-0.31781,0.77341-0.53699,1.29352-0.39651c0.13168,0.03556,0.28052,0.0296,0.41861,0.01534
			c0.47318-0.04884,0.79327,0.16592,1.06238,0.53712c0.15826,0.21826,0.35629,0.42929,0.58127,0.57365
			c0.77261,0.49574,0.89569,1.11042,0.28415,1.79105c-0.29626,0.3297-0.66684,0.59134-0.98792,0.9003
			c-0.55887,0.5377-1.10345,1.06416-1.50839,1.76329c-0.55475,0.95767-1.10568,1.93371-1.90259,2.74227
			c-0.42645,0.43267-0.76691,0.95949-1.09683,1.4754c-0.36993,0.57861-0.92743,1.03165-1.08923,1.75961
			c-0.05997,0.26952-0.39999,0.46425-0.54321,0.73025c-0.36203,0.67242-0.82718,1.25633-1.37204,1.78491
			c-0.11935,0.11579-0.23346,0.24751-0.3132,0.39214c-0.8078,1.464-1.69199,2.88353-2.28656,4.46463
			c-0.26083,0.6936-0.76682,1.29437-1.15649,1.94032c-0.46039,0.76303-0.9314,1.52027-1.36835,2.29662
			c-0.50528,0.89777-0.98279,1.81136-1.4628,2.7231c-0.12964,0.24614-0.22684,0.50962-0.33469,0.76694
			c-0.14053,0.33504-0.23456,0.69815-0.42395,1.00227c-0.35059,0.56281-0.48557,1.18024-0.61319,1.85824
			c0.23999,0.17769-2.87192,6.81351-3.44376,8.37363c-0.32468,0.88585-0.52875,1.81597-0.78479,2.72682
			c-0.0303,0.10761-0.03394,0.22356-0.07065,0.32842c-0.323,0.92374-0.59045,1.86536-0.88461,2.79638
			c-0.258,0.81657-0.50711,1.64072-0.7814,2.45447c-0.07953,0.23596-0.13293,0.48498-0.16388,0.73232
			c-0.15207,1.21597-0.57104,2.39253-0.53687,3.63567c-0.55972,1.21947-0.31143,2.53427-0.45816,3.80258
			c-0.10999,0.9506-0.07935,1.88785,0.03479,2.83216c0.08823,0.72967,0.25446,1.42821,0.59915,2.08398
			c0.58774,1.11829,1.23022,2.2103,2.09351,3.12942c0.55017,0.58581,1.22461,1.07905,2.11206,1.08189
			c0.11105,0.00036,0.2258,0.01569,0.33252,0.04623c1.4639,0.41915,2.91321,0.11208,4.29907-0.27085
			c1.02869-0.28426,2.04767-0.73067,2.9234-1.42582c0.47842-0.37982,1.06833-0.61619,1.56711-0.97416
			c0.74841-0.53709,1.50232-1.07978,2.17453-1.70534c0.46317-0.43107,0.8222-0.98685,1.17068-1.52392
			c0.24704-0.38069,0.54425-0.6364,0.9827-0.70872c0.32764-0.05406,0.54935-0.22539,0.75116-0.48226
			c0.7413-0.94379,1.42322-1.93001,2.21176-2.84252c0.72763-0.84194,1.28726-1.82783,1.93506-2.74027
			c0.58304-0.82115,1.12833-1.67958,1.79636-2.42677c0.578-0.6465,1.1546-1.28896,1.66766-1.98734
			c0.13098-0.17832,0.24792-0.36964,0.34976-0.56618c0.59415-1.1469,1.30203-2.21353,2.17014-3.17425
			c1.48392-1.64209,2.82928-3.39118,4.04315-5.24299c0.56448-0.86117,1.1286-1.72635,1.7551-2.54195
			c0.54355-0.70756,1.18564-1.33862,1.76376-2.02077c0.45145-0.53262,0.9158-1.0629,1.13126-1.75167
			c0.02448-0.07829,0.07382-0.15079,0.1207-0.21981c0.61047-0.89943,1.19614-1.8173,1.84146-2.69106
			c0.69409-0.93977,1.46045-1.82585,2.16525-2.75806c0.57175-0.75619,1.10101-1.54459,1.64529-2.3214
			c0.2887-0.41206,0.54825-0.84631,0.85822-1.24133c0.53229-0.67828,1.15948-1.29094,1.62665-2.00935
			c0.60083-0.92402,1.3869-1.72125,1.73615-2.83002c0.24734-0.78517,0.7818-1.47651,1.1539-2.22668
			c0.38406-0.77431,0.72498-1.56998,1.0885-2.35455c0.11716-0.25289,0.21655-0.52137,0.37634-0.7455
			c0.27811-0.39029,0.53607-0.77748,0.66467-1.2515c0.05548-0.20458,0.22238-0.38527,0.35983-0.5602
			c0.57565-0.73296,1.02765-1.53384,1.36166-2.40347c0.05978-0.1556,0.13287-0.30962,0.22293-0.44949
			c0.68112-1.05779,1.35712-2.11918,2.05887-3.16319c0.24792-0.36878,0.56317-0.69234,0.84805-1.03625
			c0.69382-0.8377,1.2811-1.7499,1.86572-2.66413c0.04489-0.07032,0.09497-0.14049,0.15521-0.19742
			c0.93167-0.88066,1.84692-1.77994,2.80457-2.63155c0.7861-0.69905,1.36801-0.70288,2.27502-0.1188
			c0.56442,0.36346,1.14368,0.70782,1.68121,1.10785c0.35324,0.26288,0.64389,0.60981,0.98132,0.93734
			c-0.24069,0.55226-0.52081,1.04581-0.67267,1.57609c-0.26877,0.93896-0.78479,1.71719-1.42032,2.42555
			c-0.6897,0.76883-0.98349,1.74362-1.44427,2.63252c-0.22989,0.44346-0.49374,0.87548-0.79181,1.27572
			c-0.29935,0.40179-0.65106,0.76636-0.99625,1.13179c-0.58701,0.62146-0.9144,1.39617-1.30594,2.13563
			c-0.19464,0.36761-0.35867,0.82548-0.67432,1.03819c-0.51743,0.34878-0.64911,0.97558-1.13351,1.31548
			c-0.27277,0.72337-0.92758,1.1805-1.28339,1.8486c-0.49747,0.93425-1.01111,1.85991-1.52292,2.7865
			c-0.12094,0.21909-0.26428,0.42574-0.39325,0.64056c-0.15799,0.26332-0.39062,0.51273-0.45007,0.79756
			c-0.10797,0.51723-0.41238,0.90707-0.6701,1.33588c-0.67468,1.1226-1.39166,2.22509-1.9852,3.38988
			c-0.71982,1.41239-1.46393,2.80891-2.26019,4.17856c-0.14047,0.24174-0.27979,0.48632-0.44449,0.71144
			c-0.78204,1.06871-1.30585,2.27036-1.7926,3.4884c-0.36279,0.90771-0.66537,1.83974-1.03851,2.7429
			c-0.22342,0.54093-0.51151,1.05843-0.80621,1.56577c-0.30878,0.53166-0.6944,1.02242-0.73224,1.67238
			c-0.00458,0.07879-0.04083,0.17842-0.09769,0.22793c-0.46664,0.40658-0.42532,1.00317-0.60501,1.52101
			c-0.40076,1.15564-0.59607,2.37975-1.25977,3.45235c-0.37714,0.60953-0.59027,1.32095-0.87338,1.98811
			c-0.36951,0.87052-0.77475,1.72846-1.09375,2.61726c-0.5542,1.54392-1.25143,3.0348-1.66577,4.63244
			c-0.15985,0.61649-0.31744,1.2399-0.51572,1.8429c-0.20667,0.62854-0.52615,1.22878-0.86346,1.80189
			c-0.17017,0.28914-0.35349,0.55378-0.45029,0.88478c-0.2276,0.77803-0.47501,1.55116-0.74362,2.31599
			c-0.18369,0.52317-0.427,1.02507-0.62509,1.54357c-0.35855,0.93796-0.68594,1.88811-1.05811,2.8205
			c-0.474,1.18766-0.97665,2.36393-1.47238,3.54285c-0.30167,0.71732-0.61307,1.43057-0.92081,2.14534
			c-0.14389,0.33421-0.30823,0.66104-0.42947,1.0032c-0.15732,0.44417-0.27707,0.90152-0.42053,1.35077
			c-0.09192,0.28783-0.11597,0.66087-0.31241,0.83977c-0.58237,0.53027-0.81299,1.26811-1.21591,1.89726
			c-0.58502,0.91371-1.1019,1.88388-1.5322,2.87997c-0.37234,0.86192-1.01025,1.51308-1.51385,2.26852
			c-0.46539,0.69798-1.01797,1.35687-1.36395,2.11023c-0.36526,0.7953-0.88129,1.48459-1.29547,2.24042
			c-0.33276,0.60738-0.86078,1.10062-1.03125,1.80647c-0.03589,0.14856-0.17517,0.29124-0.30115,0.39476
			c-0.22128,0.18179-0.41962,0.36176-0.48636,0.65959c-0.02191,0.09761-0.10254,0.21721-0.18909,0.25945
			c-0.57938,0.28285-0.86526,0.86339-1.31274,1.27893c-0.17728,0.16467-0.27686,0.41566-0.40234,0.63284
			c-0.16608,0.28746-0.27924,0.6181-0.49191,0.86363c-0.59872,0.69118-1.0907,1.4686-1.79803,2.07518
			c-0.74014,0.63474-1.44061,1.32129-2.11133,2.0298c-0.59402,0.62756-1.12375,1.31606-1.68103,1.97835
			c-0.10788,0.12823-0.18591,0.30876-0.32227,0.38133c-0.65515,0.34871-1.05652,0.98041-1.63022,1.42082
			c-0.48685,0.37375-0.91238,0.82642-1.37799,1.22914c-0.56726,0.49062-1.14737,0.96638-1.72363,1.44664
			c-0.14951,0.12463-0.32376,0.22467-0.45468,0.36568c-0.98172,1.0573-2.16745,1.8372-3.39346,2.57605
			c-0.69049,0.41609-1.32501,0.92473-1.98834,1.38657c-0.15921,0.11086-0.32864,0.20906-0.50034,0.29979
			c-0.91602,0.48392-1.84473,0.94508-2.74744,1.4525c-0.45474,0.25557-0.94049,0.47813-1.25235,0.95274
			c-0.12781,0.19446-0.38037,0.3398-0.60699,0.431c-1.21933,0.4908-2.44345,0.97067-3.67569,1.42805
			c-0.83905,0.31143-1.6972,0.53001-2.59457,0.66081c-0.8475,0.12354-1.65588,0.49591-2.49356,0.71178
			c-1.05338,0.27145-2.07819,0.65088-3.17474,0.76288c-1.5578,0.15912-3.10913,0.38048-4.66599,0.55035
			c-0.63687,0.0695-1.28552,0.03673-1.92065,0.11572c-1.36563,0.16985-2.73355,0.24207-4.10809,0.21594
			c-0.08395-0.0016-0.16953-0.00331-0.25183,0.01024c-1.02692,0.16904-2.05859,0.16212-3.09085,0.07448
			c-0.5556-0.04718-1.11023-0.11067-1.66339-0.18164c-1.27618-0.16371-2.56372-0.27292-3.82349-0.52174
			c-1.56277-0.30867-3.10217-0.73596-4.65167-1.11203c-0.68015-0.58647-1.56088-0.52032-2.35605-0.74075
			c-1.02927-0.28531-2.0816-0.42282-3.12326-0.62808c-0.62094-0.12236-1.20547-0.43906-1.79977-0.68442
			c-0.6431-0.26552-1.27887-0.54866-1.91711-0.82591c-1.02295-0.44438-2.05191-0.8757-3.06564-1.34029
			c-0.73666-0.3376-1.46017-0.7061-2.17523-1.08771c-0.41858-0.22339-0.80984-0.49823-1.21158-0.75275
			c-0.11823-0.07487-0.22186-0.20998-0.34665-0.23087c-0.61572-0.103-1.00446-0.58289-1.50848-0.86792
			c-1.26486-0.71535-2.27393-1.71565-3.17261-2.83591c-0.50409-0.62831-1.11746-1.17836-1.39703-1.97345
			c-0.07068-0.20107-0.27274-0.35226-0.38992-0.54152c-0.19067-0.30789-0.37613-0.62086-0.53629-0.94528
			c-0.18448-0.3737-0.32681-0.76816-0.50983-1.14264c-0.2045-0.41821-0.29352-0.80812-0.09918-1.28061
			c0.18936-0.46022,0.20624-0.9899,0.384-1.45665c0.27792-0.72971,0.5022-1.45601,0.46484-2.24858
			c-0.00565-0.12038,0.08774-0.26263,0.17029-0.36714c0.4845-0.61319,0.94077-1.231,1.28839-1.94792
			c0.30508-0.62915,0.86191-1.09846,1.55896-1.32767c0.47891-0.15746,0.96457-0.07152,1.38489,0.15312
			c0.88528,0.47314,1.72995,1.02364,2.67966,1.36987c0.29279,0.10677,0.44635,0.31903,0.51718,0.61098
			c0.11679,0.48169,0.39917,0.8439,0.77203,1.16899c0.61069,0.5325,1.16684,1.11581,1.66766,1.76338
			c0.52917,0.6842,1.147,1.30171,1.74777,1.9276c0.1904,0.19838,0.43805,0.35184,0.68054,0.48848
			c0.80261,0.45221,1.61575,0.88576,2.42252,1.33072c0.12167,0.06715,0.25015,0.1391,0.34268,0.23915
			c0.51129,0.55295,1.18713,0.83176,1.85107,1.12981c0.66342,0.29782,1.31497,0.63448,2.00156,0.86525
			c0.82394,0.27695,1.58136,0.69331,2.38229,1.01262c0.59561,0.23744,1.18918,0.49933,1.84985,0.52615
			c0.16458,0.00668,0.3266,0.07565,0.48993,0.11523c1.22476,0.29675,2.45276,0.58049,3.67325,0.89366
			c1.13681,0.29169,2.26068,0.6346,3.39993,0.91562c0.59528,0.14685,1.20844,0.2361,1.81876,0.30374
			c1.13947,0.1263,2.28149,0.23672,3.42502,0.31746c0.80624,0.05695,1.61667,0.05646,2.42535,0.07703
			c0.8671,0.02206,1.73486,0.06635,2.60135,0.04979c0.80933-0.01547,1.61679-0.1122,2.42621-0.14514
			c0.41672-0.01697,0.83615,0.04436,1.254,0.04039c1.32135-0.01251,2.61868-0.22931,3.91257-0.47679
			c0.38391-0.07344,0.77756-0.16737,1.16235-0.15091c1.01065,0.04324,1.94714-0.24719,2.85562-0.60971
			c1.31131-0.52325,2.66995-0.81487,4.05435-1.04572c0.57391-0.09569,1.12579-0.32585,1.68616-0.49979
			c0.24011-0.07452,0.47321-0.21991,0.71484-0.23279c0.98434-0.05249,1.74551-0.5632,2.46616-1.15338
			c1.09604-0.89766,2.34756-1.50471,3.66635-1.97969c0.40472-0.14577,0.73035-0.3878,1.08609-0.60785
			c0.97253-0.60158,1.73282-1.51613,2.83951-1.91493c0.1044-0.03763,0.21069-0.08856,0.29578-0.15823
			c0.66843-0.54761,1.33398-1.09879,1.99518-1.65508c0.14859-0.12503,0.258-0.3024,0.41696-0.40839
			c1.34171-0.89455,2.42371-2.04636,3.36163-3.34561c0.3259-0.45157,0.66208-0.89577,0.99579-1.34167
			c0.08356-0.11165,0.1554-0.24936,0.26746-0.31934c0.45178-0.28227,0.66211-0.74806,0.93292-1.16917
			c0.51428-0.79964,1.03003-1.59833,1.54233-2.3992c0.37674-0.58907,0.74423-1.18413,1.12527-1.77039
			c0.22726-0.34964,0.48608-0.67911,0.70679-1.03261c0.33948-0.54373,0.71155-1.07664,0.97003-1.65848
			c0.23087-0.51976,0.5419-0.97018,0.87299-1.41772c0.08295-0.11214,0.2106-0.20853,0.24936-0.33334
			c0.40738-1.31239,1.38623-2.36546,1.66101-3.74709c0.10117-0.50861,0.41742-0.97311,0.62457-1.4624
			c0.12-0.28345,0.24362-0.56947,0.32144-0.86594c0.314-1.19524,0.81818-2.31691,1.28592-3.45457
			c0.33862-0.82377,0.61746-1.67206,0.92776-2.50762c0.05804-0.1562,0.13455-0.30615,0.21042-0.45493
			c0.10144-0.19862,0.23206-0.38488,0.31274-0.59106c0.46774-1.19492,0.9454-2.38664,1.37903-3.59406
			c0.42508-1.1835,0.79779-2.38572,1.20322-3.5764c0.06183-0.1817,0.17719-0.34502,0.26614-0.51769
			c0.08939-0.17349,0.19418-0.34152,0.2619-0.52324c0.39929-1.07079,0.79514-2.14295,1.1813-3.21852
			c0.29248-0.81458,0.55676-1.6394,0.85626-2.45132c0.22186-0.60143,0.47504-1.19158,0.7233-1.78296
			c0.43341-1.03244,0.85962-2.06461,0.96866-3.19714c0.02576-0.26732,0.12418-0.52763,0.22284-0.9274
			c-0.22202,0.12298-0.36542,0.15474-0.42343,0.24276c-0.26004,0.39472-0.49588,0.8054-0.73965,1.21082
			c-0.01422,0.02371-0.01724,0.05442-0.03235,0.07737c-0.64526,0.97987-1.28769,1.96164-1.94128,2.93587
			c-0.09088,0.13542-0.23175,0.24059-0.36008,0.34705c-0.8873,0.73668-1.6181,1.62451-2.35144,2.50224
			c-0.37128,0.44435-0.65994,0.97315-0.91077,1.49962c-0.60226,1.264-1.57227,2.23135-2.48404,3.2553
			c-0.53207,0.59753-1.07846,1.18771-1.40207,1.96043c-0.15012,0.35851-0.52917,0.64514-0.85468,0.90029
			c-0.4259,0.33381-0.80145,0.68654-1.05276,1.17676c-0.11169,0.21791-0.31888,0.38645-0.48029,0.5794
			c-0.16141,0.1929-0.4003,0.36509-0.46426,0.587c-0.1835,0.63595-0.67383,0.99681-1.09662,1.44052
			c-0.67496,0.70844-1.21732,1.5246-1.69357,2.38334c-0.22705,0.40932-0.4567,0.8026-0.85355,1.11129
			c-0.3403,0.26475-0.58893,0.67003-0.81689,1.04993c-0.22028,0.36714-0.48645,0.66525-0.80472,0.95139
			c-0.66278,0.59584-1.32462,1.20491-1.90009,1.88223c-0.62708,0.73802-1.44424,1.12346-2.28827,1.49883
			c-0.302,0.13434-0.61591,0.25499-0.89203,0.43224c-1.33359,0.8559-2.77899,1.42986-4.32355,1.76234
			c-0.51993,0.11191-1.04999,0.18259-1.56345,0.31754c-1.32114,0.34715-2.61276,0.0201-3.90228-0.17143
			c-0.85538-0.12706-1.69165-0.38614-2.53412-0.59561c-0.30011-0.07462-0.57071-0.18942-0.77222-0.46434
			c-0.12369-0.16867-0.34998-0.26044-0.52521-0.3933c-0.60049-0.45541-1.18082-0.93999-1.80203-1.36497
			c-0.9917-0.67847-1.46936-1.73564-2.07385-2.7017c-0.25198-0.40276-0.49191-0.81321-0.73141-1.22359
			c-0.53363-0.91418-0.69269-1.94487-0.8609-2.96113c-0.0853-0.5154-0.03888-1.05806-0.00916-1.58598
			c0.08325-1.4808,0.09067-2.96405,0.14423-4.44376c0.05334-1.47456-0.08484-2.9715,0.2883-4.43143
			c0.07458-0.2921,0.04465-0.61335,0.04556-0.9212c0.00116-0.37428-0.01599-0.74863-0.02658-1.17776
			c-0.10095,0.08535-0.20847,0.15581-0.29031,0.24886c-0.48029,0.54584-0.92203,1.13038-1.44055,1.63647
			c-0.4769,0.46542-1.03177,0.85155-1.55786,1.2655c-0.15216,0.11973-0.3472,0.19125-0.48209,0.32557
			c-0.51312,0.51076-1.08176,0.98762-1.49234,1.57342c-0.42392,0.60479-0.9566,1.08405-1.46371,1.59551
			c-0.35233,0.35536-0.73907,0.68411-1.14514,0.97653c-0.3645,0.26244-0.74527,0.48975-1.01129,0.86973
			c-0.09067,0.12959-0.24356,0.24609-0.39267,0.29935c-0.96078,0.34301-1.74643,0.97573-2.59006,1.5162
			c-0.6694,0.42886-1.18066,1.02257-1.75412,1.55233c-0.12057,0.11141-0.23105,0.26568-0.37527,0.31467
			c-1.2034,0.40887-2.19083,1.2333-3.33932,1.73328c-1.43268,0.62366-2.79373,1.41172-4.29984,1.87083
			c-0.34277,0.10448-0.66779,0.29282-0.97403,0.48541c-0.54187,0.34079-1.06348,0.71381-1.59238,1.07501
			c-0.09238,0.06308-0.19507,0.12068-0.2662,0.20377c-0.73157,0.8548-1.71719,1.20586-2.77728,1.40614
			c-1.18985,0.22479-2.30206,0.69548-3.42728,1.11221c-0.69409,0.25708-1.40109,0.42548-2.12115,0.46355
			c-0.71255,0.03766-1.37766,0.21661-2.05258,0.40149c-0.3205,0.08778-0.65265,0.14595-0.98343,0.18054
			c-1.03024,0.10771-2.06107,0.21416-3.09399,0.2892c-0.75928,0.05516-1.50912,0.00301-2.21799-0.3396
			c-0.19305-0.09332-0.43201-0.09743-0.65192-0.12846c-0.85669-0.1209-1.71252-0.25029-2.57187-0.34883
			c-0.63901-0.07329-1.26031-0.18895-1.87808-0.38348c-1.19376-0.37589-2.26303-0.94402-3.19806-1.78075
			c-1.41641-1.2675-2.87482-2.48918-4.26447-3.78493c-0.71301-0.66484-1.31659-1.4472-1.96738-2.1785
			c-0.13004-0.1461-0.23312-0.31979-0.3768-0.44958c-0.8219-0.74227-1.43381-1.66467-1.97678-2.59715
			c-0.81241-1.39526-1.68863-2.77055-2.24997-4.29816c-0.3981-1.08354-0.6055-2.21213-0.59341-3.37226
			c0.00473-0.45424-0.07047-0.88692-0.24878-1.31847c-0.4267-0.06238-0.63342,0.24298-0.82858,0.48676
			c-0.75037,0.93736-1.55475,1.84579-2.18741,2.85961c-0.86453,1.38557-1.90884,2.60744-3.00418,3.80029
			c-0.18716,0.20387-0.3797,0.43063-0.47812,0.68259c-0.23038,0.58987-0.64963,1.0268-1.04498,1.49675
			c-0.4295,0.51052-0.78104,1.0859-1.19717,1.6086c-0.45178,0.56746-0.93323,1.11181-1.41254,1.65677
			c-0.34784,0.39555-0.7131,0.77584-1.07089,1.16267c-0.3916,0.4234-0.54129,1.05095-1.12521,1.31763
			c-0.08365,0.03821-0.11154,0.18791-0.17804,0.27641c-0.25049,0.33353-0.4614,0.71514-0.77054,0.98206
			c-0.47757,0.41222-0.89749,0.88596-1.50952,1.1635c-0.49228,0.22325-0.95084,0.61345-1.30109,1.03258
			c-0.38855,0.46498-0.88318,0.66484-1.40036,0.87041c-0.38913,0.15466-0.78775,0.28627-1.17282,0.45013
			c-0.6622,0.28177-1.35806,0.34425-2.05927,0.29716c-1.77115-0.11894-3.06369-1.049-4.1178-2.42183
			c-0.96353-1.25478-1.58435-2.70148-2.35791-4.06095c-0.61258-1.07659-0.88562-2.29037-1.07059-3.51479
			c-0.02081-0.13766,0.00223-0.30444-0.06805-0.40824c-0.29987-0.44244-0.28604-0.96271-0.37469-1.45044
			c-0.2149-1.18248-0.54303-2.34712-0.57214-3.56152c-0.00797-0.33198-0.0686-0.66917-0.15244-0.99165
			c-0.29544-1.13612-0.02966-2.28371-0.09302-3.42413c-0.09863-1.7735,0.19867-3.51959,0.44794-5.26202
			c0.33664-2.35298,0.75723-4.69395,1.14218-7.04002c0.00906-0.05524,0.01334-0.11371,0.03513-0.16406
			c0.56708-1.30959,0.55945-2.72516,0.76865-4.10169c0.10034-0.6601,0.26062-1.31168,0.4079-1.96395
			c0.18863-0.83582,0.39148-1.66843,0.61136-2.60062c-0.16946,0.08249-0.3143,0.10596-0.37561,0.19022
			c-0.50897,0.6997-1.00391,1.40971-1.4986,2.11971c-0.04651,0.0667-0.0831,0.15305-0.08945,0.23304
			c-0.09793,1.22632-0.93079,2.06316-1.58047,2.9972c-0.57468,0.82622-1.16089,1.64484-1.71561,2.48427
			c-0.19809,0.29977-0.35266,0.63919-0.46841,0.98044c-0.31879,0.93954-0.83035,1.74821-1.48001,2.49668
			c-0.51053,0.58812-0.93539,1.2506-1.39847,1.87992c-0.08289,0.11266-0.15063,0.24262-0.25272,0.33405
			c-0.82495,0.73877-1.40488,1.66238-1.97668,2.593c-0.04395,0.07146-0.1051,0.13499-0.13638,0.21119
			c-0.26654,0.64961-0.67172,1.21689-1.02609,1.81627c-0.51932,0.87843-1.16068,1.63123-1.8511,2.36639
			c-0.57364,0.61081-1.11853,1.25516-1.61542,1.92941c-0.36151,0.49059-0.61319,1.06075-0.93314,1.58361
			c-0.43921,0.71793-0.93436,1.39388-1.58405,1.9419c-0.02133,0.018-0.04166,0.03789-0.05933,0.05948
			c-0.59973,0.73328-1.27469,1.41856-1.78116,2.21147c-0.79974,1.25207-1.63144,2.47032-2.63513,3.56712
			c-0.33759,0.36889-0.67828,0.73501-1.0108,1.10839c-0.07272,0.08166-0.10974,0.19401-0.17538,0.28326
			c-0.21225,0.2886-0.40134,0.60152-0.65103,0.85394c-0.90424,0.91423-1.82581,1.81145-2.7482,2.70747
			c-0.63983,0.62157-1.27878,1.24513-1.94281,1.84029c-0.45544,0.40822-0.92007,0.79494-1.33191,1.25819
			c-0.53717,0.60422-1.19,1.08813-2.03082,1.24193c-0.21304,0.03897-0.41855,0.15077-0.61255,0.25658
			c-0.63495,0.34628-1.26929,0.69467-1.89142,1.06328c-0.37573,0.22261-0.78781,0.27234-1.20233,0.33725
			c-0.4953,0.07755-1.00137,0.12077-1.48135,0.25536c-1.20734,0.33855-2.44934,0.23911-3.67487,0.31979
			c-0.3334,0.02196-0.67963-0.22629-1.02698-0.32613c-1.09973-0.31616-2.04504-0.8842-2.87021-1.67528
			c-0.58319-0.55907-1.22333-1.06024-1.78934-1.63518c-0.44754-0.45459-0.82916-0.97571-1.22562-1.4787
			c-0.57071-0.72411-1.14859-1.44395-1.68692-2.19189c-0.91022-1.26461-1.53107-2.65526-1.74344-4.21487
			c-0.06781-0.49779-0.20056-0.98675-0.26813-1.48456c-0.08267-0.60886-0.13339-1.22231-0.1879-1.83468
			c-0.047-0.52879-0.08328-1.05862-0.11719-1.58845c-0.01059-0.16557-0.00208-0.33279,0.00473-0.49898
			c0.01596-0.39128,0.09476-0.79029,0.04337-1.17207c-0.1402-1.04145-0.02472-2.07888,0.11038-3.09506
			c0.18381-1.38216,0.51816-2.74605,0.82397-4.10968c0.26981-1.20275,0.69354-2.35622,1.16544-3.49719
			c0.21967-0.5311,0.26984-1.13248,0.39438-1.70253c0.02335-0.10693,0.02158-0.22069,0.05435-0.32401
			c0.16629-0.52445,0.34018-1.0465,0.55353-1.69794c-0.22458,0.08434-0.35086,0.10335-0.44159,0.17041
			c-0.62604,0.46263-1.3154,0.84848-1.81201,1.47057c-0.76636,0.21639-1.28036,0.80157-1.78894,1.33821
			c-0.62115,0.6554-1.46771,1.01344-2.05557,1.69273c-1.17056,0.62437-2.03049,1.67984-3.17313,2.32811
			c-1.26068,0.71524-2.42961,1.60896-3.8383,2.0526c-0.23773,0.07486-0.48071,0.18313-0.67603,0.33437
			c-1.19348,0.9241-2.67775,1.06957-4.03746,1.55173c-1.15984,0.41128-2.38295,0.28194-3.55162,0.52178
			c-1.25253,0.25706-2.49458,0.28655-3.75366,0.17896c-0.47501-0.0406-0.787,0.19297-1.03957,0.5745
			c-0.9966,1.50552-2.25691,2.75587-3.68451,3.85694c-0.41249,0.31816-0.71304,0.781-1.06711,1.1755
			c-0.33429,0.37249-0.67004,0.74368-1.0088,1.11208c-0.05609,0.06102-0.14865,0.09256-0.19429,0.15853
			c-0.69478,1.0043-1.72913,1.6571-2.5808,2.49861c-0.53207,0.52575-1.00703,1.09653-1.62474,1.55278
			c-0.62019,0.45808-1.09668,1.10988-1.64056,1.6725c-0.2326,0.24059-0.4816,0.46529-0.71381,0.70625
			c-0.2706,0.28082-0.53348,0.56919-0.79495,0.85861c-0.22266,0.2465-0.43861,0.49906-0.65739,0.74908
			c-0.09189,0.10507-0.20186,0.19954-0.27199,0.31761c-0.58269,0.98047-1.46088,1.64676-2.37085,2.29199
			c-1.4386,1.02003-3.06485,1.58482-4.74088,2.05247c-0.88632,0.24731-1.75609,0.55331-2.63741,0.81934
			c-1.09129,0.32941-2.21005,0.30389-3.33353,0.25107c-1.11143-0.05226-2.22446-0.06998-3.33676-0.10378
			c-0.11145-0.00339-0.23201,0.01239-0.33264-0.02403c-1.15529-0.41805-2.3535-0.75182-3.44746-1.29498
			c-1.06976-0.53116-2.07977-1.2168-3.0274-1.94926c-0.7912-0.61157-1.45207-1.39119-2.17505-2.09186
			c-0.32063-0.31071-0.68059-0.5853-0.97348-0.91941c-1.03253-1.17787-2.05553-2.37573-2.68259-3.82826
			c-0.62123-1.43889-1.16855-2.91713-1.46681-4.45815c-0.15224-0.78635-0.10445-1.61309-0.12888-2.42213
			c-0.03886-1.28784-0.07378-2.57602-0.08757-3.8643c-0.0063-0.58591-0.01779-1.18241,0.07849-1.75642
			c0.17056-1.0168,0.20778-2.05873,0.57286-3.04393c0.12392-0.33438,0.09608-0.72176,0.18265-1.07381
			c0.24648-1.00248,0.51497-1.99955,0.7785-2.99777c0.0284-0.10757,0.09029-0.20611,0.12062-0.31335
			c0.25832-0.91344,0.51416-1.82761,0.76471-2.7432c0.01128-0.04125-0.03552-0.0984-0.0743-0.19611
			c-0.5303,0.2123-0.93799,0.60848-1.31499,0.98914c-1.21381,1.22554-2.63742,2.15806-4.06921,3.09104
			c-0.8857,0.57716-1.71205,1.24754-2.61108,1.80138c-0.65785,0.4053-1.20403,0.96328-1.92377,1.28718
			c-0.50142,0.22565-0.96422,0.55716-1.40442,0.89356c-0.52614,0.40211-1.16248,0.52283-1.7495,0.76163
			c-1.11118,0.452-2.23886,0.86644-3.37303,1.25783c-0.89713,0.30959-1.8112,0.57182-2.72391,0.83367
			c-0.37386,0.10725-0.76248,0.16633-1.14685,0.23296c-0.77142,0.13374-1.56058,0.19986-2.31049,0.40858
			c-0.40829,0.11363-0.79459,0.41615-1.11327,0.71593c-0.48354,0.45487-0.90234,0.97903-1.34315,1.47861
			c-0.25844,0.2929-0.50891,0.59296-0.75725,0.89454c-0.08839,0.10735-0.13429,0.28384-0.24332,0.33432
			c-0.56216,0.26023-0.84593,0.79104-1.25815,1.19779c-0.63483,0.62637-1.28442,1.23297-1.88245,1.89928
			c-0.34818,0.38795-0.8134,0.67385-1.2383,0.98901c-0.38264,0.28378-0.7726,0.54399-0.97527,1.0112
			c-0.07112,0.16391-0.24873,0.29295-0.39999,0.40885c-0.82033,0.6286-1.65198,1.24247-2.46902,1.87524
			c-0.17358,0.13441-0.30028,0.32848-0.4529,0.49104c-0.13168,0.14026-0.25177,0.30071-0.40771,0.40724
			c-0.60486,0.41315-1.08904,0.93108-1.54417,1.507c-0.33182,0.41988-2.81456,2.48613-3.58212,3.08873
			c-0.16919,0.13281-3.50522,2.21629-3.62105,2.29208c-1.53931,1.00726-3.07964,2.00197-4.80983,2.68109
			c-0.69629,0.2733-1.34183,0.67793-2.06886,0.90677c-0.96184,0.30273-1.90002,0.52504-2.94543,0.48787
			c-1.32874-0.04724-2.52443-0.40323-3.69714-0.95087c-0.4046-0.18893-0.80376-0.39038-1.21362-0.567
			c-1.67938-0.72375-2.95731-1.98134-4.24118-3.2197c-0.39746-0.38336-0.65306-0.90948-1.01691-1.33305
			c-0.54849-0.63853-0.976-1.3233-1.28233-2.12091c-0.28778-0.74932-0.80432-1.4078-1.13397-2.14481
			c-0.40942-0.91539-0.75116-1.86311-1.08249-2.81074c-0.24892-0.71195-0.37962-1.46855-0.66394-2.16399
			c-0.33864-0.82834-0.40398-1.67278-0.40073-2.54382c0.00439-1.17662-0.00797-2.35332-0.01863-3.52993
			c-0.00069-0.07751-0.04787-0.15459-0.08157-0.25655c-0.37566-0.05286-0.65872,0.11774-0.88076,0.3789
			c-0.85017,0.99991-1.68548,2.01242-2.53196,3.01549c-0.32301,0.38274-0.7636,0.70541-0.96481,1.14122
			c-0.2215,0.47979-0.57285,0.82121-0.89018,1.20004c-0.31994,0.38193-0.70298,0.71105-1.05891,1.06276
			c-0.09868,0.09752-0.21475,0.18156-0.29662,0.29133c-0.78035,1.04642-1.53872,2.10976-2.3409,3.13901
			c-0.25202,0.32334-0.63128,0.54434-0.92682,0.83784c-0.29382,0.29179-0.56657,0.6069-0.82909,0.92771
			c-0.49194,0.60119-0.96504,1.2178-1.45749,1.81856c-0.10303,0.12571-0.24339,0.27369-0.38814,0.30234
			c-0.4202,0.08318-0.66052,0.39104-0.9613,0.64003c-0.45765,0.37886-0.85608,0.78308-1.14382,1.31721
			c-0.22675,0.42091-0.58283,0.74646-1.0934,0.85321c-0.5663,0.11841-1.01584,0.45215-1.43949,0.82941
			c-0.67072,0.59724-1.37417,1.12688-2.23791,1.4498c-0.45821,0.17131-0.8744,0.50156-1.25455,0.82475
			c-0.65675,0.55832-1.39528,0.93987-2.22192,1.13725c-1.27821,0.30522-2.56565,0.57156-3.84759,0.86143
			c-0.516,0.11667-1.01009-0.01694-1.48659-0.15936c-0.40051-0.11971-0.63477-0.43753-0.6312-0.89313
			c0.00489-0.62396,0.09761-1.20439,0.44171-1.7605c0.69077-1.11646,1.33131-2.26442,1.97752-3.40788
			c0.54951-0.97237,1.06618-1.96346,1.62666-2.92925c0.09737-0.16776,0.32455-0.30087,0.51941-0.36243
			c0.34506-0.10903,0.71159-0.21085,1.06875-0.20952c1.04605,0.00391,1.94231-0.49622,2.89995-0.78963
			c0.70537-0.21613,1.30444-0.57539,1.86343-1.07784c0.42182-0.37916,1.0213-0.55441,1.5222-0.85312
			c1.10535-0.65917,2.20041-1.33573,3.29394-2.01444c0.13905-0.08632,0.271-0.21027,0.35979-0.34695
			c0.40688-0.62637,1.01521-1.03053,1.57629-1.49296c0.92712-0.76413,1.79647-1.58258,2.5407-2.5415
			c0.45915-0.59161,1.05774-1.07521,1.5955-1.6055c0.17911-0.17663,0.37685-0.33602,0.54328-0.52351
			c0.48203-0.54298,0.94016-1.10756,1.43049-1.64273c0.68243-0.74481,1.29517-1.52791,1.7795-2.42575
			c0.41011-0.76028,0.92892-1.46375,1.42242-2.17658c0.33531-0.48435,0.69274-0.94685,0.85699-1.53013
			c0.05888-0.20905,0.21632-0.38909,0.31943-0.58724c0.11596-0.22278,0.28559-0.4418,0.31975-0.67863
			c0.12069-0.83727,4.16817-7.13201,4.71918-8.15943c0.28979-0.54032,0.54292-1.10026,0.8141-1.6506
			c0.07433-0.15077,0.17578-0.29179,0.22719-0.44953c0.14043-0.43079,0.37656-0.79138,0.65439-1.15123
			c0.28453-0.36854,0.46078-0.8212,0.68071-1.23899c0.53253-1.01165,1.06154-2.02515,1.5946-3.03649
			c0.46854-0.88892,0.92667-1.78373,1.41539-2.66147c0.43344-0.77847,0.88631-1.54727,1.36034-2.30165
			c0.52063-0.82851,1.05278-1.65168,1.62073-2.44807c0.71239-0.99889,1.49356-1.94925,2.19241-2.95705
			c0.44849-0.64676,0.87807-1.29492,1.5172-1.77208c0.45892-0.93902,1.43643-1.39072,2.05299-2.18573
			c0.4102-0.52893,0.86464-1.02464,1.31422-1.52171c1.18129-1.30602,2.46907-2.50549,3.72044-3.74184
			c0.46007-0.45454,0.95074-0.83441,1.44844-1.23144c0.69229-0.55224,1.3033-1.20568,1.9576-1.80656
			c0.28731-0.26386,0.58801-0.51454,0.89587-0.75422c0.57318-0.44626,1.15434-0.88236,1.73529-1.31853
			c0.87186-0.65459,1.71252-1.35914,2.63121-1.94006c0.65575-0.41465,1.41605-0.66507,2.1328-0.98177
			c0.76576-0.33837,1.51553-0.72822,2.30742-0.98889c1.32884-0.43743,2.68059-0.78821,4.08852-0.92088
			c0.99736-0.09395,1.98788-0.31935,2.97774-0.45391c1.82109-0.24755,3.66695-0.4153,5.48363,0.19118
			c1.61937,0.54061,3.02768,1.42113,4.33263,2.49238c0.49709,0.40808,1.01833,0.79638,1.46233,1.25747
			c0.89058,0.92482,1.73593,1.89319,2.43198,2.97998c0.06042,0.09434,0.11186,0.20132,0.19266,0.27472
			c1.00092,0.90904,1.31377,2.17174,1.78485,3.3657c0.48375,1.22613,0.62402,2.48792,0.63548,3.78245
			c0.00323,0.36411,0.0287,0.72825,0.0242,1.09213c-0.01379,1.11905-0.04178,2.23794-0.05478,3.35699
			c-0.00584,0.50412,0.02315,1.0087,0.01477,1.5127c-0.01819,1.09329-0.09395,2.17192-0.51227,3.21075
			c-0.23856,0.59247-0.35553,1.23353-0.53389,1.85078c-0.07742,0.26797-0.17015,0.53158-0.25844,0.7963
			c-0.54828,1.64323-1.02885,3.30525-1.39188,5.00005c-0.0235,0.10957-0.07762,0.21819-0.07603,0.32664
			c0.01492,1.021-0.33192,1.96862-0.61227,2.92447c-0.17232,0.58749-0.43991,1.14793-0.67697,1.7154
			c-0.49547,1.1861-1.00089,2.36806-1.49858,3.55324c-0.33383,0.79509-0.66151,1.59277-0.99181,2.38934
			c-0.19386,0.46744-0.05409,0.71727,0.44704,0.71048c0.30157-0.00407,0.60648-0.0847,0.9019-0.16162
			c0.83725-0.21799,1.67764-0.42862,2.50336-0.68526c1.00624-0.31275,2.02448-0.59684,2.98373-1.04541
			c0.12653-0.05915,0.2439-0.16873,0.37399-0.18435c0.78767-0.09457,1.41534-0.53855,2.01297-0.9844
			c1.12341-0.83807,2.37804-1.46291,3.52837-2.26249c0.90768-0.63092,1.69678-1.33618,2.46075-2.11799
			c0.61852-0.63293,1.21844-1.30138,2.01683-1.75738c0.39699-0.22674,0.69022-0.64365,1.01201-0.99155
			c0.43584-0.47118,0.84926-0.96298,1.28072-1.43829c0.86914-0.95742,1.60931-1.99137,2.12431-3.19206
			c0.82961-1.93429,1.90643-3.73009,3.19885-5.3929c0.61732-0.79426,1.26495-1.56529,1.871-2.36789
			c0.40312-0.53384,0.7375-1.1194,1.13762-1.65572c0.51752-0.69373,1.05602-1.37305,1.61143-2.03682
			c0.46523-0.55598,0.97423-1.07507,1.4518-1.62103c0.4397-0.50267,0.85913-1.02303,1.29543-1.52876
			c0.36472-0.42278,0.74033-0.83614,1.11256-1.2524c0.05592-0.06254,0.13458-0.10889,0.17743-0.17834
			c0.43146-0.70006,1.09909-1.16358,1.70416-1.68481c0.59322-0.51102,1.2236-0.97886,1.83675-1.46681
			c0.15332-0.12199,0.32623-0.22887,0.45052-0.37614c0.64064-0.75901,1.49117-1.26545,2.23581-1.89823
			c1.07361-0.91234,2.25047-1.64639,3.49158-2.29959c0.33603-0.17686,0.59625-0.49483,0.89906-0.73835
			c0.75363-0.60612,1.44493-1.30357,2.38345-1.64195c0.10532-0.03796,0.21614-0.07036,0.31012-0.12848
			c1.53296-0.94779,3.30093-1.22417,4.99077-1.70115c1.23387-0.34827,2.51283-0.56643,3.7859-0.73589
			c0.88016-0.11716,1.78452-0.05323,2.6781-0.06728c0.08327-0.00131,0.17366,0.04449,0.2493,0.0247
			c1.21332-0.31732,2.20338,0.35171,3.27325,0.70713c1.74142,0.57848,3.12927,1.71095,4.58115,2.76104
			c1.53889,1.11303,2.65712,2.62356,3.89963,4.01463c0.3822,0.4279,0.62677,0.97422,0.82822,1.54068
			c0.31676,0.89059,0.75951,1.73545,1.11606,2.61302c0.49524,1.21883,0.96547,2.45359,1.06583,3.7796
			c0.09283,1.22633,0.12517,2.45724,0.18431,3.68613c0.00403,0.0839-0.00758,0.17324,0.01721,0.25072
			c0.21454,0.67027,0.17917,1.32125-0.10915,1.96568c-0.05318,0.11886-0.08229,0.29028-0.03764,0.40417
			c0.2527,0.64436,0.09114,1.28904-0.04134,1.90494c-0.37015,1.7207-0.76277,3.43925-1.23296,5.13467
			c-0.26735,0.96396-0.7077,1.87957-1.06204,2.82c-0.09808,0.26029-0.16672,0.53165-0.24959,0.79771
			c-0.0746,0.23955-0.13347,0.48565-0.22797,0.71712c-0.771,1.88835-1.54225,3.77665-2.32838,5.65871
			c-0.23343,0.55883-0.43326,1.12831-0.80371,1.63403c-0.29184,0.39832-0.4413,0.89943-0.66603,1.34886
			c-0.20963,0.41915-0.43648,0.82962-0.65317,1.24525c-0.15411,0.29556-0.34962,0.57949-0.44501,0.89341
			c-0.14412,0.47446,0.04869,0.69966,0.53279,0.68642c1.85735-0.05085,3.67967-0.29301,5.4174-0.99924
			c1.08554-0.44117,2.18217-0.85566,3.26053-1.31348c0.38127-0.16188,0.72408-0.41512,1.08275-0.62946
			c0.64728-0.38683,1.29578-0.77166,1.93866-1.16576c0.28305-0.17352,0.55634-0.36355,0.8288-0.55369
			c0.27466-0.1917,0.54935-0.38448,0.81241-0.5915c0.65714-0.51702,1.30545-1.04525,1.96182-1.56319
			c0.32956-0.26005,0.67435-0.50082,1.00305-0.76186c0.85391-0.67818,1.69113-1.37796,2.55872-2.03799
			c0.3985-0.3032,0.83475-0.57041,1.28601-0.78706c0.52301-0.25112,0.96347-0.60033,1.28424-1.0573
			c0.52377-0.74615,1.21664-1.32002,1.89893-1.88512c0.64676-0.53568,1.07874-1.19448,1.50308-1.88514
			c0.21738-0.35381,0.47781-0.68083,0.70853-1.02682c0.57251-0.85866,1.13766-1.72219,1.70844-2.58199
			c0.50824-0.76558,1.01172-1.53455,1.5329-2.29122c0.38947-0.56541,0.78793-1.12617,1.21152-1.6661
			c0.44772-0.57064,0.93152-1.11288,1.39612-1.6704c0.12415-0.14902,0.27896-0.29219,0.34506-0.46635
			c0.22955-0.60477,0.72238-0.98248,1.15091-1.41942c0.27258-0.27795,0.5983-0.53508,0.77783-0.86761
			c0.77396-1.43364,1.90503-2.54023,3.10501-3.60546c0.70728-0.62781,1.34045-1.33922,2.0047-2.01528
			c0.84167-0.85675,1.60529-1.81218,2.54156-2.5483c1.05899-0.8327,1.99478-1.79107,3.02478-2.64393
			c0.87311-0.72296,1.7229-1.5081,2.82513-1.9102c0.20404-0.07444,0.3779-0.23429,0.56213-0.35997
			c0.66934-0.45662,1.33707-0.91568,2.00595-1.37299c0.04599-0.03144,0.0936-0.07223,0.14539-0.08161
			c1.13159-0.20498,1.99686-0.976,3.01715-1.41677c0.20435-0.08827,0.39767-0.20732,0.60797-0.27565
			c1.03708-0.337,2.07193-0.6837,3.12045-0.98161c0.53482-0.15196,1.09607-0.28775,1.64645-0.29191
			c1.14603-0.00866,2.29758,0.02662,3.43735,0.13961c0.65961,0.06538,1.30139,0.31474,1.95004,0.48559
			c1.54068,0.40579,3.08063,0.81422,4.62088,1.22145c0.37885,0.10016,0.75717,0.20227,1.13684,0.29913
			c0.39142,0.09987,0.70898,0.31262,1.00089,0.5891c0.38568,0.36523,0.78534,0.71732,1.1965,1.05359
			c0.90918,0.74347,1.82928,1.47357,2.745,2.20903c0.15289,0.12279,0.29733,0.25895,0.46173,0.36379
			c0.22586,0.14411,0.42575,0.08878,0.5636-0.15348c0.16528-0.29044,0.33289-0.5825,0.46317-0.88927
			c0.22839-0.53778,0.4173-1.09232,0.64423-1.63078c0.3349-0.79461,0.67096-1.5896,1.03864-2.36928
			c0.5007-1.06185,1.03888-2.106,1.5473-3.16429c0.36307-0.7557,0.70486-1.52166,1.05405-2.28402
			c0.26752-0.58411,0.4971-1.18868,0.80484-1.75059c0.591-1.07929,1.22534-2.13487,1.84232-3.1999
			c0.07013-0.12104,0.16461-0.23195,0.21356-0.36058c0.28711-0.7543,0.55698-1.51522,0.84814-2.26791
			c0.11084-0.28653,0.26819-0.5547,0.39471-0.83559c0.17218-0.38218,0.36539-0.75863,0.49521-1.15533
			c0.22772-0.69566,0.58997-1.31825,0.91718-1.96621c0.48608-0.96255,1.02921-1.92289,1.15421-3.03393
			c0.02109-0.18734,0.08975-0.39009,0.19678-0.54369c0.73596-1.05623,1.32324-2.18903,1.7944-3.38451
			c0.01028-0.02602,0.01837-0.05506,0.03568-0.07589c0.70609-0.84909,1.11411-1.86932,1.60864-2.83717
			c0.40469-0.79216,0.82925-1.58899,1.10394-2.42982c0.60901-1.86411,1.29483-3.69231,2.19464-5.43472
			c0.35736-0.69197,0.79916-1.34061,1.15152-2.03483c0.39023-0.76874,0.8421-1.51456,1.01852-2.37878
			c0.15186-0.74367,0.67188-1.2905,1.09686-1.87027c0.57706-0.78722,1.2699-1.48854,1.86899-2.2609
			c0.69794-0.89976,1.6561-1.49206,2.50583-2.21089c0.48911-0.41381,1.03705-0.75862,1.56281-1.12838
			c0.13654-0.09607,0.28244-0.18509,0.43558-0.25019c0.56302-0.23938,0.86755-0.17829,1.26526,0.28752
			c0.23578,0.27609,0.42816,0.58887,0.64578,0.88092c0.41653,0.55887,0.56207,1.09295,0.15024,1.76806
			c-0.29895,0.49007-0.44522,1.08699-0.58633,1.65446c-0.08447,0.33991-0.0332,0.71492-0.03131,1.07409
			c0.00055,0.10964,0.08234,0.2316,0.05441,0.32664c-0.20291,0.69114,0.15393,1.25438,0.41422,1.83236
			c0.13611,0.30216,0.14188,0.57476,0.05975,0.89026c-0.27484,1.05645-0.6188,2.06411-1.18716,3.02272
			c-0.62613,1.05603-1.16119,2.16452-1.91095,3.1476c-0.11426,0.14979-0.15463,0.35793-0.22064,0.54213
			c-0.24496,0.68394-0.47681,1.37279-0.73499,2.05165c-0.07727,0.20328-0.2265,0.37879-0.33932,0.56908
			c-0.31268,0.52764-0.60971,1.06519-0.93854,1.58256c-0.44894,0.70633-0.92505,1.39538-1.38223,2.09658
			c-0.18158,0.27856-0.4231,0.54981-0.50101,0.85876c-0.35324,1.40059-1.0423,2.64746-1.68484,3.92073
			c-0.39996,0.79253-0.80661,1.58127-1.10913,2.42587c-0.22345,0.62387-0.62851,1.1811-0.93161,1.77871
			c-0.13629,0.2687-0.2215,0.56335-0.32916,0.8465c-0.08868,0.23318-0.16388,0.47239-0.26675,0.69909
			c-0.26392,0.58173-0.54102,1.15749-0.80988,1.737c-0.03503,0.07565-0.03137,0.17813-0.08215,0.23627
			c-0.48782,0.55841-0.62241,1.29702-0.98956,1.91964c-0.41074,0.69646-0.82187,1.40833-1.10342,2.16186
			c-0.50378,1.34829-1.27603,2.54911-1.93515,3.81203c-0.03891,0.07445-0.06137,0.16142-0.11337,0.22449
			c-0.8309,1.00821-1.20547,2.24521-1.71933,3.41257c-0.11249,0.25551-0.22406,0.51465-0.36896,0.75203
			c-0.43533,0.71317-0.91876,1.39883-1.32278,2.12879c-0.36469,0.65887-0.72583,1.33793-0.95071,2.05153
			c-0.30331,0.96248-0.81775,1.76507-1.47241,2.50701c-0.49976,0.56642-1.03397,1.11522-1.44839,1.74104
			c-0.6051,0.91365-1.05252,1.91235-1.16681,3.02889c-0.12888,1.25899-0.4823,2.45437-1.03,3.59511
			c-0.12061,0.25121-0.23355,0.51313-0.29922,0.78249c-0.28525,1.1696-0.69083,2.29964-1.07391,3.43854
			c-0.38898,1.15636-0.69684,2.33678-0.97598,3.52704c-0.24066,1.02637-0.60117,2.02441-0.90253,3.03683
			c-0.31757,1.0668-0.65967,2.12793-0.92548,3.20769c-0.10425,0.42358-0.04248,0.89119-0.03452,1.33835
			c0.00854,0.48003-0.01633,0.93751-0.24469,1.38637c-0.13428,0.26395-0.14032,0.59386-0.2001,0.89488
			c-0.09149,0.46041-0.04709,0.95661-0.36435,1.35754c-0.03323,0.04204-0.061,0.1031-0.06046,0.15505
			c0.00946,0.91302-0.41965,1.73185-0.5567,2.61398c-0.18442,1.18741-0.24283,2.42174-0.62592,3.54352
			c-0.41385,1.21185-0.55856,2.44827-0.76331,3.68339c-0.08578,0.51753-0.05762,1.06324-0.01471,1.59073
			c0.07016,0.86207,0.28751,1.72115,0.27399,2.57884c-0.01865,1.18352,0.34711,2.31231,0.37775,3.4687
			c0.02396,0.90227,0.27509,1.68073,0.62683,2.48013c0.17419,0.39592,0.19852,0.87312,0.22079,1.31704
			c0.03485,0.69527,0.33359,1.29426,0.60864,1.90314c0.22971,0.50855,0.47235,1.01387,0.74942,1.49763
			c0.24652,0.43044,0.56003,0.82203,0.82031,1.24531c0.12878,0.20947,0.1994,0.45397,0.30487,0.67862
			c0.21576,0.45957,0.73599,0.73074,1.23825,0.64937c0.44968-0.07285,0.86444-0.22987,1.22906-0.51006
			c0.64297-0.49406,1.33765-0.93386,1.9187-1.49216c0.68326-0.65659,1.25705-1.42577,1.90033-2.12588
			c0.45163-0.49152,0.92557-0.96498,1.41608-1.41775c0.53354-0.49252,1.06805-0.95203,1.43396-1.61953
			c0.37-0.67503,0.901-1.26707,1.39551-1.86748c0.87042-1.05682,1.80014-2.06625,2.64236-3.14448
			c0.77322-0.98996,1.46487-2.04379,2.19006-3.07117c0.14453-0.20476,0.26926-0.42381,0.4184-0.62496
			c1.06488-1.43645,1.91254-3.01624,2.9592-4.4656c0.53986-0.7476,1.02548-1.53434,1.53857-2.30142
			c0.04587-0.06856,0.10825-0.12885,0.17197-0.18228c0.96011-0.80554,1.59735-1.86292,2.26501-2.89682
			c0.06015-0.09321,0.11798-0.19289,0.19727-0.26807c0.61749-0.58558,1.04608-1.28437,1.30835-2.09388
			c0.04855-0.14983,0.16135-0.30079,0.28531-0.40047c0.53564-0.43073,0.87079-1.01279,1.24185-1.57089
			c0.20029-0.30128,0.42963-0.5831,0.64148-0.87682c0.45764-0.63453,0.94574-1.25024,1.36002-1.91205
			c0.51904-0.82932,1.04379-1.64429,1.66614-2.40699c0.63251-0.77521,1.14731-1.64601,1.71982-2.47066
			c0.51236-0.73796,1.13055-1.38236,1.76471-2.01627c0.31204-0.31191,0.55267-0.69438,0.83447-1.03762
			c0.31711-0.38618,0.64471-0.76373,0.96658-1.14599c0.07211-0.08561,0.1579-0.16611,0.20624-0.26429
			c0.69949-1.4214,1.85141-2.5037,2.80325-3.73515c0.25424-0.32892,0.57791-0.60453,0.87292-0.90142
			c0.53021-0.53355,0.86221-1.20836,1.29852-1.80857c0.17886-0.24603,0.40582-0.45667,0.59042-0.69901
			c0.77716-1.02034,1.59747-2.00122,2.54095-2.87477c0.18442-0.17077,0.35104-0.36246,0.51379-0.55471
			c0.66769-0.78878,1.27307-1.64183,2.01562-2.35167c0.4967-0.47475,0.87195-1.05894,1.44427-1.47045
			c0.42398-0.30488,0.74921-0.74905,1.1109-1.13818c0.83572-0.89922,1.7887-1.68151,2.54932-2.65889
			c0.6918-0.88895,1.61801-1.53839,2.49994-2.22745c0.54977-0.42951,1.05933-0.9172,1.74158-1.14477
			c0.397-0.13243,0.78833-0.28405,1.18985-0.40081c1.77243-0.51551,3.41721-1.40782,5.23898-1.77228
			c0.21008-0.04203,0.44153-0.02197,0.65628,0.01203c0.83221,0.13174,1.66531,0.22065,2.50851,0.14143
			c1.37457-0.12916,2.66986,0.13151,3.90933,0.74073c0.75189,0.36954,1.52209,0.70542,2.29926,1.01885
			C395.0546,57.49375,395.63916,58.04584,396.00116,58.92325z M208.89462,89.77919c-0.14087,0.13086-0.26921,0.2913-0.35501,0.46236
			c-0.29726,0.593-0.56783,1.19933-0.85866,1.79564c-0.45096,0.92467-0.90552,1.84645-1.1031,2.86922
			c-0.02592,0.13395-0.10533,0.25851-0.16563,0.3847c-0.34634,0.72482-0.83464,1.39101-0.89723,2.23275
			c-0.00992,0.13366-0.0981,0.26056-0.14413,0.39268c-0.22047,0.63326-0.49394,1.25465-0.64252,1.9045
			c-0.14731,0.64425-0.50188,1.24886-0.41548,1.94279c-0.42717,0.72596-0.43771,1.53745-0.48468,2.3422
			c-0.00299,0.05179-0.04514,0.10148-0.06976,0.15179c-0.36646,0.74936-0.4713,1.54418-0.41394,2.36784
			c0.04065,0.58385,0.10625,1.16769,0.11049,1.75189c0.00464,0.64149-0.084,1.28436-0.06679,1.92487
			c0.01944,0.72437,0.04202,1.46128,0.18932,2.1664c0.1871,0.89568,0.58029,1.75095,0.73811,2.64938
			c0.16228,0.92366,0.64172,1.67773,1.11761,2.41525c0.49579,0.76838,1.17284,1.41995,1.77203,2.12141
			c1.09375,1.28043,2.49716,2.14619,3.95854,2.92686c0.44264,0.23645,0.90536,0.46163,1.38574,0.59553
			c0.91414,0.25479,1.84071,0.47982,2.77521,0.64186c0.76692,0.13299,1.56029,0.2586,2.32829,0.20217
			c0.8839-0.06493,1.75638-0.31802,2.62712-0.51852c0.75696-0.17429,1.49641-0.43197,2.25804-0.57706
			c1.53302-0.29207,2.87259-0.89925,3.86644-2.1478c0.06891-0.08653,0.15338-0.16199,0.23705-0.23531
			c0.85741-0.75138,1.51237-1.63399,1.86493-2.73592c0.07957-0.24869,0.25398-0.51946,0.46452-0.66337
			c0.50664-0.34631,0.8811-0.80604,1.12726-1.33288c0.41254-0.88303,1.15865-1.30051,2.01849-1.47231
			c0.66299-0.13246,1.01801-0.54819,1.36562-1.01796c0.20502-0.27702,0.13622-0.54826-0.17023-0.70299
			c-0.77184-0.3897-1.52498-0.82436-2.38934-1.00224c-0.66516-0.1369-1.25868-0.41854-1.81125-0.8367
			c-0.5997-0.45384-1.23166-0.89924-1.91469-1.20074c-1.01688-0.44885-1.72679-1.22113-2.43686-2.00909
			c-0.71027-0.78822-1.37935-1.61364-2.09154-2.40007c-0.53044-0.58577-0.39024-1.36804-0.65605-2.02785
			c-0.00832-0.02072,0.00951-0.05469,0.02057-0.08012c0.21091-0.48581,0.36742-1.00596,0.64613-1.44923
			c0.51656-0.82162,0.91837-1.72336,1.61499-2.4265c0.07738-0.07812,0.12857-0.18181,0.19429-0.27188
			c0.60767-0.83266,1.19727-1.67964,1.83606-2.48772c0.17624-0.22298,0.4821-0.37928,0.75983-0.47736
			c0.3663-0.12935,0.76105-0.2155,1.14816-0.23683c0.32303-0.01781,0.67912,0.02147,0.97446,0.14537
			c0.91536,0.38399,1.759,0.8779,2.19389,1.84605c0.0332,0.07385,0.10353,0.13082,0.15562,0.1964
			c0.99681,1.25437,2.26747,2.23122,3.407,3.34053c0.33347,0.32462,0.75844,0.5873,1.18658,0.77604
			c0.91908,0.4052,1.86389,0.76304,2.85793,0.94167c0.64821,0.11647,1.21532,0.10995,1.4362-0.8563
			c0.13657-0.59721,0.35867-1.17783,0.57907-1.75179c0.13875-0.3613,0.37897-0.68404,0.51402-1.04629
			c0.22331-0.59887,0.39795-1.21587,0.5941-1.8249c0.12822-0.39809,0.24878-0.79903,0.39035-1.19235
			c0.14178-0.39389,0.31183-0.77753,0.45801-1.16993c0.30183-0.8103,0.64899-1.60875,0.87955-2.43928
			c0.26103-0.94047,0.39487-1.91544,0.61975-2.86697c0.32875-1.39131,0.60612-2.77587,0.50269-4.2271
			c-0.08922-1.25201,0.03886-2.52271-0.09294-3.76781c-0.24155-2.28223-0.70357-4.52307-1.72354-6.61384
			c-0.4285-0.87827-0.83795-1.76915-1.19125-2.67944c-0.18967-0.48861-0.46114-0.91301-0.82576-1.24516
			c-0.63666-0.57991-1.2083-1.23581-1.9594-1.69148c-0.6638-0.40273-1.28839-0.86953-1.94363-1.28709
			c-0.46858-0.29859-0.93462-0.60089-1.5209-0.65994c-0.2372-0.0239-0.46786-0.17531-0.68774-0.29416
			c-0.33081-0.17881-0.6658-0.2597-1.04747-0.21265c-0.58009,0.07153-1.17923,0.21052-1.74466,0.13327
			c-1.23094-0.16816-2.3658,0.06892-3.53416,0.43037c-1.72067,0.53232-3.57851,0.70588-4.9119,2.12294
			c-0.01854,0.01971-0.04872,0.02788-0.07071,0.045c-1.21074,0.94335-2.42192,1.8862-3.63026,2.83262
			c-0.08667,0.06789-0.15283,0.16205-0.22824,0.24423c-1.24246,1.35403-2.25226,2.89724-3.47217,4.26965
			c-0.29453,0.33136-0.59274,0.66003-0.8739,1.00255c-0.40024,0.48758-0.95679,0.86161-1.10916,1.53441
			c-0.02104,0.09296-0.15065,0.16006-0.22691,0.24203c-0.41869,0.45003-0.81474,0.89301-0.98463,1.52843
			c-0.11946,0.44688-0.42743,0.84378-0.65398,1.2615c-0.17302,0.31908-0.34744,0.63747-0.52678,0.95302
			c-0.13588,0.23912-0.28378,0.47141-0.42067,0.70998C211.20107,85.13737,209.44524,89.26768,208.89462,89.77919z
			 M320.5293,70.38306c-0.29608,0.07848-0.41217,0.08591-0.50357,0.13726c-0.60739,0.34125-1.21017,0.69078-1.8132,1.03976
			c-0.62723,0.36298-1.26907,0.70379-1.87491,1.09962c-0.59122,0.38625-1.13498,0.54906-1.75183,0.04459
			c-0.54926-0.44919-2.9108-2.13475-3.0947-2.36669c-0.40616-0.51223-0.93835-0.78378-1.57397-0.87213
			c-0.80283-0.11159-1.61185-0.191-2.36139-0.53992c-0.1246-0.05801-0.26886-0.0739-0.40417-0.1087
			c-0.51273-0.13191-1.0347-0.23558-1.53647-0.40079c-1.28448-0.42291-2.57797-0.75612-3.94931-0.65039
			c-0.30588,0.02359-0.62137,0.03109-0.92252-0.01652c-0.5242-0.08285-0.99347,0.06809-1.47412,0.23306
			c-0.5278,0.18115-1.06879,0.32346-1.60199,0.48921c-0.37164,0.11553-0.76187,0.19824-1.10608,0.37083
			c-2.02719,1.01649-3.95273,2.21397-5.83035,3.47596c-1.28021,0.86044-2.28476,2.05567-3.32709,3.18822
			c-0.37717,0.40981-0.71085,0.85937-1.07172,1.28454c-0.26993,0.31805-0.60803,0.59322-0.81415,0.94672
			c-0.26682,0.45765-0.64496,0.76205-1.06024,1.05127c-0.15851,0.1104-0.34058,0.2227-0.43689,0.38007
			c-0.2894,0.47265-0.5531,0.96217-0.80597,1.45576c-0.35724,0.69733-0.70084,1.3921-1.29697,1.93916
			c-0.23584,0.21638-0.35385,0.56087-0.52643,0.84648c-0.11246,0.18612-0.18738,0.42053-0.34723,0.54755
			c-0.46286,0.36781-0.68527,0.85265-0.85757,1.39729c-0.1423,0.44995-0.16101,0.99344-0.72321,1.21166
			c-0.08569,0.03326-0.12897,0.17719-0.19064,0.27073c-0.29227,0.44305-0.58261,0.8873-0.8764,1.32933
			c-0.33987,0.51142-0.71616,1.00212-1.01578,1.53598c-0.39484,0.70348-0.76514,1.4169-1.2634,2.05833
			c-0.1492,0.19209-0.21768,0.45019-0.30829,0.68379c-0.17169,0.44256-0.33524,0.88833-0.49744,1.33447
			c-0.31516,0.86667-0.67871,1.72015-0.92502,2.60612c-0.22794,0.81999-0.11398,1.73969-0.74683,2.43738
			c-0.0166,0.01827-0.0188,0.05272-0.02121,0.08018c-0.04355,0.49913-0.32962,0.88708-0.59711,1.27986
			c-0.2905,0.42656-0.42941,0.90022-0.5311,1.40093c-0.22205,1.09399-0.46808,2.18335-0.71988,3.271
			c-0.13229,0.57153-0.30661,1.13327-0.44397,1.70375c-0.07742,0.32146-0.14563,0.64979-0.16885,0.97849
			c-0.03143,0.44432,0.00507,0.89339-0.02551,1.33781c-0.03629,0.52735-0.15323,1.0512-0.16263,1.57786
			c-0.01492,0.83459,0.02258,1.67056,0.05524,2.50526c0.00974,0.2496,0.03027,0.51724,0.12708,0.74157
			c0.3158,0.7319,0.25577,1.5304,0.44806,2.28149c0.0687,0.26822,0.09915,0.56168,0.23181,0.79556
			c0.86636,1.52753,1.62326,3.12337,2.88541,4.3998c0.55289,0.55911,1.08313,1.12253,1.76593,1.53234
			c0.30255,0.18159,0.57938,0.43169,0.80911,0.70085c0.18591,0.2178,0.39185,0.30163,0.65076,0.31462
			c1.21478,0.06097,2.4332-0.06313,3.56216-0.45533c1.23416-0.42873,2.39075-1.08335,3.57333-1.65565
			c0.2222-0.10752,0.4292-0.26894,0.60626-0.44308c0.71887-0.70705,1.46304-1.36916,2.34531-1.88252
			c0.54126-0.31492,1.15842-0.61296,1.31543-1.33472c0.01059-0.04851,0.05902-0.1096,0.10425-0.12661
			c0.63559-0.23923,0.82175-0.88653,1.2258-1.33529c0.89529-0.99426,1.8013-1.97886,2.70667-2.96399
			c0.68237-0.74245,1.37408-1.48177,1.86075-2.37173c0.54156-0.99043,1.23935-1.85137,2.0123-2.66557
			c0.49783-0.5244,0.99496-1.06082,1.40854-1.65067c0.39938-0.56962,0.67847-1.22219,1.03412-1.8243
			c0.32623-0.55236,0.67218-1.09412,1.03232-1.62505c0.23303-0.34354,0.50528-0.66073,0.76355-0.98685
			c0.20529-0.25916,0.39072-0.54075,0.62881-0.76598c0.86469-0.81779,1.59888-1.70804,1.97153-2.87241
			c0.15884-0.49619,0.37857-0.98114,0.72876-1.40246c0.37433-0.45042,0.7337-0.92865,1.00854-1.44335
			c0.67099-1.25649,1.27502-2.54859,1.93518-3.8111c0.32254-0.61683,0.68149-1.21926,1.07419-1.79384
			c0.9133-1.3363,1.91763-2.61246,2.61856-4.08513c0.20331-0.4271,0.49985-0.82539,0.61981-1.27278
			c0.16498-0.61515,0.48322-1.11382,0.86768-1.59428c0.13925-0.17397,0.26138-0.36274,0.38031-0.5517
			c0.38675-0.61466,0.71698-1.27302,1.1636-1.84003c0.72495-0.9204,1.46786-1.82533,2.09869-2.81428
			c0.17825-0.27952,0.3212-0.58212,0.47296-0.87792c0.30475-0.5941,0.59784-1.19428,0.90875-1.78511
			c0.16922-0.32158,0.43011-0.6088,0.53592-0.9471c0.2406-0.76976,0.76904-1.35868,1.20175-1.99828
			C320.134,71.91829,320.2247,71.21442,320.5293,70.38306z M168.37538,111.72849c-0.46132-0.32365-0.95477-0.43308-1.43069-0.57934
			c-1.21864-0.3745-2.29066-1.02788-3.32481-1.74895c-0.59538-0.41512-1.13498-0.92271-1.76335-1.27523
			c-0.9873-0.55389-1.70526-1.34098-2.29317-2.27715c-0.14836-0.23625-0.26688-0.49567-0.44107-0.71037
			c-0.38322-0.47231-0.46066-1.07207-0.69656-1.60445c-0.06792-0.15329-0.0143-0.39014,0.04749-0.56626
			c0.35022-0.9987,0.63348-2.03486,1.1124-2.96971c0.33522-0.65434,0.72714-1.31633,1.18098-1.89912
			c0.51749-0.66452,0.97105-1.36288,1.37126-2.09113c0.26236-0.47744,0.61221-0.86562,0.9628-1.25887
			c0.26303-0.29504,1.07663-0.41651,1.41075-0.21376c0.88252,0.53549,1.76144,1.07921,2.61304,1.66171
			c0.20911,0.14304,0.34425,0.43137,0.45151,0.67964c0.45316,1.04906,0.89716,2.07714,1.79366,2.87243
			c1.1324,1.00455,2.30177,1.73791,3.66513,2.09199c0.59042,0.15334,0.90697-0.03155,1.05986-0.62007
			c0.06288-0.242,0.06657-0.52192,0.19595-0.72012c0.48547-0.74387,0.37303-1.6889,0.85118-2.42976
			c0.0407-0.06303,0.02216-0.16433,0.03099-0.24786c0.16185-1.53402,0.52943-3.02346,0.97401-4.49627
			c0.11301-0.37439,0.23578-0.74638,0.33324-1.12484c0.23724-0.92118,0.46423-1.84502,0.69153-2.76874
			c0.13322-0.54142,0.26523-1.08328,0.38705-1.62735c0.32729-1.46146,0.071-2.95853,0.26213-4.42889
			c0.01054-0.081-0.0206-0.16656-0.02322-0.25029c-0.00871-0.27676-0.00922-0.55383-0.02016-0.83048
			c-0.02429-0.61404-0.04286-1.22855-0.08371-1.84155c-0.02411-0.36236-0.14227-0.72546-0.12128-1.08254
			c0.07376-1.25417-0.21448-2.43993-0.54922-3.63291c-0.36835-1.31291-0.92331-2.51473-1.77798-3.58092
			c-0.36664-0.45738-0.71579-0.93147-1.03853-1.42064c-0.39122-0.59296-0.8941-1.08114-1.46077-1.4793
			c-0.86752-0.60949-1.86296-0.97182-2.85924-1.3283c-0.60596-0.21683-1.1731-0.23865-1.802-0.07974
			c-0.75539,0.19087-1.54179,0.25826-2.31418,0.38281c-1.0481,0.16901-2.10207,0.31039-3.14095,0.52448
			c-0.59979,0.1236-1.1833,0.34694-1.68307,0.73279c-0.61871,0.4777-1.2211,0.97957-1.8651,1.42053
			c-0.54607,0.37392-1.20436,0.57764-1.64632,1.11601c-0.07668,0.09341-0.26559,0.0853-0.38431,0.15522
			c-0.43288,0.25497-0.88454,0.48875-1.28015,0.79398c-0.68495,0.52849-1.32216,1.11849-2.00113,1.65523
			c-0.43492,0.34383-0.97105,0.57786-1.35104,0.96879c-0.62065,0.63849-1.15302,1.36315-1.71703,2.05601
			c-0.08652,0.10627-0.11394,0.28246-0.21808,0.34912c-0.89656,0.57384-1.28746,1.51218-1.78705,2.38347
			c-0.55426,0.96666-1.15837,1.90552-1.76282,2.84225c-0.22589,0.3501-0.54155,0.64227-0.76768,0.99225
			c-0.43892,0.67926-0.85075,1.37647-1.25891,2.07497c-0.18283,0.31286-0.32903,0.64708-0.4931,0.97098
			c-0.49098,0.96915-0.97835,1.94016-1.47839,2.9046c-0.07547,0.14556-0.2231,0.25187-0.31648,0.3904
			c-0.20195,0.29955-0.42874,0.59093-0.57578,0.91702c-0.25253,0.5601-0.46469,1.13215-0.82452,1.64431
			c-0.18446,0.26253-0.23935,0.61379-0.36761,0.91871c-0.17165,0.40799-0.36931,0.80523-0.53523,1.21539
			c-0.40799,1.00861-0.87738,2.00034-1.18488,3.03945c-0.31583,1.06722-0.4727,2.18185-0.69002,3.27752
			c-0.04327,0.2183-0.0343,0.44651-0.06898,0.66707c-0.05147,0.32711-0.08101,0.6653-0.18967,0.97424
			c-0.26317,0.74821-0.3625,1.51322-0.34615,2.30019c0.02264,1.08811,0.20476,2.17093,0.0977,3.26363
			c-0.06267,0.63953-0.04428,1.294-0.17471,1.91827c-0.20506,0.98152,0.03944,1.8899,0.31009,2.80106
			c0.14189,0.47775,0.33484,0.94191,0.52739,1.40273c0.51434,1.23096,0.80077,2.55653,1.55629,3.68911
			c0.17836,0.26738,0.26776,0.57825,0.33777,0.91734c0.10278,0.49774,0.37822,0.99193,0.68697,1.40843
			c0.66386,0.89565,1.37808,1.75621,2.10854,2.59919c0.30777,0.35516,0.66641,0.71108,1.07608,0.92384
			c0.89026,0.46236,1.7933,0.93071,2.80862,1.0742c0.44044,0.06224,0.89412,0.15449,1.32916,0.10987
			c1.85863-0.19062,3.59686-0.79704,5.25969-1.633c0.28078-0.14116,6.45804-4.75893,7.06897-5.39285
			c0.52243-0.54208,1.03717-1.10067,1.6181-1.57509c0.81984-0.66953,1.58598-1.41171,2.508-1.95356
			c0.21469-0.12616,0.39352-0.31282,0.59077-0.46923c0.47919-0.38,0.94377-0.78097,1.44334-1.13204
			C167.60027,113.03925,168.08302,112.52264,168.37538,111.72849z M377.69455,64.98839
			c-0.79163-0.00003-1.46555,0.21377-2.05881,0.56802c-1.37869,0.82327-2.5549,1.89312-3.53662,3.16896
			c-0.20435,0.26555-0.36957,0.56564-0.59747,0.80779c-0.80569,0.85579-1.64606,1.67921-2.44189,2.54375
			c-0.39484,0.4289-0.76627,0.89308-1.07037,1.38911c-0.96359,1.5722-1.94653,3.11765-3.31702,4.38811
			c-1.44016,1.33512-2.56427,2.94744-3.71967,4.51868c-0.93738,1.27477-1.76636,2.62464-2.87357,3.77483
			c-0.33826,0.35139-0.53564,0.83902-0.79431,1.26615c-0.0715,0.11801-0.125,0.24706-0.19824,0.36385
			c-0.28021,0.44706-0.57935,0.88291-0.84525,1.33823c-0.49265,0.84371-0.89407,1.74486-1.65173,2.41097
			c-0.207,0.18203-0.39423,0.41065-0.52179,0.65395c-0.27872,0.53178-0.71167,0.92531-1.1019,1.36163
			c-0.4624,0.51704-0.99222,0.98988-1.2005,1.69401c-0.04584,0.15486-0.16238,0.29182-0.259,0.42809
			c-0.29074,0.41017-0.59027,0.81412-0.8815,1.22401c-0.26468,0.37257-0.37317,0.7524-0.03644,1.14829
			c0.33008,0.38808,0.28897,0.82474,0.15659,1.27212c-0.05487,0.18545-0.14359,0.37184-0.1478,0.55937
			c-0.01624,0.71532-0.28308,1.42078-0.06775,2.14895c0.04199,0.14191-0.04483,0.32851-0.09146,0.48891
			c-0.2142,0.73734-0.19595,1.48693-0.12021,2.23804c0.06149,0.61012,0.09689,1.21358,0.05255,1.83246
			c-0.06021,0.83956,0.03479,1.67898,0.38297,2.46722c0.40518,0.91723,0.78119,1.84859,1.22101,2.74884
			c0.41699,0.85354,0.8819,1.68538,1.35941,2.50723c0.47305,0.81419,1.16882,1.47524,1.62982,2.30262
			c0.07886,0.14157,0.22687,0.24567,0.34683,0.3631c0.41992,0.41111,0.84436,0.81769,1.2616,1.23153
			c0.25677,0.25466,0.48755,0.53754,0.75784,0.77625c0.83859,0.74068,1.67578,1.48446,2.54462,2.18872
			c0.33865,0.27452,0.73856,0.5094,1.14911,0.64999c0.49744,0.17036,1.03745,0.21336,1.55548,0.32766
			c0.33453,0.07379,2.40497-0.13736,2.82187-0.10664c0.3858,0.02843,0.78363,0.05888,1.16098-0.0035
			c0.54977-0.09087,1.10037-0.22504,1.62231-0.41741c0.29855-0.11003,0.54877-0.36245,0.80627-0.56878
			c0.17099-0.13697,0.29193-0.35109,0.47803-0.45163c0.51559-0.27859,1.04077-0.54848,1.58588-0.76096
			c0.66455-0.25903,1.23755-0.63686,1.75909-1.11372c0.26733-0.24445,0.5274-0.55206,0.84958-0.66845
			c0.4942-0.17853,2.8259-2.36995,3.93829-4.3135c0.34253-0.79164,0.71402-1.57121,1.03955-2.36962
			c0.20016-0.49087,0.3284-1.01055,0.50452-1.51184c0.28421-0.80907,0.18002-1.66374,0.30042-2.49306
			c0.10788-0.74296,0.11987-1.5025,0.13568-2.25555c0.02182-1.03526,0.04904-2.07339-0.00339-3.10635
			c-0.05222-1.02947-0.16605-2.05904-0.31479-3.07953c-0.16498-1.13168-0.40335-2.25257-0.60373-3.37922
			c-0.19064-1.07166-0.36984-2.14536-0.56403-3.21635c-0.02936-0.16186-0.09021-0.32805-0.17612-0.4679
			c-0.40417-0.65791-0.58624-1.38432-0.72208-2.13408c-0.12411-0.68503-0.43707-1.33241-0.40845-2.05028
			c0.00299-0.07514-0.05212-0.15818-0.09485-0.22871c-0.31912-0.52664-0.21866-1.13329-0.31824-1.70067
			c-0.07657-0.43586-0.04675-0.88978-0.11383-1.32805c-0.21692-1.41574-0.29877-2.83603-0.25195-4.26773
			c0.03015-0.92202,0.12799-1.86436-0.01859-2.76266c-0.12274-0.75224-0.16425-1.49445-0.1713-2.24248
			c-0.01132-1.19878-0.16473-2.40581,0.14832-3.59366c0.04147-0.15751,0.02008-0.33331,0.01749-0.50047
			c-0.01859-1.19433,0.26483-2.31743,0.75467-3.40224c0.34409-0.76194,0.64545-1.5433,0.95828-2.31905
			C377.72693,65.2564,377.69891,65.1645,377.69455,64.98839z"/>
		<path class="st1" d="M59.70061,100.78307c-0.48782,0.50801-0.76886,1.03162-1.0437,1.58167
			c-0.44878,0.89815-1.00045,1.74465-1.50203,2.61678c-0.31875,0.55423-0.63739,1.10909-0.93535,1.6746
			c-1.00027,1.89847-1.91983,3.84557-3.39392,5.4501c-0.14803,0.16113-0.24866,0.36935-0.35511,0.56453
			c-0.38688,0.70941-0.76366,1.42435-1.1526,2.13261c-0.06617,0.12049-0.16926,0.22208-0.2621,0.32634
			c-0.96816,1.08737-1.82166,2.25805-2.66497,3.44575c-0.60542,0.85266-1.30088,1.65948-2.10825,2.37028
			c-0.70573,0.62131-1.26571,1.41156-1.86789,2.14536c-0.23244,0.28324-0.48057,0.52184-0.77586,0.74629
			c-0.53074,0.40341-0.98711,0.90362-1.48469,1.35213c-0.2462,0.22191-0.5139,0.42012-0.77393,0.62646
			c-0.15273,0.12121-0.31539,0.23044-0.46349,0.35687c-0.85095,0.72653-1.70075,1.45443-2.54637,2.18714
			c-0.18959,0.16428-0.4152,0.32024-0.52943,0.53133c-0.23961,0.44279-0.61782,0.73978-1.01969,0.9715
			c-1.40293,0.80898-2.74282,1.72974-4.22403,2.40158c-1.89248,0.8584-3.8428,1.53711-5.89545,1.89139
			c-0.26781,0.04622-0.55273,0.02509-0.82624-0.00116c-0.38943-0.03737-0.77556-0.10893-1.16325-0.16484
			c-0.77287-0.11147-1.54818-0.20844-2.31795-0.33826c-0.49155-0.0829-0.98154-0.15784-1.41482-0.47316
			c-0.23478-0.17087-0.57122-0.20563-0.86484-0.29137c-0.77891-0.22743-1.60409-0.35507-2.32759-0.69806
			c-0.82497-0.39108-1.56125-0.97002-2.33285-1.47226c-0.16374-0.10658-0.30799-0.24289-0.47069-0.35127
			c-1.04315-0.69495-1.8488-1.61122-2.46647-2.6907c-0.20613-0.36023-0.35364-0.75784-0.49588-1.14998
			c-0.26713-0.73644-0.54656-1.47159-0.75294-2.22585c-0.16108-0.5887-0.29874-1.20428-0.30818-1.81009
			c-0.0266-1.70677,0.00111-3.41511,0.04568-5.12183c0.01301-0.49802,0.13827-0.99606,0.24084-1.48808
			c0.15443-0.74081,0.30495-1.47825,0.29654-2.242c-0.00901-0.81819,0.14546-1.60614,0.41951-2.38386
			c0.21272-0.60368,0.31563-1.24552,0.47959-1.86717c0.06334-0.24017,0.11306-0.50471,0.2507-0.70079
			c0.48862-0.69611,0.56174-1.50836,0.70848-2.30265c0.03023-0.16364,0.00247-0.36948,0.0924-0.48519
			c0.41224-0.53044,0.48129-1.18706,0.71204-1.78323c0.15059-0.38907,0.34103-0.7627,0.51266-1.14367
			c0.08052-0.17874,0.18288-0.35189,0.23412-0.53887c0.30678-1.11948,0.96956-2.06973,1.46304-3.09995
			c0.28839-0.60207,0.61492-1.18587,0.92367-1.77822c0.02584-0.04958,0.06491-0.10076,0.06749-0.15269
			c0.04749-0.95906,0.68634-1.67675,1.034-2.51236c0.15924-0.38275,0.4602-0.70457,0.63979-1.08125
			c0.3715-0.77919,0.69809-1.57967,1.05602-2.3655c0.25483-0.55948,0.52867-1.11037,0.79765-1.66331
			c0.45251-0.93024,0.89903-1.86359,1.36624-2.78643c0.20031-0.39564,0.5063-0.74586,0.65871-1.15596
			c0.30898-0.83138,0.6877-1.61804,1.19286-2.34567c0.06323-0.09107,0.14218-0.19038,0.15596-0.29361
			c0.12413-0.92947,0.74928-1.60576,1.17618-2.38326c0.17313-0.31531,0.26286-0.67524,0.41071-1.00584
			c0.38379-0.85814,0.69324-1.76585,1.19409-2.55055c0.47132-0.73846,0.64024-1.6083,1.1596-2.31001
			c0.07903-0.10677,0.09153-0.26113,0.14323-0.3901c0.15584-0.38877,0.2495-0.82333,0.48658-1.15479
			c0.72602-1.01508,1.02121-2.23456,1.63669-3.30153c0.2592-0.44931,0.39465-0.97893,0.53461-1.48631
			c0.31376-1.13747,0.86409-2.17254,1.33334-3.24413c0.30203-0.68974,0.54245-1.40795,0.78328-2.12257
			c0.26646-0.79068,0.54036-1.58228,0.74119-2.39082c0.25655-1.03294,0.60799-2.0266,1.03546-2.99762
			c0.20288-0.46087,0.40896-0.9182,0.40799-1.44302c-0.0004-0.21761,0.08532-0.43507,0.12936-0.65312
			c0.09349-0.46276,0.18333-0.92625,0.27836-1.3887c0.10112-0.49206,0.21224-0.98212,0.30887-1.47503
			c0.2476-1.26302,0.47691-2.52978,0.73891-3.78976c0.14194-0.68263,0.33616-1.35435,0.50592-2.03122
			c0.03373-0.13449,0.08812-0.26953,0.09077-0.40512c0.01251-0.64093,0.00302-1.28231,0.01506-1.92326
			c0.02141-1.13942-0.2246-2.22112-0.66233-3.26783c-0.24837-0.59392-0.48693-1.19273-0.70413-1.79858
			c-0.10847-0.30256-0.26997-0.53548-0.52632-0.73346c-1.23359-0.95264-2.61637-1.35354-4.16707-1.18493
			c-0.96951,0.10541-1.93672,0.18136-2.91845,0.12937c-0.60666-0.03213-1.23866,0.03502-1.82984,0.17871
			c-0.88601,0.21536-1.78004,0.19645-2.67213,0.22819c-0.9241,0.03289-1.83727,0.06014-2.75365,0.25316
			c-0.58113,0.12241-1.19589,0.16451-1.82211,0.08672c-0.53893-0.06694-1.11292,0.06325-1.66024,0.16583
			c-1.32256,0.24787-2.644,0.45991-3.99822,0.39802c-0.36-0.01646-0.72368,0.06639-1.08657,0.08943
			c-0.44425,0.02822-0.88936,0.0436-1.33428,0.05976c-0.11151,0.00406-0.23058-0.03759-0.3345-0.01158
			c-1.29521,0.32417-2.55609-0.02605-3.82805-0.17806c-0.41599-0.04971-0.83782-0.04852-1.25564-0.08572
			c-0.22117-0.0197-0.45074-0.04066-0.65684-0.11536c-0.53568-0.19419-0.73604-0.55727-0.58998-1.11533
			c0.12722-0.4861,0.29813-0.96223,0.47304-1.43411c0.45613-1.23062,0.87673-2.47128,1.5341-3.6241
			c0.39845-0.69875,0.62972-1.49141,0.9595-2.23145c0.12253-0.27497,0.30078-0.52789,0.4741-0.77658
			c0.13515-0.19392,0.3327-0.26602,0.58129-0.26958c0.35952-0.00517,0.71765-0.07745,1.07756-0.09211
			c0.47422-0.01931,0.95924-0.07358,1.42274-0.00261c1.73388,0.26554,3.4566,0.30904,5.17633-0.08792
			c0.13531-0.03124,0.28031-0.06119,0.41558-0.04579c1.43909,0.16376,2.84557-0.08891,4.25422-0.31914
			c0.0553-0.00905,0.11083-0.01882,0.16662-0.02241c1.53665-0.09861,3.07232-0.24581,4.61037-0.27774
			c1.09331-0.0227,2.17445-0.11985,3.26087-0.21229c1.64522-0.13997,3.29594-0.21508,4.94427-0.3185
			c0.08378-0.00526,0.16822-0.01176,0.25047-0.02755c1.44381-0.2768,2.83495-0.05334,4.19511,0.44632
			c0.94401,0.34679,1.90456,0.65817,2.82128,1.0671c1.04261,0.46506,2.08514,0.96271,2.93506,1.74905
			c0.27823,0.25744,0.50659,0.60616,0.65621,0.9565c0.22993,0.53838,0.40054,1.10707,0.54376,1.67612
			c0.15065,0.59857,0.26173,1.20469,0.57727,1.74805c0.05505,0.09479,0.10454,0.20905,0.10711,0.31552
			c0.02425,1.00391,0.21066,2.00616,0.01286,3.01305c-0.08079,0.41129-0.11776,0.8313-0.17101,1.24782
			c-0.02128,0.16648,0.00573,0.34983-0.05482,0.49886c-0.3841,0.94522-0.37305,1.9665-0.59169,2.94206
			c-0.09758,0.43541-0.28725,0.84995-0.38881,1.28477c-0.15247,0.65279-0.25038,1.31821-0.39777,1.97233
			c-0.11,0.48822-0.18332,1.00845-0.41207,1.44085c-0.38955,0.73636-0.23249,1.60295-0.64435,2.31756
			c-0.05321,1.0016-0.57135,1.84461-0.93106,2.7421c-0.05111,0.12749-0.07342,0.26929-0.09151,0.40679
			c-0.11013,0.83697-0.33234,1.63102-0.77476,2.36438c-0.15373,0.25481-0.1953,0.57662-0.29258,0.86631
			c-0.19542,0.58192-0.38617,1.1656-0.59367,1.74323c-0.16077,0.44756-0.38429,0.87601-0.509,1.33235
			c-0.25756,0.94244-0.6866,1.81545-1.02159,2.72374c-0.38007,1.03051-1.0553,1.90201-1.41409,2.9304
			c-0.12745,0.3653-0.21224,0.74537-0.3364,1.11196c-0.1052,0.31068-0.23301,0.61421-0.36158,0.91633
			c-0.23713,0.5572-0.36555,1.15552-0.7528,1.65694c-0.19623,0.25408-0.27899,0.60999-0.36418,0.93275
			c-0.18698,0.70848-0.51202,1.34817-0.9113,1.95333c-0.78469,1.18933-1.51051,2.4052-1.8417,3.81384
			c-0.03153,0.13412-0.09708,0.2644-0.16707,0.38469c-0.43439,0.74664-0.8982,1.47729-1.30478,2.2386
			c-0.28752,0.53837-0.49482,1.11915-0.74833,1.67628c-0.13849,0.30435-0.26451,0.62287-0.45518,0.89342
			c-0.63858,0.90611-0.92889,1.96918-1.34458,2.97089c-0.39734,0.9575-0.88844,1.84441-1.50172,2.67187
			c-0.09919,0.13383-0.22234,0.25951-0.28436,0.40965c-0.29692,0.71876-0.56713,1.44861-0.86854,2.1654
			c-0.08447,0.2009-0.24481,0.3694-0.36675,0.55513c-0.36826,0.56085-0.72606,1.11174-0.86495,1.80067
			c-0.09121,0.45247-0.35797,0.87561-0.57992,1.29395c-0.22183,0.41812-0.53838,0.79197-0.7186,1.22472
			c-0.25667,0.61631-0.42333,1.26984-0.6355,1.90509c-0.09541,0.28567-0.18136,0.57917-0.31742,0.84573
			c-0.49412,0.96809-0.97782,1.94117-1.70113,2.77419c-0.21334,0.2457-0.40104,0.56975-0.45841,0.88385
			c-0.15013,0.82202-0.59738,1.49654-0.96522,2.21416c-0.26728,0.52145-0.51783,1.05163-0.76723,1.58196
			c-0.04625,0.09835-0.07533,0.21673-0.07188,0.32457c0.02752,0.86047-0.31327,1.63535-0.52484,2.44485
			c-0.33942,1.2987-0.59781,2.60917-0.44137,3.98132c0.07457,0.65411-0.04866,1.336-0.12522,2.00035
			c-0.05526,0.4795-0.07678,0.94362,0.05998,1.4134c0.31217,1.07236,0.40207,2.20126,0.8518,3.24072
			c0.39697,0.91749,0.95555,1.63682,1.80142,2.24084c0.93214,0.66563,1.93514,1.07446,2.98837,1.42691
			c1.27326,0.42609,2.55153,0.83718,3.82524,1.26193c0.18439,0.06149,0.34914,0.18418,0.53464,0.2393
			c0.15175,0.04508,0.37157,0.1032,0.47317,0.03123c0.35543-0.25177,0.76068-0.1282,1.12508-0.22038
			c0.81124-0.20522,1.63233-0.42219,2.39466-0.75846c1.22366-0.53977,2.41016-1.1663,3.59703-1.78555
			c0.39281-0.20495,0.76828-0.46682,1.09977-0.76114c0.94085-0.83533,1.86655-1.68461,2.90515-2.40381
			c0.34125-0.23631,0.61209-0.5718,0.93117-0.84308c0.85-0.72267,1.70874-1.43507,2.56383-2.15174
			c0.0214-0.01794,0.04689-0.03469,0.06038-0.05787c0.51471-0.88509,1.33959-1.48476,2.03157-2.20643
			c0.23141-0.24132,0.46018-0.48933,0.71789-0.70043c0.63963-0.52396,1.01923-1.25472,1.51821-1.88806
			c0.87955-1.11641,1.76853-2.22317,2.71217-3.28588c0.09277-0.10448,0.19064-0.20657,0.2688-0.32156
			c0.59652-0.87766,1.18165-1.76316,1.78493-2.63613c0.36533-0.52863,0.75644-1.03947,1.13662-1.55782
			c0.08253-0.11253,0.21532-0.2119,0.24437-0.33617c0.21749-0.93023,0.93858-1.57129,1.35498-2.38885
			c0.41626-0.8173,0.93114-1.58435,1.4026-2.37354c0.04306-0.0721,0.07154-0.15835,0.12915-0.21548
			c0.77223-0.76579,1.18043-1.7522,1.68102-2.68985c0.43383-0.81261,0.98381-1.56252,1.46625-2.35005
			c0.40819-0.66633,0.80029-1.3428,1.1867-2.02208c0.52475-0.92245,1.0536-1.84323,1.5498-2.78106
			c0.37867-0.71569,0.74242-1.44309,1.05165-2.19057c0.28673-0.69308,0.60302-1.38946,0.60135-2.1679
			c-0.00012-0.05511,0.0061-0.11681,0.03066-0.16447c0.51874-1.00661,0.60116-2.14813,0.99478-3.19618
			c0.40192-1.07013,0.71346-2.17386,1.09805-3.25095c0.31003-0.8682,0.66928-1.71886,1.00872-2.5765
			c0.03078-0.07777,0.10134-0.14645,0.1114-0.22474c0.17789-1.38504,1.05017-2.53539,1.32999-3.87431
			c0.26005-1.24439,0.76658-2.39714,1.22838-3.55737c0.40417-1.01548,0.71199-2.05215,1.05392-3.08326
			c0.21893-0.66016,0.49046-1.30869,0.8006-1.93145c0.47694-0.95772,0.69691-1.99891,1.05345-2.9949
			c0.15032-0.4199,0.30138-0.83982,0.46584-1.25429c0.25793-0.65006,0.53955-1.29087,0.78976-1.9438
			c0.61957-1.61685,1.26102-3.22653,1.82915-4.86151c0.50428-1.45124,1.10736-2.86533,1.5107-4.35728
			c0.26739-0.98898,0.74529-1.92347,1.15572-2.87074c0.58815-1.35746,1.19779-2.70566,1.80515-4.05471
			c0.13758-0.30559,0.28755-0.60791,0.45917-0.8954c0.55861-0.93581,1.07777-1.88921,1.45994-2.91412
			c0.09663-0.2591,0.25208-0.49726,0.39016-0.73952c0.08293-0.14552,0.22933-0.2686,0.26974-0.42215
			c0.14523-0.55192,0.52538-0.97572,0.76155-1.46937c0.63869-1.33512,1.66129-2.37086,2.56609-3.50048
			c0.40229-0.50222,0.80334-1.00559,1.19532-1.51586c0.4435-0.57738,0.96127-0.77875,1.69312-0.5251
			c0.60873,0.21099,1.20736,0.42507,1.78956,0.70579c0.72047,0.34739,0.89486,0.98923,0.91463,1.66485
			c0.01951,0.66603-0.07825,1.33905-0.1661,2.00351c-0.0657,0.49701-0.20671,0.98358-0.29691,1.47796
			c-0.08003,0.43857-0.09521,0.8928-0.21283,1.31978c-0.16862,0.61211-0.13448,1.25908-0.38435,1.85748
			c-0.33736,0.80793-0.43128,1.6781-0.52176,2.5382c-0.06827,0.64901-0.21291,1.26017-0.48349,1.85511
			c-0.40483,0.89024-0.78738,1.79145-1.14867,2.70024c-0.14342,0.36084-0.19096,0.75858-0.30592,1.13221
			c-0.27988,0.90965-0.67468,1.77205-1.08267,2.6308c-0.42207,0.88837-0.5733,1.86373-0.84051,2.80204
			c-0.10609,0.37248-0.25583,0.73636-0.42198,1.08695c-0.22594,0.47672-0.42325,0.98701-0.74487,1.39448
			c-0.81588,1.03371-0.86952,2.33534-1.31708,3.49561c-0.14722,0.38167-0.1721,0.80947-0.26711,1.21284
			c-0.03796,0.16111-0.09728,0.32236-0.17582,0.46793c-0.58376,1.08177-1.18339,2.15506-1.75823,3.24149
			c-0.16833,0.31815-0.28281,0.66654-0.40438,1.00735c-0.30857,0.86508-0.5253,1.77436-0.93047,2.59065
			c-0.50623,1.01984-1.12217,1.99358-1.77347,2.92969c-0.35537,0.51076-0.60359,1.05887-0.84646,1.61205
			c-0.26868,0.61197-0.49622,1.24852-0.66799,1.89397c-0.09662,0.36306-0.22885,0.68461-0.44722,0.98003
			c-0.03331,0.04506-0.06264,0.09314-0.09728,0.1371c-0.41599,0.52795-0.39622,1.25039-0.89101,1.77875
			c-0.44556,0.4758-0.67603,1.1469-1.03966,1.70701c-0.55071,0.84834-0.92732,1.77754-1.33255,2.69539
			c-0.06647,0.15057-0.19514,0.27237-0.27805,0.41721c-0.24986,0.43642-0.51382,0.86693-0.72992,1.31994
			c-0.23031,0.48284-0.44527,0.96619-0.86555,1.32266c-0.08407,0.0713-0.16267,0.15934-0.2158,0.25517
			c-0.35235,0.63565-0.73756,1.2573-1.03513,1.91815c-0.4921,1.09284-0.95128,2.19958-1.37215,3.3256
			c-0.27035,0.7233-0.34398,1.45695-0.52106,2.18228c-0.15828,0.64832-0.34277,1.29027-0.51623,1.93487
			c-0.02176,0.08081-0.07133,0.16212-0.06682,0.24084c0.05577,0.9723-0.40943,1.84982-0.50825,2.78773
			c-0.12273,1.16487-0.2151,2.33267-0.36391,3.49551c-0.04189,0.32741,0.06496,0.67166,0.04336,1.00427
			c-0.056,0.86258-0.1478,1.72279-0.22097,2.5843c-0.06432,0.75735-0.04247,1.50579,0.15131,2.25054
			c0.08229,0.31623,0.06551,0.65852,0.0911,0.98918c0.08627,1.11438-0.00797,2.22949,0.01586,3.34338
			c0.0082,0.38364,0.15868,0.76237,0.2216,1.14705c0.23469,1.43469,0.44731,2.87313,0.69358,4.30579
			c0.15089,0.87784,0.29521,1.76291,0.5406,2.61653c0.20718,0.72073,0.54885,1.40374,0.84336,2.0982
			c0.32593,0.76852,0.73225,1.49628,1.19702,2.18813c0.16904,0.25163,0.36357,0.51651,0.60965,0.6806
			c0.94096,0.62737,1.56756,1.57739,2.42194,2.29484c0.62835,0.52765,1.23907,1.04477,2.06838,1.21239
			c0.05431,0.01097,0.11607,0.0223,0.15734,0.05496c0.59756,0.47282,1.34819,0.50428,2.03354,0.72787
			c0.41612,0.13576,0.75971,0.04901,1.13083-0.10202c0.80019-0.32564,1.60731-0.63416,2.41136-0.95031
			c0.12846-0.05051,0.27749-0.0773,0.38015-0.16051c1.49789-1.21402,3.05975-2.33578,4.69127-3.36526
			c0.39292-0.24792,0.7228-0.61091,1.04181-0.95765c0.66286-0.7205,1.26929-1.49464,1.95304-2.19382
			c1.07503-1.09924,1.95657-2.33278,2.72762-3.6544c0.12662-0.21703,0.26704-0.42868,0.42296-0.6255
			c0.79994-1.0099,1.42762-2.12923,2.07885-3.23434c0.12703-0.21556,0.28025-0.41898,0.44282-0.60976
			c0.69306-0.81335,1.21628-1.72596,1.6423-2.70264c0.16641-0.38153,0.35999-0.75877,0.5942-1.10179
			c0.78533-1.15023,1.60009-2.2803,2.39149-3.42646c0.25347-0.36706,0.45503-0.76978,0.70541-1.13918
			c0.51791-0.7641,1.09097-1.49342,1.57065-2.28014c0.58102-0.95295,1.0942-1.94762,1.62671-2.92968
			c0.35917-0.66242,0.7196-1.32528,1.04649-2.00383c0.56997-1.18311,1.11822-2.37672,1.66882-3.56905
			c0.73853-1.59927,1.52792-3.1784,2.18639-4.81018c0.47995-1.18941,1.08377-2.32381,1.46942-3.55933
			c0.32362-1.03683,0.84383-2.01151,1.26336-3.01938c0.37595-0.90314,0.73351-1.81394,1.09843-2.72167
			c0.02084-0.05186,0.0214-0.11739,0.05426-0.15808c0.53192-0.65844,0.58369-1.49474,0.83399-2.25613
			c0.27953-0.8503,0.61978-1.66887,1.01375-2.47543c0.28974-0.59317,0.40586-1.27074,0.60342-1.90943
			c0.40482-1.30871,0.82262-2.61348,1.2151-3.92583c0.25542-0.85402,0.46551-1.72151,0.71425-2.57763
			c0.28797-0.99108,0.57107-1.98481,0.90253-2.96169c0.32213-0.94938,0.69373-1.87899,0.96852-2.84801
			c0.31886-1.12442,0.80564-2.202,1.11024-3.32944c0.2532-0.93707,0.67445-1.83674,0.71423-2.82883
			c0.00332-0.08297,0.01724-0.16944,0.04604-0.2469c0.51004-1.37096,0.66883-2.82907,1.0543-4.23064
			c0.05908-0.21477,0.15424-0.41938,0.22616-0.63091c0.06287-0.18489,0.15865-0.37099,0.16727-0.55986
			c0.04753-1.04256,0.37049-2.02913,0.56709-3.04147c0.23369-1.20333,0.3242-2.4344,0.47849-3.65322
			c0.07721-0.60998,0.17139-1.21812,0.23406-1.82953c0.06835-0.66681,0.11743-1.33592,0.15998-2.00498
			c0.06385-1.0036,0.11514-2.00802,0.17083-3.01215c0.02168-0.39075,0.07728-0.78381,0.05434-1.17209
			c-0.07269-1.23025-0.01845-2.45782,0.00755-3.68719c0.00933-0.44105-0.07915-0.89356-0.18406-1.32603
			c-0.50774-2.09316-1.06915-4.17116-1.97211-6.13728c-0.11281-0.24564-0.16857-0.47696-0.04062-0.72121
			c0.2851-0.54419,0.52404-1.12301,0.87939-1.61761c0.6317-0.87919,1.32838-1.71249,2.01492-2.55104
			c0.17406-0.21262,0.4407-0.34943,0.6151-0.56185c0.31681-0.3859,0.59148-0.80608,0.89365-1.20443
			c0.1348-0.1777,0.29668-0.33459,0.44073-0.50562c0.17845-0.21191,0.36804-0.41717,0.52318-0.64542
			c0.49409-0.72697,1.16087-0.87426,1.8499-0.35677c0.57977,0.43542,1.21039,0.79065,1.78101,1.25071
			c0.49483,0.39895,0.78746,0.86082,0.99887,1.4043c0.27342,0.70295,0.49341,1.42655,0.74106,2.13964
			c0.22118,0.6368,0.37848,1.28177,0.43893,1.95966c0.04691,0.52602,0.19333,1.04472,0.31458,1.56223
			c0.26503,1.13115,0.28841,2.27074,0.20021,3.42483c-0.05325,0.69654-0.0162,1.39971-0.0289,2.09971
			c-0.01413,0.77889,0.04478,1.56224-0.20062,2.32554c-0.06596,0.20517-0.0406,0.444-0.03566,0.66691
			c0.01801,0.81183-0.00252,1.61929-0.20705,2.41178c-0.02092,0.08101-0.05383,0.16918-0.04063,0.24718
			c0.21333,1.26079-0.34909,2.46717-0.25513,3.72484c0.03024,0.40498-0.10316,0.82553-0.18327,1.23475
			c-0.23109,1.18044-0.45049,2.36391-0.71928,3.53593c-0.16823,0.73352-0.41759,1.44841-0.62994,2.17183
			c-0.06259,0.21328-0.1508,0.42347-0.1799,0.64138c-0.16264,1.21868-0.54228,2.38013-0.89555,3.55045
			c-0.16083,0.53273-0.2574,1.08488-0.38232,1.62841c-0.03055,0.13292-0.04625,0.27042-0.08879,0.39922
			c-0.27055,0.81913-0.63287,1.61944-0.79805,2.4588c-0.1844,0.93703-0.47118,1.83537-0.76202,2.73535
			c-0.29025,0.89817-0.63963,1.77707-0.94336,2.67112c-0.19684,0.5794-0.44756,1.16102-0.51334,1.75931
			c-0.08552,0.77813-0.44249,1.43475-0.70381,2.13837c-0.2623,0.70625-0.49986,1.42232-0.72707,2.14079
			c-0.25273,0.79921-0.4834,1.60545-0.72031,2.40963c-0.30064,1.02042-0.59498,2.0427-0.89898,3.0621
			c-0.06356,0.2131-0.1541,0.41851-0.23788,0.62516c-0.3986,0.98314-0.80347,1.96376-1.19496,2.9497
			c-0.07081,0.17834-0.07761,0.38106-0.13481,0.56607c-0.08936,0.28907-0.16805,0.58672-0.30128,0.85599
			c-0.49426,0.99899-1.03065,1.97765-1.50526,2.98558c-0.18819,0.39968-0.23153,0.865-0.38485,1.28432
			c-0.2298,0.62849-0.50444,1.24042-0.74918,1.86364c-0.36646,0.93313-0.71899,1.87175-1.08708,2.80421
			c-0.12296,0.3115-0.26941,0.61427-0.41565,0.91591c-0.33942,0.70008-0.6984,1.39098-1.02435,2.09718
			c-0.2673,0.57906-0.39026,1.22083-0.85114,1.71466c-0.16001,0.17148-0.18721,0.46183-0.29364,0.68922
			c-0.54386,1.16205-1.07579,2.33022-1.64725,3.47863c-0.47229,0.94916-0.99555,1.87289-1.4922,2.81002
			c-0.10426,0.19677-0.19468,0.40124-0.28425,0.60531c-0.05615,0.12799-0.06737,0.28872-0.15264,0.38885
			c-0.61086,0.71709-0.80328,1.6506-1.27937,2.43642c-0.47899,0.79053-0.97102,1.57471-1.41083,2.38688
			c-0.29533,0.54533-0.65883,1.0136-1.0804,1.468c-0.35226,0.3797-0.56281,0.89117-0.83337,1.34592
			c-0.028,0.04705-0.0213,0.12247-0.05741,0.15585c-0.53711,0.49635-0.64477,1.22539-0.99301,1.82369
			c-0.34862,0.59895-0.50072,1.30747-1.01269,1.81664c-0.0378,0.0376-0.07193,0.09595-0.07647,0.1474
			c-0.08258,0.93855-0.74842,1.61271-1.09856,2.42947c-0.0328,0.07648-0.07542,0.15386-0.13116,0.21458
			c-0.52551,0.57241-0.7772,1.26183-0.95817,2.00772c-0.07242,0.29857-0.37077,0.54189-0.56466,0.81152
			c-0.22618,0.3145-0.45833,0.62511-0.67307,0.9473c-0.1393,0.20898-0.21822,0.4663-0.38319,0.64858
			c-0.46442,0.51314-0.92724,1.00807-1.21338,1.66491c-0.26604,0.61069-0.61895,1.19054-0.98861,1.74745
			c-0.55041,0.8292-0.97815,1.72668-1.73766,2.43761c-0.59332,0.55536-1.19445,1.18653-1.43917,2.03332
			c-0.04299,0.14882-0.19868,0.26276-0.29195,0.39989c-0.15623,0.22971-0.30671,0.46348-0.45496,0.69846
			c-0.23675,0.37521-0.42303,0.79411-0.71297,1.12167c-0.86899,0.98177-1.77176,1.93401-2.67378,2.88601
			c-0.43987,0.46426-1.03555,0.78088-1.33924,1.37382c-0.36368,0.71004-0.98714,1.19514-1.48986,1.78514
			c-0.34084,0.40001-0.60388,0.87074-0.87172,1.32743c-0.35537,0.6059-0.76327,1.14362-1.35651,1.55267
			c-0.52546,0.36234-0.98605,0.81773-1.48463,1.22046c-0.37861,0.30582-0.83121,0.44368-1.29807,0.56563
			c-0.42842,0.11191-0.85809,0.25401-1.25323,0.45094c-0.77596,0.38675-1.51186,0.85585-2.29575,1.224
			c-0.60178,0.28262-1.24958,0.46892-1.88113,0.68575c-0.31734,0.10893-0.65073,0.1727-0.96446,0.29001
			c-0.24961,0.09334-0.47765,0.13251-0.7273,0.01022c-0.09375-0.04591-0.22287-0.07922-0.31809-0.05319
			c-0.89465,0.24455-1.76686,0.02995-2.648-0.09444c-1.83646-0.25922-3.5015-0.99583-5.06789-1.92439
			c-0.83134-0.49281-1.53883-1.20113-2.27968-1.83839c-0.93914-0.80783-1.7429-1.75597-2.44867-2.75984
			c-0.60586-0.86176-1.15226-1.80256-1.52367-2.78454c-0.9122-2.41187-1.43204-4.93192-1.7869-7.4856
			c-0.09586-0.68987-0.30392-1.36871-0.34954-2.05994c-0.07331-1.11063-0.30821-2.21738-0.14434-3.33921
			c0.016-0.10945,0.01689-0.22517,0.00122-0.3346c-0.27513-1.92095-0.18454-3.85703-0.2394-5.78693
			c-0.00713-0.25068,0.01019-0.50518,0.04653-0.75346c0.18239-1.24599,0.13345-2.50233,0.18013-3.75431
			C59.71317,101.06564,59.70502,100.96163,59.70061,100.78307z"/>
	</g>
</g>
</svg>
