<?xml version="1.0" encoding="utf-8"?>
<!-- Generator: Adobe Illustrator 25.4.1, SVG Export Plug-In . SVG Version: 6.00 Build 0)  -->
<svg version="1.1" id="Layer_1" xmlns="http://www.w3.org/2000/svg" xmlns:xlink="http://www.w3.org/1999/xlink" x="0px" y="0px"
	 viewBox="0 0 284.40012 188.99892" style="enable-background:new 0 0 284.40012 188.99892;" xml:space="preserve">
<style type="text/css">
	.st0{fill:#EFEDE5;}
	.st1{fill:#B48039;}
	.st2{fill:#AD8246;}
	.st3{fill:none;stroke:#B48039;stroke-width:0.99892;stroke-miterlimit:10;}
</style>
<g id="Bittercube-Flavors-02_00000091719540278315963430000003576470409257843646_">
	<g>
		<path class="st1" d="M252.66284,103.59682c-0.68066,0.4118-1.31026,0.89026-1.77892,1.56149
			c-0.68831,0.98582-1.28732,2.04755-2.07063,2.95c-0.94978,1.09424-2.04271,2.06583-3.09067,3.07281
			c-0.99319,0.95434-1.9626,1.91216-2.43951,3.26072c-0.09279,0.26242-0.40128,0.451-0.61673,0.66719
			c-1.33957,1.34408-2.68942,2.67802-4.01892,4.03197c-0.94008,0.95738-1.85915,1.93568-2.77675,2.91479
			c-0.64665,0.68999-1.25726,1.41436-1.91544,2.09283c-1.36298,1.40502-2.76277,2.77451-4.11682,4.18796
			c-0.93307,0.974-1.89104,1.91988-3.03171,2.64067c-1.55748,0.98422-3.14043,1.92975-4.88368,2.56836
			c-1.69537,0.62109-3.4182,0.43706-5.14337,0.19798c-0.2758-0.03821-0.54314-0.13428-0.81642-0.19431
			c-0.67395-0.14801-1.23509-0.47392-1.72873-0.96448c-1.70721-1.69655-2.67758-3.83752-3.62556-5.98647
			c-0.48627-1.10228-0.2798-2.32063-0.44696-3.4789c-0.06735-0.46669-0.14589-0.93225-0.19516-1.40086
			c-0.02571-0.24454-0.02992-0.49963,0.00929-0.7413c0.20175-1.24339,0.43767-2.48135,0.63013-3.72608
			c0.38625-2.49812,1.21748-4.87844,1.89464-7.29999c0.22568-0.80702,0.38161-1.6338,0.61481-2.43839
			c0.34828-1.20155,0.74985-2.3876,1.10373-3.58762c0.25691-0.87119,0.33742-1.77294,0.50119-2.66044
			c-0.06924-0.0402-0.13849-0.0804-0.20773-0.12061c-0.30875,0.25703-0.65129,0.48299-0.92082,0.77608
			c-1.86423,2.02724-3.34966,4.32144-4.66576,6.72912c-0.71635,1.31053-1.62552,2.47403-2.60954,3.58843
			c-0.96242,1.08991-1.86032,2.21693-2.58534,3.49799c-0.55461,0.97994-1.3331,1.8344-2.02309,2.73621
			c-0.76439,0.99906-1.51732,2.00841-2.31897,2.97707c-0.99794,1.20588-2.04301,2.37268-3.0623,3.56101
			c-0.25473,0.29701-0.50638,0.59961-0.7289,0.92081c-0.71927,1.03828-1.55101,1.96929-2.52028,2.78236
			c-0.51367,0.43089-0.97981,0.91837-1.49294,1.34996c-0.46739,0.3931-0.94295,0.78841-1.46246,1.1046
			c-0.66707,0.40601-1.40787,0.69179-2.07065,1.10379c-1.68712,1.04877-4.98389,0.09396-5.78082-2.12294
			c-0.29541-0.82179-0.89296-1.5351-1.35385-2.2972c-0.12943-0.21401-0.29367-0.41261-0.3895-0.64037
			c-0.58195-1.38297-1.04517-2.82742-1.74629-4.14591c-0.91684-1.72419-1.09207-3.5527-1.18488-5.43197
			c-0.05267-1.06654,0.0258-2.10202,0.21922-3.15943c0.27615-1.5097,0.37575-3.05195,0.54478-4.58095
			c0.11331-1.02497,0.16328-2.06007,0.33531-3.07475c0.32126-1.89495,0.70563-3.77933,1.07336-5.66623
			c0.31021-1.59174,0.62643-3.1824,0.95453-4.77054c0.22038-1.06671,0.45319-2.13132,0.70912-3.18994
			c0.06905-0.28571,0.24261-0.54614,0.41684-0.92349c-0.49147,0.07635-0.60558,0.40942-0.79514,0.64899
			c-0.9841,1.24378-1.95526,2.49806-2.95549,3.72873c-0.73848,0.90863-1.54173,1.76547-2.2616,2.68795
			c-0.32036,0.41055-0.4791,0.94295-0.75861,1.39043c-0.9718,1.55585-2.31563,2.7972-3.53192,4.14781
			c-0.78238,0.86881-1.47456,1.80122-2.10213,2.8052c-0.85564,1.36884-1.89597,2.62725-2.90929,3.89118
			c-1.13934,1.42119-2.5096,2.62396-3.80219,3.90189c-1.17085,1.15757-2.22374,2.43791-3.29097,3.69608
			c-1.64943,1.94455-3.41096,3.77029-5.37755,5.39959c-0.66409,0.55018-1.2773,1.16688-1.87566,1.78977
			c-0.52026,0.5416-0.96219,1.15891-1.4874,1.69511c-0.26477,0.27028-0.63159,0.4445-0.96239,0.64554
			c-1.36108,0.82716-2.68588,1.72697-4.10197,2.4467c-1.1884,0.60399-2.47522,1.02309-3.73949,1.46373
			c-0.37964,0.13231-0.83096,0.09337-1.2475,0.07834c-0.9261-0.0334-1.82127-0.02466-2.72775,0.30412
			c-1.04353,0.37846-2.17273,0.2567-3.24818,0.11005c-1.63519-0.22298-3.26527-0.5349-4.77975-1.23833
			c-0.47827-0.22215-0.90921-0.54398-1.37338-0.79918c-0.95501-0.52507-1.97585-0.95317-2.86201-1.57465
			c-1.00017-0.70143-1.88708-1.56573-2.81329-2.37067c-0.46155-0.4011-0.91704-0.81174-1.34718-1.2459
			c-1.28827-1.30029-2.19118-2.88634-3.08382-4.45123c-0.51551-0.9037-0.77834-1.97722-1.01926-3.00607
			c-0.39394-1.68243-0.67478-3.39127-1.0106-5.08753c-0.03653-0.18437-0.12142-0.35918-0.22959-0.66961
			c-0.28155,0.26673-0.52681,0.44345-0.70081,0.67397c-0.62231,0.82446-1.20914,1.67571-1.83219,2.49959
			c-0.35292,0.46667-0.76049,0.89159-1.12549,1.34962c-0.71346,0.89525-1.41522,1.79984-2.12012,2.70189
			c-0.58479,0.74835-1.13969,1.52205-1.75652,2.24288c-1.10571,1.29209-2.27686,2.52894-3.36294,3.8368
			c-0.54926,0.66142-1.01967,1.40108-1.44067,2.153c-0.53761,0.96022-1.39594,1.58911-2.17318,2.30696
			c-0.55461,0.51221-1.13776,0.99568-1.6683,1.53145c-1.4076,1.42143-3.09473,2.48813-4.73868,3.57695
			c-1.29863,0.86012-2.82288,1.13611-4.42724,0.62047c-0.73091-0.23491-1.54729-0.19504-2.3205-0.30959
			c-0.85577-0.12682-1.70713-0.28427-2.55923-0.43506c-0.51922-0.09189-1.0407-0.17741-1.55329-0.29895
			c-1.21871-0.28899-2.44083-0.56921-3.64459-0.91258c-0.47433-0.13528-0.89602-0.44594-1.35435-0.64798
			c-1.68687-0.74365-3.08009-1.9254-4.49485-3.06032c-0.5107-0.40968-0.88647-1.00459-1.27-1.55264
			c-1.18298-1.69052-1.98473-3.56026-2.43916-5.56729c-0.27744-1.22524-0.45582-2.47264-0.69698-3.70651
			c-0.10654-0.54528-0.25842-1.0817-0.43118-1.79297c-0.37249,0.30967-0.72827,0.49427-0.92381,0.78621
			c-1.18054,1.76258-2.34465,3.53694-3.4753,5.33192c-1.36061,2.16009-3.05345,3.98286-5.24459,5.31242
			c-1.45689,0.88403-2.97776,1.67082-4.38361,2.62805c-0.99048,0.67441-2.08069,1.08762-3.14572,1.57433
			c-1.3075,0.59752-2.70632,0.87436-4.12812,1.03242c-0.86224,0.09586-1.72699,0.23747-2.59054,0.23697
			c-1.14287-0.00066-2.29353-0.05919-3.42638-0.20511c-1.24335-0.16017-2.47911-0.40977-3.70145-0.69261
			c-0.92162-0.21326-1.81511-0.54636-2.72475-0.81384c-0.40153-0.11807-0.82316-0.17413-1.21656-0.31259
			c-1.87061-0.65848-3.74197-1.31613-5.59867-2.01239c-1.46358-0.54884-2.88623-1.21191-4.36358-1.71758
			c-1.63913-0.56104-3.31935-1.0023-4.98251-1.49288c-0.53679-0.15835-1.071-0.33015-1.61544-0.45683
			c-1.41802-0.32991-2.84002-0.6257-4.31066-0.34192c-0.46651,0.09002-0.94128,0.15877-1.41516,0.18496
			c-1.34497,0.07433-2.29697,0.71394-2.90301,1.90934c-0.0971,0.1915-0.2579,0.37868-0.43644,0.49605
			c-0.80035,0.52614-1.26373,1.32909-1.78739,2.08777c-0.68128,0.98706-1.36832,1.97052-2.07461,2.9397
			c-0.26919,0.36937-1.17195,0.48883-1.65574,0.26843c-0.38731-0.17644-0.52717-0.62296-0.39113-1.25143
			c0.28104-1.29819,0.55748-2.5974,0.84908-3.8932c0.04195-0.18642,0.13993-0.36699,0.24156-0.53206
			c0.4811-0.78139,0.70818-1.64278,0.80291-2.54243c0.06952-0.66,0.33365-1.22673,0.68793-1.78143
			c0.39021-0.61095,0.68184-1.28463,1.0683-1.89832c0.26327-0.41809,0.60247-0.79173,0.93122-1.1645
			c0.49541-0.56175,0.9972-1.11929,1.52219-1.65318c0.66572-0.67702,1.3715-1.31487,2.03187-1.99686
			c0.32566-0.33631,0.63027-0.70848,0.87109-1.10855c0.70579-1.17242,1.67184-2.08913,2.72198-2.94041
			c0.45247-0.36676,0.8879-0.76696,1.27075-1.2047c0.95394-1.09077,1.83371-2.24832,2.81568-3.31223
			c1.57179-1.70305,3.23519-3.32195,4.79632-5.03432c1.0719-1.17567,2.02058-2.46276,3.05549-3.67343
			c0.46693-0.54618,0.98896-1.05042,1.52209-1.53388c1.623-1.47186,3.03384-3.11287,4.17373-4.99068
			c0.41877-0.68982,0.92903-1.32392,1.39344-1.98632c0.27159-0.3874,0.53469-0.78073,0.80237-1.17089
			c0.07777-0.11338,0.14144-0.24295,0.24002-0.33443c0.54458-0.50523,1.13715-0.96491,1.63822-1.50927
			c0.60499-0.6573,1.15259-1.37026,1.69343-2.08309c0.99396-1.31007,1.96366-2.63853,2.94563-3.9577
			c1.134-1.52332,2.25352-3.05783,3.4119-4.56238c0.69603-0.904,1.46168-1.7541,2.1813-2.64037
			c0.33424-0.41163,0.65192-0.83978,0.93928-1.28486c0.11236-0.17406,0.12099-0.4151,0.2077-0.74178
			c-0.5602-0.04501-1.04704-0.09563-1.5352-0.11972c-0.38989-0.01923-0.78595-0.04536-1.17142-0.00071
			c-1.75666,0.20345-3.50044-0.22759-5.27394-0.00684c-1.71336,0.21327-3.46254,0.15366-5.19653,0.18122
			c-1.17229,0.01862-2.34546-0.02695-3.51828-0.0293c-0.72679-0.00145-1.45394,0.04376-2.18039,0.0322
			c-0.69733-0.0111-1.39476-0.05708-2.0907-0.10754c-2.13705-0.15497-4.268-0.40842-6.41197,0.00549
			c-0.61894,0.11949-1.28289,0.03134-1.92451,0.00153c-0.86388-0.04016-1.28806-0.61891-0.97153-1.43741
			c0.51175-1.3233,1.0798-2.62683,1.67452-3.91541c0.50307-1.09,1.11225-2.1313,1.60796-3.22432
			c0.30824-0.67972,0.83295-0.98532,1.49867-1.05186c2.81552-0.28143,5.64515-0.45366,8.46368-0.18809
			c2.82443,0.26613,5.64084,0.16559,8.45855,0.05928c1.64691-0.06213,3.28627-0.30703,4.93192-0.43127
			c0.49564-0.03741,1.00065,0.07139,1.50207,0.08306c0.86817,0.0202,1.73707,0.00856,2.60536,0.02535
			c1.28651,0.02487,2.57273,0.08296,3.8592,0.08705c0.6645,0.00211,1.32965-0.07683,1.99379-0.12855
			c0.39061-0.03042,0.78708-0.14796,1.16826-0.10739c1.29967,0.13831,1.98252-0.68476,2.63564-1.59117
			c0.29172-0.40485,0.58345-0.81305,0.91196-1.18744c1.34618-1.53412,2.7072-3.05521,4.06073-4.5829
			c0.14816-0.16722,0.28802-0.34239,0.42352-0.52013c0.53935-0.70735,1.07181-1.41992,1.61356-2.1254
			c0.65713-0.85567,1.30982-1.71523,1.98849-2.55362c0.22344-0.27602,0.56087-0.46087,0.77891-0.73997
			c0.79105-1.01257,1.54061-2.05759,2.33274-3.06929c0.36015-0.46,0.81875-0.84407,1.16879-1.31054
			c0.4331-0.57711,0.79318-1.2085,1.19727-1.80805c0.32679-0.48488,0.68192-0.95073,1.00679-1.43684
			c0.51131-0.76507,1.01824-1.53359,1.50243-2.31588c0.10757-0.17379,0.11282-0.41092,0.18411-0.69409
			c-0.26568-0.01828-0.45522-0.06754-0.63104-0.03719c-0.80045,0.13816-1.59383,0.31909-2.3959,0.44556
			c-0.82615,0.13026-1.65678,0.25445-2.4902,0.31151c-1.47833,0.10123-2.95984,0.18954-4.44087,0.20634
			c-0.9992,0.01134-2.00158-0.0896-2.99952-0.17518c-1.83717-0.15755-3.67042-0.2971-5.44825-0.89181
			c-0.69473-0.2324-1.49258-0.18982-2.24506-0.20867c-1.17788-0.02951-2.32006-0.18642-3.47453-0.46249
			c-1.15918-0.27721-2.37984-0.36379-3.57755-0.39905c-2.23997-0.06594-4.46175-0.23389-6.66816-0.64261
			c-0.73229-0.13565-1.49067-0.16045-2.23809-0.17162c-0.35218-0.00526-0.7516,0.06275-1.05159,0.23413
			c-0.87132,0.49777-1.81891,0.74185-2.7834,0.90574c-1.19774,0.20353-2.09768,0.9343-2.95976,1.66724
			c-0.5121,0.4354-0.78509,1.14378-1.2011,1.70299c-0.3329,0.44749-0.71462,0.85931-1.08358,1.27913
			c-0.30256,0.34431-0.67589,0.51438-1.12558,0.325c-0.51076-0.21507-0.42176-0.6752-0.37999-1.08797
			c0.02481-0.24509,0.09906-0.49017,0.18384-0.72334c0.44879-1.23458,0.90646-2.46596,1.36477-3.69705
			c0.09743-0.26164,0.20011-0.52227,0.3177-0.77531c0.54004-1.16208,1.0479-2.34121,1.63836-3.47731
			c1.15495-2.22226,2.91736-3.81464,5.26292-4.68811c1.01651-0.37855,2.14511-0.46272,3.15105-0.86159
			c1.95744-0.77618,3.9264-0.35333,5.89278-0.22799c1.44855,0.09233,2.89052,0.39767,4.33609,0.40216
			c2.32029,0.00721,4.56065,0.4901,6.82212,0.87469c0.2481,0.04219,0.50117,0.103,0.74902,0.0916
			c1.62432-0.07468,3.15509,0.41422,4.71197,0.75175c0.43667,0.09467,0.88173,0.1534,1.3248,0.21513
			c2.1916,0.30533,4.38838,0.62746,6.60568,0.50083c2.25978-0.12905,4.53413-0.16495,6.75298-0.71408
			c0.40558-0.10037,0.82742-0.1493,1.2449-0.18505c1.95765-0.16767,3.80655-0.61097,5.36775-1.91273
			c0.22401-0.18679,0.66315-0.32052,0.91518-0.23136c0.85107,0.30108,1.76939,0.44453,2.49126,1.09072
			c0.57642,0.516,0.57615,0.66172,0.05582,1.24255c-0.88936,0.99274-1.85944,1.90281-2.51064,3.12205
			c-0.69306,1.29756-1.53148,2.52734-2.55474,3.62178c-0.50814,0.54347-0.86887,1.22734-1.28046,1.85801
			c-1.53903,2.35813-3.04216,4.74041-4.61974,7.07236c-0.71718,1.06017-1.57765,2.02328-2.37069,3.03235
			c-0.08562,0.10895-0.16042,0.22754-0.23061,0.34731c-0.70916,1.21003-1.67325,2.22398-2.53841,3.31445
			c-0.91742,1.15629-1.79734,2.3426-2.72601,3.48959c-0.82349,1.01705-1.70557,1.98653-2.53541,2.99864
			c-0.70904,0.86472-1.3984,1.7471-2.0602,2.6483c-0.27056,0.36843-0.44573,0.80695-0.72389,1.32444
			c0.91394,0.16799,1.64592-0.0313,2.38245-0.09265c0.29485-0.02457,0.59558,0.00552,0.89257,0.02603
			c0.77635,0.05363,1.55151,0.12664,2.32832,0.17116c0.69524,0.03984,1.39198,0.05416,2.08817,0.07594
			c1.81956,0.05695,3.63928,0.15779,5.4587,0.15326c1.50861-0.00377,3.00806-0.00441,4.49629,0.28233
			c0.29951,0.05771,0.62572,0.09395,0.92052,0.03846c1.1068-0.20837,1.88851,0.52048,2.90019,0.86091
			c-0.3064,0.76753-0.53931,1.41404-1.1713,1.9352c-0.46797,0.38587-0.71717,1.03949-1.05566,1.57895
			c-0.17451,0.27814-0.32551,0.57097-0.49809,0.85038c-0.10273,0.16631-0.31696,0.31462-0.32582,0.47937
			c-0.04224,0.78473-0.65495,1.20421-1.0548,1.75936c-0.08154,0.11322-0.23061,0.21758-0.24142,0.3358
			c-0.09823,1.07581-1.03747,1.29858-1.76195,1.68484c-0.39459,0.21038-0.91064,0.25863-1.37333,0.26434
			c-2.12521,0.02626-4.25116,0.02952-6.37639,0.0042c-1.03251-0.0123-2.06383-0.14809-3.09611-0.15345
			c-2.45586-0.01275-4.91201,0.01797-7.36802,0.03303c-0.98013,0.006-1.96034,0.00996-2.94028,0.02817
			c-0.67154,0.01249-1.34347,0.08081-2.01372,0.06396c-0.67873-0.01706-1.19899,0.27653-1.62086,0.74456
			c-0.44598,0.49473-0.83584,1.04013-1.24828,1.56493c-0.06853,0.08717-0.10854,0.20723-0.19305,0.26975
			c-1.35128,0.99963-2.11359,2.51104-3.22393,3.72333c-0.87949,0.96024-1.57959,2.08447-2.36367,3.13265
			c-0.13322,0.17809-0.2928,0.3362-0.43223,0.50996c-0.38168,0.47563-0.76832,0.94772-1.13634,1.43385
			c-0.82442,1.08891-1.63791,2.1861-2.45742,3.27873c-0.55207,0.73605-1.10513,1.47138-1.66086,2.20467
			c-0.84393,1.11365-1.69389,2.22273-2.53519,3.33836c-1.07677,1.42787-2.08084,2.91757-3.24394,4.2709
			c-0.79743,0.92786-1.72339,1.74828-2.42939,2.76222c-1.00631,1.4453-1.98726,2.90933-3.03139,4.3268
			c-0.52654,0.71472-1.15291,1.35896-1.76151,2.00945c-0.97262,1.03955-1.96731,2.05847-2.95411,3.08475
			c-0.50253,0.52264-1.03446,1.01991-1.50339,1.57098c-0.32344,0.38008-0.51076,0.87987-0.84799,1.24354
			c-0.81602,0.87991-1.68075,1.71493-2.53484,2.55894c-0.13386,0.13227-0.31486,0.21682-0.47407,0.32343
			c0.02597,0.06908,0.05197,0.13818,0.07796,0.20726c0.18886,0.07407,0.37264,0.16704,0.56738,0.21929
			c1.83744,0.49299,3.68423,0.95287,5.51309,1.47555c1.39566,0.39887,2.78166,0.84008,4.14893,1.3271
			c1.12916,0.4022,2.21827,0.91542,3.33645,1.35027c1.84935,0.71919,3.66182,1.53984,5.62175,1.95273
			c0.73433,0.15469,1.44315,0.43375,2.16019,0.6666c2.54422,0.82622,5.15459,1.32177,7.82464,1.39733
			c2.05601,0.05817,4.09667-0.2379,6.02131-0.96526c1.2185-0.46048,2.35879-1.14086,3.50581-1.77392
			c1.12608-0.62149,2.22303-1.29697,3.32087-1.9682c1.87229-1.14469,3.34196-2.70703,4.53046-4.52958
			c0.47158-0.72314,0.80032-1.53776,1.22993-2.29027c0.78769-1.37959,1.59751-2.74669,2.41254-4.11036
			c0.07693-0.12869,0.24635-0.21633,0.39025-0.28815c0.42223-0.21065,0.84781-0.41658,1.28242-0.59985
			c0.40225-0.16964,0.5834-0.48214,0.70334-0.88004c0.27464-0.91123,0.54754-1.8248,0.87344-2.71834
			c0.49851-1.36662,1.01232-2.72916,1.57249-4.07138c0.68842-1.64965,1.37895-3.3023,2.16639-4.90562
			c0.67401-1.37234,1.28095-2.77639,2.09332-4.08896c0.89569-1.44727,1.59612-3.01405,2.41621-4.5098
			c0.81812-1.49215,1.67607-2.96255,2.52244-4.4391c0.53971-0.94152,1.08495-1.87998,1.6393-2.81293
			c0.14216-0.23924,0.33449-0.44811,0.49309-0.67828c0.4874-0.70731,0.95479-1.42894,1.45906-2.12389
			c0.3426-0.47215,0.7627-0.88876,1.09789-1.36552c0.75525-1.07426,1.45882-2.18513,2.2234-3.25249
			c0.50058-0.69883,1.08-1.34068,1.60643-2.02172c0.25379-0.3283,0.44616-0.70432,0.70237-1.03042
			c0.60102-0.76498,1.21421-1.52093,1.84082-2.26509c0.4684-0.5563,0.96476-1.08909,1.4504-1.6308
			c0.09283-0.10354,0.18056-0.21887,0.29293-0.29659c1.67208-1.15665,3.17375-2.49829,4.63084-3.92142
			c0.94181-0.91983,2.08355-1.69492,3.37837-2.14848c0.31556-0.11054,0.6243-0.25202,0.91728-0.41359
			c1.82463-1.00618,3.77155-1.47262,5.8585-1.52737c2.30405-0.06046,4.50233,0.4691,6.70125,1.01307
			c0.58604,0.14497,1.13879,0.46624,1.67446,0.76471c1.31615,0.73333,2.61991,1.48966,3.91415,2.26106
			c0.35543,0.21185,0.66672,0.50113,0.98567,0.76981c0.36306,0.30586,0.74989,0.59539,1.05988,0.95013
			c0.84386,0.96574,1.41647,2.72909,0.12174,3.92213c-0.27792,0.25608-0.36905,0.52502-0.38686,0.87879
			c-0.04913,0.97721-0.09908,1.9558-0.20161,2.92825c-0.04301,0.40799-0.22205,0.80116-0.33455,1.20238
			c-0.37019,1.32024-0.73708,2.6414-1.10919,3.9611c-0.02995,0.10627-0.08891,0.20455-0.13611,0.30575
			c-0.66088,1.4172-1.29892,2.84572-1.99196,4.24702c-0.40691,0.82274-0.82142,1.66301-1.37325,2.3883
			c-1.1357,1.49269-1.89956,3.22064-3.13466,4.66073c-0.69407,0.80924-1.38602,1.58509-2.19418,2.27886
			c-0.741,0.63614-1.41172,1.35425-2.11221,2.03747c-1.54102,1.50301-3.20658,2.851-4.97246,4.08315
			c-1.4439,1.00748-2.86336,2.05122-4.27244,3.10718c-2.67278,2.00296-5.45325,3.81618-8.59686,5.00713
			c-0.31303,0.11858-0.63473,0.23319-0.9627,0.29003c-1.40292,0.24315-2.81023,0.46066-4.21485,0.69416
			c-0.78233,0.13004-1.25327-0.33051-1.04987-1.12701c0.12889-0.50457,0.35613-1.00295,0.63365-1.44482
			c0.23275-0.37057,0.37881-0.72654,0.4039-1.16172c0.03974-0.68978,0.23089-1.29739,0.88438-1.70384
			c0.3158-0.19643,0.65459-0.49995,0.78041-0.8318c0.4481-1.18177,1.56035-1.23876,2.50007-1.59904
			c0.36082-0.13832,0.71641-0.29804,1.08754-0.40009c0.77906-0.2142,1.56647-0.39828,2.35136-0.59097
			c0.18983-0.0466,0.38161-0.09693,0.5753-0.11436c1.91885-0.17268,3.56258-1.08807,5.22328-1.94688
			c0.31112-0.1609,0.53833-0.47724,0.83949-0.66544c1.39193-0.86983,2.79632-1.71975,4.19624-2.57681
			c0.07137-0.04368,0.15279-0.07662,0.21264-0.1326c1.34504-1.25793,2.7494-2.48122,3.61115-4.14099
			c0.70576-1.3594,1.35082-2.75989,1.89635-4.19036c0.61593-1.61508,1.13082-3.27225,1.6172-4.93235
			c0.74203-2.53262,0.84255-5.07209-0.11024-7.59156c-0.22948-0.60681-0.66733-1.02338-1.15082-1.41315
			c-1.12408-0.90613-2.44143-1.34325-3.84503-1.53085c-1.2466-0.1666-2.49893-0.3522-3.75235-0.38317
			c-0.79118-0.01955-1.62206,0.13052-2.37595,0.38189c-1.08537,0.3619-2.16776,0.79671-3.15678,1.36508
			c-0.93488,0.53725-1.77219,1.25755-2.6071,1.95184c-0.83578,0.695-1.64011,1.43246-2.41378,2.19633
			c-1.11048,1.09644-2.23305,2.18855-3.24968,3.36929c-0.68293,0.79321-1.1337,1.78285-1.79053,2.60275
			c-1.24267,1.55122-2.25311,3.25482-3.13652,5.00846c-0.49635,0.98534-1.21485,1.79851-1.70135,2.76492
			c-0.35004,0.69534-0.64497,1.41848-0.96194,2.13036c-0.06744,0.15152-0.07973,0.36237-0.19228,0.45344
			c-0.81015,0.65572-1.03506,1.63931-1.45715,2.51384c-0.32687,0.67714-0.67886,1.34211-1.01781,2.01343
			c-1.0197,2.0195-1.95682,4.07262-2.53781,6.26962c-0.16386,0.61967-0.29773,1.2373-0.69254,1.78297
			c-0.20109,0.27792-0.24483,0.68099-0.32144,1.03577c-0.35339,1.6366-0.67953,3.27921-1.0456,4.9129
			c-0.12764,0.56967-0.35657,1.11589-0.5126,1.68018c-0.17101,0.61845-0.26344,1.2252-0.11474,1.89108
			c0.16858,0.75486,0.15102,1.54957,0.24777,2.32278c0.06863,0.54813,0.1886,1.09013,0.29316,1.63342
			c0.11581,0.60178,0.24921,1.20026,0.35891,1.80311c0.19807,1.08865,0.67636,2.07209,1.20993,3.01659
			c0.39491,0.69914,0.92278,1.32419,1.4042,1.97276c0.13205,0.17789,0.29414,0.34222,0.46958,0.4776
			c0.90523,0.69845,1.79117,1.42752,2.74039,2.06118c0.5988,0.39973,1.26733,0.75824,1.95615,0.94726
			c1.66751,0.45758,3.35132,0.89138,5.05577,1.16589c1.09155,0.1758,2.2373,0.12664,3.34828,0.04159
			c1.34076-0.10265,2.37383-0.92366,3.39335-1.7239c0.83258-0.65352,1.67739-1.29149,2.51489-1.93877
			c1.31056-1.01289,2.49964-2.15777,3.53432-3.44665c1.45001-1.80627,2.84619-3.65568,4.2782-5.47657
			c0.32654-0.41525,0.67284-0.82787,1.07353-1.16658c0.20874-0.17648,0.56295-0.27935,0.83899-0.25758
			c0.6107,0.04819,0.96699-0.25464,1.35847-0.66051c1.20761-1.25199,2.28731-2.60259,3.25436-4.04319
			c0.90108-1.34234,1.77881-2.70055,2.6545-4.05969c1.05814-1.64233,2.09184-3.30046,3.15733-4.93795
			c1.09669-1.68545,2.22298-3.35158,3.32603-5.03291c0.19891-0.3032,0.32973-0.65067,0.52428-0.95719
			c0.3133-0.49363,0.63844-0.98129,0.98553-1.45157c0.66344-0.8989,1.34229-1.78651,2.02153-2.67363
			c0.54099-0.70663,1.09763-1.40131,1.63676-2.10934c0.38925-0.51118,0.7451-1.04828,1.14368-1.55177
			c1.40605-1.77615,2.84918-3.52352,4.22929-5.31944c1.02063-1.32812,2.05077-2.66261,2.91965-4.08986
			c0.88222-1.44914,2.13068-2.56493,3.16006-3.87407c0.74217-0.9439,1.47229-1.89802,2.23938-2.82133
			c0.49783-0.59918,1.06735-1.13822,1.57887-1.72671c1.37256-1.57912,2.71574-3.184,4.10016-4.75256
			c1.14928-1.30212,2.37019-2.53135,3.78802-3.55562c1.24997-0.90302,2.53665-1.73972,3.95399-2.35167
			c1.25517-0.54193,2.53093-1.03594,3.79289-1.5624c0.66862-0.27894,1.33516-0.56529,1.98849-0.87787
			c1.01692-0.48654,2.03336-0.45444,3.09457-0.14127c1.09587,0.32341,2.24052,0.50478,3.13374,1.30753
			c0.10342,0.09291,0.23163,0.15773,0.33905,0.2468c0.86856,0.72021,0.91083,1.19848,0.12738,2.01791
			c-0.94324,0.98659-1.9165,1.94441-2.86745,2.92374c-0.75131,0.77377-1.48839,1.56136-2.23204,2.34255
			c-0.62283,0.65429-1.34641,0.86257-2.21236,0.52989c-0.19975-0.07675-0.42995-0.07427-0.78345-0.12984
			c-0.05913,1.38329-0.12354,2.70824-0.1693,4.03383c-0.02501,0.72377-0.07025,1.4526-0.01517,2.17216
			c0.10858,1.41858,0.282,2.83217,0.42618,4.24806c0.16148,1.58575,0.35425,3.16927,0.47134,4.75833
			c0.1357,1.84162,0.18533,3.68947,0.30992,5.53207c0.0544,0.80452,0.2148,1.6013,0.30511,2.40407
			c0.19653,1.74638,0.39394,3.49289,0.56012,5.24229c0.07115,0.74921,0.0784,1.50551,0.09158,2.25899
			c0.02586,1.47707,0.1008,2.95757,0.03049,4.43068c-0.05293,1.10884-0.2464,2.21994-0.47839,3.30849
			c-0.19666,0.92256-0.51369,1.82271-0.82373,2.71673c-0.21849,0.62996-0.49631,1.24158-0.78026,1.84606
			c-0.40317,0.85821-0.96709,1.6647-1.22534,2.56152c-0.3647,1.26665-1.14714,2.28098-1.72476,3.41659
			c-0.79556,1.56416-1.70959,3.05425-2.69943,4.50124c-0.2495,0.36472-0.451,0.76226-0.57672,1.28726
			c0.20439-0.08627,0.44533-0.12932,0.60707-0.26604c0.83163-0.703,1.68967-1.38403,2.45163-2.15821
			c1.60788-1.63368,3.10863-3.37547,4.75548-4.96722c1.2052-1.16487,2.13683-2.50047,3.02995-3.89123
			c0.43666-0.68001,0.93074-1.32981,1.45517-1.94527c0.81482-0.95624,1.69762-1.85455,2.51314-2.81023
			c0.52266-0.6125,0.97331-1.28619,1.4613-1.9286c1.16705-1.53635,2.30768-3.09396,3.51344-4.5994
			c1.48889-1.85898,2.84692-3.79117,3.88516-5.94575c0.38416-0.7972,0.88997-1.53873,1.37239-2.2849
			c0.60046-0.92874,1.2195-1.84637,1.85818-2.74923c0.49661-0.70198,1.05043-1.36339,1.54959-2.06366
			c0.25739-0.36108,0.45667-0.76448,0.6723-1.15423c0.37555-0.67872,0.73792-1.36475,1.11656-2.04172
			c0.24086-0.4306,0.5887-0.83389,0.22514-1.39017c0.76805-0.45988,1.32129-1.06453,1.70128-1.89616
			c0.28029-0.61345,0.84366-1.09261,1.24539-1.6569c0.40363-0.56697,0.76773-1.16245,1.13828-1.75228
			c0.06812-0.10841,0.0842-0.2495,0.16034-0.48869c-0.67657-0.05345-1.2795-0.11005-1.88362-0.14705
			c-1.56256-0.09569-3.12564-0.183-4.68852-0.27294c-0.25151-0.01448-0.50311-0.03333-0.75485-0.03658
			c-2.04092-0.02629-4.08228-0.03358-6.1226-0.08299c-0.61098-0.0148-1.22362-0.11935-1.82767-0.2268
			c-1.23729-0.2201-1.34854-1.0395-0.83447-2.00308c0.26651-0.49953,0.53062-0.96893,0.61749-1.52933
			c0.01694-0.10921,0.04813-0.22463,0.10451-0.31799c0.56053-0.92812,1.14354-1.84302,1.68721-2.78079
			c0.33502-0.57788,0.62614-1.1826,0.91335-1.78652c0.4738-0.99628,1.04037-1.25216,2.16008-1.13618
			c1.27373,0.13192,2.54102,0.31113,3.84453,0.13715c0.98302-0.1312,1.99962-0.0281,3.00064-0.00357
			c2.54005,0.06224,5.07988,0.13451,7.61942,0.21458c0.39001,0.0123,0.78233,0.06511,1.16594,0.13903
			c0.45993,0.08862,0.74774-0.0707,0.93974-0.49167c0.33672-0.73827,0.68544-1.47151,1.0481-2.19737
			c0.29922-0.59885,0.65897-1.1692,0.93159-1.77914c0.30713-0.68709,0.603-1.38867,0.80441-2.11163
			c0.47137-1.69187,1.29214-3.20407,2.16946-4.71059c0.58749-1.00886,1.00912-2.11869,1.45761-3.20293
			c0.48187-1.16493,1.04758-2.27132,1.72369-3.3426c0.57582-0.91236,0.9498-1.95405,1.3925-2.94769
			c0.22684-0.50913,0.3922-1.04546,0.61438-1.55689c0.42265-0.97301,0.9243-1.91587,1.28526-2.9104
			c0.39058-1.076,1.05243-1.97342,1.71054-2.86994c0.42635-0.58077,0.99294-1.05918,1.50079-1.57943
			c0.87863-0.90007,1.72618-1.83428,2.65073-2.68464c0.90182-0.82945,1.87341-1.58483,2.8349-2.34684
			c0.45787-0.36288,0.93597-0.2954,1.3773,0.08389c0.46635,0.40077,0.95831,0.77352,1.4062,1.19358
			c0.68858,0.64581,0.75958,1.4042,0.47591,2.29932c-0.45338,1.43051-1.25026,2.67562-1.96301,3.96913
			c-0.06754,0.12258-0.16359,0.23513-0.20508,0.36549c-0.37474,1.1772-1.00157,2.23064-1.55095,3.32781
			c-1.12637,2.24953-2.12051,4.56519-3.17432,6.85122c-0.16367,0.35507-0.31261,0.72826-0.54036,1.04055
			c-1.19505,1.63861-1.99907,3.49356-2.96489,5.2593c-0.41518,0.759-0.97807,1.44051-1.36084,2.2132
			c-0.76884,1.55204-1.40514,3.17112-2.20415,4.70631c-0.4716,0.90611-1.14767,1.70626-1.73825,2.54954
			c-0.09531,0.13609-0.23836,0.23849-0.33533,0.37369c-0.38884,0.54218-0.26793,0.92833,0.37778,1.01139
			c0.62857,0.08084,1.27155,0.05489,1.90839,0.0652c1.53798,0.02491,3.07959-0.014,4.61314,0.0801
			c1.73253,0.10631,3.45848,0.2434,5.19296,0.06079c0.38892-0.04095,0.78299-0.04669,1.17461-0.04548
			c0.94875,0.00292,1.90154,0.07975,2.84517,0.01585c1.28322-0.08689,2.24547,0.55269,3.18945,1.25382
			c0.40874,0.30358,0.37178,0.57626,0.07434,0.98273c-0.22621,0.30914-0.42029,0.655-0.56026,1.01139
			c-0.33185,0.8449-0.71669,1.61337-1.52934,2.1378c-0.37154,0.23976-0.58813,0.7121-0.89514,1.06126
			c-0.38359,0.43623-0.79398,0.8488-1.18161,1.28159c-0.39238,0.43807-0.7916,0.87258-1.1497,1.33798
			c-0.31728,0.41234-0.71474,0.56364-1.21832,0.63174c-0.94469,0.12775-1.8797,0.02015-2.81967,0.00492
			c-0.63976-0.01036-1.28043,0.07584-1.92137,0.09165c-0.88992,0.02195-1.78059,0.03026-2.67073,0.02207
			c-0.72487-0.00667-1.44983-0.03796-2.17404-0.073c-1.08266-0.05238-2.16464-0.16277-3.24704-0.16441
			c-1.033-0.00156-2.0658,0.1132-3.09947,0.15887c-0.41486,0.01833-0.84056,0.03967-1.24602-0.02978
			c-0.83472-0.14298-1.43631,0.14677-1.80486,0.88457c-0.32393,0.64853-0.58165,1.32993-0.89961,1.98169
			c-0.31706,0.64988-0.67722,1.27859-1.00999,1.92098c-0.30742,0.59349-0.60699,1.19113-0.90375,1.79005
			c-0.25778,0.52026-0.5143,1.04142-0.757,1.56879c-0.16325,0.35473-0.32433,0.71342-0.44688,1.08342
			c-0.49031,1.48032-1.01013,2.93912-1.62976,4.38065c-0.63844,1.48525-1.22757,3.05514-1.39186,4.71358
			c-0.01105,0.11148-0.01051,0.22816-0.04501,0.33263c-0.40088,1.2141-0.80806,2.42613-1.2121,3.63921
			c-0.08835,0.26522-0.19751,0.52707-0.25185,0.79951c-0.5191,2.60374-1.07309,5.20168-1.52623,7.81702
			c-0.34795,2.00837-0.65448,4.03249-0.81078,6.06259c-0.11252,1.46152-0.02924,2.95298,0.12366,4.41467
			c0.09726,0.92983,0.54103,1.81799,0.72304,2.7457c0.25095,1.27913,0.80734,2.43543,1.35602,3.58693
			c0.33031,0.69324,0.86182,1.29355,1.32475,1.91946c0.24831,0.33572,0.54324,0.6369,0.8163,0.95439
			c0.29216,0.33968,0.65816,0.44193,1.05774,0.25197c0.94676-0.45007,2.04689-0.63252,2.71194-1.58485
			c0.15314-0.21925,0.44826-0.33353,0.64874-0.52654c0.78177-0.75259,1.57141-1.47029,2.12846-2.45418
			c0.44438-0.78493,1.15791-1.43758,1.82603-2.07079c0.90463-0.85732,1.63536-1.83014,2.24727-2.90515
			c0.68217-1.19846,1.58025-2.22587,2.49544-3.2507c0.64795-0.72557,1.19458-1.54758,1.73811-2.35889
			c0.65395-0.97611,1.22231-2.01031,1.8907-2.97576c0.74554-1.0769,1.56805-2.10027,2.345-3.15582
			c0.4474-0.60785,0.89708-1.21676,1.29961-1.85432c0.75874-1.20174,1.46109-2.43944,2.23346-3.63203
			c0.36206-0.55903,0.86293-1.02658,1.24585-1.57408c0.46109-0.65931,0.84491-1.37225,1.29602-2.03906
			c0.65385-0.96648,1.3484-1.90541,2.00426-2.87059c0.26581-0.39116,0.46391-0.82763,0.71278-1.23116
			c1.17053-1.89787,2.32823-3.80419,3.53653-5.67783c0.31183-0.48354,0.79469-0.85555,1.19121-1.28599
			c0.58748-0.63773,1.00146-1.38455,1.45322-2.1228c1.07347-1.75423,1.85049-3.68755,3.19769-5.28186
			c0.3253-0.38499,0.51529-0.9202,0.65659-1.41784c0.37094-1.30635,0.85658-2.52406,1.8398-3.52044
			c0.49998-0.50667,0.84779-1.15991,1.30377-1.7145c0.5446-0.66235,1.11339-1.30718,1.70508-1.92778
			c0.55646-0.58367,1.16135-1.12094,1.73296-1.69064c0.1144-0.11401,0.23051-0.27487,0.25053-0.42669
			c0.09259-0.70264,0.57961-1.13818,1.05293-1.56723c0.19101-0.17313,0.48955-0.22601,0.73659-0.33925
			c0.54951-0.25189,1.14523-0.43859,1.6339-0.77865c0.61766-0.42984,1.35042-0.57908,1.99017-0.15135
			c0.39105,0.26145,0.752,0.59029,1.06175,0.94532c0.39763,0.45575,0.33891,1.12451-0.16147,1.48973
			c-1.22263,0.89238-1.88957,2.17503-2.60143,3.44891c-0.65057,1.16425-1.40282,2.27125-2.09062,3.41528
			c-0.49953,0.83087-0.9538,1.68893-1.45255,2.52029c-0.49997,0.83334-1.03754,1.64403-1.54463,2.47321
			c-0.40558,0.6632-0.78101,1.34486-1.18796,2.00719c-0.20326,0.33081-0.44179,0.64062-0.67348,0.95318
			c-1.00172,1.35132-1.76826,2.82867-2.42761,4.37335c-0.51414,1.20453-1.06815,2.39552-1.67236,3.55722
			c-0.71474,1.37424-1.147,2.84837-1.67166,4.29229c-0.39032,1.07425-0.87292,2.11465-1.29631,3.17735
			c-0.18568,0.46607-0.34543,0.94467-0.48242,1.42738c-0.16719,0.58915-0.26134,1.2007-0.45251,1.78101
			c-0.36575,1.11018-0.76714,2.20908-1.17401,3.30515c-0.32094,0.86456-0.63518,1.71581-0.7093,2.65788
			c-0.09288,1.18044-0.68109,2.23524-1.00917,3.35464c-0.42134,1.43758-1.25519,2.7446-1.28384,4.31708
			c-0.01175,0.64456-0.35257,1.27779-0.49805,1.92641c-0.25937,1.15646-0.61934,2.28734-0.40971,3.52184
			c0.15791,0.93001,0.15042,1.89394,0.15161,2.84285c0.00095,0.74792,0.17783,1.42599,0.48369,2.10014
			c0.3231,0.71212,0.60616,1.44543,0.85812,2.186c0.26909,0.79089,0.71027,1.42479,1.52979,1.65699
			c1.57719,0.44686,3.17966,0.78772,4.7312-0.07376c1.44139-0.80029,2.88626-1.60204,4.26949-2.49615
			c0.71928-0.46494,1.33543-1.10368,1.95152-1.71122c1.51144-1.4905,2.98924-3.01508,4.49413-4.51232
			c0.67012-0.66673,1.38226-1.29111,2.05626-1.95409c0.27719-0.27267,0.57378-0.56189,0.74245-0.90256
			c0.97862-1.97637,2.66603-3.34471,4.12808-4.90867c0.72478-0.77529,1.46068-1.55122,2.09033-2.40179
			c0.94606-1.27802,1.78366-2.63581,2.70918-3.92979c0.30614-0.42803,0.69658-0.77296,0.69502-1.36546
			c-0.00035-0.13134,0.24423-0.28271,0.39917-0.39209c1.5103-1.06633,2.77937-2.42124,3.67914-3.98131
			c0.82851-1.43654,1.79277-2.76967,2.82433-4.01482c1.30151-1.57097,2.11838-3.40357,3.22964-5.06837
			c0.7691-1.15218,1.4798-2.34248,2.2468-3.49879c0.94788-1.42896,1.80103-2.9208,2.43811-4.5428
			c0.68311-1.7392,1.491-3.44316,2.40332-5.07359c0.58344-1.04269,1.1745-2.07994,1.73889-3.13483
			c0.29803-0.55701,0.8092-0.99615,1.18729-1.51534c0.3259-0.44755,0.59009-0.93951,0.8988-1.40026
			c0.40012-0.59711,0.81595-1.18372,1.22864-1.7723c0.06348-0.09054,0.1889-0.15656,0.2135-0.25245
			c0.19626-0.76465,0.73706-1.13969,1.44681-1.36179c0.14111-0.04416,0.24341-0.21779,0.35938-0.33588
			c0.37311-0.37994,0.72403-0.77528,1.33908-0.75655c0.16254,0.00496,0.41315-0.12865,0.48245-0.26846
			c0.41318-0.83333,1.27869-1.06608,1.98779-1.43721c1.23523-0.64649,3.05655,0.35231,3.31494,1.73783
			c0.04581,0.24556-0.04742,0.55996-0.17734,0.7841c-0.14944,0.25787-0.40665,0.45514-0.62473,0.67102
			c-0.57858,0.57282-1.04767,1.15984-1.27838,2.0102c-0.23547,0.86794-0.82501,1.63599-1.2272,2.46348
			c-0.54947,1.13041-1.00507,2.31128-1.6196,3.40375c-0.53018,0.94253-1.23877,1.78333-1.84488,2.68499
			c-0.4187,0.62292-0.82797,1.25617-1.18619,1.91486c-0.49408,0.90852-0.98911,1.8232-1.38754,2.77548
			c-0.55066,1.31623-1.08191,2.63404-1.94431,3.78714c-0.0495,0.06618-0.10019,0.14393-0.11383,0.22261
			c-0.21259,1.22634-0.96411,2.18308-1.56467,3.22294c-0.50143,0.86828-0.92474,1.78777-1.31418,2.71337
			c-0.70407,1.67347-1.36935,3.36362-2.02869,5.05544c-1.17813,3.02294-2.33606,6.05373-3.5098,9.07837
			c-0.67719,1.74499-1.37836,3.4807-2.05106,5.22739c-0.58957,1.53078-1.18195,3.06158-1.71793,4.61143
			c-0.24509,0.70876-0.31873,1.47521-0.53796,2.19482c-0.56186,1.84422-1.14656,3.68192-1.75298,5.51199
			c-0.28981,0.8746-0.65466,1.72414-0.97578,2.58865c-0.16405,0.44167-0.28152,0.90179-0.46318,1.33553
			c-0.78555,1.87558-1.56274,3.75529-2.39062,5.61229c-0.62421,1.40019-1.2585,2.80295-2.00563,4.13895
			c-0.55328,0.98935-1.32495,1.85393-1.9446,2.80956c-0.60504,0.93311-1.14967,1.90605-1.70435,2.87097
			c-0.62616,1.08929-1.25194,2.17952-1.8454,3.28674c-0.85545,1.59604-1.66347,3.21765-2.52902,4.80804
			c-0.35963,0.66078-0.80516,1.27621-1.22963,1.90002c-0.98994,1.45485-1.9595,2.92522-2.9996,4.34361
			c-0.57689,0.78674-1.29266,1.47025-1.92065,2.22133c-0.55447,0.66315-1.0722,1.35693-1.60974,2.03436
			c-0.29512,0.37195-0.57419,0.76041-0.90089,1.10291c-1.36977,1.43597-2.76497,2.84772-4.13005,4.28807
			c-0.71082,0.75002-1.36174,1.55666-2.06905,2.31017c-1.3105,1.39609-2.80194,2.58458-4.44664,3.55296
			c-1.73206,1.01981-3.49129,2.00317-5.29555,2.8862c-0.81123,0.397-1.7549,0.53658-2.64951,0.74571
			c-0.67166,0.15703-1.41269,0.03136-2.00362,0.51178c-0.04042,0.03288-0.1087,0.05981-0.15674,0.05075
			c-0.88443-0.16653-1.53976,0.40907-2.27991,0.70317c-1.26073,0.50093-2.55162,0.82187-3.92232,0.73688
			c-0.19293-0.01195-0.39317,0.00513-0.58284,0.04396c-1.75256,0.35876-3.49936,0.22261-5.26317,0.04904
			c-1.2188-0.1199-2.45898-0.02339-3.68962-0.02095c-0.30675,0.00061-0.62151,0.05928-0.91893,0.00958
			c-2.01619-0.33688-4.00758-0.75352-5.90427-1.56873c-0.73744-0.31696-1.56731-0.41176-2.33945-0.65694
			c-0.95741-0.30405-1.90004-0.65517-2.84637-0.99345c-0.6842-0.24461-1.35271-0.54022-2.04843-0.744
			c-1.12576-0.32971-2.04866-1.00363-2.99861-1.64244c-0.41701-0.2804-0.8232-0.62051-1.28709-0.77928
			c-1.30084-0.44518-2.16338-1.43655-3.15369-2.29623c-1.1396-0.9893-2.18199-2.0748-3.28391-3.08987
			c-1.34416-1.2382-2.30132-2.72121-3.37085-4.14754c-0.56491-0.7534-1.07767-1.54163-1.80672-2.188
			c-0.59282-0.52562-1.01973-1.26154-1.44037-1.95279c-0.6523-1.07199-1.39867-2.12886-1.80557-3.29652
			c-0.43275-1.24191-0.9613-2.50873-0.94916-3.86488c0.00517-0.57693,0.20261-1.1516,0.30606-1.72847
			c0.04417-0.2462,0.11938-0.49988,0.09695-0.74243c-0.05618-0.60713-0.26065-1.22238,0.26251-1.74306
			c0.0477-0.0475,0.05515-0.1658,0.03911-0.2424c-0.2403-1.14731,0.588-1.64177,1.32565-2.19858
			c0.1725-0.1302,0.35017-0.27725,0.46506-0.45549c0.31377-0.48679,0.51643-1.07184,0.91069-1.47292
			c0.43529-0.44284,1.03139-0.72932,1.56395-1.07385c0.18365-0.1188,0.41039-0.17857,0.57707-0.31471
			c0.75215-0.61433,1.49521-0.69949,2.30476-0.22029c0.65462,0.38748,1.08928,0.92021,1.25026,1.70001
			c0.13089,0.63402,0.17941,1.24805,0.16785,1.89993c-0.0291,1.64015,0.35297,3.22079,1.03386,4.71429
			c0.72142,1.58243,1.59039,3.05141,2.86513,4.29315c0.8526,0.83055,1.57043,1.82791,2.2175,2.83485
			c1.23943,1.9288,2.90633,3.45398,4.51967,5.03444c1.23228,1.20715,2.76666,1.97009,4.20053,2.89229
			c1.60628,1.03307,3.44783,1.42113,5.11905,2.24336c0.29353,0.14441,0.6525,0.24919,0.97267,0.22992
			c1.40166-0.08435,2.63124,0.51805,3.88722,0.96091c1.94466,0.6857,3.92326,1.12627,5.98483,1.14731
			c1.707,0.01743,3.41447-0.02893,5.1114,0.2332c0.32552,0.05028,0.66962-0.00734,1.00415-0.02998
			c1.0043-0.06799,2.01158-0.11287,3.01091-0.2265c0.65979-0.07501,1.32169-0.20651,1.95787-0.39594
			c0.90979-0.27089,1.78065-0.68158,2.69792-0.91594c1.10649-0.28268,2.23947-0.47382,3.36977-0.64737
			c0.94077-0.14445,1.74297-0.58498,2.55075-1.0322c0.17131-0.09485,0.32837-0.21538,0.49947-0.31067
			c0.72697-0.40483,1.42381-0.85057,2.17567-1.22699c2.66388-1.33365,4.83557-3.27284,6.48212-5.77924
			c0.36748-0.55937,0.81363-1.06721,1.17865-1.62801c0.42586-0.65425,0.84126-1.32095,1.19278-2.01682
			c0.86794-1.71828,1.68906-3.46013,2.54451-5.1848c0.44522-0.89761,0.9442-1.76889,1.3783-2.67159
			c0.23997-0.49901,0.34731-1.06354,0.60062-1.55402c0.46071-0.89212,0.9588-1.76782,1.49004-2.61996
			c0.83185-1.33432,1.42432-2.77692,2.02905-4.21873c0.55156-1.315,1.19814-2.5916,1.71436-3.91954
			c0.54387-1.39908,1.14294-2.77203,1.59853-4.21712c0.40501-1.28473,0.89511-2.57294,1.35072-3.85701
			c0.39055-1.10071,0.67314-2.23973,1.0036-3.36177c0.11819-0.40137,0.22395-0.80691,0.35712-1.20325
			c0.93459-2.78196,1.85753-5.56803,2.82185-8.33968c0.38451-1.10512,0.88016-2.17107,1.29613-3.2659
			c0.34586-0.91032,0.64299-1.83904,0.97449-2.75499c0.12357-0.34143,0.29433-0.66563,0.42235-1.00567
			c0.07257-0.19275,0.1021-0.40169,0.15102-0.60333C252.808,103.69118,252.73541,103.644,252.66284,103.59682z M153.08444,64.81082
			c-0.06377-0.05294-0.12752-0.10588-0.1913-0.15881c-0.27354,0.11259-0.59641,0.16679-0.8116,0.3485
			c-0.70004,0.59115-1.35895,1.23087-2.03694,1.84831c-1.26631,1.15321-2.38518,2.45477-3.33177,3.86171
			c-1.04726,1.55656-2.23589,2.99539-3.37114,4.47765c-1.54628,2.01888-3.15791,3.98775-4.74303,5.97685
			c-1.46249,1.83525-2.93222,3.66475-4.38754,5.50565c-0.46716,0.5909-0.95576,1.17667-1.33344,1.82379
			c-0.6066,1.03938-1.34065,1.97526-2.08749,2.91017c-0.6106,0.76438-1.20549,1.54585-1.74693,2.35992
			c-0.92776,1.39498-1.78713,2.83552-2.71759,4.22862c-0.47015,0.70393-0.9164,1.3952-0.98442,2.26652
			c-0.01286,0.16454-0.06313,0.3315-0.1246,0.48601c-0.25763,0.64774-0.59944,1.27238-0.77073,1.94125
			c-0.18451,0.72059-0.32572,1.48837-0.27853,2.22224c0.04932,0.76756,0.28052,1.54285,0.54677,2.27301
			c0.56192,1.54095,0.611,3.17918,0.99615,4.75035c0.0846,0.34518,0.19467,0.69875,0.36998,1.00431
			c0.52674,0.91807,1.04182,1.84979,1.65531,2.70917c0.62872,0.88069,1.31356,1.73664,2.07514,2.5027
			c0.72058,0.7248,1.54626,1.3549,2.37416,1.96045c0.85385,0.62452,1.75932,1.17998,2.65567,1.74428
			c0.4713,0.29671,3.3015,1.16172,6.5787,0.56184s8.14819-4.90894,8.58325-5.48645c0.36952-0.4905,0.74573-0.97746,1.08733-1.48717
			c0.62146-0.92725,1.31873-1.82202,1.80293-2.8185c0.6554-1.34875,1.25636-2.73853,1.56978-4.22326
			c0.16733-0.79267,0.40407-1.5825,0.45972-2.384c0.07143-1.02892,0.00896-2.06883-0.02588-3.103
			c-0.05075-1.50769-0.10373-3.01608-0.20213-4.52115c-0.07994-1.22298-0.20717-2.44398-0.35074-3.66145
			c-0.23201-1.96711-0.51994-3.92784-0.73557-5.8966c-0.14566-1.32973-0.21745-2.66799-0.30508-4.00357
			c-0.19038-2.90239-0.91501-5.74745-0.87442-8.67788c0.02937-2.12045-0.26639-4.24024-0.04498-6.36453
			c0.02881-0.27639,0.0168-0.56113-0.01083-0.83858c-0.10744-1.07899,0.05583-2.11465,0.43629-3.12643
			C152.93143,65.49696,152.99429,65.14876,153.08444,64.81082z"/>
	</g>
</g>
</svg>
