<?xml version="1.0" encoding="utf-8"?>
<!-- Generator: Adobe Illustrator 25.4.1, SVG Export Plug-In . SVG Version: 6.00 Build 0)  -->
<svg version="1.1" id="Layer_1" xmlns="http://www.w3.org/2000/svg" xmlns:xlink="http://www.w3.org/1999/xlink" x="0px" y="0px"
	 viewBox="0 0 1130.64331 214.1315" style="enable-background:new 0 0 1130.64331 214.1315;" xml:space="preserve">
<style type="text/css">
	.st0{fill:#EFEDE6;}
	.st1{fill:#EFEDE5;}
	.st2{fill:#B48039;}
	.st3{fill:#AD8246;}
	.st4{fill:none;stroke:#B48039;stroke-width:0.99892;stroke-miterlimit:10;}
	.st5{fill:#FF00FF;}
	.st6{fill:#00FFFF;}
	.st7{fill:#606060;}
	.st8{fill:#A7834F;}
</style>
<g>
	<path class="st8" d="M258.99072,132.57156c-1.03235,0.4632-1.59631,1.24104-2.1149,2.024
		c-1.50453,2.27151-3.30969,4.28728-5.14536,6.28777c-2.26453,2.46793-4.43849,5.01915-6.71063,7.4799
		c-1.89227,2.04945-3.89825,3.9937-5.79994,6.03479c-1.35603,1.45546-2.61392,3.00197-3.93248,4.49287
		c-0.79309,0.89679-1.62682,1.72702-2.76714,2.23106c-0.55727,0.24631-1.03951,0.72778-1.46936,1.1841
		c-1.15611,1.22729-2.40848,2.33342-3.85793,3.19415c-0.93257,0.55382-1.51076,1.30092-1.92302,2.32762
		c-0.80026,1.99319-1.77202,3.91774-2.67822,5.86819c-0.73894,1.59064-1.4389,3.20171-2.2403,4.76047
		c-1.16315,2.26233-2.3087,4.54295-3.63683,6.7084c-1.15633,1.88536-2.87732,3.38739-3.88852,5.39407
		c-1.94666,1.44115-3.25981,3.4816-4.91739,5.19595c-3.34015,3.45454-7.24577,6.24532-10.9408,9.28285
		c-0.304,0.24989-0.65367,0.50911-1.02316,0.60367c-2.07288,0.5305-3.63599,1.94466-5.38918,3.02971
		c-0.6748,0.41762-1.32903,0.90977-2.06128,1.18591c-2.5282,0.95348-5.0529,1.93123-7.69101,2.55554
		c-0.85262,0.20177-1.71106,0.45465-2.57751,0.50685c-1.9919,0.12003-3.97774,0.16783-5.89003,0.87024
		c-0.40152,0.14749-0.97249,0.07002-1.38649-0.09805c-1.13371-0.46036-2.30568-0.65369-3.50693-0.65636
		c-1.14708-0.00256-2.19557-0.31516-3.23218-0.76309c-0.72865-0.3149-1.47243-0.71346-2.2394-0.79587
		c-1.47964-0.15901-2.77571-0.72896-4.00543-1.47118c-2.51396-1.51733-5.29358-2.61993-7.43762-4.72202
		c-0.1691-0.16579-0.36505-0.32831-0.57947-0.41994c-1.86203-0.79549-2.9594-2.37949-4.03162-3.96106
		c-0.63586-0.93799-1.33711-1.79742-2.24504-2.4603c-3.25833-2.37894-2.90181-6.69081-1.38513-9.28345
		c1.36935-2.34079,2.76366-4.65643,3.75996-7.18974c0.14062-0.3575,0.41832-0.66423,0.6492-0.98242
		c0.41705-0.57486,1.00523-1.08353,1.2355-1.72298c0.38602-1.07208,1.2462-1.6291,2.03287-2.27759
		c0.62717-0.51697,1.31032-0.51711,1.97498-0.03438c0.38065,0.27654,0.70045,0.64304,1.02357,0.99139
		c0.94862,1.02272,1.30479,2.36665,1.84752,3.59677c0.20045,0.45428,0.07584,1.097-0.02299,1.63109
		c-0.63902,3.45152-0.63158,3.42867,1.95966,5.74196c0.94592,0.84448,1.81378,1.7841,2.65811,2.73291
		c1.39917,1.5723,3.02713,2.82059,4.91557,3.74612c0.85649,0.41977,1.65076,0.98412,2.53314,1.33006
		c2.80487,1.09972,5.62634,2.16998,8.65154,2.52c0.55334,0.06404,1.16858-0.05544,1.6579,0.14615
		c1.55396,0.64014,3.11319,0.243,4.68413,0.28346c3.8036,0.09798,7.17786-1.33833,10.63319-2.51389
		c0.96449-0.32816,1.82855-0.96523,2.71915-1.49352c1.30103-0.77174,2.60507-1.54192,3.86731-2.37422
		c0.7272-0.47954,1.39288-1.05896,2.05368-1.63106c1.02486-0.88716,1.96696-1.87866,3.04262-2.69646
		c1.97562-1.50208,3.28214-3.4781,4.1839-5.72322c0.86215-2.14651,1.68761-4.30122,2.73944-6.36858
		c0.42873-0.84265,0.66267-1.79221,0.92519-2.71028c1.40303-4.90611,2.72935-9.83495,4.19504-14.72209
		c1.28227-4.2758,2.76381-8.49165,4.06122-12.7632c0.81049-2.66859,1.44189-5.39153,2.15523-8.08966
		c0.65166-2.4648,1.32082-4.92514,1.94687-7.39642c0.14861-0.58655,0.57979-1.16678,0.13806-1.95457
		c-0.26448,0.16138-0.57108,0.2587-0.73965,0.46748c-0.60074,0.7439-1.28845,1.46043-1.70044,2.30566
		c-1.13994,2.33867-2.98586,4.12497-4.56017,6.12404c-0.69011,0.87637-1.47015,1.69553-2.0602,2.6344
		c-1.37035,2.18047-3.09419,4.04854-4.8801,5.87697c-0.89127,0.91249-1.69495,1.91142-2.59804,2.81117
		c-1.91797,1.91087-3.85405,3.80472-5.8221,5.66383c-1.97003,1.86098-3.9691,3.69246-5.9935,5.49414
		c-0.95015,0.84564-1.9906,1.58969-2.98831,2.3821c-2.20226,1.74907-4.86398,2.54364-7.52119,2.79591
		c-3.65799,0.34727-7.00908-0.70592-9.03523-4.15041c-1.85962-3.16145-3.52394-6.38393-4.13745-10.10939
		c-0.44141-2.6803-0.7979-5.35873-1.03249-8.0576c-0.2309-2.65654,0.34657-5.24399,0.83673-7.82326
		c0.46094-2.42522,1.08469-4.81935,1.62141-7.23056c0.02835-0.12732-0.08618-0.28647-0.15483-0.49285
		c-0.75548,0.12362-1.23758,0.6776-1.68358,1.19262c-1.51237,1.74644-3.02937,3.49402-4.44084,5.32129
		c-1.41859,1.83655-2.89169,3.59784-4.68697,5.08698c-0.6656,0.55206-1.2756,1.21257-1.76976,1.92197
		c-1.37379,1.97238-2.82668,3.85506-4.74426,5.34612c-0.56169,0.43671-1.06854,0.96745-1.51697,1.5226
		c-2.31696,2.8683-5.05444,5.30835-7.798,7.74457c-0.53671,0.47661-1.07655,0.9516-1.5869,1.4557
		c-1.47591,1.45786-3.00804,2.84732-4.70378,4.05016c-0.45453,0.3224-0.93048,0.63983-1.30611,1.04373
		c-1.24074,1.33414-2.74225,2.1364-4.52393,2.50134c-0.69225,0.14178-1.34715,0.47606-2.01169,0.74112
		c-3.28053,1.30852-6.65269,1.49995-10.0993,0.85735c-0.93707-0.17471-1.65313-0.55626-1.80285-1.61343
		c-0.12429-0.87762-0.69794-1.40587-1.47126-1.74521c-4.14255-1.81783-6.87441-5.06447-9.016-8.90523
		c-0.85386-1.53133-1.70547-3.06451-2.51991-4.6169c-0.40607-0.77394-0.76315-1.5787-1.07857-2.39421
		c-1.76637-4.56693-2.92852-9.27295-3.19946-14.17876c-0.08768-1.58794-0.28614-3.15851-0.27471-4.7652
		c0.04766-6.69185,1.31786-13.15302,3.43645-19.46364c1.78285-5.31065,4.42737-10.24061,6.8503-15.26962
		c1.07915-2.23999,2.44736-4.28159,3.81552-6.33623c0.61845-0.92879,1.27818-1.85107,1.73896-2.85871
		c0.61486-1.3446,1.54181-2.39124,2.58162-3.39825c1.48903-1.44209,2.94635-2.91968,4.36361-4.43237
		c1.54108-1.64481,3.30566-3.01208,5.18532-4.21917c3.28642-2.11055,6.60312-4.17599,9.94656-6.19497
		c1.70346-1.02866,3.4902-1.91989,5.24525-2.86213c0.35039-0.18809,0.71405-0.37822,1.095-0.47803
		c2.23946-0.58678,4.41539-1.31811,6.54625-2.25179c1.61404-0.70723,3.32457-0.2093,4.87737,0.4672
		c2.45654,1.07025,4.6003,2.56283,5.93198,4.99343c1.18732,2.16703,2.48135,4.28456,3.51886,6.52108
		c0.55902,1.20512,0.72758,2.60474,0.98222,3.93385c0.23979,1.2515,0.4021,2.52161,0.52748,3.79057
		c0.40919,4.14079-0.39656,8.0936-1.94115,11.91836c-0.1467,0.36322-0.41229,0.67819-0.62082,1.01672
		c-0.83591,1.35715-1.68279,2.70771-2.50356,4.07396c-1.02766,1.71056-2.05228,3.41991-3.39384,4.91437
		c-1.54131,1.717-2.84363,3.65052-4.65039,5.12682c-1.85603,2.65534-4.50455,4.50201-6.90282,6.57674
		c-2.04073,1.76539-4.40247,3.15447-7.06288,3.89126c-1.54295,0.42731-3.03268,0.95163-4.4007,1.82198
		c-0.51707,0.32899-1.16571,0.52885-1.77861,0.61489c-1.88962,0.26524-3.7877,0.48539-5.68901,0.64548
		c-0.96132,0.08092-1.88676,0.14635-2.76634,0.62319c-0.96685,0.52414-2.01713,0.36732-3.03166,0.11003
		c-0.64175-0.16274-0.97795-0.95705-0.63654-1.54726c0.64274-1.11124,1.46799-2.06783,2.61225-2.70407
		c0.06827-0.03798,0.16719-0.02969,0.22509-0.07623c2.83871-2.27955,6.44671-3.02868,9.53489-4.80373
		c0.96072-0.55221,1.93477-1.16739,2.70509-1.94862c2.34833-2.38158,4.795-4.66919,6.7953-7.38667
		c2.81342-3.82217,5.11734-7.90039,6.38269-12.48234c0.78658-2.84837,1.19885-5.777,0.63455-8.75065
		c-0.31171-1.64253-0.60054-3.28941-0.91403-4.93159c-0.32852-1.7207-1.48666-2.97583-2.47797-4.31725
		c-0.40918-0.55368-1.03987-0.70216-1.70549-0.70722c-1.78297-0.01355-3.25932,0.79865-4.51855,1.91815
		c-2.32153,2.06377-4.55664,4.22571-6.79832,6.3774c-0.44945,0.43137-0.79231,0.98286-1.14247,1.50691
		c-1.23924,1.85472-2.49442,3.70028-3.67633,5.59131c-0.79938,1.27901-1.50391,2.61887-2.21944,3.94842
		c-1.81317,3.36887-3.69273,6.70602-5.37656,10.13884c-0.87212,1.77795-1.47623,3.70504-2.04222,5.61199
		c-1.40875,4.74626-2.44524,9.57359-2.89512,14.51705c-0.24786,2.72399,0.08767,5.41225,0.44138,8.09566
		c0.51184,3.88335,1.30187,7.69572,2.82197,11.34291c1.2045,2.89005,2.79578,5.54758,4.48913,8.15749
		c1.15125,1.77441,2.93866,2.69733,4.84724,3.30923c1.21823,0.39058,2.55736,0.19098,3.77351-0.22498
		c1.20044-0.41054,2.38545-0.91364,3.49902-1.51982c1.81892-0.99017,3.57732-2.0929,5.04369-3.74457
		c1.2795,0.23322,2.21959-0.48953,3.04437-1.40562c2.50693-2.78453,4.99831-5.58305,7.49512-8.37669
		c0.58391-0.65335,1.1545-1.31898,1.74992-1.96162c1.40764-1.51921,2.85692-3.00121,4.22726-4.55305
		c0.62842-0.71164,1.20073-1.50522,1.63969-2.34467c0.78438-1.49989,1.77222-2.84158,2.88943-4.09129
		c1.76448-1.97368,3.29051-4.0997,4.45207-6.48791c1.19438-2.45559,2.68842-4.69368,4.79765-6.48472
		c0.86613-0.73551,1.47719-1.69516,1.80649-2.77803c0.78346-2.57616,2.34529-4.70226,3.91028-6.81352
		c2.23119-3.01006,4.60956-5.91258,6.79285-8.95589c0.96593-1.34647,1.67537-2.89404,2.37851-4.40737
		c0.77325-1.66418,1.56642-3.30895,2.5062-4.88799c1.51189-2.5404,2.65167-5.26255,3.79021-7.98339
		c0.33826-0.80834,0.64699-1.63716,1.0715-2.39965c0.93195-1.67374,1.88429-3.32493,2.42273-5.18874
		c0.26811-0.92804,0.85867-1.69787,1.61168-2.33321c2.19289-1.85013,4.27774-3.83052,6.69354-5.40904
		c0.59354-0.38782,1.08012-0.9359,1.63676-1.38436c0.60326-0.48606,1.0778-0.5057,1.75009-0.06302
		c0.79857,0.52584,1.59608,1.05722,2.35838,1.63341c1.44069,1.08894,1.851,2.27362,1.1978,3.99343
		c-0.76268,2.00783-1.66692,3.96228-2.52425,5.93356c-0.25388,0.5837-0.61896,1.12442-0.82698,1.72178
		c-0.84375,2.42342-2.14995,4.61501-3.33717,6.8698c-0.92796,1.76253-1.74275,3.58428-2.63107,5.36816
		c-0.81674,1.64017-1.69521,3.25008-2.49088,4.90015c-1.03865,2.15408-2.1078,4.29983-3.00919,6.51217
		c-1.23279,3.02565-3.01625,5.80812-3.92293,8.97321c-2.05721,3.52379-3.56538,7.30459-5.16499,11.04233
		c-0.3427,0.80066-0.70265,1.59741-0.98462,2.41997c-0.95663,2.79073-1.95972,5.56928-2.79189,8.39758
		c-0.56081,1.90614-0.88359,3.88428-1.26822,5.83899c-0.10626,0.54007-0.0797,1.1122-0.06744,1.66858
		c0.03851,1.75449,0.14148,3.50861,0.13727,5.26265c-0.0031,1.29668,0.16623,2.53732,0.6487,3.74403
		c0.20636,0.51613,0.39629,1.05913,0.4659,1.60617c0.29257,2.29991,1.52408,4.16956,2.70081,6.06789
		c0.31718,0.51172,0.75795,0.77119,1.39307,0.7401c1.85562-0.0909,3.66405-0.28491,5.13899-1.60759
		c0.35255-0.31616,0.76349-0.59656,1.19377-0.79156c1.64464-0.74538,2.86426-2.00127,4.07155-3.2813
		c1.36781-1.45015,2.77951-2.86108,4.09959-4.35323c0.842-0.95174,1.57442-2.00414,2.31491-3.04073
		c0.69463-0.97231,1.31203-1.99973,2.00494-2.97333c1.10703-1.55545,2.22205-3.08104,3.08084-4.8192
		c0.72993-1.47746,1.83095-2.79409,2.89342-4.07793c0.92421-1.11685,1.79597-2.23902,2.30762-3.60357
		c0.71214-1.89919,1.86089-3.51686,3.2049-5.00853c1.02293-1.13531,1.86261-2.36929,2.43291-3.80727
		c1.12857-2.84573,2.91028-5.29878,4.77423-7.69835c0.5845-0.75249,1.16995-1.52404,1.6156-2.36104
		c1.62007-3.04288,3.54494-5.87344,5.81747-8.45782c1.17122-1.33192,2.09659-2.8119,2.91684-4.36289
		c2.42334-4.58206,4.77304-9.20372,7.24718-13.75796c1.17819-2.16879,2.62169-4.19179,3.8564-6.33198
		c1.2513-2.16894,2.80695-4.02443,4.78568-5.57731c2.12846-1.67041,4.15071-3.47629,6.21648-5.22645
		c0.53482-0.45314,1.19598-0.69696,1.75916-0.2868c1.479,1.07719,2.93204,2.20734,3.6922,3.97372
		c0.2673,0.62119,0.29398,1.23331,0.10416,1.86538c-0.55344,1.84222-1.28235,3.59575-2.39859,5.18687
		c-1.18991,1.69617-2.33923,3.42294-3.44739,5.17364c-0.98132,1.55036-1.94781,3.09987-3.14081,4.50716
		c-2.08571,2.46037-3.29962,5.44292-4.77737,8.26038c-1.33124,2.53815-2.6107,5.10912-3.77875,7.72556
		c-1.03912,2.32758-1.92886,4.72435-2.82207,7.11394c-1.25572,3.35944-2.48892,6.72828-3.66124,10.1175
		c-0.57204,1.65392-1.00804,3.35668-1.46333,5.04871c-0.56097,2.08476-1.287,4.10785-2.1617,6.0786
		c-1.17259,2.64205-1.76483,5.452-2.43977,8.24181c-0.317,1.31024-0.73447,2.59856-1.15446,3.88104
		c-1.21504,3.7099-2.45786,7.41069-3.67868,11.1187c-0.11826,0.35907-0.28078,0.7576,0.2477,1.18034
		c1.57393-1.10202,3.31757-2.07671,4.7457-3.4272c2.54796-2.4095,5.01811-4.90729,7.42509-7.45848
		c4.16852-4.41832,7.7572-9.29048,11.18457-14.30368c2.34589-3.43145,4.57394-6.93136,6.46335-10.61383
		c2.36255-4.60461,4.67758-9.24798,6.41141-14.14645c0.18427-0.52058,0.40585-1.05322,0.72635-1.49619
		c2.10373-2.90775,3.582-6.22865,5.95248-8.96262c0.46359-0.53466,0.75903-1.21592,1.12695-1.83259
		c0.98352-1.64851,2.05066-3.22296,3.45981-4.55959c0.74713-0.70866,1.34497-1.57291,2.02823-2.35111
		c0.78696-0.89638,1.50076-1.88699,2.40793-2.64275c4.22534-3.52029,8.49832-6.98376,12.77707-10.43935
		c0.61435-0.49619,1.33987-0.8622,2.0368-1.2471c1.3251-0.73183,2.69952-1.37954,3.99353-2.16136
		c1.75766-1.06193,3.70276-1.46772,5.68036-1.71437c0.96143-0.11992,1.87326-0.2979,2.77472-0.64809
		c1.79474-0.69719,3.64551-1.11107,5.59155-1.15704c2.31015-0.05457,4.61642-0.25933,6.92642-0.33972
		c1.3739-0.04782,2.67148,0.24755,3.86813,1.01509c2.03265,1.30368,3.79703,2.88337,5.34238,4.73583
		c2.52945,3.03214,4.50677,6.34452,5.77167,10.11895c0.76102,2.27089,0.86105,4.52785,0.63715,6.84311
		c-0.21487,2.22176-0.47958,4.43911-0.75476,6.65438c-0.09799,0.78915-0.2861,1.56746-0.44159,2.34901
		c-0.35751,1.79689-0.72159,3.59247-1.0798,5.38923c-0.07788,0.39059-0.10861,0.79353-0.21811,1.1744
		c-0.96854,3.36976-1.95566,6.73415-2.92142,10.10468c-0.14532,0.50723-0.20871,1.0379-0.35196,1.7727
		c0.50903-0.10522,0.81235-0.11677,1.07056-0.23065c0.87564-0.38619,1.7081-0.88579,2.6062-1.2028
		c2.76984-0.97771,5.01038-2.72854,7.18561-4.63218c1.37592-1.20413,2.90677-2.23028,4.35486-3.35337
		c0.50162-0.38905,1.01495-0.78358,1.43414-1.25462c1.80124-2.02415,3.58752-4.06237,5.33908-6.12947
		c0.56351-0.66499,1.05844-1.40341,1.4888-2.16264c0.86765-1.53067,1.77957-3.01649,2.99777-4.30613
		c0.48868-0.51731,0.90637-1.11932,1.27017-1.73382c1.33774-2.25969,2.69553-4.5106,3.93738-6.82303
		c1.06482-1.98285,2.28046-3.84811,3.84412-5.45583c0.6915-0.71098,1.21326-1.44777,1.46735-2.40648
		c0.44086-1.66367,1.34726-2.97894,2.68335-4.13052c2.17111-1.87132,4.17123-3.94091,6.24725-5.9229
		c0.34476-0.32912,0.67474-0.69159,1.07187-0.94352c0.50583-0.32087,1.1431-0.34705,1.57477,0.04865
		c1.17377,1.07596,2.28638,2.21992,3.3999,3.35971c0.48526,0.49667,0.57782,1.14241,0.40207,1.78965
		c-0.22925,0.8443-0.45969,1.6974-0.79684,2.50176c-2.18781,5.2197-4.4046,10.42725-6.61255,15.63849
		c-0.12442,0.29362-0.30173,0.57345-0.37521,0.87876c-0.91928,3.81839-2.80582,7.29263-3.91913,11.03992
		c-0.59369,1.99834-1.47266,3.86946-2.36462,5.745c-0.64908,1.36487-1.15979,2.79669-1.70145,4.21045
		c-0.10254,0.26762-0.06076,0.59055-0.10278,1.09381c1.77454-0.79044,2.87479-2.02465,3.87982-3.34714
		c1.00977-1.32874,1.93112-2.7249,2.9476-4.04823c0.96915-1.26165,1.99075-2.47019,3.15643-3.57939
		c2.30908-2.19723,4.41809-4.60673,6.75226-6.77512c2.97681-2.76543,5.80972-5.69467,9.03802-8.18529
		c0.56702-0.43745,1.13855-0.8976,1.59872-1.43997c1.73941-2.05,4.03571-3.33282,6.26932-4.72077
		c1.14807-0.7134,2.24063-1.52694,3.30237-2.36598c1.82437-1.44171,3.72226-2.72836,5.92197-3.55415
		c0.80807-0.30335,1.52676-0.84225,2.29144-1.26424c1.39288-0.76865,2.78146-1.54581,4.18814-2.28854
		c0.77393-0.4086,1.60959-0.7042,2.36829-1.1369c3.51218-2.00301,7.14746-1.95387,10.85779-0.69721
		c0.36557,0.12382,0.77573,0.32625,1.00061,0.61872c0.96964,1.26111,1.89722,2.55613,2.79868,3.86728
		c0.34195,0.49737,0.28,1.05003-0.05042,1.57621c-1.86533,2.97053-3.72238,5.94624-5.58142,8.92072
		c-1.05511,1.68815-2.11905,3.37092-3.15515,5.07065c-0.24615,0.40384-0.40067,0.86425-0.59021,1.30173
		c-0.22165,0.51144-0.35611,1.08092-0.66583,1.53061c-1.78,2.58459-2.72348,5.58221-4.16693,8.33122
		c-0.25909,0.49345-0.51178,0.99898-0.68872,1.52538c-1.02219,3.04089-2.48166,5.87415-4.04947,8.65868
		c-0.27377,0.48621-0.59372,0.96834-0.75079,1.4946c-0.7113,2.38307-1.89722,4.559-2.90878,6.81023
		c-0.62073,1.38144-1.16028,2.82628-1.97681,4.08685c-1.38214,2.13372-2.03021,4.48119-2.49701,6.92022
		c-0.23978,1.25294-0.51108,2.49982-0.76056,3.75095c-0.26581,1.33292-0.42566,2.65892-0.24765,4.03548
		c0.15277,1.18115,0.04065,2.39456,0.15695,3.58279c0.45673,4.66635,1.93521,9.01506,4.22586,13.091
		c0.3884,0.69112,0.89606,1.31587,1.35648,1.96571c0.60437,0.85297,1.43176,0.9539,2.33694,0.61908
		c0.59622-0.22054,1.18466-0.48314,1.73782-0.79553c2.01047-1.13551,4.05927-2.21782,5.65961-3.94884
		c0.43195-0.46721,0.94116-0.862,1.39899-1.30638c1.38242-1.34178,2.65875-2.75987,3.21536-4.67053
		c0.53873-1.84914,1.87903-3.15875,3.22842-4.362c0.89166-0.79504,1.73669-1.60921,2.56018-2.47128
		c1.03461-1.08307,1.90363-2.40363,3.55298-2.62514c0.86179-2.67266,1.6532-5.17783,2.4812-7.67088
		c0.34982-1.05339,0.75491-2.09005,1.17355-3.11857c0.60083-1.47618,1.26154-2.9282,1.85175-4.40846
		c0.67914-1.70336,1.2688-3.43874,2.27267-5.00112c0.38211-0.59471,0.5484-1.32374,0.86255-1.96737
		c0.62781-1.28628,1.19836-2.61361,1.95905-3.81889c1.14581-1.81547,2.43436-3.54081,3.66226-5.30444
		c0.13678-0.19643,0.30167-0.37888,0.40668-0.59103c1.81064-3.65852,4.51889-6.74912,6.51047-10.29327
		c0.23334-0.41525,0.51175-0.81207,0.81418-1.18053c1.9238-2.34364,3.54767-4.90221,5.32236-7.35165
		c1.58636-2.18951,3.39993-4.2145,5.1152-6.3105c1.06-1.29524,2.12698-2.58475,3.18472-3.88184
		c1.21201-1.48627,2.47797-2.91328,4.14633-3.91645c0.13568-0.08159,0.26343-0.18391,0.37573-0.29579
		c2.45209-2.44333,5.51566-2.96908,8.79852-2.81516c0.87659,0.0411,1.7543,0.11058,2.63055,0.09841
		c3.5264-0.04901,6.9938,0.47367,10.45807,1.03558c0.39285,0.06372,0.79681,0.11625,1.16718,0.25171
		c2.25977,0.82644,4.59125,1.32179,6.98315,1.52766c1.7341,0.14925,3.21115,0.88061,4.57532,1.90337
		c0.5047,0.3784,1.0177,0.74575,1.64038,1.20113c0.32971-0.42419,0.69305-0.74124,0.86865-1.1408
		c1.86041-4.23288,3.67804-8.48457,5.53705-12.71806c0.60895-1.38673,1.37946-2.70515,1.94604-4.10738
		c1.94043-4.80273,3.77246-9.64969,5.74554-14.43869c1.336-3.24258,2.96167-6.3686,4.23199-9.63457
		c1.16675-2.99979,2.95166-5.64583,4.41022-8.47516c0.35455-0.68766,0.89685-1.3191,1.4729-1.84489
		c2.41229-2.20194,4.87219-4.35168,7.30975-6.52604c0.479-0.42727,0.93689-0.87768,1.7691-0.81677
		c1.22363,0.97897,2.66461,1.83176,3.70587,3.18383c0.58051,0.75376,0.8219,1.49497,0.46783,2.43516
		c-0.5885,1.56267-1.00775,3.17625-1.82446,4.66706c-0.68506,1.25063-1.04559,2.67444-1.66022,3.96916
		c-1.74139,3.6682-3.11273,7.50713-5.11151,11.05667c-0.27264,0.4841-0.49176,1.00665-0.67175,1.53323
		c-1.42438,4.16605-3.6145,7.98742-5.39288,11.994c-1.09857,2.47511-2.35327,4.88057-3.48041,7.34359
		c-0.46143,1.00828-0.75342,2.09282-1.15454,3.13029c-0.48846,1.26339-0.94995,2.5427-1.53229,3.763
		c-0.89221,1.86949-1.93921,3.666-2.80811,5.54546c-1.10217,2.38398-2.09796,4.81736-3.12439,7.23588
		c-0.1861,0.43835-0.33997,0.8989-0.43951,1.36402c-0.75055,3.5057-1.44678,7.02346-2.23676,10.52013
		c-0.45587,2.01805-1.00977,4.01722-1.60175,6.00036c-0.54852,1.83766-1.00513,3.68089-1.20837,5.59481
		c-0.21136,1.98991-0.82233,3.89247-1.4173,5.79912c-1.09583,3.51181-1.57892,7.15689-2.24402,10.76188
		c-0.12964,0.70261-0.33337,1.39137-0.46979,2.09296c-0.13617,0.70062-0.33661,1.41112-0.32458,2.11413
		c0.0426,2.49283-0.46967,4.91736-0.80011,7.36461c-0.03198,0.23651-0.13397,0.46756-0.14056,0.70291
		c-0.12915,4.61885-1.03589,9.20897-0.62732,13.84094c0.15997,1.81346,0.63635,3.60103,1.00677,5.3925
		c0.09552,0.46196,0.30432,0.90923,0.51422,1.33719c0.81763,1.66696,1.61237,2.07921,3.46619,1.7771
		c1.11353-0.18147,2.14368-0.59599,3.1048-1.19888c1.35114-0.84761,2.73956-1.6369,4.07587-2.5067
		c0.729-0.47452,1.38757-1.05841,2.06866-1.60445c0.18524-0.1485,0.30933-0.38603,0.50836-0.50256
		c2.37262-1.38896,3.67444-3.70959,5.14642-5.88257c0.17853-0.26363,0.41003-0.51413,0.50641-0.8071
		c0.79541-2.41827,1.87903-4.7477,2.27167-7.2912c0.28406-1.8401,0.89062-3.48317,2.21442-4.9077
		c1.78296-1.91865,3.37543-4.01357,5.07007-6.01553c0.58301-0.68875,1.08221-0.78556,1.9201-0.44727
		c1.20862,0.48798,2.2243,1.28457,3.04413,2.26105c0.80072,0.95374,1.16125,2.13927,0.70654,3.36412
		c-1.02209,2.753-1.49817,5.72742-3.26947,8.18085c-2.50793,5.32077-6.1897,9.82233-9.93286,14.28613
		c-0.97534,1.16309-1.99957,2.25194-3.13763,3.26512c-1.0636,0.94687-1.87634,2.16983-2.89661,3.17247
		c-1.30481,1.28227-2.80798,2.37233-4.04376,3.71295c-1.91968,2.08257-4.40869,3.40201-6.54498,5.18573
		c-2.17969,1.81998-4.72412,2.59538-7.54822,2.49435c-0.63779-0.0228-1.27533-0.06812-1.91318-0.07217
		c-4.30197-0.02737-6.93192-2.4765-8.5806-6.13063c-1.08496-2.40475-1.64011-4.96774-1.77026-7.64655
		c-0.32635-6.71738,0.26978-13.37369,0.92453-20.04617c0.53854-5.48795,1.48602-10.89956,2.42963-16.31931
		c0.04895-0.28119-0.03705-0.58587-0.05798-0.85111c-0.75131-0.12946-1.03821,0.34962-1.16666,0.76354
		c-0.46896,1.51132-1.55765,2.56008-2.54077,3.70763c-0.72189,0.84262-1.3508,1.76701-1.99545,2.67323
		c-1.2471,1.75301-2.54446,3.47543-3.6973,5.28918c-1.96863,3.09724-4.30667,5.91917-6.51208,8.83489
		c-2.01602,2.66536-4.25546,5.16664-6.46786,7.67729c-2.5798,2.92758-5.22049,5.80223-7.86765,8.66948
		c-1.40475,1.52155-2.88416,2.97401-4.32004,4.46712c-0.76959,0.80029-1.51492,1.62389-2.27725,2.43127
		c-1.50174,1.5905-3.46436,2.53169-5.23642,3.74599c-2.70361,1.85265-5.75131,2.66013-8.90671,3.21037
		c-0.70685,0.12328-1.41226,0.27393-2.125,0.34059c-2.85025,0.26656-5.3931-0.36076-7.32599-2.64307
		c-0.97739-1.15404-1.98267-2.28859-2.89462-3.49307c-2.08136-2.74911-3.14468-5.88628-3.35919-9.31561
		c-0.07471-1.19418-0.09412-2.39178-0.16351-3.5864c-0.0365-0.62805-0.01953-1.29456-0.64929-1.70062
		c-0.15988,0.02487-0.37015-0.00774-0.45901,0.08109c-1.62848,1.6282-3.43204,3.08092-4.83096,4.94102
		c-0.62051,0.82507-1.37027,1.55486-2.07944,2.31093c-1.5267,1.62769-3.00122,3.31169-4.61621,4.84732
		c-1.72723,1.64236-3.58759,3.14517-5.39728,4.70021c-1.33508,1.14725-2.86612,1.99617-4.3588,2.91554
		c-3.32181,2.04593-8.15659,1.18604-10.55148-1.4382c-2.22488-2.43791-4.17212-4.99042-5.58524-7.99409
		c-1.19553-2.54123-2.12225-5.14764-2.84146-7.85313c-0.51151-1.92419-1.25113-3.78992-1.31641-5.81401
		c-0.03586-1.11288-0.13068-2.22609-0.11563-3.33801c0.0585-4.32684,0.77438-8.56586,1.82095-12.75182
		c0.17239-0.68957,0.50275-1.34365,0.79483-1.99866c1.98123-4.4435,3.95667-8.88971,5.96457-13.32115
		c1.38226-3.05067,2.83823-6.06801,4.21503-9.12109c0.98273-2.17921,1.85855-4.40662,2.84174-6.58561
		c0.49036-1.08671,1.11911-2.11065,1.67606-3.16782c0.2226-0.42255,0.47983-0.8399,0.61862-1.29118
		c0.4483-1.45797,1.13974-2.77814,1.9079-4.09889c1.3204-2.27027,2.4407-4.65645,3.6611-6.98553
		c0.58539-1.11726,1.20749-2.21531,1.76624-3.23666c-0.21722-0.5192-0.52789-0.52284-0.83871-0.41234
		c-0.89789,0.31923-1.7731,0.71074-2.68497,0.97961c-0.79996,0.23588-1.39227,0.73511-2.01953,1.23263
		c-0.74353,0.58977-1.49249,1.21526-2.33542,1.62914c-2.47009,1.21284-4.53342,2.95329-6.53851,4.78584
		c-0.47015,0.4297-0.89294,0.92595-1.41077,1.28635c-3.35397,2.33434-6.29434,5.15437-9.23633,7.95715
		c-1.31638,1.25405-2.34497,2.80933-3.51123,4.22205c-0.75867,0.91896-1.5097,1.84552-2.30103,2.73592
		c-1.00546,1.13138-2.0531,2.22516-3.07382,3.3431c-1.5665,1.71577-2.92331,3.57185-3.98108,5.65573
		c-0.35196,0.69341-0.96631,1.25444-1.4671,1.8708c-0.09982,0.12288-0.22437,0.22713-0.34482,0.33156
		c-2.93039,2.54063-5.15036,5.64714-7.06958,8.97794c-0.76434,1.32657-1.67731,2.52837-2.7287,3.61744
		c-1.28766,1.33383-2.32819,2.82885-3.2005,4.45141c-1.39981,2.60364-2.88306,5.14848-4.87805,7.36021
		c-0.80624,0.89388-1.34274,1.96053-1.88641,3.03416c-1.69232,3.34225-3.47717,6.63763-5.17407,9.97763
		c-0.97421,1.91763-1.98471,3.83557-2.73169,5.84523c-0.92859,2.49832-2.75616,4.23982-4.52731,6.0605
		c-0.49405,0.50784-1.02142,0.98369-1.54169,1.46541c-0.40707,0.37689-0.81128,0.75958-1.24423,1.10524
		c-0.80872,0.64566-1.63022,1.27591-2.46063,1.8934c-0.44608,0.33173-0.90967,0.6438-1.38654,0.92938
		c-1.02228,0.61227-2.05746,1.20293-3.08914,1.79933c-0.27499,0.15895-0.548,0.32539-0.83655,0.45609
		c-0.89249,0.40425-1.56088,0.06729-1.76111-0.92522c-0.38062-1.88638-0.13394-3.75565,1.01822-5.25436
		c1.99811-2.59901,3.00333-5.61026,3.98019-8.63855c1.76144-5.46059,3.38113-10.96715,5.16669-16.41957
		c0.56763-1.73331,1.48938-3.34894,2.22171-5.03035c1.17722-2.70297,2.33255-5.41549,3.49435-8.12518
		c0.12564-0.29306,0.18994-0.62045,0.35477-0.88745c1.35583-2.19672,1.87643-4.73518,2.90555-7.06794
		c1.28613-2.91541,2.42792-5.89471,3.61737-8.85233c0.29706-0.7387,0.56781-1.49133,0.78848-2.25553
		c0.07581-0.26262-0.03784-0.57996-0.08414-1.07909c-0.43301,0.22991-0.73737,0.31937-0.94333,0.5133
		c-0.92844,0.87423-1.83038,1.77667-2.7388,2.6721c-0.28378,0.27971-0.52634,0.6112-0.84128,0.84776
		c-2.62668,1.97319-4.76538,4.47218-7.19754,6.65467c-2.31216,2.07478-4.56638,4.21497-6.90521,6.25865
		c-0.707,0.61775-1.59711,1.0351-2.4285,1.49923c-1.32181,0.73794-2.68668,1.40047-3.99329,2.16348
		c-1.72058,1.00479-3.37857,2.11837-5.38467,2.5163c-0.81442,0.16155-1.40616,0.65374-1.91058,1.3312
		c-2.7135,3.64448-5.46472,7.26081-8.19199,10.8951c-0.90799,1.21001-1.76465,2.45863-2.67752,3.66484
		c-2.08029,2.74879-4.57788,5.04829-7.28836,7.18881c-2.1759,1.71832-4.07965,3.79256-6.02689,5.78439
		c-0.96008,0.9821-1.9769,1.82216-3.19733,2.45256c-0.98706,0.50983-1.91742,1.12903-2.87631,1.694
		c-0.4072,0.23991-0.8266,0.45909-1.2341,0.69859c-0.54263,0.31892-1.14005,0.57829-1.60779,0.98524
		c-2.34314,2.03871-5.05365,3.40208-8.06909,3.94939c-2.90906,0.52798-5.93494,0.64644-8.74289-0.3978
		c-1.79062-0.66586-3.61145-1.23196-5.39691-1.89828c-2.38876-0.89149-4.29028-2.49246-5.58875-4.67177
		c-1.14087-1.91467-2.09335-3.94336-3.08737-5.9424c-0.24387-0.49036-0.3399-1.05777-0.47873-1.59627
		c-1.2648-4.90768-1.62991-9.90483-1.49194-14.95377C259.3927,134.16049,259.60526,133.42625,258.99072,132.57156z
		 M512.93549,72.14044c-0.62427,0.20869-0.87628,0.23672-1.06091,0.36312c-2.57291,1.76162-5.24301,3.30045-8.39355,3.7767
		c-0.07776,0.01175-0.15277,0.04539-0.22739,0.07334c-2.36075,0.88456-4.77527,1.13506-7.2536,0.6083
		c-0.77823-0.16541-1.55875-0.32437-2.32907-0.52198c-4.12103-1.05717-8.29895-1.49618-12.55618-1.33986
		c-1.5834,0.05814-2.82437,0.64684-3.63565,1.92421c-1.07346,1.69018-2.26169,3.27328-3.60245,4.75489
		c-0.36978,0.40857-0.63614,0.91271-0.93695,1.38133c-1.37247,2.13803-2.49683,4.44511-4.34024,6.26163
		c-0.33328,0.32841-0.55386,0.77377-0.81406,1.17323c-0.95569,1.46725-1.7952,3.02644-2.88226,4.38834
		c-2.09857,2.62923-3.87665,5.4379-5.24432,8.50186c-0.71271,1.59673-1.22916,3.28541-2.00064,4.85054
		c-1.19684,2.42798-2.15146,4.94126-3.14096,7.45597c-1.99414,5.06792-3.39426,10.27803-4.39963,15.61075
		c-0.11752,0.6234-0.17133,1.26233-0.20819,1.89674c-0.08313,1.43198-0.08188,2.87093-0.21829,4.29716
		c-0.14041,1.46829,0.12994,2.85277,0.59494,4.22086c0.2308,0.67915,0.51947,1.34067,0.71594,2.02902
		c0.38214,1.33888,1.19589,2.40128,2.01736,3.49063c1.10068,1.45966,2.47824,1.90839,4.20328,1.48265
		c0.46429-0.11459,0.94775-0.18407,1.38693-0.36197c1.69788-0.68781,3.38602-1.40042,5.06662-2.12956
		c0.3605-0.15642,0.70996-0.3804,1.00388-0.64156c1.96512-1.74626,3.97968-3.44398,5.85333-5.28458
		c3.29318-3.23508,6.54459-6.51442,9.5827-9.99825c1.09998-1.26135,2.28387-2.44581,3.09192-3.93648
		c0.18646-0.34397,0.41638-0.6992,0.71371-0.94234c1.45825-1.19248,2.27124-2.84757,3.28723-4.37021
		c1.05722-1.58442,2.32251-3.02837,3.43091-4.58078c0.923-1.29277,1.74377-2.65815,2.62192-3.98338
		c1.58444-2.39121,3.16183-4.79349,4.12946-7.51376c0.67273-1.89128,1.55707-3.65067,2.65515-5.32867
		c0.73953-1.1301,1.51022-2.29736,1.94009-3.55935c0.6817-2.00135,1.84036-3.70344,2.98419-5.41341
		c0.80453-1.20275,1.49295-2.43726,2.0426-3.76939c0.66705-1.61678,1.25494-3.288,2.11951-4.79675
		c1.52347-2.65858,2.39642-5.55497,3.40881-8.40549C512.69415,73.3744,512.75604,72.91262,512.93549,72.14044z M312.12146,128.00148
		c-0.66452-0.21228-1.17764-0.42944-1.71277-0.53391c-0.70099-0.13686-1.41876-0.18967-2.13034-0.26991
		c-2.14334-0.24174-4.38092-0.39462-6.1958-1.59219c-2.51971-1.66264-4.97223-3.44982-7.15521-5.58004
		c-1.08035-1.05428-1.24078-2.16605-0.73056-3.46608c0.2019-0.51444,0.47534-1.01125,0.78204-1.47229
		c1.19025-1.78929,2.38391-3.5772,3.62225-5.33321c0.77957-1.10551,1.62793-2.16379,2.47134-3.22256
		c0.38614-0.48473,0.92029-0.6385,1.50089-0.37447c1.80209,0.81946,3.73856,1.41928,5.03918,3.0712
		c0.1937,0.24599,0.49402,0.40496,0.71164,0.63568c2.48108,2.62975,5.72604,3.29476,9.12689,3.5566
		c0.60916,0.04691,1.07275-0.19849,1.38757-0.74059c0.68607-1.18135,1.19189-2.41995,1.44696-3.77435
		c0.85519-4.54117,1.74573-9.07566,2.62021-13.61321c0.06027-0.31284,0.1134-0.62827,0.14648-0.94495
		c0.27338-2.61517,0.56793-5.22853,0.8031-7.8472c0.22552-2.51147-0.16962-4.92624-1.30832-7.19852
		c-0.32126-0.64102-0.6813-1.26829-0.93781-1.93486c-0.65125-1.69233-1.83096-2.96626-3.13455-4.16203
		c-0.68137-0.625-1.44537-0.97569-2.37906-0.91664c-2.30313,0.14564-4.60629-0.00681-6.9212,0.19977
		c-2.45145,0.21877-4.38324,1.21552-6.20071,2.74345c-1.27493,1.07176-2.65427,2.02921-4.04398,2.95183
		c-1.45828,0.96813-2.98468,1.83361-4.48111,2.74435c-1.24414,0.75726-2.34137,1.63798-2.93182,3.04572
		c-0.21091,0.50289-0.58707,0.94888-0.94012,1.37775c-2.02814,2.46371-3.61661,5.23354-5.45694,7.8279
		c-0.40771,0.57476-0.63995,1.27579-0.94016,1.92465c-0.63474,1.37204-1.25504,2.75077-1.89218,4.12167
		c-0.73755,1.58688-1.56799,3.13625-2.20959,4.76056c-0.73059,1.84939-1.3309,3.75292-1.92831,5.65166
		c-1.45703,4.63096-3.09473,9.22417-3.13779,14.17167c-0.00412,0.47292-0.13937,0.94435-0.20929,1.41713
		c-0.26797,1.81222-0.50662,3.61754-0.29007,5.46564c0.11981,1.02266,0.0463,2.06946,0.03903,3.10521
		c-0.01065,1.51996,0.06516,3.02376,0.49222,4.49997c0.22092,0.76355,0.38358,1.55093,0.49216,2.33862
		c0.26749,1.94003,1.07516,3.67914,2.06769,5.31348c0.77994,1.28427,1.58133,2.68648,2.96924,3.37215
		c2.58331,1.27631,5.27863,2.29477,8.25854,1.98767c2.28357-0.23535,4.31808-0.93227,5.84778-2.82964
		c0.89291-1.1075,1.99176-2.05856,3.05429-3.01758c1.71301-1.5461,3.59311-2.91064,4.98978-4.79199
		c0.32556-0.43855,0.763-0.90034,1.38647-0.80441c0.79074,0.12166,1.1337-0.37953,1.55188-0.87843
		c2.15872-2.57524,3.91647-5.4211,5.61722-8.30319C311.71393,129.94591,312.21097,129.19489,312.12146,128.00148z"/>
	<path class="st8" d="M810.224,126.70692c0.62012,0,1.17407,0.01073,1.7276-0.00187
		c2.95612-0.06731,4.40094,3.88876,2.95538,6.05195c-2.7514,4.11717-5.50757,8.21342-8.95776,11.78738
		c-2.87933,2.98262-5.86713,5.86311-8.68439,8.9024c-2.9469,3.17903-6.57861,5.53987-9.74402,8.45152
		c-1.19928,1.10321-2.76776,1.55289-4.23041,2.18233c-0.87439,0.3763-1.73724,0.78174-2.59058,1.20386
		c-1.07275,0.53069-2.1239,1.0968-3.3454,1.23688c-0.47223,0.05412-0.94696,0.17175-1.39575,0.33057
		c-3.59515,1.27238-7.34674,1.37093-11.08533,1.36818c-3.38629-0.00252-6.40601-1.11823-8.83984-3.59096
		c-1.05902-1.07599-2.19672-2.07619-3.2309-3.17459c-0.93793-0.99615-1.53235-2.21547-2.05701-3.48227
		c-0.97876-2.36308-1.80103-4.77454-2.48126-7.23792c-0.20984-0.75987-0.31909-1.56709-0.99878-2.29254
		c-0.30884,0.12961-0.71179,0.19926-0.9765,0.4285c-0.78223,0.67743-1.54999,1.38084-2.25195,2.14015
		c-3.27539,3.54297-7.17084,6.30396-11.172,8.93579c-0.79822,0.52501-1.63153,1.00565-2.38202,1.59204
		c-0.98846,0.77235-2.11591,1.13506-3.32031,1.19476c-1.81519,0.09001-3.65979,0.42715-5.44769-0.0242
		c-2.19568-0.55431-4.13397-1.66197-5.79663-3.22258c-0.29059-0.27281-0.59125-0.53607-0.89972-0.78848
		c-1.61365-1.32057-2.94836-2.82132-3.97968-4.69086c-2.09625-3.80022-3.745-7.74139-4.67657-11.98203
		c-0.31189-1.41971-0.4118-2.84909-0.18286-4.28011c0.52856-3.30447,1.09222-6.60336,1.65302-9.9026
		c0.09338-0.54913,0.21985-1.09534,0.37152-1.63147c2.36963-8.37902,5.42371-16.49718,9.08813-24.40045
		c1.9502-4.20611,4.21777-8.22668,6.51379-12.24052c0.43384-0.75838,0.75372-1.58395,1.20959-2.32737
		c1.04053-1.6967,2.13312-3.36143,3.2038-5.03963c0.81415-1.27615,1.68494-2.52052,2.42596-3.83788
		c0.89648-1.59374,1.46332-3.35381,2.49091-4.89619c0.36926-0.55425,0.74481-1.24416,0.5459-2.01388
		c-0.4754-0.50074-1.04913-0.40655-1.55756-0.18108c-1.67029,0.74081-3.46179,1.32639-4.94,2.3549
		c-2.28113,1.58699-4.59973,3.12345-6.85712,4.74572c-0.19348,0.13902-0.40314,0.28009-0.54144,0.46733
		c-1.5976,2.16283-3.97125,3.41143-5.97302,5.09711c-0.85162,0.71715-1.82928,1.35757-2.47174,2.23613
		c-1.80518,2.46847-4.06067,4.50157-6.19684,6.64258c-1.36444,1.36751-2.52594,2.87057-3.61816,4.43502
		c-1.41919,2.03305-2.97406,3.91238-4.7818,5.63608c-1.77789,1.69509-3.53082,3.44247-4.99091,5.46704
		c-1.81702,2.51967-3.79657,4.91604-5.92999,7.19221c-1.40967,1.50396-2.6546,3.16524-3.70288,4.97653
		c-1.83582,3.17234-3.81873,6.25921-5.6853,9.41425c-2.63879,4.46025-5.19647,8.96857-7.26801,13.72801
		c-0.63538,1.45981-1.14471,2.97649-1.67035,4.48161c-0.76898,2.20186-1.78333,4.23306-3.38605,5.98479
		c-1.12579,1.23033-2.20703,2.51555-3.27551,3.79019c-1.16553,1.3905-2.28632,2.84239-3.40302,4.28574
		c-0.49731,0.64268-0.96729,1.30457-1.87164,1.32959c-1.1283,0.03123-2.24988-0.06953-3.2088-0.73257
		c-0.22205-0.15349-0.3703-0.53502-0.39514-0.82504c-0.0401-0.46918-0.00018-0.96007,0.09668-1.42276
		c0.16333-0.77962,0.34802-1.56177,0.61139-2.3121c0.79114-2.25397,1.51569-4.5403,2.46545-6.72757
		c1.68604-3.88293,2.96704-7.90213,4.29968-11.90773c0.47815-1.43704,1.05743-2.84102,1.51691-4.28358
		c0.96796-3.0392,1.90521-6.08853,2.8125-9.14635c0.20081-0.6769,0.23859-1.40477,0.31531-2.11306
		c0.0116-0.10644-0.15228-0.28389-0.27509-0.33842c-0.12531-0.05559-0.36542-0.06263-0.44165,0.01736
		c-0.37891,0.39725-0.8183,0.78107-1.05811,1.25906c-1.08075,2.15386-2.54944,4.04443-3.93005,5.99762
		c-0.50427,0.71329-1.0423,1.43747-1.36499,2.23732c-0.72748,1.8036-1.79932,3.40308-2.99146,4.88226
		c-1.80499,2.23969-3.33813,4.65446-4.95917,7.01505c-0.40509,0.58992-0.90515,1.11375-1.34039,1.68407
		c-1.20978,1.5853-2.44226,3.15482-3.604,4.77492c-2.01056,2.80385-4.4787,5.17859-6.92645,7.58009
		c-1.37622,1.35019-2.85675,2.54626-4.55634,3.45872c-2.44983,1.31529-5.01007,2.049-7.82178,1.47035
		c-0.46643-0.09598-0.95361-0.0856-1.42706-0.15358c-2.5835-0.37074-4.69476-1.48875-6.0108-3.84273
		c-1.32251-2.36542-2.67194-4.71669-3.93982-7.1111c-0.36359-0.68658-0.52728-1.49138-0.70667-2.25969
		c-0.18091-0.77431-0.24841-1.57434-0.39825-2.3568c-0.7262-3.79176-0.81458-7.5963-0.27979-11.41925
		c0.07709-0.55121,0.11713-1.11328,0.11023-1.66954c-0.02576-2.08308,0.1839-4.13884,0.57648-6.18434
		c0.17999-0.93761,0.26147-1.89618,0.34479-2.84897c0.02478-0.28271-0.09583-0.57815-0.1947-1.10849
		c-0.39136,0.3231-0.67853,0.46426-0.82166,0.69482c-0.6308,1.01571-1.29932,2.01966-1.80957,3.09641
		c-1.57849,3.33133-3.57446,6.39084-5.77075,9.34045c-0.80408,1.07986-1.46777,2.27556-2.09955,3.46924
		c-0.67474,1.2749-1.45343,2.45155-2.36572,3.57658c-1.60406,1.9781-3.04749,4.08562-4.62018,6.09026
		c-1.27802,1.62907-2.55841,3.27315-4.00037,4.752c-1.43951,1.47638-3.06287,2.7774-4.64655,4.10669
		c-0.41296,0.34673-0.97687,0.51468-1.47357,0.76035c-0.49445,0.2444-1.03345,0.42349-1.479,0.73657
		c-1.03339,0.72612-2.15942,0.9285-3.3877,0.83963c-0.50348-0.6769-0.21869-1.27385,0.12549-1.79715
		c0.48041-0.7305,1.26038-1.32826,1.53949-2.11496c0.87421-2.46455,2.7652-4.28186,3.94751-6.53906
		c0.25555-0.48776,0.56726-0.98271,0.96655-1.35158c1.13385-1.04742,1.91443-2.33751,2.70514-3.63287
		c0.58118-0.95213,1.16724-1.907,1.82898-2.80305c1.23761-1.67569,2.16913-3.52576,3.21954-5.31169
		c2.38281-4.05156,4.16699-8.41423,6.6712-12.40843c1.30225-2.077,2.19391-4.42407,3.15717-6.69737
		c0.93616-2.20948,2.02875-4.31384,3.34229-6.3242c0.69116-1.05775,1.29449-2.21941,1.68768-3.41622
		c0.95435-2.90529,2.3244-5.58598,3.9942-8.12749c0.92749-1.41164,1.55426-2.93743,2.07019-4.54958
		c0.4826-1.50832,1.15015-2.98166,1.92047-4.3681c1.2074-2.17351,2.17694-4.43903,3.01202-6.76894
		c0.56604-1.57945,1.22137-3.09396,2.16174-4.50818c0.74438-1.11945,1.25708-2.39508,1.85077-3.612
		c0.52386-1.07392,1.04309-2.15159,1.5155-3.24865c0.32367-0.75169,0.04297-1.29837-0.72144-1.4321
		c-0.62445-0.10925-1.27051-0.19914-1.89893-0.16176c-1.82959,0.10883-3.6554,0.28137-5.48187,0.44006
		c-0.31641,0.0275-0.62976,0.16631-0.94183,0.15746c-3.10016-0.08788-6.20685-0.10226-9.29669-0.33611
		c-1.66071-0.12569-3.28949-0.38124-4.98199-0.31432c-1.89697,0.07499-3.81189-0.1897-5.71252-0.37358
		c-0.78992-0.07639-1.12915-0.85546-0.80945-1.63813c0.99298-2.43121,2.00751-4.85382,2.97607-7.29467
		c0.29266-0.73742,0.43799-1.53193,0.6936-2.28575c0.72113-2.12741,1.83197-3.06176,4.05621-3.02663
		c3.58685,0.05667,7.16809-0.3063,10.76093-0.00354c1.81805,0.1532,3.66333-0.03402,5.49628-0.0344
		c3.98663-0.00085,7.97333,0.02104,11.96002,0.02853c0.39795,0.00073,0.81995,0.04232,1.18719-0.07338
		c0.35236-0.11106,0.74023-0.33638,0.9483-0.62848c0.36639-0.51415,0.60364-1.11966,0.90253-1.68285
		c0.55939-1.05379,1.03729-2.16371,1.70361-3.14534c1.79706-2.64723,3.05835-5.58686,4.67133-8.33212
		c0.36285-0.61752,0.74542-1.22449,1.08331-1.8553c0.33728-0.62965,0.64514-1.27636,0.93811-1.92807
		c0.32495-0.72281,0.58728-1.47485,0.93158-2.18776c1.00446-2.07925,2.04376-4.14164,3.05542-6.21741
		c1.33234-2.73342,3.02789-5.24645,4.77179-7.72024c0.58545-0.83036,1.38312-1.56171,2.21381-2.15681
		c1.29034-0.92441,2.63373-1.82625,4.00305-2.58291c1.78925-0.98873,3.81525-1.60891,5.80249-2.15959
		c1.46625-0.40631,3.74408,1.30404,3.94946,2.79105c0.05933,0.42972-0.12805,0.93651-0.32367,1.35068
		c-0.68036,1.43967-1.42041,2.85099-2.12567,4.27905c-1.0235,2.07268-2.02069,4.15853-3.06207,6.22212
		c-0.39386,0.78056-0.87549,1.5172-1.32391,2.26979c-1.34442,2.25632-2.71307,4.49289-3.83215,6.88146
		c-1.65442,3.53128-3.3407,7.04497-4.79626,10.66644c-0.47443,1.18036-1.12018,2.29154-1.68048,3.43788
		c-0.20929,0.42832-0.44598,0.85161-0.58771,1.3031c-0.47052,1.49806-0.10602,2.12966,1.45721,2.23286
		c2.46368,0.16269,4.93463,0.25121,7.40369,0.28582c2.47223,0.03469,4.94592-0.041,7.41901-0.05743
		c1.84497-0.01221,3.43341,0.6086,4.71997,1.9556c0.88708,0.9287,0.88776,1.92574,0.08289,2.97964
		c-1.8385,2.40755-4.08545,4.44794-6.02954,6.76035c-0.40649,0.4835-0.92737,0.87078-1.39392,1.3041
		c-0.79736,0.74055-1.72223,0.90573-2.81458,1.00445c-2.4541,0.22182-4.92438,0.15653-7.37256,0.51722
		c-1.16638,0.17181-2.38397,0.03075-3.57648-0.01624c-1.59381-0.06284-3.18604-0.16878-4.77869-0.26224
		c-1.08264-0.06356-1.75482,0.40398-2.25037,1.3968c-2.31567,4.6396-4.43927,9.36106-6.24048,14.22391
		c-0.77435,2.09068-1.51611,4.19421-2.22864,6.30682c-1.34888,3.99946-2.65601,8.01298-4.00238,12.01331
		c-0.38141,1.13322-0.94147,2.21398-1.2431,3.36508c-1.57611,6.01542-3.21606,12.02335-3.39954,18.29921
		c-0.00928,0.31857-0.0127,0.64288-0.07458,0.95346c-0.53729,2.69797-0.34113,5.38089-0.05292,8.09685
		c0.18085,1.70372,0.52643,3.29036,1.32806,4.78862c0.93945,1.7558,1.83429,3.53712,2.82825,5.26137
		c0.56726,0.98384,1.05164,1.14272,1.9798,0.73532c2.71417-1.1913,5.28333-2.61386,7.36066-4.7973
		c1.09772-1.15373,2.19159-2.32097,3.38538-3.37041c0.98676-0.86749,1.71033-1.88248,2.27563-3.03773
		c0.60046-1.2269,1.47223-2.25938,2.2688-3.3559c1.49597-2.05962,2.83484-4.23405,4.2229-6.3712
		c1.64838-2.53793,3.33655-5.05277,4.89642-7.64442c0.89984-1.49505,1.65295-3.09104,2.33948-4.69828
		c0.69397-1.62452,1.51373-3.1693,2.53583-4.5955c1.72589-2.40841,3.13464-4.9798,4.42377-7.64744
		c1.00183-2.07317,2.24725-4.04379,3.53046-5.96231c1.95557-2.9237,3.7572-5.91257,5.13916-9.16072
		c0.7771-1.82637,1.76489-3.54791,2.88086-5.21986c1.71753-2.57349,3.17255-5.321,4.41968-8.166
		c0.22388-0.51064,0.44476-1.029,0.73248-1.50408c1.12134-1.85071,1.88678-3.85889,2.75061-5.83247
		c1.18005-2.69618,2.64111-5.26881,3.96655-7.90204c1.39508-2.77153,2.99725-5.4358,3.9632-8.42356
		c0.53625-1.65854,1.32184-3.25017,2.12177-4.80685c1.53387-2.98525,2.85687-6.0577,4.05743-9.18711
		c1.25934-3.28281,2.71326-6.45799,4.69-9.39405c0.97455-1.44747,1.77808-3.02821,2.51031-4.61719
		c2.26953-4.92516,4.46039-9.88664,6.69806-14.82661c0.729-1.60941,1.61853-3.10437,3.07422-4.201
		c0.76221-0.57421,1.46478-1.23138,2.16632-1.88128c0.59509-0.55127,1.21875-0.96512,2.04596-1.15023
		c0.68445-0.1532,1.34705-0.5024,1.95789-0.86748c1.73224-1.03511,3.41022-0.3922,5.07263,0.13569
		c0.54852,0.17421,0.80157,0.76119,0.88275,1.33972c0.18109,1.28945,0.02814,2.54933-0.42493,3.76721
		c-0.75073,2.0182-1.53705,4.0234-2.26788,6.04867c-0.67548,1.87214-1.27905,3.77019-1.95276,5.643
		c-0.26746,0.74356-0.59735,1.47182-0.97003,2.16897c-1.16718,2.18332-2.20245,4.3961-2.87689,6.80992
		c-0.61768,2.21062-1.51886,4.33899-2.8194,6.30196c-1.62683,2.45546-3.04095,5.05135-4.56335,7.57666
		c-0.78125,1.29583-1.63635,2.54816-2.39062,3.85898c-1.18872,2.06593-2.69519,3.92801-3.62988,6.16741
		c-0.66956,1.60423-1.73163,3.04402-2.60962,4.56233c-0.35797,0.6191-0.7077,1.24401-1.03296,1.88073
		c-0.32635,0.63885-0.52209,1.36605-0.94031,1.93257c-1.83319,2.48276-2.72534,5.38989-3.82117,8.20759
		c-0.08673,0.22307-0.15729,0.45634-0.27356,0.66337c-2.23596,3.97816-3.64771,8.31663-5.46069,12.47945
		c-0.82648,1.8978-1.67438,3.78761-2.44385,5.70856c-0.74036,1.84802-1.37659,3.73746-2.08716,5.59773
		c-0.62567,1.63787-1.29413,3.25941-1.93713,4.8907c-0.23328,0.59192-0.4552,1.18863-0.66925,1.78777
		c-0.80505,2.25211-1.61749,4.50169-2.39771,6.76242c-0.19788,0.57351-0.66656,1.10917-0.3385,1.90887
		c0.95728-0.11967,1.47778-0.83212,1.9826-1.50014c1.05707-1.39864,2.1723-2.77065,3.06573-4.27142
		c1.20203-2.01934,2.79065-3.68413,4.44958-5.2874c1.09991-1.06299,2.04669-2.2098,2.88977-3.48382
		c1.32324-1.99941,2.97168-3.7363,4.72571-5.36703c2.15845-2.00666,4.31995-4.01016,6.49634-5.99724
		c0.76379-0.69736,1.58533-1.33101,2.36383-2.01282c2.39697-2.09939,4.77539-4.22009,7.18378-6.30629
		c0.84229-0.7296,1.72968-1.41185,2.633-2.06519c1.74298-1.26061,3.46252-2.56377,5.28052-3.70827
		c3.56592-2.24481,6.9491-4.84084,11.08649-6.04432c0.30524-0.08881,0.62451-0.18166,0.8894-0.34859
		c2.06793-1.30304,4.45062-1.72753,6.73993-2.39207c0.90228-0.26188,1.88287-0.34307,2.82819-0.34549
		c1.22845-0.00316,2.33759,0.38311,3.17841,1.38949c0.40405,0.48364,0.94391,0.85164,1.4035,1.29159
		c1.84778,1.76897,2.10406,3.60692,0.841,5.81008c-1.18921,2.07423-2.37793,4.14897-3.53644,6.24036
		c-0.34583,0.62433-0.61475,1.2955-0.87439,1.96249c-0.67102,1.72397-1.50452,3.38829-2.73468,4.747
		c-1.52429,1.68353-2.55908,3.65105-3.69116,5.56889c-1.57935,2.67552-3.13983,5.36282-4.66296,8.07067
		c-0.85944,1.52781-1.68585,3.07987-2.42511,4.6685c-1.5116,3.24847-2.96271,6.52521-4.41815,9.79946
		c-0.28992,0.65218-0.49384,1.34322-0.7254,2.02042c-0.15466,0.45237-0.20508,0.96194-0.44452,1.3603
		c-1.63123,2.71337-2.0484,5.85667-3.07135,8.7801c-0.83484,2.38577-1.10236,4.97043-1.61499,7.46821
		c-0.112,0.54571-0.18329,1.09978-0.29565,1.64541c-0.60547,2.93974-0.51074,5.84938,0.25793,8.75591
		c0.79846,3.01909,1.74231,5.97563,3.43011,8.63234c0.50928,0.80167,1.07635,1.58316,1.71857,2.2802
		c1.21851,1.32245,2.81049,1.61441,4.39111,0.95045c2.63727-1.10783,5.3623-2.08873,7.59491-3.9883
		c0.36249-0.30838,0.7879-0.54169,1.172-0.8261c0.44843-0.33212,0.94165-0.62866,1.3147-1.03345
		c1.95117-2.11731,3.6333-4.43643,4.99713-6.97423c0.22003-0.40935,0.31207-0.90724,0.37878-1.37625
		c0.62274-4.37724,2.22137-8.47046,3.59937-12.63349c1.50732-4.55415,3.55035-8.88274,5.42657-13.28098
		c0.65479-1.535,1.62354-2.9343,2.30878-4.45858c1.02002-2.26898,2.32202-4.34765,3.76276-6.36581
		c0.87646-1.22771,1.5473-2.60007,2.36115-3.87508c0.81403-1.27522,1.61755-2.56841,2.55457-3.75167
		c2.57312-3.24934,5.17316-6.47955,7.84277-9.6498c1.69489-2.01276,3.67523-3.74992,5.61707-5.53285
		c3.5957-3.30135,7.70203-5.93943,11.39404-9.10514c0.48132-0.41271,1.03192-0.75289,1.57819-1.08038
		c3.3493-2.00794,6.664-4.07919,10.0752-5.97669c2.58594-1.43847,5.32239-2.52122,8.37524-2.59325
		c2.44769-0.05778,4.51611,0.59396,6.22455,2.44701c1.46118,1.58486,2.94806,3.11819,4.04462,5.00537
		c1.19391,2.05459,1.86371,4.1861,1.74121,6.595c-0.09381,1.84335-0.0863,3.67594-1.0838,5.32205
		c-0.90613,3.93105-3.03723,7.35371-4.59125,11.01545c-0.33954,0.8002-0.82446,1.55083-1.32147,2.26959
		c-1.08844,1.57392-2.22705,3.11316-3.34711,4.6652c-0.0932,0.12917-0.18909,0.26022-0.30359,0.36964
		c-1.95392,1.86772-3.83624,3.8194-5.88635,5.57505c-2.53906,2.17444-5.24396,4.15395-7.82666,6.27905
		c-1.62903,1.34033-3.42096,2.32868-5.42065,2.96417c-0.07593,0.02414-0.16125,0.02759-0.23016,0.06365
		c-3.6983,1.93336-7.94836,2.27634-11.70428,4.07568c-1.20398,0.57677-2.56476,0.89015-3.96039,0.72413
		c-0.86475-0.1029-1.26257-0.65511-1.02136-1.5049c0.10687-0.37656,0.20917-0.84393,0.48035-1.06872
		c1.15314-0.95562,1.96667-2.27596,3.40332-2.9444c0.92181-0.42887,1.71179-1.14175,2.55884-1.73025
		c0.97339-0.67626,1.91632-1.40308,2.93134-2.0092c0.37622-0.22459,0.91931-0.22754,1.38696-0.23081
		c1.75439-0.01207,3.21222-0.71542,4.6261-1.70395c3.31561-2.31816,5.8905-5.26893,8.23206-8.56001
		c2.01501-2.83208,3.50153-5.88393,4.87048-9.01752c0.82776-1.89458,1.49268-3.8728,2.07288-5.85958
		c0.61365-2.10135,0.47919-4.27914,0.11206-6.41024c-0.1449-0.84103-0.57794-1.64737-0.96667-2.42612
		c-0.26135-0.52356-0.76721-0.80394-1.39124-0.75124c-1.35126,0.11412-2.70392,0.21641-4.05237,0.35832
		c-1.14185,0.12014-2.12946,0.63599-3.03943,1.31023c-1.72736,1.28001-3.56244,2.44122-5.15137,3.87499
		c-2.2428,2.02378-4.48468,4.10236-6.38214,6.43774c-1.46332,1.80106-3.0741,3.44352-4.63531,5.13706
		c-0.70972,0.76984-1.37256,1.5393-1.89008,2.44305c-1.15356,2.01422-2.51398,3.87215-4.10779,5.56673
		c-0.54089,0.57502-1.01599,1.23468-1.41187,1.91889c-1.15631,1.99833-2.30182,4.00542-3.36792,6.05262
		c-1.10272,2.11748-2.14691,4.26774-3.14551,6.43648c-1.49896,3.25543-2.96283,6.52787-4.38074,9.81931
		c-0.37347,0.86692-0.51691,1.83201-0.77643,2.74908c-0.45599,1.61156-0.99658,3.20393-1.35742,4.83628
		c-0.30835,1.39454-0.48279,2.82835-0.5968,4.25436c-0.33344,4.16876,0.20477,8.27919,0.98083,12.36298
		c0.13281,0.69881,0.37952,1.38487,0.64685,2.04727c0.44739,1.10867,0.94739,2.19641,1.43695,3.28772
		c0.66357,1.47954,1.69385,2.69946,2.8197,3.83484c0.32446,0.32721,0.7688,0.63058,1.20715,0.73109
		c1.08014,0.24765,2.19666,0.55814,3.28442,0.51193c4.49719-0.19096,8.8399-1.15044,12.99249-2.92703
		c0.79871-0.34177,1.62823-0.62196,2.46204-0.86818c1.164-0.34375,2.19379-0.86702,3.13672-1.66388
		c1.70111-1.43755,3.37787-2.90573,5.35114-4.007c1.10626-0.61746,2.04944-1.53647,2.71857-2.65172
		c0.90076-1.50127,1.78479-3.01411,2.6214-4.55174c0.80237-1.47479,1.58856-2.94746,2.92456-4.03162
		c0.24567-0.19931,0.56903-0.39552,0.6709-0.66368c0.47968-1.26347,1.61121-1.92743,2.47223-2.84325
		C808.49274,128.82127,809.27612,127.82253,810.224,126.70692z"/>
	<path class="st8" d="M1036.25098,65.45c-0.19165,0.6835-0.20984,1.20689-0.4613,1.5679
		c-1.2301,1.76637-1.91833,3.86544-3.40686,5.47572c-0.30933,0.33465-0.42236,0.84734-0.64026,1.27055
		c-0.78174,1.5182-1.95398,2.70726-3.23474,3.80035c-0.79956,0.68237-1.74255,0.72901-2.71692,0.54933
		c-1.64526-0.30335-3.28625-0.62984-4.93188-0.9313c-0.54675-0.10016-1.10114-0.2085-1.65375-0.21886
		c-3.82495-0.07172-7.65082-0.09861-11.47552-0.17986c-2.86652-0.06087-5.51654,0.69225-8.034,1.99865
		c-0.6369,0.33051-1.25275,0.70134-1.88574,1.03967c-1.94446,1.0392-3.46014,2.51973-4.63177,4.38309
		c-1.27051,2.02063-2.58325,4.01466-3.87354,6.02293c-0.21429,0.33357-0.48065,0.65714-0.59869,1.0252
		c-0.49658,1.54865-1.47797,2.81245-2.32465,4.16158c-0.54572,0.86964-1.06476,1.78098-1.42242,2.73841
		c-0.70074,1.87562-1.51306,3.66978-2.64465,5.33793c-0.66571,0.98142-1.20825,2.0798-1.6167,3.19496
		c-0.69427,1.89558-1.70111,3.61425-2.82361,5.25592c-0.77655,1.13577-1.35217,2.33421-1.85437,3.59836
		c-0.55829,1.40536-1.16663,2.79285-1.80835,4.1623c-0.51074,1.08982-0.96814,2.17066-1.06573,3.39872
		c-0.04913,0.61723-0.28412,1.23589-0.52142,1.81868c-0.57086,1.40176-1.19653,2.78117-1.79095,4.17346
		c-0.12488,0.29248-0.27014,0.59482-0.30554,0.90413c-0.43573,3.80396-1.66156,7.45807-2.04199,11.28548
		c-0.19904,2.0022-0.21063,3.9631-0.07062,5.94753c0.08124,1.15149,0.5285,2.16451,1.22046,3.06857
		c0.58746,0.76744,1.21552,0.94334,2.09564,0.54512c3.80316-1.72066,7.32574-3.8671,10.28027-6.86278
		c0.44788-0.45415,0.88562-0.92456,1.37573-1.32973c1.66217-1.37399,3.26904-2.80043,4.5979-4.51253
		c0.04865-0.06265,0.10327-0.1245,0.16644-0.17155c2.14246-1.59669,3.56909-3.81236,5.21228-5.86084
		c2.08942-2.60474,4.39636-5.03139,6.11456-7.92587c0.36206-0.60998,0.82367-1.19727,1.35437-1.66434
		c2.00354-1.76316,3.42963-3.95142,4.81305-6.19433c0.62427-1.0122,1.36505-1.97641,2.18225-2.84006
		c1.11389-1.17717,1.98401-2.50097,2.69366-3.93172c1.24451-2.50927,2.66876-4.89877,4.43512-7.07806
		c0.15027-0.18532,0.3053-0.37627,0.40857-0.58871c1.68695-3.47023,4.25732-6.35301,6.34021-9.55905
		c1.47565-2.27135,2.85553-4.60512,4.34015-6.87041c1.17773-1.79709,2.44189-3.53786,3.68433-5.29184
		c0.3446-0.48653,0.83362-0.71591,1.4541-0.63093c0.7887,0.10804,1.58179,0.18414,2.37036,0.29315
		c0.31445,0.04346,0.64197,0.09174,0.9292,0.21667c2.4751,1.0769,2.62451,1.76713,1.65637,3.78252
		c-0.13818,0.28766-0.26941,0.58028-0.43018,0.8552c-2.09229,3.5786-3.77014,7.37153-5.70752,11.03017
		c-0.14893,0.2814-0.35205,0.55509-0.41711,0.85672c-0.58289,2.69849-2.15039,4.95225-3.2865,7.40189
		c-1.54138,3.32332-3.10712,6.63802-4.02374,10.21796c-0.43365,1.69372-1.09985,3.32683-1.62823,4.99767
		c-0.33606,1.06249-0.62885,2.13948-0.91217,3.21755c-0.54669,2.07996-1.15137,4.14892-1.58997,6.25204
		c-0.71375,3.42242-1.65729,6.81976-1.23846,10.39342c0.13818,1.1792,0.02643,2.38962,0.00409,3.5853
		c-0.03381,1.8037,0.29608,3.48128,1.4693,4.93439c0.59814,0.7408,1.06836,1.5851,1.66895,2.32364
		c0.69684,0.85698,1.68018,1.04128,2.58801,0.50526c2.31726-1.36826,4.82117-2.48314,6.45508-4.81364
		c0.6792-0.96873,1.62463-1.74805,2.42322-2.63667c0.63782-0.70958,1.36829-1.38034,1.82642-2.19797
		c1.14636-2.04593,2.70203-3.73921,4.28223-5.4308c0.53796-0.5759,1.12708-1.17685,1.43628-1.8793
		c0.75024-1.70476,1.86646-3.14746,2.94824-4.62875c0.75037-1.02731,1.45459-2.09135,2.12878-3.17059
		c1.39246-2.2288,2.76001-4.47337,4.11877-6.72295c0.45239-0.74915,0.86841-1.52252,1.26318-2.30396
		c0.86365-1.70959,1.9043-3.30389,2.94043-4.91364c1.20264-1.86836,2.18018-3.89153,3.14246-5.90163
		c0.86157-1.80007,1.6759-3.61244,2.79004-5.2822c0.5271-0.78977,1.00659-1.65398,1.29321-2.55284
		c0.63782-2.00076,1.72351-3.755,2.74231-5.55863c0.5835-1.03304,1.07812-2.12888,1.49426-3.24078
		c0.53308-1.42467,1.11646-2.79768,1.97339-4.07507c0.61365-0.91486,1.05615-1.96177,1.46484-2.99343
		c0.91016-2.29736,1.66699-4.65865,2.65002-6.92278c0.66199-1.5248,1.55847-2.95593,2.43042-4.37974
		c1.61877-2.64337,2.96265-5.47487,5.25452-7.66804c0.44458-0.42542,0.68518-1.06299,1.02466-1.59967
		c0.33533-0.53014,0.85095-0.77749,1.43372-0.63458c1.07764,0.26437,2.18176,0.51131,3.18567,0.96348
		c1.22253,0.55066,2.39282,0.68026,3.71204,0.43247c1.56213-0.29348,3.16187-0.40281,4.75-0.53738
		c1.18958-0.1008,2.37744-0.08817,3.48132-0.69251c0.39172-0.21442,0.92505-0.20977,1.39697-0.22988
		c1.11047-0.04729,2.22705,0.00307,3.33386-0.08092c2.00549-0.15211,4.01807-0.05182,5.95471,0.35491
		c2.41785,0.50775,4.72925,1.43312,6.71167,2.99533c0.96875,0.7635,1.70068,1.74738,1.92358,2.95132
		c0.3031,1.6377,0.50574,3.30325,0.6073,4.96563c0.06262,1.02471-0.12512,2.06765-0.23193,3.09917
		c-0.3501,3.37841-1.48242,6.49084-3.09814,9.4689c-1.13782,2.09719-2.10767,4.28557-3.15283,6.43309
		c-0.34741,0.71396-0.68481,1.43315-1.04614,2.14001c-0.54443,1.06503-1.19434,2.08547-1.64197,3.18877
		c-0.99304,2.44757-2.21082,4.77716-3.63135,6.98904c-2.02637,3.15518-3.84009,6.43443-5.79089,9.62917
		c-1.08215,1.77198-2.15723,3.52599-3.00049,5.41917c-0.45276,1.01627-0.90002,2.03725-1.29126,3.07809
		c-1.1759,3.12827-2.8512,6.05688-3.59229,9.36395c-0.40967,1.82822-0.62634,3.57755-0.00281,5.40622
		c0.66797,1.95853,1.15906,3.97664,1.78772,5.94949c0.49097,1.54044,1.4563,2.84291,2.43152,4.09108
		c0.97766,1.25125,2.11096,2.38985,3.24536,3.50743c1.5061,1.48383,3.31104,1.82079,5.302,1.13013
		c3.02637-1.04979,5.94275-2.30783,8.45447-4.36519c0.61353-0.50252,1.31702-0.89565,1.9823-1.33426
		c0.26636-0.17558,0.57019-0.3049,0.80774-0.51175c1.98083-1.72461,3.98694-3.42281,5.91003-5.2101
		c1.28113-1.19067,2.42749-2.52533,3.6593-3.7706c0.3324-0.336,0.75171-0.58809,1.14001-0.86607
		c0.69922-0.50041,1.43933-0.59695,2.26355-0.29749c1.14001,0.41418,2.18726,0.96646,3.06323,1.81462
		c0.44312,0.42908,0.59985,0.96518,0.36584,1.52974c-0.24182,0.58333-0.52014,1.16803-0.88232,1.68175
		c-0.8728,1.23801-1.81812,2.42468-2.70825,3.65086c-1.35706,1.86925-2.64966,3.78682-4.04907,5.62331
		c-1.30359,1.71075-2.71094,3.34248-4.07324,5.00844c-0.05042,0.06165-0.09741,0.14003-0.16443,0.17206
		c-1.8783,0.89769-2.91199,2.68031-4.29724,4.09396c-0.16748,0.17091-0.31824,0.36613-0.50989,0.5043
		c-3.552,2.56232-7.07568,5.17819-11.05994,7.05278c-1.75256,0.82454-3.68127,1.0643-5.59119,1.15913
		c-1.42224,0.07065-2.8667-0.02615-4.28406-0.19391c-3.20544-0.37936-5.53723-2.27455-7.59692-4.58603
		c-0.63623-0.71405-1.24438-1.45349-1.8916-2.15717c-1.52515-1.658-2.78027-3.47403-3.48413-5.64165
		c-0.51709-1.59229-1.16321-3.14748-1.59802-4.76068c-0.84363-3.13046-0.81018-6.29604-0.16357-9.47121
		c1.00842-4.95099,3.00891-9.56505,4.77405-14.26038c1.94446-5.17255,4.64941-9.96774,7.33508-14.77065
		c1.20557-2.15597,2.56689-4.22762,3.71375-6.41302c1.59241-3.03461,3.09253-6.11998,4.55151-9.2216
		c1.25464-2.66746,2.53137-5.33819,3.55273-8.09832c1.21985-3.29637,1.29883-6.71155,0.26807-10.10915
		c-0.11499-0.3789-0.29297-0.74137-0.46692-1.09914c-0.34314-0.70537-0.90906-1.09481-1.7019-1.11945
		c-4.14185-0.1287-8.27515-0.59592-12.42554-0.35256c-1.50977,0.08855-3.01318,0.28167-4.52051,0.41534
		c-0.69031,0.06123-1.18616,0.4251-1.58716,0.95381c-1.25659,1.65707-2.49109,3.33778-3.07312,5.36896
		c-0.4707,1.64269-1.36658,3.02523-2.29602,4.43158c-0.91785,1.38862-1.61279,2.9249-2.39917,4.39973
		c-0.33752,0.63292-0.56616,1.3484-1.00464,1.8987c-1.82129,2.28616-2.79932,4.99277-3.95032,7.61883
		c-0.35071,0.80008-0.77832,1.57053-1.21973,2.3259c-0.84485,1.44572-1.73901,2.86265-2.58374,4.30849
		c-0.36084,0.61781-0.72681,1.25158-0.95654,1.92384c-0.88904,2.60129-2.29773,4.87299-4.03894,6.99245
		c-0.90198,1.09804-1.5387,2.41391-2.29602,3.63094c-1.34644,2.16389-2.6936,4.32728-4.04004,6.49119
		c-0.33704,0.54168-0.71521,1.06287-1.00098,1.63045c-1.43762,2.85493-3.28979,5.46036-4.89917,8.20795
		c-2.25439,3.84915-4.93884,7.43382-6.9541,11.4277c-0.27966,0.55428-0.70508,1.0627-1.15393,1.49867
		c-1.328,1.28984-2.41711,2.74693-3.32764,4.35431c-1.02124,1.80305-2.03369,3.61975-3.77905,4.86674
		c-0.19104,0.13647-0.36792,0.3208-0.49097,0.5202c-1.50342,2.43588-3.7666,4.0715-5.98779,5.76434
		c-1.4137,1.07745-2.89484,1.99701-4.65222,2.35756c-1.48132,0.30388-2.97211,0.5728-4.46881,0.78648
		c-1.40259,0.20026-2.73169-0.18198-3.86591-0.97087c-1.30377-0.90685-2.59344-1.86708-3.52637-3.19864
		c-0.36621-0.52269-0.67914-1.08859-1.08801-1.57446c-1.62585-1.93166-2.12329-4.2486-2.29419-6.66592
		c-0.17419-2.46443-0.32672-4.93193-0.41107-7.40076c-0.09601-2.80867,0.3808-5.56105,1.00671-8.28821
		c0.55304-2.4095,1.12982-4.81355,1.66498-7.22696c0.10089-0.45485,0.07507-0.94273,0.06262-1.41418
		c-0.00287-0.10878-0.17578-0.26962-0.29871-0.30324c-0.13098-0.0358-0.35889,0.00009-0.43359,0.09343
		c-0.2442,0.30502-0.42456,0.66008-0.65356,0.9785c-0.64783,0.90065-1.16779,1.95724-1.99011,2.65572
		c-2.0578,1.74796-3.44794,3.96109-4.69073,6.27522c-0.54242,1.01012-1.15668,1.90677-2.0274,2.62044
		c-1.5672,1.28448-2.83612,2.80443-3.69604,4.63875c-0.45306,0.9664-1.12988,1.71751-1.91504,2.41306
		c-1.49371,1.32324-2.93573,2.69136-4.02747,4.39584c-0.33466,0.52248-0.8761,0.91614-1.33813,1.35257
		c-0.86737,0.81923-1.81171,1.56741-2.60736,2.45024c-2.2066,2.44844-4.83051,4.34206-7.57526,6.13298
		c-1.47919,0.96518-3.04315,1.72922-4.58423,2.55658c-0.85724,0.46028-1.75293,0.69075-2.75305,0.65036
		c-1.34827-0.05441-2.70416,0.08061-4.05249,0.02646c-2.51135-0.10083-4.36414-1.31992-5.64319-3.47571
		c-0.90411-1.52383-1.73645-3.04688-1.57013-4.91696c0.04889-0.54973-0.02478-1.11847-0.10327-1.66982
		c-0.21515-1.51118-0.27509-3.0027,0.0824-4.51393c0.18127-0.76666,0.20636-1.58788,0.18549-2.38135
		c-0.05725-2.17725,0.38953-4.27055,0.83508-6.38449c0.69183-3.2825,1.71918-6.46954,2.55121-9.70857
		c0.93622-3.64488,2.27698-7.14159,3.50464-10.67741c0.80823-2.32784,1.93219-4.54886,2.96033-6.79685
		c1.85498-4.05598,3.92499-8.00989,5.57733-12.16409c0.73273-1.84218,1.75085-3.58035,2.73627-5.3106
		c2.52521-4.43403,4.87555-8.97225,7.69684-13.23193c1.4502-2.18963,2.9953-4.31646,4.4989-6.4707
		c0.13696-0.19616,0.30212-0.3744,0.42389-0.579c2.35706-3.96269,5.8288-6.938,9.0509-10.12338
		c0.70654-0.6985,1.72937-1.11481,2.66284-1.53658c1.177-0.5318,2.18018-1.20324,3.11261-2.13913
		c1.862-1.86909,4.18207-2.88273,6.87952-2.85137c4.46143,0.05185,8.927,0.01198,13.38287,0.19911
		c3.7464,0.15729,7.44183,0.78395,10.94391,2.2304C1034.96143,64.69183,1035.49353,65.04153,1036.25098,65.45z"/>
	<path class="st8" d="M912.4613,51.589c1.17511-0.49299,1.72839-1.03306,2.14288-1.72701
		c1.97449-3.30634,4.32538-6.30231,7.23694-8.84249c0.23712-0.20685,0.4328-0.47154,0.61053-0.73445
		c1.44604-2.13858,3.30261-3.88549,5.28125-5.5088c1.11523-0.91491,2.08435-1.94935,3.02698-3.04309
		c0.97937-1.13637,2.05798-2.29072,3.32428-3.05378c2.26483-1.36477,4.23706-3.11822,6.46234-4.5196
		c0.80865-0.50927,1.61206-1.02696,2.42407-1.53082c0.40625-0.25209,0.87109-0.4282,1.23285-0.73041
		c2.09729-1.75211,4.59515-2.8692,6.85724-4.35881c0.52795-0.34772,1.12885-0.58791,1.70569-0.85719
		c0.43329-0.20229,0.92511-0.30674,1.31665-0.56658c2.60425-1.7282,5.64307-2.11932,8.57751-2.83006
		c0.5415-0.13116,1.10034-0.18949,1.64923-0.29172c3.53088-0.65776,6.44073,0.56529,8.87604,3.0387
		c1.00189,1.01758,1.91962,2.13992,2.73999,3.3097c1.55634,2.21912,3.00916,4.50797,4.07715,7.01879
		c0.53741,1.26336,0.86243,2.55848,0.92267,3.9345c0.04871,1.11378,0.19635,2.22289,0.27527,3.33583
		c0.04498,0.63479,0.12555,1.28425,0.04382,1.90794c-0.47571,3.63029-0.84949,7.26749-2.2522,10.72731
		c-0.65533,1.61645-1.10138,3.31715-1.9317,4.87659c-0.90076,1.69182-1.80139,3.36555-3.07495,4.82836
		c-0.8877,1.01956-1.65002,2.15088-2.43793,3.25397c-0.9314,1.30375-1.96741,2.50228-3.17108,3.56816
		c-0.65326,0.57845-1.2724,1.22337-1.78424,1.92754c-0.90735,1.24831-2.02692,2.23099-3.30011,3.08002
		c-0.99438,0.66308-1.93555,1.4055-2.90808,2.10184c-1.48541,1.06351-2.91376,2.18788-4.61859,2.94401
		c-1.37433,0.60957-2.64233,1.47822-3.91028,2.3044c-2.53027,1.64854-5.34381,2.81283-7.7525,4.68116
		c-1.46448,1.13596-2.80078,2.32997-3.76593,3.93079c-0.4505,0.74722-1.01666,1.42783-1.56073,2.11464
		c-0.56274,0.71034-0.88434,1.51095-0.99133,2.39924c-0.14294,1.18716-0.29761,2.37447-0.38409,3.56626
		c-0.05164,0.71051-0.08081,1.44823,0.04932,2.14197c0.64838,3.45623,1.54865,6.82073,3.1438,10.00353
		c1.13568,2.26595,2.24054,4.57911,2.76251,7.10609c0.11078,0.53624,0.4552,1.01971,0.6228,1.54938
		c1.12958,3.5686,2.31342,7.13402,1.95587,10.96368c-0.12579,1.34808-0.26031,2.7049-0.53766,4.02693
		c-0.35962,1.71411-0.78949,3.42148-1.80701,4.91034c-0.31238,0.45717-0.53522,0.97975-0.76715,1.48695
		c-1.23676,2.70416-2.88757,5.12468-4.91425,7.29871c-0.32141,0.34479-0.55243,0.78114-0.79004,1.19528
		c-0.68622,1.19574-1.67468,2.11661-2.68921,3.01717c-0.47461,0.42125-0.99146,0.80663-1.40759,1.27992
		c-3.40265,3.86958-7.41205,6.97971-11.90424,9.46667c-0.96472,0.53415-2.04358,0.89799-3.1087,1.20616
		c-1.39166,0.4026-2.6814,0.91228-3.87122,1.79385c-1.40363,1.03996-2.95575,1.87967-4.4458,2.80235
		c-0.13483,0.0835-0.28223,0.1523-0.43176,0.2056c-3.23926,1.15494-6.52368,2.1057-9.99524,2.21582
		c-2.98944,0.0948-5.90424-0.28334-8.62415-1.57843c-1.2135-0.5778-2.43677-1.22842-3.4707-2.07256
		c-3.22595-2.63376-5.7948-5.89124-8.33069-9.16551c-1.13562-1.46629-1.79645-3.18748-2.55597-4.85657
		c-0.11017-0.2421-0.44757-0.51837-0.68762-0.52582c-0.25061-0.00777-0.6571,0.2345-0.74432,0.46324
		c-1.11737,2.92824-3.55756,5.1124-4.54327,8.11638c-0.14008,0.42683-0.54022,0.77586-0.84534,1.13974
		c-1.27686,1.52313-2.59113,3.01587-3.83704,4.56371c-0.8985,1.11623-1.76514,2.26634-2.54773,3.46548
		c-0.99139,1.51917-2.28979,2.15164-4.07336,1.7321c-0.38745-0.09116-0.78503-0.14301-1.16766-0.24991
		c-1.02405-0.28607-1.28485-0.69618-0.99841-1.77162c0.44934-1.68727,0.89667-3.33919,1.92645-4.85196
		c0.73138-1.07439,0.98309-2.4986,1.34534-3.79558c0.55695-1.99396,0.98267-4.02492,1.55707-6.01332
		c0.16675-0.57704,0.63098-1.07678,0.99536-1.58588c0.46191-0.6454,1.01575-1.22995,1.43451-1.90033
		c1.72894-2.76782,3.30273-5.64073,5.1604-8.3176c1.96088-2.82553,3.65778-5.79276,5.30774-8.79372
		c0.49335-0.8972,0.8175-1.89122,1.17926-2.85584c0.30774-0.82022,0.4693-1.705,0.84857-2.48697
		c1.98395-4.09015,3.21509-8.50264,5.39716-12.50885c0.49286-0.90491,0.81604-1.90499,1.18805-2.87253
		c0.71539-1.86077,1.42114-3.71861,2.47882-5.42946c0.45679-0.73886,0.8197-1.56481,1.06866-2.39803
		c1.03229-3.45498,2.6792-6.65035,4.09039-9.94605c0.62659-1.46334,1.22693-2.95144,1.66962-4.47749
		c1.26624-4.36501,2.41168-8.76499,3.67035-13.13228c0.95013-3.29675,1.81207-6.60815,2.48102-9.9763
		c0.32483-1.63527,1.01434-3.19543,1.38788-4.82421c0.71246-3.10697,1.315-6.2391,1.96649-9.3601
		c0.53729-2.57379,1.12848-5.14802,1.15924-7.78652c0.02045-1.74509,0.0271-3.53289-0.31311-5.23085
		c-0.71399-3.56349-3.08716-5.8391-6.32257-7.28289c-1.69141-0.75479-3.53009-0.9579-5.31982-1.33665
		c-0.30396-0.06433-0.65271-0.06821-0.95032,0.01236c-2.56824,0.69529-5.24054,0.42461-7.83496,0.86669
		c-1.17731,0.20063-2.35425,0.45292-3.54163,0.53639c-3.66248,0.25744-7.32849,0.03031-10.99298-0.02621
		c-0.23804-0.00368-0.47858-0.03621-0.7124-0.0832c-0.57343-0.1152-0.95056-0.56106-1.01868-1.1694
		c-0.11108-0.99233,0.19324-1.90224,0.6084-2.76919c0.89453-1.86764,1.81989-3.7206,2.74689-5.57245
		c0.5343-1.06732,1.09973-2.119,1.64514-3.18082c0.5036-0.98064,1.19092-1.68302,2.38855-1.69723
		c0.95264-0.01131,1.91571-0.16404,2.8551-0.06777c2.64526,0.27109,5.23828,0.08063,7.85028-0.40979
		c1.9483-0.36581,3.94891-0.45541,5.92725-0.65788c1.10931-0.11351,2.2312-0.14235,3.3288-0.32293
		c1.84241-0.30315,3.64917-0.26066,5.43811,0.28173c1.44824,0.43913,2.90686,0.84869,4.33893,1.33592
		c3.29681,1.1217,6.07245,3.12202,8.79663,5.22716c2.65094,2.04851,3.88184,4.80475,4.14258,8.03496
		c0.19269,2.38681,0.11749,4.77935-0.27979,7.15526c-0.26294,1.57232-0.38153,3.17185-0.70325,4.73061
		c-0.57922,2.80683-1.27435,5.58949-1.89703,8.38764C913.0401,48.53312,912.80463,49.85575,912.4613,51.589z M908.24677,151.32028
		c0.44098,0.02107,0.8429,0.00932,1.23547,0.06403c2.53033,0.35266,4.74854-0.62508,6.76855-1.88779
		c1.67096-1.04446,3.13776-2.44302,4.58887-3.79826c0.59235-0.55316,1.12292-1.0994,1.90881-1.35056
		c0.79724-0.25478,1.25995-0.86835,1.77875-1.5047c1.47876-1.81377,2.52155-3.87607,3.58978-5.92276
		c2.48199-4.75548,2.87073-9.80061,1.46393-14.88407c-0.8891-3.21305-2.25232-6.30278-3.51416-9.4025
		c-1.13904-2.79807-2.55188-5.46871-3.49054-8.36935c-1.04932-3.24249-1.53967-6.51732-1.41992-9.8895
		c0.06836-1.92323,0.48511-3.82636,1.35376-5.5423c1.52454-3.01149,3.78156-5.49851,6.06555-7.94848
		c0.16168-0.17339,0.35297-0.32854,0.5542-0.45427c1.95972-1.22463,3.90833-2.46812,5.89215-3.6526
		c2.05139-1.22487,4.19611-2.30174,6.19366-3.60609c2.0625-1.34676,4.29187-2.46847,6.07343-4.22672
		c0.22296-0.22006,0.53735-0.34412,0.78961-0.53838c0.94366-0.72665,1.96118-1.38123,2.80096-2.21407
		c1.92462-1.90862,3.72583-3.93497,5.19556-6.23066c0.25775-0.4026,0.49866-0.83019,0.82495-1.1722
		c1.27997-1.34153,2.22327-2.92002,3.15454-4.49628c1.13831-1.92676,2.06201-3.96968,2.63934-6.13591
		c0.4718-1.77032,0.86859-3.56644,1.18286-5.3713c0.35504-2.0388,0.75848-4.09564,0.81079-6.15297
		c0.04822-1.89706-0.31415-3.80865-0.55457-5.70639c-0.06836-0.54001-0.25061-1.11194-0.53937-1.56899
		c-0.85016-1.3458-1.75299-2.66085-2.68738-3.95016c-0.70679-0.97526-1.75232-1.3892-2.92535-1.35404
		c-2.24774,0.06736-4.43469,0.41444-6.45215,1.52089c-1.81055,0.99291-3.40558,2.34821-5.36029,3.10761
		c-0.48822,0.18967-0.86646,0.6824-1.27234,1.06048c-1.1637,1.08394-2.27081,2.23353-3.48303,3.25943
		c-1.7124,1.44922-3.24963,3.0498-4.6684,4.78333c-0.60077,0.73412-1.27881,1.43961-2.03674,2.00362
		c-1.83105,1.36248-3.07227,3.2113-4.38037,5.01511c-0.55878,0.77051-1.02679,1.64713-1.7196,2.27208
		c-1.66071,1.49803-2.68768,3.3329-3.33539,5.4311c-0.3089,1.00051-0.73694,1.96866-1.50537,2.69101
		c-1.37891,1.2963-2.21692,2.89845-2.87006,4.63437c-0.39526,1.0506-0.92834,1.98076-1.86273,2.7105
		c-1.21075,0.94559-1.96716,2.2933-2.67761,3.6367c-0.52185,0.98683-0.96204,2.01677-1.47961,3.00603
		c-0.33051,0.63175-0.65936,1.29079-1.12158,1.82236c-1.58417,1.82199-2.84698,3.83253-3.82239,6.03619
		c-0.25714,0.58102-0.4942,1.22457-0.91956,1.66747c-1.3006,1.35439-2.10291,2.98475-2.88727,4.65041
		c-0.3363,0.71413-0.81567,1.36825-1.28119,2.01268c-1.17365,1.62466-2.17822,3.33609-2.862,5.22775
		c-0.78552,2.17307-1.56763,4.3418-2.87207,6.287c-0.43719,0.65197-0.66797,1.44458-0.97803,2.17923
		c-0.62,1.46909-1.07281,3.03513-1.87524,4.39563c-1.87128,3.17267-3.27216,6.56464-4.88812,9.8558
		c-0.47888,0.97526-0.47742,1.81012,0.2793,2.62988c0.86078,0.93253,0.83649,1.97369,0.42151,3.1212
		c-0.70502,1.94962-1.29401,3.94102-1.99146,5.89355c-0.5213,1.45954-0.67365,2.93463-0.55444,4.472
		c0.21552,2.7785,0.60095,5.52289,1.26404,8.23488c0.73981,3.0255,2.21002,5.61539,4.37244,7.83693
		c0.66644,0.6846,1.3302,1.37695,1.93512,2.11501c1.04547,1.27568,2.34406,2.11407,3.91553,2.61488
		C903.38483,150.99425,905.76794,151.60052,908.24677,151.32028z"/>
	<path class="st8" d="M55.6304,50.27219c2.15047-2.48216,4.56887-4.32362,6.25029-6.89687
		c1.7069-2.61216,3.84492-4.88112,6.16408-6.97761c1.0051-0.9086,1.94801-1.88811,2.89214-2.86163
		c2.05905-2.12316,4.21221-4.13051,6.66534-5.80535c0.78632-0.53683,1.43669-1.27117,2.21676-1.81909
		c2.54202-1.78542,5.11304-3.52961,7.67838-5.28169c0.46-0.31413,0.97395-0.55363,1.4153-0.89016
		c2.57662-1.9648,5.52364-3.17075,8.56097-4.18057c0.82782-0.27522,1.69485-0.48623,2.56008-0.5847
		c2.05842-0.23427,4.13103-0.34377,6.18954-0.57777c2.40993-0.27394,4.37184,0.67058,6.10288,2.1845
		c0.95723,0.83717,1.85484,1.76483,2.66068,2.74886c3.12006,3.80994,5.67077,7.92357,6.27645,12.94561
		c0.413,3.42485,0.37115,6.8455-0.42171,10.23156c-0.51035,2.17954-1.26847,4.2496-2.15824,6.31578
		c-1.62867,3.78192-4.16838,6.94657-6.43398,10.30228c-0.62254,0.9221-1.31953,1.79359-1.95697,2.70605
		c-0.82954,1.18743-1.79364,2.23563-2.97467,3.08392c-2.01501,1.44724-3.74413,3.20127-5.42548,5.01501
		c-0.81008,0.87389-1.66116,1.74976-2.63142,2.42751c-2.6124,1.82466-4.94897,4.03162-7.78225,5.55532
		c-0.68392,0.36778-1.22832,1.00394-1.81626,1.53927c-0.88954,0.80991-1.89657,1.39854-2.96075,1.97464
		c-2.44682,1.32458-4.87094,2.73158-7.12966,4.34897c-1.54307,1.1049-2.73058,2.67312-3.6628,4.3719
		c-0.85705,1.56166-1.12936,3.14118-0.12959,4.76379c0.4168,0.67644,0.76873,1.39271,1.18337,2.07056
		c1.49572,2.44521,3.11769,4.80775,4.44175,7.36438c1.6115,3.11154,3.40374,6.12892,5.07452,9.21046
		c1.79469,3.31018,3.14639,6.79881,4.0135,10.46741c0.09042,0.38268,0.1211,0.78786,0.12035,1.18246
		c-0.00737,3.61655-0.53207,7.15684-1.8089,10.54533c-0.47414,1.25853-1.22411,2.4119-1.83169,3.62158
		c-1.29027,2.56895-2.61958,5.10687-4.61593,7.23044c-0.48659,0.51755-0.8367,1.1628-1.2538,1.74632
		c-1.63307,2.28503-3.60726,4.27014-5.73436,6.06763c-1.32563,1.12025-2.92183,1.92053-4.39791,2.8624
		c-0.26898,0.17163-0.53376,0.35391-0.8177,0.49719c-2.78494,1.40535-5.36379,3.10902-7.63093,5.26314
		c-0.70958,0.67419-1.56042,1.07376-2.46172,1.43034c-2.06683,0.81772-4.08258,1.7738-6.29892,2.15315
		c-0.31264,0.05351-0.62494,0.21848-0.92853,0.19832c-2.77758-0.18463-5.58391-0.11121-8.29164-0.93797
		c-3.751-1.14534-7.2655-2.81056-10.67194-4.73582c-2.75724-1.55832-4.90864-3.80647-6.98757-6.11449
		c-2.08285-2.31233-3.86322-4.85521-5.29137-7.64098c-0.45889-0.8951-0.88586-1.87363-1.75226-2.4182
		c-0.79006,0.16589-0.86271,0.78207-1.07185,1.27374c-0.59268,1.39345-1.06694,2.84679-1.76634,4.18307
		c-0.99615,1.90321-2.15164,3.72299-3.23833,5.57883c-0.60402,1.03157-1.20371,2.06569-1.81094,3.09534
		c-0.40792,0.69174-0.83238,1.39244-1.6156,1.70616c-0.81929,0.32819-1.2023,1.00815-1.55972,1.7283
		c-0.63821,1.28593-1.23626,2.59323-1.91492,3.85732c-0.86792,1.61688-2.76378,2.23672-4.50037,1.53802
		c-0.47923-0.19281-0.80128-0.52718-0.87569-1.04318c-0.13806-0.95686-0.16424-1.91368,0.23602-2.82404
		c1.12176-2.55138,1.97659-5.20685,3.01371-7.79306c1.46691-3.65767,3.56927-6.92938,5.49361-10.31619
		c2.32693-4.09526,4.47968-8.26645,6.00136-12.74513c0.74324-2.1877,1.64091-4.32263,2.45575-6.48634
		c2.2762-6.04448,4.55403-12.08837,6.8148-18.13863c1.47936-3.95897,2.95544-7.9195,4.38739-11.89576
		c1.89218-5.25412,3.4-10.62877,4.92396-15.9974c1.04519-3.68203,2.15234-7.34799,3.11647-11.05117
		c1.30547-5.01408,2.49135-10.05919,3.74714-15.08635c0.56047-2.24374,1.23147-4.46158,1.73589-6.71724
		c0.69596-3.11247,1.37455-6.2346,1.88248-9.38136c0.34485-2.13655,0.12555-4.27059-0.64949-6.35798
		c-0.99429-2.67771-2.91803-3.91154-5.66206-3.92938c-2.15129-0.01399-4.30919,0.04596-6.45393,0.20821
		c-2.77764,0.21013-5.55264,0.42089-8.27574,1.15474c-1.44405,0.38918-2.99553,0.40978-4.50417,0.52062
		c-1.27671,0.0938-2.50988,0.24188-3.74024,0.68355c-2.03626,0.73092-4.0952,0.40044-6.09417-0.28935
		c-0.66147-0.22824-0.97336-0.83003-0.86517-1.52981c0.13595-0.87838,0.43779-1.69169,0.98797-2.4084
		c1.64827-2.1472,3.3626-4.24931,4.90438-6.4709c1.25772-1.81243,2.71761-2.8422,5.04594-2.96779
		c2.69306-0.14526,5.36022-0.76983,8.03867-1.18585c0.551-0.08558,1.1303-0.08825,1.64851-0.26785
		c1.99371-0.69102,4.05639-0.79562,6.13509-0.86655c2.70826-0.09241,5.4137-0.29399,8.12225-0.34383
		c4.69489-0.0864,8.73784,1.58172,12.09898,4.83251c1.02263,0.98909,2.08244,1.97075,2.74186,3.2946
		c0.87259,1.75145,1.30068,3.52756,1.12983,5.52718c-0.28669,3.35372-0.81847,6.64382-1.77318,9.87018
		c-0.1802,0.60865-0.23158,1.25428-0.38536,1.87215c-0.23046,0.92612-0.37408,1.90177-0.77568,2.75191
		c-1.04595,2.21419-1.19506,4.61423-1.62086,6.95853C55.32237,49.64758,55.44874,49.80555,55.6304,50.27219z M104.79211,38.80534
		c-0.04263-2.70386-0.45667-5.40219-1.73156-7.99325c-0.83288-1.69283-1.88277-3.12144-3.22653-4.39091
		c-0.56579-0.53451-1.18967-0.70607-1.96717-0.59632c-1.01766,0.14365-2.04906,0.20559-3.07684,0.25984
		c-1.84975,0.09766-3.65175,0.37628-5.29745,1.29073c-2.74262,1.52392-5.146,3.43952-7.12119,5.91044
		c-0.83688,1.04698-1.81585,2.03162-2.89471,2.81935c-1.05273,0.76869-1.91492,1.6489-2.69581,2.67057
		c-1.5962,2.08845-3.17895,4.17975-5.16582,5.94955c-1.05431,0.93916-2.14708,1.95033-2.68937,3.32174
		c-0.69216,1.75051-1.81965,3.18465-3.14745,4.45995c-1.81036,1.73867-3.16148,3.77567-4.2771,6.00578
		c-0.46041,0.92038-1.00971,1.8187-1.65091,2.62138c-1.15864,1.45062-1.9736,3.07373-2.74549,4.74303
		c-0.70145,1.51684-1.5018,2.9888-2.2835,4.46735c-0.55738,1.0543-1.19997,2.06506-1.72783,3.13317
		c-1.30465,2.64018-2.30653,5.42411-3.80161,7.97652c-0.31931,0.54522-0.4998,1.17089-0.75435,1.75507
		c-0.79549,1.8258-1.46275,3.7241-2.4322,5.45266c-0.93934,1.67497-1.77377,3.3754-2.52952,5.13802
		c-0.84424,1.96876-1.69567,3.94278-3.03411,5.67319c-0.77159,0.9975-1.44686,2.11746-1.92515,3.28109
		c-0.54002,1.31391-0.69374,2.7862-1.22984,4.10227c-0.5683,1.39506-1.3918,2.68581-2.09541,4.02653
		c-0.11041,0.21049-0.17406,0.44534-0.26308,0.66743c-0.88925,2.21946-1.67177,4.49007-2.702,6.64209
		c-0.8747,1.82713-1.35948,3.71002-1.73186,5.68059c-0.41388,2.18996-0.31194,4.28222,0.4915,6.3438
		c0.808,2.0735,1.30178,4.28282,2.64671,6.12619c1.07693,1.47598,2.05322,3.03593,3.23161,4.42499
		c1.90533,2.24586,3.94434,4.37811,5.91772,6.56662c0.70537,0.78223,1.53687,1.38425,2.47446,1.85085
		c2.13761,1.06377,4.26552,2.14757,6.41442,3.18797c1.97477,0.95607,4.0713,1.36308,6.26426,1.21474
		c2.0071-0.13576,3.933-0.65105,5.79877-1.37117c1.28215-0.49489,2.43337-1.25111,3.23103-2.38127
		c0.38056-0.53922,0.82835-0.92801,1.32458-1.33029c1.17536-0.95285,2.29087-1.96484,3.10577-3.28035
		c2.6809-4.32777,3.77706-9.09407,3.94773-14.11415c0.02396-0.70502-0.10141-1.43408-0.27307-2.12329
		c-0.60016-2.41036-1.49461-4.703-2.79283-6.83737c-0.82771-1.36091-1.62034-2.74816-2.34155-4.16787
		c-2.2029-4.33652-4.58419-8.56902-7.19665-12.6722c-0.81256-1.27628-1.66516-2.53472-2.37223-3.86879
		c-1.28349-2.42189-1.20827-4.90934-0.03355-7.35475c1.54593-3.21805,3.73901-5.92887,6.66826-7.97675
		c3.26493-2.28252,6.51864-4.59682,9.91566-6.67046c3.96644-2.42118,7.68423-5.11861,10.97383-8.4029
		c1.8048-1.80188,3.73059-3.49478,5.41405-5.40251c1.52214-1.72488,2.82679-3.64845,4.15424-5.53587
		c0.77732-1.10524,1.43663-2.29702,2.10301-3.47586c0.66521-1.17664,1.41535-2.33359,1.87614-3.59151
		c0.93125-2.54235,1.81784-5.11527,2.48253-7.73652C104.54587,43.22326,105.02191,41.0977,104.79211,38.80534z"/>
</g>
</svg>
