<svg width="109" height="108" viewBox="0 0 109 108" fill="none" xmlns="http://www.w3.org/2000/svg">
<path d="M45.435 108H24.5498L22.1543 83.3667H45.7698V85.111H24.0715L26.1279 106.256H45.435V108Z" fill="#B38038"/>
<path d="M44.8096 107.682C41.5056 104.245 38.1102 102.601 34.7278 102.785C29.5717 103.072 26.0633 107.564 26.0285 107.608L24.6504 106.548C24.8112 106.339 28.6588 101.385 34.6148 101.045C38.5275 100.822 42.3881 102.645 46.0617 106.474L44.8096 107.686V107.682Z" fill="#B38038"/>
<path d="M46.1696 89.9295H24.4453V91.6737H46.1696V89.9295Z" fill="#B38038"/>
<path d="M64.0854 106.862H62.3464V89.6285C62.3464 87.47 61.1509 85.5208 59.2336 84.5353L58.7598 84.2911V80.0046H54.521V84.2911L54.0471 84.5353C52.1255 85.5208 50.9343 87.4744 50.9343 89.6285V106.862H49.1953V89.6285C49.1953 86.9947 50.5561 84.5964 52.782 83.2446V78.2603H60.4988V83.2446C62.7247 84.5964 64.0854 86.9947 64.0854 89.6285V106.862Z" fill="#B38038"/>
<path d="M62.3901 80.118H50.8867V74.375H62.3901V80.118ZM52.6257 78.3737H60.6511V76.1193H52.6257V78.3737Z" fill="#B38038"/>
<path d="M59.6979 76.0713H53.5723V70.0013C53.5723 68.3094 54.9461 66.9314 56.6329 66.9314C58.3197 66.9314 59.6935 68.3094 59.6935 70.0013V76.0713H59.6979ZM55.3113 74.327H57.9589V70.0013C57.9589 69.2687 57.3633 68.6757 56.6372 68.6757C55.9112 68.6757 55.3156 69.2731 55.3156 70.0013V74.327H55.3113Z" fill="#B38038"/>
<path d="M67.0063 90.0428H45.8906V91.7871H67.0063V90.0428Z" fill="#B38038"/>
<path d="M63.7839 98.0882H50.3633V99.8324H63.7839V98.0882Z" fill="#B38038"/>
<path d="M88.7848 107.991H44.7188V63.9009C44.7188 60.9008 45.8317 58.0315 47.8533 55.8206C49.6314 53.8801 50.6096 51.3422 50.6096 48.6822V34.6235H62.6608V48.6822C62.6608 51.3466 63.639 53.8801 65.4171 55.8206C67.4387 58.0315 68.5516 60.9008 68.5516 63.9009V106.247H87.0414L87.024 82.717C87.024 79.2111 85.0851 76.0365 81.9636 74.4318L81.4897 74.1876V67.5028H83.2287V73.1367C86.6545 75.1077 88.763 78.7314 88.763 82.7127L88.7804 107.991H88.7848ZM46.4577 106.247H66.8126V63.9009C66.8126 61.3368 65.8605 58.8861 64.1346 57.0023C62.0608 54.7392 60.9218 51.7827 60.9218 48.6822V36.3678H52.3486V48.6822C52.3486 51.7827 51.2095 54.7392 49.1358 57.0023C47.4098 58.8905 46.4577 61.3368 46.4577 63.9009V106.247Z" fill="#B38038"/>
<path d="M68.4734 82.717H66.7344C66.7344 78.7358 68.8429 75.1121 72.2687 73.1411V67.5071H74.0077V74.192L73.5338 74.4362C70.4123 76.0409 68.4734 79.2111 68.4734 82.717Z" fill="#B38038"/>
<path d="M84.6853 68.6409H70.8125V62.1392H84.6853V68.6409ZM72.5515 66.8966H82.9463V63.8834H72.5515V66.8966Z" fill="#B38038"/>
<path d="M88.3048 83.5454H67.5195V85.2897H88.3048V83.5454Z" fill="#B38038"/>
<path d="M88.3048 98.3193H67.5195V100.064H88.3048V98.3193Z" fill="#B38038"/>
<path d="M35.3896 67.2933L17.9258 45.634H52.8534L35.3896 67.2933ZM21.569 47.3783L35.3896 64.52L49.2102 47.3783H21.5646H21.569Z" fill="#B38038"/>
<path d="M36.2585 65.9066H34.5195V84.0992H36.2585V65.9066Z" fill="#B38038"/>
<path d="M45.375 53.0689H25.7461V54.8132H45.375V53.0689Z" fill="#B38038"/>
<path d="M61.9352 45.6602H51.2969V47.4044H61.9352V45.6602Z" fill="#B38038"/>
<path d="M67.4984 66.8398H46.0566V68.5841H67.4984V66.8398Z" fill="#B38038"/>
<path d="M64.5858 36.2412H48.6914V29.3252H64.5858V36.2412ZM50.4304 34.4969H62.8468V31.0695H50.4304V34.4969Z" fill="#B38038"/>
<path d="M77.9323 99.7759L69.8242 91.6433L77.9323 83.5107L86.0403 91.6433L77.9323 99.7759ZM72.2849 91.6433L77.9323 97.3122L83.5796 91.6433L77.9323 85.9789L72.2849 91.6433Z" fill="#B38038"/>
<path d="M4.14806 64.7337C3.19597 64.9997 2.60036 65.4096 2.74818 66.0681C2.87425 66.6349 3.29596 66.7789 3.89156 66.6437C6.22616 66.1117 5.93053 62.6057 9.17809 61.8644C10.8736 61.4763 12.1257 62.1915 12.4996 63.8441C12.8995 65.6058 12.0213 66.4823 10.0911 67.0318L9.64762 65.5055C10.7693 65.1523 11.2214 64.8078 11.0692 64.1363C10.9388 63.5563 10.4171 63.3165 9.68675 63.4866C7.29129 64.0316 7.56083 67.4984 4.40456 68.2179C2.84817 68.5711 1.65261 67.978 1.30481 66.43C0.89615 64.6247 1.98302 63.7656 3.71332 63.2555L4.14371 64.7337H4.14806Z" fill="#B38038"/>
<path d="M11.3252 56.1781L6.26471 56.5139L6.38644 58.3628L11.4469 58.0271L11.5599 59.7364L0.347798 60.4821L0.234764 58.7727L4.85613 58.4631L4.7344 56.6142L0.113034 56.9238L0 55.2319L11.2121 54.4862L11.3252 56.1781Z" fill="#B38038"/>
<path d="M5.62089 52.2187C1.50817 51.8001 -0.000401273 50.8843 0.208278 48.7956C0.421304 46.7199 2.08639 46.1138 6.19475 46.5368C10.0249 46.9292 11.8552 47.8275 11.6378 49.9642C11.4204 52.1053 9.44666 52.6111 5.62089 52.2187ZM6.01651 48.3159C2.87328 47.9932 1.82989 48.172 1.75163 48.9526C1.66903 49.7505 2.65591 50.1168 5.79913 50.4395C9.06843 50.7753 10.0684 50.5311 10.1423 49.8116C10.2118 49.1095 9.28581 48.6517 6.01651 48.3159Z" fill="#B38038"/>
<path d="M12.1434 45.4553L1.30078 42.4814L1.8703 40.3926C2.43113 38.3344 3.67016 37.532 5.87433 38.1382C7.97416 38.7138 8.82191 40.1179 8.28718 42.0889L8.1524 42.586L12.5912 43.8026L12.139 45.4553H12.1434ZM6.84381 41.6267C7.07858 40.7633 6.53949 40.1746 5.42219 39.8693C4.15273 39.5205 3.64842 39.8868 3.41365 40.7502L3.27888 41.2473L6.69165 42.1848L6.84381 41.6223V41.6267Z" fill="#B38038"/>
<path d="M16.0327 34.6932L7.52902 30.0971L6.72908 31.5885L5.33789 30.8341L7.75074 26.3426L9.14193 27.097L8.34634 28.5753L16.85 33.1714L16.0327 34.6932Z" fill="#B38038"/>
<path d="M20.5815 27.6159L16.5427 24.5417L15.4254 26.0156L19.4642 29.0898L18.4339 30.4547L9.48242 23.639L10.5128 22.2742L14.2038 25.0868L15.3211 23.6129L11.6301 20.8046L12.6517 19.4528L21.6032 26.2685L20.5815 27.6203V27.6159Z" fill="#B38038"/>
<path d="M22.9159 24.8426L15.1426 16.7013L18.4423 13.5311L19.5335 14.6779L17.4641 16.6664L19.5987 18.899L21.2247 17.3335L22.2855 18.4455L20.6595 20.0066L23.0506 22.514L25.2418 20.4078L26.333 21.5503L22.9072 24.8382L22.9159 24.8426Z" fill="#B38038"/>
<path d="M35.0579 15.8553L31.1277 8.74308L31.1017 8.75616L33.7623 16.5748L32.8189 17.0981L27.5846 10.7097L27.5585 10.7272L31.4886 17.8394L30.2017 18.5545L24.75 8.69947L26.7194 7.60495L31.206 13.1299L31.2321 13.1124L28.9888 6.336L30.893 5.27637L36.3447 15.1314L35.0579 15.8466V15.8553Z" fill="#B38038"/>
<path d="M38.219 14.486L34.2715 3.93328L35.8844 3.32715L39.8319 13.8799L38.219 14.486Z" fill="#B38038"/>
<path d="M41.7615 13.2084L39.0312 2.2719L40.6876 1.85764L43.0353 11.2548L45.8742 10.5397L46.2568 12.079L41.7615 13.2084Z" fill="#B38038"/>
<path d="M51.7568 11.4947L50.3222 3.82429H50.2917L50.0744 11.6211L48.3093 11.7519L45.8008 0.636657L47.4702 0.510198L48.8788 8.04103H48.9092L49.2005 0.38374L50.9178 0.257281L52.3872 7.78375H52.4176L52.6481 0.130823L54.3175 0.00436401L53.548 11.3638L51.7525 11.499L51.7568 11.4947Z" fill="#B38038"/>
<path d="M59.9779 11.8348L59.8909 8.98293L58.0389 8.78234L57.3607 11.5513L55.6348 11.3638L58.7171 0.361938L60.9909 0.610495L61.6908 12.0223L59.9822 11.8348H59.9779ZM58.4085 7.291L59.8562 7.44798L59.7127 2.23701H59.6518L58.4085 7.291Z" fill="#B38038"/>
<path d="M69.3171 2.38089L70.9474 2.8344L68.6867 11.0019C68.152 12.9206 67.0999 13.5572 65.3957 13.0819C63.7089 12.611 63.1307 11.5208 63.6654 9.60211L65.9261 1.43463L67.5694 1.8925L65.2653 10.2082C65.0131 11.1153 65.2435 11.5208 65.8 11.6778C66.3565 11.8348 66.7608 11.6036 67.013 10.6966L69.3171 2.38089Z" fill="#B38038"/>
<path d="M73.2111 15.9774L74.1023 10.5178L72.7546 11.6952L71.2156 15.0616L69.707 14.3683L74.3893 4.12079L75.8978 4.81413L73.9371 9.10936L73.9676 9.12244L77.7238 5.65137L79.2889 6.37088L75.9544 9.29251L74.7892 16.7012L73.2111 15.973V15.9774Z" fill="#B38038"/>
<path d="M75.9238 17.4338L82.1407 8.04538L85.9491 10.5789L85.0753 11.9002L82.6885 10.3129L80.9843 12.8901L82.8624 14.1416L82.0146 15.4236L80.1365 14.1721L78.2236 17.0632L80.7539 18.7464L79.88 20.0677L75.9282 17.4382L75.9238 17.4338Z" fill="#B38038"/>
<path d="M81.0801 21.0444L88.6056 12.672L92.0009 15.7419L90.9402 16.9193L88.8142 14.9962L86.7492 17.2943L88.423 18.8074L87.397 19.9499L85.7232 18.4368L83.406 21.0139L85.6623 23.0547L84.6059 24.2321L81.0844 21.0488L81.0801 21.0444Z" fill="#B38038"/>
<path d="M87.8457 27.9561L97.1232 21.5983L98.3709 23.4254C99.5448 25.1478 99.5013 26.4516 97.7058 27.6813C96.7102 28.3616 95.7929 28.3834 95.0017 27.9386L94.9756 27.9561C95.2321 29.0549 94.6843 29.9227 93.6105 30.6597C91.515 32.0943 90.2368 31.4707 89.0804 29.7701L87.8457 27.9561ZM90.4803 29.0419C90.9933 29.7919 91.5802 29.9053 92.6801 29.1509C93.7409 28.4227 93.9322 27.8165 93.3409 26.9488L93.0062 26.456L90.0847 28.4575L90.4803 29.0419ZM94.506 26.0723C95.0625 26.8877 95.732 26.927 96.6363 26.3034C97.5797 25.658 97.5797 25.0475 97.1667 24.437L96.7798 23.8658L94.2061 25.6275L94.506 26.0679V26.0723Z" fill="#B38038"/>
<path d="M93.3312 37.4187L95.7223 35.8706L94.9354 34.1787L92.2226 35.029L91.4922 33.4505L102.474 30.4024L103.439 32.4824L94.0615 38.9885L93.3355 37.423L93.3312 37.4187ZM96.3961 33.7208L97.0091 35.0465L101.378 32.2295L101.352 32.1728L96.3918 33.7252L96.3961 33.7208Z" fill="#B38038"/>
<path d="M94.4492 40.1223L96.0013 39.6818L104.64 40.6804L103.818 37.7632L105.34 37.3315L106.683 42.1064L105.148 42.5424L96.4925 41.5482L97.3881 44.7358L95.8665 45.1675L94.4492 40.1223Z" fill="#B38038"/>
<path d="M96.6488 50.7448L99.4008 50.0296L99.1878 48.172L96.3445 48.124L96.1445 46.3929L107.522 46.9685L107.783 49.2447L96.8401 52.4585L96.6445 50.7448H96.6488ZM100.718 48.2025L100.883 49.6546L105.918 48.3595L105.909 48.2985L100.714 48.2069L100.718 48.2025Z" fill="#B38038"/>
<path d="M96.644 58.0096L99.4786 57.7741L99.5829 55.9078L96.7918 55.3758L96.8875 53.6359L108.004 56.1345L107.878 58.4239L96.5527 59.7364L96.6484 58.014L96.644 58.0096ZM101.083 56.1956L101.005 57.652L106.182 57.2291V57.168L101.083 56.1956Z" fill="#B38038"/>
<path d="M95.5089 64.7512L100.43 64.616L100.595 63.879L95.9393 62.8368L96.3132 61.1667L107.278 63.6218L106.786 65.8282C106.352 67.7731 105.352 68.6103 103.213 68.1307C101.839 67.8211 101.108 67.1452 100.869 66.273L95.1133 66.5608L95.5176 64.7512H95.5089ZM101.9 64.7163C101.717 65.5448 102.069 66.0419 103.413 66.3428C104.926 66.6829 105.208 66.1335 105.386 65.3355L105.469 64.9692L102.017 64.1974L101.9 64.7163Z" fill="#B38038"/>
</svg>
