<svg width="112" height="111" viewBox="0 0 112 111" fill="none" xmlns="http://www.w3.org/2000/svg">
<path d="M49.6866 94.702L26.1431 71.394L52.083 45.7136L53.3556 46.978L28.6928 71.394L50.9638 93.4376L49.6866 94.702Z" fill="#B38038"/>
<path d="M62.1918 94.7017L60.9147 93.4374L83.1856 71.3937L58.2656 46.7231L59.5428 45.4587L85.7399 71.3937L62.1918 94.7017Z" fill="#B38038"/>
<path d="M55.9416 72.1533C53.6174 72.1533 51.7266 70.2813 51.7266 67.9804C51.7266 65.6796 53.6174 63.8076 55.9416 63.8076C58.2657 63.8076 60.1566 65.6796 60.1566 67.9804C60.1566 70.2813 58.2657 72.1533 55.9416 72.1533ZM55.9416 65.5947C54.6103 65.5947 53.5317 66.6669 53.5317 67.9804C53.5317 69.294 54.6148 70.3662 55.9416 70.3662C57.2683 70.3662 58.3514 69.294 58.3514 67.9804C58.3514 66.6669 57.2683 65.5947 55.9416 65.5947Z" fill="#B38038"/>
<path d="M43.7565 72.1533C41.4324 72.1533 39.5415 70.2813 39.5415 67.9804C39.5415 65.6796 41.4324 63.8076 43.7565 63.8076C46.0806 63.8076 47.9715 65.6796 47.9715 67.9804C47.9715 70.2813 46.0806 72.1533 43.7565 72.1533ZM43.7565 65.5947C42.4252 65.5947 41.3466 66.6669 41.3466 67.9804C41.3466 69.294 42.4297 70.3662 43.7565 70.3662C45.0833 70.3662 46.1664 69.294 46.1664 67.9804C46.1664 66.6669 45.0833 65.5947 43.7565 65.5947Z" fill="#B38038"/>
<path d="M68.1261 72.1533C65.802 72.1533 63.9111 70.2813 63.9111 67.9804C63.9111 65.6796 65.802 63.8076 68.1261 63.8076C70.4503 63.8076 72.3411 65.6796 72.3411 67.9804C72.3411 70.2813 70.4503 72.1533 68.1261 72.1533ZM68.1261 65.5947C66.7949 65.5947 65.7163 66.6669 65.7163 67.9804C65.7163 69.294 66.7994 70.3662 68.1261 70.3662C69.4529 70.3662 70.536 69.294 70.536 67.9804C70.536 66.6669 69.4529 65.5947 68.1261 65.5947Z" fill="#B38038"/>
<path d="M49.8488 81.9958C47.5247 81.9958 45.6338 80.1238 45.6338 77.823C45.6338 75.5221 47.5247 73.6501 49.8488 73.6501C52.1729 73.6501 54.0638 75.5221 54.0638 77.823C54.0638 80.1238 52.1729 81.9958 49.8488 81.9958ZM49.8488 75.4372C48.5175 75.4372 47.4389 76.5095 47.4389 77.823C47.4389 79.1365 48.522 80.2087 49.8488 80.2087C51.1756 80.2087 52.2587 79.1365 52.2587 77.823C52.2587 76.5095 51.1756 75.4372 49.8488 75.4372Z" fill="#B38038"/>
<path d="M62.0334 81.9958C59.7093 81.9958 57.8184 80.1238 57.8184 77.823C57.8184 75.5221 59.7093 73.6501 62.0334 73.6501C64.3575 73.6501 66.2484 75.5221 66.2484 77.823C66.2484 80.1238 64.3575 81.9958 62.0334 81.9958ZM62.0334 75.4372C60.7021 75.4372 59.6235 76.5095 59.6235 77.823C59.6235 79.1365 60.7066 80.2087 62.0334 80.2087C63.3601 80.2087 64.4432 79.1365 64.4432 77.823C64.4432 76.5095 63.3601 75.4372 62.0334 75.4372Z" fill="#B38038"/>
<path d="M55.9414 111C50.9412 111 46.8706 106.97 46.8706 102.02C46.8706 97.3646 54.8223 83.7605 55.1607 83.1842L55.9414 81.8528L56.7222 83.1842C57.0606 83.7605 65.0123 97.3646 65.0123 102.02C65.0123 106.97 60.9417 111 55.9414 111ZM55.9414 85.4403C53.3646 89.984 48.6757 98.906 48.6757 102.02C48.6757 105.987 51.934 109.213 55.9414 109.213C59.9489 109.213 63.2071 105.987 63.2071 102.02C63.2071 98.906 58.5183 89.984 55.9414 85.4403Z" fill="#B38038"/>
<path d="M55.9415 61.6765C55.1427 61.6765 54.4793 61.1627 54.2853 60.3942L52.0649 51.6063V34.696H53.8701V51.3829L55.9415 59.5811L58.0129 51.3829V34.696H59.818V51.6063L57.5977 60.3942C57.4036 61.1582 56.7403 61.6765 55.9415 61.6765Z" fill="#B38038"/>
<path d="M63.2476 35.5228H48.626V28.5576H63.2476V35.5228ZM50.4311 33.7357H61.4425V30.3447H50.4311V33.7357Z" fill="#B38038"/>
<path d="M59.7187 30.2865H52.1597V22.6601C52.1597 20.596 53.8565 18.9207 55.9414 18.9207C58.0264 18.9207 59.7187 20.6005 59.7187 22.6601V30.2865ZM53.9648 28.4994H57.9136V22.6601C57.9136 21.5834 57.029 20.7077 55.9414 20.7077C54.8538 20.7077 53.9648 21.5834 53.9648 22.6601V28.4994Z" fill="#B38038"/>
<path d="M11.783 60.4524L0.13535 61.0645L0.0135033 58.7994C-0.099318 56.6638 0.636277 55.5469 2.8927 55.4262C4.14276 55.3592 4.9641 55.8328 5.43344 56.6459H5.46503C5.83057 55.5469 6.77827 55.0778 8.12761 55.0063C10.7586 54.8678 11.5529 56.1009 11.6657 58.2052L11.7875 60.4524H11.783ZM4.86482 58.5447C4.81067 57.535 4.23753 57.1463 3.1003 57.2044C1.91793 57.2669 1.58849 57.7986 1.62459 58.5536L1.6607 59.2595L4.8919 59.0898L4.86031 58.5447H4.86482ZM10.032 58.0979C9.9824 57.1642 9.52209 56.7576 8.14115 56.8291C6.80986 56.9006 6.31345 57.3295 6.37211 58.4062L6.4037 59.0183L10.0727 58.8262L10.032 58.1024V58.0979Z" fill="#B38038"/>
<path d="M11.6341 53.0718L0 52.214L0.130873 50.4492L11.765 51.3115L11.6341 53.0762V53.0718Z" fill="#B38038"/>
<path d="M12.2119 48.0143L2.36936 46.1334L2.03541 47.8401L0.424316 47.5318L1.42617 42.3984L3.03726 42.7067L2.70782 44.3955L12.5504 46.2764L12.2119 48.0143Z" fill="#B38038"/>
<path d="M13.7866 41.755L4.33222 38.4578L3.75006 40.0975L2.20215 39.5569L3.95765 34.629L5.50556 35.1696L4.92791 36.7914L14.3823 40.0886L13.7866 41.755Z" fill="#B38038"/>
<path d="M15.6057 37.0729L5.28027 31.6983L7.48706 27.5433L8.9402 28.2984L7.55475 30.903L10.3888 32.3774L11.4764 30.3267L12.8844 31.0594L11.7968 33.1101L14.9739 34.7631L16.4406 32.0021L17.8937 32.7571L15.6012 37.0685L15.6057 37.0729Z" fill="#B38038"/>
<path d="M21.0072 28.4055L16.2822 26.4844L15.8174 27.1054L19.8023 30.0228L18.7508 31.4302L9.37305 24.5633L10.763 22.7003C11.9905 21.0562 13.2947 20.6943 15.1224 22.0301C16.2958 22.8924 16.7064 23.8306 16.5665 24.7465L22.1489 26.8731L21.0072 28.3966V28.4055ZM14.9329 25.7741C15.4564 25.0771 15.3255 24.4606 14.1792 23.6206C12.8886 22.6735 12.3876 23.0711 11.8867 23.7413L11.6566 24.0495L14.608 26.2119L14.9374 25.7741H14.9329Z" fill="#B38038"/>
<path d="M19.5814 17.4598C18.8277 16.7717 18.1418 16.4679 17.6454 16.9549C17.2167 17.3704 17.3159 17.8172 17.7582 18.2639C19.5002 20.0197 22.4245 17.8753 24.8479 20.3191C26.1115 21.5924 26.1656 23.0712 24.9156 24.2864C23.5843 25.582 22.3342 25.2872 20.7954 23.8977L21.8965 22.6914C22.8216 23.4867 23.3677 23.6967 23.8776 23.1963C24.3199 22.7674 24.2432 22.1866 23.6971 21.6371C21.91 19.8366 19.0083 21.9364 16.6526 19.5596C15.4927 18.389 15.3664 17.0219 16.5352 15.8871C17.9026 14.5557 19.252 15.0472 20.6419 16.2892L19.5724 17.4642L19.5814 17.4598Z" fill="#B38038"/>
<path d="M34.2885 17.138L32.4382 14.8639L30.782 15.8468L31.9508 18.5275L30.4029 19.4433L26.0796 8.54661L28.1149 7.34033L35.8228 16.2311L34.2885 17.1425V17.138ZM30.1502 14.3993L31.4454 13.6309L28.0698 9.46249L28.0156 9.49376L30.1502 14.3948V14.3993Z" fill="#B38038"/>
<path d="M37.0548 6.58537C36.6261 5.66502 36.1116 5.12443 35.4618 5.37909C34.9022 5.60247 34.8209 6.04924 35.0601 6.63005C35.9853 8.91304 39.5188 8.04631 40.8095 11.2228C41.4819 12.8804 40.9584 14.2653 39.3293 14.9132C37.5964 15.6012 36.5584 14.8551 35.6784 12.9876L37.1631 12.2906C37.7092 13.3718 38.1334 13.7784 38.7968 13.5103C39.3699 13.2825 39.5279 12.7195 39.2345 12.0002C38.2823 9.65915 34.7894 10.4901 33.5348 7.40296C32.9165 5.87947 33.3317 4.57044 34.8525 3.9673C36.6306 3.2614 37.6911 4.22642 38.4899 5.90181L37.0503 6.5809L37.0548 6.58537Z" fill="#B38038"/>
<path d="M50.842 11.8572L50.7247 11.0753H50.6931C50.2779 11.8393 49.7499 12.1431 49.0594 12.2459C47.4213 12.4827 46.3743 11.2049 45.7109 6.73719C45.2235 3.47577 45.4085 0.848763 47.8184 0.495815C50.0207 0.174141 50.7608 1.854 51.1218 3.94935L49.4837 4.1906C49.2039 2.85029 48.8157 2.01037 48.0576 2.12206C47.2047 2.24715 47.0738 3.35514 47.5386 6.4736C48.0215 9.72161 48.3374 10.7447 49.3212 10.6018C50.0929 10.4901 50.2644 9.53844 50.1109 8.5198C50.0748 8.26514 50.0252 7.94794 49.9575 7.71115L48.8158 7.87645L48.5946 6.39765L51.4377 5.98215L52.2816 11.6472L50.833 11.8572H50.842Z" fill="#B38038"/>
<path d="M57.9859 11.6159L56.8261 6.68807L56.0453 6.67467L55.9551 11.5802L54.186 11.5489L54.3981 0.00439453L56.7358 0.0446038C58.7982 0.0803454 59.8542 0.920273 59.8136 3.17199C59.7865 4.61953 59.2495 5.4952 58.4146 5.91516L59.9038 11.6517L57.9859 11.6159ZM56.623 5.18693C57.4985 5.2048 57.9317 4.74462 57.9588 3.32836C57.9859 1.73786 57.3721 1.56362 56.5282 1.55022L56.1401 1.54128L56.0724 5.17352L56.623 5.18246V5.18693Z" fill="#B38038"/>
<path d="M62.1871 6.08938C62.9678 1.91655 64.0328 0.44221 66.1719 0.8309C68.2975 1.21959 68.7803 2.9754 67.9996 7.14823C67.2731 11.0396 66.1945 12.8356 64.0058 12.438C61.817 12.0359 61.4605 9.97628 62.1826 6.08491L62.1871 6.08938ZM66.1809 6.81762C66.7766 3.62321 66.6819 2.54203 65.8831 2.39906C65.0663 2.25163 64.606 3.23005 64.0103 6.42446C63.392 9.74396 63.559 10.7894 64.2946 10.9234C65.0121 11.053 65.5627 10.1416 66.1809 6.82209V6.81762Z" fill="#B38038"/>
<path d="M76.0189 3.70809L77.6661 4.30229L74.656 12.4603C73.9475 14.377 72.8057 14.9399 71.0818 14.3189C69.3714 13.7023 68.866 12.5407 69.5745 10.6241L72.5846 2.46606L74.2498 3.0692L71.1856 11.3747C70.8517 12.2816 71.0547 12.715 71.6188 12.9205C72.183 13.126 72.6207 12.9205 72.9547 12.018L76.0189 3.70809Z" fill="#B38038"/>
<path d="M78.9297 17.9288L80.6581 10.0165L80.6311 9.99866L76.7726 16.7091L75.4458 15.963L81.2177 5.92859L82.8965 6.87574L81.3983 13.5103L81.4253 13.5281L84.6746 7.88097L86.0149 8.63601L80.243 18.6705L78.9297 17.9288Z" fill="#B38038"/>
<path d="M81.8945 19.7874L89.2776 10.8475L90.7623 12.0493C92.9014 13.7783 92.9239 15.5833 90.1846 18.8939C87.7567 21.8336 85.8433 22.9818 83.5417 21.1188L81.8945 19.7874ZM84.688 19.908C85.6808 20.7122 86.8361 20.0465 88.7496 17.7323C90.7849 15.2661 90.8435 14.2564 89.8507 13.4522L89.6386 13.278L84.3721 19.6534L84.688 19.908Z" fill="#B38038"/>
<path d="M98.7595 24.742C99.5493 24.0942 99.9374 23.4598 99.5177 22.9058C99.1567 22.4322 98.6964 22.4725 98.1909 22.8477C96.2053 24.3266 97.9743 27.4807 95.2124 29.5404C93.7728 30.6126 92.2836 30.4741 91.2276 29.0891C90.1039 27.6103 90.5597 26.4264 92.1527 25.095L93.2178 26.3325C92.3016 27.1367 92.0218 27.6461 92.4506 28.2135C92.8206 28.7004 93.4118 28.7049 94.0346 28.2403C96.0699 26.7212 94.346 23.5983 97.0311 21.5968C98.3534 20.6094 99.7388 20.663 100.727 21.9631C101.882 23.4777 101.215 24.742 99.7885 25.9439L98.755 24.742H98.7595Z" fill="#B38038"/>
<path d="M93.8584 32.556L104.152 27.1233L105.208 29.0801C106.246 31.0102 105.881 32.4801 103.787 33.5836C101.797 34.6335 100.154 34.1912 99.161 32.346L98.9083 31.8769L94.6933 34.1018L93.8584 32.556ZM100.578 31.6669C101.011 32.4756 101.837 32.5337 102.898 31.9752C104.103 31.3408 104.224 30.7109 103.787 29.9022L103.534 29.4331L100.294 31.1442L100.578 31.6669Z" fill="#B38038"/>
<path d="M97.0581 38.9895L107.957 34.8748L108.593 36.5278L97.6944 40.6426L97.0581 38.9895Z" fill="#B38038"/>
<path d="M103.696 46.8527C101.237 47.3798 99.4089 47.1609 98.9215 45.1907C98.3529 42.8764 100.361 41.8801 104.057 40.9866C107.166 40.236 109.906 39.9545 110.501 42.3582C110.998 44.3731 109.554 45.3024 107.329 45.9055L106.936 44.3105C108.34 43.904 109.062 43.4349 108.908 42.8094C108.71 42.0141 107.577 42.0231 104.499 42.7647C101.155 43.5734 100.298 44.0469 100.496 44.8422C100.668 45.5436 101.683 45.5838 103.308 45.2577L103.701 46.8527H103.696Z" fill="#B38038"/>
<path d="M99.9326 49.4574L111.553 48.4387L111.973 53.1164L110.339 53.2594L110.078 50.3286L106.887 50.6056L107.095 52.9154L105.511 53.0539L105.303 50.7441L101.724 51.0568L102.004 54.1663L100.37 54.3093L99.9371 49.4529L99.9326 49.4574Z" fill="#B38038"/>
<path d="M108.669 59.7644C109.694 59.7778 110.407 59.5499 110.452 58.8574C110.488 58.2632 110.118 57.9996 109.482 57.9594C107 57.8031 106.273 61.337 102.816 61.1226C101.015 61.0109 99.9775 59.9476 100.086 58.2141C100.203 56.3689 101.331 55.7613 103.416 55.7792V57.4054C102.189 57.4278 101.638 57.6333 101.593 58.3392C101.553 58.9513 102.004 59.331 102.78 59.3802C105.325 59.541 106.07 56.0562 109.423 56.2662C111.079 56.3689 112.09 57.3027 111.991 58.9245C111.869 60.8188 110.533 61.3504 108.66 61.3459V59.7688L108.669 59.7644Z" fill="#B38038"/>
<path d="M58.9968 44.5073H52.8818V46.2944H58.9968V44.5073Z" fill="#B38038"/>
</svg>
