<svg width="101" height="111" viewBox="0 0 101 111" fill="none" xmlns="http://www.w3.org/2000/svg">
<path d="M69.8888 66.726L69.8802 66.6227C69.179 58.4397 64.2411 49.7572 59.4665 41.3632C56.4384 36.0486 53.5779 31.014 51.9305 26.3842H49.0529C47.4055 31.014 44.545 36.0486 41.5169 41.3675C36.7423 49.7615 31.8044 58.4397 31.1032 66.6442L31.0946 66.7347C31.0301 67.5314 31 68.1947 31 68.8192C31 80.5681 39.7447 90.1293 50.4939 90.1293C61.243 90.1293 69.9877 80.5681 69.9877 68.8192C69.9877 68.199 69.9576 67.5357 69.8931 66.7304L69.8888 66.726ZM50.4939 87.4117C41.2416 87.4117 33.7142 79.0694 33.7142 68.8192C33.7142 68.2722 33.74 67.6779 33.7959 66.9974L33.8088 66.8553C34.4583 59.2667 39.2457 50.8511 43.8783 42.7113C46.3731 38.3269 48.7604 34.1321 50.4939 30.1225C52.2273 34.1321 54.6146 38.3269 57.1094 42.7113C61.742 50.8511 66.5294 59.2667 67.1789 66.8596L67.1875 66.9586C67.2477 67.6822 67.2735 68.2765 67.2735 68.8192C67.2735 79.0737 59.7461 87.4117 50.4939 87.4117Z" fill="#0B374D"/>
<path d="M59.471 60.0246H55.5568C55.2213 58.6851 55.032 56.9409 55.032 55.0588V53.4997C55.032 50.8209 52.9975 48.6417 50.4941 48.6417C47.9907 48.6417 45.9561 50.8209 45.9561 53.4997V55.0588C45.9561 56.9366 45.7669 58.6851 45.4313 60.0246H41.5171V71.0543H46.0852V101.814C46.0852 103.777 46.8121 105.504 47.5132 107.171C47.896 108.084 48.2961 109.032 48.5757 110.014L48.8552 111H52.1372L52.4168 110.014C52.6964 109.027 53.0921 108.084 53.4792 107.171C54.1803 105.504 54.9073 103.777 54.9073 101.814V71.05H59.4753V60.0203L59.471 60.0246ZM48.666 55.0588V53.4997C48.666 52.3197 49.4832 51.3593 50.4941 51.3593C51.5049 51.3593 52.3222 52.3197 52.3222 53.4997V55.0588C52.3222 56.8849 52.4813 58.5861 52.7738 60.0246H48.2143C48.5111 58.5861 48.666 56.8849 48.666 55.0588ZM52.1888 101.809C52.1888 103.226 51.6253 104.561 50.9715 106.112C50.8124 106.495 50.6489 106.883 50.4898 107.279C50.3306 106.883 50.1672 106.495 50.008 106.112C49.3542 104.561 48.795 103.226 48.795 101.809V71.05H52.1888V101.809ZM56.7569 68.3367H44.227V62.7422H56.7612V68.3367H56.7569Z" fill="#0B374D"/>
<g clip-path="url(#clip0_210_920)">
<path d="M13.3804 63.3621L5.79168 66.3909L5.80314 66.4197L13.9321 64.7599L14.3333 65.7748L7.29768 70.2013L7.30914 70.2301L14.8979 67.2028L15.4452 68.5862L4.92763 72.7838L4.08938 70.6649L10.1721 66.8746L10.1606 66.8458L3.12359 68.222L2.31543 66.1764L12.833 61.9788L13.3804 63.3621Z" fill="#0B374D"/>
<path d="M11.7 56.0479L8.97028 56.9202L9.28696 58.7772L12.1471 58.6693L12.4437 60.4024L0.970319 60.4543L0.580566 58.1755L11.4062 54.332L11.7 56.0493V56.0479ZM7.74657 58.8348L7.49868 57.3838L2.50784 58.9672L2.51787 59.0291L7.74657 58.8334V58.8348Z" fill="#0B374D"/>
<path d="M11.3143 52.678L0 52.4678L0.03439 50.5993C0.084542 47.9074 1.46014 46.7932 5.65285 46.8709C9.3727 46.94 11.4074 47.7058 11.3544 50.6036L11.3157 52.678H11.3143ZM9.73093 50.4625C9.75385 49.2116 8.54877 48.7293 5.61703 48.6761C2.49614 48.6185 1.68224 49.1886 1.65932 50.4395L1.65358 50.7087L9.72233 50.8584L9.72949 50.4625H9.73093Z" fill="#0B374D"/>
<path d="M11.707 45.0226L0.616211 42.7582L1.53328 38.2266L3.09372 38.5447L2.51912 41.3849L5.56263 42.0053L6.014 39.7712L7.52716 40.0807L7.07436 42.3148L10.4876 43.0115L11.0966 40.0015L12.657 40.3196L11.7055 45.0211L11.707 45.0226Z" fill="#0B374D"/>
<path d="M16.4656 31.2938L9.20068 28.3442L9.18635 28.373L15.6574 32.7996L14.812 34.3744L4.05078 30.4646L4.85178 28.9733L11.9834 31.8696L11.9992 31.8423L5.68287 27.4272L6.5068 25.8941L13.6685 28.7343L13.6843 28.707L7.33789 24.3481L8.13889 22.8568L17.3267 29.6931L16.4656 31.2952V31.2938Z" fill="#0B374D"/>
<path d="M19.2899 26.9781L10.4102 19.9288L11.4848 18.5627L20.3646 25.612L19.2899 26.9781Z" fill="#0B374D"/>
<path d="M22.6929 23.0266L15.931 16.0032L14.7073 17.1922L13.6011 16.042L17.2837 12.4634L18.3899 13.6136L17.1776 14.7911L23.9396 21.8145L22.6929 23.0252V23.0266Z" fill="#0B374D"/>
<path d="M29.4092 17.5723L26.5577 13.3156L25.0145 14.3592L27.866 18.6159L26.4402 19.5804L20.1196 10.1486L21.5454 9.18416L24.1504 13.0723L25.6937 12.0287L23.0886 8.1405L24.5 7.1861L30.8206 16.6179L29.4078 17.5723H29.4092Z" fill="#0B374D"/>
<path d="M39.3881 12.9917L36.7329 8.78401L36.0135 9.02153L37.5152 13.6093L35.8831 14.1491L32.3481 3.34836L34.5047 2.6358C36.4062 2.00817 37.6456 2.44866 38.3349 4.55469C38.7776 5.90928 38.5699 6.89391 37.9394 7.55322L41.1548 12.4087L39.3881 12.9917ZM36.0666 7.45389C36.8747 7.18614 37.1212 6.62184 36.6884 5.29748C36.2013 3.80757 35.5837 3.84644 34.8042 4.10267L34.4445 4.22216L35.5564 7.62231L36.0651 7.45389H36.0666Z" fill="#0B374D"/>
<path d="M42.8687 12.0834L41.2695 0.827739L45.8262 0.174194L46.0512 1.75767L43.1954 2.1665L43.6338 5.25428L45.8807 4.93182L46.0985 6.4678L43.8516 6.79025L44.3446 10.2552L47.3723 9.82045L47.5973 11.4039L42.8701 12.0819L42.8687 12.0834Z" fill="#0B374D"/>
<path d="M53.2444 11.4485L52.9477 8.58677L51.0735 8.52199L50.5978 11.3579L48.8496 11.2974L51.1279 0L53.4278 0.0791739L54.9768 11.5076L53.2444 11.4471V11.4485ZM51.33 6.99465L52.7944 7.04504L52.2628 1.8138L52.1998 1.81092L51.3286 6.99321L51.33 6.99465Z" fill="#0B374D"/>
<path d="M56.6387 11.8041L58.9672 0.67804L60.648 1.0336L58.6476 10.5949L61.5321 11.2038L61.2039 12.7686L56.6387 11.8041Z" fill="#0B374D"/>
<path d="M65.8999 14.4442L71.0226 4.3056L73.0043 5.31615C74.8743 6.26911 75.466 7.44089 74.4745 9.4044C73.9257 10.4912 73.1261 10.9548 72.209 10.949L72.1947 10.9778C72.9513 11.8257 72.8882 12.8593 72.2964 14.031C71.1401 16.3184 69.7086 16.3875 67.8673 15.449L65.8999 14.4456V14.4442ZM68.75 14.1217C69.5653 14.5377 70.137 14.3492 70.7432 13.15C71.3278 11.9927 71.2046 11.3607 70.2631 10.8814L69.7287 10.6093L68.1166 13.8007L68.7485 14.1232L68.75 14.1217ZM70.8707 9.53828C71.7562 9.99029 72.3638 9.69662 72.8639 8.70767C73.384 7.67697 73.0917 7.13715 72.4311 6.8003L71.8121 6.48504L70.3921 9.295L70.8707 9.53828Z" fill="#0B374D"/>
<path d="M75.671 13.3213C78.2102 10.0104 79.7921 9.19423 81.4643 10.4898C83.1251 11.7753 82.7554 13.5286 80.2162 16.8395C77.8491 19.9245 76.1138 21.0199 74.4043 19.6956C72.6934 18.3712 73.3053 16.4063 75.6725 13.3213H75.671ZM78.7919 15.7383C80.7349 13.2047 81.1362 12.2158 80.5114 11.7321C79.8752 11.2398 79.0369 11.8905 77.0939 14.424C75.0735 17.0584 74.7525 18.0488 75.3257 18.4921C75.8874 18.9269 76.7715 18.3712 78.7919 15.7383Z" fill="#0B374D"/>
<path d="M78.5927 23.2599L85.7014 16.5934L84.5393 15.3439L85.7029 14.2527L89.1977 18.0142L88.0342 19.1054L86.8836 17.8674L79.7749 24.5338L78.5913 23.2613L78.5927 23.2599Z" fill="#0B374D"/>
<path d="M83.6666 29.7017L85.7916 27.7728L84.737 26.2138L82.1778 27.5021L81.1948 26.0482L91.6178 21.2287L92.9118 23.1404L84.641 31.1413L83.6666 29.7003V29.7017ZM86.1169 25.5214L86.9408 26.7392L90.8312 23.221L90.7954 23.1692L86.1169 25.5214Z" fill="#0B374D"/>
<path d="M86.948 36.2041L92.9491 30.993L92.9362 30.9642L85.9923 33.98L85.4048 32.6139L95.7934 28.1024L96.5385 29.8327L91.4689 34.1743L91.4818 34.2031L97.3266 31.6638L97.9213 33.0443L87.5327 37.5558L86.9509 36.2041H86.948Z" fill="#0B374D"/>
<path d="M88.1602 39.7971L99.099 36.8821L99.5432 38.5663L88.6044 41.4814L88.1602 39.7971Z" fill="#0B374D"/>
<path d="M93.7171 48.512C91.284 48.7337 89.5502 48.2975 89.3209 46.3167C89.0515 43.989 91.1078 43.2534 94.7717 42.8259C97.8568 42.4645 100.528 42.5192 100.809 44.9405C101.044 46.9688 99.5419 47.703 97.3266 48.0254L97.1403 46.4218C98.5417 46.1943 99.2926 45.8201 99.2195 45.1896C99.1263 44.3877 98.033 44.2596 94.9795 44.6181C91.6609 45.0067 90.7811 45.3637 90.8742 46.167C90.9559 46.8752 91.9259 47.0321 93.5308 46.9083L93.7157 48.512H93.7171Z" fill="#0B374D"/>
<path d="M89.5342 54.6084L92.39 54.3939L92.5089 52.5139L89.7018 51.9539L89.8136 50.2006L100.987 52.8191L100.841 55.1266L89.4238 56.3473L89.5342 54.6098V54.6084ZM94.022 52.8176L93.9289 54.2874L99.149 53.9073L99.1533 53.844L94.022 52.8176Z" fill="#0B374D"/>
<path d="M89.0786 58.0085L100.081 60.6774L99.6779 62.3559L90.2235 60.0627L89.5314 62.9418L87.9839 62.5661L89.0786 58.01V58.0085Z" fill="#0B374D"/>
<path d="M93.8361 70.2157C94.7689 70.5626 95.4968 70.5828 95.7619 69.9566C95.9912 69.4168 95.7347 69.0497 95.1701 68.8078C92.952 67.8578 91.1293 70.8995 88.0414 69.578C86.4322 68.8885 85.829 67.5641 86.4953 65.9907C87.206 64.3151 88.4369 64.1193 90.3369 64.8117L89.7996 66.3203C88.6747 65.9417 88.103 65.9561 87.8322 66.5967C87.5972 67.1509 87.8823 67.6505 88.5787 67.9484C90.8556 68.923 92.6726 65.9317 95.6745 67.2172C97.1533 67.8506 97.7766 69.0468 97.1533 70.518C96.4239 72.2368 95.0297 72.2944 93.3188 71.6826L93.8375 70.2171L93.8361 70.2157Z" fill="#0B374D"/>
</g>
<defs>
<clipPath id="clip0_210_920">
<rect width="100.988" height="72.7838" fill="white"/>
</clipPath>
</defs>
</svg>
