<svg width="102" height="99" viewBox="0 0 102 99" fill="none" xmlns="http://www.w3.org/2000/svg">
<path d="M31.9053 72.4378L30.3086 72.1459C31.6452 64.9105 36.6952 58.8223 43.545 56.1267V41.2506H59.2801V56.1267C66.1014 58.8101 71.1433 64.8659 72.5003 72.0649L70.9036 72.3648C69.6157 65.5429 64.7445 59.8275 58.1913 57.4522L57.655 57.2576V42.876H45.1701V57.2576L44.6339 57.4522C38.0481 59.8397 33.1728 65.5834 31.9053 72.4418V72.4378Z" fill="#B38038"/>
<path d="M63.6277 40.9021H39.1943V42.5235H63.6277V40.9021Z" fill="#B38038"/>
<path d="M51.4108 56.4754C50.6917 56.4754 50.0945 56.0093 49.9198 55.3121L47.9209 47.339V31.9967H49.546V47.1363L51.4108 54.5744L53.2756 47.1363V31.9967H54.9007V47.339L52.9018 55.3121C52.7271 56.0052 52.1299 56.4754 51.4108 56.4754Z" fill="#B38038"/>
<path d="M57.9924 32.7466H44.8291V26.4272H57.9924V32.7466ZM46.4542 31.1252H56.3673V28.0486H46.4542V31.1252Z" fill="#B38038"/>
<path d="M54.8149 27.9959H48.0098V21.0767C48.0098 19.204 49.5374 17.684 51.4144 17.684C53.2913 17.684 54.8189 19.2081 54.8189 21.0767V27.9959H54.8149ZM49.6349 26.3745H53.1898V21.0767C53.1898 20.0998 52.3935 19.3053 51.4103 19.3053C50.4271 19.3053 49.6308 20.0998 49.6308 21.0767V26.3745H49.6349Z" fill="#B38038"/>
<path d="M54.1613 40.8979H48.6562V42.5193H54.1613V40.8979Z" fill="#B38038"/>
<path d="M54.1374 99.0001C52.8698 99.0001 52.0857 98.9311 52.0207 98.9271L51.3463 98.8663L51.2853 98.1934C51.2731 98.0597 50.9928 94.8534 51.6063 90.7189C52.4229 85.194 54.4746 80.6623 57.5338 77.6101C60.5931 74.5578 65.1353 72.5108 70.6728 71.6961C74.8209 71.084 78.0304 71.3637 78.1645 71.3759L78.8389 71.4367L78.8999 72.1095C78.912 72.2433 79.1924 75.4496 78.5789 79.5841C77.7623 85.1089 75.7106 89.6407 72.6513 92.6929C69.5921 95.7451 65.0499 97.7921 59.5124 98.6069C57.3754 98.923 55.4862 99.0001 54.1374 99.0001ZM52.8617 97.3503C55.5837 97.4597 65.6187 97.4192 71.5016 91.5458C77.3885 85.6764 77.4251 75.6603 77.3194 72.9486C74.6015 72.8392 64.5624 72.8797 58.6795 78.7531C52.7967 84.6266 52.7561 94.6385 52.8617 97.3503Z" fill="#B38038"/>
<path d="M77.2004 71.9197L51.5176 97.5437L52.6667 98.6902L78.3495 73.0662L77.2004 71.9197Z" fill="#B38038"/>
<path d="M75.4711 86.3169H63.1406V87.9383H75.4711V86.3169Z" fill="#B38038"/>
<path d="M59.4112 77.8492H57.7861V91.4445H59.4112V77.8492Z" fill="#B38038"/>
<path d="M48.8554 99.0001C47.5066 99.0001 45.6174 98.923 43.4804 98.6069C37.9429 97.7921 33.4007 95.7451 30.3415 92.6929C27.2822 89.6407 25.2305 85.1089 24.4139 79.5841C23.8004 75.4455 24.0808 72.2433 24.093 72.1095L24.1539 71.4367L24.8283 71.3759C24.9624 71.3637 28.176 71.084 32.32 71.6961C37.8576 72.5108 42.3997 74.5578 45.459 77.6101C48.5182 80.6623 50.5699 85.1981 51.3865 90.7189C52 94.8574 51.7197 98.0597 51.7075 98.1934L51.6465 98.8663L50.9721 98.9271C50.9071 98.9311 50.1189 99.0001 48.8554 99.0001ZM25.6734 72.9486C25.5677 75.6644 25.6043 85.6764 31.4912 91.5458C37.3741 97.4152 47.4091 97.4557 50.1311 97.3503C50.2368 94.6345 50.2002 84.6225 44.3133 78.7531C38.4304 72.8837 28.3913 72.8432 25.6734 72.9486Z" fill="#B38038"/>
<path d="M25.9626 72.0901L24.8135 73.2366L50.3239 98.6886L51.4731 97.5421L25.9626 72.0901Z" fill="#B38038"/>
<path d="M40.7013 74.793H39.0762V87.0952H40.7013V74.793Z" fill="#B38038"/>
<path d="M44.2114 90.8162H30.585V92.4375H44.2114V90.8162Z" fill="#B38038"/>
<path d="M51.4112 77.1033C48.3601 77.1033 45.8818 74.6267 45.8818 71.5866C45.8818 68.8465 50.2168 61.3233 50.7084 60.4761L51.4112 59.2682L52.1141 60.4761C52.6098 61.3233 56.9406 68.8505 56.9406 71.5866C56.9406 74.6307 54.4583 77.1033 51.4112 77.1033ZM51.4112 62.5231C49.6358 65.7132 47.5069 70.0503 47.5069 71.5866C47.5069 73.7349 49.258 75.4819 51.4112 75.4819C53.5645 75.4819 55.3155 73.7349 55.3155 71.5866C55.3155 70.0503 53.1826 65.7132 51.4112 62.5231Z" fill="#B38038"/>
<path d="M12.4451 59.7627L2.13381 61.761L1.8291 60.1843L12.1363 58.1859L12.4451 59.7627Z" fill="#B38038"/>
<path d="M11.5633 52.7623L4.69726 55.4052V55.4335L11.7055 54.9877L11.7908 56.3577L1.31299 57.0225L1.20329 55.2876L6.98459 53.1069V53.0785L1.08547 53.4514L0.996094 52.0692L11.4739 51.4044L11.5592 52.7583L11.5633 52.7623Z" fill="#B38038"/>
<path d="M11.8964 46.0377L4.68097 47.4888V47.5172L11.6608 48.259L11.5145 49.625L1.07324 48.5143L1.25607 46.7876L7.32582 45.6121V45.5837L1.45108 44.9595L1.59734 43.5813L12.0427 44.6879L11.9005 46.0377H11.8964Z" fill="#B38038"/>
<path d="M7.25674 41.7168C3.53932 40.671 2.29612 39.5928 2.82834 37.712C3.3565 35.8434 4.98566 35.5596 8.70308 36.6054C12.1645 37.5782 13.7043 38.697 13.1599 40.6183C12.6155 42.5437 10.7223 42.6896 7.25674 41.7168ZM8.24805 38.2065C5.40413 37.408 4.41688 37.3999 4.22186 38.1052C4.01873 38.8226 4.86784 39.3172 7.70771 40.1157C10.6613 40.9466 11.6242 40.8858 11.807 40.2373C11.9858 39.605 11.2057 39.0375 8.24805 38.2065Z" fill="#B38038"/>
<path d="M14.8947 35.4217L4.54688 32.7829L5.24567 31.271L12.5099 33.4031L12.5221 33.3747L6.17604 29.2686L6.88296 27.7445L15.6219 33.853L14.8988 35.4136L14.8947 35.4217Z" fill="#B38038"/>
<path d="M18.8239 28.4377L16.4228 27.3028L15.468 28.7539L17.475 30.4888L16.5853 31.8426L8.76855 24.6275L9.93863 22.848L19.7055 27.1001L18.8239 28.4418V28.4377ZM14.3873 27.8175L15.1349 26.6826L10.7512 24.5951L10.7187 24.6437L14.3873 27.8175Z" fill="#B38038"/>
<path d="M20.9973 25.6408L14.2206 19.6944L13.1765 20.878L12.0674 19.9051L15.2079 16.3422L16.317 17.315L15.2851 18.4864L22.0618 24.4328L21.0014 25.6367L20.9973 25.6408Z" fill="#B38038"/>
<path d="M24.1827 22.2967L17.1582 14.5101L18.3527 13.4359L25.3771 21.2226L24.1827 22.2967Z" fill="#B38038"/>
<path d="M27.9927 19.1553L20.3994 11.6645L21.7686 10.716L26.9567 16.2165L26.9811 16.2003L23.5805 9.45944L24.9619 8.49878L29.4106 18.1743L27.9927 19.1593V19.1553Z" fill="#B38038"/>
<path d="M32.1412 16.4759L27.5381 7.0598L31.3774 5.19116L32.0234 6.51664L29.6182 7.68808L30.8817 10.2701L32.775 9.34999L33.4047 10.6349L31.5115 11.5551L32.9294 14.4533L35.4808 13.2129L36.1267 14.5384L32.1452 16.4759H32.1412Z" fill="#B38038"/>
<path d="M43.9641 12.2401L43.0297 9.75534L41.3315 10.1364L41.5671 12.7752L39.9827 13.1319L39.3936 2.52401L41.4777 2.05786L45.5364 11.8875L43.9682 12.2401H43.9641ZM41.2055 8.71361L42.5341 8.41771L40.8358 3.87786L40.779 3.89002L41.2055 8.71361Z" fill="#B38038"/>
<path d="M50.4804 11.5348L47.8924 4.66016H47.864L48.2459 11.6564L46.8727 11.7294L46.2998 1.26743L48.0387 1.1742L50.1716 6.96251H50.2L49.8791 1.07286L51.2686 0.99585L51.8414 11.4578L50.4844 11.5307L50.4804 11.5348Z" fill="#B38038"/>
<path d="M53.6252 11.5146L54.8318 1.10535L56.5463 1.30397C59.0164 1.58771 59.9184 2.95777 59.4674 6.81259C59.0692 10.2337 58.1836 12.0415 55.5225 11.7335L53.6211 11.5146H53.6252ZM55.8028 10.254C56.9485 10.3877 57.501 9.31761 57.8138 6.62208C58.147 3.75224 57.696 2.94966 56.5463 2.81995L56.2984 2.79158L55.4371 10.2134L55.7987 10.254H55.8028Z" fill="#B38038"/>
<path d="M64.4443 13.6831L67.5483 5.22765L66.0654 4.68449L66.5732 3.29822L71.0382 4.93175L70.5303 6.31398L69.0596 5.77487L65.9557 14.2303L64.4443 13.6791V13.6831Z" fill="#B38038"/>
<path d="M71.5503 16.9097L73.7808 12.7387L72.2573 11.928L70.0268 16.099L68.6211 15.3491L73.5655 6.1073L74.9712 6.85719L72.9317 10.6674L74.4552 11.4781L76.4947 7.66787L77.8882 8.40965L72.9439 17.6515L71.5503 16.9097Z" fill="#B38038"/>
<path d="M77.5506 14.4371C79.9517 11.4173 81.4264 10.6876 82.9662 11.9037C84.4898 13.1116 84.1241 14.7208 81.723 17.7406C79.4845 20.5537 77.8594 21.5387 76.2911 20.2983C74.7229 19.0539 75.3161 17.2542 77.5506 14.4411V14.4371ZM80.4148 16.7029C82.2512 14.3925 82.6371 13.4886 82.0643 13.0346C81.4793 12.5725 80.6952 13.1602 78.8547 15.4707C76.9452 17.8703 76.6324 18.7783 77.1606 19.1958C77.6765 19.6052 78.5013 19.1026 80.4108 16.7029H80.4148Z" fill="#B38038"/>
<path d="M89.5724 18.3568L90.6287 19.5282L84.7581 24.7977C83.3767 26.0381 82.231 26.0097 81.1219 24.7815C80.025 23.5655 80.1184 22.4224 81.4997 21.1861L87.3704 15.9166L88.4348 17.1002L82.4545 22.471C81.8004 23.0588 81.7801 23.4885 82.1416 23.8897C82.5032 24.291 82.9379 24.3154 83.588 23.7276L89.5684 18.3568H89.5724Z" fill="#B38038"/>
<path d="M85.8587 31.0359L86.4641 30.6508L86.4478 30.6265C85.6678 30.5698 85.2168 30.2455 84.8837 29.7186C84.0833 28.462 84.7618 27.1325 88.2354 24.9355C90.7665 23.3303 93.0173 22.5115 94.1955 24.3599C95.2681 26.0502 94.1467 27.2784 92.5379 28.3485L91.7375 27.0919C92.7491 26.3664 93.3017 25.7381 92.932 25.1584C92.5176 24.5058 91.5466 24.8058 89.1292 26.342C86.6103 27.935 85.875 28.5755 86.3503 29.3294C86.7282 29.9212 87.5773 29.7104 88.3695 29.2078C88.5686 29.0822 88.8123 28.9281 88.983 28.7863L88.4264 27.9107L89.5761 27.1852L90.9615 29.3659L86.5656 32.1506L85.8628 31.04L85.8587 31.0359Z" fill="#B38038"/>
<path d="M88.6297 36.6945L92.9971 34.8583L92.3268 33.2694L87.9593 35.1056L87.3418 33.6383L97.0193 29.5686L97.6409 31.0359L93.6512 32.7141L94.3216 34.303L98.3112 32.6249L98.9247 34.076L89.2472 38.1457L88.6337 36.6945H88.6297Z" fill="#B38038"/>
<path d="M90.0557 40.9871L98.8109 38.8104L98.429 37.2822L99.8631 36.9255L101.013 41.5262L99.5788 41.8829L99.2009 40.3669L90.4457 42.5436L90.0557 40.9871Z" fill="#B38038"/>
<path d="M91.0265 45.4338L101.472 44.3434L101.915 48.5833L100.444 48.7373L100.164 46.0823L97.2994 46.3823L97.5188 48.4738L96.0928 48.6238L95.8734 46.5322L91.189 47.0227L91.0225 45.4419L91.0265 45.4338Z" fill="#B38038"/>
<path d="M101.83 54.8337L101.749 56.4064L93.8589 56.0051C92.0022 55.9119 91.2099 55.081 91.2953 53.4353C91.3806 51.8017 92.25 51.06 94.1067 51.1532L101.997 51.5545L101.915 53.1434L93.8792 52.734C93.0016 52.6894 92.6807 52.9813 92.6522 53.5204C92.6238 54.0595 92.9163 54.3797 93.7898 54.4243L101.826 54.8337H101.83Z" fill="#B38038"/>
<path d="M90.9899 57.6467L101.273 59.7707L100.948 61.3273L92.1112 59.5032L91.5586 62.1744L90.1123 61.8745L90.9899 57.6467Z" fill="#B38038"/>
</svg>
