<svg width="150" height="124" viewBox="0 0 150 124" fill="none" xmlns="http://www.w3.org/2000/svg">
<path d="M4.56769 65.204C3.20282 65.0827 2.22447 65.3192 2.09764 66.2528C1.98894 67.0531 2.46 67.4472 3.29945 67.5624C6.59687 68.0171 7.91946 63.3064 12.5093 63.9429C14.9008 64.2703 16.1811 65.8163 15.8611 68.1505C15.5229 70.6362 13.9527 71.3455 11.1746 71.1151L11.3437 68.9144C12.9743 69.0053 13.7292 68.781 13.8621 67.8291C13.9768 67.0046 13.4152 66.4468 12.3825 66.3013C9.00049 65.8345 7.66582 70.4725 3.20282 69.8601C1.00454 69.557 -0.257659 68.1929 0.0443023 66.0103C0.394578 63.4579 2.23051 62.8759 4.72471 63.0639L4.56165 65.1979L4.56769 65.204Z" fill="#B38038"/>
<path d="M16.7731 62.2333L1.66895 58.2804L2.27287 55.9584L17.377 59.9113L16.7731 62.2333Z" fill="#B38038"/>
<path d="M20.155 52.1024L19.1706 51.7023L19.1525 51.7447C19.7564 52.7451 19.7564 53.5635 19.4061 54.4366C18.5727 56.4979 16.3804 56.8313 10.7156 54.5336C6.58481 52.8603 3.6437 50.8414 4.86363 47.804C5.98089 45.0333 8.43886 45.3243 11.1263 46.3429L10.2929 48.4042C8.54152 47.81 7.30348 47.6827 6.91697 48.6346C6.48818 49.7077 7.68999 50.6171 11.6397 52.2237C15.7524 53.8909 17.1655 54.2304 17.6608 52.9936C18.0533 52.0236 17.0568 51.1688 15.7705 50.6474C15.4504 50.514 15.0458 50.3503 14.7257 50.2715L14.1459 51.7083L12.2738 50.9505L13.7171 47.3675L20.8918 50.2775L20.161 52.0964L20.155 52.1024Z" fill="#B38038"/>
<path d="M24.8535 43.4449L14.2486 40.747L14.2244 40.7834L23.1021 46.2883L22.0271 48.0344L8.74683 39.8013L10.1057 37.5944L18.9954 39.9225L19.0196 39.8861L11.549 35.2542L12.6361 33.49L25.9164 41.7231L24.8535 43.451V43.4449Z" fill="#B38038"/>
<path d="M31.074 35.5028L27.7766 33.3203L26.0675 35.2725L28.6644 38.2614L27.07 40.0802L17.063 27.7668L19.1586 25.3721L32.6563 33.6962L31.0801 35.5028H31.074ZM24.6664 33.6598L26.0011 32.132L19.9799 28.1306L19.9195 28.1973L24.6603 33.6598H24.6664Z" fill="#B38038"/>
<path d="M34.8605 31.8046L26.0915 21.6132L24.316 23.1531L22.8787 21.4859L28.2294 16.8479L29.6668 18.5151L27.9033 20.0429L36.6723 30.2343L34.8605 31.8046Z" fill="#B38038"/>
<path d="M35.9234 11.6157L37.9163 10.3668L44.1367 20.3642C45.5982 22.7165 45.26 24.3959 43.1765 25.6994C41.1111 26.9968 39.4563 26.5603 37.9948 24.214L31.7744 14.2166L33.7855 12.9556L40.1206 23.1349C40.8091 24.2443 41.4432 24.3898 42.1257 23.9654C42.8081 23.5411 42.953 22.9045 42.2646 21.795L35.9294 11.6157H35.9234Z" fill="#B38038"/>
<path d="M53.2379 20.4916L49.1493 14.9867L48.183 15.3868L50.7255 21.5344L48.5333 22.4438L42.5544 7.9661L45.4472 6.75962C47.9958 5.69865 49.7472 6.1776 50.9127 8.99675C51.6616 10.8095 51.4804 12.1857 50.6772 13.1558L55.5992 19.4913L53.2318 20.4795L53.2379 20.4916ZM48.0985 13.2285C49.1855 12.7799 49.4633 11.9735 48.7326 10.2032C47.9112 8.2086 47.0597 8.3238 46.0149 8.76031L45.5318 8.96038L47.416 13.5195L48.0985 13.2346V13.2285Z" fill="#B38038"/>
<path d="M57.6165 18.9456L53.9507 3.71611L60.1228 2.21863L60.6361 4.35876L56.771 5.29848L57.7796 9.47568L60.8233 8.73603L61.3246 10.8155L58.2808 11.5552L59.4102 16.2416L63.5108 15.2474L64.0241 17.3875L57.6225 18.9395L57.6165 18.9456Z" fill="#B38038"/>
<path d="M69.6706 5.26809C69.4895 3.90399 69.0426 3.00064 68.1065 3.07946C67.3033 3.14615 67.0254 3.69785 67.0979 4.54663C67.3818 7.87505 72.2494 8.13575 72.648 12.7676C72.8533 15.1806 71.6394 16.7751 69.2962 16.9752C66.808 17.1874 65.7693 15.8111 65.3828 13.0405L67.5569 12.7191C67.8287 14.3379 68.2152 15.029 69.1633 14.9442C69.9847 14.8714 70.4074 14.2045 70.3229 13.1557C70.033 9.74236 65.2258 9.45135 64.8392 4.95283C64.652 2.73389 65.6968 1.20002 67.883 1.01208C70.4376 0.793823 71.4099 2.46107 71.7783 4.94677L69.6646 5.26203L69.6706 5.26809Z" fill="#B38038"/>
<path d="M87.6072 18.1271C87.1603 17.6361 86.7376 17.1025 86.345 16.5508C85.3727 17.2541 84.2434 17.5572 82.8906 17.339C80.5534 16.957 79.5207 15.308 79.9193 12.8101C80.2213 10.955 81.4049 9.73636 82.6973 8.68751C82.3531 7.14759 82.2746 5.6986 82.492 4.38906C82.806 2.449 84.0018 1.29708 86.0672 1.63053C87.9756 1.93973 88.7366 3.23715 88.4527 4.9832C88.1568 6.81414 86.6047 7.95393 85.113 9.17253C85.3184 9.8273 85.5599 10.4821 85.874 11.1308C86.1518 11.731 86.4296 12.3251 86.7497 12.9314C87.1724 12.0705 87.5589 11.0702 87.9032 10.0213L89.8961 10.6336C89.3405 12.2888 88.7124 13.7377 87.9334 14.8715C88.344 15.4717 88.797 16.0719 89.3405 16.6721L87.6072 18.1393V18.1271ZM85.2821 14.92C84.799 14.0894 84.334 13.1497 83.8629 12.1008C83.6697 11.6704 83.4945 11.246 83.3435 10.8216C82.7758 11.4824 82.341 12.2524 82.1961 13.1557C82.0149 14.2773 82.341 15.2595 83.4764 15.4414C84.1649 15.5505 84.7446 15.3625 85.2821 14.9139V14.92ZM84.642 7.16578C85.5056 6.44431 86.1759 5.71073 86.333 4.7407C86.4417 4.0738 86.2484 3.64335 85.729 3.55847C85.1493 3.46147 84.7929 3.89192 84.6601 4.73463C84.5393 5.48641 84.5333 6.32912 84.642 7.16578Z" fill="#B38038"/>
<path d="M104.173 18.1151C102.735 21.1767 101.008 22.941 98.5019 21.8315C95.5548 20.528 96.1225 17.5634 98.1698 12.889C99.897 8.95432 101.824 5.80172 104.891 7.1537C107.458 8.28743 107.277 10.5913 106.117 13.465L104.088 12.5677C104.795 10.7368 104.879 9.57878 104.082 9.22714C103.068 8.7785 102.156 9.99711 100.447 13.8954C98.5865 18.1332 98.3993 19.4307 99.4139 19.8793C100.308 20.2734 101.171 19.2245 102.144 17.2238L104.173 18.1211V18.1151Z" fill="#B38038"/>
<path d="M103.883 24.2929L112.229 11.0459L114.234 12.3191L107.066 23.7048L110.502 25.8874L109.33 27.7486L103.889 24.2929H103.883Z" fill="#B38038"/>
<path d="M115.152 32.6958L117.338 29.3917L115.4 27.6699L112.416 30.2647L110.611 28.6581L122.9 18.6486L125.28 20.7584L116.952 34.2782L115.158 32.6898L115.152 32.6958ZM117.006 26.2754L118.522 27.6214L122.526 21.589L122.46 21.5283L117.006 26.2754V26.2754Z" fill="#B38038"/>
<path d="M129.882 31.8955C130.896 30.9679 131.38 30.0828 130.782 29.3613C130.268 28.7368 129.658 28.8217 129.006 29.3613C126.445 31.4893 129.006 35.6544 125.431 38.619C123.571 40.165 121.572 40.068 120.074 38.2492C118.48 36.3152 119.017 34.6783 121.065 32.7807L122.562 34.3933C121.391 35.5392 121.046 36.2485 121.656 36.9882C122.182 37.6248 122.973 37.5944 123.776 36.9275C126.403 34.745 123.903 30.6163 127.376 27.7365C129.085 26.3178 130.939 26.3057 132.34 28.0033C133.976 29.9858 133.161 31.7379 131.331 33.4597L129.87 31.8955H129.882Z" fill="#B38038"/>
<path d="M135.975 40.8925C137.117 40.1347 137.733 39.3344 137.256 38.528C136.845 37.8369 136.229 37.8187 135.498 38.2552C132.642 39.9649 134.538 44.4756 130.558 46.8582C128.487 48.101 126.524 47.6948 125.322 45.6699C124.042 43.5116 124.827 41.9777 127.14 40.4135L128.378 42.2384C127.043 43.1903 126.597 43.839 127.086 44.6635C127.508 45.3728 128.294 45.4638 129.193 44.9303C132.128 43.1721 130.287 38.7099 134.152 36.4C136.054 35.2603 137.89 35.5331 139.013 37.4246C140.33 39.6375 139.255 41.2441 137.189 42.6628L135.988 40.8925H135.975Z" fill="#B38038"/>
<path d="M128.288 50.8656L142.552 44.5059L143.525 46.7006L129.26 53.0603L128.288 50.8656Z" fill="#B38038"/>
<path d="M137.727 61.0631C134.478 61.9543 132.02 61.7785 131.229 59.1473C130.305 56.0553 132.92 54.5579 137.793 53.0907C141.894 51.8539 145.536 51.284 146.502 54.4972C147.305 57.1951 145.445 58.5532 142.516 59.5293L141.876 57.3952C143.724 56.7465 144.654 56.0553 144.406 55.2187C144.086 54.1517 142.57 54.2426 138.512 55.4673C134.097 56.795 132.992 57.4983 133.306 58.5592C133.59 59.499 134.943 59.4808 137.093 58.923L137.733 61.0571L137.727 61.0631Z" fill="#B38038"/>
<path d="M144.817 67.8594C146.164 67.6108 147.045 67.1137 146.919 66.1861C146.81 65.3858 146.248 65.1312 145.409 65.2464C142.111 65.695 142.093 70.5876 137.503 71.2121C135.112 71.5334 133.463 70.3936 133.149 68.0595C132.817 65.5738 134.133 64.4704 136.875 63.9429L137.298 66.1073C135.698 66.4589 135.033 66.8773 135.16 67.8291C135.269 68.6536 135.963 69.0416 136.996 68.9022C140.378 68.4414 140.432 63.6095 144.889 63.0092C147.088 62.7122 148.664 63.6883 148.96 65.8708C149.304 68.4232 147.692 69.4781 145.234 69.9692L144.817 67.8655V67.8594Z" fill="#B38038"/>
<path d="M66.0892 115.979H36.8955L33.5498 81.5308H59.2045V83.9558H36.2131L39.0878 113.554H66.0892V115.979Z" fill="#B38038"/>
<path d="M38.9489 115.433L37.0344 113.96C37.2398 113.687 42.1859 107.315 49.9282 106.357C54.5965 105.782 59.2407 107.303 63.7158 110.88L62.212 112.778C58.2684 109.625 54.2402 108.273 50.2422 108.764C43.5145 109.589 38.9972 115.379 38.9489 115.439V115.433Z" fill="#B38038"/>
<path d="M61.0767 90.7158H36.7446V93.1409H61.0767V90.7158Z" fill="#B38038"/>
<path d="M98.8218 124C94.0267 124 90.1313 120.083 90.1313 115.276C90.1313 110.468 93.7187 102.089 98.8218 102.089C101.129 102.089 103.387 103.884 105.175 107.152C106.594 109.753 107.518 112.942 107.518 115.276C107.518 120.09 103.617 124 98.8278 124H98.8218ZM98.8218 104.514C95.7116 104.514 92.547 111.42 92.547 115.276C92.547 118.75 95.3613 121.575 98.8218 121.575C102.282 121.575 105.097 118.75 105.097 115.276C105.097 111.42 101.932 104.514 98.8218 104.514Z" fill="#B38038"/>
<path d="M104.662 36.6971H92.9697V39.1222H104.662V36.6971Z" fill="#B38038"/>
<path d="M100.03 38.1461H97.614V103.296H100.03V38.1461Z" fill="#B38038"/>
<path d="M84.5993 115.979L62.5018 115.955L55.4419 60.4023L59.2345 46.2762L66.234 46.2823L66.2461 37.5702L82.081 37.5884L82.0689 46.2944L89.0744 46.3005L92.8187 60.4387L90.3728 79.3967L87.9813 79.0815L90.3607 60.6024L87.2143 48.7256L79.6532 48.7195L79.6592 40.0074L68.6557 39.9953L68.6497 48.7074L61.0825 48.7013L57.8999 60.5721L64.6336 113.53L84.5993 113.554V115.979Z" fill="#B38038"/>
<path d="M97.8616 59.3595H50.0852V61.7846H97.8616V59.3595Z" fill="#B38038"/>
<path d="M88.7122 98.3487H78.3247L74.3569 78.0992H92.68L88.7122 98.3487V98.3487ZM80.3116 95.9236H86.7253L89.7449 80.5243H77.292L80.3116 95.9236Z" fill="#B38038"/>
<path d="M92.68 115.979H74.3569L78.3247 95.7296H88.7122L92.68 115.979V115.979ZM77.292 113.554H89.7449L86.7253 98.1547H80.3116L77.292 113.554V113.554Z" fill="#B38038"/>
</svg>
